<?xml version="1.0" encoding="utf-8" ?>
<svg baseProfile="full" height="200mm" version="1.1" viewBox="0,0,200,200" width="200mm" xmlns="http://www.w3.org/2000/svg" xmlns:ev="http://www.w3.org/2001/xml-events" xmlns:xlink="http://www.w3.org/1999/xlink"><defs /><rect fill="#1a1a1a" height="200" width="200" x="0" y="0" /><text alignment-baseline="middle" fill="#e1ed5e" style="dominant-baseline: central; font-size:9.0px; font-family:Arial;" text-anchor="middle" x="100.0" y="100.0">2026</text><line stroke="#e1ed5e" stroke-width="0.3" x1="100.0" x2="100.0" y1="15.0" y2="10.0" /><path d="M 100.0 14.0 a86.0,86.0 0 0,1 42.46469731375804,11.215312516191453" fill="none" id="id109" stroke="none" /><text fill="#e1ed5e" style="font-size:6.75px; font-family:Arial;" text-anchor="middle"><textPath startOffset="22.20632615414155" xlink:href="#id109">January</textPath></text><path d="M 100.0 79.0 l 0.0 -26.559872772617197 a47.5598727726172,47.5598727726172 0 0,0 0.8186650287612446,0.007046508364321761 l -0.4571845494887163 26.555937640861433" fill="#d2ff1c" stroke="none" /><path d="M 101.08401301168833 79.027996857942 l 1.188938982892339 -23.001967518912416 a44.03267430512885,44.03267430512885 0 0,0 0.7566028562083504,0.04564035047926408 l -1.5847038879403013 22.978093899052848" fill="#ffff18" stroke="none" /><path d="M 101.44485096284872 79.0497635885617 l 1.8421105600002043 -26.710472374203007 a47.773918386525466,47.773918386525466 0 0,0 0.8199137561479338,0.06364108767108305 l -2.3016145055104795 26.67480602434346" fill="#cfff1d" stroke="none" /><path d="M 102.16513564639614 79.11191278185805 l 0.5467814638872944 -5.275059290604611 a26.30332164672715,26.30332164672715 0 0,0 0.4499537592284664,0.05055754756315463 l -0.6375019266254861 5.264865789570855" fill="#ff0000" stroke="none" /><path d="M 102.52436894288641 79.15227682838746 l 2.8018332850744847 -23.13918687078028 a44.30820110601077,44.30820110601077 0 0,0 0.7563732144198678,0.09819895128830448 l -3.1997212280021987 23.087529596327837" fill="#fcff18" stroke="none" /><path d="M 102.88285421437855 79.19881850522331 l 4.066859434965671 -29.344349359928213 a50.62482379730365,50.62482379730365 0 0,0 0.8621432071547311,0.1270574977379497 l -4.571371622549058 29.269997378029295" fill="#acff20" stroke="none" /><path d="M 103.95276090670814 79.375362276772 l 5.603613990779853 -29.238426312229333 a50.770556981241185,50.770556981241185 0 0,0 0.8568948002007247,0.17188503567252003 l -6.1060752004477035 29.137637320479605" fill="#abff21" stroke="none" /><path d="M 104.66035177308747 79.52364482259891 l 6.545581723728854 -28.75955780672386 a50.49503018035927,50.49503018035927 0 0,0 0.8458550258839469,0.20018655614691047 l -7.039660436575324 28.64262533843608" fill="#aeff20" stroke="none" /><path d="M 105.01212808612495 79.60689891045804 l 7.783137274160056 -31.667647454006257 a53.61007698702425,53.61007698702425 0 0,0 0.8942444497840994,0.22796282143321875 l -8.327090612629181 31.528981636404172" fill="#89ff24" stroke="none" /><path d="M 105.71112130821622 79.79150937346287 l 6.69927100650049 -23.705004329838278 a45.6334622474428,45.6334622474428 0 0,0 0.7540598951910159,0.22013076109005772 l -7.106321119414933 23.58617523982952" fill="#eaff1a" stroke="none" /><path d="M 106.0581310904928 79.89281104454417 l 16.032906226803497 -53.213882333011554 a76.5767159431814,76.5767159431814 0 0,0 1.2588286882553603,0.39112420110500823 l -16.946520287769577 52.930017997024024" fill="#43ffe0" stroke="none" /><path d="M 106.40334571778207 80.00007090966166 l 7.649437211060658 -23.891916592502717 a46.0866013662486,46.0866013662486 0 0,0 0.7534439006428199,0.24839860810451786 l -8.059563933945896 23.756704260138964" fill="#e5ff1a" stroke="none" /><path d="M 106.74666289553966 80.11325718540242 l 7.746457519883188 -22.83377883367627 a45.11201069866628,45.11201069866628 0 0,0 0.7332162421116635,0.255804749794449 l -8.138355766058126 22.697053230709614" fill="#f1ff19" stroke="none" /><path d="M 107.76421540070413 80.48803036053334 l 9.971377511758389 -25.058709120234553 a47.96974735244154,47.96974735244154 0 0,0 0.7645832481253299,0.3118927044523791 l -10.401244629472107 24.883355529598596" fill="#cdff1d" stroke="none" /><path d="M 109.08828744355905 81.06846463323043 l 10.76522051904136 -22.424703691754512 a45.874832833339354,45.874832833339354 0 0,0 0.7089381607386601,0.3478728765898323 l -11.149629946790451 22.236075655029847" fill="#e7ff1a" stroke="none" /><path d="M 109.73455568895987 81.39251694778311 l 12.240059395942309 -23.396722464326505 a47.40503126468356,47.40503126468356 0 0,0 0.719777573248792,0.3844802521535745 l -12.640982015719413 23.182563485671178" fill="#d4ff1c" stroke="none" /><path d="M 110.36928655335952 81.73862282372117 l 21.80822083951581 -38.40651372152068 a65.1662630570716,65.1662630570716 0 0,0 0.9706771436798076,0.5622788544937036 l -22.466094715660944 38.02543070963693" fill="#34ff5b" stroke="none" /><line stroke="#e1ed5e" stroke-width="0.3" x1="143.23703022742887" x2="145.7803849466894" y1="26.81831364943548" y2="22.513508569990506" /><path d="M 143.74570117128098 25.957352633546492 a86.0,86.0 0 0,1 28.547481713284135,27.462654790039103" fill="none" id="id110" stroke="none" /><text fill="#e1ed5e" style="font-size:6.75px; font-family:Arial;" text-anchor="middle"><textPath startOffset="19.985693538727396" xlink:href="#id110">February</textPath></text><path d="M 111.2981086023043 82.29822771554956 l 13.2431294311898 -20.74921296796645 a45.61524559945061,45.61524559945061 0 0,0 0.6582344544562878,0.4281339991609081 l -13.598330911430368 20.518180044646012" fill="#ebff1a" stroke="none" /><path d="M 112.48926042617603 83.11751280151076 l 32.54376158977514 -43.991366957049394 a75.72053348754835,75.72053348754835 0 0,0 1.0411712039998453,0.7841885651099386 l -33.29617894753336 43.424661802433604" fill="#42ffd7" stroke="none" /><path d="M 113.34407831869373 83.78471172551755 l 16.894364237076804 -20.52947980187846 a47.58719774460549,47.58719774460549 0 0,0 0.6280206281977857,0.5259492152092564 l -17.245242402233707 20.23562942927538" fill="#d2ff1c" stroke="none" /><path d="M 113.89432698308785 84.25364557470407 l 16.45654392990948 -18.650098968537343 a45.87255575234033,45.87255575234033 0 0,0 0.5875815937271387,0.5275365564036123 l -16.77513651123261 18.364063403364433" fill="#e7ff1a" stroke="none" /><path d="M 114.16331599549186 84.49514656593476 l 13.308919985932597 -14.569529749478729 a40.73318393754292,40.73318393754292 0 0,0 0.5136107606950354,0.4773452267432109 l -13.55773863042248 14.338279936660877" fill="#ffd313" stroke="none" /><path d="M 114.42810811169701 84.74124197986012 l 37.495767569274825 -39.65446056334541 a75.5748003036108,75.5748003036108 0 0,0 0.9375477066540912,0.9019201509831613 l -38.17279851954133 39.00315732559994" fill="#42ffd5" stroke="none" /><path d="M 116.15771136456269 86.58626213691792 l 35.49592282278962 -29.467849326566967 a67.13366104022843,67.13366104022843 0 0,0 0.7304829895296876,0.8954857718824702 l -35.997904304395725 28.852479385076396" fill="#36ff73" stroke="none" /><path d="M 117.04232023915458 87.72973835380427 l 21.626443823923022 -15.570774429330474 a47.64867893157914,47.64867893157914 0 0,0 0.4735084750493891,0.6697441578476652 l -21.891264918776294 15.196203771151016" fill="#d1ff1c" stroke="none" /><path d="M 117.65298651832404 88.62581576622439 l 20.776251382862885 -13.38656836737635 a45.71543716340767,45.71543716340767 0 0,0 0.4205219469296395,0.6651647314786958 l -21.00360092603848 13.026955988183447" fill="#e9ff1a" stroke="none" /><line stroke="#e1ed5e" stroke-width="0.3" x1="172.23445277983987" x2="176.4835382374775" y1="55.19839476539836" y2="52.563006222186495" /><path d="M 173.08426987136738 54.67131705675599 a86.0,86.0 0 0,1 12.851231095245387,41.99856678651699" fill="none" id="id111" stroke="none" /><text fill="#e1ed5e" style="font-size:6.75px; font-family:Arial;" text-anchor="middle"><textPath startOffset="22.20632615414155" xlink:href="#id111">March</textPath></text><path d="M 118.21658344932153 89.55222093294921 l 28.335224951803667 -16.25113572669718 a53.66472693100083,53.66472693100083 0 0,0 0.4526807765692848,0.80526859003832 l -28.610763369665385 15.760983626724066" fill="#88ff25" stroke="none" /><path d="M 118.3937258080291 89.86733742301442 l 16.37066195456351 -9.018205200986488 a39.69028083998988,39.69028083998988 0 0,0 0.32449998857003853,0.6012491958131493 l -16.523470042352013 8.73507502184088" fill="#ffc512" stroke="none" /><path d="M 118.56541770881063 90.18545643968196 l 22.361440695717118 -11.821297921857756 a46.29381573715979,46.29381573715979 0 0,0 0.366361689454272,0.7076941734419817 l -22.561611818331507 11.43463102615543" fill="#e2ff1b" stroke="none" /><path d="M 118.73160827565052 90.50648371742162 l 30.72872030964507 -15.573868634741224 a55.44995843423573,55.44995843423573 0 0,0 0.4241657430766517,0.8550922550980489 l -30.99224606567513 15.042616791144226" fill="#74ff27" stroke="none" /><path d="M 119.34039704204932 91.81776055985345 l 28.241998803478324 -11.948192996037179 a51.66544981385766,51.66544981385766 0 0,0 0.3394624576943765,0.8220352672275477 l -28.4434829480589 11.460283158356328" fill="#a0ff22" stroke="none" /><path d="M 119.47837535516314 92.15188598940014 l 27.381102913687943 -11.032235157416755 a50.520078071348536,50.520078071348536 0 0,0 0.31805143721487333,0.8094062161832323 l -27.56694790078452 10.559279936337738" fill="#aeff20" stroke="none" /><path d="M 119.61058180528143 92.48833698450437 l 23.335366111015837 -8.938409288905456 a45.98868688329056,45.98868688329056 0 0,0 0.2767980477563533,0.7416811526558618 l -23.485768747273816 8.535404999220262" fill="#e6ff1a" stroke="none" /><path d="M 119.7369772167798 92.82701384747503 l 27.890152935526913 -10.136085105689672 a50.674919579282175,50.674919579282175 0 0,0 0.2908907350234823,0.8223872796790376 l -28.06049675136021 9.65450019958402" fill="#acff21" stroke="none" /><path d="M 120.18372546131832 94.20196356495316 l 23.99329694933669 -6.892385163272335 a45.9636389923013,45.9636389923013 0 0,0 0.2118994441603107,0.7623150435595456 l -24.108383164063362 6.478358816293838" fill="#e6ff1a" stroke="none" /><path d="M 120.28053869075195 94.5502522615342 l 17.860830799828747 -4.7995284416618205 a39.4944518740738,39.4944518740738 0 0,0 0.17077338575893808,0.6580595181774918 l -17.94080051745799 4.491372497935479" fill="#ffc212" stroke="none" /><path d="M 120.37134235888165 94.90015583598534 l 24.172147262071263 -6.051353022027573 a45.918097372320815,45.918097372320815 0 0,0 0.18534993007631717,0.7683951214635691 l -24.2727299924084 5.634372668904598" fill="#e7ff1a" stroke="none" /><path d="M 120.45610955862082 95.25157060432595 l 26.801370419288194 -6.221340122304145 a48.5139697112083,48.5139697112083 0 0,0 0.18182484405167765,0.8150851236145772 l -26.904489650341908 5.7590768291396035" fill="#c6ff1e" stroke="none" /><path d="M 120.6074358757038 95.95851677861258 l 52.56248029466661 -10.308433492973197 a74.56377634004409,74.56377634004409 0 0,0 0.2361693145621521,1.2616259219426638 l -52.732135333138615 9.402129493567971" fill="#40ffca" stroke="none" /><path d="M 120.78858239683441 97.02765380044208 l 23.501835407098234 -3.3602864217216317 a44.74084649582535,44.74084649582535 0 0,0 0.10244375738373679,0.7633249838073647 l -23.556195163539805 2.9552430958496028" fill="#f6ff19" stroke="none" /><path d="M 120.83666639777658 97.38593545837742 l 29.123283680992525 -3.6536623350759037 a50.35157407742075,50.35157407742075 0 0,0 0.10048650929992128,0.8609070456046641 l -29.181860543296033 3.151811551146387" fill="#b0ff20" stroke="none" /><path d="M 120.98425023603335 99.18683210126433 l 25.081438936472587 -0.9719394673542422 a46.10026385224275,46.10026385224275 0 0,0 0.02390255992850477,0.7932095972095008 l -25.094453190856736 0.5400597227197423" fill="#e4ff1a" stroke="none" /><line stroke="#e1ed5e" stroke-width="0.3" x1="184.98032266829074" x2="189.97916517819016" y1="98.17113171792111" y2="98.06355123074" /><path d="M 185.9800911702706 98.14961562048488 a86.0,86.0 0 0,1 -9.607161424134198,41.387399972396054" fill="none" id="id112" stroke="none" /><text fill="#e1ed5e" style="font-size:6.75px; font-family:Arial;" text-anchor="middle"><textPath startOffset="21.466115282336823" xlink:href="#id112">April</textPath></text><path d="M 120.99513854157772 99.54816195383933 l 20.229457593572796 -0.43535976558900746 a41.234141757328224,41.234141757328224 0 0,0 0.009163783147074228,0.709745103584247 l -20.233954383837585 0.08707840394429772" fill="#ffda14" stroke="none" /><path d="M 120.99980553446 99.90962569577887 l 21.192596607064644 -0.09120399566841987 a42.192792857917375,42.192792857917375 0 0,0 -0.00312568772440476,0.7262997479167808 l -21.191026622050735 -0.27360523045204566" fill="#ffe715" stroke="none" /><path d="M 120.99824983174949 100.27111621757518 l 24.692885324609456 0.31881903129391154 a45.69494343441645,45.69494343441645 0 0,0 -0.01692440026881054,0.7864103773377491 l -24.683738861655637 -0.7438192244217755" fill="#eaff1a" stroke="none" /><path d="M 120.9764740272857 100.99374915477107 l 62.151532814788226 2.944395379418007 a83.22123829833376,83.22123829833376 0 0,0 -0.08010499569846795,1.4303285096884923 l -62.09164146820223 -4.013795605441922" fill="#4cdaff" stroke="none" /><path d="M 120.89721153311464 102.0752229133903 l 21.1525069210567 2.1005753312428292 a42.25655112589005,42.25655112589005 0 0,0 -0.07810962196238984,0.7231980904337258 l -21.113214997593257 -2.4643697435613463" fill="#ffe715" stroke="none" /><path d="M 120.8583938346157 102.4346265915055 l 20.92549171480801 2.44245836823027 a42.06755340297104,42.06755340297104 0 0,0 -0.09014173394339596,0.7185183107720283 l -20.88034847161777 -2.8022944332896933" fill="#ffe515" stroke="none" /><path d="M 120.5718875245553 104.21870165774334 l 26.221405051268384 5.377254995493503 a47.76708714352839,47.76708714352839 0 0,0 -0.1721115507642082,0.8040478662848032 l -26.12495946177973 -5.827816681194475" fill="#cfff1d" stroke="none" /><path d="M 120.41448212921028 104.9243191809786 l 17.77514275102743 4.287665777633085 a39.28496042216359,39.28496042216359 0 0,0 -0.16422738302058537,0.6560067595441855 l -17.698704053711786 -4.5930003765746665" fill="#ffbf11" stroke="none" /><path d="M 119.9155931802556 106.66101706037122 l 17.06649794739871 5.708101835556487 a38.99577113528753,38.99577113528753 0 0,0 -0.21839334475948152,0.6347532875296962 l -16.965713771696 -6.001027826175484" fill="#ffbb11" stroke="none" /><path d="M 119.79798401119884 107.00284435728193 l 18.910663370222704 6.688985716915075 a41.058806520403365,41.058806520403365 0 0,0 -0.24141745130239145,0.6642771413145748 l -18.792721657915084 -7.01351065523578" fill="#ffd714" stroke="none" /><path d="M 119.67450827220406 107.3425965602758 l 30.536839347417022 11.3964572050227 a53.59413742003108,53.59413742003108 0 0,0 -0.33000135946008174,0.861529416614687 l -30.336143708363434 -11.92041018847053" fill="#89ff24" stroke="none" /><path d="M 118.97047184881838 109.00673069616215 l 25.365043738147904 12.042721966354376 a49.078685798966276,49.078685798966276 0 0,0 -0.36890051061888074,0.7600443165968587 l -25.15398997091431 -12.47755523891651" fill="#bfff1e" stroke="none" /><path d="M 118.81262510543309 109.33194174019688 l 18.612035073767103 9.23243970479882 a41.77608703509596,41.77608703509596 0 0,0 -0.3251001768761896,0.6414534912384938 l -18.450356227104646 -9.551447407740007" fill="#ffe115" stroke="none" /><path d="M 118.64920377521936 109.65438752849418 l 23.530068507079097 12.181131306056853 a47.496114504644524,47.496114504644524 0 0,0 -0.382111876886808,0.7228116684492408 l -23.316904121967397 -12.58435798959223" fill="#d3ff1c" stroke="none" /><line stroke="#e1ed5e" stroke-width="0.3" x1="174.80103733775053" x2="179.2010983576182" y1="140.37084112569926" y2="142.7455964860345" /><path d="M 175.68104954172406 140.8457921977663 a86.0,86.0 0 0,1 -30.038265399797805,32.042727171017184" fill="none" id="id113" stroke="none" /><text fill="#e1ed5e" style="font-size:6.75px; font-family:Arial;" text-anchor="middle"><textPath startOffset="22.206326154141568" xlink:href="#id113">May</textPath></text><path d="M 118.48025628344425 109.97397251340804 l 44.67403407486603 24.111006962871187 a71.76524379224347,71.76524379224347 0 0,0 -0.5960738808967081,1.0820472351901518 l -44.25238378451781 -24.876424716459145" fill="#3dffaa" stroke="none" /><path d="M 117.75023020441432 111.22182372390056 l 38.503634861673696 24.3422760252247 a66.55300538547729,66.55300538547729 0 0,0 -0.6205121324817825,0.9630486093789412 l -38.078917865814866 -25.00144623452509" fill="#36ff6c" stroke="none" /><path d="M 117.14729908036423 112.12312394758627 l 17.06858772809597 12.0674750972829 a41.903603571041316,41.903603571041316 0 0,0 -0.4214708498326561,0.5853861475353093 l -16.85833708588771 -12.35949485026934" fill="#ffe315" stroke="none" /><path d="M 116.0416608686014 113.55231037782055 l 22.619628937213204 19.109507082789438 a50.6111613113095,50.6111613113095 0 0,0 -0.5679475839205568,0.6606513501647622 l -22.28733884372187 -19.496035532115727" fill="#adff20" stroke="none" /><path d="M 115.80600337817218 113.82643327865902 l 18.845861113931537 16.485574185723205 a46.038782665269096,46.038782665269096 0 0,0 -0.5269054279314722,0.5919838339670996 l -18.559296836351727 -16.80753218943117" fill="#e5ff1a" stroke="none" /><path d="M 115.56566222782051 114.09645910891815 l 18.274054824225185 16.549213442612885 a45.65395597643402,45.65395597643402 0 0,0 -0.5325285955063185,0.5779546147471469 l -17.986479820723144 -16.861319312161367" fill="#eaff1a" stroke="none" /><path d="M 115.07121518719521 114.62390073753431 l 29.04315281456245 28.181150530320583 a61.46828351465645,61.46828351465645 0 0,0 -0.7433546123948227,0.7530142977541415 l -28.553757577112094 -28.67690532205539" fill="#33ff2f" stroke="none" /><path d="M 114.81725581225074 114.88116024355365 l 15.231241381443995 15.296931265647373 a42.58672787074855,42.58672787074855 0 0,0 -0.5239182463603324,0.5127642742372954 l -14.965673182707867 -15.556845642807241" fill="#ffec16" stroke="none" /><path d="M 112.92097659922987 116.55440617244103 l 15.272877352969777 19.567670692787047 a45.822459970361805,45.822459970361805 0 0,0 -0.6259593978692227,0.47995897400808135 l -14.933789226607061 -19.8276690086225" fill="#e8ff1a" stroke="none" /><path d="M 112.63410532772338 116.77436683061366 l 15.073523792345426 20.013195312528516 a46.054722232262264,46.054722232262264 0 0,0 -0.6373425935187478,0.47149081397570297 l -14.726796228408114 -20.26969607524399" fill="#e5ff1a" stroke="none" /><path d="M 111.7513745106137 117.40417183066458 l 15.504831573189819 22.96316508861025 a48.707521596125346,48.707521596125346 0 0,0 -0.6988956485039131,0.46318992621350363 l -15.10726122594594 -23.226653035915074" fill="#c4ff1e" stroke="none" /><path d="M 111.45004920935366 117.60387380957326 l 34.35014762806101 52.81162142871979 a84.0,84.0 0 0,0 -1.2188727918122781,0.7779422847047646 l -33.4359930342018 -53.39507814224836" fill="#4dd2ff" stroke="none" /><line stroke="#e1ed5e" stroke-width="0.3" x1="143.8653032363475" x2="146.44561519142675" y1="172.8068346515853" y2="177.08958963109032" /><path d="M 144.38136562736335 173.6633856474863 a86.0,86.0 0 0,1 -40.68145358897372,12.25698825130547" fill="none" id="id114" stroke="none" /><text fill="#e1ed5e" style="font-size:6.75px; font-family:Arial;" text-anchor="middle"><textPath startOffset="21.466115282336833" xlink:href="#id114">June</textPath></text><path d="M 110.5260780823613 118.17145234162733 l 14.826373038985778 25.59516744689402 a50.579282177323165,50.579282177323165 0 0,0 -0.757126653365817,0.42991627357296935 l -14.383597618698763 -25.84658688626162" fill="#adff20" stroke="none" /><path d="M 109.57404056367764 118.69057910512821 l 9.08057969535782 17.727237730786474 a40.91762749846387,40.91762749846387 0 0,0 -0.6296367349057631,0.315712929925953 l -8.774089052769297 -17.88091850162173" fill="#ffd614" stroke="none" /><line stroke="#e1ed5e" stroke-width="0.3" x1="102.19456741930631" x2="102.32365962044197" y1="184.97166512339345" y2="189.96999836594603" /><path d="M 102.22038585953345 185.97133177190398 a86.0,86.0 0 0,1 -42.740103519485714,-10.115201625700543" fill="none" id="id115" stroke="none" /><text fill="#e1ed5e" style="font-size:6.75px; font-family:Arial;" text-anchor="middle"><textPath startOffset="22.20632615414155" xlink:href="#id115">July</textPath></text><line stroke="#e1ed5e" stroke-width="0.3" x1="58.666819895761336" x2="56.23545636021788" y1="174.27360380694188" y2="178.64263932499728" /><path d="M 58.180547188652646 175.14741091055294 a86.0,86.0 0 0,1 -31.652253787137756,-30.449443065178592" fill="none" id="id116" stroke="none" /><text fill="#e1ed5e" style="font-size:6.75px; font-family:Arial;" text-anchor="middle"><textPath startOffset="22.20632615414155" xlink:href="#id116">August</textPath></text><line stroke="#e1ed5e" stroke-width="0.3" x1="26.63291911575756" x2="22.317208475507996" y1="142.92168965132927" y2="145.44649492493687" /><path d="M 25.769776987707644 143.4266507060508 a86.0,86.0 0 0,1 -11.730757126820373,-40.83630448921669" fill="none" id="id117" stroke="none" /><text fill="#e1ed5e" style="font-size:6.75px; font-family:Arial;" text-anchor="middle"><textPath startOffset="21.46611528233685" xlink:href="#id117">September</textPath></text><line stroke="#e1ed5e" stroke-width="0.3" x1="15.007084014347285" x2="10.007500721073583" y1="101.09737516637583" y2="101.16192664675087" /><path d="M 14.007167355692545 101.11028546245083 a86.0,86.0 0 0,1 10.666146001902534,-42.60595125391555" fill="none" id="id118" stroke="none" /><text fill="#e1ed5e" style="font-size:6.75px; font-family:Arial;" text-anchor="middle"><textPath startOffset="22.20632615414155" xlink:href="#id118">October</textPath></text><line stroke="#e1ed5e" stroke-width="0.3" x1="26.266209847984243" x2="21.928928074336255" y1="57.711370442889674" y2="55.22380399835377" /><path d="M 25.398753493254645 57.213857153982495 a86.0,86.0 0 0,1 29.58750427330803,-30.492523968695096" fill="none" id="id119" stroke="none" /><text fill="#e1ed5e" style="font-size:6.75px; font-family:Arial;" text-anchor="middle"><textPath startOffset="21.46611528233685" xlink:href="#id119">November</textPath></text><line stroke="#e1ed5e" stroke-width="0.3" x1="56.762969772571076" x2="54.21961505331055" y1="26.818313649435495" y2="22.513508569990535" /><path d="M 56.25429882871897 25.957352633546506 a86.0,86.0 0 0,1 42.265352541879196,-11.944610805530505" fill="none" id="id120" stroke="none" /><text fill="#e1ed5e" style="font-size:6.75px; font-family:Arial;" text-anchor="middle"><textPath startOffset="22.20632615414155" xlink:href="#id120">December</textPath></text></svg>