<?xml version="1.0" encoding="utf-8" ?>
<svg baseProfile="full" height="200mm" version="1.1" viewBox="0,0,200,200" width="200mm" xmlns="http://www.w3.org/2000/svg" xmlns:ev="http://www.w3.org/2001/xml-events" xmlns:xlink="http://www.w3.org/1999/xlink"><defs /><rect fill="#1a1a1a" height="200" width="200" x="0" y="0" /><text alignment-baseline="middle" fill="#e1ed5e" style="dominant-baseline: central; font-size:9.0px; font-family:Arial;" text-anchor="middle" x="100.0" y="100.0">2025</text><line stroke="#e1ed5e" stroke-width="0.3" x1="100.0" x2="100.0" y1="15.0" y2="10.0" /><path d="M 100.0 14.0 a86.0,86.0 0 0,1 42.46469731375804,11.215312516191453" fill="none" id="id97" stroke="none" /><text fill="#e1ed5e" style="font-size:6.75px; font-family:Arial;" text-anchor="middle"><textPath startOffset="22.20632615414155" xlink:href="#id97">January</textPath></text><path d="M 100.0 79.0 l 0.0 -24.130660015349193 a45.13066001534919,45.13066001534919 0 0,0 0.7768501243920933,0.006686594280980025 l -0.4153696451195649 24.127084797676773" fill="#eaff1a" stroke="none" /><path d="M 100.36148047927253 79.00311137660856 l 0.6372376522555623 -37.01446904676143 a58.019953952417495,58.019953952417495 0 0,0 0.9984221897916161,0.025786299529934987 l -1.2742864772420461 36.99801595508913" fill="#53ff2b" stroke="none" /><path d="M 101.08401301168833 79.027996857942 l 1.3447210527764566 -26.015826230808894 a47.050556408288564,47.050556408288564 0 0,0 0.8084583988249102,0.04876841842123927 l -1.7923415004409786 25.988824543007354" fill="#d2ff1c" stroke="none" /><path d="M 101.80526077348638 79.07773832637324 l 2.475133055896708 -28.685817712919583 a49.792402148887184,49.792402148887184 0 0,0 0.853287352152487,0.08102991574854713 l -2.968545535139439 28.63896225265586" fill="#b0ff20" stroke="none" /><path d="M 102.16513564639614 79.11191278185805 l 4.928674573420357 -47.54925379885746 a68.8040099769762,68.8040099769762 0 0,0 1.1769853007513769,0.1322480123866625 l -5.74642657768146 47.45736983300019" fill="#39ff8a" stroke="none" /><path d="M 102.88285421437855 79.19881850522331 l 5.060482196344867 -36.51381609664463 a57.8628165771297,57.8628165771297 0 0,0 0.9854065756070749,0.14522331407604083 l -5.688257752380598 36.42129829840763" fill="#55ff2b" stroke="none" /><path d="M 103.2404852339499 79.25152402106235 l 5.52536306103469 -35.37830123269741 a56.80717574827322,56.80717574827322 0 0,0 0.9648314510069069,0.15920545641101916 l -6.133523718180472 35.27794951334676" fill="#60ff29" stroke="none" /><path d="M 103.59715602781102 79.31037775812273 l 5.380205259938772 -30.94511707339875 a52.40934382194935,52.40934382194935 0 0,0 0.8874770648990823,0.1621807609996678 l -5.9120774459407555 30.847920831048345" fill="#92ff23" stroke="none" /><path d="M 103.95276090670814 79.375362276772 l 4.78168793491841 -24.949796785294055 a46.403875671527246,46.403875671527246 0 0,0 0.7831948699476434,0.15710152299669833 l -5.210449214333178 24.86379130622015" fill="#daff1c" stroke="none" /><path d="M 104.307194497241 79.44645832069477 l 5.8025644977700885 -27.68931176155825 a49.290771297006906,49.290771297006906 0 0,0 0.8289235483629731,0.18117058155106824 l -6.27833077028659 27.58532768191131" fill="#b6ff1f" stroke="none" /><path d="M 104.66035177308747 79.52364482259891 l 7.030317692996983 -30.8893596665994 a52.679297774366844,52.679297774366844 0 0,0 0.882444244974767,0.20884604215545144 l -7.560985624934273 30.76376771230308" fill="#8fff24" stroke="none" /><path d="M 105.01212808612495 79.60689891045804 l 9.523235693955371 -38.747674614300465 a60.900805832693784,60.900805832693784 0 0,0 1.015857664529134,0.2589647377029091 l -10.18880224716953 38.57800688042869" fill="#35ff2f" stroke="none" /><path d="M 105.36241919743992 79.69619591428918 l 9.263856955822927 -35.07587336679591 a57.278587874136605,57.278587874136605 0 0,0 0.951103071142695,0.2599723974699558 l -9.866257916189333 34.91121442849966" fill="#5bff2a" stroke="none" /><path d="M 105.71112130821622 79.79150937346287 l 7.12356094104252 -25.20633107504179 a47.19359171143515,47.19359171143515 0 0,0 0.7798399040302183,0.22765665260460974 l -7.556391062796165 25.07997609351848" fill="#d0ff1d" stroke="none" /><path d="M 106.0581310904928 79.89281104454417 l 8.786149829822525 -29.16159656835967 a51.456446661550274,51.456446661550274 0 0,0 0.8458818121856135,0.26281959658774556 l -9.286817014718856 29.006036836889404" fill="#9dff22" stroke="none" /><path d="M 106.40334571778207 80.00007090966166 l 13.52909498162244 -42.2561817234854 a65.36914811972372,65.36914811972372 0 0,0 1.0686834021371872,0.35232811542942283 l -14.254461206002047 42.017039883796734" fill="#35ff61" stroke="none" /><path d="M 106.74666289553966 80.11325718540242 l 11.584015013849648 -34.14552215039021 a57.05698388334613,57.05698388334613 0 0,0 0.927360733012276,0.323537950542665 l -12.170057750925196 33.941063346675335" fill="#5eff2a" stroke="none" /><path d="M 107.08798089147638 80.2323363322302 l 13.546311907136648 -37.77929735123846 a61.13449731389102,61.13449731389102 0 0,0 0.9875191425657516,0.36371163422383634 l -14.194613375474976 37.5405224492083" fill="#33ff2f" stroke="none" /><path d="M 107.4271985657038 80.35727306442388 l 12.723993859011754 -33.65117206595532 a56.97640061396777,56.97640061396777 0 0,0 0.914381247839545,0.354765718396734 l -13.301358271850965 33.42716364366804" fill="#5eff29" stroke="none" /><path d="M 108.09893153111575 80.62456947434976 l 11.28909009469607 -27.00738733093803 a50.271872601688415,50.271872601688415 0 0,0 0.7955314186589096,0.3406050363791748 l -11.752305271145294 26.809062766596064" fill="#abff21" stroke="none" /><path d="M 108.43124777332544 80.76684994638697 l 14.48615192059272 -33.04544488298248 a57.08115886415963,57.08115886415963 0 0,0 0.8964946139065857,0.4022310010691293 l -15.052828652966086 32.79119355139682" fill="#5dff2a" stroke="none" /><path d="M 108.76106565485865 80.91482961587045 l 19.035818881129476 -41.467768997520196 a66.62826170376056,66.62826170376056 0 0,0 1.0382009034620487,0.4874492449296991 l -19.74679799589112 41.13395476995049" fill="#36ff70" stroke="none" /><path d="M 109.08828744355905 81.06846463323043 l 14.370026251414078 -29.933764957319262 a54.204336147352265,54.204336147352265 0 0,0 0.8376602158305182,0.4110362299896595 l -14.883157734255027 29.68197356719477" fill="#7dff26" stroke="none" /><path d="M 109.41281617654863 81.2277094730956 l 16.59162360206297 -33.08922353619929 a58.01592478894858,58.01592478894858 0 0,0 0.8888578739849403,0.455307526482215 l -17.158741963636665 32.798723484404576" fill="#53ff2b" stroke="none" /><path d="M 109.73455568895987 81.39251694778311 l 21.317220137364437 -40.74760318811926 a66.98685725249425,66.98685725249425 0 0,0 1.017099583450415,0.5432993730900013 l -22.015464767343165 40.3746250885275" fill="#37ff74" stroke="none" /><path d="M 110.05341064243156 81.56283822128135 l 15.182347499343589 -27.843227237201557 a52.71354566385265,52.71354566385265 0 0,0 0.7929018692767776,0.4412490317958876 l -15.659373457692402 27.577762807845488" fill="#8eff24" stroke="none" /><line stroke="#e1ed5e" stroke-width="0.3" x1="143.23703022742887" x2="145.7803849466894" y1="26.81831364943548" y2="22.513508569990506" /><path d="M 143.74570117128098 25.957352633546492 a86.0,86.0 0 0,1 28.547481713284135,27.462654790039103" fill="none" id="id98" stroke="none" /><text fill="#e1ed5e" style="font-size:6.75px; font-family:Arial;" text-anchor="middle"><textPath startOffset="19.985693538727396" xlink:href="#id98">February</textPath></text><path d="M 110.68208982089419 81.91981866633111 l 21.66443408514238 -36.66856423398828 a63.59027244819647,63.59027244819647 0 0,0 0.9376171699770023,0.5649038538410237 l -22.29241332133702 36.290213770688645" fill="#32ff4b" stroke="none" /><path d="M 110.99172775467656 82.1063720568725 l 20.81510992683377 -33.88528545638304 a60.767843438219494,60.767843438219494 0 0,0 0.8865763514814899,0.5551740299630382 l -21.39530543068752 33.52196708509705" fill="#36ff2e" stroke="none" /><path d="M 111.2981086023043 82.29822771554956 l 26.59889516588158 -41.6749034567055 a70.43985034535686,70.43985034535686 0 0,0 1.0164570168316043,0.6611319183386514 l -27.312319208497463 41.210872614207325" fill="#3bff9d" stroke="none" /><path d="M 111.60114157652 82.49532879139004 l 14.20316277816082 -21.43079566042598 a46.710092095165,46.710092095165 0 0,0 0.6663868721690254,0.44994739077542545 l -14.569954344736388 21.18313635735188" fill="#d6ff1c" stroke="none" /><path d="M 111.90073688211348 82.69761687909136 l 24.999082454685215 -36.34595963147894 a65.11329623944744,65.11329623944744 0 0,0 0.9180009245507309,0.6431183132220681 l -25.6210145188196 35.910256475492936" fill="#34ff5d" stroke="none" /><path d="M 112.19680574252982 82.90503203632743 l 14.6340607657157 -20.51100962410331 a46.196373752877975,46.196373752877975 0 0,0 0.6433498034047651,0.4674209925574471 l -14.984955885474253 20.256069396729185" fill="#dcff1b" stroke="none" /><path d="M 112.48926042617603 83.11751280151076 l 19.095724546469068 -25.812843531228093 a53.1084036838066,53.1084036838066 0 0,0 0.7302502776881723,0.5500093694787848 l -19.537220977915624 25.48031757224346" fill="#8aff24" stroke="none" /><path d="M 113.06298171725822 83.55741782278167 l 39.188945151774654 -49.32774653165496 a84.0,84.0 0 0,0 1.1243864057420354,0.9091756109434814 l -40.032234956081176 48.64586482344735" fill="#4dd2ff" stroke="none" /><path d="M 113.34407831869373 83.78471172551755 l 20.320788491072925 -24.693158678926935 a52.97947045280122,52.97947045280122 0 0,0 0.6991838538995713,0.5855463701896909 l -20.742829881931616 24.339711151343423" fill="#8bff24" stroke="none" /><path d="M 113.6212207817346 84.01681056812373 l 26.353873822527206 -30.92373028224104 a61.63008442056792,61.63008442056792 0 0,0 0.8015027735800259,0.6950553071091152 l -26.882270394753995 30.465509981712252" fill="#30ff32" stroke="none" /><path d="M 113.89432698308785 84.25364557470407 l 17.187964931592266 -19.479013844415885 a46.97803146584805,46.97803146584805 0 0,0 0.6017416327944272,0.5402495792890208 l -17.520717551982685 19.180265256357565" fill="#d2ff1c" stroke="none" /><path d="M 114.16331599549186 84.49514656593476 l 23.67300984165911 -25.91529752318866 a56.100057559478124,56.100057559478124 0 0,0 0.7073739504954817,0.657426994587441 l -24.11559167594944 25.50396594252658" fill="#68ff28" stroke="none" /><path d="M 114.42810811169701 84.74124197986012 l 16.30498019529842 -17.243684715775878 a44.73177283192632,44.73177283192632 0 0,0 0.5549226840780761,0.5338351824184429 l -16.599386122988914 16.96046644659513" fill="#efff19" stroke="none" /><path d="M 114.68862486808459 84.99185889309783 l 28.92492350989758 -29.55411670197439 a62.35331926323868,62.35331926323868 0 0,0 0.7606041969513815,0.7573379208104544 l -29.429363507016284 29.051842930513818" fill="#31ff3b" stroke="none" /><path d="M 114.94478906791727 85.2469230424477 l 43.717522356868876 -43.156712938089235 a82.43064082885648,82.43064082885648 0 0,0 0.9881303839274642,1.0183552197501893 l -44.45391700449945 42.39779352278894" fill="#4be1ff" stroke="none" /><path d="M 115.4437574822437 85.77008943001954 l 25.436864180030888 -23.43758006293118 a55.58835379892555,55.58835379892555 0 0,0 0.6423270265235733,0.7092735457474417 l -25.836534847170498 22.99625372991419" fill="#6eff28" stroke="none" /><path d="M 115.68641384162765 86.03803664274999 l 28.722810916648807 -25.565233557159544 a59.45232156561781,59.45232156561781 0 0,0 0.6738160124668191,0.7702881831249816 l -29.158618792693474 25.067029817831614" fill="#44ff2d" stroke="none" /><path d="M 115.9244219780498 86.31012108654704 l 25.753444522828445 -22.139675625766507 a54.961818879508826,54.961818879508826 0 0,0 0.610571857525371,0.7227244950324937 l -26.130726993840934 21.693092181104905" fill="#75ff27" stroke="none" /><path d="M 116.38621287248628 86.86637796730983 l 35.93837285982171 -28.80476466916373 a67.05736761320031,67.05736761320031 0 0,0 0.7141479348953678,0.9068953544588608 l -36.42887487531104 28.181876920751833" fill="#37ff75" stroke="none" /><path d="M 116.60985879189232 87.15038557335679 l 26.195901624972155 -20.26550855468288 a54.119723714504985,54.119723714504985 0 0,0 0.5636802707040881,0.7417371623879426 l -26.540857835900354 19.811586616413905" fill="#7eff26" stroke="none" /><path d="M 116.82858285166822 87.43820079747576 l 31.631084402603147 -23.611217553248032 a60.47169992325403,60.47169992325403 0 0,0 0.6154791980217265,0.8395129344122001 l -32.0328262131385 23.06324217516434" fill="#39ff2e" stroke="none" /><path d="M 117.04232023915458 87.72973835380427 l 29.379364418419783 -21.152782212407654 a57.20203376822717,57.20203376822717 0 0,0 0.5684448842371977,0.8040249759765028 l -29.739121922460864 20.64393073609936" fill="#5cff2a" stroke="none" /><path d="M 117.2510076193507 88.02491185347247 l 27.456971163914755 -19.05973594004588 a54.423925556408285,54.423925556408285 0 0,0 0.5275895107405187,0.7741725058854537 l -27.780985140324006 18.58428541089002" fill="#7bff26" stroke="none" /><path d="M 117.45458315368197 88.32363383020206 l 35.95905345599771 -24.05506173219596 a64.26314274750575,64.26314274750575 0 0,0 0.6071439877894813,0.9247219471581137 l -36.36779407914512 23.432521721060173" fill="#33ff53" stroke="none" /><path d="M 117.65298651832404 88.62581576622439 l 30.784342759986036 -19.834988584187748 a57.62106676899463,57.62106676899463 0 0,0 0.5300380940304275,0.8383929758325283 l -31.12120845026242 19.302147960641012" fill="#58ff2a" stroke="none" /><line stroke="#e1ed5e" stroke-width="0.3" x1="172.23445277983987" x2="176.4835382374775" y1="55.19839476539836" y2="52.563006222186495" /><path d="M 173.08426987136738 54.67131705675599 a86.0,86.0 0 0,1 12.851231095245387,41.99856678651699" fill="none" id="id99" stroke="none" /><text fill="#e1ed5e" style="font-size:6.75px; font-family:Arial;" text-anchor="middle"><textPath startOffset="22.20632615414155" xlink:href="#id99">March</textPath></text><path d="M 117.84615892207809 88.93136811851018 l 51.36762781063228 -31.859481098639726 a81.44551036070607,81.44551036070607 0 0,0 0.7286821284424922,1.1977618250944082 l -51.90842573736099 30.970551500338235" fill="#4aebff" stroke="none" /><path d="M 118.03404312379186 89.2402003453031 l 23.539062811042978 -14.044304883135647 a48.41039907904835,48.41039907904835 0 0,0 0.4208023812814692,0.7192876747060528 l -23.777324866794775 13.637037796075699" fill="#c1ff1e" stroke="none" /><path d="M 118.3937258080291 89.86733742301442 l 26.466566902784773 -14.579797198024448 a51.216711435149655,51.216711435149655 0 0,0 0.41873783514667773,0.7758576132711916 l -26.713612837149917 14.122058601420797" fill="#a0ff22" stroke="none" /><path d="M 118.73160827565052 90.50648371742162 l 39.003219265444606 -19.767533663983503 a64.72649654643132,64.72649654643132 0 0,0 0.4951268365138096,0.9981454893627438 l -39.337706114911825 19.093228586121807" fill="#34ff59" stroke="none" /><path d="M 118.89224826269711 90.83032412892265 l 8.025218275827207 -3.895176972096169 a29.92056792018419,29.92056792018419 0 0,0 0.2209018519821793,0.46527563727040433 l -8.091078321651143 3.7564589191852242" fill="#ff4406" stroke="none" /><path d="M 119.04729006885535 91.15688171328212 l 31.46895909111924 -14.610148036632326 a55.69512663085188,55.69512663085188 0 0,0 0.39622489881344103,0.8730290429347979 l -31.715786306896025 14.066296984855464" fill="#6dff28" stroke="none" /><path d="M 119.196687751892 91.48605970444005 l 35.72860121589187 -15.846024143722035 a60.08490023023791,60.08490023023791 0 0,0 0.4111789695838495,0.9490577525618354 l -35.9960708953184 15.228667246573597" fill="#3dff2e" stroke="none" /><path d="M 119.34039704204932 91.81776055985345 l 4.089239742965918 -1.7300130205375093 a25.440138142747507,25.440138142747507 0 0,0 0.16715177839611467,0.4047712897463247 l -4.1184132082482305 1.6593671603378815" fill="#ff0000" stroke="none" /><path d="M 119.47837535516314 92.15188598940014 l 40.289068594845766 -16.233037814902474 a64.43639677666923,64.43639677666923 0 0,0 0.4056622512503657,1.0323661817352587 l -40.56252439597783 15.53712262827143" fill="#33ff55" stroke="none" /><path d="M 119.61058180528143 92.48833698450437 l 29.09040929154516 -11.142828588700018 a52.1514773599386,52.1514773599386 0 0,0 0.31389083053131495,0.8410713691214169 l -29.2779047105781 10.64043408254927" fill="#95ff23" stroke="none" /><path d="M 119.85752413597 93.16781622104841 l 40.93423624651988 -14.083841619542556 a64.28933231005372,64.28933231005372 0 0,0 0.3510280392512734,1.04952915766914 l -41.170601579542925 13.377139358951103" fill="#33ff53" stroke="none" /><path d="M 119.97218684219823 93.5106431181261 l 35.36326290737266 -11.49022064166793 a58.18313507290867,58.18313507290867 0 0,0 0.30129032744536044,0.9551726730083067 l -35.55580871858623 10.879797802233204" fill="#51ff2b" stroke="none" /><path d="M 120.08093135843002 93.85539295169968 l 45.004865540641035 -13.77113486784267 a68.06465848042978,68.06465848042978 0 0,0 0.3331735955663878,1.1232957347833599 l -45.235245033319124 12.994409746312781" fill="#38ff81" stroke="none" /><path d="M 120.28053869075195 94.5502522615342 l 7.745282475813845 -2.081297558214921 a29.020049884881043,29.020049884881043 0 0,0 0.12548223708828565,0.483534246927169 l -7.779961044772433 1.9476668857389017" fill="#ff3605" stroke="none" /><path d="M 120.37134235888165 94.90015583598534 l 34.21541270330967 -8.565624676090605 a56.27129700690714,56.27129700690714 0 0,0 0.2271409653793929,0.9416459429479537 l -34.357786468949875 7.975393501483245" fill="#66ff29" stroke="none" /><path d="M 120.45610955862082 95.25157060432595 l 30.32504422576436 -7.039282372539443 a52.13133154259401,52.13133154259401 0 0,0 0.19538230502189882,0.8758605627931297 l -30.441720917788295 6.5162436401963495" fill="#95ff23" stroke="none" /><path d="M 120.6074358757038 95.95851677861258 l 6.359758366475356 -1.247261274290422 a27.480909439754413,27.480909439754413 0 0,0 0.0870415617944752,0.46497950358146406 l -6.3802856521796905 1.1376036932463953" fill="#ff1f03" stroke="none" /><path d="M 120.67395015179393 96.31383870115 l 35.29089303540112 -6.292359377564924 a56.84746738296239,56.84746738296239 0 0,0 0.1634720348831875,0.9648212035018886 l -35.39397693180453 5.6839523857471965" fill="#60ff29" stroke="none" /><path d="M 120.73433829027371 96.67025291283417 l 34.46506902873874 -5.53477818297413 a55.906657712970066,55.906657712970066 0 0,0 0.14440984278261595,0.9514804328479785 l -34.55523476496065 4.94069863773407" fill="#6aff28" stroke="none" /><path d="M 120.78858239683441 97.02765380044208 l 7.261246019462211 -1.0382111005938561 a28.335092095165002,28.335092095165002 0 0,0 0.06487926642858154,0.4834258939812448 l -7.278041284948628 0.913066864547947" fill="#ff2c04" stroke="none" /><path d="M 120.91429891909075 98.10471618934814 l 38.57829428398668 -3.496020444283773 a59.73637759017652,59.73637759017652 0 0,0 0.08398797062397753,1.024865975341063 l -38.63275673843015 2.8314405517349415" fill="#41ff2d" stroke="none" /><path d="M 120.98425023603335 99.18683210126433 l 34.10544584601661 -1.321631863044867 a55.13104374520338,55.13104374520338 0 0,0 0.028584935679855834,0.9485948527981077 l -34.123142476152104 0.73436686282176" fill="#73ff27" stroke="none" /><line stroke="#e1ed5e" stroke-width="0.3" x1="184.98032266829074" x2="189.97916517819016" y1="98.17113171792111" y2="98.06355123074" /><path d="M 185.9800911702706 98.14961562048488 a86.0,86.0 0 0,1 -9.607161424134198,41.387399972396054" fill="none" id="id100" stroke="none" /><text fill="#e1ed5e" style="font-size:6.75px; font-family:Arial;" text-anchor="middle"><textPath startOffset="21.466115282336823" xlink:href="#id100">April</textPath></text><path d="M 120.99980553446 99.90962569577887 l 45.043615881138805 -0.1938487210360943 a66.04403300076746,66.04403300076746 0 0,0 -0.0048926133881641125,1.1368710452847854 l -45.04027897046114 -0.5815318024523759" fill="#35ff69" stroke="none" /><path d="M 120.99824983174949 100.27111621757518 l 34.14431452879451 0.44084995087292683 a55.14716039907905,55.14716039907905 0 0,0 -0.02042529317542267,0.9490831142134878 l -34.13166717293408 -1.0285228808765294" fill="#73ff27" stroke="none" /><path d="M 120.9764740272857 100.99374915477107 l 32.22536982664556 1.5266595322816408 a53.26151189562548,53.26151189562548 0 0,0 -0.05126711965037417,0.9154088606604066 l -32.194316356107656 -2.0811401092774706" fill="#88ff25" stroke="none" /><path d="M 120.95626037817324 101.35467743843564 l 33.356319281911965 2.156255569697252 a54.42594013814275,54.42594013814275 0 0,0 -0.06848193506564211,0.9343815948199592 l -33.31426078818199 -2.7301103010139816" fill="#7bff26" stroke="none" /><path d="M 120.89721153311464 102.0752229133903 l 22.12610549606546 2.1972597174874076 a43.23493860322333,43.23493860322333 0 0,0 -0.07991813387240267,0.7399426646230325 l -22.085005060692005 -2.5777987039952315" fill="#fffc17" stroke="none" /><path d="M 120.8583938346157 102.4346265915055 l 35.53570760830202 4.147787187120715 a56.77695702225633,56.77695702225633 0 0,0 -0.12166082740752872,0.9697564975938555 l -35.45904527164764 -4.758861439001965" fill="#61ff29" stroke="none" /><path d="M 120.76222939487914 103.15116336523771 l 32.603312832384574 4.948330115653874 a53.9766884113584,53.9766884113584 0 0,0 -0.14732614691078272,0.9174000574472333 l -32.5133049311125 -5.508809402794312" fill="#80ff26" stroke="none" /><path d="M 120.64145759157962 103.86396538481128 l 47.97198307881889 8.980086858445711 a69.8052570990023,69.8052570990023 0 0,0 -0.23125506738231372,1.1791646063982837 l -47.81029807846091 -9.80451519191194" fill="#3aff96" stroke="none" /><path d="M 119.67450827220406 107.3425965602758 l 35.88370599301071 13.3919268806565 a59.30122793553338,59.30122793553338 0 0,0 -0.3651422856758955,0.9532712861377185 l -35.647869427741306 -14.007621733627362" fill="#46ff2d" stroke="none" /><path d="M 119.54520255179757 107.68017299344265 l 32.282209548570485 12.685105374913862 a55.68505372217959,55.68505372217959 0 0,0 -0.3582335801334819,0.8891063673692241 l -32.05907335417962 -13.2389111101259" fill="#6dff28" stroke="none" /><path d="M 118.97047184881838 109.00673069616215 l 35.707945908064595 16.953286932981353 a60.52810821181888,60.52810821181888 0 0,0 -0.4549602268813228,0.9373528221434478 l -35.41083242456856 -17.565428711090075" fill="#39ff2e" stroke="none" /><line stroke="#e1ed5e" stroke-width="0.3" x1="174.80103733775053" x2="179.2010983576182" y1="140.37084112569926" y2="142.7455964860345" /><path d="M 175.68104954172406 140.8457921977663 a86.0,86.0 0 0,1 -30.038265399797805,32.042727171017184" fill="none" id="id101" stroke="none" /><text fill="#e1ed5e" style="font-size:6.75px; font-family:Arial;" text-anchor="middle"><textPath startOffset="22.206326154141568" xlink:href="#id101">May</textPath></text><path d="M 118.48025628344425 109.97397251340804 l 42.13902643910077 22.74283889785072 a68.88459324635457,68.88459324635457 0 0,0 -0.57214752797626,1.0386139547605384 l -41.741302501673 -23.464823371009064" fill="#39ff8b" stroke="none" /><path d="M 117.94076556474637 110.91462005526583 l 31.349869988666068 19.072314304169897 a57.69560629316961,57.69560629316961 0 0,0 -0.5234787206973534,0.8440143770174532 l -31.01692662830075 -19.609125012552624" fill="#57ff2a" stroke="none" /><path d="M 117.35343817320211 111.8261652097733 l 41.71051356768789 28.42522729574729 a71.47534535686876,71.47534535686876 0 0,0 -0.7016125167684736,1.0107251591391724 l -41.215040143757285 -29.138993717073483" fill="#3dffa9" stroke="none" /><path d="M 117.14729908036423 112.12312394758627 l 31.484967804889823 22.2598419375289 a59.55909439754413,59.55909439754413 0 0,0 -0.5990516325985877,0.8320303231430121 l -31.097136379915632 -22.798505866123044" fill="#43ff2d" stroke="none" /><path d="M 116.93607887273984 112.41649034213515 l 34.307582643589264 25.15220741217629 a63.539907904835,63.539907904835 0 0,0 -0.654275676173906,0.8765091884378555 l -33.869545700720266 -25.73902948012346" fill="#32ff4a" stroke="none" /><path d="M 116.71984013943494 112.70617746262583 l 34.017111442549506 25.851171491497364 a63.72524942440522,63.72524942440522 0 0,0 -0.6712186068455545,0.86764053052663 l -33.56708601848588 -26.432890016137247" fill="#32ff4c" stroke="none" /><path d="M 116.498646956653 112.99209946851258 l 28.29967455726743 22.284990262567614 a57.020721412125866,57.020721412125866 0 0,0 -0.6138744644281864,0.7659027818880664 l -27.91188218078439 -22.76882087803393" fill="#5eff2a" stroke="none" /><path d="M 116.27256486870786 113.27417163493432 l 27.865050163702534 22.730618158439917 a56.9602839600921,56.9602839600921 0 0,0 -0.6263027339802336,0.7544219892906038 l -27.469651429828758 -23.20690140484429" fill="#5fff29" stroke="none" /><path d="M 114.55890576462653 115.13401014063108 l 19.01428847655656 19.76538891544047 a48.42651573292402,48.42651573292402 0 0,0 -0.6057100165880435,0.5727366271970011 l -18.671242625577708 -20.089760179383394" fill="#c1ff1e" stroke="none" /><path d="M 114.29624159901734 115.38237550388516 l 21.938092921899592 23.60480415964572 a53.22524942440522,53.22524942440522 0 0,0 -0.676468716719633,0.6179381338049192 l -21.528524655713095 -23.978935060037223" fill="#88ff25" stroke="none" /><path d="M 114.0293411484842 115.62618273729858 l 30.724849297654053 34.22199978029443 a66.99088641596316,66.99088641596316 0 0,0 -0.8646853356482386,0.7629842734695012 l -30.131221609099228 -34.74580719553622" fill="#37ff74" stroke="none" /><path d="M 113.75828350139079 115.86535959552629 l 26.85663398755754 30.969717675534234 a61.99270913277053,61.99270913277053 0 0,0 -0.8122064039496453,0.6921799178875173 l -26.319562107030848 -31.4274219836447" fill="#30ff36" stroke="none" /><path d="M 113.48314897796784 116.09983520530334 l 29.905065653359205 35.708767262721906 a67.5771297006907,67.5771297006907 0 0,0 -0.8982283584129778,0.7391807878985809 l -29.285967166401537 -36.21824316947766" fill="#37ff7b" stroke="none" /><path d="M 112.92097659922987 116.55440617244103 l 24.79330141383308 31.765275543089558 a61.295663852647735,61.295663852647735 0 0,0 -0.8373316679640215,0.6420302173407901 l -24.242841017375568 -32.18734510225772" fill="#31ff2f" stroke="none" /><path d="M 112.34349029814194 116.9893568818739 l 22.174232475345924 30.520212679390877 a58.725057559478124,58.725057559478124 0 0,0 -0.8229133147740804,0.5871268003876638 l -21.64559183272296 -30.89738374162276" fill="#4cff2c" stroke="none" /><path d="M 112.04921762599082 117.19931262002967 l 21.959999660262245 31.346176242836123 a59.27302379125096,59.27302379125096 0 0,0 -0.8406696220861021,0.5782202317056984 l -21.417173153553257 -31.719537263906915" fill="#46ff2c" stroke="none" /><path d="M 111.7513745106137 117.40417183066458 l 19.62470524566034 29.06483338720347 a56.06983883346124,56.06983883346124 0 0,0 -0.8045362418140175,0.5332027510539549 l -19.121494305106356 -29.398334159348746" fill="#68ff28" stroke="none" /><line stroke="#e1ed5e" stroke-width="0.3" x1="143.8653032363475" x2="146.44561519142675" y1="172.8068346515853" y2="177.08958963109032" /><path d="M 144.38136562736335 173.6633856474863 a86.0,86.0 0 0,1 -40.68145358897372,12.25698825130547" fill="none" id="id102" stroke="none" /><text fill="#e1ed5e" style="font-size:6.75px; font-family:Arial;" text-anchor="middle"><textPath startOffset="21.466115282336833" xlink:href="#id102">June</textPath></text><path d="M 110.5260780823613 118.17145234162733 l 18.94471900452611 32.70477910411265 a58.79556792018419,58.79556792018419 0 0,0 -0.8801171083465853,0.4997534637647514 l -18.378953129258328 -33.02603573367203" fill="#4bff2c" stroke="none" /><path d="M 108.2653958097858 119.30500536409082 l 13.945080209775796 32.570714633371566 a56.43044896392939,56.43044896392939 0 0,0 -0.896245965849637,0.37463088641284836 l -13.382362784428697 -32.80593056280439" fill="#64ff29" stroke="none" /><path d="M 107.93186726928326 119.44442032107085 l 13.31159689263636 32.632452906447945 a56.243092862624714,56.243092862624714 0 0,0 -0.8995652147988467,0.35795556387868077 l -12.747910601795645 -32.856755314732695" fill="#66ff29" stroke="none" /><path d="M 107.2578585660854 119.70592522655815 l 12.33989134370027 33.5042318486464 a56.70443207981581,56.70443207981581 0 0,0 -0.9188290029695755,0.3294593900948045 l -11.761342780100959 -33.71167877978116" fill="#61ff29" stroke="none" /><line stroke="#e1ed5e" stroke-width="0.3" x1="102.19456741930631" x2="102.32365962044197" y1="184.97166512339345" y2="189.96999836594603" /><path d="M 102.22038585953345 185.97133177190398 a86.0,86.0 0 0,1 -42.740103519485714,-10.115201625700543" fill="none" id="id103" stroke="none" /><text fill="#e1ed5e" style="font-size:6.75px; font-family:Arial;" text-anchor="middle"><textPath startOffset="22.20632615414155" xlink:href="#id103">July</textPath></text><line stroke="#e1ed5e" stroke-width="0.3" x1="58.666819895761336" x2="56.23545636021788" y1="174.27360380694188" y2="178.64263932499728" /><path d="M 58.180547188652646 175.14741091055294 a86.0,86.0 0 0,1 -31.652253787137756,-30.449443065178592" fill="none" id="id104" stroke="none" /><text fill="#e1ed5e" style="font-size:6.75px; font-family:Arial;" text-anchor="middle"><textPath startOffset="22.20632615414155" xlink:href="#id104">August</textPath></text><line stroke="#e1ed5e" stroke-width="0.3" x1="26.63291911575756" x2="22.317208475507996" y1="142.92168965132927" y2="145.44649492493687" /><path d="M 25.769776987707644 143.4266507060508 a86.0,86.0 0 0,1 -11.730757126820373,-40.83630448921669" fill="none" id="id105" stroke="none" /><text fill="#e1ed5e" style="font-size:6.75px; font-family:Arial;" text-anchor="middle"><textPath startOffset="21.46611528233685" xlink:href="#id105">September</textPath></text><line stroke="#e1ed5e" stroke-width="0.3" x1="15.007084014347285" x2="10.007500721073583" y1="101.09737516637583" y2="101.16192664675087" /><path d="M 14.007167355692545 101.11028546245083 a86.0,86.0 0 0,1 10.666146001902534,-42.60595125391555" fill="none" id="id106" stroke="none" /><text fill="#e1ed5e" style="font-size:6.75px; font-family:Arial;" text-anchor="middle"><textPath startOffset="22.20632615414155" xlink:href="#id106">October</textPath></text><line stroke="#e1ed5e" stroke-width="0.3" x1="26.266209847984243" x2="21.928928074336255" y1="57.711370442889674" y2="55.22380399835377" /><path d="M 25.398753493254645 57.213857153982495 a86.0,86.0 0 0,1 29.58750427330803,-30.492523968695096" fill="none" id="id107" stroke="none" /><text fill="#e1ed5e" style="font-size:6.75px; font-family:Arial;" text-anchor="middle"><textPath startOffset="21.46611528233685" xlink:href="#id107">November</textPath></text><line stroke="#e1ed5e" stroke-width="0.3" x1="56.762969772571076" x2="54.21961505331055" y1="26.818313649435495" y2="22.513508569990535" /><path d="M 56.25429882871897 25.957352633546506 a86.0,86.0 0 0,1 42.265352541879196,-11.944610805530505" fill="none" id="id108" stroke="none" /><text fill="#e1ed5e" style="font-size:6.75px; font-family:Arial;" text-anchor="middle"><textPath startOffset="22.20632615414155" xlink:href="#id108">December</textPath></text></svg>