<?xml version="1.0" encoding="utf-8" ?>
<svg baseProfile="full" height="200mm" version="1.1" viewBox="0,0,200,200" width="200mm" xmlns="http://www.w3.org/2000/svg" xmlns:ev="http://www.w3.org/2001/xml-events" xmlns:xlink="http://www.w3.org/1999/xlink"><defs /><rect fill="#1a1a1a" height="200" width="200" x="0" y="0" /><text alignment-baseline="middle" fill="#e1ed5e" style="dominant-baseline: central; font-size:9.0px; font-family:Arial;" text-anchor="middle" x="100.0" y="100.0">2021</text><line stroke="#e1ed5e" stroke-width="0.3" x1="100.0" x2="100.0" y1="15.0" y2="10.0" /><path d="M 100.0 14.0 a86.0,86.0 0 0,1 42.46469731375804,11.215312516191453" fill="none" id="id49" stroke="none" /><text fill="#e1ed5e" style="font-size:6.75px; font-family:Arial;" text-anchor="middle"><textPath startOffset="22.20632615414155" xlink:href="#id49">January</textPath></text><path d="M 100.0 79.0 l 0.0 -8.08563150020236 a29.08563150020236,29.08563150020236 0 0,0 0.5006613340303475,0.004309350166423458 l -0.13918085475781913 8.084433526644496" fill="#ff6309" stroke="none" /><path d="M 100.36148047927253 79.00311137660856 l 0.13719562104918237 -7.969119606635492 a28.970300492660066,28.970300492660066 0 0,0 0.49852833183087364,0.012875516009347488 l -0.27435058807492385 7.965577298483785" fill="#ff6209" stroke="none" /><path d="M 100.72285384407766 79.0124445844662 l 0.46193184323894737 -13.41186774837917 a34.41982032397645,34.41982032397645 0 0,0 0.5919539836912431,0.02549078374602671 l -0.6927266593195219 13.401929238108949" fill="#ffaa0f" stroke="none" /><path d="M 101.08401301168833 79.027996857942 l 0.36446469714151064 -7.051165153189711 a28.06057820104128,28.06057820104128 0 0,0 0.48215816887807544,0.029085097463570336 l -0.485784914859198 7.043846786345837" fill="#ff5507" stroke="none" /><path d="M 101.44485096284872 79.0497635885617 l 0.4752592140735729 -6.8912248720273315 a27.90759376030539,27.90759376030539 0 0,0 0.4789605039287797,0.03717655325692318 l -0.5938099073646939 6.882023056581944" fill="#ff5307" stroke="none" /><path d="M 101.80526077348638 79.07773832637324 l 0.6406241226281336 -7.4245813817681805 a28.452168004077187,28.452168004077187 0 0,0 0.48758192116544274,0.04630177851914317 l -0.7683311708838205 7.412454058733859" fill="#ff5a08" stroke="none" /><path d="M 102.16513564639614 79.11191278185805 l 0.7608990580962732 -7.340752952902565 a28.380082742907394,28.380082742907394 0 0,0 0.4854795561143515,0.05454928477823394 l -0.88714531772035 7.32656771465373" fill="#ff5908" stroke="none" /><path d="M 102.52436894288641 79.15227682838746 l 0.9420503233084166 -7.78000553738619 a28.836832585515992,28.836832585515992 0 0,0 0.4922657027805948,0.06391021634118942 l -1.0758307545968575 7.762636997880864" fill="#ff6008" stroke="none" /><path d="M 102.88285421437855 79.19881850522331 l 1.22465631367589 -8.836485078725248 a29.9209445482617,29.9209445482617 0 0,0 0.509555138349166,0.0750951817527227 l -1.3765804324537116 8.814095412811556" fill="#ff6f0a" stroke="none" /><path d="M 103.2404852339499 79.25152402106235 l 1.2782671369249068 -8.184606029765307 a29.28382416132868,29.28382416132868 0 0,0 0.4973659433766995,0.08206964225300498 l -1.4189622864404814 8.161390124572678" fill="#ff6609" stroke="none" /><path d="M 103.59715602781102 79.31037775812273 l 1.3331214306868242 -7.667662617416587 a28.78268994393868,28.78268994393868 0 0,0 0.4873935700879556,0.0890680595922759 l -1.4649101218776808 7.643579076473573" fill="#ff5f08" stroke="none" /><path d="M 103.95276090670814 79.375362276772 l 1.6804635526894829 -8.768289506833176 a29.927869769858795,29.927869769858795 0 0,0 0.5051163018824443,0.10132157827016523 l -1.8311462640390526 8.738063972485802" fill="#ff6f0a" stroke="none" /><path d="M 104.307194497241 79.44645832069477 l 1.3868857237791021 -6.618092948063167 a27.761849323966462,27.761849323966462 0 0,0 0.46687138474820084,0.10204000170030916 l -1.500599832680831 6.593239448266988" fill="#ff5107" stroke="none" /><path d="M 104.66035177308747 79.52364482259891 l 1.9221174245246062 -8.445276449842474 a29.661248738370524,29.661248738370524 0 0,0 0.49686308196530876,0.11759143849884994 l -2.0672041934524383 8.410939099202755" fill="#ff6b09" stroke="none" /><path d="M 105.01212808612495 79.60689891045804 l 1.9785506972404128 -8.050230099127912 a29.289805034526175,29.289805034526175 0 0,0 0.48856944551157727,0.12454723011339036 l -2.116829031437015 8.014979872845654" fill="#ff6609" stroke="none" /><path d="M 105.36241919743992 79.69619591428918 l 2.5501620600482537 -9.655714883079602 a30.986799108615056,30.986799108615056 0 0,0 0.5145315359702336,0.14064090532203916 l -2.715991485242198 9.61038743693127" fill="#ff7d0b" stroke="none" /><path d="M 106.0581310904928 79.89281104454417 l 2.1703424596445107 -7.203456855300757 a28.523308916847377,28.523308916847377 0 0,0 0.46888873603745307,0.1456860127202499 l -2.294016568392682 7.165030707697986" fill="#ff5b08" stroke="none" /><path d="M 106.40334571778207 80.00007090966166 l 2.566802973722054 -8.017039798546426 a29.417921634072492,29.417921634072492 0 0,0 0.48093703956683326,0.1585573804663957 l -2.704422835531305 7.971668693820793" fill="#ff6809" stroke="none" /><path d="M 106.74666289553966 80.11325718540242 l 2.3551192503871436 -6.942046987573799 a28.3306618433281,28.3306618433281 0 0,0 0.4604649868536109,0.1606471924462003 l -2.4742662413040284 6.900478941955392" fill="#ff5908" stroke="none" /><path d="M 107.08798089147638 80.2323363322302 l 2.421780518047236 -6.754101554574511 a28.175159140193266,28.175159140193266 0 0,0 0.4551196168820902,0.16762439581011945 l -2.5376824607019026 6.711413890958067" fill="#ff5708" stroke="none" /><path d="M 107.4271985657038 80.35727306442388 l 1.7064840202526441 -4.513141709248279 a25.8249907563781,25.8249907563781 0 0,0 0.4144503166013049,0.16080028396931537 l -1.783917501853616 4.483098721388417" fill="#ff3605" stroke="none" /><path d="M 107.76421540070413 80.48803036053334 l 0.40734024376876665 -1.0236720723420836 a22.10173979953832,22.10173979953832 0 0,0 0.3522766105269426,0.14370247457286084 l -0.4249007238840967 1.0165087115856435" fill="#ff0000" stroke="none" /><path d="M 108.09893153111575 80.62456947434976 l 8.496072074372751 -20.325527334745622 a43.02975946596848,43.02975946596848 0 0,0 0.6809279985198694,0.2915378327840745 l -8.844683830682936 20.176269973998757" fill="#e8ff1a" stroke="none" /><path d="M 108.43124777332544 80.76684994638697 l 10.062369711864777 -22.954024334988095 a46.06269174269754,46.06269174269754 0 0,0 0.7234428289663922,0.3245877095049184 l -10.45599465929795 22.777416294966645" fill="#c5ff1e" stroke="none" /><path d="M 108.76106565485865 80.91482961587045 l 9.013122815621106 -19.634253572088955 a42.60417312054682,42.60417312054682 0 0,0 0.6638577968860437,0.31169013699921577 l -9.349758823806747 19.476198452449736" fill="#edff1a" stroke="none" /><path d="M 109.08828744355905 81.06846463323043 l 8.809196942863965 -18.350170426757344 a41.355114970670236,41.355114970670236 0 0,0 0.6390915744795017,0.3135994600528569 l -9.123759784353897 18.195815806569655" fill="#fcff18" stroke="none" /><path d="M 109.41281617654863 81.2277094730956 l 12.167599785403427 -24.26624656240176 a48.145924312224565,48.145924312224565 0 0,0 0.7376402958478006,0.37784800963777215 l -12.583500568839982 24.053206027451488" fill="#adff20" stroke="none" /><path d="M 109.73455568895987 81.39251694778311 l 14.843910918363969 -28.37395251180566 a53.02222466498116,53.02222466498116 0 0,0 0.8050666180246667,0.43003870612617595 l -15.330122582916946 28.11423507917773" fill="#78ff26" stroke="none" /><path d="M 110.05341064243156 81.56283822128135 l 23.900120431767846 -43.8309348542422 a70.92360771067963,70.92360771067963 0 0,0 1.0668123424718363,0.5936799135723608 l -24.651056863311716 43.41303954310966" fill="#3dffab" stroke="none" /><path d="M 110.36928655335952 81.73862282372117 l 31.107859660078564 -54.7841315288365 a84.0,84.0 0 0,0 1.2512130701386868,0.7247833704398019 l -32.04626946268258 54.24054400100664" fill="#4dd2ff" stroke="none" /><line stroke="#e1ed5e" stroke-width="0.3" x1="143.23703022742887" x2="145.7803849466894" y1="26.81831364943548" y2="22.513508569990506" /><path d="M 143.74570117128098 25.957352633546492 a86.0,86.0 0 0,1 28.547481713284135,27.462654790039103" fill="none" id="id50" stroke="none" /><text fill="#e1ed5e" style="font-size:6.75px; font-family:Arial;" text-anchor="middle"><textPath startOffset="19.985693538727396" xlink:href="#id50">February</textPath></text><path d="M 110.68208982089419 81.91981866633111 l 1.5730273671236534 -2.662458425016186 a24.092426225904127,24.092426225904127 0 0,0 0.35523471792347405,0.21402494280050519 l -1.618624151264765 2.6349868727570662" fill="#ff1d02" stroke="none" /><path d="M 110.99172775467656 82.1063720568725 l 2.8467618165261204 -4.6342938912354015 a26.438817216120878,26.438817216120878 0 0,0 0.3857308204261864,0.24154460436386443 l -2.9261117893245703 4.584604945548593" fill="#ff3e05" stroke="none" /><path d="M 111.2981086023043 82.29822771554956 l 3.6861708891640355 -5.7754585283632 a27.85155289237145,27.85155289237145 0 0,0 0.4019018528334169,0.2614081447102011 l -3.7850397677817327 5.711151459493471" fill="#ff5207" stroke="none" /><path d="M 111.60114157652 82.49532879139004 l 3.410571308366091 -5.146125404356594 a27.173702562224253,27.173702562224253 0 0,0 0.38767208205882436,0.26175792033700346 l -3.498648084831457 5.086655571720921" fill="#ff4906" stroke="none" /><path d="M 111.90073688211348 82.69761687909136 l 4.464835544607601 -6.491387544309116 a28.87863368172445,28.87863368172445 0 0,0 0.40714591259663585,0.285231730755123 l -4.575912596787888 6.413570970790057" fill="#ff6008" stroke="none" /><path d="M 112.19680574252982 82.90503203632743 l 7.756390345064321 -10.871309034648228 a34.354660284403764,34.354660284403764 0 0,0 0.4784372050118268,0.34760497642110966 l -7.9423728664299365 10.736184823410444" fill="#ffaa0f" stroke="none" /><path d="M 112.48926042617603 83.11751280151076 l 4.616779192905802 -6.240779114440187 a28.762858627546994,28.762858627546994 0 0,0 0.395494574171813,0.29787831380381347 l -4.723519920835998 6.160384211130526" fill="#ff5f08" stroke="none" /><path d="M 112.77801427241765 83.33499621200491 l 5.513976702438984 -7.191292846762203 a30.061933120638948,30.061933120638948 0 0,0 0.40793677468364636,0.3184011232264869 l -5.636946032282061 7.095313334312492" fill="#ff700a" stroke="none" /><path d="M 113.06298171725822 83.55741782278167 l 4.1871928525594795 -5.270486023808121 a27.73131539237926,27.73131539237926 0 0,0 0.3711989766730488,0.3001504239777712 l -4.27729522779702 5.19762950256622" fill="#ff5007" stroke="none" /><path d="M 113.34407831869373 83.78471172551755 l 4.829959215563723 -5.869208735431468 a28.601060268414795,28.601060268414795 0 0,0 0.3774556327794859,0.3161082374099377 l -4.930272385302326 5.785199340627711" fill="#ff5c08" stroke="none" /><path d="M 113.6212207817346 84.01681056812373 l 4.323457065423313 -5.07316006285633 a27.66552578720683,27.66552578720683 0 0,0 0.35979174553257365,0.31200785627911354 l -4.4101426096026515 4.997987213157545" fill="#ff4f07" stroke="none" /><path d="M 113.89432698308785 84.25364557470407 l 5.010171929945755 -5.677996713091753 a28.572415033626797,28.572415033626797 0 0,0 0.36598408104251234,0.3285841215464714 l -5.107166998584257 5.590913582775984" fill="#ff5c08" stroke="none" /><path d="M 114.16331599549186 84.49514656593476 l 4.640312150318263 -5.079838633968021 a27.880207656716866,27.880207656716866 0 0,0 0.35154567550767496,0.32672339255260546 l -4.727065709620785 4.999210655340775" fill="#ff5207" stroke="none" /><path d="M 114.42810811169701 84.74124197986012 l 5.060557740742862 -5.351902371062762 a28.365602734113462,28.365602734113462 0 0,0 0.35189118177476,0.33851903806430117 l -5.151932166130041 5.264000246236159" fill="#ff5908" stroke="none" /><path d="M 114.68862486808459 84.99185889309783 l 5.063200653546152 -5.1733385897878845 a28.23874526576662,28.23874526576662 0 0,0 0.34446455168018647,0.34298531142479766 l -5.15150100539366 5.085417427712968" fill="#ff5708" stroke="none" /><path d="M 114.94478906791727 85.2469230424477 l 5.712888269244614 -5.639603202362851 a29.027590962236058,29.027590962236058 0 0,0 0.34796580875254624,0.3586093529776163 l -5.80911834170027 5.54042965383512" fill="#ff6209" stroke="none" /><path d="M 115.19652480421416 85.50635884689758 l 6.927570661430027 -6.607150287523867 a30.573174509588384,30.573174509588384 0 0,0 0.35993751475571023,0.38395624482393975 l -7.040275498156201 6.486924625821873" fill="#ff770b" stroke="none" /><path d="M 115.4437574822437 85.77008943001954 l 4.782257373435183 -4.406381984750369 a27.502783079675023,27.502783079675023 0 0,0 0.3177964388114684,0.35091876516805387 l -4.857397452862687 4.323410432312766" fill="#ff4d07" stroke="none" /><path d="M 115.68641384162765 86.03803664274999 l 4.637782329376689 -4.127938201516943 a27.208775944598226,27.208775944598226 0 0,0 0.3083766693762713,0.3525278413945058 l -4.708150862330808 4.047494803919489" fill="#ff4906" stroke="none" /><path d="M 115.9244219780498 86.31012108654704 l 3.824477444547975 -3.2878200034677594 a26.043450019486556,26.043450019486556 0 0,0 0.2893171656059497,0.34246026874585156 l -3.8805052236410416 3.2215007850928012" fill="#ff3905" stroke="none" /><path d="M 116.15771136456269 86.58626213691792 l 5.083505438709385 -4.220202220591235 a27.60697618643136,27.60697618643136 0 0,0 0.3003921756100113,0.3682452885272193 l -5.155396106395805 4.132072762455914" fill="#ff4f07" stroke="none" /><path d="M 116.38621287248628 86.86637796730983 l 5.895705976550506 -4.725434395027365 a28.55573154523379,28.55573154523379 0 0,0 0.3041129921783693,0.38619261690864537 l -5.976173049322839 4.623249384165681" fill="#ff5c08" stroke="none" /><path d="M 116.60985879189232 87.15038557335679 l 4.383721988060959 -3.391307416031543 a26.542380757277478,26.542380757277478 0 0,0 0.27645034644519517,0.3637762507765123 l -4.441448274730267 3.315346389373997" fill="#ff4006" stroke="none" /><path d="M 116.82858285166822 87.43820079747576 l 5.220663002999808 -3.8969960171797715 a27.51474482607001,27.51474482607001 0 0,0 0.28004427030849616,0.38198006998070777 l -5.2869698858219305 3.8065535035275704" fill="#ff4d07" stroke="none" /><path d="M 117.04232023915458 87.72973835380427 l 4.060768907277995 -2.923703831275331 a26.003787386703173,26.003787386703173 0 0,0 0.258412488805139,0.3655061394076738 l -4.110494015887017 2.8533711915358637" fill="#ff3805" stroke="none" /><path d="M 117.2510076193507 88.02491185347247 l 5.612882681733997 -3.896280516071809 a27.832675453936783,27.832675453936783 0 0,0 0.2698119894001862,0.3959158013939635 l -5.679119136802917 3.799086691407439" fill="#ff5207" stroke="none" /><path d="M 117.45458315368197 88.32363383020206 l 5.910145682357002 -3.9536335240119156 a28.110628666220308,28.110628666220308 0 0,0 0.26558301474200363,0.404501152055388 l -5.97732533245693 3.8513143079788534" fill="#ff5607" stroke="none" /><path d="M 117.65298651832404 88.62581576622439 l 4.818323829240263 -3.1045456741771202 a26.73188000279807,26.73188000279807 0 0,0 0.24589816747643678,0.3889518483750725 l -4.871049592962655 3.0211461780878417" fill="#ff4206" stroke="none" /><line stroke="#e1ed5e" stroke-width="0.3" x1="172.23445277983987" x2="176.4835382374775" y1="55.19839476539836" y2="52.563006222186495" /><path d="M 173.08426987136738 54.67131705675599 a86.0,86.0 0 0,1 12.851231095245387,41.99856678651699" fill="none" id="id51" stroke="none" /><text fill="#e1ed5e" style="font-size:6.75px; font-family:Arial;" text-anchor="middle"><textPath startOffset="22.20632615414155" xlink:href="#id51">March</textPath></text><path d="M 117.84615892207809 88.93136811851018 l 4.418961405137573 -2.740749833369929 a26.199897071020995,26.199897071020995 0 0,0 0.23440698791294665,0.38530345496136564 l -4.465484191336744 2.6642786052014817" fill="#ff3b05" stroke="none" /><path d="M 118.03404312379186 89.2402003453031 l 4.0483740692208405 -2.4154147582479197 a25.71418721082453,25.71418721082453 0 0,0 0.22351790972356458,0.3820645621125438 l -4.089351653414732 2.3453707837814806" fill="#ff3404" stroke="none" /><path d="M 118.21658344932153 89.55222093294921 l 3.7969040291621154 -2.177642945277877 a25.377054832165804,25.377054832165804 0 0,0 0.2140643500010053,0.3807965927097317 l -3.833826020455554 2.111962842633351" fill="#ff2f04" stroke="none" /><path d="M 118.3937258080291 89.86733742301442 l 5.24356010478416 -2.88855155276527 a26.986539287891354,26.986539287891354 0 0,0 0.22063667742160206,0.40880625435828416 l -5.292504881424226 2.797864315074527" fill="#ff4606" stroke="none" /><path d="M 118.56541770881063 90.18545643968196 l 4.325728040638248 -2.2867810975664353 a25.892983841149608,25.892983841149608 0 0,0 0.20491284103507623,0.3958263864324352 l -4.364450314833441 2.2119819888736556" fill="#ff3705" stroke="none" /><path d="M 118.89224826269711 90.83032412892265 l 6.057115061969669 -2.9399244102540236 a27.7328893063786,27.7328893063786 0 0,0 0.20475034514512302,0.4312564447237755 l -6.106823600956548 2.835225549889708" fill="#ff5007" stroke="none" /><path d="M 119.04729006885535 91.15688171328212 l 3.7507757092788903 -1.7413791223947401 a25.135301641867112,25.135301641867112 0 0,0 0.17881694417725366,0.3939994334104103 l -3.780194970419491 1.676557680142267" fill="#ff2c04" stroke="none" /><path d="M 119.196687751892 91.48605970444005 l 4.558563501665948 -2.0217726093334694 a25.986789115510298,25.986789115510298 0 0,0 0.1778353817741874,0.41046857995534886 l -4.592689593282817 1.943004884791518" fill="#ff3805" stroke="none" /><path d="M 119.34039704204932 91.81776055985345 l 4.449186162612763 -1.8822936477020218 a25.830971629575593,25.830971629575593 0 0,0 0.1697197091209206,0.4109897376828803 l -4.480927558619881 1.8054293395658383" fill="#ff3605" stroke="none" /><path d="M 119.47837535516314 92.15188598940014 l 4.390707540661091 -1.7690784132658548 a25.733703744416353,25.733703744416353 0 0,0 0.16200769621167996,0.4122919158345696 l -4.420508786754471 1.693237492535501" fill="#ff3405" stroke="none" /><path d="M 119.7369772167798 92.82701384747503 l 29.85782631991703 -10.85119430320766 a52.76850972828748,52.76850972828748 0 0,0 0.3029086322858405,0.856363493587174 l -30.04018803301268 10.33563318319387" fill="#7aff26" stroke="none" /><path d="M 120.08093135843002 93.85539295169968 l 4.540077661601493 -1.3892280542852478 a25.747868970410416,25.747868970410416 0 0,0 0.1260347186713703,0.42492641614500626 l -4.563318277384566 1.3108722513937117" fill="#ff3505" stroke="none" /><path d="M 120.18372546131832 94.20196356495316 l 4.571789596867876 -1.31330574758406 a25.756682888806722,25.756682888806722 0 0,0 0.11874226904587976,0.4271791195997085 l -4.593718636480119 1.2344153245653995" fill="#ff3505" stroke="none" /><path d="M 120.28053869075195 94.5502522615342 l 4.3529519658367315 -1.1697169633016982 a25.507374911311196,25.507374911311196 0 0,0 0.11029348601459377,0.42500579315873155 l -4.372441783721627 1.0946147445941163" fill="#ff3104" stroke="none" /><path d="M 120.37134235888165 94.90015583598534 l 5.814349046989558 -1.455587635436592 a26.99377929228832,26.99377929228832 0 0,0 0.10896128957070286,0.4517148903160295 l -5.83854313682108 1.3552875134611564" fill="#ff4606" stroke="none" /><path d="M 120.45610955862082 95.25157060432595 l 6.198833467463631 -1.4389208745407671 a27.36364908213333,27.36364908213333 0 0,0 0.10255584642240168,0.45973775033098724 l -6.22268370088807 1.332004954659816" fill="#ff4b07" stroke="none" /><path d="M 120.53481517161879 95.60439243477599 l 4.373669999303454 -0.9362118322497691 a25.472748803325707,25.472748803325707 0 0,0 0.08808804538466347,0.42954859312818827 l -4.3891373406031144 0.8607875829581692" fill="#ff3104" stroke="none" /><path d="M 120.6074358757038 95.95851677861258 l 5.781342421474267 -1.1338236612460473 a26.89147488233119,26.89147488233119 0 0,0 0.08517461832354577,0.455006216907482 l -5.800002763707671 1.0341393668760024" fill="#ff4506" stroke="none" /><path d="M 120.67395015179393 96.31383870115 l 10.008692522946497 -1.7845479339599404 a31.166540087339733,31.166540087339733 0 0,0 0.08962330184427582,0.5289618007691442 l -10.037927686310995 1.6120003448749582" fill="#ff7f0b" stroke="none" /><path d="M 120.73433829027371 96.67025291283417 l 4.70179180848106 -0.7550652140219952 a25.762034196404482,25.762034196404482 0 0,0 0.0665446918176269,0.43844637563716643 l -4.714092393737987 0.6740197259927466" fill="#ff3505" stroke="none" /><path d="M 120.78858239683441 97.02765380044208 l 3.120811430677283 -0.4462128209821098 a24.152549740678932,24.152549740678932 0 0,0 0.05530243926126019,0.4120674078312433 l -3.1280298689963795 0.3924270710862022" fill="#ff1e03" stroke="none" /><path d="M 120.83666639777658 97.38593545837742 l 5.314995934169882 -0.6667929574312431 a26.356658905355303,26.356658905355303 0 0,0 0.05259991765372645,0.45064397222875496 l -5.325686204827197 0.5752052468776354" fill="#ff3d05" stroke="none" /><path d="M 120.87857604477298 97.74499172005257 l 5.634580386184925 -0.6085676244217517 a26.66734952882511,26.66734952882511 0 0,0 0.04536354169553799,0.45680467413218806 l -5.644221053562691 0.5114874195851287" fill="#ff4106" stroke="none" /><path d="M 120.91429891909075 98.10471618934814 l 5.393736015693518 -0.4887881056410875 a26.415838071730505,26.415838071730505 0 0,0 0.037140059733737414,0.4532028010732224 l -5.401350559246751 0.3958713873600963" fill="#ff3e05" stroke="none" /><path d="M 120.94382443527127 98.46500227214037 l 5.847774302068541 -0.42859031283676347 a26.86345921314293,26.86345921314293 0 0,0 0.02983047582988011,0.4614642578071239 l -5.854285368902836 0.3278669907766043" fill="#ff4406" stroke="none" /><path d="M 120.96714384426684 98.82574320788733 l 4.67412530232045 -0.2617725821028432 a25.68144979963825,25.68144979963825 0 0,0 0.020919854352590733,0.4415850613556362 l -4.6779387649065365 0.18127641412420725" fill="#ff3404" stroke="none" /><path d="M 120.98425023603335 99.18683210126433 l 3.7295804152431953 -0.1445262535147072 a24.732379658035956,24.732379658035956 0 0,0 0.01282350983598496,0.42554986169843256 l -3.731515619534825 0.08030624439127554" fill="#ff2603" stroke="none" /><line stroke="#e1ed5e" stroke-width="0.3" x1="184.98032266829074" x2="189.97916517819016" y1="98.17113171792111" y2="98.06355123074" /><path d="M 185.9800911702706 98.14961562048488 a86.0,86.0 0 0,1 -9.607161424134198,41.387399972396054" fill="none" id="id52" stroke="none" /><text fill="#e1ed5e" style="font-size:6.75px; font-family:Arial;" text-anchor="middle"><textPath startOffset="21.466115282336823" xlink:href="#id52">April</textPath></text><path d="M 120.99980553446 99.90962569577887 l 5.514628803498655 -0.023732636015898693 a26.514679870889086,26.514679870889086 0 0,0 -0.0019642361591953356,0.4564193077042835 l -5.5142202700499565 -0.07119614989206952" fill="#ff3f05" stroke="none" /><path d="M 120.99824983174949 100.27111621757518 l 6.015627478805569 0.07767000495103787 a27.016128871078955,27.016128871078955 0 0,0 -0.010006178897762496,0.4649478148540306 l -6.013399237222799 -0.18120763559518327" fill="#ff4606" stroke="none" /><path d="M 120.9904718944345 100.63252640178507 l 1.4816396509042562 0.04464769548020707 a22.48231220457884,22.48231220457884 0 0,0 -0.014985924735117506,0.38672012895374175 l -1.4806515933179354 -0.07014507144795498" fill="#ff0600" stroke="none" /><path d="M 120.9764740272857 100.99374915477107 l 11.063539384685688 0.5241292172367266 a32.07594759615865,32.07594759615865 0 0,0 -0.030874854745654712,0.5512912720379259 l -11.052878179052504 -0.7144922056100759" fill="#ff8c0c" stroke="none" /><path d="M 120.95626037817324 101.35467743843564 l 5.042055011992604 0.32593401899185265 a26.052578720682728,26.052578720682728 0 0,0 -0.03278089454612784,0.4472692615399395 l -5.035697558782138 -0.4126764170285624" fill="#ff3905" stroke="none" /><path d="M 120.92983693683757 101.71520430193887 l 5.460803171650483 0.44751390659766727 a26.47910941450399,26.47910941450399 0 0,0 -0.04113769689865181,0.4539510573276286 l -5.452290878474755 -0.5414463524738664" fill="#ff3f05" stroke="none" /><path d="M 120.89721153311464 102.0752229133903 l 5.013125544014132 0.497834506778798 a26.037783929088928,26.037783929088928 0 0,0 -0.048129849816196696,0.4456226340039823 l -5.003813392696883 -0.5840534626675716" fill="#ff3905" stroke="none" /><path d="M 120.8583938346157 102.4346265915055 l 6.731573503171953 0.7857205105744078 a27.77727368116,27.77727368116 0 0,0 -0.059520732994735585,0.47443880493962426 l -6.717051260930369 -0.901477069801427" fill="#ff5107" stroke="none" /><path d="M 120.81339534386255 102.79330883721812 l 4.712543395093044 0.6324575540803788 a25.754794192007516,25.754794192007516 0 0,0 -0.06275088027172326,0.4388795104677402 l -4.700958463804719 -0.7134825365285283" fill="#ff3505" stroke="none" /><path d="M 120.76222939487914 103.15116336523771 l 3.4529714767238238 0.52407075423926 a24.49251516453647,24.49251516453647 0 0,0 -0.0668508571671795,0.41628035139415315 l -3.4434388651953562 -0.5834303353266181" fill="#ff2303" stroke="none" /><path d="M 120.70491114924044 103.5080841355445 l 4.448382988269043 0.7537004953795778 a25.51178187050935,25.51178187050935 0 0,0 -0.077086348664305,0.43234118109992853 l -4.434750197265549 -0.8301604272127248" fill="#ff3104" stroke="none" /><path d="M 120.5718875245553 104.21870165774334 l 5.723264434376472 1.1736767045895777 a26.842368765551768,26.842368765551768 0 0,0 -0.09671683978849803,0.4518288767979817 l -5.702213555863531 -1.2720194008037284" fill="#ff4406" stroke="none" /><path d="M 120.49622156327973 104.57218783832717 l 4.615536328110875 1.0296092380535784 a25.72898200241833,25.72898200241833 0 0,0 -0.10014630609812696,0.4314276655983893 l -4.597129456082195 -1.1089055610005325" fill="#ff3405" stroke="none" /><path d="M 120.41448212921028 104.9243191809786 l 6.645534207397794 1.6030155140949593 a27.836138064735334,27.836138064735334 0 0,0 -0.11636657027639728,0.4648266037139585 l -6.6169563228263355 -1.7171699572063137" fill="#ff5207" stroke="none" /><path d="M 120.32669344350535 105.2749913415812 l 6.835419171445686 1.7738633706297569 a28.061837332240753,28.061837332240753 0 0,0 -0.1253588067391255,0.4665067544970539 l -6.803872288364784 -1.891261058302359" fill="#ff5507" stroke="none" /><path d="M 120.23288151984713 105.62410040840565 l 3.210867251355886 0.892519426952263 a24.332605502203478,24.332605502203478 0 0,0 -0.11564634251741514,0.4025800896779369 l -3.195028271952371 -0.9476569921347819" fill="#ff2003" stroke="none" /><path d="M 120.13307415673323 105.97154293290107 l 5.800966604653681 1.7205877682832522 a27.050754979064447,27.050754979064447 0 0,0 -0.1362497933467356,0.44527220801741535 l -5.770490038800813 -1.8201869488527247" fill="#ff4706" stroke="none" /><path d="M 120.02730092923936 106.31721596034902 l 5.539334210589565 1.7472734148491562 a26.808372223166018,26.808372223166018 0 0,0 -0.14260490071278317,0.4388927552442474 l -5.508437058860534 -1.8423650700711989" fill="#ff4306" stroke="none" /><path d="M 119.9155931802556 106.66101706037122 l 4.881229912715617 1.6325878636860047 a26.147013560643156,26.147013560643156 0 0,0 -0.14643469229444372,0.425607760367717 l -4.852404389477942 -1.7163683271430221" fill="#ff3a05" stroke="none" /><path d="M 119.79798401119884 107.00284435728193 l 6.000291379784387 2.1223931995905305 a27.36459343053293,27.36459343053293 0 0,0 -0.16089825695840815,0.44272290009786264 l -5.962868861820752 -2.225363896694524" fill="#ff4b07" stroke="none" /><path d="M 119.67450827220406 107.3425965602758 l 4.078072635701933 1.5219512321821993 a25.352816556575963,25.352816556575963 0 0,0 -0.156107819484844,0.4075482563763109 l -4.051270536623582 -1.591923055391654" fill="#ff2f04" stroke="none" /><path d="M 119.54520255179757 107.68017299344265 l 8.876290385311297 3.4878863761354446 a30.53697448760355,30.53697448760355 0 0,0 -0.19645073436971153,0.4875746118981593 l -8.814937036684192 -3.6401603558764175" fill="#ff770a" stroke="none" /><path d="M 119.26925614724726 108.34839909993367 l 4.787515423966815 2.0741895354415543 a26.21752490781361,26.21752490781361 0 0,0 -0.1829720005485713,0.41255355803959054 l -4.751102338686971 -2.1562914299738325" fill="#ff3b05" stroke="none" /><path d="M 119.12269723197855 108.67885076344098 l 4.299926768183606 1.9515250522496208 a25.722056780821234,25.722056780821234 0 0,0 -0.18645475948229173,0.4016069641307507 l -4.265697391861482 -2.0252520836592023" fill="#ff3405" stroke="none" /><path d="M 118.97047184881838 109.00673069616215 l 5.6940420355065875 2.7033962884602265 a27.303210784558654,27.303210784558654 0 0,0 -0.2052249003002188,0.4228240802260224 l -5.646663878591654 -2.8010093246515244" fill="#ff4a06" stroke="none" /><path d="M 118.81262510543309 109.33194174019688 l 5.573063235747447 2.7644999641973675 a27.221052473793083,27.221052473793083 0 0,0 -0.21183336214690654,0.4179673201521207 l -5.524651203814271 -2.8600214960521826" fill="#ff4906" stroke="none" /><path d="M 118.64920377521936 109.65438752849418 l 3.2178444571728018 1.6658254030793238 a24.623464809281597,24.623464809281597 0 0,0 -0.1980986961114637,0.3747280776000648 l -3.1886932528364453 -1.720968495765523" fill="#ff2503" stroke="none" /><line stroke="#e1ed5e" stroke-width="0.3" x1="174.80103733775053" x2="179.2010983576182" y1="140.37084112569926" y2="142.7455964860345" /><path d="M 175.68104954172406 140.8457921977663 a86.0,86.0 0 0,1 -30.038265399797805,32.042727171017184" fill="none" id="id53" stroke="none" /><text fill="#e1ed5e" style="font-size:6.75px; font-family:Arial;" text-anchor="middle"><textPath startOffset="22.206326154141568" xlink:href="#id53">May</textPath></text><path d="M 118.48025628344425 109.97397251340804 l 8.600413467189044 4.641726078362625 a30.77306158750462,30.77306158750462 0 0,0 -0.2555975187743993,0.46398373989352415 l -8.519239538963134 -4.789080336653954" fill="#ff7a0b" stroke="none" /><path d="M 118.12598468904814 110.60418214915192 l 4.757235496315699 2.783109033509395 a26.511532042890405,26.511532042890405 0 0,0 -0.23383060708964523,0.3919135473936359 l -4.708624013527827 -2.864584674789135" fill="#ff3f05" stroke="none" /><path d="M 117.94076556474637 110.91462005526583 l 3.327420464868342 2.024302140679991 a24.89480758276789,24.89480758276789 0 0,0 -0.2258733872942576,0.3641798199705668 l -3.2920824379061213 -2.0812782920158313" fill="#ff2803" stroke="none" /><path d="M 117.75023020441432 111.22182372390056 l 8.829794535226101 5.58225987220863 a31.446381996422467,31.446381996422467 0 0,0 -0.293192793299381,0.4550417261586517 l -8.73239687854967 -5.733423198288735" fill="#ff830c" stroke="none" /><path d="M 117.55443506779139 111.5257021239791 l 5.6103005438304585 3.6835507747458016 a27.71148407598757,27.71148407598757 0 0,0 -0.26523439255875025,0.39648942940037474 l -5.546063045860987 -3.7795771183519835" fill="#ff5007" stroke="none" /><path d="M 117.35343817320211 111.8261652097733 l 4.819542053079703 3.2844615566261206 a26.83229571595599,26.83229571595599 0 0,0 -0.2633897665544984,0.37943260325880634 l -4.762291379363068 -3.3669354220719465" fill="#ff4406" stroke="none" /><path d="M 117.14729908036423 112.12312394758627 l 4.929105234350472 3.484872657009592 a27.03658975307038,27.03658975307038 0 0,0 -0.2719368619571036,0.37769651698834045 l -4.868388580017766 -3.5692027794490633" fill="#ff4706" stroke="none" /><path d="M 116.93607887273984 112.41649034213515 l 6.781776739145573 4.971981177984165 a29.409107715676186,29.409107715676186 0 0,0 -0.30282800952692446,0.40568760620736294 l -6.695187462923556 -5.087981663700842" fill="#ff6809" stroke="none" /><path d="M 116.71984013943494 112.70617746262583 l 5.678904421740841 4.3156613205733825 a28.132663462211074,28.132663462211074 0 0,0 -0.29632158911140105,0.383035598478676 l -5.603776015411371 -4.412774913165311" fill="#ff5608" stroke="none" /><path d="M 116.498646956653 112.99209946851258 l 4.046470857679548 3.1864523204559267 a26.150476171441706,26.150476171441706 0 0,0 -0.28153115493330144,0.3512534031732812 l -3.9910217906913927 -3.2556335572074584" fill="#ff3a05" stroke="none" /><path d="M 116.27256486870786 113.27417163493432 l 5.388196513651928 4.395363970096121 a27.95355204908613,27.95355204908613 0 0,0 -0.30736128501514404,0.37023646791131437 l -5.311739228743241 -4.4874616951212065" fill="#ff5307" stroke="none" /><path d="M 116.0416608686014 113.55231037782055 l 5.110234589825773 4.31722661587668 a27.68976406279667,27.68976406279667 0 0,0 -0.31072858617218574,0.36144754516317606 l -5.035163494082809 -4.4045512602013845" fill="#ff5007" stroke="none" /><path d="M 115.80600337817218 113.82643327865902 l 5.690265463833371 4.977607171854726 a28.56013850443194,28.56013850443194 0 0,0 -0.3268655496360933,0.3672369100940515 l -5.60374106454894 -5.074818251689644" fill="#ff5c08" stroke="none" /><path d="M 115.32070863581623 114.36230785411682 l 6.222425533693366 5.83317607811553 a29.529039962425927,29.529039962425927 0 0,0 -0.35082390546161984,0.36783746230101777 l -6.121095076852781 -5.939420656999055" fill="#ff6909" stroke="none" /><path d="M 115.07121518719521 114.62390073753431 l 5.16300080776503 5.009762675587985 a28.194046108185354,28.194046108185354 0 0,0 -0.34095915841857916,0.34538982735610135 l -5.076001024290916 -5.097892996924751" fill="#ff5708" stroke="none" /><path d="M 114.81725581225074 114.88116024355365 l 4.092073285706478 4.1097217369100205 a26.79955830476971,26.79955830476971 0 0,0 -0.32969843639737784,0.32267931233721675 l -4.020724896933306 -4.179551152169809" fill="#ff4306" stroke="none" /><path d="M 114.29624159901734 115.38237550388516 l 4.723721435716444 5.082598555478827 a27.93875725749233,27.93875725749233 0 0,0 -0.3550888999695537,0.3243652910456301 l -4.635532986280026 -5.163156613111041" fill="#ff5307" stroke="none" /><path d="M 114.0293411484842 115.62618273729858 l 3.2385432104846155 3.607159272418001 a25.8476551179686,25.8476551179686 0 0,0 -0.3336287894837412,0.2943886163651976 l -3.1759720680942864 -3.6623710305554873" fill="#ff3605" stroke="none" /><path d="M 113.75828350139079 115.86535959552629 l 4.040083948958903 4.658821330427404 a27.166595049415903,27.166595049415903 0 0,0 -0.3559270562831139,0.30332875903705087 l -3.959291416098741 -4.727674479687402" fill="#ff4806" stroke="none" /><path d="M 113.48314897796784 116.09983520530334 l 4.308331552678757 5.144453133409716 a27.710224944788095,27.710224944788095 0 0,0 -0.36832150127792357,0.3031035203515905 l -4.219139922856142 -5.217851772618484" fill="#ff5007" stroke="none" /><path d="M 113.20401910651253 116.32954008644616 l 4.605882870234334 5.696140573279766 a28.325310535730345,28.325310535730345 0 0,0 -0.381774614932988,0.3033048435599548 l -4.507150762583994 -5.774579330844846" fill="#ff5908" stroke="none" /><path d="M 112.92097659922987 116.55440617244103 l 4.39888307850147 5.63586634704775 a28.149346950604084,28.149346950604084 0 0,0 -0.38453518818083754,0.2948451848754547 l -4.301219161827139 -5.710750873750575" fill="#ff5608" stroke="none" /><path d="M 112.63410532772338 116.77436683061366 l 3.4662387424675103 4.602143062797497 a26.76146958598567,26.76146958598567 0 0,0 -0.37034691787494844,0.27397379609953193 l -3.3865068541739975 -4.661126807636798" fill="#ff4306" stroke="none" /><path d="M 112.34349029814194 116.9893568818739 l 5.725959002137505 7.88110644790122 a30.741583307517814,30.741583307517814 0 0,0 -0.43078132695520915,0.30735103882892045 l -5.58945034733341 -7.97850174857436" fill="#ff7a0b" stroke="none" /><path d="M 112.04921762599082 117.19931262002967 l 2.641655112938199 3.770755374499905 a25.6040132308707,25.6040132308707 0 0,0 -0.36314186032568785,0.24977228283627892 l -2.5763563679896277 -3.8156684467012782" fill="#ff3204" stroke="none" /><path d="M 111.7513745106137 117.40417183066458 l 3.2948684440890186 4.879808443562656 a26.88801227153264,26.88801227153264 0 0,0 -0.3858113522858626,0.25569472664504683 l -3.210382393063192 -4.935801191299021" fill="#ff4506" stroke="none" /><path d="M 111.45004920935366 117.60387380957326 l 5.674507494223751 8.724269392500842 a31.407348929238825,31.407348929238825 0 0,0 -0.45573289372385345,0.2908702950301404 l -5.523492798452968 -8.820654116354792" fill="#ff830c" stroke="none" /><path d="M 111.1453310114006 117.79835938074945 l 2.4807435897473864 3.9615840836535074 a25.674209795241282,25.674209795241282 0 0,0 -0.3765805067731417,0.2313265046822607 l -2.4121838830419358 -4.003699055164146" fill="#ff3304" stroke="none" /><line stroke="#e1ed5e" stroke-width="0.3" x1="143.8653032363475" x2="146.44561519142675" y1="172.8068346515853" y2="177.08958963109032" /><path d="M 144.38136562736335 173.6633856474863 a86.0,86.0 0 0,1 -40.68145358897372,12.25698825130547" fill="none" id="id54" stroke="none" /><text fill="#e1ed5e" style="font-size:6.75px; font-family:Arial;" text-anchor="middle"><textPath startOffset="21.466115282336833" xlink:href="#id54">June</textPath></text><path d="M 110.8373102113329 117.98757091392108 l 2.760633908573957 4.582050087107519 a26.34941890095834,26.34941890095834 0 0,0 -0.39051360674810726,0.23072232222563244 l -2.6813524307974674 -4.628890981626901" fill="#ff3d05" stroke="none" /><path d="M 110.5260780823613 118.17145234162733 l 3.3091682082567533 5.712706282079614 a27.601939661633473,27.601939661633473 0 0,0 -0.4131763699048163,0.23461232607282187 l -3.210343071430738 -5.768821773947064" fill="#ff4f07" stroke="none" /><path d="M 110.21172684928248 118.3499491758327 l 2.6317373969917837 4.729097065726023 a26.41206067813209,26.41206067813209 0 0,0 -0.39917074051334256,0.217659714601854 l -2.5499438446097926 -4.773697432087648" fill="#ff3e05" stroke="none" /><path d="M 109.89434966115114 118.52300852407294 l 2.1386721479249227 4.003764146495891 a25.53916797409787,25.53916797409787 0 0,0 -0.389544183047977,0.20379110557562194 l -2.0694370623504503 -4.03998467101623" fill="#ff3204" stroke="none" /><path d="M 109.57404056367764 118.69057910512821 l 2.4221885394140705 4.728631156547291 a26.31290409617364,26.31290409617364 0 0,0 -0.40490057791413314,0.20302555536426112 l -2.340434053817177 -4.769624552820853" fill="#ff3d05" stroke="none" /><path d="M 109.2508944713604 118.85261126421891 l 4.273046295080953 8.708139625262154 a30.700031977935225,30.700031977935225 0 0,0 -0.47641673874270707,0.22870898639403422 l -4.122516888338013 -8.780402888155749" fill="#ff790b" stroke="none" /><path d="M 108.92500713936063 119.00905698771935 l 2.7113759459985887 5.7748637135892436 a27.3797030049266,27.3797030049266 0 0,0 -0.4283385096905402,0.19662920112171087 l -2.611569440540629 -5.820679985045029" fill="#ff4b07" stroke="none" /><path d="M 108.59647513512805 119.15986991738527 l 2.299217127723218 5.124507473881604 a26.61666949804635,26.61666949804635 0 0,0 -0.41962995144146326,0.18395343892442015 l -2.210666501624001 -5.163325466100479" fill="#ff4106" stroke="none" /><path d="M 108.2653958097858 119.30500536409082 l 2.0334960091439065 4.749518627759186 a26.16653009423498,26.16653009423498 0 0,0 -0.41558498058790255,0.17371455559068316 l -1.9514395690585427 -4.783818226369842" fill="#ff3a05" stroke="none" /><path d="M 107.2578585660854 119.70592522655815 l 2.238412095612135 6.077547665157549 a27.476656107285972,27.476656107285972 0 0,0 -0.4452270767910929,0.15964258931663614 l -2.1334654581913073 -6.115177795514145" fill="#ff4d07" stroke="none" /><path d="M 106.91757812671514 119.82793768551818 l 1.050919680134576 3.012263764643298 a24.190323676663102,24.190323676663102 0 0,0 -0.3943371411698572,0.1337805684654889 l -0.9989128060274917 -3.0299073200069095" fill="#ff1e03" stroke="none" /><path d="M 106.57524785965236 119.94407469862006 l 1.0563737005429357 3.2041979926821953 a24.373842048986198,24.373842048986198 0 0,0 -0.39959016931384983,0.12793615357265206 l -1.0010621861381455 -3.221906992914554" fill="#ff2103" stroke="none" /><path d="M 106.2309692047433 120.05430185196036 l 1.6805478554939042 5.408823709974959 a26.663886918026563,26.663886918026563 0 0,0 -0.4394780257630638,0.13241112406919392 l -1.5871948552905946 -5.436950203149879" fill="#ff4106" stroke="none" /><path d="M 105.88484417918355 120.15858648285463 l 1.599985565790073 5.480764896611595 a26.709530424007433,26.709530424007433 0 0,0 -0.4424482451939981,0.12504029358789087 l -1.5054061524914693 -5.507493983538005" fill="#ff4206" stroke="none" /><path d="M 105.53697534728816 120.25689768951611 l 1.4941185112554551 5.466198406199759 a26.666719963225376,26.666719963225376 0 0,0 -0.4438225469531763,0.1172175684906912 l -1.3998055214907814 -5.491107323994034" fill="#ff4106" stroke="none" /><path d="M 105.18746579009965 120.34920634021253 l 1.7291898226259297 6.783204347904638 a28.000139903466607,28.000139903466607 0 0,0 -0.4680646257067854,0.11503889704296275 l -1.6121719121759333 -6.81196450326163" fill="#ff5407" stroke="none" /><path d="M 104.83641907484287 120.43548508189849 l 0.9750747467742741 4.120016304023246 a25.233828658225825,25.233828658225825 0 0,0 -0.42354362646178834,0.09639715044304345 l -0.9040109709196237 -4.136190188043974" fill="#ff2d04" stroke="none" /><path d="M 104.48393922423573 120.51570834832081 l 6.7233547533130755 30.761876631987118 a52.48803825360501,52.48803825360501 0 0,0 -0.8843198146165185,0.18531781523339685 l -6.1928434772671785 -30.873050427947057" fill="#7dff26" stroke="none" /><path d="M 104.13013068566511 120.58985236759428 l 0.6970361658940847 3.474919522630545 a24.544139543714838,24.544139543714838 0 0,0 -0.41495068621381137,0.07952628660383375 l -0.637117865108569 -3.4864030075828465" fill="#ff2303" stroke="none" /><path d="M 103.7750983002368 120.6578951692458 l 1.219459098773395 6.67306020191938 a27.78356933715736,27.78356933715736 0 0,0 -0.47119746645743854,0.08192371938652238 l -1.1044126608439064 -6.693062499826909" fill="#ff5107" stroke="none" /><path d="M 103.41894727170886 120.7198165907248 l 0.9176618610241759 5.561298242315575 a26.636500814438037,26.636500814438037 0 0,0 -0.45302870523237104,0.07075376675140711 l -0.8217972921832878 -5.576270316414088" fill="#ff4106" stroke="none" /><path d="M 103.06178313531738 120.77559828337769 l 0.6028318682468159 4.09048981381096 a25.134672076267375,25.134672076267375 0 0,0 -0.42857178287648057,0.059396143951700835 l -0.5323314941835048 -4.100260523255263" fill="#ff2c04" stroke="none" /><path d="M 102.70371172650421 120.8252237178851 l 0.7560849909012158 5.823712243764767 a26.872587914339107,26.872587914339107 0 0,0 -0.4592302320998671,0.0556063856951967 l -0.6557273357499684 -5.835864158185315" fill="#ff4406" stroke="none" /><path d="M 102.34483914955558 120.86867818915974 l 0.6946365424756982 6.182149622545903 a27.221052473793083,27.221052473793083 0 0,0 -0.46608586455544837,0.048311705571295625 l -0.5881180813146472 -6.193190696572956" fill="#ff4906" stroke="none" /><path d="M 101.98527174616119 120.90594882070398 l 0.4319452487113345 4.548609166662777 a25.56907234008534,25.56907234008534 0 0,0 -0.4385165092075863,0.03783704959567131 l -0.35358442176220656 -4.555370468537112" fill="#ff3204" stroke="none" /><path d="M 101.62511606390274 120.93702456842531 l 0.4682222646015413 6.032295954237122 a27.050440196264578,27.050440196264578 0 0,0 -0.46454267009978606,0.03203758234496782 l -0.3643168337228249 -6.039461881098375" fill="#ff4706" stroke="none" /><path d="M 101.26447882468166 120.96189622390904 l 0.3727893182280068 6.179914482984382 a27.191148107805613,27.191148107805613 0 0,0 -0.46744423335495544,0.024161527526154337 l -0.26635701645957177 -6.185415817272739" fill="#ff4906" stroke="none" /><line stroke="#e1ed5e" stroke-width="0.3" x1="102.19456741930631" x2="102.32365962044197" y1="184.97166512339345" y2="189.96999836594603" /><path d="M 102.22038585953345 185.97133177190398 a86.0,86.0 0 0,1 -42.740103519485714,-10.115201625700543" fill="none" id="id55" stroke="none" /><text fill="#e1ed5e" style="font-size:6.75px; font-family:Arial;" text-anchor="middle"><textPath startOffset="22.20632615414155" xlink:href="#id55">July</textPath></text><path d="M 99.81925306533755 120.99922214144158 l -0.0739350313284366 8.5897896404151 a29.590107825600334,29.590107825600334 0 0,0 -0.5092884642187799,-0.008767862774138744 l 0.22178318543988443 -8.587244300361801" fill="#ff6a09" stroke="none" /><path d="M 99.45781275523022 120.99299961872073 l -0.09052076365676397 3.504882077666082 a24.506050824930796,24.506050824930796 0 0,0 -0.4215970201844915,-0.014520653818809742 l 0.1508381355158985 -3.502804625421178" fill="#ff2303" stroke="none" /><path d="M 99.09653310690486 120.98055641714683 l -0.39065154041045164 9.071817402127794 a30.080224644994953,30.080224644994953 0 0,0 -0.5171104762688478,-0.026728704976761084 l 0.5467500850927883 -9.06374889038883" fill="#ff710a" stroke="none" /><path d="M 98.73552117531835 120.96189622390904 l -0.24479225365642932 4.058043296102466 a25.065419860296394,25.065419860296394 0 0,0 -0.43045351515877467,-0.0296865946342836 l 0.31460852959413405 -4.053228356951896" fill="#ff2b04" stroke="none" /><path d="M 98.37488393609728 120.93702456842531 l -0.5805702737759968 7.4797205908815005 a28.502218469256213,28.502218469256213 0 0,0 -0.4888207589845049,-0.042177511935667926 l 0.7092353505020434 -7.46861882666717" fill="#ff5b08" stroke="none" /><path d="M 98.01472825383883 120.90594882070398 l -0.6401955312109452 6.741593455212972 a27.77192237356224,27.77192237356224 0 0,0 -0.4755180007206096,-0.04928938505048824 l 0.7561461285371481 -6.729574701706723" fill="#ff5107" stroke="none" /><path d="M 97.65516085044442 120.86867818915974 l -0.4390729994740881 3.9076766222154244 a24.932266735952194,24.932266735952194 0 0,0 -0.4260717529857757,-0.0515913556518753 l 0.5062721755112531 -3.8995397378382" fill="#ff2904" stroke="none" /><path d="M 97.2962882734958 120.8252237178851 l -0.9912267746281002 7.634881756968194 a28.69895771917377,28.69895771917377 0 0,0 -0.48934648676067244,-0.06781896412968375 l 1.1225018525756036 -7.616688227345906" fill="#ff5e08" stroke="none" /><path d="M 96.93821686468263 120.77559828337769 l -0.9287787223228596 6.302188227034065 a27.37025952093056,27.37025952093056 0 0,0 -0.46550833831447264,-0.07270282878221432 l 1.0371229242458493 -6.285267090904744" fill="#ff4b07" stroke="none" /><path d="M 96.58105272829116 120.7198165907248 l -0.7744213326223759 4.693218906491157 a25.756682888806722,25.756682888806722 0 0,0 -0.43682233820556027,-0.07594716271707568 l 0.855092642299986 -4.679193165253075" fill="#ff3505" stroke="none" /><path d="M 96.22490169976321 120.6578951692458 l -1.0998332734923257 6.018450027123208 a27.118118498236218,27.118118498236218 0 0,0 -0.45846715708363084,-0.08786632181610592 l 1.2032680451476516 -5.998626506958634" fill="#ff4806" stroke="none" /><path d="M 95.86986931433489 120.58985236759428 l -1.0886121272832014 5.427034806460208 a26.535140752880512,26.535140752880512 0 0,0 -0.4470647319305798,-0.09368676130502453 l 1.181868320643168 -5.407492064428642" fill="#ff4006" stroke="none" /><path d="M 95.51606077576429 120.51570834832081 l -1.4813681634995126 6.777816486579123 a27.937812909092727,27.937812909092727 0 0,0 -0.468929339070817,-0.10672679086966136 l 1.5978176519631924 -6.751312962131776" fill="#ff5307" stroke="none" /><path d="M 95.16358092515715 120.4354850818985 l -1.1351464970253926 4.796372883895613 a25.928869080334568,25.928869080334568 0 0,0 -0.43344020576070386,-0.10652905702816771 l 1.2175399875293071 -4.776122568553415" fill="#ff3705" stroke="none" /><path d="M 94.81253420990036 120.34920634021253 l -1.5302062469401738 6.00263865286516 a27.194610718604164,27.194610718604164 0 0,0 -0.45260839762729854,-0.11953799150708126 l 1.6333050873789616 -5.975409312054497" fill="#ff4906" stroke="none" /><path d="M 94.46302465271185 120.25689768951611 l -1.9523469470204435 7.142616659762076 a28.404635801297104,28.404635801297104 0 0,0 -0.47052797507671845,-0.1329759057335883 l 2.075006090201776 -7.107951960689967" fill="#ff5a08" stroke="none" /><path d="M 94.11515582081647 120.15858648285463 l -1.9414534302278996 6.65046612688966 a27.928054642296814,27.928054642296814 0 0,0 -0.46031422032853314,-0.13868889856985955 l 2.0556426249966786 -6.616061859214075" fill="#ff5307" stroke="none" /><path d="M 93.76903079525671 120.05430185196036 l -1.6326336082939688 5.254612263122454 a26.502403341694233,26.502403341694233 0 0,0 -0.43448627496837416,-0.139108784620535 l 1.7228412283532835 -5.225730631842213" fill="#ff3f05" stroke="none" /><path d="M 93.42475214034765 119.94407469862007 l -1.326232927272412 4.022736349088602 a25.23571735502503,25.23571735502503 0 0,0 -0.41137856484125734,-0.1395619446236098 l 1.3952812250508952 -3.9993114175668687" fill="#ff2d04" stroke="none" /><path d="M 93.08242187328487 119.8279376855182 l -1.7641141113102619 5.056501571571429 a26.35539977415583,26.35539977415583 0 0,0 -0.42705842928233095,-0.15312795872950924 l 1.8508921012223196 -5.025386071801962" fill="#ff3d05" stroke="none" /><path d="M 92.7421414339146 119.70592522655815 l -1.7706030063712015 4.807391895525594 a26.12309006785318,26.12309006785318 0 0,0 -0.4206187941763067,-0.1590420370379552 l 1.8530920213077913 -4.776201608381006" fill="#ff3a05" stroke="none" /><path d="M 92.06813273071674 119.44442032107085 l -1.493452289462276 3.6610942997277514 a24.95398674914309,24.95398674914309 0 0,0 -0.39632698953149337,-0.1656647137672354 l 1.5562507384912316 -3.634844542940543" fill="#ff2904" stroke="none" /><path d="M 91.7346041902142 119.30500536409082 l -2.406669102395683 5.621117366978747 a27.114655887437667,27.114655887437667 0 0,0 -0.42748104657620534,-0.18739512830907035 l 2.5030708236296313 -5.578857685375224" fill="#ff4806" stroke="none" /><path d="M 91.40352486487194 119.15986991738527 l -2.2689354472314314 5.057015501883499 a26.542695540077347,26.542695540077347 0 0,0 -0.4152440458817518,-0.1906181750299887 l 2.3556474888806025 -5.017210256519435" fill="#ff4006" stroke="none" /><path d="M 90.7491055286396 118.85261126421891 l -2.2609774408987477 4.607698088265438 a26.132533551849225,26.132533551849225 0 0,0 -0.4021250523632966,-0.2016338492341064 l 2.339956400944805 -4.568096398122028" fill="#ff3a05" stroke="none" /><path d="M 90.42595943632237 118.69057910512821 l -3.743356195169842 7.307833575505365 a29.210794551759285,29.210794551759285 0 0,0 -0.44554682092180836,-0.23308903886308593 l 3.868593918618146 -7.242315117697562" fill="#ff6509" stroke="none" /><path d="M 90.10565033884886 118.52300852407294 l -4.591174411315111 8.595043198261225 a30.744416352716627,30.744416352716627 0 0,0 -0.46464649584595186,-0.2533623169536922 l 4.7384437190297035 -8.514740229547767" fill="#ff7a0b" stroke="none" /><line stroke="#e1ed5e" stroke-width="0.3" x1="58.666819895761336" x2="56.23545636021788" y1="174.27360380694188" y2="178.64263932499728" /><path d="M 58.180547188652646 175.14741091055294 a86.0,86.0 0 0,1 -31.652253787137756,-30.449443065178592" fill="none" id="id56" stroke="none" /><text fill="#e1ed5e" style="font-size:6.75px; font-family:Arial;" text-anchor="middle"><textPath startOffset="22.20632615414155" xlink:href="#id56">August</textPath></text><path d="M 89.1626897886671 117.98757091392108 l -1.6676866956231737 2.7679961277065885 a24.231560223445822,24.231560223445822 0 0,0 -0.355420217472106,-0.21832812671517488 l 1.7150861130275885 -2.738879534163036" fill="#ff1f03" stroke="none" /><path d="M 88.24862548938628 117.40417183066458 l -2.448295990611778 3.626006819410712 a25.375166135366598,25.375166135366598 0 0,0 -0.35989612071282484,-0.24753983353431516 l 2.510348995947493 -3.5833261965112957" fill="#ff2f04" stroke="none" /><path d="M 87.65650970185807 116.9893568818739 l -2.585534982255775 3.5586836043226064 a25.398774845356705,25.398774845356705 0 0,0 -0.3514888430007411,-0.2600230431404934 l 2.64640879567508 -3.5136506124423463" fill="#ff3004" stroke="none" /><path d="M 86.79598089348748 116.32954008644616 l -3.628337620950358 4.487200764443499 a26.770598287181844,26.770598287181844 0 0,0 -0.35583207898489727,-0.2928255760799651 l 3.705039828479944 -4.424080069506354" fill="#ff4306" stroke="none" /><path d="M 86.51685102203217 116.09983520530335 l -4.3885683414582966 5.240261544253816 a27.835193716335727,27.835193716335727 0 0,0 -0.36468679797758763,-0.3107940009476233 l 4.478120616012941 -5.163943153083241" fill="#ff5207" stroke="none" /><path d="M 86.24171649860922 115.8653595955263 l -3.3885972110946234 3.9075596365621608 a26.172196184632604,26.172196184632604 0 0,0 -0.3378178055749379,-0.2980849360171293 l 3.455357369576149 -3.8486515587727426" fill="#ff3b05" stroke="none" /><path d="M 85.97065885151581 115.62618273729859 l -6.1696351109868575 6.871872645077884 a30.235097782530055,30.235097782530055 0 0,0 -0.38427434381290365,-0.35102550201633353 l 6.287009004266616 -6.764654376474975" fill="#ff730a" stroke="none" /><path d="M 85.70375840098266 115.38237550388516 l -9.445514209593687 10.163121922144914 a34.87468146978585,34.87468146978585 0 0,0 -0.4362061480546351,-0.4124601396006342 l 9.61905619203914 -9.999027145798348" fill="#ffb010" stroke="none" /><path d="M 85.44109423537348 115.13401014063109 l -3.077303613311792 3.1988629394673516 a25.43875226093995,25.43875226093995 0 0,0 -0.31295727895781944,-0.30629456623604356 l 3.1319108446454056 -3.1454182703087383" fill="#ff3004" stroke="none" /><path d="M 85.18274418774928 114.88116024355367 l -3.5023829593088034 3.5174881713707205 a25.96380997111993,25.96380997111993 0 0,0 -0.31398823578297763,-0.3180684251214384 l 3.5624118201473145 -3.4566792522686174" fill="#ff3805" stroke="none" /><path d="M 84.9287848128048 114.62390073753433 l -3.1982411147076855 3.103317152284024 a25.456380097732563,25.456380097732563 0 0,0 -0.302438098094827,-0.3171051367208437 l 3.25118576418147 -3.0478048989806803" fill="#ff3004" stroke="none" /><path d="M 84.67929136418377 114.36230785411682 l -4.926957645316754 4.618747354858483 a27.753350188370025,27.753350188370025 0 0,0 -0.32372775327588804,-0.35134253917319286 l 5.005731806588371 -4.533253560883946" fill="#ff5107" stroke="none" /><path d="M 84.43433777217949 114.09645910891817 l -3.5992550968785406 3.259530597100576 a25.855839470765172,25.855839470765172 0 0,0 -0.2959153429386477,-0.3324640247685858 l 3.6548292894655265 -3.197092402591126" fill="#ff3605" stroke="none" /><path d="M 84.19399662182784 113.82643327865904 l -5.644301708993727 4.937399993966575 a28.499070641257532,28.499070641257532 0 0,0 -0.31981045080399273,-0.37201180549438007 l 5.728454669368499 -4.8395110893106645" fill="#ff5b08" stroke="none" /><path d="M 83.95833913139862 113.55231037782056 l -3.181993898323189 2.688210982867314 a25.165520790654448,25.165520790654448 0 0,0 -0.27670568644402316,-0.33330982460905406 l 3.2277955846607487 -2.6330399011444987" fill="#ff2c04" stroke="none" /><path d="M 83.72743513129214 113.27417163493432 l -5.250625538835283 4.283141911285158 a27.77601454996053,27.77601454996053 0 0,0 -0.29903139829760184,-0.37308764755567375 l 5.323574849187746 -4.192126430151225" fill="#ff5107" stroke="none" /><path d="M 83.50135304334701 112.99209946851258 l -4.605389335760205 3.6265808037850085 a26.86188529914359,26.86188529914359 0 0,0 -0.28293647165908326,-0.36573352983956503 l 4.6671326246373575 -3.546769279832191" fill="#ff4406" stroke="none" /><path d="M 83.28015986056508 112.70617746262583 l -3.654859578191739 2.7774963166036315 a25.59047757047637,25.59047757047637 0 0,0 -0.2635072597384594,-0.3530110361606162 l 3.702128104625283 -2.714172400933707" fill="#ff3204" stroke="none" /><path d="M 83.06392112726016 112.41649034213515 l -5.953158064421787 4.3644889804495275 a28.381656656906735,28.381656656906735 0 0,0 -0.285465686276003,-0.3964868707028777 l 6.027403543073397 -4.261368504295511" fill="#ff5908" stroke="none" /><path d="M 82.85270091963577 112.12312394758628 l -5.518993981956161 3.90192343386922 a27.75901627876765,27.75901627876765 0 0,0 -0.2724865920846058,-0.3925372589082387 l 5.585341481202901 -3.806344912773969" fill="#ff5107" stroke="none" /><path d="M 82.6465618267979 111.8261652097733 l -13.228248681310188 9.014896804871807 a37.0079645044919,37.0079645044919 0 0,0 -0.35421361621299,-0.5295012959038613 l 13.381465402933909 -8.785858594762125" fill="#ffcc13" stroke="none" /><path d="M 82.44556493220864 111.52570212397912 l -2.2153332525917433 1.4545196741515374 a23.650156392089457,23.650156392089457 0 0,0 -0.22050407628301866,-0.34222722314455606 l 2.2400421922518077 -1.416170851085533" fill="#ff1702" stroke="none" /><path d="M 82.24976979558568 111.22182372390057 l -3.637973262223421 2.299952969104704 a25.304025222596408,25.304025222596408 0 0,0 -0.22958626493516854,-0.37016616093369065 l 3.677024166826545 -2.236990476805749" fill="#ff2e04" stroke="none" /><path d="M 82.05923443525364 110.91462005526583 l -5.171445529735571 3.146151310537158 a27.05327324146339,27.05327324146339 0 0,0 -0.23860874187049072,-0.39992197612413305 l 5.224835147304294 -3.056667240526914" fill="#ff4706" stroke="none" /><line stroke="#e1ed5e" stroke-width="0.3" x1="26.63291911575756" x2="22.317208475507996" y1="142.92168965132927" y2="145.44649492493687" /><path d="M 25.769776987707644 143.4266507060508 a86.0,86.0 0 0,1 -11.730757126820373,-40.83630448921669" fill="none" id="id57" stroke="none" /><text fill="#e1ed5e" style="font-size:6.75px; font-family:Arial;" text-anchor="middle"><textPath startOffset="21.46611528233685" xlink:href="#id57">September</textPath></text><path d="M 81.87401531095188 110.60418214915194 l -5.1357167942977515 3.0045306386084096 a26.950024483106656,26.950024483106656 0 0,0 -0.23080514794910925,-0.4024282300730946 l 5.186673938399237 -2.915682562677008" fill="#ff4506" stroke="none" /><path d="M 81.69416730710424 110.29060199501025 l -3.604494172828928 2.0262620962504063 a25.134986859067244,25.134986859067244 0 0,0 -0.2087683169689265,-0.37897513615542877 l 3.6388388992493708 -1.963916441697155" fill="#ff2c04" stroke="none" /><path d="M 81.51974371655577 109.97397251340807 l -9.513724357172682 5.1346487723543754 a31.810900478669716,31.810900478669716 0 0,0 -0.2559224689037628,-0.4841088642653525 l 9.600699334301332 -4.970124893002897" fill="#ff880c" stroke="none" /><path d="M 81.35079622478065 109.6543875284942 l -2.9930901401224204 1.549473772111054 a24.37037943818765,24.37037943818765 0 0,0 -0.18964951550485903,-0.3741964861452902 l 3.019318325413546 -1.497723074263079" fill="#ff2103" stroke="none" /><path d="M 81.02952815118164 109.00673069616217 l -5.448354244921403 2.5867495448910316 a27.031238445472624,27.031238445472624 0 0,0 -0.19594479188838465,-0.4220476496605498 l 5.492073653649615 -2.4925818279516547" fill="#ff4706" stroke="none" /><path d="M 80.87730276802145 108.67885076344099 l -5.8400578611407745 2.6505147266538107 a27.413384764512486,27.413384764512486 0 0,0 -0.19131790166338133,-0.43137136179994945 l 5.884816847535435 -2.5495950283611655" fill="#ff4c07" stroke="none" /><path d="M 80.73074385275274 108.34839909993369 l -9.46007270984984 4.098573494104492 a31.30976626127972,31.30976626127972 0 0,0 -0.20999761223807006,-0.49637232303896417 l 9.529221303280217 -3.9351266453993685" fill="#ff810b" stroke="none" /><path d="M 80.58989483394504 108.01547362559985 l -4.70147432339109 1.941490945988287 a26.086575263068482,26.086575263068482 0 0,0 -0.1678203867151642,-0.4165164369772904 l 4.734197324363642 -1.8602751411681913" fill="#ff3905" stroke="none" /><path d="M 80.45479744820244 107.68017299344265 l -5.142312732052147 2.020641702938554 a26.525067703284734,26.525067703284734 0 0,0 -0.1633258565811513,-0.4263922735611363 l 5.176332868226807 -1.93182586254426" fill="#ff3f06" stroke="none" /><path d="M 80.32549172779594 107.34259656027581 l -4.692378775430534 1.7512124714529236 a26.008509128701196,26.008509128701196 0 0,0 -0.15292475641994036,-0.4207832510982259 l 4.721827792855699 -1.6701814233485806" fill="#ff3805" stroke="none" /><path d="M 80.20201598880116 107.00284435728193 l -3.763276867651505 1.3311275614030134 a24.99176068512726,24.99176068512726 0 0,0 -0.13996477178302422,-0.40680314285886826 l 3.7856324703777577 -1.2661517154548483" fill="#ff2a04" stroke="none" /><path d="M 79.97269907076064 106.31721596034903 l -3.8597019263792554 1.217466632056993 a25.047162457904047,25.047162457904047 0 0,0 -0.12615805774932362,-0.4122918321811611 l 3.880086756634709 -1.1508478273237839" fill="#ff2b04" stroke="none" /><path d="M 79.86692584326677 105.97154293290107 l -3.650124393054119 1.0826401548947007 a24.80729796440456,24.80729796440456 0 0,0 -0.11790242837180655,-0.4104338205077342 l 3.6682194583120293 -1.0196488588823704" fill="#ff2703" stroke="none" /><path d="M 79.76711848015287 105.62410040840567 l -3.279712709564802 0.9116562844112405 a24.404061197773537,24.404061197773537 0 0,0 -0.10901866314458021,-0.4056990014991314 l 3.2949194490511573 -0.8550663497365701" fill="#ff2103" stroke="none" /><path d="M 79.67330655649465 105.27499134158121 l -4.870167604367829 1.2638598607535916 a26.03148827309157,26.03148827309157 0 0,0 -0.1088223877351574,-0.434691344591737 l 4.891201306398045 -1.1798406767644627" fill="#ff3905" stroke="none" /><path d="M 79.58551787078972 104.9243191809786 l -4.780121096549289 1.1530462469805844 a25.91722211673945,25.91722211673945 0 0,0 -0.10087900326068484,-0.43458410579822326 l 4.799260665740529 -1.070593483833787" fill="#ff3705" stroke="none" /><path d="M 79.50377843672027 104.57218783832718 l -2.7374311844150885 0.6106515550194636 a23.80471474682469,23.80471474682469 0 0,0 -0.08577174400995101,-0.4006970331306086 l 2.7475369671494803 -0.5634407024726911" fill="#ff1902" stroke="none" /><path d="M 79.4281124754447 104.21870165774334 l -3.1203509057896315 0.6398941041886831 a24.185287151865214,24.185287151865214 0 0,0 -0.08012247848371505,-0.40854279162114016 l 3.130903317249013 -0.5860875854995881" fill="#ff1e03" stroke="none" /><path d="M 79.35854240842038 103.8639653848113 l -7.509341190792914 1.4057066607446382 a28.639778552798568,28.639778552798568 0 0,0 -0.08653789713299383,-0.48535048429019373 l 7.532425530265097 -1.2762374257212308" fill="#ff5d08" stroke="none" /><path d="M 79.29508885075956 103.50808413554451 l -4.83974634194289 0.82001015313955 a25.90872298114301,25.90872298114301 0 0,0 -0.07071631181040125,-0.4403505411473667 l 4.853144408114582 -0.7365803822989695" fill="#ff3705" stroke="none" /><path d="M 79.23777060512086 103.15116336523772 l -5.052324376127492 0.7668106916917706 a26.11018397305859,26.11018397305859 0 0,0 -0.06361677814822524,-0.4449355981992281 l 5.0647752052923165 -0.6797296215121419" fill="#ff3a05" stroke="none" /><path d="M 79.18660465613746 102.79330883721812 l -5.155875018027649 0.6919558781021105 a26.202100550620074,26.202100550620074 0 0,0 -0.056145475206677765,-0.4475346794230255 l 5.167022002481175 -0.6031034443916763" fill="#ff3b05" stroke="none" /><path d="M 79.1416061653843 102.43462659150553 l -5.78546382269827 0.6752890073232224 a26.824740928759155,26.824740928759155 0 0,0 -0.04958450979452221,-0.4590909787754222 l 5.7962306339938445 -0.575601706663018" fill="#ff4406" stroke="none" /><path d="M 79.07016306316243 101.71520430193888 l -5.305820018324312 0.4348130063414796 a26.323606711369155,26.323606711369155 0 0,0 -0.03312191798480815,-0.4519222554163211 l 5.312518494973455 -0.34341761442839785" fill="#ff3d05" stroke="none" /><path d="M 79.04373962182676 101.35467743843564 l -3.1736266766034067 0.20515303681232872 a24.180250627067323,24.180250627067323 0 0,0 -0.023274814363194386,-0.4155874455907794 l 3.1766878418541324 -0.1504938748861117" fill="#ff1e03" stroke="none" /><path d="M 79.0235259727143 100.99374915477108 l -4.559866087555047 0.21602119901003589 a25.564980163687057,25.564980163687057 0 0,0 -0.01704072361871317,-0.43974535784569535 l 4.5629089440249615 -0.1374985941503438" fill="#ff3204" stroke="none" /><path d="M 79.0095281055655 100.63252640178507 l -5.138385461651607 0.15483999041989127 a26.140717904645793,26.140717904645793 0 0,0 -0.009681945963392297,-0.4498819844426816 l 5.140289470300007 -0.06636819018708083" fill="#ff3a05" stroke="none" /><line stroke="#e1ed5e" stroke-width="0.3" x1="15.007084014347285" x2="10.007500721073583" y1="101.09737516637583" y2="101.16192664675087" /><path d="M 14.007167355692545 101.11028546245083 a86.0,86.0 0 0,1 10.666146001902534,-42.60595125391555" fill="none" id="id58" stroke="none" /><text fill="#e1ed5e" style="font-size:6.75px; font-family:Arial;" text-anchor="middle"><textPath startOffset="22.20632615414155" xlink:href="#id58">October</textPath></text><path d="M 79.00175016825051 100.2711162175752 l -8.548158804384766 0.11036845931668247 a29.548871278817614,29.548871278817614 0 0,0 -0.002189012340027768,-0.5086493760510575 l 8.548792114014296 0.036790394938050495" fill="#ff6909" stroke="none" /><path d="M 79.01574976396665 99.18683210126434 l -3.4175500726673955 -0.1324346583821595 a24.42011512056681,24.42011512056681 0 0,0 0.019892383630260732,-0.41989677833448535 l 3.4147640808036357 0.19124254333965393" fill="#ff2203" stroke="none" /><path d="M 79.03285615573316 98.82574320788736 l -43.26080227025285 -2.422804520987575 a64.32859327064325,64.32859327064325 0 0,0 0.07143356078994686,-1.1050455681780598 l 43.21268811845849 3.1671091534186466" fill="#35ff61" stroke="none" /><path d="M 79.08570108090925 98.10471618934814 l -3.6986514102384267 -0.3351771037694577 a24.713807472843737,24.713807472843737 0 0,0 0.04204039229838069,-0.42334101321150464 l 3.692333892257817 0.3987936476853926" fill="#ff2603" stroke="none" /><path d="M 79.12142395522702 97.74499172005258 l -3.5990710087273188 -0.3887207110003404 a24.620002198483046,24.620002198483046 0 0,0 0.04913407624710902,-0.42095075961052414 l 3.591846579476621 0.4506152089357263" fill="#ff2403" stroke="none" /><path d="M 79.16333360222342 97.38593545837743 l -2.876912942918188 -0.36092319039191095 a23.899464369584987,23.899464369584987 0 0,0 0.054722946060209075,-0.4077495103857861 l 2.870273997800145 0.4103910428423565" fill="#ff1a02" stroke="none" /><path d="M 79.26566170972629 96.67025291283419 l -6.556960720751253 -1.0529885523679232 a27.64097272881712,27.64097272881712 0 0,0 0.07948508994588319,-0.46912550025357386 l 6.5378637692851465 1.165699840937325" fill="#ff4f07" stroke="none" /><path d="M 79.32604984820605 96.31383870115002 l -3.620508243663002 -0.6455359170342118 a24.677607450858908,24.677607450858908 0 0,0 0.07816253310621359,-0.4175473772887204 l 3.608859986646926 0.7077613717855048" fill="#ff2503" stroke="none" /><path d="M 79.3925641242962 95.95851677861259 l -7.0901449348204135 -1.3905030186247271 a28.225209605372292,28.225209605372292 0 0,0 0.09760640926138067,-0.4759635157691854 l 7.0651592296440375 1.5123421905573151" fill="#ff5708" stroke="none" /><path d="M 79.46518482838121 95.60439243477599 l -4.086791229555349 -0.8748036101611762 a25.179371233848645,25.179371233848645 0 0,0 0.0943694213268247,-0.4230396118241705 l 4.071127421226486 0.945021391535306" fill="#ff2c04" stroke="none" /><path d="M 79.54389044137918 95.25157060432595 l -8.821133814404124 -2.0476293885431707 a30.055671586605243,30.055671586605243 0 0,0 0.12132071984176766,-0.5029527079965777 l 8.784580294301541 2.1991673281991453" fill="#ff700a" stroke="none" /><path d="M 79.71946130924805 94.55025226153421 l -3.1415186545818004 -0.8441829107311777 a24.252965453836854,24.252965453836854 0 0,0 0.1118099004251635,-0.40223970124486913 l 3.126521983590276 0.8981339153949893" fill="#ff1f03" stroke="none" /><path d="M 79.81627453868168 94.20196356495316 l -6.300846412836374 -1.8099997021498013 a27.555666590052866,27.555666590052866 0 0,0 0.13488381079111397,-0.45476115565345343 l 6.268756704933553 1.918190244549794" fill="#ff4e07" stroke="none" /><path d="M 79.91906864156998 93.8553929516997 l -6.60106763368831 -2.0198747749436743 a27.903186801107235,27.903186801107235 0 0,0 0.1444913595243736,-0.4580770955168756 l 6.565320790395733 2.1332020368869644" fill="#ff5307" stroke="none" /><path d="M 80.02781315780177 93.51064311812611 l -4.588539523684241 -1.4909068681881672 a25.82467597357823,25.82467597357823 0 0,0 0.1410060587903604,-0.42159016819325157 l 4.562196171122108 1.5696701393037409" fill="#ff3605" stroke="none" /><path d="M 80.14247586403 93.16781622104843 l -4.956592329974901 -1.7053661616549805 a26.24176318340345,26.24176318340345 0 0,0 0.15063636694656432,-0.42586929426926984 l 4.926502882218528 1.7904330823508614" fill="#ff3c05" stroke="none" /><path d="M 80.2630227832202 92.82701384747504 l -4.957567186964683 -1.8017227456733962 a26.2748153773896,26.2748153773896 0 0,0 0.15814362388899628,-0.4237462879594062 l 4.925818974574059 1.8867921706621438" fill="#ff3c05" stroke="none" /><path d="M 80.38941819471856 92.48833698450439 l -10.57712110420265 -4.051474362043639 a32.32651470485365,32.32651470485365 0 0,0 0.20351303589647682,-0.5179184781285594 l 10.505814518424481 4.232941845067962" fill="#ff8f0d" stroke="none" /><path d="M 80.52162464483688 92.15188598940014 l -3.7927444442869764 -1.5281505910575515 a25.0890285702865,25.0890285702865 0 0,0 0.16484484951390818,-0.3991848784741011 l 3.7658779078868685 1.5932100399849638" fill="#ff2b04" stroke="none" /><path d="M 80.65960295795068 91.81776055985345 l -5.121767898278471 -2.1668392437578423 a26.561267725269566,26.561267725269566 0 0,0 0.1817667109750954,-0.4195426297779175 l 5.083710477460696 2.2546810181223593" fill="#ff4006" stroke="none" /><path d="M 80.803312248108 91.48605970444005 l -6.43528052968421 -2.854117070769707 a28.039802536249987,28.039802536249987 0 0,0 0.19948007293908973,-0.4395278986356083 l 6.385198139781768 2.9644669782473865" fill="#ff5507" stroke="none" /><path d="M 80.95270993114464 91.15688171328213 l -4.851140296594171 -2.252247291513206 a26.348474552558734,26.348474552558734 0 0,0 0.19452928972111208,-0.40972829530668997 l 4.811652813031308 2.3354180024604285" fill="#ff3d05" stroke="none" /><path d="M 81.10775173730289 90.83032412892265 l -4.544606223502233 -2.205802372049024 a26.051634372283125,26.051634372283125 0 0,0 0.19928258133838037,-0.4017415235902269 l 4.50596362921044 2.2837034841382122" fill="#ff3905" stroke="none" /><path d="M 81.26839172434947 90.50648371742162 l -4.577843407941612 -2.3201334499868773 a26.132218769049356,26.132218769049356 0 0,0 0.20680610714343903,-0.3994835739392991 l 4.537227867638059 2.398589746186512" fill="#ff3a05" stroke="none" /><path d="M 81.43458229118936 90.18545643968196 l -5.281651600828186 -2.792126766000602 a26.9742627586965,26.9742627586965 0 0,0 0.22053630691528525,-0.40862028305371584 l 5.232807194694429 2.882628032386791" fill="#ff4606" stroke="none" /><line stroke="#e1ed5e" stroke-width="0.3" x1="26.266209847984243" x2="21.928928074336255" y1="57.711370442889674" y2="55.22380399835377" /><path d="M 25.398753493254645 57.213857153982495 a86.0,86.0 0 0,1 29.58750427330803,-30.492523968695096" fill="none" id="id59" stroke="none" /><text fill="#e1ed5e" style="font-size:6.75px; font-family:Arial;" text-anchor="middle"><textPath startOffset="21.46611528233685" xlink:href="#id59">November</textPath></text><path d="M 81.78341655067845 89.55222093294921 l -5.201799479003119 -2.983394326324599 a26.996612337487136,26.996612337487136 0 0,0 0.23466525734682586,-0.40111899266651957 l 5.149674547185969 3.0724927313450103" fill="#ff4606" stroke="none" /><path d="M 82.15384107792192 88.93136811851018 l -4.2105728262525215 -2.6115020508046918 a25.954681269923753,25.954681269923753 0 0,0 0.23874896045624103,-0.3776435197549045 l 4.1649962695503175 2.6835932182738116" fill="#ff3705" stroke="none" /><path d="M 82.34701348167596 88.62581576622439 l -7.709476894113629 -4.967375375756513 a30.171196874156834,30.171196874156834 0 0,0 0.28505080833863405,-0.4341519373116035 l 7.622829450417075 5.0993453770457835" fill="#ff720a" stroke="none" /><path d="M 82.54541684631803 88.32363383020206 l -4.313890920833249 -2.885807673819491 a26.190138804225086,26.190138804225086 0 0,0 0.2538891191085704,-0.3725509540200146 l 4.263577336055938 2.9596366511099212" fill="#ff3b05" stroke="none" /><path d="M 82.95767976084542 87.72973835380427 l -10.206334936617878 -7.34843603239452 a33.57651720312984,33.57651720312984 0 0,0 0.34174081275657225,-0.46613408454391864 l 10.078331511347674 7.5230325606099395" fill="#ff9f0e" stroke="none" /><path d="M 83.17141714833178 87.43820079747576 l -2.496060128270347 -1.8631994390217332 a24.11477580469476,24.11477580469476 0 0,0 0.2511657935518224,-0.33050474299081045 l 2.4636183944944157 1.9058889578935703" fill="#ff1d03" stroke="none" /><path d="M 83.39014120810768 87.1503855733568 l -3.4595227480040336 -2.6763342162638875 a25.373907004167123,25.373907004167123 0 0,0 0.27022717908904925,-0.34316107544340474 l 3.4129414883210134 2.7354876856603396" fill="#ff2f04" stroke="none" /><path d="M 83.6137871275137 86.86637796730984 l -5.9185489818339825 -4.743743164711881 a28.585006345621522,28.585006345621522 0 0,0 0.31103414542763835,-0.38129108520295296 l 5.836016344329952 4.844918419522916" fill="#ff5c08" stroke="none" /><path d="M 83.84228863543731 86.58626213691792 l -4.509010469886731 -3.7432705103028763 a26.86031138514425,26.86031138514425 0 0,0 0.29839169355167217,-0.35320164758013095 l 4.4439081628479356 3.820331107512123" fill="#ff4406" stroke="none" /><path d="M 84.07557802195018 86.31012108654704 l -7.573763877047974 -6.510999930722036 a30.98774345701466,30.98774345701466 0 0,0 0.35120643200628243,-0.40148966395370106 l 7.4605655814638485 6.6404051508786806" fill="#ff7d0b" stroke="none" /><path d="M 84.31358615837235 86.03803664274999 l -3.744978663556202 -3.3332828906692544 a26.013545653499087,26.013545653499087 0 0,0 0.3005882039498284,-0.331917002432916 l 3.687046818990329 3.3972526803717265" fill="#ff3805" stroke="none" /><path d="M 84.5562425177563 85.77008943001954 l -4.918608888245589 -4.532016556781444 a27.68819014879733,27.68819014879733 0 0,0 0.3259726381084954,-0.34772488254922607 l 4.839868928166638 4.61601085620872" fill="#ff5007" stroke="none" /><path d="M 85.05521093208273 85.24692304244772 l -6.204606163958441 -6.125013328203425 a29.718539207946517,29.718539207946517 0 0,0 0.36251551506666424,-0.36095875823791673 l 6.098254848724463 6.230907937091452" fill="#ff6c09" stroke="none" /><path d="M 85.31137513191541 84.99185889309783 l -5.287341298236966 -5.402354883247793 a28.559194156032337,28.559194156032337 0 0,0 0.35429279174154565,-0.3408293849495522 l 5.193565262882993 5.492567354959658" fill="#ff5c08" stroke="none" /><path d="M 85.57189188830299 84.74124197986013 l -4.389248230624234 -4.641944468597746 a27.388516923322907,27.388516923322907 0 0,0 0.34534587408795564,-0.3209613528117463 l 4.308694472741422 4.71681040748414" fill="#ff4c07" stroke="none" /><path d="M 85.83668400450813 84.49514656593479 l -6.235346472747748 -6.825953272619325 a30.245170832125833,30.245170832125833 0 0,0 0.3874104110535552,-0.34782089218575646 l 6.116925074098222 6.93227317357436" fill="#ff730a" stroke="none" /><path d="M 86.10567301691215 84.25364557470407 l -4.741085542620768 -5.3730427825415985 a28.165715656197225,28.165715656197225 0 0,0 0.3662967433932916,-0.3176489263226131 l 4.647895000580703 5.453856702283892" fill="#ff5608" stroke="none" /><path d="M 86.37877921826538 84.01681056812374 l -1.4016780521431436 -1.6447340652424407 a23.160983921094445,23.160983921094445 0 0,0 0.3056615300163122,-0.2559827410336449 l 1.373158985167721 1.668617963669898" fill="#ff0f01" stroke="none" /><path d="M 86.65592168130627 83.78471172551755 l -4.504721559353569 -5.473990554961365 a28.08922343582928,28.08922343582928 0 0,0 0.37598977356066643,-0.30402424854997046 l 4.409828387228401 5.55072090077547" fill="#ff5507" stroke="none" /><path d="M 86.93701828274178 83.55741782278169 l -3.7209701541894824 -4.683644122260835 a26.981817545893335,26.981817545893335 0 0,0 0.36613998110513335,-0.2857780628687016 l 3.6397976179249234 4.747000574352759" fill="#ff4606" stroke="none" /><path d="M 87.22198572758235 83.33499621200491 l -2.556841467225165 -3.3346161483468393 a25.20203559543915,25.20203559543915 0 0,0 0.34653260530004854,-0.2610011739376649 l 2.4990627081667265 3.3781339117903584" fill="#ff2d04" stroke="none" /><path d="M 87.51073957382395 83.11751280151077 l -4.217086415773741 -5.700490261217289 a28.09079734982862,28.09079734982862 0 0,0 0.39120405963400745,-0.2842263864524526 l 4.118337039785952 5.7722358824864095" fill="#ff5507" stroke="none" /><path d="M 88.09926311788651 82.69761687909137 l -8.068666069135425 -11.730966996899413 a35.23794082083363,35.23794082083363 0 0,0 0.5027200785096155,-0.33943884110377287 l 7.865541296219271 11.868117750301852" fill="#ffb510" stroke="none" /><path d="M 88.39885842347998 82.49532879139004 l -2.564808838582786 -3.8699756516371955 a25.642731515254475,25.642731515254475 0 0,0 0.3700282475277408,-0.240676665197374 l 2.497813565270758 3.9135512409941047" fill="#ff3304" stroke="none" /><path d="M 88.70189139769569 82.29822771554957 l -3.2873455227792174 -5.150582625190626 a27.110248928239514,27.110248928239514 0 0,0 0.3955267164777873,-0.2476787935727008 l 3.198199653929188 5.206405760086257" fill="#ff4806" stroke="none" /><path d="M 89.00827224532344 82.1063720568725 l -2.2933254846757194 -3.7333451019855057 a25.38146179136396,25.38146179136396 0 0,0 0.3742411135930296,-0.22547608352740262 l 2.2287223048650406 3.7722677949715275" fill="#ff2f04" stroke="none" /><line stroke="#e1ed5e" stroke-width="0.3" x1="56.762969772571076" x2="54.21961505331055" y1="26.818313649435495" y2="22.513508569990535" /><path d="M 56.25429882871897 25.957352633546506 a86.0,86.0 0 0,1 42.265352541879196,-11.944610805530505" fill="none" id="id60" stroke="none" /><text fill="#e1ed5e" style="font-size:6.75px; font-family:Arial;" text-anchor="middle"><textPath startOffset="22.20632615414155" xlink:href="#id60">December</textPath></text><path d="M 89.63071344664047 81.73862282372117 l -3.529240131517973 -6.215353858306575 a28.147458253804874,28.147458253804874 0 0,0 0.4233859055346278,-0.23561379803982815 l 3.4217301369113 6.275183053906587" fill="#ff5608" stroke="none" /><path d="M 89.94658935756843 81.56283822128135 l -2.4812290453732286 -4.550378269293223 a26.182898799828116,26.182898799828116 0 0,0 0.39754985612253735,-0.21235736511726383 l 2.4025341427223856 4.592414360912236" fill="#ff3b05" stroke="none" /><path d="M 90.26544431104013 81.39251694778311 l -3.1230755090608713 -5.969720289499219 a27.737296265576752,27.737296265576752 0 0,0 0.42496115124250805,-0.21768160724707544 l 3.0198538702296 6.022594422058799" fill="#ff5007" stroke="none" /><path d="M 90.58718382345135 81.22770947309562 l -4.9410018540190785 -9.854003367101672 a32.02337886858068,32.02337886858068 0 0,0 0.4948812652507422,-0.24283608761280048 l 4.770649321757911 9.937594614849301" fill="#ff8b0c" stroke="none" /><path d="M 90.91171255644093 81.06846463323043 l -2.728556933821331 -5.683774023838964 a27.304784698557995,27.304784698557995 0 0,0 0.42546288043529656,-0.19976052719875298 l 2.6303158420864263 5.729899533677725" fill="#ff4a06" stroke="none" /><path d="M 91.23893434514133 80.91482961587045 l -1.9958829780832548 -4.347846278537824 a25.784068992395248,25.784068992395248 0 0,0 0.4049546196370634,-0.18169133368731732 l 1.920746239979417 4.38155794274167" fill="#ff3505" stroke="none" /><path d="M 91.56875222667455 80.76684994638697 l -2.2667788235472313 -5.1709187564820756 a26.64594429843408,26.64594429843408 0 0,0 0.4216609561611607,-0.1805332158408813 l 2.177434109595762 5.209171500285743" fill="#ff4106" stroke="none" /><path d="M 91.90106846888425 80.62456947434976 l -2.0562767031853832 -4.91932130195361 a26.331791064165728,26.331791064165728 0 0,0 0.419698819609753,-0.17120568652859025 l 1.9712940139872497 4.953987874665777" fill="#ff3d05" stroke="none" /><path d="M 92.23578459929587 80.48803036053334 l -1.575242914117217 -3.958686142614316 a25.260585196214613,25.260585196214613 0 0,0 0.40539249871829897,-0.15728599135235172 l 1.5068672503992417 3.985214837857219" fill="#ff2e04" stroke="none" /><path d="M 92.57280143429618 80.3572730644239 l -2.3730236750838443 -6.275940470552391 a27.70959537918836,27.70959537918836 0 0,0 0.4475992618243539,-0.16485458557546778 l 2.2646420874869206 6.315858323934181" fill="#ff5007" stroke="none" /><path d="M 92.91201910852362 80.23233633223022 l -3.5708353703189264 -9.958699620413036 a31.57953512076667,31.57953512076667 0 0,0 0.513269697144437,-0.17906971901900626 l 3.398883669111204 10.018690192604252" fill="#ff850c" stroke="none" /><path d="M 93.25333710446033 80.11325718540243 l -1.8319729139798708 -5.399999191854149 a26.70229041961047,26.70229041961047 0 0,0 0.4365407136440104,-0.14392060982590704 l 1.738749378093451 5.4307335259392895" fill="#ff4206" stroke="none" /><path d="M 93.59665428221793 80.00007090966166 l -1.6320152180912475 -5.09736473317945 a26.352251946157153,26.352251946157153 0 0,0 0.4331991825631245,-0.1345970947279299 l 1.5440306628173943 5.1247019627899055" fill="#ff3d05" stroke="none" /><path d="M 93.94186890950719 79.89281104454417 l -1.272783260015797 -4.224420555811522 a25.411995722951165,25.411995722951165 0 0,0 0.4199148144302206,-0.12258464915456338 l 1.1998782278621551 4.245703533884784" fill="#ff3004" stroke="none" /><path d="M 94.28887869178378 79.79150937346287 l -1.1744527260303153 -4.155736785200152 a25.31850523139034,25.31850523139034 0 0,0 0.42041029599457314,-0.11491401498625406 l 1.1027445408120196 4.175337341012702" fill="#ff2e04" stroke="none" /><path d="M 94.63758080256005 79.69619591428918 l -1.095349504894336 -4.147337411325906 a25.289545213802477,25.289545213802477 0 0,0 0.4218429951235154,-0.1075371721830775 l 1.023797621085821 4.165577579677847" fill="#ff2e04" stroke="none" /><path d="M 94.98787191387505 79.60689891045804 l -1.199226361471481 -4.879353439995434 a26.024563051494468,26.024563051494468 0 0,0 0.43594403993646613,-0.10317386946593159 l 1.115058634572481 4.899273221602236" fill="#ff3805" stroke="none" /><path d="M 95.33964822691252 79.52364482259891 l -0.8010510814836888 -3.5196069434978603 a24.6096143660874,24.6096143660874 0 0,0 0.4138602080552286,-0.09045381172037877 l 0.7403481492749392 3.532874253314107" fill="#ff2403" stroke="none" /><path d="M 95.692805502759 79.44645832069477 l -1.070008710031706 -5.105984564417435 a26.216895342213874,26.216895342213874 0 0,0 0.44248325470310335,-0.08875797822710518 l 0.9819590458614662 5.123646498721751" fill="#ff3b05" stroke="none" /><path d="M 96.04723909329186 79.375362276772 l -0.9534595405782118 -4.974942343415819 a26.06548481547732,26.06548481547732 0 0,0 0.44138159862867554,-0.08065966590921372 l 0.8676828208466429 4.990617490675769" fill="#ff3905" stroke="none" /><path d="M 96.40284397218896 79.31037775812273 l -0.7515927690642157 -4.32290686070902 a25.38775744736132,25.38775744736132 0 0,0 0.43119388586208474,-0.07115068577902522 l 0.6770696770632453 4.335203809427672" fill="#ff2f04" stroke="none" /><path d="M 96.75951476605007 79.25152402106235 l -1.0017852801314562 -6.414322646218258 a27.492080464479507,27.492080464479507 0 0,0 0.4681914650785444,-0.06899925154135908 l 0.8912248346242629 6.4306163819205855" fill="#ff4d07" stroke="none" /><path d="M 97.11714578562143 79.19881850522333 l -0.5463851245630906 -3.942431804354339 a24.980113721532142,24.980113721532142 0 0,0 0.4264287071127637,-0.05536268476907921 l 0.4784416889424692 3.951252812287555" fill="#ff2a04" stroke="none" /><path d="M 97.47563105711357 79.15227682838746 l -1.191374294238662 -9.8390695029163 a30.910936453846844,30.910936453846844 0 0,0 0.5287732190436681,-0.05941383225192606 l 1.021834371685276 9.858119288638823" fill="#ff7c0b" stroke="none" /><path d="M 97.83486435360386 79.11191278185805 l -0.8317475393854299 -8.02426174779215 a29.067253595019437,29.067253595019437 0 0,0 0.4981225806354043,-0.04730274114518809 l 0.6934998316597892 8.037390033452517" fill="#ff6309" stroke="none" /><path d="M 98.19473922651362 79.07773832637324 l -0.44687280396557505 -5.1790798740609825 a26.198323157021655,26.198323157021655 0 0,0 0.44962536609745474,-0.03489958197236287 l 0.3576572485057861 5.186004718221808" fill="#ff3b05" stroke="none" /><path d="M 98.55514903715128 79.0497635885617 l -0.42208926463178326 -6.120264378916365 a27.134801986629228,27.134801986629228 0 0,0 0.4662507787618009,-0.028125520250556417 l 0.31667643703035936 6.126623168547227" fill="#ff4806" stroke="none" /><path d="M 98.91598698831166 79.02799685794201 l -0.22118116172493457 -4.279111014945088 a25.284823471804454,25.284823471804454 0 0,0 0.43484979991713224,-0.018725547115286713 l 0.14749052941847823 4.2822842885845676" fill="#ff2e04" stroke="none" /><path d="M 99.27714615592234 79.0124445844662 l -0.1558770758311952 -4.525781793680401 a25.52846535890236,25.52846535890236 0 0,0 0.4393003535741674,-0.011345832070533675 l 0.07795008706214875 4.527794417893294" fill="#ff3104" stroke="none" /><path d="M 99.63851952072746 79.00311137660856 l -0.09622116266159023 -5.589084754132427 a26.58991296005756,26.58991296005756 0 0,0 0.4577016419341246,-0.003939582533692353 l 1.3691338028093596e-15 5.5899129600575606" fill="#ff4006" stroke="none" /></svg>