<?xml version="1.0" encoding="utf-8" ?>
<svg baseProfile="full" height="200mm" version="1.1" viewBox="0,0,200,200" width="200mm" xmlns="http://www.w3.org/2000/svg" xmlns:ev="http://www.w3.org/2001/xml-events" xmlns:xlink="http://www.w3.org/1999/xlink"><defs /><rect fill="#1a1a1a" height="200" width="200" x="0" y="0" /><text alignment-baseline="middle" fill="#e1ed5e" style="dominant-baseline: central; font-size:9.0px; font-family:Arial;" text-anchor="middle" x="100.0" y="100.0">2017</text><line stroke="#e1ed5e" stroke-width="0.3" x1="100.0" x2="100.0" y1="15.0" y2="10.0" /><path d="M 100.0 14.0 a86.0,86.0 0 0,1 42.46469731375804,11.215312516191453" fill="none" id="id1" stroke="none" /><text fill="#e1ed5e" style="font-size:6.75px; font-family:Arial;" text-anchor="middle"><textPath startOffset="22.20632615414155" xlink:href="#id1">January</textPath></text><line stroke="#e1ed5e" stroke-width="0.3" x1="143.23703022742887" x2="145.7803849466894" y1="26.81831364943548" y2="22.513508569990506" /><path d="M 143.74570117128098 25.957352633546492 a86.0,86.0 0 0,1 28.547481713284135,27.462654790039103" fill="none" id="id2" stroke="none" /><text fill="#e1ed5e" style="font-size:6.75px; font-family:Arial;" text-anchor="middle"><textPath startOffset="19.985693538727396" xlink:href="#id2">February</textPath></text><line stroke="#e1ed5e" stroke-width="0.3" x1="172.23445277983987" x2="176.4835382374775" y1="55.19839476539836" y2="52.563006222186495" /><path d="M 173.08426987136738 54.67131705675599 a86.0,86.0 0 0,1 12.851231095245387,41.99856678651699" fill="none" id="id3" stroke="none" /><text fill="#e1ed5e" style="font-size:6.75px; font-family:Arial;" text-anchor="middle"><textPath startOffset="22.20632615414155" xlink:href="#id3">March</textPath></text><line stroke="#e1ed5e" stroke-width="0.3" x1="184.98032266829074" x2="189.97916517819016" y1="98.17113171792111" y2="98.06355123074" /><path d="M 185.9800911702706 98.14961562048488 a86.0,86.0 0 0,1 -9.607161424134198,41.387399972396054" fill="none" id="id4" stroke="none" /><text fill="#e1ed5e" style="font-size:6.75px; font-family:Arial;" text-anchor="middle"><textPath startOffset="21.466115282336823" xlink:href="#id4">April</textPath></text><line stroke="#e1ed5e" stroke-width="0.3" x1="174.80103733775053" x2="179.2010983576182" y1="140.37084112569926" y2="142.7455964860345" /><path d="M 175.68104954172406 140.8457921977663 a86.0,86.0 0 0,1 -30.038265399797805,32.042727171017184" fill="none" id="id5" stroke="none" /><text fill="#e1ed5e" style="font-size:6.75px; font-family:Arial;" text-anchor="middle"><textPath startOffset="22.206326154141568" xlink:href="#id5">May</textPath></text><path d="M 115.80600337817218 113.82643327865902 l 20.887139804610474 18.271199744857093 a48.750844119302194,48.750844119302194 0 0,0 -0.5579444741070301,0.6268565313880081 l -20.569536480855106 -18.628030445985967" fill="#acff21" stroke="none" /><path d="M 115.56566222782051 114.09645910891815 l 11.248315142543621 10.18661539293164 a36.17536578503095,36.17536578503095 0 0,0 -0.4219659900529519,0.4579607429072954 l -11.071302744494947 -10.378727390640272" fill="#ffb911" stroke="none" /><path d="M 115.32070863581623 114.36230785411682 l 10.97861978566826 10.291842298106925 a36.04832583005064,36.04832583005064 0 0,0 -0.4282771965882899,0.449046928393154 l -10.799836037701004 -10.479296343082586" fill="#ffb711" stroke="none" /><path d="M 115.07121518719521 114.62390073753431 l 10.68215842896587 10.365111411887714 a35.88435565559932,35.88435565559932 0 0,0 -0.4339604063133743,0.4395996004657916 l -10.50215739759696 -10.54745150633417" fill="#ffb510" stroke="none" /><path d="M 114.81725581225074 114.88116024355365 l 13.881275528106027 13.941143227606043 a40.67346651660101,40.67346651660101 0 0,0 -0.50038057198121,0.4897277058335609 l -13.639245003749023 -14.178021036362175" fill="#fff216" stroke="none" /><path d="M 114.55890576462653 115.13401014063108 l 12.576207286832707 13.07299131450124 a39.14012380416432,39.14012380416432 0 0,0 -0.4895575219457766,0.4629071936395656 l -12.349313930496123 -13.287533144886726" fill="#ffdf14" stroke="none" /><path d="M 114.29624159901734 115.38237550388516 l 19.350610639300204 20.820742082566 a49.42445132245358,49.42445132245358 0 0,0 -0.6281623012055196,0.5738113685668337 l -18.98934878862782 -21.150746217719416" fill="#a4ff21" stroke="none" /><path d="M 114.0293411484842 115.62618273729858 l 14.466524472118031 16.113126951748722 a42.65440348902645,42.65440348902645 0 0,0 -0.5505620118051688,0.4858069626705937 l -14.187020107406275 -16.359757056191604" fill="#f4ff19" stroke="none" /><path d="M 113.75828350139079 115.86535959552629 l 10.125152081566574 11.675815425463982 a36.45455824423185,36.45455824423185 0 0,0 -0.4776146432914763,0.40703356064139823 l -9.92267196169805 -11.848373376328327" fill="#ffbc11" stroke="none" /><path d="M 113.48314897796784 116.09983520530334 l 8.692533791718853 10.379501242023428 a34.538618458075405,34.538618458075405 0 0,0 -0.4590838157355498,0.3777947260833084 l -8.512579847438612 -10.527591086963916" fill="#ffa30f" stroke="none" /><path d="M 113.20401910651253 116.32954008644616 l 9.509197215283853 11.760117572104372 a36.12366347777152,36.12366347777152 0 0,0 -0.4868824896658621,0.38680889609726005 l -9.30535723290064 -11.922060382206759" fill="#ffb811" stroke="none" /><path d="M 112.92097659922987 116.55440617244103 l 9.50804278309959 12.18174190840642 a36.45308103545301,36.45308103545301 0 0,0 -0.4979686527128626,0.38182112842754323 l -9.296945401893234 -12.343602378661334" fill="#ffbc11" stroke="none" /><path d="M 112.63410532772338 116.77436683061366 l 8.97078356626616 11.91055562663297 a35.91094541361846,35.91094541361846 0 0,0 -0.49696478398457383,0.36764266644177085 l -8.764433811863022 -12.06320824181451" fill="#ffb510" stroke="none" /><path d="M 112.34349029814194 116.9893568818739 l 8.993660137039548 12.378711211483527 a36.300928531232415,36.300928531232415 0 0,0 -0.5086843447834489,0.36293277359595916 l -8.779248464407214 -12.531688246923705" fill="#ffba11" stroke="none" /><path d="M 112.04921762599082 117.19931262002967 l 14.416512563342565 20.578440373810125 a46.125844119302194,46.125844119302194 0 0,0 -0.6542031005662964,0.4499668579118553 l -14.060152578153385 -20.823548021087074" fill="#caff1d" stroke="none" /><path d="M 111.7513745106137 117.40417183066458 l 15.944869367981694 23.614875523472783 a49.49388013505909,49.49388013505909 0 0,0 -0.7101789686773706,0.4706678955638278 l -15.53601570056436 -23.88584144012793" fill="#a3ff21" stroke="none" /><path d="M 111.45004920935366 117.60387380957326 l 17.161381436669856 26.384759373985474 a52.47488745075971,52.47488745075971 0 0,0 -0.7614311019897925,0.48598135515558794 l -16.704668532633132 -26.676255157964874" fill="#82ff25" stroke="none" /><path d="M 111.1453310114006 117.79835938074945 l 7.560887188656964 12.074238735786983 a35.246201463140125,35.246201463140125 0 0,0 -0.5169791987630216,0.31757084844364786 l -7.351928789961634 -12.202598051059008" fill="#ffac10" stroke="none" /><line stroke="#e1ed5e" stroke-width="0.3" x1="143.8653032363475" x2="146.44561519142675" y1="172.8068346515853" y2="177.08958963109032" /><path d="M 144.38136562736335 173.6633856474863 a86.0,86.0 0 0,1 -40.68145358897372,12.25698825130547" fill="none" id="id6" stroke="none" /><text fill="#e1ed5e" style="font-size:6.75px; font-family:Arial;" text-anchor="middle"><textPath startOffset="21.466115282336833" xlink:href="#id6">June</textPath></text><path d="M 110.8373102113329 117.98757091392108 l 7.855067840290822 13.037699120501042 a36.22115925717502,36.22115925717502 0 0,0 -0.5368185004490765,0.3171618322564197 l -7.629481468813363 -13.17097952505121" fill="#ffb911" stroke="none" /><path d="M 110.5260780823613 118.17145234162733 l 7.727219391356391 13.339707135426476 a36.41615081598199,36.41615081598199 0 0,0 -0.5451172339517868,0.3095317921237211 l -7.4964533904834045 -13.470742093344827" fill="#ffbc11" stroke="none" /><path d="M 110.21172684928248 118.3499491758327 l 13.443476926302884 24.157238240412838 a48.6459622960045,48.6459622960045 0 0,0 -0.7351961298785543,0.40088754902215795 l -13.02565798455568 -24.385066441194766" fill="#adff20" stroke="none" /><path d="M 109.89434966115114 118.52300852407294 l 15.751197747714649 29.48749338128126 a54.43071187394485,54.43071187394485 0 0,0 -0.8302215331039826,0.43433266742712584 l -15.24128531208417 -29.754255467653103" fill="#6dff28" stroke="none" /><path d="M 109.57404056367764 118.69057910512821 l 6.630979416852137 12.945092984601317 a35.54459763646595,35.54459763646595 0 0,0 -0.5469570394863124,0.27425561424031886 l -6.407168469683064 -13.057316439750938" fill="#ffb010" stroke="none" /><path d="M 109.2508944713604 118.85261126421891 l 6.606945101837514 13.464445847327982 a35.99810073157006,35.99810073157006 0 0,0 -0.5586345240223923,0.26817851969486645 l -6.374197909814889 -13.576178643522407" fill="#ffb610" stroke="none" /><path d="M 108.92500713936063 119.00905698771935 l 5.038209221536934 10.730703596401785 a32.85460045019696,32.85460045019696 0 0,0 -0.5139898921030406,0.2359475498522687 l -4.852751333666474 -10.815838216588128" fill="#ff8c0c" stroke="none" /><path d="M 108.59647513512805 119.15986991738527 l 6.105093765071241 13.607065748869001 a35.91389983117614,35.91389983117614 0 0,0 -0.5662071298340384,0.24820856642552203 l -5.8699659605794485 -13.710138868588977" fill="#ffb510" stroke="none" /><path d="M 108.2653958097858 119.30500536409082 l 6.0164825435891585 14.05234914938181 a36.28615644344401,36.28615644344401 0 0,0 -0.5763080380489846,0.24089680664444138 l -5.773703046042712 -14.153830999046223" fill="#ffba11" stroke="none" /><path d="M 107.93186726928326 119.44442032107085 l 16.279967866006405 39.90920766236671 a64.1019977490152,64.1019977490152 0 0,0 -1.0252623822621874,0.40797306090623564 l -15.590584407702352 -40.183527567679015" fill="#34ff5b" stroke="none" /><path d="M 107.59598834532513 119.57807347666477 l 5.418072722397075 13.964664114615987 a35.978897017445135,35.978897017445135 0 0,0 -0.5793112621808348,0.21904594966255617 l -5.176891239455966 -14.055858314385175" fill="#ffb610" stroke="none" /><path d="M 106.91757812671514 119.82793768551818 l 4.843667182985544 13.88346171367811 a35.704136184580754,35.704136184580754 0 0,0 -0.5820288797768166,0.19745579675523117 l -4.6039685702715 -13.964780497331466" fill="#ffb210" stroke="none" /><path d="M 106.57524785965236 119.94407469862006 l 5.120608402800461 15.531855021695469 a37.35417839054587,37.35417839054587 0 0,0 -0.6123926805490568,0.19606879758835116 l -4.852494377160464 -15.617696665943527" fill="#ffc812" stroke="none" /><path d="M 106.2309692047433 120.05430185196036 l 4.609234113469373 14.834766338999376 a36.53432751828925,36.53432751828925 0 0,0 -0.602164049813157,0.18142708858168227 l -4.35319508921597 -14.911908796686783" fill="#ffbd11" stroke="none" /><path d="M 105.53697534728816 120.25689768951611 l 4.7054163738455435 17.21465820111453 a38.84615925717502,38.84615925717502 0 0,0 -0.6465287581166329,0.17075412122704364 l -4.408397172917413 -17.29310367164516" fill="#ffdb14" stroke="none" /><path d="M 105.18746579009965 120.34920634021253 l 7.765142938472189 30.460826598179693 a52.435002813731,52.435002813731 0 0,0 -0.8765302620114643,0.21542981252709573 l -7.239659391717513 -30.58997766902082" fill="#83ff25" stroke="none" /><path d="M 104.83641907484287 120.43548508189849 l 2.7090887094100835 11.446804143722408 a32.76301350590884,32.76301350590884 0 0,0 -0.5499191479048757,0.12515980768011659 l -2.511649412112346 -11.49174068498021" fill="#ff8b0c" stroke="none" /><path d="M 104.48393922423573 120.51570834832081 l 2.9109647650866304 13.318758606264268 a34.63315981992122,34.63315981992122 0 0,0 -0.5835003648556719,0.12227817472328659 l -2.681272938801581 -13.366892761714094" fill="#ffa40f" stroke="none" /><path d="M 103.7750983002368 120.6578951692458 l 3.0222561729737714 16.538231916234274 a37.81211311198649,37.81211311198649 0 0,0 -0.6412772845547227,0.11149427585803354 l -2.7371299169469987 -16.587804770613314" fill="#ffce13" stroke="none" /><path d="M 103.41894727170886 120.7198165907248 l 2.2469910213545217 13.617420259365629 a34.80156162070906,34.80156162070906 0 0,0 -0.5918985572064536,0.09244238162700726 l -2.012256600539551 -13.654080948339741" fill="#ffa70f" stroke="none" /><path d="M 103.06178313531738 120.77559828337769 l 1.4236343925469794 9.660010175374685 a30.764350028137308,30.764350028137308 0 0,0 -0.5245635312284094,0.07269972559447514 l -1.2571422701317396 -9.683084466461763" fill="#ff700a" stroke="none" /><path d="M 102.70371172650421 120.8252237178851 l 8.080895297371784 62.242749757260796 a83.76512380416432,83.76512380416432 0 0,0 -1.4314764684771721,0.17333186505549913 l -7.008291405843232 -62.37262715104165" fill="#4dd4ff" stroke="none" /><path d="M 102.34483914955558 120.86867818915974 l 1.633272176343517 14.535850550721706 a35.62732132808104,35.62732132808104 0 0,0 -0.61002016284933,0.06323108410129565 l -1.3828194168885843 -14.561811003278759" fill="#ffb110" stroke="none" /><path d="M 101.98527174616119 120.90594882070398 l 1.3120166048947934 13.81622039747565 a34.878376477208775,34.878376477208775 0 0,0 -0.5981735941055472,0.05161293468264477 l -1.0739986930477046 -13.836757584436958" fill="#ffa80f" stroke="none" /><path d="M 101.62511606390274 120.93702456842531 l 1.0012937256418142 12.900070216294125 a33.93887169386606,33.93887169386606 0 0,0 -0.5828390947597126,0.04019599639408753 l -0.7790918701031712 -12.915394557204499" fill="#ff9b0e" stroke="none" /><path d="M 101.26447882468166 120.96189622390904 l 0.8212530239368173 13.614321035126064 a34.63906865503658,34.63906865503658 0 0,0 -0.5954817658815643,0.030779605460968473 l -0.5867831896417735 -13.626440447349236" fill="#ffa40f" stroke="none" /><path d="M 100.90346689309514 120.98055641714683 l 0.589198196812399 13.68252240738381 a34.695202588632526,34.695202588632526 0 0,0 -0.5968890757046597,0.02055806664085082 l -0.3535887694330871 -13.690637272450754" fill="#ffa50f" stroke="none" /><line stroke="#e1ed5e" stroke-width="0.3" x1="102.19456741930631" x2="102.32365962044197" y1="184.97166512339345" y2="189.96999836594603" /><path d="M 102.22038585953345 185.97133177190398 a86.0,86.0 0 0,1 -42.740103519485714,-10.115201625700543" fill="none" id="id7" stroke="none" /><text fill="#e1ed5e" style="font-size:6.75px; font-family:Arial;" text-anchor="middle"><textPath startOffset="22.20632615414155" xlink:href="#id7">July</textPath></text><path d="M 100.18074693466247 120.99922214144158 l 0.19199911791909463 22.30650348606565 a43.30732976927406,43.30732976927406 0 0,0 -0.7454921051630848,0.0 l 0.19199911791907925 -22.30650348606565" fill="#ecff1a" stroke="none" /><path d="M 99.81925306533755 120.99922214144158 l -0.1200232880707309 13.944334342656756 a34.94485087225661,34.94485087225661 0 0,0 -0.6014513207582334,-0.010354529929952101 l 0.36003429872163223 -13.940202335447644" fill="#ffa80f" stroke="none" /><path d="M 99.45781275523022 120.99299961872073 l -0.4479070767147088 17.3425568037603 a38.34833989870569,38.34833989870569 0 0,0 -0.6597368929745546,-0.022722672542107865 l 0.7463643213639064 -17.332277332792096" fill="#ffd513" stroke="none" /><path d="M 99.09653310690486 120.98055641714683 l -0.6761384549549215 15.701472968628668 a36.716024198086664,36.716024198086664 0 0,0 -0.6311868007584928,-0.03262514792666516 l 0.9463133241269033 -15.687508013939802" fill="#ffc011" stroke="none" /><path d="M 98.73552117531835 120.96189622390904 l -1.0078650508207483 16.7078816905679 a37.73825267304446,37.73825267304446 0 0,0 -0.6480866312873294,-0.04469584852577821 l 1.2953144428870076 -16.688057497525833" fill="#ffcd13" stroke="none" /><path d="M 98.37488393609728 120.93702456842531 l -1.241585929238001 15.995851423583805 a37.04396454698931,37.04396454698931 0 0,0 -0.6353140154751941,-0.05481756651716078 l 1.5167442624547367 -15.972109604787981" fill="#ffc412" stroke="none" /><path d="M 98.01472825383883 120.90594882070398 l -1.931087345660998 20.335358771292533 a41.42684299380979,41.42684299380979 0 0,0 -0.7093210650529502,-0.07352402863158736 l 2.2808410073195415 -20.299105374205183" fill="#fffb17" stroke="none" /><path d="M 97.65516085044442 120.86867818915974 l -1.5730677384152785 14.000041072736105 a35.088140123804166,35.088140123804166 0 0,0 -0.5996272031696925,-0.07260650367099007 l 1.8138223646363605 -13.970889040339767" fill="#ffaa0f" stroke="none" /><path d="M 97.2962882734958 120.8252237178851 l -2.6862144362088656 20.6904515891537 a41.86409679234665,41.86409679234665 0 0,0 -0.713825529386973,-0.09892971397999276 l 3.0419685567826695 -20.641147309681102" fill="#fdff18" stroke="none" /><path d="M 96.93821686468263 120.77559828337769 l -2.153973912233325 14.615697694995802 a35.77356499718627,35.77356499718627 0 0,0 -0.6084302118030769,-0.09502428608435141 l 2.405239987644919 -14.576455101564346" fill="#ffb310" stroke="none" /><path d="M 96.58105272829116 120.7198165907248 l -2.643094436978068 16.017922364382777 a37.234524479459765,37.234524479459765 0 0,0 -0.6314816281004156,-0.10979117542202577 l 2.9184250365505338 -15.970052610439746" fill="#ffc612" stroke="none" /><path d="M 96.22490169976321 120.6578951692458 l -2.8148594529058832 15.403326448649802 a36.658413055711875,36.658413055711875 0 0,0 -0.6197582777707383,-0.11877814897189187 l 3.079585345248317 -15.352591101329441" fill="#ffbf11" stroke="none" /><path d="M 95.86986931433489 120.58985236759428 l -2.9227008087922695 14.570477969752275 a35.86072031513787,35.86072031513787 0 0,0 -0.6041823355613538,-0.12661228277169992 l 3.1730746057830097 -14.518009706254034" fill="#ffb410" stroke="none" /><path d="M 95.51606077576429 120.51570834832081 l -3.6701685996909648 16.79240168409264 a38.18880135059088,38.18880135059088 0 0,0 -0.6409896664248532,-0.14588716119510706 l 3.9586784155086803 -16.726737789319845" fill="#ffd313" stroke="none" /><path d="M 95.16358092515715 120.4354850818985 l -5.20656707381788 21.99948394016423 a43.60720315137873,43.60720315137873 0 0,0 -0.7289602584679533,-0.17916069601644877 l 5.584480617029045 -21.90660198583375" fill="#e8ff1a" stroke="none" /><path d="M 94.81253420990036 120.34920634021253 l -4.812345163184726 18.877696483871897 a40.481429375351716,40.481429375351716 0 0,0 -0.673745069301769,-0.17794219637624148 l 5.136580675297984 -18.792062938192075" fill="#fff016" stroke="none" /><path d="M 94.46302465271185 120.25689768951611 l -3.903848051904131 14.282138825409394 a35.80606359032076,35.80606359032076 0 0,0 -0.5931339769493713,-0.16762558654105095 l 4.149113196958116 -14.212824445529822" fill="#ffb410" stroke="none" /><path d="M 94.11515582081647 120.15858648285463 l -3.52113707007141 12.061686594201007 a33.565137872819356,33.565137872819356 0 0,0 -0.5532254382926797,-0.16668228638011418 l 3.728237482804335 -11.999288938715166" fill="#ff960d" stroke="none" /><path d="M 93.76903079525671 120.05430185196036 l -2.0297987047809642 6.53288350284387 a27.84095385481148,27.84095385481148 0 0,0 -0.4564307687866522,-0.14613471855687327 l 2.141950818658557 -6.4969759376272895" fill="#ff4706" stroke="none" /><path d="M 93.42475214034765 119.94407469862007 l -4.793603602802263 14.53998242659668 a36.30979178390546,36.30979178390546 0 0,0 -0.5919019389703848,-0.20080527448256444 l 5.043175274709874 -14.455314165215993" fill="#ffba11" stroke="none" /><path d="M 93.08242187328487 119.8279376855182 l -6.399343693333611 18.34251607359663 a40.42677265053461,40.42677265053461 0 0,0 -0.6550685695164794,-0.2348842828052529 l 6.714131823479817 -18.22964424975142" fill="#ffef16" stroke="none" /><path d="M 92.7421414339146 119.70592522655815 l -8.218697748793103 22.31471470857717 a44.78010692177828,44.78010692177828 0 0,0 -0.7210232222758006,-0.27262928716006757 l 8.601591191829186 -22.16993717131047" fill="#daff1c" stroke="none" /><path d="M 92.40401165467489 119.57807347666478 l -6.281544667110443 16.190196383769777 a38.36606640405177,38.36606640405177 0 0,0 -0.6136358619190251,-0.24417837345847207 l 6.559301605071326 -16.07967116590524" fill="#ffd513" stroke="none" /><path d="M 92.06813273071674 119.44442032107085 l -5.814433653151435 14.253679246333656 a36.39399268429938,36.39399268429938 0 0,0 -0.5780207268121146,-0.24161271068633372 l 6.058925839461012 -14.15148149262735" fill="#ffbb11" stroke="none" /><path d="M 91.7346041902142 119.30500536409082 l -6.336260800157963 14.799236666985212 a37.098621271806415,37.098621271806415 0 0,0 -0.5848850715141696,-0.2563964271639791 l 6.590066546329876 -14.68797568652678" fill="#ffc512" stroke="none" /><path d="M 91.07499286063937 119.00905698771935 l -7.043447882420298 15.001590485736031 a37.5728052898143,37.5728052898143 0 0,0 -0.5830714891259035,-0.2799097479764794 l 7.300632039546444 -14.878126461259988" fill="#ffcb12" stroke="none" /><path d="M 90.7491055286396 118.85261126421891 l -5.623679658236952 11.460626515572585 a33.7660382667417,33.7660382667417 0 0,0 -0.5195887294729503,-0.2605325754428231 l 5.820122295392663 -11.36212609922046" fill="#ff990e" stroke="none" /><path d="M 90.10565033884886 118.52300852407294 l -6.966969619310836 13.042720549097496 a35.786859876195834,35.786859876195834 0 0,0 -0.5408539504551431,-0.2949166974161447 l 7.19044638163462 -12.920863199921586" fill="#ffb410" stroke="none" /><line stroke="#e1ed5e" stroke-width="0.3" x1="58.666819895761336" x2="56.23545636021788" y1="174.27360380694188" y2="178.64263932499728" /><path d="M 58.180547188652646 175.14741091055294 a86.0,86.0 0 0,1 -31.652253787137756,-30.449443065178592" fill="none" id="id8" stroke="none" /><text fill="#e1ed5e" style="font-size:6.75px; font-family:Arial;" text-anchor="middle"><textPath startOffset="22.20632615414155" xlink:href="#id8">August</textPath></text><path d="M 89.7882731507175 118.34994917583269 l -9.346143643501303 16.79454056884913 a40.21996342149691,40.21996342149691 0 0,0 -0.602056909330071,-0.3418636258377549 l 9.633849319752583 -16.63117377721674" fill="#ffec16" stroke="none" /><path d="M 89.4739219176387 118.17145234162733 l -7.526560474620322 12.993304238368163 a36.01582723691615,36.01582723691615 0 0,0 -0.5337753613152093,-0.3153638920164669 l 7.749103706963913 -12.861821774057947" fill="#ffb710" stroke="none" /><path d="M 89.1626897886671 117.98757091392108 l -5.498699954582459 9.126642445280861 a31.655106921778277,31.655106921778277 0 0,0 -0.4643062552511646,-0.28521482444672797 l 5.654985409765932 -9.030639154005755" fill="#ff7c0b" stroke="none" /><path d="M 88.8546689885994 117.79835938074946 l -7.098327727716726 11.335561749669777 a34.37464828362408,34.37464828362408 0 0,0 -0.4987895657265117,-0.31835110025816515 l 7.292399095490161 -11.211696220587807" fill="#ffa10e" stroke="none" /><path d="M 88.54995079064634 117.60387380957326 l -9.055494039164556 13.922365872329218 a37.60825830050647,37.60825830050647 0 0,0 -0.5396342743935926,-0.3576401717104758 l 9.293803012298111 -13.764427679527422" fill="#ffcb12" stroke="none" /><path d="M 88.24862548938628 117.40417183066458 l -8.248942476182767 12.216954888731134 a35.74106640405177,35.74106640405177 0 0,0 -0.5069157411753777,-0.34866126908493095 l 8.458015101981035 -12.073152830281103" fill="#ffb310" stroke="none" /><path d="M 87.95078237400918 117.19931262002967 l -9.542919333921683 13.621768485432904 a37.631893640967924,37.631893640967924 0 0,0 -0.5273351380873386,-0.37623961940901196 l 9.77598179985791 -13.455484604179674" fill="#ffcc13" stroke="none" /><path d="M 87.65650970185807 116.9893568818739 l -8.85733993608229 12.191082551490968 a36.069006752954415,36.069006752954415 0 0,0 -0.4991521649753739,-0.3692608386058748 l 9.065877071476228 -12.036811764145327" fill="#ffb711" stroke="none" /><path d="M 87.36589467227662 116.77436683061367 l -9.250731735809833 12.282244255758137 a36.376266178953294,36.376266178953294 0 0,0 -0.49691932054360505,-0.3810165452659745 l 9.460779784846924 -12.121188368664795" fill="#ffbb11" stroke="none" /><path d="M 87.07902340077011 116.55440617244103 l -9.765262562051623 12.51129290353872 a36.87113111986494,36.87113111986494 0 0,0 -0.4969570189768389,-0.3948127114822692 l 9.979177073745818 -12.34134627805132" fill="#ffc212" stroke="none" /><path d="M 86.79598089348748 116.32954008644616 l -15.836277839479356 19.584880309081814 a46.186409679234664,46.186409679234664 0 0,0 -0.6139050760355769,-0.5052020831324836 l 16.171053044059622 -19.30938310709215" fill="#c9ff1d" stroke="none" /><path d="M 86.51685102203217 116.09983520530335 l -7.654930740094146 9.140529680782446 a32.92255205402363,32.92255205402363 0 0,0 -0.4313395556786114,-0.3675969270611339 l 7.8111357723498145 -9.007408363498362" fill="#ff8d0d" stroke="none" /><path d="M 85.97065885151581 115.62618273729859 l -10.10258619422008 11.252478382226055 a36.122186268992685,36.122186268992685 0 0,0 -0.4590965614017307,-0.41937382376607046 l 10.294782305088667 -11.07691179187341" fill="#ffb811" stroke="none" /><path d="M 85.44109423537348 115.13401014063109 l -10.727668675046624 11.15143192340396 a36.47376195835678,36.47376195835678 0 0,0 -0.44871419709406757,-0.43916128367605745 l 10.918032824516485 -10.965120536805331" fill="#ffbd11" stroke="none" /><path d="M 84.9287848128048 114.62390073753433 l -11.678707547984116 11.332082901285741 a37.27293190770962,37.27293190770962 0 0,0 -0.44282630104151266,-0.46430160624580447 l 11.872040400404586 -11.129374178457436" fill="#ffc712" stroke="none" /><path d="M 84.67929136418377 114.36230785411682 l -22.047767112516077 20.668549105199915 a51.22073719752392,51.22073719752392 0 0,0 -0.597462074363822,-0.6484270815291358 l 22.400275594875627 -20.285970768869436" fill="#90ff24" stroke="none" /><path d="M 84.43433777217949 114.09645910891817 l -17.18288810784941 15.561039166872035 a44.18183736634778,44.18183736634778 0 0,0 -0.5056530293941932,-0.5681065389153415 l 17.448199986891943 -15.262958458215829" fill="#e1ff1b" stroke="none" /><path d="M 84.19399662182784 113.82643327865904 l -7.717323399542277 6.7507930069761075 a31.253306133933595,31.253306133933595 0 0,0 -0.35071789005423704,-0.4079641399155531 l 7.832383799167292 -6.616951767899024" fill="#ff770a" stroke="none" /><path d="M 83.72743513129214 113.27417163493432 l -7.803184771383048 6.365364943398093 a31.070132245357343,31.070132245357343 0 0,0 -0.3344952557505705,-0.4173342625456152 l 7.911597939188479 -6.2301028472742175" fill="#ff740a" stroke="none" /><path d="M 83.50135304334701 112.99209946851258 l -10.217648270003721 8.046035714742878 a34.005346088913896,34.005346088913896 0 0,0 -0.358178606333713,-0.4629941316483485 l 10.354633693555503 -7.868963588981277" fill="#ff9c0e" stroke="none" /><path d="M 83.28015986056508 112.70617746262583 l -6.542801821586696 4.972176788448757 a29.217712436691052,29.217712436691052 0 0,0 -0.3008571965417778,-0.40304738014810054 l 6.627420284823559 -4.8588165287913485" fill="#ff5a08" stroke="none" /><path d="M 83.06392112726016 112.41649034213515 l -50.547333321010036 37.058192791675026 a83.67649127743388,83.67649127743388 0 0,0 -0.841626945757155,-1.1689462168838125 l 51.1777400591428 -36.18261296934007" fill="#4dd5ff" stroke="none" /><path d="M 82.85270091963577 112.12312394758628 l -8.156305316644833 5.766500009396346 a30.988885762521104,30.988885762521104 0 0,0 -0.30419146662582697,-0.43821049534614875 l 8.254357690432792 -5.625248251863185" fill="#ff730a" stroke="none" /><path d="M 82.6465618267979 111.8261652097733 l -9.085652808324648 6.191766154779307 a31.994864940911647,31.994864940911647 0 0,0 -0.3062318331393494,-0.4577750404625862 l 9.190887746874727 -6.0344542001109" fill="#ff810b" stroke="none" /><path d="M 82.44556493220864 111.52570212397912 l -8.225245637771403 5.400443292615707 a30.839687675858187,30.839687675858187 0 0,0 -0.2875362315192331,-0.4462626166600959 l 8.316986732667683 -5.258059076034162" fill="#ff710a" stroke="none" /><path d="M 82.24976979558568 111.22182372390057 l -8.100977318953301 5.121496364706449 a30.58413055711874,30.58413055711874 0 0,0 -0.27749325410204284,-0.447407481388124 l 8.1879352127233 -4.981292551953061" fill="#ff6d0a" stroke="none" /><path d="M 82.05923443525364 110.91462005526583 l -15.327138279673926 9.324568132470699 a38.94070061902082,38.94070061902082 0 0,0 -0.34345535563582646,-0.5756509315607923 l 15.485374511007985 -9.059355107023796" fill="#ffdc14" stroke="none" /><line stroke="#e1ed5e" stroke-width="0.3" x1="26.63291911575756" x2="22.317208475507996" y1="142.92168965132927" y2="145.44649492493687" /><path d="M 25.769776987707644 143.4266507060508 a86.0,86.0 0 0,1 -11.730757126820373,-40.83630448921669" fill="none" id="id9" stroke="none" /><text fill="#e1ed5e" style="font-size:6.75px; font-family:Arial;" text-anchor="middle"><textPath startOffset="21.46611528233685" xlink:href="#id9">September</textPath></text><path d="M 81.87401531095188 110.60418214915194 l -12.042763462862945 7.045336268904058 a34.95223691615082,34.95223691615082 0 0,0 -0.29933762092280547,-0.5219203733220736 l 12.162253079938127 -6.836996049723677" fill="#ffa90f" stroke="none" /><path d="M 81.69416730710424 110.29060199501025 l -23.169446232644432 13.024676540251782 a47.57941755768148,47.57941755768148 0 0,0 -0.3951891831722076,-0.7173831579153442 l 23.390211825268157 -12.623922863938617" fill="#b9ff1f" stroke="none" /><path d="M 81.51974371655577 109.97397251340807 l -1.7159495142196408 0.9261144989939971 a22.949915588069782,22.949915588069782 0 0,0 -0.18463479405023706,-0.34925944890418853 l 1.731636816494764 -0.8964400350036824" fill="#ff0000" stroke="none" /><path d="M 81.35079622478065 109.6543875284942 l -13.744211307890629 7.115153217222404 a36.476716375914464,36.476716375914464 0 0,0 -0.28386064342766715,-0.5600839793490152 l 13.864650621104563 -6.8775150261707045" fill="#ffbd11" stroke="none" /><path d="M 81.18737489456691 109.33194174019688 l -12.41691483991831 6.159370381842104 a34.86064997186269,34.86064997186269 0 0,0 -0.2620304795406055,-0.5398603987180111 l 12.521098576073634 -5.944721027158808" fill="#ffa70f" stroke="none" /><path d="M 81.02952815118164 109.00673069616217 l -16.51242393481137 7.839707768311102 a39.27898142937535,39.27898142937535 0 0,0 -0.2847265713441902,-0.6132757042104662 l 16.64492512299539 -7.554311996821808" fill="#ffe115" stroke="none" /><path d="M 80.73074385275274 108.34839909993369 l -15.303172615533313 6.630094670670466 a37.677687113111986,37.677687113111986 0 0,0 -0.2527078695630999,-0.5973267549492792 l 15.415031466288719 -6.365693390055028" fill="#ffcc13" stroke="none" /><path d="M 80.58989483394504 108.01547362559985 l -24.310419420484557 10.039076245343647 a47.301702307259426,47.301702307259426 0 0,0 -0.30430172966123986,-0.7552519374159771 l 24.479623764403183 -9.619124940084864" fill="#bcff1f" stroke="none" /><path d="M 80.45479744820244 107.68017299344265 l -29.053828103867904 11.416531773876628 a52.216375914462574,52.216375914462574 0 0,0 -0.3215179097445583,-0.8393818063858706 l 29.246040293205972 -10.914726400657598" fill="#85ff25" stroke="none" /><path d="M 80.32549172779594 107.34259656027581 l -20.90624099324103 7.8022835987286445 a43.31471581316826,43.31471581316826 0 0,0 -0.25468174020855444,-0.7007747675989472 l 21.03744699445481 -7.44126103412358" fill="#ebff1a" stroke="none" /><path d="M 80.20201598880116 107.00284435728193 l -22.260198117262394 7.873766474872984 a44.611705120990436,44.611705120990436 0 0,0 -0.24984502711835263,-0.7261665986707396 l 22.392433975323975 -7.489427173112948" fill="#dcff1b" stroke="none" /><path d="M 80.0844068197444 106.66101706037122 l -17.39812547169347 5.819018772703308 a39.34545582442318,39.34545582442318 0 0,0 -0.20929487156599602,-0.6441433806338778 l 17.495712594275712 -5.518676492091627" fill="#ffe115" stroke="none" /><path d="M 79.97269907076064 106.31721596034903 l -13.844139436665387 4.366859963586797 a35.51653066966798,35.51653066966798 0 0,0 -0.17889038468170426,-0.5846241276681988 l 13.917256593853221 -4.1279088633665495" fill="#ffb010" stroke="none" /><path d="M 79.86692584326677 105.97154293290107 l -15.123881465936556 4.48579818376833 a36.77511254924029,36.77511254924029 0 0,0 -0.17478223865506745,-0.6084399020338409 l 15.198856341477727 -4.224800806229894" fill="#ffc011" stroke="none" /><path d="M 79.76711848015287 105.62410040840567 l -25.299641382723863 7.032499216363198 a47.258863252673045,47.258863252673045 0 0,0 -0.21111642245877446,-0.7856427452059763 l 25.416945881524413 -6.595965537981683" fill="#bdff1f" stroke="none" /><path d="M 79.67330655649465 105.27499134158121 l -20.030715282081204 5.198181886902868 a41.694217782779965,41.694217782779965 0 0,0 -0.1742990752688501,-0.6962381635487208 l 20.117225671645112 -4.852615883956756" fill="#ffff18" stroke="none" /><path d="M 79.58551787078972 104.9243191809786 l -22.567078408873073 5.443561897093327 a44.21433595948227,44.21433595948227 0 0,0 -0.1720978475754469,-0.7413930231358908 l 22.657436822379076 -5.054300216608862" fill="#e1ff1b" stroke="none" /><path d="M 79.50377843672027 104.57218783832718 l -13.67087597517012 3.0496261313321815 a35.006893640967924,35.006893640967924 0 0,0 -0.12613477421976668,-0.5892596727262064 l 13.721344788114328 -2.8138526391898115" fill="#ffa90f" stroke="none" /><path d="M 79.4281124754447 104.21870165774334 l -17.00190676181768 3.48660141930406 a38.35572594259989,38.35572594259989 0 0,0 -0.12706716307588778,-0.647912726975278 l 17.059403857869235 -3.193424965260827" fill="#ffd513" stroke="none" /><path d="M 79.35854240842038 103.8639653848113 l -16.850317624527406 3.1542851920888504 a38.143007878446824,38.143007878446824 0 0,0 -0.11525283570341928,-0.6463991092654537 l 16.902116902570015 -2.8637673320901826" fill="#ffd213" stroke="none" /><path d="M 79.29508885075956 103.50808413554451 l -11.68219557738165 1.9793431943727147 a32.8486916150816,32.8486916150816 0 0,0 -0.08965854166206932,-0.558303824515476 l 11.71453587340501 -1.7779601401640248" fill="#ff8c0c" stroke="none" /><path d="M 79.23777060512086 103.15116336523772 l -4.064524789388621 0.6168885513123649 a25.111072031513785,25.111072031513785 0 0,0 -0.06118246811823532,-0.4279100395192157 l 4.074541308523456 -0.5468330398127487" fill="#ff2003" stroke="none" /><path d="M 79.18660465613746 102.79330883721812 l -62.440186031587636 8.379926511654372 a84.0,84.0 0 0,0 -0.1799939630126075,-1.4347289828503655 l 62.5751815038471 -7.303879774516597" fill="#4dd2ff" stroke="none" /><path d="M 79.1416061653843 102.43462659150553 l -2.9550369430863825 0.3449168511038367 a23.975098480585256,23.975098480585256 0 0,0 -0.044317054490568934,-0.41032088462366256 l 2.9605362990780035 -0.293999644595392" fill="#ff0f01" stroke="none" /><path d="M 79.10278846688536 102.07522291339032 l -15.040817980221512 1.493646655163878 a36.11480022509848,36.11480022509848 0 0,0 -0.05610761608174325,-0.619142868089804 l 15.064300192580331 -1.234522398525508" fill="#ffb811" stroke="none" /><path d="M 79.07016306316243 101.71520430193888 l -17.034201840124553 1.3959562305453603 a38.09130557118739,38.09130557118739 0 0,0 -0.04792873229329268,-0.6539494725868408 l 17.05570713108218 -1.102533621461759" fill="#ffd113" stroke="none" /><path d="M 79.04373962182676 101.35467743843564 l -13.805246091839642 0.8924137739835242 a34.83406021384356,34.83406021384356 0 0,0 -0.03352968906310612,-0.5986951221928845 l 13.81856213179028 -0.6546469354552021" fill="#ffa70f" stroke="none" /><path d="M 79.0235259727143 100.99374915477108 l -19.276635951917584 0.9132202418352118 a40.29825548677546,40.29825548677546 0 0,0 -0.026861410792011847,-0.6931736565460163 l 19.289499495560797 -0.5812693382751988" fill="#ffed16" stroke="none" /><path d="M 79.0095281055655 100.63252640178507 l -13.519186878548277 0.40738686935454077 a34.52532357906584,34.52532357906584 0 0,0 -0.012787419170371817,-0.5941811216483617 l 13.524196360403655 -0.1746159319160503" fill="#ffa30f" stroke="none" /><line stroke="#e1ed5e" stroke-width="0.3" x1="15.007084014347285" x2="10.007500721073583" y1="101.09737516637583" y2="101.16192664675087" /><path d="M 14.007167355692545 101.11028546245083 a86.0,86.0 0 0,1 10.666146001902534,-42.60595125391555" fill="none" id="id10" stroke="none" /><text fill="#e1ed5e" style="font-size:6.75px; font-family:Arial;" text-anchor="middle"><textPath startOffset="22.20632615414155" xlink:href="#id10">October</textPath></text><path d="M 79.00019446554 99.90962569577889 l -29.560151136049445 -0.12721442049583828 a50.560424873382104,50.560424873382104 0 0,0 0.011236435381397708,-0.8702743032754802 l 29.55358169355033 0.6360249818317903" fill="#97ff23" stroke="none" /><path d="M 79.00486145842228 99.54816195383935 l -20.763270452732208 -0.4468479945816372 a41.76807822172201,41.76807822172201 0 0,0 0.021656361794220307,-0.7186692164855293 l 20.752502396482342 0.8041873584921609" fill="#feff18" stroke="none" /><path d="M 79.01574976396665 99.18683210126434 l -19.965740622719974 -0.7736992823789008 a40.98072594259989,40.98072594259989 0 0,0 0.03338249299284441,-0.7046516657332922 l 19.94946452149363 1.1172620547352021" fill="#fff617" stroke="none" /><path d="M 79.03285615573316 98.82574320788736 l -14.790272824304164 -0.8283235165521666 a35.81344963421497,35.81344963421497 0 0,0 0.039768975217290864,-0.6152084444463972 l 14.77382325808246 1.0827910252515756" fill="#ffb410" stroke="none" /><path d="M 79.08570108090925 98.10471618934814 l -15.565087406019996 -1.410530579396217 a36.62886888013506,36.62886888013506 0 0,0 0.06230897520986619,-0.6274428770858853 l 15.538501305127902 1.6782489871865327" fill="#ffbf11" stroke="none" /><path d="M 79.12142395522702 97.74499172005258 l -22.16953470707993 -2.394439363098366 a43.29846651660101,43.29846651660101 0 0,0 0.08641064034269874,-0.7403135963674716 l 22.12503371373364 2.775696697790699" fill="#ecff1a" stroke="none" /><path d="M 79.16333360222342 97.38593545837743 l -10.324527159956263 -1.2952638316818608 a31.405458638154194,31.405458638154194 0 0,0 0.07190952870219838,-0.5358095137665547 l 10.300701632196231 1.4727916875130749" fill="#ff790b" stroke="none" /><path d="M 79.21141760316559 97.0276538004421 l -16.90607773563609 -2.417226675090667 a38.07801069217783,38.07801069217783 0 0,0 0.09835750807647065,-0.6480530866537031 l 16.861964334120316 2.707878874136462" fill="#ffd113" stroke="none" /><path d="M 79.26566170972629 96.67025291283419 l -18.081288110897813 -2.9036912380131237 a39.31295723128869,39.31295723128869 0 0,0 0.11304934787298149,-0.6672236505030157 l 18.02862690150461 3.2145006768319675" fill="#ffe115" stroke="none" /><path d="M 79.32604984820605 96.31383870115002 l -17.9442790463552 -3.1994614706323827 a39.22727912211593,39.22727912211593 0 0,0 0.12424638446634953,-0.6637291539801198 l 17.886546937978988 3.507868702075075" fill="#ffe015" stroke="none" /><path d="M 79.3925641242962 95.95851677861259 l -17.63141830023814 -3.4578334567905937 a38.96729037703996,38.96729037703996 0 0,0 0.13475390778407134,-0.6571079112314018 l 17.569285096539073 3.760817024185398" fill="#ffdd14" stroke="none" /><path d="M 79.46518482838121 95.60439243477599 l -30.987116985197407 -6.63298913120325 a52.68908272369161,52.68908272369161 0 0,0 0.19747269305088092,-0.8852313624431665 l 30.86834990514449 7.165398663196377" fill="#80ff26" stroke="none" /><path d="M 79.54389044137918 95.25157060432595 l -15.74498809724459 -3.654847667942138 a37.163618458075405,37.163618458075405 0 0,0 0.15001218423174043,-0.6218973510068159 l 15.679743112752035 3.9253302506083503" fill="#ffc512" stroke="none" /><path d="M 79.62865764111835 94.90015583598534 l -13.531695687599846 -3.387579378221044 a34.949282498593135,34.949282498593135 0 0,0 0.15112014520824413,-0.5823275652742987 l 13.471379210521294 3.6200033690442064" fill="#ffa80f" stroke="none" /><path d="M 79.71946130924805 94.55025226153421 l -16.183344886598913 -4.348757621353116 a37.757456387169384,37.757456387169384 0 0,0 0.17406768038293605,-0.6262140605382546 l 16.106090435649616 4.626682985310313" fill="#ffcd13" stroke="none" /><path d="M 79.81627453868168 94.20196356495316 l -14.645127190032248 -4.207002379537719 a36.23740855374226,36.23740855374226 0 0,0 0.17738056682278536,-0.5980390907231744 l 14.570540726097756 4.458470857007432" fill="#ffb911" stroke="none" /><path d="M 79.91906864156998 93.8553929516997 l -17.713483345154224 -5.42018657749619 a39.52419808666291,39.52419808666291 0 0,0 0.2046685619230401,-0.6488552720241174 l 17.617559299462982 5.724292015946721" fill="#ffe415" stroke="none" /><path d="M 80.02781315780177 93.51064311812611 l -16.96146678009702 -5.511114633853651 a38.83434158694429,38.83434158694429 0 0,0 0.21204050956906836,-0.6339741345860349 l 16.86408897675618 5.802261871362009" fill="#ffdb14" stroke="none" /><path d="M 80.14247586403 93.16781622104843 l -30.916332421315698 -10.637079599010628 a53.69506190208216,53.69506190208216 0 0,0 0.3082273470486939,-0.8714002164476022 l 30.728651993457195 11.167677441884841" fill="#75ff27" stroke="none" /><path d="M 80.2630227832202 92.82701384747504 l -20.672734296416102 -7.5130672348829926 a42.99563871693866,42.99563871693866 0 0,0 0.25878340229822927,-0.6934108591463132 l 20.540346305616247 7.867801231058647" fill="#efff19" stroke="none" /><path d="M 80.38941819471856 92.48833698450439 l -17.534475613881 -6.716428572732468 a39.77680078784468,39.77680078784468 0 0,0 0.2504166490106713,-0.6372830574825392 l 17.416265414988636 7.017260635110771" fill="#ffe715" stroke="none" /><path d="M 80.52162464483688 92.15188598940014 l -17.062760853815874 -6.874828627884074 a39.39568092290377,39.39568092290377 0 0,0 0.2588452189386564,-0.6268142290785482 l 16.941893947991016 7.167517427415933" fill="#ffe215" stroke="none" /><path d="M 80.65960295795068 91.81776055985345 l -14.717530613455938 -6.226467801315792 a36.980444569499156,36.980444569499156 0 0,0 0.2530682589897531,-0.5841164332033676 l 14.608171644623503 6.478883379105759" fill="#ffc312" stroke="none" /><path d="M 80.803312248108 91.48605970444005 l -14.243575014558022 -6.317180798928409 a36.58159819921215,36.58159819921215 0 0,0 0.2602479053685678,-0.573421762312532 l 14.132724792226103 6.561424570083012" fill="#ffbe11" stroke="none" /><path d="M 80.95270993114464 91.15688171328213 l -5.881936086260202 -2.7308166346856684 a27.48494653911086,27.48494653911086 0 0,0 0.2029197977898404,-0.4274008451457694 l 5.8340580946286105 2.83165989547197" fill="#ff4206" stroke="none" /><path d="M 81.10775173730289 90.83032412892265 l -29.099856514369627 -14.12411315060358 a53.346440630275744,53.346440630275744 0 0,0 0.4080748348490014,-0.8226539659916293 l 28.852421666567214 14.622926705094171" fill="#79ff26" stroke="none" /><path d="M 81.26839172434947 90.50648371742162 l -34.44054425358423 -17.4550878301937 a59.611283061339336,59.611283061339336 0 0,0 0.4717539486674704,-0.91127847255954 l 34.134980871756646 18.045339025013575" fill="#38ff2e" stroke="none" /><path d="M 81.43458229118936 90.18545643968196 l -17.034841628708918 -9.00540983404534 a40.26871131119865,40.26871131119865 0 0,0 0.3292291231924914,-0.6100115640374785 l 16.877304406297956 9.297302381415292" fill="#ffed16" stroke="none" /><path d="M 81.6062741919709 89.86733742301443 l -14.311550447566821 -7.883890036862505 a37.33940630275745,37.33940630275745 0 0,0 0.3149709764386065,-0.5602982216782815 l 14.173721829835785 8.129071768475571" fill="#ffc812" stroke="none" /><line stroke="#e1ed5e" stroke-width="0.3" x1="26.266209847984243" x2="21.928928074336255" y1="57.711370442889674" y2="55.22380399835377" /><path d="M 25.398753493254645 57.213857153982495 a86.0,86.0 0 0,1 29.58750427330803,-30.492523968695096" fill="none" id="id11" stroke="none" /><text fill="#e1ed5e" style="font-size:6.75px; font-family:Arial;" text-anchor="middle"><textPath startOffset="21.46611528233685" xlink:href="#id11">November</textPath></text><path d="M 81.78341655067845 89.55222093294921 l -16.19066769008003 -9.285853159270308 a39.66453292065279,39.66453292065279 0 0,0 0.34477984530087963,-0.5893405176481185 l 16.028428170308825 9.563173089272318" fill="#ffe515" stroke="none" /><path d="M 81.96595687620814 89.24020034530311 l -15.953582324479918 -9.518517195938953 a39.57737760270118,39.57737760270118 0 0,0 0.35409352365754615,-0.5820366502698411 l 15.787373002536155 9.791721619415869" fill="#ffe415" stroke="none" /><path d="M 82.15384107792192 88.93136811851018 l -12.035110128444186 -7.464474806404255 a35.1620005627462,35.1620005627462 0 0,0 0.32344419854792844,-0.5116110468105324 l 11.904838333650297 7.670533500929003" fill="#ffab0f" stroke="none" /><path d="M 82.34701348167596 88.62581576622439 l -27.436883590487465 -17.678151424118738 a53.638927968486215,53.638927968486215 0 0,0 0.5067687516543724,-0.7718435761752205 l 27.12851820347517 18.147813064271627" fill="#76ff27" stroke="none" /><path d="M 82.54541684631803 88.32363383020206 l -22.229546145006474 -14.87061124818456 a47.744864940911654,47.744864940911654 0 0,0 0.46284220913904356,-0.6791638301826739 l 21.97027947019869 15.251053101637648" fill="#b7ff1f" stroke="none" /><path d="M 82.7489923806493 88.02491185347247 l -14.034039330176626 -9.741973439405655 a38.08391952729319,38.08391952729319 0 0,0 0.3784587330357495,-0.5353030384739885 l 13.864267977336997 9.98210297821143" fill="#ffd113" stroke="none" /><path d="M 82.95767976084542 87.72973835380427 l -4.175464363602661 -3.006283153749279 a26.145118176702308,26.145118176702308 0 0,0 0.26610425021955564,-0.36296589824550574 l 4.123097500869472 3.0777114956662857" fill="#ff2f04" stroke="none" /><path d="M 83.17141714833178 87.43820079747576 l -14.260969162496272 -10.645188167755308 a38.79593415869443,38.79593415869443 0 0,0 0.40407639152322944,-0.5317171659423606 l 14.075616830748935 10.889090109578694" fill="#ffda14" stroke="none" /><path d="M 83.39014120810768 87.1503855733568 l -14.998646406269119 -11.603158440828564 a39.962929093978616,39.962929093978616 0 0,0 0.4255974294943234,-0.5404655153621413 l 14.796694896180824 11.859616350143753" fill="#ffe915" stroke="none" /><path d="M 83.6137871275137 86.86637796730984 l -13.910299447465153 -11.149166480761455 a38.82695554305008,38.82695554305008 0 0,0 0.4224770423652292,-0.5179068996919786 l 13.716323913023531 11.386957550061515" fill="#ffdb14" stroke="none" /><path d="M 83.84228863543731 86.58626213691792 l -19.426533669323685 -16.12743440882097 a46.24845244794598,46.24845244794598 0 0,0 0.5137749094643441,-0.6081474398573186 l 19.146048146372216 16.459440798307405" fill="#c9ff1d" stroke="none" /><path d="M 84.07557802195018 86.31012108654704 l -14.741516124868852 -12.672960502324214 a40.44006752954418,40.44006752954418 0 0,0 0.4583364337853796,-0.5239577752805451 l 14.521187827505628 12.924833833807702" fill="#ffef16" stroke="none" /><path d="M 84.31358615837235 86.03803664274999 l -10.575308825137837 -9.41273612942348 a35.15756893640968,35.15756893640968 0 0,0 0.406247984899981,-0.44858917156616257 l 10.411717199621812 9.593378088259199" fill="#ffab0f" stroke="none" /><path d="M 84.5562425177563 85.77008943001954 l -13.848974422034516 -12.760474109883997 a39.831457512661785,39.831457512661785 0 0,0 0.4689351386035893,-0.5002273103053078 l 13.62727196146047 12.996970837067355" fill="#ffe815" stroke="none" /><path d="M 84.80347519578584 85.50635884689758 l -6.367874103735491 -6.073341330123176 a29.799732695554304,29.799732695554304 0 0,0 0.35722179293169615,-0.36814845829821014 l 6.262388047100676 6.182053983971509" fill="#ff6309" stroke="none" /><path d="M 85.05521093208273 85.24692304244772 l -17.761129101186157 -17.533288913748308 a45.95744231851435,45.95744231851435 0 0,0 0.5606024494228137,-0.5581950443461204 l 17.45669085159603 17.836419808744537" fill="#ccff1d" stroke="none" /><path d="M 85.31137513191541 84.99185889309783 l -14.896307310296534 -15.220341188675347 a42.29691896454699,42.29691896454699 0 0,0 0.5247169587538943,-0.5047772985885394 l 14.632107107930212 15.474501574026199" fill="#f8ff18" stroke="none" /><path d="M 85.57189188830299 84.74124197986013 l -22.357681034930614 -23.644849495333506 a53.54143218908273,53.54143218908273 0 0,0 0.6751118635238773,-0.6274429007965955 l 21.94736128761188 24.026196982204752" fill="#77ff27" stroke="none" /><path d="M 85.83668400450813 84.49514656593479 l -18.765198141185245 -20.542622005530276 a48.82322734946539,48.82322734946539 0 0,0 0.6253767479576217,-0.5614694190466071 l 18.40881040563165 20.86259043334616" fill="#abff21" stroke="none" /><path d="M 86.10567301691215 84.25364557470407 l -11.016942441851873 -12.485432405876187 a37.65109735509286,37.65109735509286 0 0,0 0.48965467502047255,-0.4246237090404602 l 10.800393968184627 12.673221108336328" fill="#ffcc13" stroke="none" /><path d="M 86.37877921826538 84.01681056812374 l -8.308216474283968 -9.748891077926215 a33.80887732132808,33.80887732132808 0 0,0 0.44618454921334,-0.3736667283854682 l 8.139174388111519 9.890458963705495" fill="#ff990e" stroke="none" /><path d="M 86.65592168130627 83.78471172551755 l -11.095972833798436 -13.48346389228032 a38.46208497467642,38.46208497467642 0 0,0 0.5148362557383301,-0.41629511434536687 l 10.862233179495606 13.67246510388982" fill="#ffd614" stroke="none" /><path d="M 86.93701828274178 83.55741782278169 l -11.028552797589565 -13.881814243878319 a38.729459763646595,38.729459763646595 0 0,0 0.5255540566143907,-0.41020327738784274 l 10.78796618581575 14.069595910489383" fill="#ffda14" stroke="none" /><path d="M 87.22198572758235 83.33499621200491 l -11.107955851050741 -14.486924367757688 a39.255346088913896,39.255346088913896 0 0,0 0.5397681985104491,-0.4065422165497627 l 10.856941498781902 14.675983173813306" fill="#ffe015" stroke="none" /><path d="M 87.51073957382395 83.11751280151077 l -8.767784120233324 -11.851943038894387 a35.742543612830616,35.742543612830616 0 0,0 0.4977654421429304,-0.3616477626882319 l 8.562473361736613 12.001110036399288" fill="#ffb310" stroke="none" /><path d="M 87.80319425747018 82.90503203632743 l -15.2314218026964 -21.34826718198362 a47.22488745075971,47.22488745075971 0 0,0 0.6658008862303014,-0.4664360693359257 l 14.861689776882438 21.607288094083486" fill="#bdff1f" stroke="none" /><path d="M 88.09926311788651 82.69761687909137 l -4.732334383412179 -6.880301898037175 a29.35066122678672,29.35066122678672 0 0,0 0.4187295390290142,-0.28272805392078054 l 4.613200149976626 6.960741864256621" fill="#ff5c08" stroke="none" /><path d="M 88.39885842347998 82.49532879139004 l -11.335105268560998 -17.103255703966823 a41.51842993809792,41.51842993809792 0 0,0 0.5991168242337384,-0.38968224800028906 l 11.039021418542973 17.295836876126646" fill="#fffd17" stroke="none" /><path d="M 88.70189139769569 82.29822771554957 l -10.66310657830029 -16.706856973865456 a40.81971018570624,40.81971018570624 0 0,0 0.5955417812674331,-0.37292820879456023 l 10.373945644660616 16.887929523982944" fill="#fff417" stroke="none" /><path d="M 89.00827224532344 82.1063720568725 l -8.933484980130338 -14.542978141171568 a38.06767023072594,38.06767023072594 0 0,0 0.5612949882928517,-0.3381739500739576 l 8.681827925619837 14.694598700704146" fill="#ffd113" stroke="none" /><line stroke="#e1ed5e" stroke-width="0.3" x1="56.762969772571076" x2="54.21961505331055" y1="26.818313649435495" y2="22.513508569990535" /><path d="M 56.25429882871897 25.957352633546506 a86.0,86.0 0 0,1 42.265352541879196,-11.944610805530505" fill="none" id="id12" stroke="none" /><text fill="#e1ed5e" style="font-size:6.75px; font-family:Arial;" text-anchor="middle"><textPath startOffset="22.20632615414155" xlink:href="#id12">December</textPath></text><path d="M 89.3179101791058 81.91981866633112 l -8.448889838641986 -14.300334757721783 a37.609735509285315,37.609735509285315 0 0,0 0.5602118170675964,-0.3245108436163055 l 8.201481289109068 14.443649758728137" fill="#ffcb12" stroke="none" /><path d="M 89.63071344664047 81.73862282372117 l -14.110428276219755 -24.84991147123762 a49.57660382667417,49.57660382667417 0 0,0 0.7457168997364293,-0.4149906473327691 l 13.68058728741128 25.08911751613057" fill="#a2ff22" stroke="none" /><path d="M 91.23893434514133 80.91482961587045 l -6.671869497713844 -14.534049984425051 a36.99226223972988,36.99226223972988 0 0,0 0.5809861697632974,-0.26067155903243405 l 6.420701209483772 14.646741873974015" fill="#ffc312" stroke="none" /><path d="M 91.90106846888425 80.62456947434976 l -6.984587828607146 -16.709537017759704 a39.11057962858751,39.11057962858751 0 0,0 0.6233781843541107,-0.25429161349209456 l 6.695925774664654 16.827289517435375" fill="#ffde14" stroke="none" /><path d="M 92.23578459929587 80.48803036053334 l -6.723779952030715 -16.897288845770547 a39.18591727630839,39.18591727630839 0 0,0 0.6288720865259979,-0.24399259945802906 l 6.431924700505041 17.010524149119128" fill="#ffdf14" stroke="none" /><path d="M 92.57280143429618 80.3572730644239 l -7.320618057304573 -19.36085325135709 a41.698649409116484,41.698649409116484 0 0,0 0.6735675652850245,-0.24808061876499238 l 6.986268166246979 19.483997137928405" fill="#ffff18" stroke="none" /><path d="M 92.91201910852362 80.23233633223022 l -6.0898001272152875 -16.98383821314998 a39.04262802476083,39.04262802476083 0 0,0 0.6345691215959038,-0.22138870643349007 l 5.796549001556098 17.08614777275568" fill="#ffde14" stroke="none" /><path d="M 93.25333710446033 80.11325718540243 l -5.574919037275217 -16.432862116142218 a38.35277152504221,38.35277152504221 0 0,0 0.6270078704361514,-0.20671463682171573 l 5.291228344596656 16.526390477223167" fill="#ffd513" stroke="none" /><path d="M 93.59665428221793 80.00007090966166 l -5.658330677179126 -17.67298179746977 a39.55669667979741,39.55669667979741 0 0,0 0.6502643000529056,-0.20204028335085392 l 5.353281004415492 17.76776221570315" fill="#ffe415" stroke="none" /><path d="M 93.94186890950719 79.89281104454417 l -5.599595000638399 -18.585288609643325 a40.41052335396736,40.41052335396736 0 0,0 0.6677546147972768,-0.19493588309651624 l 5.278850168117701 18.67892282165854" fill="#ffef16" stroke="none" /><path d="M 94.28887869178378 79.79150937346287 l -8.150882120315071 -28.841450923031207 a50.971088913899834,50.971088913899834 0 0,0 0.846367918706771,-0.23134432391591572 l 7.653216312384577 28.977481787773417" fill="#93ff23" stroke="none" /><path d="M 94.63758080256005 79.69619591428918 l -8.193004007343536 -31.02128761547827 a53.084974676420934,53.084974676420934 0 0,0 0.885485465406293,-0.2257299612883886 l 7.657809653252244 31.15772057293552" fill="#7cff26" stroke="none" /><path d="M 94.98787191387505 79.60689891045804 l -4.700456643515603 -19.12498760029357 a40.69414743950478,40.69414743950478 0 0,0 0.681677959451049,-0.16133114887051817 l 4.370554997102021 19.20306466130496" fill="#fff216" stroke="none" /><path d="M 95.692805502759 79.44645832069477 l -4.255384546549655 -20.306309291350715 a41.74739729881823,41.74739729881823 0 0,0 0.7046038057153388,-0.1413368948580437 l 3.9052143313671794 20.376550142285968" fill="#ffff18" stroke="none" /><path d="M 96.04723909329186 79.375362276772 l -4.004756284420185 -20.895938177240645 a42.27623804164322,42.27623804164322 0 0,0 0.7158874528106568,-0.13082385616370854 l 3.644473710506635 20.96177751475509" fill="#f8ff18" stroke="none" /><path d="M 96.40284397218896 79.31037775812273 l -3.7067205016463025 -21.319799959289547 a42.63963140123804,42.63963140123804 0 0,0 0.7242052943726129,-0.11950007880188988 l 3.339186001134804 21.38044630103106" fill="#f4ff19" stroke="none" /><path d="M 96.75951476605007 79.25152402106235 l -4.250287540252547 -27.21413077541301 a48.54403489026449,48.54403489026449 0 0,0 0.8267072710434541,-0.12183516189520528 l 3.781211288780444 27.283260421469187" fill="#aeff20" stroke="none" /><path d="M 97.11714578562143 79.19881850522333 l -5.231966708706181 -37.75115943762228 a59.11198649409116,59.11198649409116 0 0,0 1.009084596513053,-0.13100814154923365 l 4.5813673836852695 37.83562590233564" fill="#3dff2e" stroke="none" /><path d="M 97.47563105711357 79.15227682838746 l -2.304889482179644 -19.035132721407628 a40.174169949352844,40.174169949352844 0 0,0 0.6872333097460404,-0.07721866976741724 l 1.9768894689238856 19.071987344645642" fill="#ffec16" stroke="none" /><path d="M 97.83486435360386 79.11191278185805 l -2.0905073074306046 -20.16811234919923 a41.276167698368035,41.276167698368035 0 0,0 0.7073455049834423,-0.06717097883770577 l 1.743036675356926 20.20110887255212" fill="#fffa17" stroke="none" /><path d="M 98.19473922651362 79.07773832637324 l -1.8588496906509315 -21.543336126797172 a42.623382104670796,42.623382104670796 0 0,0 0.7315183368133941,-0.05677990185805515 l 1.4877411644752032 21.57214129084369" fill="#f4ff19" stroke="none" /><path d="M 98.55514903715128 79.0497635885617 l -1.1326265566957006 -16.423004682686297 a37.46201463140124,37.46201463140124 0 0,0 0.6437007907588043,-0.03882978956917764 l 0.8497637170972733 16.440067741635783" fill="#ffc912" stroke="none" /><path d="M 98.91598698831166 79.02799685794201 l -0.9872479222234744 -19.09992435848515 a40.1254220596511,40.1254220596511 0 0,0 0.6900792395757449,-0.02971626367637598 l 0.6583278502584053 19.11408834868572" fill="#ffeb16" stroke="none" /><path d="M 99.27714615592234 79.0124445844662 l -0.92685564644398 -26.910604960210332 a47.92656162070906,47.92656162070906 0 0,0 0.8247325160197907,-0.021300407690861264 l 0.4634964952293103 26.922572160043554" fill="#b5ff20" stroke="none" /><path d="M 99.63851952072746 79.00311137660856 l -0.6760976690614512 -39.27168483450725 a60.27750422059651,60.27750422059651 0 0,0 1.0375781483339772,-0.0089307626978225 l 9.620213964450036e-15 39.27750422059651" fill="#31ff2f" stroke="none" /></svg>