<?xml version="1.0" encoding="utf-8" ?>
<svg baseProfile="full" height="200mm" version="1.1" viewBox="0,0,200,200" width="200mm" xmlns="http://www.w3.org/2000/svg" xmlns:ev="http://www.w3.org/2001/xml-events" xmlns:xlink="http://www.w3.org/1999/xlink"><defs /><rect fill="#1a1a1a" height="200" width="200" x="0" y="0" /><text alignment-baseline="middle" fill="#e1ed5e" style="dominant-baseline: central; font-size:9.0px; font-family:Arial;" text-anchor="middle" x="100.0" y="100.0">2025</text><line stroke="#e1ed5e" stroke-width="0.3" x1="100.0" x2="100.0" y1="15.0" y2="10.0" /><path d="M 100.0 14.0 a86.0,86.0 0 0,1 42.46469731375804,11.215312516191453" fill="none" id="id97" stroke="none" /><text fill="#e1ed5e" style="font-size:6.75px; font-family:Arial;" text-anchor="middle"><textPath startOffset="22.20632615414155" xlink:href="#id97">January</textPath></text><path d="M 100.0 79.0 l 0.0 -31.80134013232753 a52.80134013232753,52.80134013232753 0 0,0 0.908888273203121,0.007823088313727836 l -0.5474077939305927 31.796628420622362" fill="#ff0000" stroke="none" /><path d="M 100.36148047927253 79.00311137660856 l 0.8398034414149752 -48.78066821317053 a69.7878966665262,69.7878966665262 0 0,0 1.2009279543359732,0.031016425977915027 l -1.6793580309458163 48.758984995050255" fill="#5bff2a" stroke="none" /><path d="M 101.08401301168833 79.027996857942 l 1.7721824249831577 -34.28576500863314 a55.33153525222302,55.33153525222302 0 0,0 0.9507484673795686,0.057351743933778426 l -2.3620929412023384 34.25017999531906" fill="#ff4806" stroke="none" /><path d="M 101.80526077348638 79.07773832637324 l 3.2619310094821468 -37.804496250091496 a58.94496186101395,58.94496186101395 0 0,0 1.0101338408763236,0.09592437977017806 l -3.9121899774487146 37.742746325806145" fill="#ffa90f" stroke="none" /><path d="M 102.16513564639614 79.11191278185805 l 6.4954069391883955 -62.66426165442583 a84.0,84.0 0 0,0 1.436933185961099,0.1614561861175967 l -7.57310682865922 62.54316951483763" fill="#4dd2ff" stroke="none" /><path d="M 102.88285421437855 79.19881850522331 l 6.66911371082206 -48.12086716567369 a69.58080829364911,69.58080829364911 0 0,0 1.1849645434598084,0.17463297112445267 l -7.496447234710525 47.998939710388264" fill="#5fff29" stroke="none" /><path d="M 103.2404852339499 79.25152402106235 l 7.281771403964634 -46.624393617468634 a68.18959922457752,68.18959922457752 0 0,0 1.1581542137381908,0.1911053687150314 l -8.0832548238417 46.49214198581398" fill="#7cff26" stroke="none" /><path d="M 103.59715602781102 79.31037775812273 l 7.090470685187125 -40.781984117296375 a62.393779763159,62.393779763159 0 0,0 1.0565491665052587,0.19307760688651995 l -7.791414972795284 40.65389102905912" fill="#ffff18" stroke="none" /><path d="M 103.95276090670814 79.375362276772 l 6.301696030206434 -32.88086497828461 a54.47928694845969,54.47928694845969 0 0,0 0.9194899658482545,0.1844410370366696 l -6.866752405521814 32.767519985170736" fill="#ff3004" stroke="none" /><path d="M 104.307194497241 79.44645832069477 l 7.647089931066047 -36.49121991687174 a58.28387205529099,58.28387205529099 0 0,0 0.9801606419443278,0.21422515244646456 l -8.274093297163903 36.354181266329405" fill="#ff980e" stroke="none" /><path d="M 104.66035177308747 79.52364482259891 l 9.265122630342688 -40.70850248615182 a62.749546967845255,62.749546967845255 0 0,0 1.0511335370057413,0.24876934744674659 l -9.964479854310953 40.54298722656421" fill="#f6ff19" stroke="none" /><path d="M 105.01212808612495 79.60689891045804 l 12.550492082320048 -51.064827027620396 a73.58451683593916,73.58451683593916 0 0,0 1.2274286751446004,0.3128988991338508 l -13.427629646149674 50.841225132317675" fill="#33ff55" stroke="none" /><path d="M 105.36241919743992 79.69619591428918 l 12.208661752391361 -46.225829656809886 a68.81086434320873,68.81086434320873 0 0,0 1.142594935277037,0.31231435758494636 l -13.00255457689211 46.00882875839865" fill="#6fff28" stroke="none" /><path d="M 105.71112130821622 79.79150937346287 l 9.388006142200755 -33.21894666352173 a55.52003877112394,55.52003877112394 0 0,0 0.9174284079026002,0.26782250981015365 l -9.958424767826783 33.05242582479287" fill="#ff4d07" stroke="none" /><path d="M 106.0581310904928 79.89281104454417 l 11.579100572220066 -38.431516198986195 a61.13797463019933,61.13797463019933 0 0,0 1.0050344345326583,0.3122690910662409 l -12.23892037946344 38.22650697303743" fill="#ffe015" stroke="none" /><path d="M 106.40334571778207 80.00007090966166 l 17.82973822180863 -55.688622144078344 a79.4732605672384,79.4732605672384 0 0,0 1.2992635964351076,0.42834678021814354 l -18.785684640486153 55.37346163960097" fill="#42ffd6" stroke="none" /><path d="M 106.74666289553966 80.11325718540242 l 15.266354145269757 -44.999737396729834 a68.51881663786926,68.51881663786926 0 0,0 1.113652627561598,0.388531534613687 l -16.038688776894627 44.730285008943945" fill="#75ff27" stroke="none" /><path d="M 107.08798089147638 80.2323363322302 l 17.852428082092686 -49.78862096034091 a73.89249441611531,73.89249441611531 0 0,0 1.1936019094617865,0.4396136564756593 l -18.70681231732705 49.473944036058924" fill="#34ff5c" stroke="none" /><path d="M 107.4271985657038 80.35727306442388 l 16.768710689831664 -44.348242776625845 a68.41261747229129,68.41261747229129 0 0,0 1.097914467361909,0.4259737562117687 l -17.529608322193237 44.05302631652353" fill="#77ff27" stroke="none" /><path d="M 108.09893153111575 80.62456947434976 l 14.877678176127754 -35.59252461600126 a59.57684689620296,59.57684689620296 0 0,0 0.9427787563451375,0.4036486618514427 l -15.488140690263206 35.33115642618703" fill="#ffb911" stroke="none" /><path d="M 108.43124777332544 80.76684994638697 l 19.091025448218446 -43.54996638630486 a68.55067638754267,68.55067638754267 0 0,0 1.0766304220861254,0.48305268736651374 l -19.83783798877135 43.21489336842182" fill="#74ff27" stroke="none" /><path d="M 108.76106565485865 80.91482961587045 l 25.086945427564622 -54.6495879341924 a81.13262252939441,81.13262252939441 0 0,0 1.264207707905856,0.5935624700364571 l -26.023931346770073 54.20966048151593" fill="#46fff6" stroke="none" /><path d="M 109.08828744355905 81.06846463323043 l 18.93798562662653 -39.449142304576164 a64.7593661764086,64.7593661764086 0 0,0 1.0007750025922564,0.49107594745390315 l -19.614231896229217 39.11731119698742" fill="#c7ff1e" stroke="none" /><path d="M 109.41281617654863 81.2277094730956 l 21.86578672863219 -43.607661444815385 a69.7825867082473,69.7825867082473 0 0,0 1.0691340677288985,0.5476519948832239 l -22.613181283949842 43.22481692461966" fill="#5bff2a" stroke="none" /><path d="M 109.73455568895987 81.39251694778311 l 28.09356096488098 -53.700495043991125 a81.60520881621645,81.60520881621645 0 0,0 1.2390583361972451,0.6618620518889651 l -29.013764347606536 53.208954265600404" fill="#47feff" stroke="none" /><path d="M 110.05341064243156 81.56283822128135 l 20.008528425111578 -36.69406220918568 a62.79468161321589,62.79468161321589 0 0,0 0.9445393931431476,0.5256351496530588 l -20.637191907326763 36.34421166197244" fill="#f5ff19" stroke="none" /><line stroke="#e1ed5e" stroke-width="0.3" x1="143.23703022742887" x2="145.7803849466894" y1="26.81831364943548" y2="22.513508569990506" /><path d="M 143.74570117128098 25.957352633546492 a86.0,86.0 0 0,1 28.547481713284135,27.462654790039103" fill="none" id="id98" stroke="none" /><text fill="#e1ed5e" style="font-size:6.75px; font-family:Arial;" text-anchor="middle"><textPath startOffset="19.985693538727396" xlink:href="#id98">February</textPath></text><line stroke="#e1ed5e" stroke-width="0.3" x1="172.23445277983987" x2="176.4835382374775" y1="55.19839476539836" y2="52.563006222186495" /><path d="M 173.08426987136738 54.67131705675599 a86.0,86.0 0 0,1 12.851231095245387,41.99856678651699" fill="none" id="id99" stroke="none" /><text fill="#e1ed5e" style="font-size:6.75px; font-family:Arial;" text-anchor="middle"><textPath startOffset="22.20632615414155" xlink:href="#id99">March</textPath></text><line stroke="#e1ed5e" stroke-width="0.3" x1="184.98032266829074" x2="189.97916517819016" y1="98.17113171792111" y2="98.06355123074" /><path d="M 185.9800911702706 98.14961562048488 a86.0,86.0 0 0,1 -9.607161424134198,41.387399972396054" fill="none" id="id100" stroke="none" /><text fill="#e1ed5e" style="font-size:6.75px; font-family:Arial;" text-anchor="middle"><textPath startOffset="21.466115282336823" xlink:href="#id100">April</textPath></text><line stroke="#e1ed5e" stroke-width="0.3" x1="174.80103733775053" x2="179.2010983576182" y1="140.37084112569926" y2="142.7455964860345" /><path d="M 175.68104954172406 140.8457921977663 a86.0,86.0 0 0,1 -30.038265399797805,32.042727171017184" fill="none" id="id101" stroke="none" /><text fill="#e1ed5e" style="font-size:6.75px; font-family:Arial;" text-anchor="middle"><textPath startOffset="22.206326154141568" xlink:href="#id101">May</textPath></text><line stroke="#e1ed5e" stroke-width="0.3" x1="143.8653032363475" x2="146.44561519142675" y1="172.8068346515853" y2="177.08958963109032" /><path d="M 144.38136562736335 173.6633856474863 a86.0,86.0 0 0,1 -40.68145358897372,12.25698825130547" fill="none" id="id102" stroke="none" /><text fill="#e1ed5e" style="font-size:6.75px; font-family:Arial;" text-anchor="middle"><textPath startOffset="21.466115282336833" xlink:href="#id102">June</textPath></text><line stroke="#e1ed5e" stroke-width="0.3" x1="102.19456741930631" x2="102.32365962044197" y1="184.97166512339345" y2="189.96999836594603" /><path d="M 102.22038585953345 185.97133177190398 a86.0,86.0 0 0,1 -42.740103519485714,-10.115201625700543" fill="none" id="id103" stroke="none" /><text fill="#e1ed5e" style="font-size:6.75px; font-family:Arial;" text-anchor="middle"><textPath startOffset="22.20632615414155" xlink:href="#id103">July</textPath></text><line stroke="#e1ed5e" stroke-width="0.3" x1="58.666819895761336" x2="56.23545636021788" y1="174.27360380694188" y2="178.64263932499728" /><path d="M 58.180547188652646 175.14741091055294 a86.0,86.0 0 0,1 -31.652253787137756,-30.449443065178592" fill="none" id="id104" stroke="none" /><text fill="#e1ed5e" style="font-size:6.75px; font-family:Arial;" text-anchor="middle"><textPath startOffset="22.20632615414155" xlink:href="#id104">August</textPath></text><line stroke="#e1ed5e" stroke-width="0.3" x1="26.63291911575756" x2="22.317208475507996" y1="142.92168965132927" y2="145.44649492493687" /><path d="M 25.769776987707644 143.4266507060508 a86.0,86.0 0 0,1 -11.730757126820373,-40.83630448921669" fill="none" id="id105" stroke="none" /><text fill="#e1ed5e" style="font-size:6.75px; font-family:Arial;" text-anchor="middle"><textPath startOffset="21.46611528233685" xlink:href="#id105">September</textPath></text><line stroke="#e1ed5e" stroke-width="0.3" x1="15.007084014347285" x2="10.007500721073583" y1="101.09737516637583" y2="101.16192664675087" /><path d="M 14.007167355692545 101.11028546245083 a86.0,86.0 0 0,1 10.666146001902534,-42.60595125391555" fill="none" id="id106" stroke="none" /><text fill="#e1ed5e" style="font-size:6.75px; font-family:Arial;" text-anchor="middle"><textPath startOffset="22.20632615414155" xlink:href="#id106">October</textPath></text><line stroke="#e1ed5e" stroke-width="0.3" x1="26.266209847984243" x2="21.928928074336255" y1="57.711370442889674" y2="55.22380399835377" /><path d="M 25.398753493254645 57.213857153982495 a86.0,86.0 0 0,1 29.58750427330803,-30.492523968695096" fill="none" id="id107" stroke="none" /><text fill="#e1ed5e" style="font-size:6.75px; font-family:Arial;" text-anchor="middle"><textPath startOffset="21.46611528233685" xlink:href="#id107">November</textPath></text><line stroke="#e1ed5e" stroke-width="0.3" x1="56.762969772571076" x2="54.21961505331055" y1="26.818313649435495" y2="22.513508569990535" /><path d="M 56.25429882871897 25.957352633546506 a86.0,86.0 0 0,1 42.265352541879196,-11.944610805530505" fill="none" id="id108" stroke="none" /><text fill="#e1ed5e" style="font-size:6.75px; font-family:Arial;" text-anchor="middle"><textPath startOffset="22.20632615414155" xlink:href="#id108">December</textPath></text></svg>