<?xml version="1.0" encoding="utf-8" ?>
<svg baseProfile="full" height="200mm" version="1.1" viewBox="0,0,200,200" width="200mm" xmlns="http://www.w3.org/2000/svg" xmlns:ev="http://www.w3.org/2001/xml-events" xmlns:xlink="http://www.w3.org/1999/xlink"><defs /><rect fill="#1a1a1a" height="200" width="200" x="0" y="0" /><text alignment-baseline="middle" fill="#e1ed5e" style="dominant-baseline: central; font-size:9.0px; font-family:Arial;" text-anchor="middle" x="100.0" y="100.0">2026</text><line stroke="#e1ed5e" stroke-width="0.3" x1="100.0" x2="100.0" y1="15.0" y2="10.0" /><path d="M 100.0 14.0 a86.0,86.0 0 0,1 42.46469731375804,11.215312516191453" fill="none" id="id109" stroke="none" /><text fill="#e1ed5e" style="font-size:6.75px; font-family:Arial;" text-anchor="middle"><textPath startOffset="22.20632615414155" xlink:href="#id109">January</textPath></text><path d="M 100.0 79.0 l 0.0 -30.107428196828778 a51.10742819682878,51.10742819682878 0 0,0 0.8797303637607617,0.007572116981676907 l -0.5182498844882334 30.10296745645566" fill="#acff21" stroke="none" /><path d="M 101.08401301168833 79.027996857942 l 1.347743468664004 -26.074299805209566 a47.109108042774615,47.109108042774615 0 0,0 0.8094644774832453,0.048829107833391686 l -1.7963699949868612 26.04723742799587" fill="#ddff1b" stroke="none" /><path d="M 101.44485096284872 79.0497635885617 l 2.0881580228428582 -30.278143121935287 a51.35006350637112,51.35006350637112 0 0,0 0.8812888887887129,0.06840497919982992 l -2.6090371009939126 30.237712880546994" fill="#a9ff21" stroke="none" /><path d="M 102.16513564639614 79.11191278185805 l 0.6198141009288225 -5.979639668667093 a27.01167697791617,27.01167697791617 0 0,0 0.4620711316432042,0.051919075541605186 l -0.7226519360817519 5.968084639654887" fill="#ff0000" stroke="none" /><path d="M 102.52436894288641 79.15227682838746 l 3.1760692218689623 -26.229847304211 a47.42143647314295,47.42143647314295 0 0,0 0.8095184061248847,0.10509872244883048 l -3.627102356501693 26.171290258598034" fill="#d9ff1c" stroke="none" /><path d="M 102.88285421437855 79.19881850522331 l 4.6100626864094405 -33.26382241738574 a54.58175933133937,54.58175933133937 0 0,0 0.9295300114126014,0.13698856099809942 l -5.181961678250698 33.17953937222667" fill="#82ff25" stroke="none" /><path d="M 103.95276090670814 79.375362276772 l 6.352078841435089 -33.14375141477646 a54.74695783996395,54.74695783996395 0 0,0 0.9240076589509683,0.18534724377282386 l -6.921652909853183 33.02950021492643" fill="#80ff25" stroke="none" /><path d="M 104.66035177308747 79.52364482259891 l 7.419863545311026 -32.60092128645999 a54.43462940959561,54.43462940959561 0 0,0 0.9118482492985204,0.2158050199736061 l -7.9799354815720696 32.46837035434552" fill="#84ff25" stroke="none" /><path d="M 105.01212808612495 79.60689891045804 l 8.822717210807815 -35.89743934567916 a57.9657475314459,57.9657475314459 0 0,0 0.9668993390949262,0.2464841704471411 l -9.439325438587765 35.74025217906315" fill="#5cff2a" stroke="none" /><path d="M 105.71112130821622 79.79150937346287 l 7.594080834877251 -26.871240004655863 a48.92371041094768,48.92371041094768 0 0,0 0.8084288618030978,0.2360025533393535 l -8.055499914403775 26.736539122397808" fill="#c6ff1e" stroke="none" /><path d="M 106.0581310904928 79.89281104454417 l 18.174393271478365 -60.321566866367476 a84.0,84.0 0 0,0 1.380858509157127,0.4290394604699177 l -19.21003715334621 59.99978727101504" fill="#4dd2ff" stroke="none" /><path d="M 106.40334571778207 80.00007090966166 l 8.671159065776836 -27.083117809020884 a49.43737452370222,49.43737452370222 0 0,0 0.8082238046296217,0.2664586811780557 l -9.136065692648874 26.92984540358359" fill="#c0ff1e" stroke="none" /><path d="M 106.74666289553966 80.11325718540242 l 8.781138206359165 -25.8836464535306 a48.33260949727537,48.33260949727537 0 0,0 0.7855614005715437,0.27406694775697205 l -9.225381610993983 25.72865865260142" fill="#ceff1d" stroke="none" /><path d="M 107.76421540070413 80.48803036053334 l 11.303236842619713 -28.405756759516912 a51.57204900233539,51.57204900233539 0 0,0 0.8219998418790364,0.33531437468932845 l -11.790520554087136 28.206981498644005" fill="#a6ff21" stroke="none" /><path d="M 109.08828744355905 81.06846463323043 l 12.203112062126328 -25.419931865439096 a49.197320440857126,49.197320440857126 0 0,0 0.7602830509120546,0.37306759120950717 l -12.638866380048816 25.206109114094758" fill="#c3ff1e" stroke="none" /><path d="M 109.73455568895987 81.39251694778311 l 13.874942570063338 -26.521781473369174 a50.93190478141517,50.93190478141517 0 0,0 0.7733281013953629,0.41308508971723956 l -14.329415717987013 26.27901765715018" fill="#aeff20" stroke="none" /><path d="M 110.36928655335952 81.73862282372117 l 24.72110648448739 -43.536404110841666 a71.06547302003523,71.06547302003523 0 0,0 1.0585481985506702,0.6131794411590469 l -25.46685141550339 43.10442051229256" fill="#3cffa0" stroke="none" /><line stroke="#e1ed5e" stroke-width="0.3" x1="143.23703022742887" x2="145.7803849466894" y1="26.81831364943548" y2="22.513508569990506" /><path d="M 143.74570117128098 25.957352633546492 a86.0,86.0 0 0,1 28.547481713284135,27.462654790039103" fill="none" id="id110" stroke="none" /><text fill="#e1ed5e" style="font-size:6.75px; font-family:Arial;" text-anchor="middle"><textPath startOffset="19.985693538727396" xlink:href="#id110">February</textPath></text><path d="M 111.2981086023043 82.29822771554956 l 15.011990903131402 -23.5206487968504 a48.9030605973696,48.9030605973696 0 0,0 0.7056780905272613,0.45899265979206394 l -15.414636019442945 23.258757212898807" fill="#c7ff1e" stroke="none" /><path d="M 112.48926042617603 83.11751280151076 l 36.89057450339282 -49.86721635599154 a83.02945876183063,83.02945876183063 0 0,0 1.1416702651827773,0.8598823744288824 l -37.74349092233398 49.224817392056806" fill="#4cdcff" stroke="none" /><path d="M 113.34407831869373 83.78471172551755 l 19.15091471082902 -23.271566258801627 a51.13840291719589,51.13840291719589 0 0,0 0.6748868066880346,0.5651982918956999 l -19.548659054476172 22.938466809512107" fill="#abff21" stroke="none" /><path d="M 113.89432698308785 84.25364557470407 l 18.654615516401257 -21.14115983785482 a49.19473921415987,49.19473921415987 0 0,0 0.6301354436518897,0.5657418230264534 l -19.01576194764914 20.816919006059067" fill="#c3ff1e" stroke="none" /><path d="M 114.16331599549186 84.49514656593476 l 15.086568986389036 -16.515556175639283 a43.368910558446345,43.368910558446345 0 0,0 0.5468450287753819,0.5082328569225117 l -15.368621898959264 16.25341873264213" fill="#fff016" stroke="none" /><path d="M 114.42810811169701 84.74124197986012 l 42.50401119921034 -44.951037014220404 a82.86426025320606,82.86426025320606 0 0,0 1.0279775381724598,0.9889135772563703 l -43.271471980995216 44.212740350201734" fill="#4bddff" stroke="none" /><path d="M 116.15771136456269 86.58626213691792 l 40.2370507124235 -33.40381805703807 a73.295652886467,73.295652886467 0 0,0 0.797531771847706,0.9776796510671001 l -40.80608097634762 32.706254236362874" fill="#3fffba" stroke="none" /><path d="M 117.04232023915458 87.72973835380427 l 24.515049833100264 -17.650535343806535 a51.20809603802188,51.20809603802188 0 0,0 0.5088801622383785,0.719774900899455 l -24.815242615142527 17.22593394257529" fill="#aaff21" stroke="none" /><path d="M 117.65298651832404 88.62581576622439 l 23.55129868519963 -15.174588725373926 a49.016634572049,49.016634572049 0 0,0 0.4508886249626808,0.7131975235534637 l -23.809014906408265 14.766943554106255" fill="#c5ff1e" stroke="none" /><line stroke="#e1ed5e" stroke-width="0.3" x1="172.23445277983987" x2="176.4835382374775" y1="55.19839476539836" y2="52.563006222186495" /><path d="M 173.08426987136738 54.67131705675599 a86.0,86.0 0 0,1 12.851231095245387,41.99856678651699" fill="none" id="id111" stroke="none" /><text fill="#e1ed5e" style="font-size:6.75px; font-family:Arial;" text-anchor="middle"><textPath startOffset="22.20632615414155" xlink:href="#id111">March</textPath></text><path d="M 118.21658344932153 89.55222093294921 l 32.11991103951949 -18.42177130128778 a58.02769697218011,58.02769697218011 0 0,0 0.4894839577152347,0.8707373426876563 l -32.43225263852715 17.86615044866533" fill="#5bff2a" stroke="none" /><path d="M 118.3937258080291 89.86733742301442 l 18.557262436879114 -10.222750985196587 a42.18670873110173,42.18670873110173 0 0,0 0.34491029570284965,0.6390663951418124 l -18.730480831800428 9.901803606722316" fill="#ffe015" stroke="none" /><path d="M 118.56541770881063 90.18545643968196 l 25.348218942451165 -13.400247863483369 a49.67226615315278,49.67226615315278 0 0,0 0.3930981937244775,0.759340589633631 l -25.575126569335758 12.961934551589392" fill="#bdff1f" stroke="none" /><path d="M 118.73160827565052 90.50648371742162 l 34.83310135645307 -17.654042836783933 a60.05137870283116,60.05137870283116 0 0,0 0.45936441414060863,0.9260506281109638 l -35.13182578354709 17.05183262017402" fill="#45ff2d" stroke="none" /><path d="M 119.34039704204932 91.81776055985345 l 32.014232838769 -13.5440920892105 a55.761379931986724,55.761379931986724 0 0,0 0.3663743399958749,0.8872045248519823 l -32.242628865651064 12.991012993905214" fill="#74ff27" stroke="none" /><path d="M 119.47837535516314 92.15188598940014 l 31.038348601344055 -12.5057913754353 a54.463022903265454,54.463022903265454 0 0,0 0.34287442479773195,0.8725780120089214 l -31.24901657602349 11.969664358530594" fill="#83ff25" stroke="none" /><path d="M 119.61058180528143 92.48833698450437 l 26.45222986001865 -10.132296873689814 a49.32638177572008,49.32638177572008 0 0,0 0.2968870629651463,0.7955097257854449 l -26.622721511485423 9.675464010875036" fill="#c1ff1e" stroke="none" /><path d="M 119.7369772167798 92.82701384747503 l 31.61539153796957 -11.489944139759748 a54.63854631867907,54.63854631867907 0 0,0 0.31364325846415636,0.8867117273335804 l -31.808487877243532 10.944034785999552" fill="#81ff25" stroke="none" /><path d="M 120.18372546131832 94.20196356495316 l 27.198039361547835 -7.81298890942171 a49.29798828205023,49.29798828205023 0 0,0 0.22727130715080343,0.8176158134677646 l -27.328497439265 7.343661792534993" fill="#c2ff1e" stroke="none" /><path d="M 120.28053869075195 94.5502522615342 l 20.246470510052934 -5.44059300182151 a41.964723235137456,41.964723235137456 0 0,0 0.18145480008561995,0.6992193648013241 l -20.337121642008857 5.091277211471335" fill="#ffdd14" stroke="none" /><path d="M 120.37134235888165 94.90015583598534 l 27.400778395531024 -6.859621586448022 a49.246363748105054,49.246363748105054 0 0,0 0.19878458820304581,0.824090452769379 l -27.51479578399489 6.386945902019238" fill="#c2ff1e" stroke="none" /><path d="M 120.45610955862082 95.25157060432595 l 30.38118225879651 -7.052313564296668 a52.18896218298029,52.18896218298029 0 0,0 0.19559829811137822,0.876828817461277 l -30.498074943909927 6.528306577285427" fill="#9eff22" stroke="none" /><path d="M 120.6074358757038 95.95851677861258 l 59.58315820512726 -11.685312797561746 a81.71819559962306,81.71819559962306 0 0,0 0.2588298392238786,1.3826793507975432 l -59.775473768261 10.65795536930164" fill="#4ae9ff" stroke="none" /><path d="M 120.78858239683441 97.02765380044208 l 26.64093416676309 -3.8091139603299204 a47.91186954562215,47.91186954562215 0 0,0 0.10970449430345357,0.8174259074089057 l -26.702554660124378 3.3499697108563504" fill="#d3ff1c" stroke="none" /><path d="M 120.83666639777658 97.38593545837742 l 33.013229385095265 -4.141675577684477 a54.27201212766829,54.27201212766829 0 0,0 0.1083105176216914,0.9279383708642301 l -33.07963025572055 3.5727934684953944" fill="#86ff25" stroke="none" /><path d="M 120.98425023603335 99.18683210126433 l 28.431522557274022 -1.1017597100540752 a49.452861883885774,49.452861883885774 0 0,0 0.025640850963549164,0.8508950139960156 l -28.446275102693214 0.6121945486330606" fill="#c0ff1e" stroke="none" /><line stroke="#e1ed5e" stroke-width="0.3" x1="184.98032266829074" x2="189.97916517819016" y1="98.17113171792111" y2="98.06355123074" /><path d="M 185.9800911702706 98.14961562048488 a86.0,86.0 0 0,1 -9.607161424134198,41.387399972396054" fill="none" id="id112" stroke="none" /><text fill="#e1ed5e" style="font-size:6.75px; font-family:Arial;" text-anchor="middle"><textPath startOffset="21.466115282336823" xlink:href="#id112">April</textPath></text><path d="M 120.99513854157772 99.54816195383933 l 22.931470612585674 -0.4935100026447769 a43.936780431843324,43.936780431843324 0 0,0 0.009764411502186068,0.7562644316033298 l -22.936568031205578 0.09870931298098436" fill="#fff717" stroke="none" /><path d="M 120.99980553446 99.90962569577887 l 24.023254407655898 -0.10338595272496302 a45.023476871389356,45.023476871389356 0 0,0 -0.0033353878573723246,0.7750266736820415 l -24.02147472250902 -0.3101501991607632" fill="#f9ff18" stroke="none" /><line stroke="#e1ed5e" stroke-width="0.3" x1="174.80103733775053" x2="179.2010983576182" y1="140.37084112569926" y2="142.7455964860345" /><path d="M 175.68104954172406 140.8457921977663 a86.0,86.0 0 0,1 -30.038265399797805,32.042727171017184" fill="none" id="id113" stroke="none" /><text fill="#e1ed5e" style="font-size:6.75px; font-family:Arial;" text-anchor="middle"><textPath startOffset="22.206326154141568" xlink:href="#id113">May</textPath></text><line stroke="#e1ed5e" stroke-width="0.3" x1="143.8653032363475" x2="146.44561519142675" y1="172.8068346515853" y2="177.08958963109032" /><path d="M 144.38136562736335 173.6633856474863 a86.0,86.0 0 0,1 -40.68145358897372,12.25698825130547" fill="none" id="id114" stroke="none" /><text fill="#e1ed5e" style="font-size:6.75px; font-family:Arial;" text-anchor="middle"><textPath startOffset="21.466115282336833" xlink:href="#id114">June</textPath></text><line stroke="#e1ed5e" stroke-width="0.3" x1="102.19456741930631" x2="102.32365962044197" y1="184.97166512339345" y2="189.96999836594603" /><path d="M 102.22038585953345 185.97133177190398 a86.0,86.0 0 0,1 -42.740103519485714,-10.115201625700543" fill="none" id="id115" stroke="none" /><text fill="#e1ed5e" style="font-size:6.75px; font-family:Arial;" text-anchor="middle"><textPath startOffset="22.20632615414155" xlink:href="#id115">July</textPath></text><line stroke="#e1ed5e" stroke-width="0.3" x1="58.666819895761336" x2="56.23545636021788" y1="174.27360380694188" y2="178.64263932499728" /><path d="M 58.180547188652646 175.14741091055294 a86.0,86.0 0 0,1 -31.652253787137756,-30.449443065178592" fill="none" id="id116" stroke="none" /><text fill="#e1ed5e" style="font-size:6.75px; font-family:Arial;" text-anchor="middle"><textPath startOffset="22.20632615414155" xlink:href="#id116">August</textPath></text><line stroke="#e1ed5e" stroke-width="0.3" x1="26.63291911575756" x2="22.317208475507996" y1="142.92168965132927" y2="145.44649492493687" /><path d="M 25.769776987707644 143.4266507060508 a86.0,86.0 0 0,1 -11.730757126820373,-40.83630448921669" fill="none" id="id117" stroke="none" /><text fill="#e1ed5e" style="font-size:6.75px; font-family:Arial;" text-anchor="middle"><textPath startOffset="21.46611528233685" xlink:href="#id117">September</textPath></text><line stroke="#e1ed5e" stroke-width="0.3" x1="15.007084014347285" x2="10.007500721073583" y1="101.09737516637583" y2="101.16192664675087" /><path d="M 14.007167355692545 101.11028546245083 a86.0,86.0 0 0,1 10.666146001902534,-42.60595125391555" fill="none" id="id118" stroke="none" /><text fill="#e1ed5e" style="font-size:6.75px; font-family:Arial;" text-anchor="middle"><textPath startOffset="22.20632615414155" xlink:href="#id118">October</textPath></text><line stroke="#e1ed5e" stroke-width="0.3" x1="26.266209847984243" x2="21.928928074336255" y1="57.711370442889674" y2="55.22380399835377" /><path d="M 25.398753493254645 57.213857153982495 a86.0,86.0 0 0,1 29.58750427330803,-30.492523968695096" fill="none" id="id119" stroke="none" /><text fill="#e1ed5e" style="font-size:6.75px; font-family:Arial;" text-anchor="middle"><textPath startOffset="21.46611528233685" xlink:href="#id119">November</textPath></text><line stroke="#e1ed5e" stroke-width="0.3" x1="56.762969772571076" x2="54.21961505331055" y1="26.818313649435495" y2="22.513508569990535" /><path d="M 56.25429882871897 25.957352633546506 a86.0,86.0 0 0,1 42.265352541879196,-11.944610805530505" fill="none" id="id120" stroke="none" /><text fill="#e1ed5e" style="font-size:6.75px; font-family:Arial;" text-anchor="middle"><textPath startOffset="22.20632615414155" xlink:href="#id120">December</textPath></text></svg>