<?xml version="1.0" encoding="utf-8" ?>
<svg baseProfile="full" height="200mm" version="1.1" viewBox="0,0,200,200" width="200mm" xmlns="http://www.w3.org/2000/svg" xmlns:ev="http://www.w3.org/2001/xml-events" xmlns:xlink="http://www.w3.org/1999/xlink"><defs /><rect fill="#1a1a1a" height="200" width="200" x="0" y="0" /><text alignment-baseline="middle" fill="#e1ed5e" style="dominant-baseline: central; font-size:9.0px; font-family:Arial;" text-anchor="middle" x="100.0" y="100.0">2023</text><line stroke="#e1ed5e" stroke-width="0.3" x1="100.0" x2="100.0" y1="15.0" y2="10.0" /><path d="M 100.0 14.0 a86.0,86.0 0 0,1 42.46469731375804,11.215312516191453" fill="none" id="id73" stroke="none" /><text fill="#e1ed5e" style="font-size:6.75px; font-family:Arial;" text-anchor="middle"><textPath startOffset="22.20632615414155" xlink:href="#id73">January</textPath></text><path d="M 100.0 79.0 l 0.0 -8.693883399504465 a29.693883399504465,29.693883399504465 0 0,0 0.5111313906054975,0.004399469248880605 l -0.14965091133296915 8.692595306864144" fill="#ff6f0a" stroke="none" /><path d="M 100.36148047927253 79.00311137660856 l 0.09400283731259751 -5.460231515979946 a26.46104062807845,26.46104062807845 0 0,0 0.4553483470482866,0.011760304395777264 l -0.18797781955575188 5.457804419441809" fill="#ff4306" stroke="none" /><path d="M 100.72285384407766 79.0124445844662 l 0.25447372707268434 -7.388466551699757 a28.392847547687992,28.392847547687992 0 0,0 0.4883017707818859,0.021027301419928077 l -0.38161633024390185 7.382991523755635" fill="#ff5e08" stroke="none" /><path d="M 101.08401301168833 79.027996857942 l 0.26784010560745986 -5.18180453168196 a26.18872205140452,26.18872205140452 0 0,0 0.4499945146922706,0.027144898007952972 l -0.3569966691393423 5.176426364293703" fill="#ff3f05" stroke="none" /><path d="M 101.44485096284872 79.0497635885617 l 0.7246036053571284 -10.506700848149597 a31.531657661422727,31.531657661422727 0 0,0 0.5411580365164214,0.042004278849590224 l -0.9053518312358909 10.492671307111543" fill="#ff880c" stroke="none" /><path d="M 101.80526077348638 79.07773832637324 l 0.4931580760717788 -5.715507956288044 a26.736744380429265,26.736744380429265 0 0,0 0.4581848802822671,0.043510175268478044 l -0.5914680834442901 5.706172236504388" fill="#ff4706" stroke="none" /><path d="M 102.16513564639614 79.11191278185805 l 0.6431614322006002 -6.204882411646033 a27.23812651123914,27.23812651123914 0 0,0 0.4659448560405516,0.05235433361301514 l -0.7498729917508771 6.192892124562417" fill="#ff4e07" stroke="none" /><path d="M 102.52436894288641 79.15227682838746 l 0.9598012582989218 -7.926603196877359 a28.98450102988149,28.98450102988149 0 0,0 0.4947865105124609,0.06423748953245197 l -1.0961024973192288 7.90890738418077" fill="#ff6609" stroke="none" /><path d="M 103.2404852339499 79.25152402106235 l 1.1370089686213676 -7.280145277663011 a28.36839905668826,28.36839905668826 0 0,0 0.48181806724372317,0.0795041094717205 l -1.2621562420039658 7.259494905251666" fill="#ff5d08" stroke="none" /><path d="M 103.59715602781102 79.31037775812273 l 1.22440108336107 -7.042340029576447 a28.147986507059912,28.147986507059912 0 0,0 0.47664577776382,0.08710396924319977 l -1.3454419822277908 7.020220578982509" fill="#ff5a08" stroke="none" /><path d="M 103.95276090670814 79.375362276772 l 1.2701838877683016 -6.627540381368409 a27.748159646556616,27.748159646556616 0 0,0 0.4683276121051659,0.09394211319086784 l -1.3840779093405928 6.6046943121003325" fill="#ff5507" stroke="none" /><path d="M 104.307194497241 79.44645832069477 l 1.7085543424650849 -8.153066436100884 a29.33016507955461,29.33016507955461 0 0,0 0.49324577141061093,0.10780442108387968 l -1.848642838029224 8.122448516921134" fill="#ff6a09" stroke="none" /><path d="M 104.66035177308747 79.52364482259891 l 1.8689264073452088 -8.2115691648469 a29.421564822830533,29.421564822830533 0 0,0 0.49284807605563996,0.1166412163196696 l -2.0099981703633722 8.17818203638636" fill="#ff6c09" stroke="none" /><path d="M 105.01212808612495 79.60689891045804 l 1.9204953487531764 -7.814017342760759 a29.04656258395773,29.04656258395773 0 0,0 0.48451203273402493,0.12351290525432825 l -2.0547162701722264 7.779801441337563" fill="#ff6709" stroke="none" /><path d="M 105.36241919743992 79.69619591428918 l 2.047896990259067 -7.753981504800616 a29.01985730917341,29.01985730917341 0 0,0 0.48187073800645197,0.13171347546974688 l -2.18106561748923 7.7175814885045755" fill="#ff6609" stroke="none" /><path d="M 105.71112130821622 79.79150937346287 l 1.783457416796019 -6.310666600322542 a27.557837547389475,27.557837547389475 0 0,0 0.4553732955872756,0.13293595213987863 l -1.8918209301067217 6.27903231926396" fill="#ff5207" stroke="none" /><path d="M 106.0581310904928 79.89281104454417 l 2.6403027641116634 -8.763274644373382 a30.152386638407116,30.152386638407116 0 0,0 0.49566880548857295,0.15400671065741123 l -2.790756942310954 8.71652779883345" fill="#ff760a" stroke="none" /><path d="M 106.40334571778207 80.00007090966166 l 2.756005807904173 -8.60798763021279 a30.038419057285292,30.038419057285292 0 0,0 0.49108120262127475,0.16190175153497652 l -2.9037698327678654 8.559272154418577" fill="#ff740a" stroke="none" /><path d="M 106.74666289553966 80.11325718540242 l 3.0087792370406605 -8.868802221093139 a30.36527657542016,30.36527657542016 0 0,0 0.49353406413270623,0.17218434418052317 l -3.16099530523664 8.815697023740409" fill="#ff780b" stroke="none" /><path d="M 107.08798089147638 80.2323363322302 l 3.0744135630714378 -8.57422927924501 a30.108755485238365,30.108755485238365 0 0,0 0.48635342902784473,0.17912807241638465 l -3.2215493178718586 8.5200379390223" fill="#ff750a" stroke="none" /><path d="M 107.4271985657038 80.35727306442388 l 2.4491862943939715 -6.477367902520528 a27.92494104301621,27.92494104301621 0 0,0 0.44815120228039146,0.17387570403812827 l -2.56032066167403 6.434249494591853" fill="#ff5708" stroke="none" /><path d="M 108.43124777332544 80.76684994638697 l 2.2348255613142443 -5.098027779517347 a26.56635720469268,26.56635720469268 0 0,0 0.4172409358717395,0.18720384564429482 l -2.322248615652764 5.0588036033565205" fill="#ff4406" stroke="none" /><path d="M 108.76106565485865 80.91482961587045 l 2.0623902666074914 -4.492726248997548 a25.943484880145675,25.943484880145675 0 0,0 0.4042511203620525,0.1898013214257144 l -2.139419598269142 4.456559944931831" fill="#ff3c05" stroke="none" /><path d="M 109.08828744355905 81.06846463323043 l 2.138768477642719 -4.455203615343478 a25.941980357622615,25.941980357622615 0 0,0 0.40090085793807295,0.19672030989690226 l -2.215140602591224 4.417728145311743" fill="#ff3c05" stroke="none" /><path d="M 109.41281617654863 81.2277094730956 l 2.302808850810072 -4.592567831403693 a26.137568285620468,26.137568285620468 0 0,0 0.400451832182435,0.2051269820773897 l -2.3815211705812627 4.552248324013803" fill="#ff3e05" stroke="none" /><path d="M 109.73455568895987 81.39251694778311 l 3.537323486986796 -6.7615501865138015 a28.630938236962297,28.630938236962297 0 0,0 0.43471983235225764,0.23221227914138293 l -3.6531883658673645 6.699659180870665" fill="#ff6108" stroke="none" /><path d="M 110.05341064243156 81.56283822128135 l 3.176912575857547 -5.826206966093314 a27.636072718588615,27.636072718588615 0 0,0 0.4156937925931266,0.2313331455159551 l -3.2767304575227088 5.770658423017179" fill="#ff5307" stroke="none" /><line stroke="#e1ed5e" stroke-width="0.3" x1="143.23703022742887" x2="145.7803849466894" y1="26.81831364943548" y2="22.513508569990506" /><path d="M 143.74570117128098 25.957352633546492 a86.0,86.0 0 0,1 28.547481713284135,27.462654790039103" fill="none" id="id74" stroke="none" /><text fill="#e1ed5e" style="font-size:6.75px; font-family:Arial;" text-anchor="middle"><textPath startOffset="19.985693538727396" xlink:href="#id74">February</textPath></text><path d="M 110.68208982089419 81.91981866633111 l 4.540374462634229 -7.684900144409614 a29.925955998686526,29.925955998686526 0 0,0 0.44124815151881863,0.26584707413082304 l -4.671984680370684 7.6056064608201766" fill="#ff730a" stroke="none" /><path d="M 110.99172775467656 82.1063720568725 l 3.788026515318039 -6.166595335748223 a28.23712946655124,28.23712946655124 0 0,0 0.4119674124064815,0.2579739558549757 l -3.8936130800967836 6.100477038570303" fill="#ff5c08" stroke="none" /><path d="M 111.2981086023043 82.29822771554956 l 3.475132135777873 -5.444804957297843 a27.45929132212902,27.45929132212902 0 0,0 0.3962414628190792,0.2577264695908841 l -3.5683406243812326 5.3841795635474305" fill="#ff5107" stroke="none" /><path d="M 112.19680574252982 82.90503203632743 l 4.9600610355677395 -6.951991061497699 a29.540045971521536,29.540045971521536 0 0,0 0.411386895214089,0.29889007483711894 l -5.0789932471356165 6.865581751843905" fill="#ff6d0a" stroke="none" /><path d="M 112.48926042617603 83.11751280151076 l 3.7896157057795414 -5.122652299404871 a27.372029015791515,27.372029015791515 0 0,0 0.37637041227366397,0.283474391547583 l -3.8772322718115886 5.056661318351441" fill="#ff5007" stroke="none" /><path d="M 112.77801427241765 83.33499621200491 l 4.57710691245853 -5.969433310059055 a28.522236484671183,28.522236484671183 0 0,0 0.3870432786750104,0.30209341818460433 l -4.6791827462929705 5.889761502651227" fill="#ff5f08" stroke="none" /><path d="M 113.06298171725822 83.55741782278167 l 4.515871102865176 -5.684198548060971 a28.259697304397147,28.259697304397147 0 0,0 0.3782716604696309,0.30586937573575157 l -4.613046161899298 5.60562307506109" fill="#ff5c08" stroke="none" /><path d="M 113.34407831869373 83.78471172551755 l 5.994020242177736 -7.283737687138339 a30.43298008895788,30.43298008895788 0 0,0 0.40163195521561557,0.336355212176384 l -6.118509734352469 7.179481317568135" fill="#ff790b" stroke="none" /><path d="M 113.6212207817346 84.01681056812373 l 2.666586043959986 -3.128981650026705 a25.111107794262516,25.111107794262516 0 0,0 0.3265713934029842,0.2831994942711194 l -2.7200512360097346 3.082617162335914" fill="#ff3004" stroke="none" /><path d="M 113.89432698308785 84.25364557470407 l 3.9073672878855286 -4.428195065492788 a26.905627033642794,26.905627033642794 0 0,0 0.34463419256620037,0.30941598087182487 l -3.9830124680477192 4.360280075851666" fill="#ff4906" stroke="none" /><path d="M 114.16331599549186 84.49514656593476 l 5.919597219405997 -6.480296514234676 a29.77700826890355,29.77700826890355 0 0,0 0.37546271589434843,0.34895167501879387 l -6.030267819095192 6.377440253141241" fill="#ff710a" stroke="none" /><path d="M 114.42810811169701 84.74124197986012 l 5.486807213843115 -5.802691727220691 a28.98600555240455,28.98600555240455 0 0,0 0.35958762605451755,0.34592301136354314 l -5.585878083510051 5.707385629094846" fill="#ff6609" stroke="none" /><path d="M 114.68862486808459 84.99185889309783 l 4.329897395365882 -4.4240840563132515 a27.190357921131973,27.190357921131973 0 0,0 0.33167601333480357,0.330251691127254 l -4.405409208868008 4.348896514535879" fill="#ff4d07" stroke="none" /><path d="M 114.94478906791727 85.2469230424477 l 6.85491095089931 -6.766975989837729 a30.63232932326338,30.63232932326338 0 0,0 0.3672024750800262,0.3784344285787932 l -6.9703776896824445 6.6479773657088215" fill="#ff7c0b" stroke="none" /><path d="M 115.19652480421416 85.50635884689758 l 6.013104139968939 -5.734980513227352 a29.309477894862532,29.309477894862532 0 0,0 0.3450600338854468,0.368085985533898 l -6.110931495824849 5.6306251108154" fill="#ff6a09" stroke="none" /><path d="M 115.4437574822437 85.77008943001954 l 4.915410677204761 -4.529069718413438 a27.683841308695783,27.683841308695783 0 0,0 0.3198885783681677,0.35322895792081693 l -4.992642896188965 4.443787973223072" fill="#ff5407" stroke="none" /><path d="M 115.9244219780498 86.31012108654704 l 5.1388455317207695 -4.417753635338644 a27.77674557449476,27.77674557449476 0 0,0 0.3085723778284912,0.3652523666107642 l -5.214128523036378 4.3286423190987735" fill="#ff5507" stroke="none" /><path d="M 116.15771136456269 86.58626213691792 l 8.355570778548389 -6.9365910549492025 a31.859643571449894,31.859643571449894 0 0,0 0.3466655522849737,0.42497097690507707 l -8.47373482290977 6.791735908436024" fill="#ff8c0c" stroke="none" /><path d="M 116.38621287248628 86.86637796730983 l 6.457730233738006 -5.17589932091015 a29.27600226872444,29.27600226872444 0 0,0 0.31178373542486054,0.3959336818555165 l -6.54586804975683 5.063973245101596" fill="#ff6a09" stroke="none" /><path d="M 116.60985879189232 87.15038557335679 l 6.150194527683633 -4.757874785074094 a28.77574852980686,28.77574852980686 0 0,0 0.2997118353109216,0.3943856434427324 l -6.231182303218668 4.651304365750328" fill="#ff6309" stroke="none" /><path d="M 116.82858285166822 87.43820079747576 l 6.717065623142649 -5.013994959161517 a29.382071106600197,29.382071106600197 0 0,0 0.29904986272683753,0.40790367668041105 l -6.802378098383113 4.897628838809612" fill="#ff6b09" stroke="none" /><path d="M 117.04232023915458 87.72973835380427 l 7.475137413116626 -5.38200729789583 a30.21106301680647,30.21106301680647 0 0,0 0.3002222663770069,0.42464310473178574 l -7.566672299297516 5.252537692832251" fill="#ff760a" stroke="none" /><path d="M 117.45458315368197 88.32363383020206 l 5.267481504935443 -3.523718802261418 a27.337424997761126,27.337424997761126 0 0,0 0.2582779571526752,0.39337504817564706 l -5.327356097446043 3.432525690108097" fill="#ff4f07" stroke="none" /><path d="M 117.65298651832404 88.62581576622439 l 5.159463279608557 -3.324348875967948 a27.137699632824862,27.137699632824862 0 0,0 0.24963117478228689,0.39485656944928377 l -5.2159220506368 3.235044658804458" fill="#ff4c07" stroke="none" /><line stroke="#e1ed5e" stroke-width="0.3" x1="172.23445277983987" x2="176.4835382374775" y1="55.19839476539836" y2="52.563006222186495" /><path d="M 173.08426987136738 54.67131705675599 a86.0,86.0 0 0,1 12.851231095245387,41.99856678651699" fill="none" id="id75" stroke="none" /><text fill="#e1ed5e" style="font-size:6.75px; font-family:Arial;" text-anchor="middle"><textPath startOffset="22.20632615414155" xlink:href="#id75">March</textPath></text><path d="M 117.84615892207809 88.93136811851018 l 6.699381680309883 -4.155123238379864 a28.88332189020568,28.88332189020568 0 0,0 0.2584152321992061,0.42476669602518424 l -6.769912710795313 4.039188769147598" fill="#ff6409" stroke="none" /><path d="M 118.03404312379186 89.2402003453031 l 5.256622904503217 -3.1363022104636684 a27.121149885071198,27.121149885071198 0 0,0 0.23574778708380675,0.4029693868941905 l -5.309830366057351 3.0453534112155825" fill="#ff4c07" stroke="none" /><path d="M 118.21658344932153 89.55222093294921 l 10.714607311721602 -6.145161648697831 a33.35175378369504,33.35175378369504 0 0,0 0.28133373010846485,0.500461313801759 l -10.8187986831225 5.959816824961279" fill="#ffa00e" stroke="none" /><path d="M 118.3937258080291 89.86733742301442 l 7.052200268306593 -3.884888058562109 a29.051452282157676,29.051452282157676 0 0,0 0.2375190029898914,0.4400866396554285 l -7.118027370514949 3.762920435574222" fill="#ff6709" stroke="none" /><path d="M 118.56541770881063 90.18545643968196 l 10.084481737158125 -5.331126228611576 a32.40691363921311,32.40691363921311 0 0,0 0.2564630165348563,0.49540491740669934 l -10.174754186853097 5.156748588944533" fill="#ff940d" stroke="none" /><path d="M 118.73160827565052 90.50648371742162 l 5.217719428691907 -2.644434136421849 a26.849583569658797,26.849583569658797 0 0,0 0.2053865122303036,0.4140466758014352 l -5.262465953875618 2.5542278721214635" fill="#ff4806" stroke="none" /><path d="M 118.89224826269711 90.83032412892265 l 6.252223728765417 -3.0346237392739366 a27.949765664646705,27.949765664646705 0 0,0 0.20635153096888062,0.4346289504219045 l -6.303533453576053 2.926552373211492" fill="#ff5808" stroke="none" /><path d="M 119.04729006885535 91.15688171328212 l 4.5677333663435515 -2.1206694660891205 a26.03601301531389,26.03601301531389 0 0,0 0.18522476285714462,0.4081182124829969 l -4.603560446164043 2.0417292447640607" fill="#ff3d05" stroke="none" /><path d="M 119.196687751892 91.48605970444005 l 5.260622512981542 -2.3331434345276074 a26.754798650705993,26.754798650705993 0 0,0 0.18309110106642673,0.4225995047072564 l -5.30000432389065 2.242244785233748" fill="#ff4706" stroke="none" /><path d="M 119.34039704204932 91.81776055985345 l 5.367206993095537 -2.2706758629027246 a26.82776799307442,26.82776799307442 0 0,0 0.1762690558234702,0.42684950021262463 l -5.405497735805204 2.177951792236797" fill="#ff4806" stroke="none" /><path d="M 119.47837535516314 92.15188598940014 l 11.164756585855047 -4.498438960575832 a33.03693244574465,33.03693244574465 0 0,0 0.20798550292618914,0.5293004188838826 l -11.240535638662935 4.305589536796165" fill="#ff9c0e" stroke="none" /><path d="M 119.61058180528143 92.48833698450437 l 3.8085472136123446 -1.4588309276757965 a25.078384429385952,25.078384429385952 0 0,0 0.15094251046031767,0.40445088413889757 l -3.833094312574288 1.3930569065075658" fill="#ff3004" stroke="none" /><path d="M 119.7369772167798 92.82701384747503 l 5.557863025204549 -2.019887548105869 a26.91352577688886,26.91352577688886 0 0,0 0.1544925055690347,0.4367711174282008 l -5.591808611583393 1.9239188042510538" fill="#ff4906" stroke="none" /><path d="M 119.85752413597 93.16781622104841 l 5.1269508418760115 -1.7639797457880009 a26.42192304247888,26.42192304247888 0 0,0 0.14426710475260263,0.43134028054659274 l -5.156555240400384 1.6754663623190942" fill="#ff4206" stroke="none" /><path d="M 119.97218684219823 93.5106431181261 l 5.45453723937739 -1.772286582909577 a26.73523985790621,26.73523985790621 0 0,0 0.13844336784233252,0.43890330912204434 l -5.484236090987928 1.6781331073611137" fill="#ff4706" stroke="none" /><path d="M 120.08093135843002 93.85539295169968 l 5.811535070709792 -1.778284020772617 a27.077518731902444,27.077518731902444 0 0,0 0.13254329745176135,0.44687010820465495 l -5.841284265273255 1.6779845258214319" fill="#ff4c07" stroke="none" /><path d="M 120.18372546131832 94.20196356495316 l 14.560190931312398 -4.182603339645007 a36.14903728469507,36.14903728469507 0 0,0 0.16665262097372754,0.599538146597436 l -14.630030322852488 3.931353889628619" fill="#ffc412" stroke="none" /><path d="M 120.28053869075195 94.5502522615342 l 5.312085694741155 -1.4274535525357264 a26.500534344308786,26.500534344308786 0 0,0 0.11458789170763146,0.4415538900923379 l -5.335869918319089 1.335803236894538" fill="#ff4406" stroke="none" /><path d="M 120.37134235888165 94.90015583598534 l 9.854794216622011 -2.467089006105346 a31.15891220633452,31.15891220633452 0 0,0 0.12577398736428333,0.5214143768920928 l -9.895801004247115 2.2970893975538473" fill="#ff830c" stroke="none" /><path d="M 120.45610955862082 95.25157060432595 l 9.305548295230038 -2.160075401498485 a30.552965760171944,30.552965760171944 0 0,0 0.11450904281238522,0.5133215859610069 l -9.341351725044461 1.9995756459875145" fill="#ff7b0b" stroke="none" /><path d="M 120.53481517161879 95.60439243477599 l 5.554496171022186 -1.1889751714978916 a26.680324785814502,26.680324785814502 0 0,0 0.09226399862678136,0.4499120241963629 l -5.574139465563964 1.093187491138117" fill="#ff4606" stroke="none" /><path d="M 120.6074358757038 95.95851677861258 l 4.622232057161803 -0.9065015859834883 a25.710283889071317,25.710283889071317 0 0,0 0.08143337718826602,0.4350203571641961 l -4.637151158259927 0.8268031513567294" fill="#ff3805" stroke="none" /><path d="M 120.67395015179393 96.31383870115 l 4.898206142414942 -0.8733492043557308 a25.97545598376071,25.97545598376071 0 0,0 0.07469568728679492,0.44085817464708216 l -4.91251369122196 0.7889052413928108" fill="#ff3c05" stroke="none" /><path d="M 120.73433829027371 96.67025291283417 l 13.201916329698323 -2.1201082874412625 a34.37106779306845,34.37106779306845 0 0,0 0.08878227923677393,0.5849642922511705 l -13.236454502374396 1.8925448827980098" fill="#ffad10" stroke="none" /><path d="M 120.78858239683441 97.02765380044208 l 7.758902892359212 -1.1093659531279338 a28.8378100838831,28.8378100838831 0 0,0 0.06603034701158933,0.49200278133704656 l -7.776849238428637 0.975644829726223" fill="#ff6409" stroke="none" /><path d="M 120.91429891909075 98.10471618934814 l 4.971258741250548 -0.45050260815834914 a25.99162960088361,25.99162960088361 0 0,0 0.03654363239707563,0.4459248768709029 l -4.978276857467119 0.36486381407967755" fill="#ff3c05" stroke="none" /><path d="M 120.98425023603335 99.18683210126433 l 7.909732461577753 -0.3065127632865245 a28.915669124451476,28.915669124451476 0 0,0 0.01499250668792847,0.49752830770693135 l -7.913836662721327 0.17031430815459406" fill="#ff6509" stroke="none" /><line stroke="#e1ed5e" stroke-width="0.3" x1="184.98032266829074" x2="189.97916517819016" y1="98.17113171792111" y2="98.06355123074" /><path d="M 185.9800911702706 98.14961562048488 a86.0,86.0 0 0,1 -9.607161424134198,41.387399972396054" fill="none" id="id76" stroke="none" /><text fill="#e1ed5e" style="font-size:6.75px; font-family:Arial;" text-anchor="middle"><textPath startOffset="21.466115282336823" xlink:href="#id76">April</textPath></text><path d="M 120.99513854157772 99.54816195383933 l 8.081928132820467 -0.17393181804982347 a29.083799516403474,29.083799516403474 0 0,0 0.006463518349182996,0.5006066191913573 l -8.083724658287366 0.03478894079800341" fill="#ff6709" stroke="none" /><path d="M 120.99980553446 99.90962569577887 l 6.261388627699135 -0.026946375277515488 a27.261446610346578,27.261446610346578 0 0,0 -0.0020195574468469075,0.4692740266712655 l -6.260924772962785 -0.0808371295974347" fill="#ff4e07" stroke="none" /><path d="M 120.99824983174949 100.27111621757518 l 10.724471069924538 0.1384676368397219 a31.725364936266754,31.725364936266754 0 0,0 -0.011750376179502154,0.5459938088448572 l -10.720498631060028 -0.3230512614746938" fill="#ff8b0c" stroke="none" /><path d="M 120.9904718944345 100.63252640178507 l 7.140231807858744 0.21516358260309962 a28.14347293949073,28.14347293949073 0 0,0 -0.01875945691965472,0.48409822732331725 l -7.135470218087886 -0.338039056940423" fill="#ff5a08" stroke="none" /><path d="M 120.9764740272857 100.99374915477107 l 7.525832136611122 0.3565322425007168 a28.534272664855667,28.534272664855667 0 0,0 -0.027465798825093177,0.49042028850206676 l -7.5185799868985 -0.48602424733820687" fill="#ff6008" stroke="none" /><path d="M 120.95626037817324 101.35467743843564 l 5.449666158942605 0.3522832632970609 a26.46104062807845,26.46104062807845 0 0,0 -0.03329484546269563,0.45428171346060264 l -5.442794754815572 -0.4460381132544338" fill="#ff4306" stroke="none" /><path d="M 120.92983693683757 101.71520430193887 l 10.11297431645841 0.8287602576806156 a31.146876026150032,31.146876026150032 0 0,0 -0.04838949547909658,0.5339740503802072 l -10.097210224702238 -1.0027156966093933" fill="#ff830c" stroke="none" /><path d="M 120.89721153311464 102.0752229133903 l 7.498517612843709 0.7446493778356599 a28.535401056747965,28.535401056747965 0 0,0 -0.05274659975082895,0.4883680045851347 l -7.484588711591828 -0.8736137043055859" fill="#ff6008" stroke="none" /><path d="M 120.8583938346157 102.4346265915055 l 8.0214437569426 0.9362763225089962 a29.075900773157407,29.075900773157407 0 0,0 -0.062303412003832624,0.4966194945444271 l -8.00413883569192 -1.0742135713408183" fill="#ff6709" stroke="none" /><path d="M 120.81339534386255 102.79330883721812 l 4.640469481006615 0.6227847112873414 a25.682074091763933,25.682074091763933 0 0,0 -0.06257369965557417,0.4376403096510638 l -4.62906173033444 -0.7025704929188146" fill="#ff3805" stroke="none" /><path d="M 120.76222939487914 103.15116336523771 l 3.400025016102812 0.5160348663846982 a24.438962357085288,24.438962357085288 0 0,0 -0.06670468797803047,0.4153701557137928 l -3.3906385737634928 -0.5744842517916959" fill="#ff2603" stroke="none" /><path d="M 120.70491114924044 103.5080841355445 l 5.254507049289609 0.8902840822089615 a26.329394907310665,26.329394907310665 0 0,0 -0.07955684656787182,0.44619704533581706 l -5.238403760382549 -0.9805998782779969" fill="#ff4106" stroke="none" /><path d="M 120.64145759157962 103.86396538481128 l 4.098961288119228 0.7673026219541362 a25.170160303292636,25.170160303292636 0 0,0 -0.08338522568158796,0.425179469290114 l -4.085146129461976 -0.8377458183121952" fill="#ff3104" stroke="none" /><path d="M 120.49622156327973 104.57218783832717 l 41.11456754293102 9.171618540397434 a63.12512612316785,63.12512612316785 0 0,0 -0.24570533737477218,1.0584921627043942 l -40.950601639625695 -9.877979360450393" fill="#33ff54" stroke="none" /><path d="M 120.32669344350535 105.2749913415812 l 3.277367581929642 0.8505114550926419 a24.385927938147407,24.385927938147407 0 0,0 -0.10893765762230508,0.4053975498159509 l -3.26224184796556 -0.906799938084141" fill="#ff2603" stroke="none" /><path d="M 120.23288151984713 105.62410040840565 l 4.264614759704366 1.1854278684041513 a25.426305262843666,25.426305262843666 0 0,0 -0.12084440390540568,0.4206752232911208 l -4.243577718912861 -1.258660567199854" fill="#ff3405" stroke="none" /><path d="M 120.13307415673323 105.97154293290107 l 3.6738247620907734 1.089669770448004 a24.83201886623481,24.83201886623481 0 0,0 -0.12507441812715522,0.4087504351969439 l -3.654523571457485 -1.152747178197005" fill="#ff2c04" stroke="none" /><path d="M 120.02730092923936 106.31721596034902 l 5.647150037834239 1.781281785076115 a26.92142452013493,26.92142452013493 0 0,0 -0.14320627298001365,0.44074358877081643 l -5.615651513837978 -1.8782242738247266" fill="#ff4906" stroke="none" /><path d="M 119.9155931802556 106.66101706037122 l 4.968226785538675 1.6616850464225872 a26.23874742529628,26.23874742529628 0 0,0 -0.1469484419895018,0.42710095746245746 l -4.938887512605942 -1.746958706974345" fill="#ff4006" stroke="none" /><path d="M 119.79798401119884 107.00284435728193 l 7.5444981848222294 2.668602344169024 a29.002555300158214,29.002555300158214 0 0,0 -0.17052914040113398,0.4692229550323934 l -7.497444783415869 -2.798073096207548" fill="#ff6609" stroke="none" /><path d="M 119.67450827220406 107.3425965602758 l 5.279855949892834 1.9704610453317204 a26.635565240753454,26.635565240753454 0 0,0 -0.16400623580427504,0.4281685290169831 l -5.245155434495052 -2.0610531411818473" fill="#ff4506" stroke="none" /><path d="M 119.54520255179757 107.68017299344265 l 8.814507687722816 3.4636092265779714 a30.47059315203439,30.47059315203439 0 0,0 -0.19602368937459266,0.4865147212419794 l -8.75358138409083 -3.6148233156627647" fill="#ff7a0b" stroke="none" /><path d="M 119.41010516605496 108.01547362559984 l 4.379745751490378 1.8086319603923702 a25.738493686378696,25.738493686378696 0 0,0 -0.17263055149116147,0.4080476294845754 l -4.347964218806908 -1.883754115543109" fill="#ff3905" stroke="none" /><path d="M 119.26925614724726 108.34839909993367 l 4.442530197212459 1.9247247956239815 a25.841553479208336,25.841553479208336 0 0,0 -0.18034809746531308,0.4066373492770271 l -4.408741015015873 -2.000910481393696" fill="#ff3a05" stroke="none" /><path d="M 119.12269723197855 108.67885076344098 l 4.4666245786841206 2.0271809810328767 a25.905119555807637,25.905119555807637 0 0,0 -0.18778175000918074,0.40446518367105033 l -4.431068211835108 -2.1037662319827577" fill="#ff3b05" stroke="none" /><path d="M 118.97047184881838 109.00673069616215 l 4.197299717874326 1.9927784881284414 a25.64634168184125,25.64634168184125 0 0,0 -0.1927710244869025,0.39716540733442224 l -4.1623754367727095 -2.064732851428139" fill="#ff3805" stroke="none" /><path d="M 118.81262510543309 109.33194174019688 l 6.346839126289221 3.1483289880596153 a28.084796561091377,28.084796561091377 0 0,0 -0.2185549910855033,0.4312297317290747 l -6.291705465417449 -3.2571129314913843" fill="#ff5908" stroke="none" /><path d="M 118.64920377521936 109.65438752849418 l 5.570544279399384 2.8837795900659273 a27.27273052926953,27.27273052926953 0 0,0 -0.21941235317992722,0.41504548451221557 l -5.520079417994563 -2.9792400896642772" fill="#ff4e07" stroke="none" /><line stroke="#e1ed5e" stroke-width="0.3" x1="174.80103733775053" x2="179.2010983576182" y1="140.37084112569926" y2="142.7455964860345" /><path d="M 175.68104954172406 140.8457921977663 a86.0,86.0 0 0,1 -30.038265399797805,32.042727171017184" fill="none" id="id77" stroke="none" /><text fill="#e1ed5e" style="font-size:6.75px; font-family:Arial;" text-anchor="middle"><textPath startOffset="22.206326154141568" xlink:href="#id77">May</textPath></text><path d="M 118.48025628344425 109.97397251340804 l 6.263173397331242 3.3802950756507437 a28.117143795337174,28.117143795337174 0 0,0 -0.23353777032147235,0.4239388887643801 l -6.20405921755826 -3.487604482812929" fill="#ff5a08" stroke="none" /><path d="M 118.30583269289576 110.29060199501025 l 6.4335720308069 3.6166248367907876 a28.380435236872742,28.380435236872742 0 0,0 -0.24305545836563008,0.4237876788660314 l -6.370364576288891 -3.726832361515134" fill="#ff5e08" stroke="none" /><path d="M 118.12598468904814 110.60418214915192 l 7.168689237031648 4.1938734774546775 a29.305340457924117,29.305340457924117 0 0,0 -0.2584718808086675,0.4332137395101334 l -7.095436480524754 -4.316649310850916" fill="#ff6a09" stroke="none" /><path d="M 117.75023020441432 111.22182372390056 l 4.926869174801794 3.1148022731894116 a26.828896384966715,26.828896384966715 0 0,0 -0.25014130633988185,0.3882248623493714 l -4.8725230050848625 -3.199148735460236" fill="#ff4806" stroke="none" /><path d="M 117.55443506779139 111.5257021239791 l 4.611871164650241 3.028012754193118 a26.51708409206245,26.51708409206245 0 0,0 -0.2538024550508248,0.3794002339316759 l -4.559065604188695 -3.106949902330601" fill="#ff4406" stroke="none" /><path d="M 117.35343817320211 111.8261652097733 l 6.999601677551771 4.770146700333046 a29.470461804829995,29.470461804829995 0 0,0 -0.28928639342669377,0.41673862572990306 l -6.916454376962942 -4.889926588249969" fill="#ff6c0a" stroke="none" /><path d="M 117.14729908036423 112.12312394758627 l 3.8350695295353576 2.7113904665842523 a25.696743186363772,25.696743186363772 0 0,0 -0.25846054433783666,0.3589790904872262 l -3.787829192821918 -2.7770031625226097" fill="#ff3805" stroke="none" /><path d="M 116.93607887273984 112.41649034213515 l 9.188526794247517 6.736462144307872 a32.39337293650557,32.39337293650557 0 0,0 -0.3335572348220691,0.4468544251884374 l -9.071208292730358 -6.8936294490056245" fill="#ff930d" stroke="none" /><path d="M 116.71984013943494 112.70617746262583 l 3.963469075114266 3.012022903092978 a25.978088898176065,25.978088898176065 0 0,0 -0.2736274364752155,0.35370034699384484 l -3.911034821420982 -3.0798012442000755" fill="#ff3c05" stroke="none" /><path d="M 116.498646956653 112.99209946851258 l 4.299626494270895 3.3858034078663475 a26.47270067763217,26.47270067763217 0 0,0 -0.285000163940284,0.3555815252940108 l -4.240708418275757 -3.4593127667386088" fill="#ff4306" stroke="none" /><path d="M 116.27256486870786 113.27417163493432 l 3.319410871185057 2.7077740962464603 a25.283751753783694,25.283751753783694 0 0,0 -0.278005686554633,0.3348757584878523 l -3.2723091847368804 -2.764511111848083" fill="#ff3204" stroke="none" /><path d="M 116.0416608686014 113.55231037782055 l 7.420088216334181 6.268636356438386 a30.713573539508644,30.713573539508644 0 0,0 -0.3446611267825686,0.4009187558936117 l -7.311084579980833 -6.395432211493526" fill="#ff7d0b" stroke="none" /><path d="M 115.80600337817218 113.82643327865902 l 7.107251824992015 6.217127809082089 a30.442759485357772,30.442759485357772 0 0,0 -0.3484118016471356,0.39144435263870686 l -6.999181173696541 -6.338546331461662" fill="#ff7a0b" stroke="none" /><path d="M 115.56566222782051 114.09645910891815 l 3.401593686527445 3.080525942647431 a25.589169825964955,25.589169825964955 0 0,0 -0.2984837650132191,0.3239451756623014 l -3.348063513518504 -3.138622373111067" fill="#ff3705" stroke="none" /><path d="M 115.32070863581623 114.36230785411682 l 3.1537819818759263 2.9564942983497664 a25.322869339383267,25.322869339383267 0 0,0 -0.30085190478393403,0.31544201937589006 l -3.1024235257130277 -3.010343434308164" fill="#ff3304" stroke="none" /><path d="M 115.07121518719521 114.62390073753431 l 0.5493284499109023 0.5330243529815629 a21.765425833606972,21.765425833606972 0 0,0 -0.2632159019096631,0.2666363189644862 l -0.5400719229457036 -0.5424011659267137" fill="#ff0000" stroke="none" /><path d="M 114.81725581225074 114.88116024355365 l 4.089153901104381 4.106789761473621 a26.795420758828623,26.795420758828623 0 0,0 -0.32964753472161934,0.32262949433410454 l -4.017856414006967 -4.176569358730298" fill="#ff4806" stroke="none" /><path d="M 114.55890576462653 115.13401014063108 l 1.892366562594013 1.967118629043728 a23.729579987462312,23.729579987462312 0 0,0 -0.29680525369825606,0.2806478930215614 l -1.8582254745049491 -1.9994011588112108" fill="#ff1c02" stroke="none" /><path d="M 114.29624159901734 115.38237550388516 l 5.991541667071973 6.446739384735224 a29.801080629272516,29.801080629272516 0 0,0 -0.3787581831584356,0.34598662004538594 l -5.879683934446674 -6.548918771367194" fill="#ff710a" stroke="none" /><path d="M 114.0293411484842 115.62618273729858 l 5.7907310683928195 6.449841150739645 a29.66793038598167,29.66793038598167 0 0,0 -0.3829390192645401,0.3378991609446449 l -5.6788496962216914 -6.548563453456579" fill="#ff6f0a" stroke="none" /><path d="M 113.75828350139079 115.86535959552629 l 3.807256576551319 4.390336530957004 a26.811218245320756,26.811218245320756 0 0,0 -0.3512710359197667,0.2993607974732018 l -3.731120064054505 -4.455221718653153" fill="#ff4806" stroke="none" /><path d="M 113.48314897796784 116.09983520530334 l 3.0421307085368676 3.6325196109950664 a25.738117555747934,25.738117555747934 0 0,0 -0.34210844975416904,0.28153196352300236 l -2.9791521302380075 -3.684346693375247" fill="#ff3905" stroke="none" /><path d="M 113.20401910651253 116.32954008644616 l 3.420691943459756 4.230403316105388 a26.44035344338637,26.44035344338637 0 0,0 -0.35636875866930945,0.28312089481597064 l -3.347365692073095 -4.288658124926485" fill="#ff4306" stroke="none" /><path d="M 112.92097659922987 116.55440617244103 l 2.273079772368772 2.912278768185004 a24.694355055374785,24.694355055374785 0 0,0 -0.33733814446516597,0.2586565043394674 l -2.2226128994101124 -2.950974614351843" fill="#ff2a04" stroke="none" /><path d="M 112.63410532772338 116.77436683061366 l 2.7693276993464635 3.676850675059852 a25.603086659303262,25.603086659303262 0 0,0 -0.3543162755652133,0.26211471015732113 l -2.7056264533626857 -3.7239753339569424" fill="#ff3705" stroke="none" /><path d="M 112.34349029814194 116.9893568818739 l 4.410626552098839 6.07070664425895 a28.503806083763696,28.503806083763696 0 0,0 -0.39942338965458873,0.2849779831698019 l -4.3054758345953665 -6.145728889272971" fill="#ff5f08" stroke="none" /><path d="M 112.04921762599082 117.19931262002967 l 4.261234102961679 6.0825772891576335 a28.42669930445685,28.42669930445685 0 0,0 -0.40317603241561645,0.27730815145080273 l -4.155901185923179 -6.15502622997353" fill="#ff5e08" stroke="none" /><path d="M 111.7513745106137 117.40417183066458 l 2.478807205197127 3.671194930888744 a25.429690438520552,25.429690438520552 0 0,0 -0.3648861491588885,0.24182664302893966 l -2.4152463572982743 -3.7133195950090023" fill="#ff3505" stroke="none" /><path d="M 111.45004920935366 117.60387380957326 l 1.661776448432362 2.55489756970009 a24.047786501089586,24.047786501089586 0 0,0 -0.3489427698748652,0.2227117853898813 l -1.6175518765105665 -2.5831237839137806" fill="#ff2103" stroke="none" /><line stroke="#e1ed5e" stroke-width="0.3" x1="143.8653032363475" x2="146.44561519142675" y1="172.8068346515853" y2="177.08958963109032" /><path d="M 144.38136562736335 173.6633856474863 a86.0,86.0 0 0,1 -40.68145358897372,12.25698825130547" fill="none" id="id78" stroke="none" /><text fill="#e1ed5e" style="font-size:6.75px; font-family:Arial;" text-anchor="middle"><textPath startOffset="21.466115282336833" xlink:href="#id78">June</textPath></text><path d="M 110.5260780823613 118.17145234162733 l 31.578234247083873 54.514357024881974 a84.0,84.0 0 0,0 -1.2574049323152037,0.7139873368214862 l -30.635180547847472 -55.049847527498095" fill="#4dd2ff" stroke="none" /><path d="M 109.57404056367764 118.69057910512821 l 1.295020526049616 2.5281576178738745 a23.840538523538015,23.840538523538015 0 0,0 -0.36685604107713904,0.18394923480256303 l -1.2513105772897164 -2.5500746935857395" fill="#ff1e03" stroke="none" /><path d="M 108.92500713936063 119.00905698771935 l 1.8354625267764184 3.9092867070597968 a25.31873190244485,25.31873190244485 0 0,0 -0.3960958922160754,0.18182819683970677 l -1.7678986387929236 -3.940301974233578" fill="#ff3304" stroke="none" /><path d="M 108.59647513512805 119.15986991738527 l 1.935727372139403 4.314359555832131 a25.728714289978804,25.728714289978804 0 0,0 -0.4056307318595044,0.17781659245882975 l -1.861175965622145 -4.347040701585415" fill="#ff3905" stroke="none" /><path d="M 108.2653958097858 119.30500536409082 l 3.205095422822101 7.485955392087518 a29.14322815606436,29.14322815606436 0 0,0 -0.4628618263059354,0.19347628093508662 l -3.0757621370187045 -7.540016716042577" fill="#ff6809" stroke="none" /><path d="M 107.93186726928326 119.44442032107085 l 3.0676642875124656 7.52016540182482 a29.12178871011075,29.12178871011075 0 0,0 -0.4657807169375298,0.1853437598879056 l -2.93776249453307 -7.571856006118795" fill="#ff6809" stroke="none" /><path d="M 107.2578585660854 119.70592522655815 l 2.3110578152398515 6.274789193905802 a27.686850353741903,27.686850353741903 0 0,0 -0.44863302872143224,0.16086384250089045 l -2.2027052258886846 -6.313640577446652" fill="#ff5407" stroke="none" /><path d="M 106.91757812671514 119.82793768551818 l 1.841782719250494 5.279124040035125 a26.591181826323172,26.591181826323172 0 0,0 -0.4334745893390461,0.14705811581705175 l -1.750638396974221 -5.3100451427503" fill="#ff4506" stroke="none" /><path d="M 105.88484417918355 120.15858648285463 l 1.821580532636499 6.239840441745015 a27.500289560882415,27.500289560882415 0 0,0 -0.4555473145871081,0.12874222144145137 l -1.7139020499447852 -6.270271456524985" fill="#ff5107" stroke="none" /><path d="M 105.53697534728816 120.25689768951611 l 1.4339376079245256 5.246027947569423 a26.438472790232545,26.438472790232545 0 0,0 -0.44002375798354526,0.11621427379715599 l -1.343423407129483 -5.269933570670163" fill="#ff4306" stroke="none" /><path d="M 105.18746579009965 120.34920634021253 l 2.364254237348145 9.274412451709868 a30.571020030448672,30.571020030448672 0 0,0 -0.5110407697018335,0.12560138763255702 l -2.2042601829031003 -9.313735097656455" fill="#ff7b0b" stroke="none" /><path d="M 104.83641907484287 120.43548508189849 l 2.2763321970575983 9.61826341649832 a30.88396071524523,30.88396071524523 0 0,0 -0.5183797075745884,0.11798153374454506 l -2.110432340090148 -9.65602168382055" fill="#ff7f0b" stroke="none" /><path d="M 104.48393922423573 120.51570834832081 l 1.1752822461709118 5.377358296713216 a26.504295650616434,26.504295650616434 0 0,0 -0.44654505285658536,0.0935778575023217 l -1.0825457318849483 -5.396792134942078" fill="#ff4406" stroke="none" /><path d="M 104.13013068566511 120.58985236759428 l 1.1383226542466576 5.674855635676419 a26.78789814621332,26.78789814621332 0 0,0 -0.452884351402873,0.08679636382020148 l -1.0404706882720802 -5.693609197845089" fill="#ff4806" stroke="none" /><path d="M 103.7750983002368 120.6578951692458 l 2.2701977748073237 12.42285734453138 a33.62858592793815,33.62858592793815 0 0,0 -0.5703264507702723,0.09915856395173421 l -2.0560223525650017 -12.46009448700412" fill="#ffa40f" stroke="none" /><path d="M 103.41894727170886 120.7198165907248 l 1.6683940132727764 10.110953813802748 a31.24767903519508,31.24767903519508 0 0,0 -0.531454776040176,0.08300230609797803 l -1.4941033736240834 -10.138174427247833" fill="#ff840c" stroke="none" /><path d="M 102.70371172650421 120.8252237178851 l 0.5775784906179114 4.4487735744329475 a25.48611003313532,25.48611003313532 0 0,0 -0.4355364754279687,0.05273740173035354 l -0.5009145921385625 -4.458056504888652" fill="#ff3505" stroke="none" /><path d="M 102.34483914955558 120.86867818915974 l 1.2184987894454689 10.84443643634899 a31.91267799038777,31.91267799038777 0 0,0 -0.5464170838269173,0.05663836490332242 l -1.0316491090129487 -10.863804169708072" fill="#ff8d0d" stroke="none" /><path d="M 101.98527174616119 120.90594882070398 l 0.6133072702669612 6.458446017961771 a27.487501119436402,27.487501119436402 0 0,0 -0.4714180818690835,0.040675935727502985 l -0.5020448706563361 -6.468046205967938" fill="#ff5107" stroke="none" /><path d="M 101.62511606390274 120.93702456842531 l 0.48216449921279025 6.211919376267329 a27.23060389862384,27.23060389862384 0 0,0 -0.4676366577296285,0.03225096184667021 l -0.37516508070423144 -6.219298682630284" fill="#ff4e07" stroke="none" /><path d="M 101.26447882468166 120.96189622390904 l 0.1944335778959147 3.223222408112345 a24.229081465118362,24.229081465118362 0 0,0 -0.4165232142995019,0.021529492481593384 l -0.1389222951829332 -3.22609170735614" fill="#ff2303" stroke="none" /><path d="M 100.90346689309514 120.98055641714683 l 0.23541543975786972 5.466882021970543 a26.471948416370637,26.471948416370637 0 0,0 -0.4554179149691966,0.01568551381899749 l -0.1412771731140208 -5.470124334215634" fill="#ff4306" stroke="none" /><line stroke="#e1ed5e" stroke-width="0.3" x1="102.19456741930631" x2="102.32365962044197" y1="184.97166512339345" y2="189.96999836594603" /><path d="M 102.22038585953345 185.97133177190398 a86.0,86.0 0 0,1 -42.740103519485714,-10.115201625700543" fill="none" id="id79" stroke="none" /><text fill="#e1ed5e" style="font-size:6.75px; font-family:Arial;" text-anchor="middle"><textPath startOffset="22.20632615414155" xlink:href="#id79">July</textPath></text><path d="M 100.54218724476979 120.99299961872073 l 0.2204712442402815 8.53644712398251 a29.539293710260008,29.539293710260008 0 0,0 -0.5084138799518066,0.008752806012841383 l -0.07349767439580686 -8.538977407274512" fill="#ff6d0a" stroke="none" /><path d="M 100.18074693466247 120.99922214144158 l 0.09985945753482174 11.601695683600827 a32.602125436580195,32.602125436580195 0 0,0 -0.5612127843945464,0.0 l 0.09985945753481375 -11.601695683600827" fill="#ff960d" stroke="none" /><path d="M 99.81925306533755 120.99922214144158 l -0.08779059746576799 10.199532631391014 a31.199910445087912,31.199910445087912 0 0,0 -0.5369954907901697,-0.009244864363463971 l 0.2633457781486056 -10.19651028974839" fill="#ff840c" stroke="none" /><path d="M 99.45781275523022 120.99299961872073 l -0.1254189366763493 4.856107765768139 a25.85772709633123,25.85772709633123 0 0,0 -0.4448509786597905,-0.015321567166795532 l 0.20899026701078285 -4.85322940017525" fill="#ff3b05" stroke="none" /><path d="M 99.09653310690486 120.98055641714683 l -0.23598180904516045 5.480034405168849 a26.485112988447415,26.485112988447415 0 0,0 -0.4553067522974473,-0.023534158394730727 l 0.33027662975609673 -5.475160440011917" fill="#ff4306" stroke="none" /><path d="M 98.73552117531835 120.96189622390904 l -0.26717914017915895 4.429161881013552 a25.437213051135856,25.437213051135856 0 0,0 -0.43683839467808594,-0.030126933308271705 l 0.34338029563617495 -4.423906603188994" fill="#ff3505" stroke="none" /><path d="M 98.37488393609728 120.93702456842531 l -0.33269787057060934 4.286280620026294 a25.299173109645064,25.299173109645064 0 0,0 -0.4338876643751934,-0.03743765338636917 l 0.4064298526873444 -4.279918714361262" fill="#ff3304" stroke="none" /><path d="M 98.01472825383883 120.90594882070398 l -0.7513085177104899 7.911671261219519 a28.947264097435745,28.947264097435745 0 0,0 -0.4956425041374811,-0.05137537211377683 l 0.8873836184535644 -7.897566520649981" fill="#ff6509" stroke="none" /><path d="M 97.65516085044442 120.86867818915974 l -1.116190753355122 9.933911941848383 a30.996423773843993,30.996423773843993 0 0,0 -0.5297031655195511,-0.06413967649987742 l 1.2870213419260625 -9.913226736623157" fill="#ff810b" stroke="none" /><path d="M 97.2962882734958 120.8252237178851 l -0.9818882766637638 7.562952376557595 a28.626424669393117,28.626424669393117 0 0,0 -0.48810972431684035,-0.06764756012437369 l 1.1119265921674353 -7.544930250940617" fill="#ff6108" stroke="none" /><path d="M 96.93821686468263 120.77559828337769 l -0.6717295732619312 4.5579922392864285 a25.60722409624168,25.60722409624168 0 0,0 -0.4355229561770157,-0.06801972877287336 l 0.750088393047464 -4.5457542031664495" fill="#ff3705" stroke="none" /><path d="M 96.58105272829116 120.7198165907248 l -1.347268735034472 8.164841066525023 a29.27525000746291,29.27525000746291 0 0,0 -0.4964957333605139,-0.08632214736262037 l 1.487613439867036 -8.140440340641398" fill="#ff6a09" stroke="none" /><path d="M 96.22490169976321 120.6578951692458 l -0.7886021339561492 4.315347288436916 a25.38681154661333,25.38681154661333 0 0,0 -0.429197155324427,-0.08225665631576333 l 0.8627669038522712 -4.3011334337726845" fill="#ff3404" stroke="none" /><path d="M 95.86986931433489 120.58985236759428 l -1.4424326381047277 7.1909286483009165 a28.334171169288634,28.334171169288634 0 0,0 -0.4773748425245531,-0.10003853967967703 l 1.5659989420586675 -7.165034127894699" fill="#ff5d08" stroke="none" /><path d="M 95.51606077576429 120.51570834832081 l -1.740917947946343 7.965354366396914 a29.15338368309502,29.15338368309502 0 0,0 -0.489332396443328,-0.11137046030099294 l 1.8777704937825337 -7.934207172518234" fill="#ff6809" stroke="none" /><path d="M 95.16358092515715 120.4354850818985 l -1.9048841241074834 8.048771311697926 a29.271112570524494,29.271112570524494 0 0,0 -0.48931085332354013,-0.12026070287301112 l 2.043148262174234 -8.014789350510886" fill="#ff6a09" stroke="none" /><path d="M 94.81253420990036 120.34920634021253 l -1.7269666552538647 6.77448338599117 a27.991140034030867,27.991140034030867 0 0,0 -0.4658652837378916,-0.12303925561885178 l 1.8433223818032456 -6.7437527810687365" fill="#ff5808" stroke="none" /><path d="M 94.46302465271185 120.25689768951611 l -1.467656315075388 5.369387066607643 a26.56635720469268,26.56635720469268 0 0,0 -0.4400765546910484,-0.12437003016158113 l 1.5598640378710504 -5.34332824310754" fill="#ff4406" stroke="none" /><path d="M 94.11515582081647 120.15858648285463 l -1.6621052782747883 5.693556528519684 a26.931203916534823,26.931203916534823 0 0,0 -0.44388398304597937,-0.1337386028559177 l 1.7598642357610135 -5.66410255655804" fill="#ff4a06" stroke="none" /><path d="M 93.76903079525671 120.05430185196036 l -1.5546267235811344 5.003548012737236 a26.239499686557807,26.239499686557807 0 0,0 -0.4301761741702292,-0.13772882645346612 l 1.640524242842304 -4.976046339624063" fill="#ff4006" stroke="none" /><path d="M 93.42475214034765 119.94407469862007 l -0.8705495479605393 2.6405552435392017 a23.7803576226156,23.7803576226156 0 0,0 -0.38765410360944175,-0.13151331927547752 l 0.9158733845072069 -2.625178937365601" fill="#ff1d02" stroke="none" /><path d="M 93.08242187328487 119.8279376855182 l -2.6670847503926045 7.644697213978886 a29.096587957849486,29.096587957849486 0 0,0 -0.47147617783203943,-0.1690545830516366 l 2.7982804888543704 -7.597655089887291" fill="#ff6709" stroke="none" /><path d="M 92.7421414339146 119.70592522655815 l -3.1681173368888733 8.601804896201953 a30.166679602376192,30.166679602376192 0 0,0 -0.485726319730797,-0.18366013217315857 l 3.3157138773799533 -8.54599651392216" fill="#ff760a" stroke="none" /><path d="M 92.40401165467489 119.57807347666478 l -2.5881098473349002 6.6706533045152545 a28.15513298904445,28.15513298904445 0 0,0 -0.45031979867898253,-0.17919154143584026 l 2.7025507220557405 -6.625114918673348" fill="#ff5a08" stroke="none" /><path d="M 92.06813273071674 119.44442032107085 l -1.676112780256196 4.108873774405095 a25.43758918176662,25.43758918176662 0 0,0 -0.40400771398560775,-0.1688752572119804 l 1.746591953739266 -4.079413474173141" fill="#ff3505" stroke="none" /><path d="M 91.40352486487194 119.15986991738527 l -3.6831478260377586 8.209019641668823 a29.997420818531896,29.997420818531896 0 0,0 -0.46929108492002003,-0.21542851981259162 l 3.8239069067251985 -8.144404051522157" fill="#ff740a" stroke="none" /><path d="M 91.07499286063937 119.00905698771935 l -2.7736553128459893 5.907510333930895 a27.526242574405206,27.526242574405206 0 0,0 -0.4271644644071934,-0.20506490165720814 l 2.874932445253425 -5.858891155774124" fill="#ff5207" stroke="none" /><path d="M 90.7491055286396 118.85261126421891 l -1.658085930473807 3.3790515702744317 a24.76393922206633,24.76393922206633 0 0,0 -0.38106524714249307,-0.19107402570201074 l 1.7160050852990605 -3.350009703663119" fill="#ff2b04" stroke="none" /><line stroke="#e1ed5e" stroke-width="0.3" x1="58.666819895761336" x2="56.23545636021788" y1="174.27360380694188" y2="178.64263932499728" /><path d="M 58.180547188652646 175.14741091055294 a86.0,86.0 0 0,1 -31.652253787137756,-30.449443065178592" fill="none" id="id80" stroke="none" /><text fill="#e1ed5e" style="font-size:6.75px; font-family:Arial;" text-anchor="middle"><textPath startOffset="22.20632615414155" xlink:href="#id80">August</textPath></text><path d="M 89.7882731507175 118.34994917583269 l -3.0160549702021253 5.419696025125786 a27.202394101316457,27.202394101316457 0 0,0 -0.40719552992590985,-0.23121624904246352 l 3.1088992670492424 -5.366976610288689" fill="#ff4d07" stroke="none" /><path d="M 89.1626897886671 117.98757091392108 l -3.3139866367011557 5.5004949081472505 a27.42167825905251,27.42167825905251 0 0,0 -0.4022117750739128,-0.24707132312067887 l 3.408177611707377 -5.442635118198194" fill="#ff5007" stroke="none" /><path d="M 88.8546689885994 117.79835938074946 l -4.072924958218569 6.504192837614816 a28.674193259500285,28.674193259500285 0 0,0 -0.41607373799015146,-0.2655579454328827 l 4.184280498255644 -6.433120463358129" fill="#ff6209" stroke="none" /><path d="M 88.54995079064634 117.60387380957326 l -0.5859182171012282 0.9008197404212199 a22.074605212095882,22.074605212095882 0 0,0 -0.31674462217767624,-0.20992106402302116 l 0.6013375380188662 -0.8906006553068804" fill="#ff0400" stroke="none" /><path d="M 88.24862548938628 117.40417183066458 l -2.2554893445607904 3.340453840486014 a25.030615839278784,25.030615839278784 0 0,0 -0.355009361970401,-0.24417867631143086 l 2.3126555911540816 -3.3011343748094815" fill="#ff2f04" stroke="none" /><path d="M 87.65650970185807 116.9893568818739 l -4.105530580073955 5.650778064355324 a27.98474581330786,27.98474581330786 0 0,0 -0.38727560630302016,-0.28649723509084074 l 4.20219115679554 -5.579270880524716" fill="#ff5808" stroke="none" /><path d="M 87.07902340077011 116.55440617244103 l -0.9745407169054064 1.2485854095731066 a22.583886086151825,22.583886086151825 0 0,0 -0.3043904639052373,-0.24182619384509282 l 0.9958886735280018 -1.231625301722883" fill="#ff0c01" stroke="none" /><path d="M 86.51685102203217 116.09983520530335 l -11.791305388189334 14.079654086405107 a39.36495417773665,39.36495417773665 0 0,0 -0.5157456146313133,-0.4395296016509702 l 12.031916479397704 -13.874600094531184" fill="#ffec16" stroke="none" /><path d="M 86.24171649860922 115.8653595955263 l -0.8942740528352574 1.031231797465565 a22.36497805904654,22.36497805904654 0 0,0 -0.2886761109514736,-0.25472310411878313 l 0.9118925166933187 -1.0156855515744931" fill="#ff0901" stroke="none" /><path d="M 85.18274418774928 114.88116024355367 l -3.5453664956420914 3.56065708875429 a26.024729096390935,26.024729096390935 0 0,0 -0.3147249492580247,-0.3188147119821217 l 3.6061320699556494 -3.4991018827915035" fill="#ff3d05" stroke="none" /><path d="M 84.9287848128048 114.62390073753433 l -4.6092301141172785 4.472427924894448 a27.422430520314037,27.422430520314037 0 0,0 -0.3257960361944799,-0.3415958414345238 l 4.685532701690716 -4.3924249668774245" fill="#ff5007" stroke="none" /><path d="M 84.19399662182784 113.82643327865904 l -5.4797038966160265 4.793416684827443 a28.280384489089226,28.280384489089226 0 0,0 -0.3173564017653448,-0.36915719204649533 l 5.56140280795215 -4.698382393619418" fill="#ff5c08" stroke="none" /><path d="M 83.95833913139862 113.55231037782056 l -4.160708517356639 3.515048328270449 a26.446747664109377,26.446747664109377 0 0,0 -0.29079332502138705,-0.3502792927964265 l 4.220597842271562 -3.4429077783602615" fill="#ff4306" stroke="none" /><path d="M 83.72743513129214 113.27417163493432 l -4.379150789319124 3.5722456577489767 a26.65136272724559,26.65136272724559 0 0,0 -0.286923606283759,-0.35798131536027555 l 4.439992307657744 -3.4963365088104412" fill="#ff4606" stroke="none" /><path d="M 83.50135304334701 112.99209946851258 l -3.514759967206734 2.7677488476400245 a25.47369772232007,25.47369772232007 0 0,0 -0.26831467982975316,-0.3468328928627819 l 3.5618814642545558 -2.7068379606639903" fill="#ff3505" stroke="none" /><path d="M 83.28015986056508 112.70617746262583 l -1.862096766834945 1.4150931931569446 a23.338780262097377,23.338780262097377 0 0,0 -0.24032134670274702,-0.3219497166615232 l 1.886179380232777 -1.3828305969861132" fill="#ff1702" stroke="none" /><path d="M 82.85270091963577 112.12312394758628 l -13.100722819881488 9.26219842577224 a37.044228185916,37.044228185916 0 0,0 -0.36363159967255404,-0.523838440254567 l 13.258215326716176 -9.035318723330661" fill="#ffcf13" stroke="none" /><path d="M 82.44556493220864 111.52570212397912 l -6.177354293147203 4.055860825036287 a28.38983850264187,28.38983850264187 0 0,0 -0.26469487182516066,-0.41081231917482275 l 6.2462540283494095 -3.948926905940017" fill="#ff5e08" stroke="none" /><path d="M 82.24976979558568 111.22182372390057 l -3.498118444237215 2.2115357431698484 a25.138565330308367,25.138565330308367 0 0,0 -0.22808502873528266,-0.3677456901754624 l 3.535668112640453 -2.1509937216291215" fill="#ff3004" stroke="none" /><path d="M 82.05923443525364 110.91462005526583 l -4.455976526218774 2.7108815721013393 a26.215803456819607,26.215803456819607 0 0,0 -0.23122229329235205,-0.38754186343944425 l 4.501979695209358 -2.633777614775784" fill="#ff4006" stroke="none" /><line stroke="#e1ed5e" stroke-width="0.3" x1="26.63291911575756" x2="22.317208475507996" y1="142.92168965132927" y2="145.44649492493687" /><path d="M 25.769776987707644 143.4266507060508 a86.0,86.0 0 0,1 -11.730757126820373,-40.83630448921669" fill="none" id="id81" stroke="none" /><text fill="#e1ed5e" style="font-size:6.75px; font-family:Arial;" text-anchor="middle"><textPath startOffset="21.46611528233685" xlink:href="#id81">September</textPath></text><path d="M 81.87401531095188 110.60418214915194 l -4.513667246159639 2.640615142296656 a26.22934415952715,26.22934415952715 0 0,0 -0.22463310425348865,-0.3916667516466686 l 4.558452346565505 -2.5625285447916806" fill="#ff4006" stroke="none" /><path d="M 81.69416730710424 110.29060199501025 l -4.844359736783811 2.723251042889813 a26.557330069554315,26.557330069554315 0 0,0 -0.2205821364815652,-0.40042065012670963 l 4.890518282716892 -2.6394598743652806" fill="#ff4406" stroke="none" /><path d="M 81.51974371655577 109.97397251340807 l -2.3150108202586748 1.2494336623560582 a23.63065763157109,23.63065763157109 0 0,0 -0.19011144456430426,-0.3596192077471697 l 2.3361747730478655 -1.2093994395227623" fill="#ff1b02" stroke="none" /><path d="M 81.35079622478065 109.6543875284942 l -5.363782457192256 2.7767423791616426 a27.039905668825934,27.039905668825934 0 0,0 -0.2104236834882572,-0.41518589042236265 l 5.41078481046678 -2.684002277036595" fill="#ff4b07" stroke="none" /><path d="M 81.18737489456691 109.33194174019688 l -5.482218761134295 2.719436856855486 a27.119645362548134,27.119645362548134 0 0,0 -0.2038451286781887,-0.4199813420097858 l 5.5282171464272025 -2.6246665588804157" fill="#ff4c07" stroke="none" /><path d="M 81.02952815118164 109.00673069616217 l -2.85415021696303 1.355082919151536 a24.159497298426817,24.159497298426817 0 0,0 -0.17512803491477116,-0.37721020708502584 l 2.8770528687176276 -1.3057526447876828" fill="#ff2203" stroke="none" /><path d="M 80.87730276802145 108.67885076344099 l -5.179380176279521 2.3506656541046835 a26.687847398429803,26.687847398429803 0 0,0 -0.18625437931290503,-0.41995445563048606 l 5.219075640323705 -2.261162861981502" fill="#ff4606" stroke="none" /><path d="M 80.58989483394504 108.01547362559985 l -8.262693862174299 3.4121095255314766 a29.93949670139407,29.93949670139407 0 0,0 -0.1926070349908524,-0.4780348652593179 l 8.320203511422537 -3.2693752924293533" fill="#ff730a" stroke="none" /><path d="M 80.45479744820244 107.68017299344265 l -4.1112664635059675 1.6154981038536769 a25.417278127705305,25.417278127705305 0 0,0 -0.15650473614643234,-0.4085844805314452 l 4.138465479245909 -1.5444900564890738" fill="#ff3405" stroke="none" /><path d="M 80.32549172779594 107.34259656027581 l -5.314037757751047 1.9832178177669644 a26.67204991193767,26.67204991193767 0 0,0 -0.1568262415896211,-0.431518462663982 l 5.347388260345892 -1.8914515580968652" fill="#ff4606" stroke="none" /><path d="M 80.0844068197444 106.66101706037122 l -3.6833651484400027 1.231947141682915 a24.883924893280398,24.883924893280398 0 0,0 -0.1323679636051939,-0.4073867024371201 l 3.7040253630614464 -1.1683615392679916" fill="#ff2d04" stroke="none" /><path d="M 79.97269907076064 106.31721596034903 l -3.6591867837100316 1.154218096268911 a24.836908564434758,24.836908564434758 0 0,0 -0.1250990466585903,-0.4088309226626731 l 3.6785126028747523 -1.09106020105419" fill="#ff2c04" stroke="none" /><path d="M 79.86692584326677 105.97154293290107 l -1.9220147214314713 0.5700765485363039 a23.00477626197797,23.00477626197797 0 0,0 -0.10933552655872232,-0.3806113114244557 l 1.9315428848762977 -0.5369077616072522" fill="#ff1202" stroke="none" /><path d="M 79.67330655649465 105.27499134158121 l -15.562216983957185 4.0385594476710756 a37.0777038120541,37.0777038120541 0 0,0 -0.15500013745796798,-0.6191485002836462 l 15.629428435710212 -3.7700831079900374" fill="#ffd013" stroke="none" /><path d="M 79.58551787078972 104.9243191809786 l -4.489004395957753 1.0828239634294927 a25.6177557539031,25.6177557539031 0 0,0 -0.09971337416444304,-0.42956260615896125 l 4.506978336052752 -1.0053926999219571" fill="#ff3705" stroke="none" /><path d="M 79.50377843672027 104.57218783832718 l -4.367477499716508 0.9742735970490772 a25.474826114212362,25.474826114212362 0 0,0 -0.09178939077426658,-0.42880947543572845 l 4.383600929215215 -0.8989503021971851" fill="#ff3505" stroke="none" /><path d="M 79.4281124754447 104.21870165774334 l -6.8615126925986205 1.4070986406250305 a28.004304606107645,28.004304606107645 0 0,0 -0.09277434992460769,-0.47305441152496813 l 6.884716975498895 -1.2887805020321075" fill="#ff5808" stroke="none" /><path d="M 79.35854240842038 103.8639653848113 l -5.70756420726839 1.0684240892692343 a26.806704677751576,26.806704677751576 0 0,0 -0.08099908480790712,-0.4542858833068588 l 5.7251097344154855 -0.9700194552291617" fill="#ff4806" stroke="none" /><path d="M 79.29508885075956 103.50808413554451 l -5.535978631646221 0.9379745062612336 a26.614878056061375,26.614878056061375 0 0,0 -0.07264371990769611,-0.45235251320907666 l 5.551304105915207 -0.8425427633589432" fill="#ff4506" stroke="none" /><path d="M 79.23777060512086 103.15116336523772 l -4.067535122621955 0.6173454411589041 a25.114116839308636,25.114116839308636 0 0,0 -0.06118988671253511,-0.42796192515046977 l 4.0775590603510885 -0.5472380440280338" fill="#ff3004" stroke="none" /><path d="M 79.18660465613746 102.79330883721812 l -4.7335344199586 0.6352747020896564 a25.775973414085122,25.775973414085122 0 0,0 -0.055232376253676094,-0.4402563823615287 l 4.743768305459124 -0.5537005654407191" fill="#ff3905" stroke="none" /><path d="M 79.10278846688536 102.07522291339032 l -4.101091019463338 0.40726381316488874 a25.121263321293174,25.121263321293174 0 0,0 -0.03902815989938519,-0.43067249232560967 l 4.1074937756397985 -0.3366099322907129" fill="#ff3004" stroke="none" /><path d="M 79.0235259727143 100.99374915477108 l -5.673209787970046 0.2687652569397886 a26.679572524552974,26.679572524552974 0 0,0 -0.017783671989783055,-0.4589175540861313 l 5.676995592811029 -0.1710704558396605" fill="#ff4606" stroke="none" /><path d="M 79.0095281055655 100.63252640178507 l -4.347225168190324 0.1309991841638406 a25.34919848353682,25.34919848353682 0 0,0 -0.009388784609059689,-0.43625992826226806 l 4.348836015484391 -0.05614944011144369" fill="#ff3304" stroke="none" /><line stroke="#e1ed5e" stroke-width="0.3" x1="15.007084014347285" x2="10.007500721073583" y1="101.09737516637583" y2="101.16192664675087" /><path d="M 14.007167355692545 101.11028546245083 a86.0,86.0 0 0,1 10.666146001902534,-42.60595125391555" fill="none" id="id82" stroke="none" /><text fill="#e1ed5e" style="font-size:6.75px; font-family:Arial;" text-anchor="middle"><textPath startOffset="22.20632615414155" xlink:href="#id82">October</textPath></text><path d="M 79.00175016825051 100.2711162175752 l -10.277665121088123 0.13269875896613526 a31.278521746917818,31.278521746917818 0 0,0 -0.0023171467172389995,-0.5384232927290956 l 10.278426565094867 0.04423401196663577" fill="#ff850c" stroke="none" /><path d="M 79.00486145842228 99.54816195383935 l -8.216551726322688 -0.17682906311131968 a29.21845428221738,29.21845428221738 0 0,0 0.015149497988502321,-0.5027380846791975 l 8.21229053387854 0.3182372952155116" fill="#ff6909" stroke="none" /><path d="M 79.03285615573316 98.82574320788736 l -24.21871291411868 -1.3563596619005547 a45.25666437804114,45.25666437804114 0 0,0 0.05025517459083553,-0.7774253074534261 l 24.19177714852343 1.7730440336069924" fill="#ccff1d" stroke="none" /><path d="M 79.05617556472873 98.46500227214037 l -6.3403538124413545 -0.46469204924833896 a27.357359921191676,27.357359921191676 0 0,0 0.03846381776233271,-0.4693560019782414 l 6.331415510859524 0.5737619684343588" fill="#ff4f07" stroke="none" /><path d="M 79.08570108090925 98.10471618934814 l -5.00085179682728 -0.45318437336402156 a26.021343920714052,26.021343920714052 0 0,0 0.044264628498055764,-0.4457387682017315 l 4.992310042646995 0.5391986722701834" fill="#ff3d05" stroke="none" /><path d="M 79.12142395522702 97.74499172005258 l -5.859139606606226 -0.6328213331182945 a26.893214722827548,26.893214722827548 0 0,0 0.05367072074439943,-0.4598179591812023 l 5.8473785328582375 0.7335830306243586" fill="#ff4906" stroke="none" /><path d="M 79.21141760316559 97.0276538004421 l -4.242486781626877 -0.6065896760696632 a25.28563240693752,25.28563240693752 0 0,0 0.06531412089221676,-0.4303384507603215 l 4.231416767295358 0.6795272392220767" fill="#ff3204" stroke="none" /><path d="M 79.32604984820605 96.31383870115002 l -2.7279320117304873 -0.48638974814701036 a23.770954356846474,23.770954356846474 0 0,0 0.07529084861987448,-0.40220672393448204 l 2.719155439200751 0.5332745495440651" fill="#ff1d02" stroke="none" /><path d="M 79.54389044137918 95.25157060432595 l -15.636384148182238 -3.6296376844535305 a37.052126929162064,37.052126929162064 0 0,0 0.1495621449602821,-0.6200316476827672 l 15.57158920296114 3.8982545637956947" fill="#ffd013" stroke="none" /><path d="M 79.62865764111835 94.90015583598534 l -3.689573072623265 -0.923662632075874 a24.803432938296666,24.803432938296666 0 0,0 0.10724965204791323,-0.41327665922709766 l 3.6731270887050442 0.9870357168518354" fill="#ff2c04" stroke="none" /><path d="M 79.71946130924805 94.55025226153421 l -5.862764162549386 -1.5754308217947603 a27.07074838054867,27.07074838054867 0 0,0 0.12480031304316078,-0.4489731270921461 l 5.834777078939864 1.6761152523058491" fill="#ff4b07" stroke="none" /><path d="M 79.81627453868168 94.20196356495316 l -4.960645048154451 -1.4250095100459024 a26.161264515358667,26.161264515358667 0 0,0 0.12805827220379185,-0.4317488326939931 l 4.935380878838952 1.5101877294864348" fill="#ff3f05" stroke="none" /><path d="M 79.91906864156998 93.8553929516997 l -4.989690929320272 -1.5268061777558157 a26.218060240604196,26.218060240604196 0 0,0 0.1357652513047901,-0.4304129478366922 l 4.962670194247277 1.6124692920189225" fill="#ff4006" stroke="none" /><path d="M 80.02781315780177 93.51064311812611 l -5.320749403101997 -1.7288162797873174 a26.59456700200006,26.59456700200006 0 0,0 0.145209763019869,-0.4341587087819086 l 5.290202346310356 1.8201480914915482" fill="#ff4506" stroke="none" /><path d="M 80.14247586403 93.16781622104843 l -6.478844019119904 -2.229112386352699 a27.851595570017015,27.851595570017015 0 0,0 0.15987733526174797,-0.4519947560984706 l 6.439513603048347 2.3403047688777807" fill="#ff5608" stroke="none" /><path d="M 80.2630227832202 92.82701384747504 l -8.326896295553569 -3.026234015750776 a29.85975700767187,29.85975700767187 0 0,0 0.1797207749631474,-0.48156232535354515 l 8.273570932088795 3.1691194781336622" fill="#ff720a" stroke="none" /><path d="M 80.52162464483688 92.15188598940014 l -5.5471417322384635 -2.2350221696505157 a26.98047702916505,26.98047702916505 0 0,0 0.1772724146423729,-0.4292792131783019 l 5.5078476307098905 2.330175953282129" fill="#ff4a06" stroke="none" /><path d="M 80.65960295795068 91.81776055985345 l -6.1653252912814205 -2.6083315482085103 a27.694372966357204,27.694372966357204 0 0,0 0.18952088954034504,-0.43744034300373547 l 6.119513691898395 2.714071035798845" fill="#ff5407" stroke="none" /><path d="M 80.95270993114464 91.15688171328213 l -4.685773230766202 -2.175472037996417 a26.166154213558613,26.166154213558613 0 0,0 0.19318322902311386,-0.4068931481884291 l 4.647631807901337 2.2558076018253783" fill="#ff3f05" stroke="none" /><path d="M 81.26839172434947 90.50648371742162 l -7.433035875943235 -3.7671963922599 a29.333174124600735,29.333174124600735 0 0,0 0.23213794452287964,-0.44841662079448286 l 7.367088498260241 3.894585735314718" fill="#ff6b09" stroke="none" /><path d="M 81.43458229118936 90.18545643968196 l -5.1318563210855475 -2.712938011875967 a26.80482402459775,26.80482402459775 0 0,0 0.2191510088998838,-0.4060535362214832 l 5.0843972129671915 2.800872531429923" fill="#ff4806" stroke="none" /><line stroke="#e1ed5e" stroke-width="0.3" x1="26.266209847984243" x2="21.928928074336255" y1="57.711370442889674" y2="55.22380399835377" /><path d="M 25.398753493254645 57.213857153982495 a86.0,86.0 0 0,1 29.58750427330803,-30.492523968695096" fill="none" id="id83" stroke="none" /><text fill="#e1ed5e" style="font-size:6.75px; font-family:Arial;" text-anchor="middle"><textPath startOffset="21.46611528233685" xlink:href="#id83">November</textPath></text><path d="M 81.78341655067845 89.55222093294921 l -7.5272082183202125 -4.3170888040274935 a29.6773336517508,29.6773336517508 0 0,0 0.25796714979254143,-0.4409494802756622 l 7.451781394057346 4.446017696657047" fill="#ff6f0a" stroke="none" /><path d="M 81.96595687620814 89.24020034530311 l -4.981743582164994 -2.9722986968158485 a26.801062718290098,26.801062718290098 0 0,0 0.23978553685271276,-0.3941443752241138 l 4.929842247026064 3.0576108452470367" fill="#ff4806" stroke="none" /><path d="M 82.34701348167596 88.62581576622439 l -5.911344863069101 -3.8088017272396555 a28.032138272784263,28.032138272784263 0 0,0 0.264841454830115,-0.4033717054340803 l 5.844906772881066 3.909991496651403" fill="#ff5908" stroke="none" /><path d="M 82.54541684631803 88.32363383020206 l -1.6231683763798945 -1.0858299021509465 a22.952870234932387,22.952870234932387 0 0,0 0.22250680107202025,-0.3265012746760304 l 1.604237109639134 1.1136092000973927" fill="#ff1101" stroke="none" /><path d="M 82.95767976084542 87.72973835380427 l -4.00389470569851 -2.882755103372926 a25.933705483745783,25.933705483745783 0 0,0 0.2639524979969849,-0.360030910632107 l 3.9536795951878916 2.951248457676534" fill="#ff3c05" stroke="none" /><path d="M 83.17141714833178 87.43820079747576 l -4.747007695708935 -3.5434330990278062 a26.92368130391952,26.92368130391952 0 0,0 0.28042175613835885,-0.3690021604093053 l 4.685309999346468 3.624620035318138" fill="#ff4906" stroke="none" /><path d="M 83.39014120810768 87.1503855733568 l -4.333368813923465 -3.352353510346308 a26.47871876772441,26.47871876772441 0 0,0 0.28199320969054287,-0.3581027394481865 l 4.2750215236389515 3.426448643747542" fill="#ff4306" stroke="none" /><path d="M 83.6137871275137 86.86637796730984 l -4.552079076729378 -3.6485114969466137 a26.83378608316666,26.83378608316666 0 0,0 0.2919790753953854,-0.3579318224402532 l 4.488601509257601 3.7263274889949494" fill="#ff4806" stroke="none" /><path d="M 83.84228863543731 86.58626213691792 l -6.382148877089482 -5.298304327195719 a29.294808800262693,29.294808800262693 0 0,0 0.32543657014406085,-0.3852142510723219 l 6.290001693458297 5.407377527897157" fill="#ff6a09" stroke="none" /><path d="M 84.07557802195018 86.31012108654704 l -7.5963186460742245 -6.530389774655831 a31.017487089166842,31.017487089166842 0 0,0 0.35154353802813804,-0.40187503441135014 l 7.4827832444682425 6.660180365270124" fill="#ff810b" stroke="none" /><path d="M 84.31358615837235 86.03803664274999 l -4.2871546400082945 -3.8158559754311123 a26.739377294844623,26.739377294844623 0 0,0 0.30897523555052303,-0.3411781722048255 l 4.220835763841727 3.8890869349054937" fill="#ff4706" stroke="none" /><path d="M 84.5562425177563 85.77008943001954 l -4.5370042727919255 -4.180405262882227 a27.169294605809128,27.169294605809128 0 0,0 0.31986368883656363,-0.34120828140009946 l 4.464373261984906 4.257882961160377" fill="#ff4d07" stroke="none" /><path d="M 84.80347519578584 85.50635884689758 l -4.154899271076672 -3.9627230460988376 a26.74163407862921,26.74163407862921 0 0,0 0.3205630925983574,-0.3303684452139713 l 4.086071914775196 4.033655686862932" fill="#ff4706" stroke="none" /><path d="M 85.05521093208273 85.24692304244772 l -5.431143082265884 -5.361472249357937 a28.631690498223826,28.631690498223826 0 0,0 0.3492578136349832,-0.34775798958946696 l 5.338049468463589 5.454166089597513" fill="#ff6108" stroke="none" /><path d="M 85.31137513191541 84.99185889309783 l -3.349369530951699 -3.4222271309347443 a25.788519060270456,25.788519060270456 0 0,0 0.31992101607717843,-0.3077637639931535 l 3.289965271262093 3.479373981690211" fill="#ff3a05" stroke="none" /><path d="M 85.57189188830299 84.74124197986013 l -8.125033233347846 -8.592804756760813 a32.82592316188543,32.82592316188543 0 0,0 0.4139069362106233,-0.3846813880002862 l 7.975918413342367 8.731390730835747" fill="#ff990e" stroke="none" /><path d="M 86.10567301691215 84.25364557470407 l -3.702803507830634 -4.196364204793784 a26.596447655153884,26.596447655153884 0 0,0 0.3458883232661431,-0.2999509454962615 l 3.6300213859177175 4.259480143709726" fill="#ff4506" stroke="none" /><path d="M 86.37877921826538 84.01681056812374 l -2.8724962563206677 -3.3705974334322413 a25.428562046628258,25.428562046628258 0 0,0 0.33558734843764954,-0.28104475334104995 l 2.8140513709239077 3.4195433441671037" fill="#ff3405" stroke="none" /><path d="M 86.65592168130627 83.78471172551755 l -5.418016861514698 -6.583797186081542 a29.526505268813995,29.526505268813995 0 0,0 0.3952285849205231,-0.31958069603332545 l 5.303884878029676 6.676083979379002" fill="#ff6d0a" stroke="none" /><path d="M 86.93701828274178 83.55741782278169 l -4.710300867461883 -5.928930375087479 a28.572261858562943,28.572261858562943 0 0,0 0.3877221169119277,-0.30262326219607016 l 4.60754619539053 6.009132026506771" fill="#ff6008" stroke="none" /><path d="M 87.22198572758235 83.33499621200491 l -3.2524259379443086 -4.241792928108868 a26.3451923938028,26.3451923938028 0 0,0 0.3622512206517033,-0.27284010913945994 l 3.1789285635342153 4.297149626754182" fill="#ff4106" stroke="none" /><path d="M 87.51073957382395 83.11751280151077 l -3.583816375792109 -4.844460922540901 a27.025988835487627,27.025988835487627 0 0,0 0.3763750959575601,-0.2734525136952668 l 3.4998959634807676 4.905432671052836" fill="#ff4b07" stroke="none" /><path d="M 87.80319425747018 82.90503203632743 l -6.699413863807793 -9.389857294998894 a32.53479805367324,32.53479805367324 0 0,0 0.4586924087441326,-0.32134334542600046 l 6.53679031548 9.503785483188837" fill="#ff950d" stroke="none" /><path d="M 88.39885842347998 82.49532879139004 l -2.031541739042413 -3.065342316007874 a24.67742917699036,24.67742917699036 0 0,0 0.35609879807147615,-0.23161656379817525 l 1.9784759151866496 3.099857803965584" fill="#ff2a04" stroke="none" /><path d="M 88.70189139769569 82.29822771554957 l -4.482278973241718 -7.022793326975317 a29.33129347144691,29.33129347144691 0 0,0 0.4279307883714486,-0.2679702204197563 l 4.3607290324980275 7.098907888718004" fill="#ff6a09" stroke="none" /><path d="M 89.00827224532344 82.1063720568725 l -3.0186482282298988 -4.914110819761317 a26.76721096152124,26.76721096152124 0 0,0 0.3946735188210347,-0.23778637905753333 l 2.933612643191215 4.965343808277469" fill="#ff4706" stroke="none" /><line stroke="#e1ed5e" stroke-width="0.3" x1="56.762969772571076" x2="54.21961505331055" y1="26.818313649435495" y2="22.513508569990535" /><path d="M 56.25429882871897 25.957352633546506 a86.0,86.0 0 0,1 42.265352541879196,-11.944610805530505" fill="none" id="id84" stroke="none" /><text fill="#e1ed5e" style="font-size:6.75px; font-family:Arial;" text-anchor="middle"><textPath startOffset="22.20632615414155" xlink:href="#id84">December</textPath></text><path d="M 89.3179101791058 81.91981866633112 l -5.921753402426877 -10.022980252396529 a32.641619152810534,32.641619152810534 0 0,0 0.48620976802960586,-0.2816440803117466 l 5.748346901931951 10.123428490098322" fill="#ff970d" stroke="none" /><path d="M 89.63071344664047 81.73862282372117 l -3.0373320808437563 -5.349053327099864 a27.151240335532403,27.151240335532403 0 0,0 0.4084010844671484,-0.22727476133949734 l 2.9448069073045624 5.400543485999546" fill="#ff4d07" stroke="none" /><path d="M 89.94658935756843 81.56283822128135 l -4.347164507530069 -7.972356661306167 a30.080545687930982,30.080545687930982 0 0,0 0.456730047415639,-0.24396937376622446 l 4.2092894135861245 8.04600476157414" fill="#ff750a" stroke="none" /><path d="M 90.26544431104013 81.39251694778311 l -2.729883371241734 -5.218138370970355 a26.88907728588913,26.88907728588913 0 0,0 0.411965648340477,-0.211024805912584 l 2.639657235312493 5.264355702195444" fill="#ff4906" stroke="none" /><path d="M 90.58718382345135 81.22770947309562 l -0.6994914651153814 -1.3950189569144078 a22.560565987044388,22.560565987044388 0 0,0 0.3486453283477711,-0.17107874847021393 l 0.6753748697571843 1.4068528655194514" fill="#ff0c01" stroke="none" /><path d="M 90.91171255644093 81.06846463323043 l -1.8623677717261886 -3.8794417050875065 a25.303310546583482,25.303310546583482 0 0,0 0.3942759303378347,-0.18511783595664916 l 1.7953136300887453 3.910924523684163" fill="#ff3304" stroke="none" /><path d="M 91.56875222667455 80.76684994638697 l -2.3239226003827933 -5.301273700857652 a26.788274276844085,26.788274276844085 0 0,0 0.4239132687125416,-0.1814975385319871 l 2.2323255738799435 5.340490767352425" fill="#ff4806" stroke="none" /><path d="M 91.90106846888425 80.62456947434976 l -3.1013789570182073 -7.419565443238342 a29.041672885757784,29.041672885757784 0 0,0 0.46289125566670936,-0.1888249656937052 l 2.9732038317631173 7.471851295115624" fill="#ff6709" stroke="none" /><path d="M 92.23578459929587 80.48803036053334 l -2.5377921761386877 -6.377633970279002 a27.864007880832265,27.864007880832265 0 0,0 0.44717332125819836,-0.17349630139380914 l 2.427635689880813 6.420372975563363" fill="#ff5608" stroke="none" /><path d="M 92.57280143429618 80.3572730644239 l -2.140560353217829 -5.66114425720807 a27.052317979641185,27.052317979641185 0 0,0 0.43698211369118023,-0.160944200316221 l 2.0427959137540794 5.697151725330613" fill="#ff4b07" stroke="none" /><path d="M 92.91201910852362 80.23233633223022 l -1.8922300102233882 -5.277238609536559 a26.606227051553777,26.606227051553777 0 0,0 0.43243733793683525,-0.15086889607645218 l 1.8011106682232676 5.309028358785221" fill="#ff4506" stroke="none" /><path d="M 93.59665428221793 80.00007090966166 l -1.0582465913246701 -3.3052809764450015 a24.470557330069553,24.470557330069553 0 0,0 0.40226639658384317,-0.12498612755108066 l 1.0011948220300984 3.323007238878607" fill="#ff2703" stroke="none" /><path d="M 94.28887869178378 79.79150937346287 l -1.235071112726996 -4.370231633627437 a25.541401235857787,25.541401235857787 0 0,0 0.4241114534822587,-0.11592568113967262 l 1.1596617700210148 4.390843855593405" fill="#ff3605" stroke="none" /><path d="M 94.98787191387505 79.60689891045804 l -1.0690963917310135 -4.349886997379419 a25.479339681781546,25.479339681781546 0 0,0 0.42681086532791973,-0.1010123421171254 l 0.9940618394405597 4.3676452516374145" fill="#ff3505" stroke="none" /><path d="M 95.33964822691252 79.52364482259891 l -0.7817938691913912 -3.434995837336133 a24.5228394877459,24.5228394877459 0 0,0 0.4124009137863242,-0.09013486651502939 l 0.722550231251546 3.4479442019470308" fill="#ff2803" stroke="none" /><path d="M 95.692805502759 79.44645832069477 l -1.8198761429878256 -8.68428397650336 a29.87292157974865,29.87292157974865 0 0,0 0.5041888978674751,-0.10113554974932626 l 1.6701208356532142 8.714323482329897" fill="#ff720a" stroke="none" /><path d="M 96.04723909329186 79.375362276772 l -0.8170069708960618 -4.262962822640401 a25.340547479029226,25.340547479029226 0 0,0 0.4291058246412653,-0.07841634667778712 l 0.7435060251519032 4.276394650668924" fill="#ff3304" stroke="none" /><path d="M 96.40284397218896 79.31037775812273 l -1.1082363205058827 -6.374199686841955 a27.469822979790443,27.469822979790443 0 0,0 0.4665563604488637,-0.07698579708321804 l 0.9983507539181334 6.3923317468648" fill="#ff5107" stroke="none" /><path d="M 96.75951476605007 79.25152402106235 l -1.4529802205445348 -9.303274981164662 a30.41605421057345,30.41605421057345 0 0,0 0.5179868799364226,-0.07633780128362885 l 1.2926243601794636 9.32690726660926" fill="#ff790b" stroke="none" /><path d="M 97.11714578562143 79.19881850522333 l -0.16729659371181027 -1.2071254910846838 a22.218663243678915,22.218663243678915 0 0,0 0.3792887392906056,-0.04924256401962754 l 0.1464931259133469 1.209826378268448" fill="#ff0701" stroke="none" /><path d="M 97.47563105711357 79.15227682838746 l -0.730792714239947 -6.035315972824982 a27.07939938505627,27.07939938505627 0 0,0 0.4632296146700324,-0.05204924460793609 l 0.6267963960601967 6.047001170903517" fill="#ff4c07" stroke="none" /><path d="M 97.83486435360386 79.11191278185805 l -0.5040974047136357 -4.863265991497544 a25.8893220693155,25.8893220693155 0 0,0 0.443662689972136,-0.042131118313808405 l 0.4203095876512634 4.871222654326533" fill="#ff3b05" stroke="none" /><path d="M 98.19473922651362 79.07773832637324 l -0.30038280400648043 -3.4813184443952236 a24.494253559807756,24.494253559807756 0 0,0 0.42037948986672785,-0.032629539105949935 l 0.24041312477741836 3.4859732456896357" fill="#ff2703" stroke="none" /><path d="M 98.55514903715128 79.0497635885617 l -0.37570696937767045 -5.4477243897655665 a26.460664497447684,26.460664497447684 0 0,0 0.4546672363619595,-0.02742676933971588 l 0.281877684176088 5.453384428485589" fill="#ff4306" stroke="none" /><path d="M 98.91598698831166 79.02799685794201 l -0.3391152797781757 -6.560739249754052 a27.569497596943194,27.569497596943194 0 0,0 0.4741417525503111,-0.020417541248489525 l 0.22613269483854045 6.565604517526734" fill="#ff5207" stroke="none" /><path d="M 99.27714615592234 79.0124445844662 l -0.1573322173181005 -4.568030808255173 a25.570739425057464,25.570739425057464 0 0,0 0.44002781650418954,-0.011364620291791448 l 0.07867776561903192 4.570062220689325" fill="#ff3605" stroke="none" /><path d="M 99.63851952072746 79.00311137660856 l -0.10711364009226995 -6.221783194460517 a27.222705155377774,27.222705155377774 0 0,0 0.46859411936480416,-0.004033337525816064 l 1.524123190114225e-15 6.222705155377774" fill="#ff4e07" stroke="none" /></svg>