<?xml version="1.0" encoding="utf-8" ?>
<svg baseProfile="full" height="200mm" version="1.1" viewBox="0,0,200,200" width="200mm" xmlns="http://www.w3.org/2000/svg" xmlns:ev="http://www.w3.org/2001/xml-events" xmlns:xlink="http://www.w3.org/1999/xlink"><defs /><rect fill="#1a1a1a" height="200" width="200" x="0" y="0" /><text alignment-baseline="middle" fill="#e1ed5e" style="dominant-baseline: central; font-size:9.0px; font-family:Arial;" text-anchor="middle" x="100.0" y="100.0">2024</text><line stroke="#e1ed5e" stroke-width="0.3" x1="100.0" x2="100.0" y1="15.0" y2="10.0" /><path d="M 100.0 14.0 a86.0,86.0 0 0,1 42.35913384403234,11.155469271406648" fill="none" id="id85" stroke="none" /><text fill="#e1ed5e" style="font-size:6.75px; font-family:Arial;" text-anchor="middle"><textPath startOffset="22.145653131862478" xlink:href="#id85">January</textPath></text><path d="M 100.0 79.0 l 0.0 -19.649288092370895 a40.649288092370895,40.649288092370895 0 0,0 0.6977990836877385,0.005989765889433191 l -0.3373061588388837 19.6463927246759" fill="#fff917" stroke="none" /><path d="M 100.36049292484886 79.00309439819443 l 0.16535892433652752 -9.631328343450587 a30.632747750938584,30.632747750938584 0 0,0 0.5256968782317956,0.01354008680804677 l -0.3306691166390645 9.627070539292495" fill="#ff780b" stroke="none" /><path d="M 100.72087961077811 79.0123766808444 l 0.40455965972866775 -11.77831307969188 a32.785258907699934,32.785258907699934 0 0,0 0.5623050328850229,0.02414779756172695 l -0.6066904532145269 11.769632713704324" fill="#ff950d" stroke="none" /><path d="M 101.44090949804482 79.04949213459386 l 0.48589995505010564 -7.064878706047028 a28.08156832188142,28.08156832188142 0 0,0 0.48063744429627614,0.03720437795217644 l -0.6071063941216153 7.055496561099798" fill="#ff5507" stroke="none" /><path d="M 101.80034050326958 79.07731436759882 l 1.548915179036672 -18.000742250359753 a39.067259332719416,39.067259332719416 0 0,0 0.667678877707806,0.06322988390204103 l -1.8576936201294911 17.97150061095253" fill="#ffe515" stroke="none" /><path d="M 102.15924093988457 79.11130261209362 l 1.6382821921869808 -15.84889407961076 a36.933342778210665,36.933342778210665 0 0,0 0.6300900357763987,0.07060290275079177 l -1.9101081295641762 15.818435416352997" fill="#ffcb12" stroke="none" /><path d="M 102.51750503828377 79.15144685158666 l 1.4632095232073636 -12.117473867162394 a33.20549691860877,33.20549691860877 0 0,0 0.5653191230256959,0.0731918785588112 l -1.6710064681238512 12.090570392403185" fill="#ff9a0e" stroke="none" /><path d="M 102.87502721639298 79.19773525538626 l 1.7867855268841686 -12.928289986319234 a34.051179429057164,34.051179429057164 0 0,0 0.5783428965139445,0.08499648945611192 l -2.008453529005795 12.89571242356424" fill="#ffa50f" stroke="none" /><path d="M 103.23170211078529 79.25015418208739 l 1.3251191944662957 -8.508215804844314 a29.61078841113551,29.61078841113551 0 0,0 0.5015820757226822,0.08253513968580246 l -1.4709787732420483 8.484214666662844" fill="#ff6a09" stroke="none" /><path d="M 103.58742460773223 79.30868818359171 l 2.199416305158492 -12.685648776015709 a33.87490259970249,33.87490259970249 0 0,0 0.5721072074502661,0.10425699109123288 l -2.4168582461598116 12.64602361099311" fill="#ffa30f" stroke="none" /><path d="M 103.94208987418118 79.37332000966035 l 2.469076904973431 -12.919253699410865 a34.15307784940143,34.15307784940143 0 0,0 0.5749158595094396,0.11499927335959599 l -2.6904892500138278 12.87496502938841" fill="#ffa70f" stroke="none" /><path d="M 104.29559338865022 79.4440306129975 l 2.392746235861088 -11.450156922483123 a32.69749238506765,32.69749238506765 0 0,0 0.5484421762062139,0.11953041967073703 l -2.588950828686436 11.407395044678667" fill="#ff940d" stroke="none" /><path d="M 104.64783097203109 79.52079915486377 l 2.3756056087476285 -10.467356640793403 a31.733548204292696,31.733548204292696 0 0,0 0.5302038910777009,0.12512667462398896 l -2.5549416535652147 10.425033822523186" fill="#ff870c" stroke="none" /><path d="M 104.9986988182912 79.60360301121754 l 2.893806481014722 -11.807717956423087 a33.157150952752005,33.157150952752005 0 0,0 0.5516634778389581,0.14023069880341443 l -3.0960752520790744 11.756302025784404" fill="#ff9a0e" stroke="none" /><path d="M 105.3480935250658 79.69241777938227 l 3.958316582606082 -15.030372801028857 a36.542856130906,36.542856130906 0 0,0 0.6052516678712762,0.16496403351293323 l -4.215749651412051 14.960208273371782" fill="#ffc612" stroke="none" /><path d="M 105.69591212413111 79.78721728523813 l 7.107079698980481 -25.220518603752424 a47.20276971027839,47.20276971027839 0 0,0 0.7780364820509399,0.22647508069984526 l -7.538976193413025 25.094799828750062" fill="#b8ff1f" stroke="none" /><path d="M 106.04205211174951 79.88797359093562 l 7.471138461620697 -24.868990082639932 a46.96699015371538,46.96699015371538 0 0,0 0.7701677621551336,0.23859994143095162 l -7.896946856647461 24.737073553402332" fill="#baff1f" stroke="none" /><path d="M 106.38641147887787 79.99465700312896 l 3.9364850523096853 -12.330983359585836 a33.94407452008217,33.94407452008217 0 0,0 0.5535749387961316,0.18197107777771276 l -4.14758272875356 12.261591360406102" fill="#ffa40f" stroke="none" /><path d="M 106.72888874123014 80.10723608172694 l 2.8954193283702243 -8.55979276202803 a30.036232910675075,30.036232910675075 0 0,0 0.48700780645696773,0.16940659550834497 l -3.0419329068722103 8.508827733951094" fill="#ff700a" stroke="none" /><path d="M 107.06938296918511 80.22567764915836 l 4.567781876703409 -12.776898868258273 a34.56885315576964,34.56885315576964 0 0,0 0.5570702344184758,0.2045639063052218 l -4.786441262776009 12.69660411294433" fill="#ffac0f" stroke="none" /><path d="M 107.40779381753099 80.34994680014964 l 6.3089824373574475 -16.735325467294814 a38.8850322306439,38.8850322306439 0 0,0 0.6225822099893201,0.24082817341302543 l -6.595336909840293 16.62455740574375" fill="#ffe315" stroke="none" /><path d="M 107.74402155503746 80.48000691201159 l 4.5637449406484505 -11.503618509280972 a33.37582347524261,33.37582347524261 0 0,0 0.5307479692215555,0.2158505785760911 l -4.760547371060445 11.423580674125589" fill="#ff9d0e" stroke="none" /><path d="M 108.07796709384702 80.6158196554323 l 6.343867832112703 -15.222973393075707 a37.491924629878866,37.491924629878866 0 0,0 0.5919527224581758,0.2526694175327104 l -6.604255629741308 15.111829325883594" fill="#ffd213" stroke="none" /><path d="M 108.4095320186766 80.7573450057729 l 7.540104237897499 -17.253234085813524 a39.828894240986045,39.828894240986045 0 0,0 0.6241502511328109,0.2791744684610152 l -7.835167891885942 17.121255866442656" fill="#ffef16" stroke="none" /><path d="M 108.73861861582097 80.90454125486305 l 5.319186071102184 -11.623381525604719 a33.78267337252957,33.78267337252957 0 0,0 0.5252582919868329,0.24584740249579815 l -5.517933076960522 11.530357891538387" fill="#ffa20f" stroke="none" /><path d="M 109.06512990194946 81.05736502329252 l 6.509722630942314 -13.602816609504298 a36.08022242686123,36.08022242686123 0 0,0 0.5563909636801866,0.2721587014427251 l -6.7422738438845675 13.489064157964352" fill="#ffc011" stroke="none" /><path d="M 109.71004243097381 81.37971332152246 l 7.643812533499468 -14.65801840744641 a37.53134518665439,37.53134518665439 0 0,0 0.568709228427081,0.30280563146273853 l -7.894310577713109 14.524642308261097" fill="#ffd213" stroke="none" /><path d="M 110.02825361518725 81.54914285379988 l 2.890484094368275 -5.318165171629119 a27.05291492526741,27.05291492526741 0 0,0 0.4061232694051966,0.22526973152460197 l -2.981351551929572 5.267762524671371" fill="#ff4706" stroke="none" /><path d="M 110.34350942703115 81.72400993836675 l 6.961737962806299 -12.300723919431073 a35.13412906424878,35.13412906424878 0 0,0 0.5223399870963523,0.30157313215858467 l -7.171870417763048 12.179403889996317" fill="#ffb410" stroke="none" /><line stroke="#e1ed5e" stroke-width="0.3" x1="143.13028292997686" x2="145.6673583964461" y1="26.7553504044142" y2="22.446841604673864" /><path d="M 143.63769802327073 25.89364864446614 a86.0,86.0 0 0,1 29.32050498858742,28.57503671076993" fill="none" id="id86" stroke="none" /><text fill="#e1ed5e" style="font-size:6.75px; font-family:Arial;" text-anchor="middle"><textPath startOffset="20.669276256404974" xlink:href="#id86">February</textPath></text><path d="M 110.65571695917076 81.90426304109057 l 7.350761465388143 -12.483199998182299 a35.486682722958136,35.486682722958136 0 0,0 0.5222748194335998,0.31361102289546894 l -7.563969041379176 12.35517497475091" fill="#ffb811" stroke="none" /><path d="M 110.96478420261332 82.08984904055464 l 8.143781424126987 -13.302254927377243 a36.5971523694836,36.5971523694836 0 0,0 0.5329867608922215,0.3326231583271447 l -8.370932313808922 13.160495972208553" fill="#ffc612" stroke="none" /><path d="M 111.27062007382361 82.28071324371311 l 2.7994920513467787 -4.401266487987533 a26.21615782390026,26.21615782390026 0 0,0 0.3776554480356047,0.24479169871299936 l -2.8746331316393907 4.352560947570638" fill="#ff3b05" stroke="none" /><path d="M 111.8722381534696 82.67804972795209 l 7.358231049357674 -10.735879004411933 a34.01547779273217,34.01547779273217 0 0,0 0.4788162957905504,0.3342509612093271 l -7.541442436321986 10.607983227397478" fill="#ffa50f" stroke="none" /><path d="M 112.7482090630111 83.31218511350987 l 6.26483674822126 -8.20087240738296 a31.3200042501948,31.3200042501948 0 0,0 0.4244457973137093,0.33005161922859383 l -6.404692490170195 8.092119736533576" fill="#ff810b" stroke="none" /><path d="M 113.03279911837588 83.53348406188908 l 6.8662919489212 -8.67533557340086 a32.06378834029893,32.06378834029893 0 0,0 0.42866113695385405,0.3452990686002679 l -7.0142038562303135 8.556188211007184" fill="#ff8b0c" stroke="none" /><path d="M 113.86319453409587 84.22622945171908 l 5.890654700911954 -6.702483717069 a29.923177728979244,29.923177728979244 0 0,0 0.3829240173503144,0.342413017541314 l -6.004843745085643 6.600375169644299" fill="#ff6e0a" stroke="none" /><path d="M 114.65682725009322 84.96080404539774 l 9.502487171954252 -9.750388961854304 a34.6149677693561,34.6149677693561 0 0,0 0.4219862587331471,0.4183795602453928 l -9.668465350817362 9.585829391380253" fill="#ffad10" stroke="none" /><path d="M 114.91283532996326 85.21462403516908 l 8.870902789782985 -8.795083563410614 a33.49185379329886,33.49185379329886 0 0,0 0.4012853556343449,0.4117541261911754 l -9.020574946568141 8.641506745151696" fill="#ff9e0e" stroke="none" /><path d="M 115.16444852881244 85.47280134310134 l 10.810725366152042 -10.356430352272303 a35.97088616561592,35.97088616561592 0 0,0 0.42333307957947847,0.44956506035858684 l -10.986914279467781 10.169323831969223" fill="#ffbe11" stroke="none" /><path d="M 115.6541949942343 86.00192230759917 l 8.838404845331477 -7.903356113004233 a32.85666218034993,32.85666218034993 0 0,0 0.37235819400826226,0.42367527193050636 l -8.97277410329833 7.750468563262429" fill="#ff960d" stroke="none" /><path d="M 115.8921839302757 86.27271002978787 l 10.34618661267967 -8.93678957790143 a34.671495360204005,34.671495360204005 0 0,0 0.38519277899397764,0.45375612510144264 l -10.49807395518076 8.757866670350436" fill="#ffae10" stroke="none" /><path d="M 116.35404254752997 86.82634096563983 l 10.65497671820549 -8.582895017959034 a34.681908337465465,34.681908337465465 0 0,0 0.36950034021444816,0.46685160923717745 l -10.800743489061498 8.398723464807178" fill="#ffae10" stroke="none" /><path d="M 116.57777611688842 87.10902102172516 l 7.103419120992986 -5.523661673130591 a29.99829992207976,29.99829992207976 0 0,0 0.3126223152704576,0.4092326460001682 l -7.19719341361775 5.400908113889541" fill="#ff6f0a" stroke="none" /><path d="M 116.7966241395341 87.39550010848427 l 3.1791867748696707 -2.3857210250145244 a24.97478217751647,24.97478217751647 0 0,0 0.2543835937668874,0.34512020072854416 l -3.219672388220384 2.3307945150171054" fill="#ff2904" stroke="none" /><path d="M 117.01052211995028 87.68569379921539 l 13.33175722427781 -9.651164114576813 a37.45845434582418,37.45845434582418 0 0,0 0.37259550215464055,0.5241022351935949 l -13.495467824962413 9.420884652673713" fill="#ffd113" stroke="none" /><path d="M 117.21940702142032 87.97951657250589 l 10.20149540438116 -7.121436080317842 a33.441276475171776,33.441276475171776 0 0,0 0.32455596950648763,0.4735368589826287 l -10.32224111070297 6.945264486265165" fill="#ff9d0e" stroke="none" /><path d="M 117.42321728460499 88.27688183743584 l 11.200375211290668 -7.5361122990203135 a34.49968123538996,34.49968123538996 0 0,0 0.32639254888082175,0.4941999193568429 l -11.328092199092213 7.342732501324412" fill="#ffab0f" stroke="none" /><path d="M 117.62189284568427 88.57770195909679 l 10.846882332122506 -7.0308180793673225 a33.92622370191967,33.92622370191967 0 0,0 0.3125773369649459,0.4914234914245851 l -10.965977360713342 6.8435809132640655" fill="#ffa40f" stroke="none" /><path d="M 117.81537515405839 88.88188828441811 l 12.309355334184701 -7.681948124515531 a35.50974002975136,35.50974002975136 0 0,0 0.31828907845045623,0.5199012892959378 l -12.43941237709056 7.469509719095039" fill="#ffb811" stroke="none" /><line stroke="#e1ed5e" stroke-width="0.3" x1="172.87174338648825" x2="177.1583165268699" y1="56.24261187166439" y2="53.66864786411523" /><path d="M 173.72905801456457 55.72781907015455 a86.0,86.0 0 0,1 12.242430191666344,42.057860355516425" fill="none" id="id87" stroke="none" /><text fill="#e1ed5e" style="font-size:6.75px; font-family:Arial;" text-anchor="middle"><textPath startOffset="22.145653131862474" xlink:href="#id87">March</textPath></text><path d="M 118.00360718960297 89.18935116829356 l 7.26227535178821 -4.360787686629763 a29.470957002195934,29.470957002195934 0 0,0 0.2567148963493736,0.435958017238238 l -7.336063958267352 4.235478501097968" fill="#ff6809" stroke="none" /><path d="M 118.18653347947321 89.5 l 11.774160426127748 -6.797814691506696 a34.59562938301339,34.59562938301339 0 0,0 0.2925252140242523,0.5168640239562131 l -11.889119005173375 6.594693897451364" fill="#ffad10" stroke="none" /><path d="M 118.36410011445183 89.81374322990088 l 20.068213676110258 -11.13149983653178 a43.948714316072824,43.948714316072824 0 0,0 0.36028454990184583,0.6628829921248368 l -20.256343575627444 10.78536201093234" fill="#ddff1b" stroke="none" /><path d="M 118.53625476483649 90.13048839642627 l 10.323815476980016 -5.496850250272606 a32.69600481688744,32.69600481688744 0 0,0 0.2595314371300705,0.4976857511995949 l -10.416654983085031 5.318818255968513" fill="#ff940d" stroke="none" /><path d="M 118.70294669586156 90.45014215332178 l 13.388299768720609 -6.8361612573214385 a36.03262024509456,36.03262024509456 0 0,0 0.2765590884910888,0.553303436571053 l -13.503678770423434 6.605325964586635" fill="#ffbf11" stroke="none" /><path d="M 118.8641267826498 90.77261029715802 l 2.4433701085269646 -1.19517475891808 a23.7200184175108,23.7200184175108 0 0,0 0.17577746987321835,0.36730730667428574 l -2.463526836360095 1.1530549501786906" fill="#ff1702" stroke="none" /><path d="M 119.16976305983485 91.42560881287824 l 10.667144132360464 -4.771277889809095 a32.685591839625985,32.685591839625985 0 0,0 0.22469961942212366,0.5141567026882589 l -10.747477633799559 4.587459117344987" fill="#ff930d" stroke="none" /><path d="M 119.31412917781788 91.75594674310238 l 13.554230910578857 -5.785495191335596 a35.73733796132323,35.73733796132323 0 0,0 0.23599262668098941,0.5662963939351662 l -13.651549381796329 5.551966287959153" fill="#ffbb11" stroke="none" /><path d="M 119.4528033332814 92.08871423366111 l 7.393498355509055 -3.0068714159730328 a28.981547070907418,28.981547070907418 0 0,0 0.18346882233990797,0.4624612830018215 l -7.444025852815088 2.8795091157576462" fill="#ff6109" stroke="none" /><path d="M 119.58574465831526 92.42381321644754 l 11.116439687947235 -4.30007767962131 a32.91914004391868,32.91914004391868 0 0,0 0.1993478347048478,0.528793815502117 l -11.188618206466524 4.108615583925035" fill="#ff970d" stroke="none" /><path d="M 119.71291397450082 92.76114493625339 l 7.692044104876235 -2.8246251412232204 a29.194269320677197,29.194269320677197 0 0,0 0.1687148362118433,0.4719254242081403 l -7.7393991111320215 2.692164760634163" fill="#ff6409" stroke="none" /><path d="M 119.83427380445688 93.10060997987247 l 8.32457833048148 -2.8957204695937944 a29.813841467733937,29.813841467733937 0 0,0 0.16399682516445852,0.4848274732725687 l -8.373060577218302 2.752391321847064" fill="#ff6d0a" stroke="none" /><path d="M 120.05942366710727 93.78553927170692 l 7.9473228426812295 -2.462100931737846 a29.319968831904795,29.319968831904795 0 0,0 0.14481786022019588,0.4820515572166069 l -7.988417022905053 2.3253117709305156" fill="#ff6609" stroke="none" /><path d="M 120.16314734710363 94.1308016681162 l 12.006192292962606 -3.4948275963600763 a33.504498122830626,33.504498122830626 0 0,0 0.15600573089212924,0.5536093029632665 l -12.064416515929318 3.2882103694937967" fill="#ff9e0e" stroke="none" /><path d="M 120.26092885502905 94.47779374421319 l 7.696339943691529 -2.097671675756661 a28.977084366366793,28.977084366366793 0 0,0 0.12668576954482233,0.48104650174045976 l -7.731215194041082 1.9652446696434027" fill="#ff6109" stroke="none" /><path d="M 120.35273937422433 94.82641323984039 l 17.681235084330034 -4.494500816504743 a39.24353616207409,39.24353616207409 0 0,0 0.16036118601499763,0.6543283623300876 l -17.755783796861323 4.190316629566561" fill="#ffe815" stroke="none" /><path d="M 120.592083275326 95.88100663000786 l 12.722543764779578 -2.5448650685748673 a33.974569667776436,33.974569667776436 0 0,0 0.1094850046446,0.5728718082598376 l -12.764355061706336 2.326090695281715" fill="#ffa40f" stroke="none" /><path d="M 120.7213421655516 96.59031103205396 l 19.374609046837033 -3.188084545753616 a40.63515619465892,40.63515619465892 0 0,0 0.10735132535277174,0.689272517409491 l -19.42648186432807 2.8550238464126836" fill="#fff917" stroke="none" /><path d="M 120.82617615685814 97.30363454192243 l 12.66137684113019 -1.6392687216795883 a33.767053906637386,33.767053906637386 0 0,0 0.06949245823820675,0.5754972430882614 l -12.68765138562806 1.421677801667914" fill="#ffa20e" stroke="none" /><path d="M 120.86939407059847 97.66154086499901 l 7.4218880025104195 -0.8316380312582302 a28.468336048735566,28.468336048735566 0 0,0 0.050250147969265115,0.48612459834316074 l -7.43507054296135 0.7041089106321381" fill="#ff5a08" stroke="none" /><path d="M 120.9064616781168 98.02013634271609 l 13.095972275950048 -1.240202190363509 a34.15456541758164,34.15456541758164 0 0,0 0.05026637549478439,0.5841714778107813 l -13.115332274142574 1.0152096651770657" fill="#ffa70f" stroke="none" /><path d="M 120.93736805541906 98.37931529534042 l 11.342990074934121 -0.878019169882868 a32.37692144223277,32.37692144223277 0 0,0 0.03813698981669878,0.554503462016074 l -11.356391025915887 0.6831722837124597" fill="#ff8f0d" stroke="none" /><path d="M 120.96210409425399 98.7389718711861 l 23.765564640400598 -1.4296773536634308 a44.8085287242332,44.8085287242332 0 0,0 0.03959881294815599,0.76820639228633 l -23.786605042805327 1.0214991680003702" fill="#d3ff1c" stroke="none" /><path d="M 120.98066250479742 99.09900007780936 l 7.966023307056329 -0.3420953164937197 a28.973365445916272,28.973365445916272 0 0,0 0.017074022197519936,0.4970915268884774 l -7.970722016250697 0.2052975250411223" fill="#ff6109" stroke="none" /><path d="M 120.99303781780057 99.45929381324524 l 22.51952030841277 -0.5800229609067604 a43.52698873698378,43.52698873698378 0 0,0 0.012827130814424643,0.7471160632774055 l -22.526158870825856 0.19335998166028845" fill="#e2ff1b" stroke="none" /><line stroke="#e1ed5e" stroke-width="0.3" x1="184.99686870605535" x2="189.99668451229388" y1="99.2704041080226" y2="99.22748670261217" /><path d="M 185.99683186730306 99.26182062694052 a86.0,86.0 0 0,1 -10.086455211305974,41.156179273409016" fill="none" id="id88" stroke="none" /><text fill="#e1ed5e" style="font-size:6.75px; font-family:Arial;" text-anchor="middle"><textPath startOffset="21.40746469413373" xlink:href="#id88">April</textPath></text><path d="M 120.99922638620191 99.81974689727618 l 12.755427233950655 -0.10949000183160917 a33.75589714528583,33.75589714528583 0 0,0 0.0,0.5794862091108706 l -12.755427233950655 -0.10949000183160763" fill="#ffa20e" stroke="none" /><path d="M 120.99922638620191 100.18025310272382 l 11.045530603580238 0.09481259575517223 a32.04593752213643,32.04593752213643 0 0,0 -0.009443736968597212,0.550050333834121 l -11.042275435012971 -0.2844098455583643" fill="#ff8b0c" stroke="none" /><path d="M 120.98066250479742 100.90099992219065 l 17.058584984774722 0.7325690378199482 a38.0743075724304,38.0743075724304 0 0,0 -0.03364755386123273,0.652753555891661 l -17.043495841456917 -1.0252943870883398" fill="#ffd914" stroke="none" /><path d="M 120.96210409425399 101.26102812881392 l 19.4542046320655 1.1703166416133373 a40.48937451299851,40.48937451299851 0 0,0 -0.0476927019217007,0.6934414188322591 l -19.431247968978735 -1.5041014845999399" fill="#fff717" stroke="none" /><path d="M 120.93736805541906 101.62068470465957 l 8.773464668968723 0.6791216526467158 a29.79970957002196,29.79970957002196 0 0,0 -0.043857193688992525,0.5096870700890518 l -8.76051385258199 -0.8296297701114249" fill="#ff6d0a" stroke="none" /><path d="M 120.9064616781168 101.97986365728391 l 8.309566938861897 0.7869246285343936 a29.346745059148546,29.346745059148546 0 0,0 -0.051800648942529705,0.5011242887583998 l -8.294833897437702 -0.9294534395757248" fill="#ff6609" stroke="none" /><path d="M 120.86939407059847 102.33845913500097 l 11.424429933950906 1.2801312031796828 a32.49592689664943,32.49592689664943 0 0,0 -0.0668764840729367,0.5538332243116908 l -11.400771363618306 -1.476058104414782" fill="#ff910d" stroke="none" /><path d="M 120.82617615685814 102.69636545807757 l 9.363444079307119 1.2122852987474928 a30.441595239781826,30.441595239781826 0 0,0 -0.0715456976138116,0.5176690274841298 l -9.341253865138096 -1.3728426344317077" fill="#ff750a" stroke="none" /><path d="M 120.7213421655516 103.40968896794604 l 13.762364818602524 2.2645918937070224 a34.94743925763264,34.94743925763264 0 0,0 -0.10248782975525529,0.5911225669474127 l -13.721462171355034 -2.500507493575023" fill="#ffb110" stroke="none" /><path d="M 120.65975698304385 103.76489593502545 l 8.851045564457687 1.6129553456849128 a29.996812353899553,29.996812353899553 0 0,0 -0.09666645293831967,0.5057997291282292 l -8.822052819237207 -1.7646576398464566" fill="#ff6f0a" stroke="none" /><path d="M 120.592083275326 104.11899336999214 l 14.85804067737272 2.9720242591726205 a36.15236948360133,36.15236948360133 0 0,0 -0.12695040404019764,0.60750363989592 l -14.804832562508158 -3.2266443503539497" fill="#ffc111" stroke="none" /><path d="M 120.51834098615036 104.47187691870673 l 22.72249655075312 4.952262365134349 a44.25589714528583,44.25589714528583 0 0,0 -0.16814951924833288,0.7408978074766082 l -22.634136169947123 -5.341594506549973" fill="#daff1c" stroke="none" /><path d="M 120.35273937422433 105.17358676015961 l 11.673594298582868 2.967382021464358 a33.044839555146275,33.044839555146275 0 0,0 -0.14446970839439835,0.548575014228416 l -11.620935109383739 -3.1673375400655774" fill="#ff980e" stroke="none" /><path d="M 120.26092885502905 105.52220625578681 l 17.41274487027272 4.745921045429865 a39.047920946376706,39.047920946376706 0 0,0 -0.18181736149949138,0.6452056741168788 l -17.32870901669865 -5.044134643449753" fill="#ffe515" stroke="none" /><path d="M 120.05942366710727 106.21446072829308 l 25.69203367039502 7.959457705480418 a47.89672026634554,47.89672026634554 0 0,0 -0.2500557399875291,0.7832960440040259 l -25.551613214630233 -8.399322783175826" fill="#b0ff20" stroke="none" /><path d="M 119.94978838288452 106.5578916946017 l 10.714691189277499 3.522131814724801 a32.278741942339025,32.278741942339025 0 0,0 -0.17755548893541492,0.5249112534947363 l -10.65265027876972 -3.705544742693698" fill="#ff8e0d" stroke="none" /><path d="M 119.83427380445688 106.89939002012753 l 7.557452631166222 2.628874330117303 a29.001629241340225,29.001629241340225 0 0,0 -0.16760156157988826,0.4688113969255192 l -7.511210899542391 -2.758220683423744" fill="#ff6209" stroke="none" /><path d="M 119.71291397450082 107.23885506374661 l 10.721523942496093 3.9370921002653856 a32.421548487639015,32.421548487639015 0 0,0 -0.19633457861190526,0.5208007957192254 l -10.652358680069748 -4.12056117617877" fill="#ff900d" stroke="none" /><path d="M 119.4528033332814 107.91128576633889 l 12.852326747149935 5.226929400201374 a34.87454841680244,34.87454841680244 0 0,0 -0.2302951689938821,0.5526245695727622 l -12.760705733619567 -5.446786479215414" fill="#ffb010" stroke="none" /><path d="M 119.31412917781788 108.2440532568976 l 12.799697919039113 5.463429924552352 a34.91694410993837,34.91694410993837 0 0,0 -0.2400392225229704,0.5492567165252168 l -12.704024814499176 -5.682348710853414" fill="#ffb110" stroke="none" /><path d="M 119.16976305983485 108.57439118712176 l 15.377091229692557 6.877977318337242 a37.84522207267833,37.84522207267833 0 0,0 -0.27035101151962304,0.5907657507598003 l -15.256755753317877 -7.140932051311731" fill="#ffd614" stroke="none" /><path d="M 119.0197475246899 108.90220220490707 l 11.30177460585544 5.289801175594177 a33.47846567967699,33.47846567967699 0 0,0 -0.2480925557826168,0.5184180232892125 l -11.209302792112913 -5.483031700948493" fill="#ff9e0e" stroke="none" /><path d="M 118.70294669586154 109.54985784667822 l 21.6116609744451 11.035068082732773 a45.265955939647235,45.265955939647235 0 0,0 -0.35930807644165064,0.6890206131225849 l -21.4190448290285 -11.40443493895986" fill="#ceff1d" stroke="none" /><line stroke="#e1ed5e" stroke-width="0.3" x1="174.33088141563837" x2="178.70328620479359" y1="141.23008692659167" y2="143.65538615756765" /><path d="M 175.20536237346943 141.71514677278685 a86.0,86.0 0 0,1 -30.301960400862466,31.631185727798858" fill="none" id="id89" stroke="none" /><text fill="#e1ed5e" style="font-size:6.75px; font-family:Arial;" text-anchor="middle"><textPath startOffset="22.145653131862474" xlink:href="#id89">May</textPath></text><path d="M 118.36410011445183 110.18625677009912 l 20.18398933029926 11.19571864028178 a44.081107884111354,44.081107884111354 0 0,0 -0.37273019014815445,0.6585785316747678 l -19.988825775129726 -11.540553942055672" fill="#dcff1b" stroke="none" /><path d="M 118.18653347947321 110.5 l 14.110441396944825 8.14666713891053 a37.29333427782107,37.29333427782107 0 0,0 -0.3248538703015359,0.5516728916115828 l -13.968513816513525 -8.387691198815663" fill="#ffcf13" stroke="none" /><path d="M 117.81537515405839 111.11811171558189 l 12.253197213170635 7.646901303566079 a35.443543245732094,35.443543245732094 0 0,0 -0.3265570744829449,0.513401960775563 l -12.1201224470618 -7.856116939020314" fill="#ffb811" stroke="none" /><path d="M 117.62189284568427 111.42229804090321 l 13.505083140713904 8.753831728025213 a37.09400014167316,37.09400014167316 0 0,0 -0.35093672813436,0.5313629350242385 l -13.352821973658818 -8.984374541388512" fill="#ffcd13" stroke="none" /><path d="M 117.423217284605 111.72311816256416 l 15.734213044753623 10.586680732127872 a39.964262945385,39.964262945385 0 0,0 -0.3878631880419361,0.5659039827849921 l -15.550160119896367 -10.85521944998291" fill="#fff116" stroke="none" /><path d="M 117.21940702142032 112.02048342749411 l 8.790838450334792 6.136687969253388 a31.72090387476093,31.72090387476093 0 0,0 -0.3155246609723822,0.4438249498934998 l -8.68419869083245 -6.286690145856392" fill="#ff870c" stroke="none" /><path d="M 117.01052211995028 112.31430620078461 l 18.13596149517402 13.129037517036842 a43.38938868031451,43.38938868031451 0 0,0 -0.4419477433434088,0.5995869923670316 l -17.90791173224678 -13.438430818672751" fill="#e4ff1a" stroke="none" /><path d="M 116.1254893667686 113.45245675266167 l 17.955413144169135 14.979044251263648 a44.38308422469363,44.38308422469363 0 0,0 -0.4930864208544118,0.5808545639183273 l -17.69563215980761 -15.285065597631531" fill="#d8ff1c" stroke="none" /><path d="M 115.89218393027572 113.72728997021213 l 8.870331039073989 7.66198068430165 a32.72129347595098,32.72129347595098 0 0,0 -0.37082408667811667,0.42192973940099804 l -8.737495888437286 -7.813122701513941" fill="#ff940d" stroke="none" /><path d="M 115.16444852881244 114.52719865689866 l 5.440811206236099 5.21217405944547 a28.534532832754834,28.534532832754834 0 0,0 -0.34188881351032213,0.3508080414221621 l -5.35053559157497 -5.30480479293537" fill="#ff5b08" stroke="none" /><path d="M 114.91283532996324 114.78537596483092 l 0.7986189352873984 0.7917931734371441 a22.124601544237443,22.124601544237443 0 0,0 -0.2697179409157068,0.26741267322158485 l -0.7849090742417267 -0.8053858568873907" fill="#ff0000" stroke="none" /><path d="M 114.65682725009322 115.03919595460226 l 43.55830066235111 44.69465375642014 a83.40943543245731,83.40943543245731 0 0,0 -1.0339890943575891,0.99053816261499 l -42.78463908212821 -45.43580404934071" fill="#4cd7ff" stroke="none" /><path d="M 113.31354834802062 116.24036423190432 l 9.161139665132273 11.17510081098807 a35.45023730254303,35.45023730254303 0 0,0 -0.47393461016249744,0.38176817387613504 l -8.967954284614523 -11.330717278657609" fill="#ffb811" stroke="none" /><path d="M 112.7482090630111 116.68781488649013 l 11.572903113056515 15.149301670171726 a40.06393001345895,40.06393001345895 0 0,0 -0.550110212946149,0.41281295942565127 l -11.3111399111996 -15.345733656861391" fill="#fff216" stroke="none" /><path d="M 112.16784306229584 117.11559508785304 l 8.371048510378778 11.774928064973345 a35.44726216618262,35.44726216618262 0 0,0 -0.4989707000368712,0.34832030064317826 l -8.167682719168148 -11.916893181421646" fill="#ffb811" stroke="none" /><line stroke="#e1ed5e" stroke-width="0.3" x1="143.1302829299769" x2="145.66735839644613" y1="173.24464959558577" y2="177.55315839532614" /><path d="M 143.63769802327073 174.10635135553383 a86.0,86.0 0 0,1 -40.68552437913181,11.842963189579606" fill="none" id="id90" stroke="none" /><text fill="#e1ed5e" style="font-size:6.75px; font-family:Arial;" text-anchor="middle"><textPath startOffset="21.407464694133747" xlink:href="#id90">June</textPath></text><path d="M 110.65571695917076 118.09573695890943 l 8.14709081241125 13.835541323651547 a37.05606715307785,37.05606715307785 0 0,0 -0.5509134893648467,0.3180700513849915 l -7.9083848551860045 -13.97335827231271" fill="#ffcc13" stroke="none" /><path d="M 110.34350942703117 118.27599006163325 l 5.812866192487901 10.270777584045293 a32.801622157682225,32.801622157682225 0 0,0 -0.49242390586272144,0.27313923979892785 l -5.635698098469085 -10.369049739277365" fill="#ff950d" stroke="none" /><path d="M 109.3889696526874 118.78422872680471 l 5.442370097608624 10.888385894414037 a33.17277041864419,33.17277041864419 0 0,0 -0.5115553192219205,0.25022734099538974 l -5.254654529124634 -10.98020698550665" fill="#ff9a0e" stroke="none" /><path d="M 109.06512990194946 118.94263497670748 l 4.455507815022762 9.310297710978599 a31.32149181837501,31.32149181837501 0 0,0 -0.4869914560514628,0.22793659107222713 l -4.295027645099793 -9.385410533621359" fill="#ff810b" stroke="none" /><path d="M 108.73861861582097 119.09545874513695 l 4.493112079261633 9.818260770813666 a31.79751363604165,31.79751363604165 0 0,0 -0.4982921695303213,0.22287974941039138 l -4.323906506875685 -9.893944271133908" fill="#ff880c" stroke="none" /><path d="M 108.4095320186766 119.2426549942271 l 7.596993825471601 17.38340859540824 a39.97095700219593,39.97095700219593 0 0,0 -0.6310936835142391,0.2693763663421277 l -7.2974650667869305 -17.511259611409773" fill="#fff116" stroke="none" /><path d="M 108.07796709384702 119.3841803445677 l 4.9176205429284785 11.800499106128411 a33.78416094070978,33.78416094070978 0 0,0 -0.5372414204082948,0.21849140864402603 l -4.7143246613297425 -11.883177771351727" fill="#ffa20f" stroke="none" /><path d="M 107.74402155503746 119.51999308798841 l 4.591447220773789 11.573446351665575 a33.45094566834313,33.45094566834313 0 0,0 -0.535577894262804,0.2071730350244302 l -4.392097064017456 -11.650559274828046" fill="#ff9e0e" stroke="none" /><path d="M 106.72888874123015 119.89276391827305 l 3.464779504144075 10.24300495303016 a31.813133101933836,31.813133101933836 0 0,0 -0.5188226062665974,0.17054729580622063 l -3.2884341602297433 -10.3009731702384" fill="#ff880c" stroke="none" /><path d="M 106.0420521117495 120.11202640906438 l 18.126156335248506 60.33607922719317 a84.0,84.0 0 0,0 -1.3845599504735728,0.4030252227899269 l -17.08773637239333 -60.63834814428561" fill="#4dd2ff" stroke="none" /><path d="M 105.3480935250658 120.30758222061773 l 2.546377461835362 9.669009980582423 a30.998689523269817,30.998689523269817 0 0,0 -0.515751335065705,0.13110197254379302 l -2.38002083354426 -9.711297184961486" fill="#ff7d0b" stroke="none" /><path d="M 104.9986988182912 120.39639698878246 l 2.2638790745020043 9.23739917459663 a30.510767160161507,30.510767160161507 0 0,0 -0.5097736743442806,0.12030519910349927 l -2.1049732464178446 -9.274900517346355" fill="#ff760a" stroke="none" /><path d="M 104.64783097203109 120.47920084513623 l 2.1510663494910442 9.477995234235149 a30.719026705390664,30.719026705390664 0 0,0 -0.5152569395485256,0.11229785179639022 l -1.9880469933233826 -9.513524544165257" fill="#ff790b" stroke="none" /><path d="M 104.29559338865022 120.5559693870025 l 0.3477979204666144 1.6643389536972346 a22.70029042997804,22.70029042997804 0 0,0 -0.3821253545935801,0.07643577296342947 l -0.3191760803420756 -1.6700641233235256" fill="#ff0801" stroke="none" /><path d="M 103.58742460773223 120.69131181640829 l 2.4827610977930092 14.319906243983068 a35.533541120634695,35.533541120634695 0 0,0 -0.6019085701332622,0.09904382616235136 l -2.2365750246066747 -14.36041606864109" fill="#ffb911" stroke="none" /><path d="M 102.15924093988457 120.88869738790638 l 2.492755487551796 24.115148096578885 a45.24364241694411,45.24364241694411 0 0,0 -0.7732363341663564,0.0732262847763399 l -2.0784195900004243 -24.154386136860406" fill="#ceff1d" stroke="none" /><path d="M 101.44090949804482 120.95050786540614 l 0.8106838342580545 11.787165029467184 a32.815010271304104,32.815010271304104 0 0,0 -0.5623174657599976,0.03382762238267426 l -0.6082220163655918 -11.79934462967455" fill="#ff950d" stroke="none" /><path d="M 101.08105385017728 120.97215588758144 l 0.7469050596942773 14.48975862077818 a35.50899624566126,35.50899624566126 0 0,0 -0.6090202721242401,0.02615395093796153 l -0.4980590269692077 -14.500445140141972" fill="#ffb811" stroke="none" /><line stroke="#e1ed5e" stroke-width="0.3" x1="101.45913802915013" x2="101.54496967792366" y1="184.9874750549273" y2="189.98673829345242" /><path d="M 101.47630435890484 185.9873277026323 a86.0,86.0 0 0,1 -42.54439059252881,-10.42667462771756" fill="none" id="id91" stroke="none" /><text fill="#e1ed5e" style="font-size:6.75px; font-family:Arial;" text-anchor="middle"><textPath startOffset="22.145653131862474" xlink:href="#id91">July</textPath></text><path d="M 100.0 121.0 l 1.802799456057281e-15 14.720974711340936 a35.720974711340936,35.720974711340936 0 0,0 -0.6131980310544369,-0.005263567602391834 l 0.252705106205583 -14.71880554193298" fill="#ffbb11" stroke="none" /><path d="M 99.63950707515114 120.99690560180557 l -0.2550288900237629 14.854154299442667 a35.856343415739886,35.856343415739886 0 0,0 -0.6153404177685619,-0.015848986398983966 l 0.5099826218630686 -14.847587595693637" fill="#ffbd11" stroke="none" /><path d="M 99.27912038922189 120.98762331915562 l -0.42033863541262156 12.237700740357687 a33.24491747538429,33.24491747538429 0 0,0 -0.5701887078849724,-0.024486356487594372 l 0.6303531038984327 -12.228681815444263" fill="#ff9b0e" stroke="none" /><path d="M 98.91894614982273 120.97215588758144 l -0.782245879405028 15.175361081791058 a36.19550896082737,36.19550896082737 0 0,0 -0.6202456346187798,-0.03731243717288379 l 1.042635866156254 -15.159696666793483" fill="#ffc112" stroke="none" /><path d="M 98.55909050195518 120.95050786540614 l -0.595011823960635 8.65134133324255 a29.67177870652405,29.67177870652405 0 0,0 -0.5078551070139373,-0.03931119718305323 l 0.7434359257498084 -8.639852369064444" fill="#ff6b09" stroke="none" /><path d="M 98.19965949673042 120.92268563240118 l -1.617462534743086 18.797366428826543 a39.86682722958136,39.86682722958136 0 0,0 -0.6813438904357577,-0.06452397481483862 l 1.9399059885638592 -18.76683069850652" fill="#ffef16" stroke="none" /><path d="M 97.48249496171623 120.84855314841334 l -1.495576680850523 12.385520364041119 a33.47549054331657,33.47549054331657 0 0,0 -0.569915728205746,-0.07378700112661085 l 1.7079702309470632 -12.35802176671411" fill="#ff9e0e" stroke="none" /><path d="M 97.12497278360702 120.80226474461374 l -1.364400710931837 9.872123868848888 a30.965963023305235,30.965963023305235 0 0,0 -0.5259419805282728,-0.07729535933086451 l 1.5336677970677948 -9.84724743621914" fill="#ff7c0b" stroke="none" /><path d="M 96.76829788921471 120.74984581791261 l -2.2316531860161795 14.3288143342014 a35.50155840476022,35.50155840476022 0 0,0 -0.6013668095832764,-0.09895467967001675 l 2.4772974986525194 -14.288393656035716" fill="#ffb811" stroke="none" /><path d="M 96.41257539226777 120.69131181640829 l -2.644890225775804 15.255023970048699 a36.482609619607565,36.482609619607565 0 0,0 -0.616148307690042,-0.1122827466411596 l 2.906373267016903 -15.207373049476173" fill="#ffc512" stroke="none" /><path d="M 96.05791012581884 120.62667999033965 l -2.234651428641696 11.692640548465901 a32.9042643621166,32.9042643621166 0 0,0 -0.5538939568107936,-0.11079430406714144 l 2.4350418709834476 -11.652556847735898" fill="#ff960d" stroke="none" /><path d="M 95.35216902796893 120.47920084513623 l -4.993035390404285 22.000235206978367 a43.559715236948364,43.559715236948364 0 0,0 -0.7277954032805648,-0.17175773349007184 l 5.369962947424738 -21.91128132984207" fill="#e2ff1b" stroke="none" /><path d="M 95.00130118170881 120.39639698878247 l -2.8394535541458557 11.585939466816363 a32.928809237090036,32.928809237090036 0 0,0 -0.5478643641824055,-0.13926497896823817 l 3.0379232115536396 -11.535489256012863" fill="#ff970d" stroke="none" /><path d="M 94.6519064749342 120.30758222061772 l -3.378500960298709 12.828718441840959 a34.266133031097255,34.266133031097255 0 0,0 -0.5675427802981722,-0.15468630852090626 l 3.598225141531576 -12.76883163917591" fill="#ffa80f" stroke="none" /><path d="M 94.30408787586889 120.21278271476187 l -4.104994683779128 14.56717796557252 a36.13451866543883,36.13451866543883 0 0,0 -0.5956000877834093,-0.1733705051850666 l 4.354454783944145 -14.494563766084937" fill="#ffc011" stroke="none" /><path d="M 92.93061703081489 119.77432235084164 l -5.694516429417614 15.92857594478967 a37.91588156123822,37.91588156123822 0 0,0 -0.6110069354724086,-0.22437021003338184 l 5.967112516544141 -15.82847488574757" fill="#ffd714" stroke="none" /><path d="M 92.25597844496254 119.51999308798841 l -3.8755764175348637 9.768984286083311 a31.509669193171355,31.509669193171355 0 0,0 -0.5010720693535512,-0.20378164844779004 l 4.042702948078856 -9.70101538105623" fill="#ff840c" stroke="none" /><path d="M 91.92203290615298 119.3841803445677 l -4.202064982196331 10.083426249226672 a31.923956931359356,31.923956931359356 0 0,0 -0.5040411609623123,-0.21514519947470162 l 4.374541218329075 -10.009806400092566" fill="#ff890c" stroke="none" /><path d="M 91.59046798132341 119.24265499422711 l -4.842167671163326 11.07982723812248 a33.09169795282284,33.09169795282284 0 0,0 -0.5185730606201722,-0.23195113403235973 l 5.031654134639133 -10.995072353180264" fill="#ff990e" stroke="none" /><path d="M 91.26138138417905 119.09545874513695 l -5.385420553775043 11.768115823665898 a33.941843167811854,33.941843167811854 0 0,0 -0.5277330888711634,-0.24700573239748494 l 5.586642356517696 -11.673933859697886" fill="#ffa40f" stroke="none" /><path d="M 90.93487009805054 118.94263497670748 l -6.5004115603481205 13.583360053071463 a36.05865268824821,36.05865268824821 0 0,0 -0.5560583380241862,-0.27199599756629306 l 6.732630147634376 -13.469770305407948" fill="#ffbf11" stroke="none" /><path d="M 90.28995756902619 118.62028667847754 l -6.570803665303735 12.6003824211586 a35.2107388255295,35.2107388255295 0 0,0 -0.5335452808905632,-0.28408281001676655 l 6.786137761980861 -12.48572914341926" fill="#ffb510" stroke="none" /><path d="M 89.97174638481275 118.45085714620012 l -5.363982648457813 9.869123915205575 a32.23262732875257,32.23262732875257 0 0,0 -0.48388205220893743,-0.2684012175670852 l 5.532608888822853 -9.77558978220534" fill="#ff8d0d" stroke="none" /><line stroke="#e1ed5e" stroke-width="0.3" x1="58.13341422392154" x2="55.67067388415222" y1="173.97424548756322" y2="178.32567169271397" /><path d="M 57.64086615596768 174.84453072859336 a86.0,86.0 0 0,1 -31.369924170532247,-30.572349798747897" fill="none" id="id92" stroke="none" /><text fill="#e1ed5e" style="font-size:6.75px; font-family:Arial;" text-anchor="middle"><textPath startOffset="22.145653131862474" xlink:href="#id92">August</textPath></text><path d="M 89.65649057296885 118.27599006163327 l -7.799945427885536 13.781756194738042 a36.83590706240703,36.83590706240703 0 0,0 -0.5476403637179892,-0.316180311411688 l 8.035378259463926 -13.645828986050184" fill="#ffc912" stroke="none" /><path d="M 89.34428304082925 118.09573695890944 l -6.64312282763064 11.281474886687109 a34.09208755401289,34.09208755401289 0 0,0 -0.5017498820724575,-0.30128638773944993 l 6.835805466260525 -11.165774498411741" fill="#ffa60f" stroke="none" /><path d="M 89.03521579738668 117.91015095944536 l -5.828803786109773 9.520912932999762 a32.16345540837288,32.16345540837288 0 0,0 -0.4684161145691882,-0.2923262993972145 l 5.991384029468674 -9.419450836761" fill="#ff8c0c" stroke="none" /><path d="M 88.72937992617639 117.7192867562869 l -9.453524990730704 14.862511474193752 a38.614294821846,38.614294821846 0 0,0 -0.5562561420891509,-0.36055851080614165 l 9.707266765076865 -14.698039121683715" fill="#ffe015" stroke="none" /><path d="M 88.1277618465304 117.32195027204791 l -7.2741321745721645 10.61317623277456 a33.86672097471134,33.86672097471134 0 0,0 -0.47672233171300343,-0.3327892116577552 l 7.455249597458934 -10.486742205311677" fill="#ffa30f" stroke="none" /><path d="M 87.83215693770417 117.11559508785305 l -7.756493569285271 10.910479577501563 a34.38662605369413,34.38662605369413 0 0,0 -0.4781689427070682,-0.3461574391825615 l 7.942643522366293 -10.775721366945938" fill="#ffaa0f" stroke="none" /><path d="M 87.54013794807813 116.9041958592261 l -6.333638172741472 8.592796591755087 a31.67478926117447,31.67478926117447 0 0,0 -0.43492051477814353,-0.32637246245429846 l 6.4802116764303825 -8.482805102036775" fill="#ff860c" stroke="none" /><path d="M 86.40962598614128 116.0094264158162 l -8.508303855952638 10.022760548486474 a34.147127576680596,34.147127576680596 0 0,0 -0.4436208147654239,-0.3831890939485938 l 8.679104150480924 -9.875227322073158" fill="#ffa70f" stroke="none" /><path d="M 85.86807049272751 115.53346607816431 l -9.098612119543787 10.000968561623244 a34.52050718991287,34.52050718991287 0 0,0 -0.43490945150443266,-0.4025456954913971 l 9.268951342362188 -9.84330511999947" fill="#ffac0f" stroke="none" /><path d="M 85.60350026404147 115.28858382429668 l -7.0371216567246435 7.4731793355216585 a31.264964227527095,31.264964227527095 0 0,0 -0.3875776388981904,-0.37129061070357866 l 7.164371781488148 -7.351276594512497" fill="#ff800b" stroke="none" /><path d="M 85.34317274990678 115.03919595460226 l -8.823478528364182 9.053666276134262 a33.6420981794999,33.6420981794999 0 0,0 -0.41012614084443105,-0.4066208102765285 l 8.977596589338576 -8.900865455629074" fill="#ffa00e" stroke="none" /><path d="M 85.08716467003676 114.78537596483092 l -7.976681984596763 7.908505625163869 a32.23262732875257,32.23262732875257 0 0,0 -0.38619783188101303,-0.3962729976819628 l 8.111266617628585 -7.770409935414168" fill="#ff8d0d" stroke="none" /><path d="M 84.58840730492382 114.26474011684316 l -12.204710670440196 11.296497990808815 a37.63026847063824,37.63026847063824 0 0,0 -0.4347233166149598,-0.47783707727600044 l 12.396831687897036 -11.085323337975142" fill="#ffd313" stroke="none" /><path d="M 84.1078160697243 113.72728997021213 l -12.540269383814284 10.83198601850095 a37.5707657434299,37.5707657434299 0 0,0 -0.41740304291156904,-0.49169973500480485 l 12.724366990232966 -10.615119501046593" fill="#ffd313" stroke="none" /><path d="M 83.8745106332314 113.45245675266167 l -7.349394247063058 6.131126071164219 a30.571013671459944,30.571013671459944 0 0,0 -0.3327191625576905,-0.4058632789412924 l 7.453560228859379 -6.004060510524431" fill="#ff770b" stroke="none" /><path d="M 83.64595745247003 113.17365903436017 l -10.63006973267231 8.562831713486503 a34.64992562159099,34.64992562159099 0 0,0 -0.3691595970153789,-0.46642109133635656 l 10.77549576032925 -8.379090678235466" fill="#ffad10" stroke="none" /><path d="M 83.4222238831116 112.89097897827486 l -8.270686207497702 6.431335619748517 a31.476942693206773,31.476942693206773 0 0,0 -0.32803174606383195,-0.42940408555806364 l 8.37986993091583 -6.288410620949583" fill="#ff830c" stroke="none" /><path d="M 83.20337586046588 112.60449989151573 l -13.087374599617869 9.821009885721272 a37.36250619820075,37.36250619820075 0 0,0 -0.3805602199562742,-0.516303027077154 l 13.254036839157973 -9.59490054937524" fill="#ffd013" stroke="none" /><path d="M 82.98947788004972 112.3143062007846 l -9.731315197330769 7.044721745238823 a33.0136006233619,33.0136006233619 0 0,0 -0.3283829863515324,-0.46191179483147815 l 9.850813282212263 -6.876632723697841" fill="#ff980e" stroke="none" /><path d="M 82.78059297857968 112.02048342749411 l -10.639390645628584 7.427120967366816 a33.97531345186654,33.97531345186654 0 0,0 -0.3297389322098451,-0.4810989564615406 l 10.765319314653754 -7.243387275835224" fill="#ffa40f" stroke="none" /><path d="M 82.576782715395 111.72311816256416 l -10.59314825768681 7.127542904957724 a33.76779769072749,33.76779769072749 0 0,0 -0.31946838821984164,-0.483715857597458 l 10.713941084827377 -6.944647169021205" fill="#ffa20e" stroke="none" /><path d="M 82.37810715431573 111.42229804090323 l -9.39264239692224 6.0881973229989566 a32.193206771977046,32.193206771977046 0 0,0 -0.29661028381938814,-0.4663206318227329 l 9.495770372367518 -5.926063016497552" fill="#ff8d0d" stroke="none" /><path d="M 82.18462484594161 111.11811171558189 l -11.140761624993084 6.952659221162921 a34.132251894878515,34.132251894878515 0 0,0 -0.30594205961399307,-0.4997333619410667 l 11.258471649062482 -6.760388743097296" fill="#ffa60f" stroke="none" /><line stroke="#e1ed5e" stroke-width="0.3" x1="26.387840678322732" x2="22.057713659400548" y1="142.50000000000003" y2="145.00000000000006" /><path d="M 25.521815274538298 143.00000000000003 a86.0,86.0 0 0,1 -11.493303480769221,-40.785679425670985" fill="none" id="id93" stroke="none" /><text fill="#e1ed5e" style="font-size:6.75px; font-family:Arial;" text-anchor="middle"><textPath startOffset="21.40746469413373" xlink:href="#id93">September</textPath></text><path d="M 81.81346652052679 110.50000000000001 l -9.790865937805222 5.6527590847913896 a32.30551816958277,32.30551816958277 0 0,0 -0.2731610548863588,-0.4826494101974482 l 9.88646035771296 -5.483852904494819" fill="#ff8e0d" stroke="none" /><path d="M 81.63589988554817 110.18625677009913 l -6.597261013702802 3.659389474361249 a28.54420202592619,28.54420202592619 0 0,0 -0.23400081525155822,-0.43053514400176296 l 6.65910717856969 -3.5455994968848987" fill="#ff5b08" stroke="none" /><path d="M 81.1358732173502 109.22738970284198 l -34.3274458397316 16.791273930460257 a59.21413898136998,59.21413898136998 0 0,0 -0.438807059406938,-0.9169379856057549 l 34.61063215709845 -16.199523442789395" fill="#39ff2e" stroke="none" /><path d="M 80.9802524753101 108.90220220490708 l -35.765936648309165 16.74026427941955 a60.48972869589856,60.48972869589856 0 0,0 -0.432114239099414,-0.9442475966361833 l 36.04803535226363 -16.123827700568675" fill="#30ff33" stroke="none" /><path d="M 80.83023694016515 108.57439118712176 l -34.233174664478035 15.312063599018186 a58.50159382305022,58.50159382305022 0 0,0 -0.40217371409780406,-0.9202521627771603 l 34.4909822605928 -14.722149366465176" fill="#40ff2d" stroke="none" /><path d="M 80.68587082218212 108.24405325689762 l -37.19580859653854 15.876678890364488 a61.44251611532195,61.44251611532195 0 0,0 -0.40573757294503093,-0.9736224714909198 l 37.46287201402006 -15.235823909432288" fill="#31ff3f" stroke="none" /><path d="M 80.16572619554312 106.89939002012753 l -7.679686945892282 2.671393769923998 a29.131047673018347,29.131047673018347 0 0,0 -0.16024098529066594,-0.47372400005472076 l 7.724413352755316 -2.5391680953951155" fill="#ff6309" stroke="none" /><path d="M 80.05021161711548 106.5578916946017 l -10.911829071222128 3.5869349521758838 a32.486257703478074,32.486257703478074 0 0,0 -0.16960190936448394,-0.5312755654693307 l 10.971795696363868 -3.3990903530151613" fill="#ff910d" stroke="none" /><path d="M 79.83685265289637 105.86919833188381 l -6.361596534957822 1.851768036424911 a27.625628674647587,27.625628674647587 0 0,0 -0.12863217281880474,-0.4564702022524238 l 6.392447199851201 -1.7422899102694913" fill="#ff4f07" stroke="none" /><path d="M 79.73907114497094 105.5222062557868 l -15.292214843829047 4.167961157144463 a36.85003896011901,36.85003896011901 0 0,0 -0.16110577187115988,-0.61174485695806 l 15.36151009650494 -3.9048357958136" fill="#ffca12" stroke="none" /><path d="M 79.64726062577567 105.17358676015961 l -11.117811835682573 2.826104292765516 a32.47138202167599,32.47138202167599 0 0,0 -0.13268807660544638,-0.5414126324673867 l 11.164687438804313 -2.6348358356900294" fill="#ff910d" stroke="none" /><path d="M 79.56144815229197 104.8234425847677 l -9.092889769747844 2.1458972270052823 a30.342671955797975,30.342671955797975 0 0,0 -0.11528645968530846,-0.5079734131528449 l 9.128387090990818 -1.989489479913411" fill="#ff740a" stroke="none" /><path d="M 79.48165901384964 104.47187691870673 l -13.091216070146372 2.8531696115882634 a34.39852659913579,34.39852659913579 0 0,0 -0.12079171884234198,-0.5780321017550613 l 13.13826549981308 -2.628021058547793" fill="#ffaa0f" stroke="none" /><path d="M 79.407916724674 104.11899336999214 l -10.556414724341874 2.111578594505427 a31.765530920167173,31.765530920167173 0 0,0 -0.10236625023778574,-0.5356234771041015 l 10.591107266861817 -1.9300525523680108" fill="#ff870c" stroke="none" /><path d="M 79.34024301695615 103.76489593502545 l -12.307753504809714 2.24288268141702 a33.510448395551464,33.510448395551464 0 0,0 -0.09827367049319526,-0.566816416193087 l 12.344441992795144 -2.0312732323033402" fill="#ff9e0e" stroke="none" /><path d="M 79.2786578344484 103.40968896794605 l -16.101350349579825 2.649471072740962 a37.317879152794504,37.317879152794504 0 0,0 -0.09858763104578534,-0.6330033133085414 l 16.144459472763877 -2.3726795775009704" fill="#ffcf13" stroke="none" /><path d="M 79.22317932658666 103.0534771498775 l -12.43268347656437 1.8271763280860065 a33.56623220230927,33.56623220230927 0 0,0 -0.07888941036976034,-0.5708044747197824 l 12.462217403489342 -1.6134835451661385" fill="#ff9f0e" stroke="none" /><path d="M 79.17382384314188 102.69636545807758 l -19.017513412060502 2.4621978550738906 a40.17624141106467,40.17624141106467 0 0,0 -0.08268253979592455,-0.684730039927239 l 19.05697803811609 -2.1353741382232525" fill="#fff316" stroke="none" /><path d="M 79.0935383218832 101.97986365728391 l -15.98677153894389 1.513963886121686 a37.05829850534816,37.05829850534816 0 0,0 -0.0545398931326685,-0.633836230628144 l 16.0104050547743 -1.23930660811788" fill="#ffcc13" stroke="none" /><path d="M 79.03789590574601 101.26102812881392 l -15.088646366349929 0.9076954969853814 a36.11592406318623,36.11592406318623 0 0,0 -0.031916864091421714,-0.6191786367148149 l 15.102004819897923 -0.6485450668938358" fill="#ffc011" stroke="none" /><path d="M 79.01933749520258 100.90099992219065 l -16.351154556760022 0.7021889313552117 a37.36622511865127,37.36622511865127 0 0,0 -0.02201993959950214,-0.6410865155779466 l 16.360799183356374 -0.42139615121314505" fill="#ffd013" stroke="none" /><path d="M 79.00696218219943 100.54070618675478 l -14.130930216310118 0.3639626365118079 a35.135616632428984,35.135616632428984 0 0,0 -0.01035424604061116,-0.6030829225946708 l 14.135095893949394 -0.12133279794808477" fill="#ffb410" stroke="none" /><line stroke="#e1ed5e" stroke-width="0.3" x1="15.003131293944662" x2="10.003315487706104" y1="100.72959589197737" y2="100.7725132973878" /><path d="M 14.003168132696942 100.73817937305945 a86.0,86.0 0 0,1 10.791469493833604,-42.45332614584628" fill="none" id="id94" stroke="none" /><text fill="#e1ed5e" style="font-size:6.75px; font-family:Arial;" text-anchor="middle"><textPath startOffset="22.145653131862435" xlink:href="#id94">October</textPath></text><path d="M 79.00077361379809 100.18025310272382 l -20.25844472293574 0.1738943830839218 a41.25919104625629,41.25919104625629 0 0,0 0.0,-0.7082949716154713 l 20.25844472293574 0.17389438308391436" fill="#feff18" stroke="none" /><path d="M 79.00077361379809 99.81974689727619 l -10.920579479655826 -0.09374004063518299 a31.920981794998937,31.920981794998937 0 0,0 0.009406913298861303,-0.5479055396811 l 10.917361134758298 0.28119249628533544" fill="#ff890c" stroke="none" /><path d="M 79.01933749520258 99.09900007780938 l -12.371858399177318 -0.5313008324910279 a33.38326131614366,33.38326131614366 0 0,0 0.029501917561123237,-0.5723293191851327 l 12.360914892159625 0.7436019450528726" fill="#ff9d0e" stroke="none" /><path d="M 79.06263194458094 98.37931529534042 l -13.538024765167187 -1.0479287372765247 a34.57852234894099,34.57852234894099 0 0,0 0.05089032658432818,-0.5914227352661545 l 13.518040815885115 1.2801725199183598" fill="#ffac0f" stroke="none" /><path d="M 79.0935383218832 98.0201363427161 l -7.62611209261617 -0.7222007440095962 a28.660232343982432,28.660232343982432 0 0,0 0.05058886875766988,-0.48940141470824267 l 7.612590831376836 0.8530066810007516" fill="#ff5d08" stroke="none" /><path d="M 79.13060592940154 97.66154086499901 l -20.544903598224987 -2.302099300749188 a41.673478784444285,41.673478784444285 0 0,0 0.08576384816026932,-0.7102476934071257 l 20.50235766380505 2.65444067107975" fill="#f9ff18" stroke="none" /><path d="M 79.17382384314186 97.30363454192245 l -12.326493934874842 -1.5959114248754709 a33.429375929730114,33.429375929730114 0 0,0 0.078567762393787,-0.5684771901943753 l 12.297281655925847 1.807276923269913" fill="#ff9d0e" stroke="none" /><path d="M 79.22317932658666 96.9465228501225 l -5.206347179443203 -0.7651537449664673 a26.26227243748672,26.26227243748672 0 0,0 0.06938055656619366,-0.445472943408034 l 5.192445130738742 0.8544148703059512" fill="#ff3b05" stroke="none" /><path d="M 79.2786578344484 96.59031103205396 l -17.647708213956715 -2.903923670865993 a38.8850322306439,38.8850322306439 0 0,0 0.11403532413069312,-0.6577254458777153 l 17.595258072333788 3.206442149664301" fill="#ffe315" stroke="none" /><path d="M 79.34024301695615 96.23510406497455 l -13.681216841820884 -2.4931734538914356 a34.90653113267692,34.90653113267692 0 0,0 0.11248830406268984,-0.5885863398888403 l 13.636402245476035 2.7276623588135904" fill="#ffb110" stroke="none" /><path d="M 79.407916724674 95.88100663000787 l -12.66565552735395 -2.5334858278417287 a33.91655450874832,33.91655450874832 0 0,0 0.11909925573453545,-0.569933053105665 l 12.620298560795048 2.750535332232803" fill="#ffa40f" stroke="none" /><path d="M 79.56144815229197 95.17655741523228 l -4.2463889331534785 -1.0021362259066167 a25.363037472550825,25.363037472550825 0 0,0 0.10364118955140014,-0.42289142101236765 l 4.22856021708578 1.074883471527102" fill="#ff2f04" stroke="none" /><path d="M 79.64726062577567 94.8264132398404 l -13.52043563444611 -3.4368418670239214 a34.95041439399306,34.95041439399306 0 0,0 0.15280074721916637,-0.5802093256188585 l 13.459445406422219 3.6684316970155644" fill="#ffb110" stroke="none" /><path d="M 79.73907114497095 94.47779374421319 l -16.149755751307957 -4.4016877447928815 a37.73886094779344,37.73886094779344 0 0,0 0.17572203480299572,-0.6235755099909689 l 16.07181522443038 4.678271178686863" fill="#ffd513" stroke="none" /><path d="M 79.83685265289637 94.1308016681162 l -14.707799802139242 -4.2812261686316795 a36.31823333569455,36.31823333569455 0 0,0 0.1793838482164329,-0.5971104892777701 l 14.632139633919179 4.533074261500173" fill="#ffc312" stroke="none" /><path d="M 79.94057633289273 93.78553927170692 l -12.408367016576769 -3.8441438202039593 a33.99018913366863,33.99018913366863 0 0,0 0.177453526021645,-0.5558706428184845 l 12.340548774777867 4.056583496713835" fill="#ffa50f" stroke="none" /><path d="M 80.41425534168474 92.42381321644754 l -14.71254722880954 -5.6911293296155 a36.77491676701849,36.77491676701849 0 0,0 0.23280505538179372,-0.5868208190801454 l 14.612683498461614 5.942851165909229" fill="#ffc912" stroke="none" /><path d="M 80.5471966667186 92.08871423366112 l -12.937760890853513 -5.261674722685817 a34.96677764397535,34.96677764397535 0 0,0 0.23090420757423924,-0.5540860404529044 l 12.845530838742796 5.482993272579985" fill="#ffb110" stroke="none" /><path d="M 80.68587082218212 91.75594674310238 l -22.367832962254337 -9.547497818022173 a45.320252178224834,45.320252178224834 0 0,0 0.3115575653800927,-0.7129046810376455 l 22.200641514857267 9.930064568835684" fill="#cdff1d" stroke="none" /><path d="M 80.83023694016515 91.42560881287825 l -7.982535393301639 -3.570486547672677 a29.744669547354256,29.744669547354256 0 0,0 0.21248392951695919,-0.46431573323840325 l 7.920066998929633 3.7069912631257513" fill="#ff6c09" stroke="none" /><path d="M 80.9802524753101 91.09779779509293 l -9.263992631562497 -4.33601631798123 a31.228518807111993,31.228518807111993 0 0,0 0.23141929855123006,-0.48357732833800554 l 9.188194075051362 4.494406148384322" fill="#ff800b" stroke="none" /><path d="M 81.29705330413844 90.45014215332179 l -10.136448620106021 -5.175742890482043 a32.38138414677339,32.38138414677339 0 0,0 0.2570340691757107,-0.4928967188568064 l 10.046106481955372 5.348985852443336" fill="#ff8f0d" stroke="none" /><path d="M 81.46374523516351 90.13048839642627 l -10.016562971846366 -5.333255597355115 a32.347913862718706,32.347913862718706 0 0,0 0.2651830381766234,-0.4879069220569284 l 9.92353458405439 5.504417352886663" fill="#ff8f0d" stroke="none" /><path d="M 81.63589988554816 89.8137432299009 l -9.29977698648553 -5.158429528188604 a31.63462492030885,31.63462492030885 0 0,0 0.2674882807576374,-0.4726261618667159 l 9.209855340706524 5.317312460154425" fill="#ff850c" stroke="none" /><line stroke="#e1ed5e" stroke-width="0.3" x1="26.387840678322718" x2="22.05771365940052" y1="57.49999999999999" y2="54.99999999999999" /><path d="M 25.521815274538284 56.99999999999999 a86.0,86.0 0 0,1 29.574782752854787,-30.34633250058573" fill="none" id="id95" stroke="none" /><text fill="#e1ed5e" style="font-size:6.75px; font-family:Arial;" text-anchor="middle"><textPath startOffset="21.40746469413373" xlink:href="#id95">November</textPath></text><path d="M 81.81346652052679 89.5 l -11.677540038583619 -6.742030884748887 a34.48406176949777,34.48406176949777 0 0,0 0.30038292757855917,-0.510115881008893 l 11.56008340087528 6.941497934051353" fill="#ffab0f" stroke="none" /><path d="M 81.99639281039701 89.18935116829357 l -10.54684645873888 -6.3330782629604165 a33.30218885032231,33.30218885032231 0 0,0 0.29850184739938496,-0.4875803344421517 l 10.436576646884102 6.513195713527111" fill="#ff9c0e" stroke="none" /><path d="M 82.37810715431573 88.57770195909679 l -11.163319948923599 -7.235929119486962 a34.303322235602465,34.303322235602465 0 0,0 0.3245348472400644,-0.4913871222994441 l 11.037460662762806 7.426496120125467" fill="#ffa90f" stroke="none" /><path d="M 82.576782715395 88.27688183743585 l -10.18339348411673 -6.851841606525241 a33.27392505489835,33.27392505489835 0 0,0 0.3229317820298272,-0.4711671209147456 l 10.064271965271589 7.025643462510021" fill="#ff9b0e" stroke="none" /><path d="M 82.78059297857968 87.97951657250589 l -11.332826424595604 -7.911192996022374 a34.82099596231494,34.82099596231494 0 0,0 0.3463609671750661,-0.4872000763039986 l 11.195350358890565 8.104570299035894" fill="#ffaf10" stroke="none" /><path d="M 82.98947788004972 87.6856937992154 l -10.215109532611645 -7.394951534826908 a33.610859247715524,33.610859247715524 0 0,0 0.34234737681613714,-0.4644599663685392 l 10.08666013621169 7.569217810464311" fill="#ffa00e" stroke="none" /><path d="M 83.2033758604659 87.39550010848427 l -10.072977258999488 -7.558949924316232 a33.59375221364313,33.59375221364313 0 0,0 0.3500917259621514,-0.4582813073798336 l 9.94173355568303 7.730752144936949" fill="#ff9f0e" stroke="none" /><path d="M 83.42222388311158 87.10902102172516 l -8.878980323000164 -6.9043488031972915 a32.24750301055465,32.24750301055465 0 0,0 0.3435642357832561,-0.4340821885540486 l 8.759149656575346 7.055750935666023" fill="#ff8e0d" stroke="none" /><path d="M 83.8745106332314 86.54754324733833 l -12.523326675112814 -10.447404519926774 a37.30895374371325,37.30895374371325 0 0,0 0.4144943684890426,-0.4882733238488272 l 12.342137743116657 10.660844626225158" fill="#ffcf13" stroke="none" /><path d="M 84.10781606972428 86.27271002978789 l -9.341456559710128 -8.068927688093797 a33.343840759368135,33.343840759368135 0 0,0 0.377879294564578,-0.42995727086914404 l 9.201566201186958 8.228097236774241" fill="#ff9c0e" stroke="none" /><path d="M 84.34580500576568 86.00192230759919 l -12.377980564081637 -11.068466546817604 a37.604979811574694,37.604979811574694 0 0,0 0.43443116962301137,-0.47751595655523055 l 12.18615169361676 11.27932007893049" fill="#ffd313" stroke="none" /><path d="M 84.83555147118756 85.47280134310135 l -9.53887532307534 -9.138026781416734 a34.20960544024935,34.20960544024935 0 0,0 0.409885155056669,-0.42057827799946207 l 9.380603366867868 9.300427751483927" fill="#ffa70f" stroke="none" /><path d="M 85.60350026404147 84.71141617570332 l -7.016215781213763 -7.450978020199841 a31.234469079832827,31.234469079832827 0 0,0 0.39351002987326794,-0.36422700888706666 l 6.8872759800265415 7.570322775219273" fill="#ff800b" stroke="none" /><path d="M 85.86807049272753 84.46653392183569 l -11.950625094412331 -13.13583042014065 a38.7585889353262,38.7585889353262 0 0,0 0.49598992180466983,-0.4435172465033639 l 11.72337014578427 13.339043196527413" fill="#ffe215" stroke="none" /><path d="M 86.13680546590413 84.22622945171909 l -13.400171496423122 -15.24693532737601 a41.2986116030318,41.2986116030318 0 0,0 0.5365289858386283,-0.46344095930073453 l 13.136463030821645 15.474720419141454" fill="#fdff18" stroke="none" /><path d="M 86.40962598614128 83.9905735841838 l -8.01010887457048 -9.435888113111757 a33.37731104342282,33.37731104342282 0 0,0 0.43998554064193285,-0.36705158663151877 l 7.8469489997666395 9.572001883655158" fill="#ff9d0e" stroke="none" /><path d="M 86.68645165197937 83.75963576809568 l -10.654988257840698 -12.997353197708792 a37.80654529999292,37.80654529999292 0 0,0 0.5054361175477393,-0.40714355835097876 l 10.430301369937713 13.178345049853169" fill="#ffd614" stroke="none" /><path d="M 87.25179093698888 83.31218511350988 l -14.2598972383657 -18.6666632338716 a44.49018913366862,44.49018913366862 0 0,0 0.6108863361661272,-0.4584204953310378 l 13.93735791328882 18.908702756466635" fill="#d7ff1c" stroke="none" /><path d="M 87.54013794807813 83.09580414077388 l -5.362762756072629 -7.275617627021171 a30.038464262945386,30.038464262945386 0 0,0 0.41770485638014215,-0.30238610353923695 l 5.237076889318519 7.366604501933487" fill="#ff700a" stroke="none" /><path d="M 87.83215693770416 82.88440491214696 l -8.687807193200461 -12.220488821138671 a35.99394347240915,35.99394347240915 0 0,0 0.5066660180218165,-0.35369223024518326 l 8.47674608400488 12.367825867188982" fill="#ffbf11" stroke="none" /><path d="M 88.12776184653039 82.6780497279521 l -9.667165656593694 -14.104683599715997 a38.09959623149395,38.09959623149395 0 0,0 0.5426538407069427,-0.36512172189908 l 9.423615527789762 14.268554995672188" fill="#ffd914" stroke="none" /><path d="M 88.4268655584334 82.4767994020092 l -7.909442593485478 -11.975904184275354 a35.352057802649284,35.352057802649284 0 0,0 0.5092621625991199,-0.3300975810658543 l 7.702694798629332 12.109915607045114" fill="#ffb610" stroke="none" /><path d="M 88.72937992617638 82.28071324371311 l -7.374963018484502 -11.594666813855646 a34.7414110646738,34.7414110646738 0 0,0 0.5059604628590342,-0.3157567494980766 l 7.17483842683577 11.719559360195259" fill="#ffae10" stroke="none" /><path d="M 89.03521579738668 82.08984904055464 l -8.636602531767288 -14.10724116976359 a37.54101437982574,37.54101437982574 0 0,0 0.5525094204957364,-0.3317660321226301 l 8.393160354714118 14.253421202422142" fill="#ffd213" stroke="none" /><line stroke="#e1ed5e" stroke-width="0.3" x1="56.869717070023135" x2="54.33264160355391" y1="26.7553504044142" y2="22.446841604673864" /><path d="M 56.362301976729285 25.89364864446614 a86.0,86.0 0 0,1 42.16139366436587,-11.88097634709845" fill="none" id="id96" stroke="none" /><text fill="#e1ed5e" style="font-size:6.75px; font-family:Arial;" text-anchor="middle"><textPath startOffset="22.145653131862474" xlink:href="#id96">December</textPath></text><path d="M 89.34428304082924 81.90426304109057 l -11.10709605824167 -18.862277350028496 a42.88956577176454,42.88956577176454 0 0,0 0.6376402611496037,-0.368141776420865 l 10.781663329231666 19.050166023725534" fill="#eaff1a" stroke="none" /><path d="M 89.65649057296885 81.72400993836675 l -6.873814102832954 -12.145370883559712 a34.95562088262379,34.95562088262379 0 0,0 0.5247601257075741,-0.2910755958556505 l 6.664309788969277 12.261579394848509" fill="#ffb110" stroke="none" /><path d="M 89.97174638481275 81.54914285379989 l -5.4694721761092495 -10.06321276455109 a32.45353120351349,32.45353120351349 0 0,0 0.4917655521989426,-0.26183745774105205 l 5.295917808123745 10.155620690014718" fill="#ff900d" stroke="none" /><path d="M 90.61103034731259 81.2157712731953 l -8.128305773912238 -16.26205648400111 a39.180314514415244,39.180314514415244 0 0,0 0.6041972993420284,-0.2955431758209623 l 7.847948225308158 16.399193409919288" fill="#ffe715" stroke="none" /><path d="M 90.93487009805054 81.0573650232925 l -5.748462342016824 -12.012075392185691 a34.31671034922434,34.31671034922434 0 0,0 0.5335615824677938,-0.24973376169860068 l 5.541412045677507 12.108985385454835" fill="#ffa90f" stroke="none" /><path d="M 91.26138138417902 80.90454125486306 l -6.112142821606313 -13.356135131365177 a35.688248211376354,35.688248211376354 0 0,0 0.5592630553298045,-0.25015125111014336 l 5.88196636342089 13.459090133385166" fill="#ffbb11" stroke="none" /><path d="M 91.5904679813234 80.7573450057729 l -6.158968020195321 -14.092924132982505 a36.3799674151732,36.3799674151732 0 0,0 0.5743962457768602,-0.24517560161008844 l 5.916136699248029 14.196574384251997" fill="#ffc412" stroke="none" /><path d="M 91.92203290615298 80.6158196554323 l -4.257569891745329 -10.216617826291419 a32.068251044839556,32.068251044839556 0 0,0 0.5099547320880549,-0.20739415005255565 l 4.081560698466833 10.288199232923265" fill="#ff8b0c" stroke="none" /><path d="M 92.25597844496254 80.48000691201159 l -4.570876220680718 -11.52159399345919 a33.39516186158532,33.39516186158532 0 0,0 0.5346847483992004,-0.20682754701742992 l 4.372419209787989 11.598361428614659" fill="#ff9d0e" stroke="none" /><path d="M 92.592206182469 80.34994680014964 l -5.18026071875512 -13.741257008494925 a35.68527307501594,35.68527307501594 0 0,0 0.5750611207033469,-0.21117040894876893 l 4.9436104463976465 13.828158266452416" fill="#ffbb11" stroke="none" /><path d="M 92.93061703081487 80.22567764915836 l -4.110327648301445 -11.497317975186528 a33.209959623149395,33.209959623149395 0 0,0 0.5384666458238492,-0.18730665105237107 l 3.912355230432592 11.566183058807484" fill="#ff9a0e" stroke="none" /><path d="M 93.27111125876988 80.10723608172694 l -4.559409595114883 -13.47908431396479 a35.22933342778211,35.22933342778211 0 0,0 0.5745355079448112,-0.1888612331866869 l 4.327351349522311 13.555366468553506" fill="#ffb510" stroke="none" /><path d="M 93.61358852112211 79.99465700312896 l -4.1905029063431245 -13.126690669406836 a34.77934405326911,34.77934405326911 0 0,0 0.5703139479678129,-0.1766847189261677 l 3.9645483255036953 13.196691976139647" fill="#ffaf10" stroke="none" /><path d="M 94.30408787586887 79.78721728523814 l -5.220412199339139 -18.525401229365045 a40.24690089962456,40.24690089962456 0 0,0 0.6666009851251561,-0.1816850627387708 l 4.901629813279305 18.612286786247957" fill="#fff417" stroke="none" /><path d="M 94.6519064749342 79.69241777938228 l -3.1962786052971754 -12.136790479234381 a33.55061273641709,33.55061273641709 0 0,0 0.5582098332928258,-0.14189475676046456 l 2.9874634787789716 12.189870467830108" fill="#ff9f0e" stroke="none" /><path d="M 95.00130118170881 79.60360301121753 l -3.24329403032784 -13.233746420539275 a34.62538074661755,34.62538074661755 0 0,0 0.5785206080238775,-0.13652928826368757 l 3.0156412685640563 13.287471852449194" fill="#ffad10" stroke="none" /><path d="M 95.35216902796891 79.52079915486377 l -3.0102088671304292 -13.2635356893873 a34.600835871644115,34.600835871644115 0 0,0 0.580367371923164,-0.12648836748670467 l 2.7820790785881466 13.31325551500772" fill="#ffad10" stroke="none" /><path d="M 95.70440661134978 79.44403061299748 l -3.4213821677398157 -16.37255222692189 a37.726216618261674,37.726216618261674 0 0,0 0.635064293436913,-0.12703064470022327 l 3.1398213887719257 16.42887226828498" fill="#ffd513" stroke="none" /><path d="M 96.05791012581881 79.37332000966035 l -2.041972954944388 -10.684465355908383 a31.877842317772895,31.877842317772895 0 0,0 0.538379211402424,-0.09811062667265659 l 1.8582590099909255 10.717944156512402" fill="#ff890c" stroke="none" /><path d="M 96.41257539226777 79.30868818359171 l -2.955298893222491 -17.045378675987823 a38.29967415173195,38.29967415173195 0 0,0 0.6487645581670368,-0.10675396116251853 l 2.6622568320023814 17.09359863564601" fill="#ffdc14" stroke="none" /><path d="M 97.12497278360702 79.19773525538626 l -1.8498173979243087 -13.384357205874233 a34.51158178083162,34.51158178083162 0 0,0 0.5875550422989004,-0.07607076348734455 l 1.6197845337346142 13.414139565561971" fill="#ffab0f" stroke="none" /><path d="M 97.48249496171623 79.15144685158666 l -1.743100729383352 -14.435374566066882 a35.54023517744563,35.54023517744563 0 0,0 0.6063233482258626,-0.0679397958381884 l 1.49504147955669 14.463170122412041" fill="#ffb911" stroke="none" /><path d="M 97.84075906011542 79.11130261209362 l -1.3122623534560975 -12.6949478812455 a33.762591202096765,33.762591202096765 0 0,0 0.5770194630326553,-0.0546443430740666 l 1.0941433270384266 12.71560397982475" fill="#ffa20e" stroke="none" /><path d="M 98.1996594967304 79.07731436759882 l -0.9287369635943052 -10.793331311040706 a31.83321527236665,31.83321527236665 0 0,0 0.5448497411849359,-0.04217481583830484 l 0.7433182276341522 10.807683893874065" fill="#ff880c" stroke="none" /><path d="M 98.5590905019552 79.04949213459386 l -0.5960325149700834 -8.666181956509112 a29.686654388326133,29.686654388326133 0 0,0 0.5087100118061973,-0.030602731071863194 l 0.44717815103140224 8.675136665405669" fill="#ff6b09" stroke="none" /><path d="M 99.27912038922189 79.0123766808444 l -0.37129104271216706 -10.809733594501695 a31.816108238294255,31.816108238294255 0 0,0 0.5460048479602556,-0.014063148070924089 l 0.1856728806811675 10.814514459922666" fill="#ff880c" stroke="none" /><path d="M 99.63950707515114 79.00309439819443 l -0.15615316536450818 -9.095139034854503 a30.096479421973505,30.096479421973505 0 0,0 0.5166460902133582,-0.0044347853134382035 l 2.2279948815259237e-15 9.096479421973505" fill="#ff710a" stroke="none" /></svg>