<?xml version="1.0" encoding="utf-8" ?>
<svg baseProfile="full" height="200mm" version="1.1" viewBox="0,0,200,200" width="200mm" xmlns="http://www.w3.org/2000/svg" xmlns:ev="http://www.w3.org/2001/xml-events" xmlns:xlink="http://www.w3.org/1999/xlink"><defs /><rect fill="#1a1a1a" height="200" width="200" x="0" y="0" /><text alignment-baseline="middle" fill="#e1ed5e" style="dominant-baseline: central; font-size:9.0px; font-family:Arial;" text-anchor="middle" x="100.0" y="100.0">2026</text><line stroke="#e1ed5e" stroke-width="0.3" x1="100.0" x2="100.0" y1="15.0" y2="10.0" /><path d="M 100.0 14.0 a86.0,86.0 0 0,1 42.46469731375804,11.215312516191453" fill="none" id="id109" stroke="none" /><text fill="#e1ed5e" style="font-size:6.75px; font-family:Arial;" text-anchor="middle"><textPath startOffset="22.20632615414155" xlink:href="#id109">January</textPath></text><path d="M 100.0 79.0 l 0.0 -26.89229643183897 a47.89229643183897,47.89229643183897 0 0,0 0.8243871556020549,0.007095760516580531 l -0.4629066763295265 26.88831204793095" fill="#ceff1d" stroke="none" /><path d="M 101.08401301168833 79.027996857942 l 1.2038197562555295 -23.289860396916737 a44.32095150960659,44.32095150960659 0 0,0 0.7615562541050167,0.04593915296753389 l -1.6045380592001581 23.265687974568902" fill="#fcff18" stroke="none" /><path d="M 101.44485096284872 79.0497635885617 l 1.8651664359936193 -27.04478093969166 a48.109021043000915,48.109021043000915 0 0,0 0.8256649125748144,0.06408748809750446 l -2.330421537930775 27.00866818940569" fill="#ccff1d" stroke="none" /><path d="M 102.16513564639614 79.11191278185805 l 0.5536249866923979 -5.3410819906004665 a26.369698078682525,26.369698078682525 0 0,0 0.4510892175361137,0.05068512953400712 l -0.6454809077382369 5.330760907595859" fill="#ff0000" stroke="none" /><path d="M 102.52436894288641 79.15227682838746 l 2.8369010612316834 -23.428797187699097 a44.599926806953334,44.599926806953334 0 0,0 0.7613531842819456,0.09884549430249422 l -3.2397689740214752 23.376493370232467" fill="#f8ff18" stroke="none" /><path d="M 102.88285421437855 79.19881850522331 l 4.117760292303576 -29.71162355868742 a50.995608417200366,50.995608417200366 0 0,0 0.8684576872335423,0.12798808795970376 l -4.628586959965774 29.63634098656675" fill="#a8ff21" stroke="none" /><path d="M 103.95276090670814 79.375362276772 l 5.673748885010292 -29.60437477696063 a51.14316559926807,51.14316559926807 0 0,0 0.8631836102174276,0.17314651179981766 l -6.182498904694845 29.5023243090836" fill="#a7ff21" stroke="none" /><path d="M 104.66035177308747 79.52364482259891 l 6.627506296446705 -29.119512747982764 a50.86419030192132,50.86419030192132 0 0,0 0.8520389204784024,0.20165008420379688 l -7.127768903887631 29.001116751638097" fill="#aaff21" stroke="none" /><path d="M 105.01212808612495 79.60689891045804 l 7.880551105734175 -32.064000077218346 a54.018225068618484,54.018225068618484 0 0,0 0.9010525757404194,0.22969836432873256 l -8.43131257015962 31.923598716720747" fill="#85ff25" stroke="none" /><path d="M 105.71112130821622 79.79150937346287 l 6.783119155968858 -24.00169642428676 a45.94177493138152,45.94177493138152 0 0,0 0.7591545388732387,0.22161802728522684 l -7.195263912565524 23.881380068082827" fill="#e7ff1a" stroke="none" /><path d="M 106.0581310904928 79.89281104454417 l 16.233574257162765 -53.87990786852447 a77.27231473010065,77.27231473010065 0 0,0 1.2702634918729414,0.39467705025076255 l -17.158623121746423 53.59249068339118" fill="#44ffe7" stroke="none" /><path d="M 106.40334571778207 80.00007090966166 l 7.745177651177135 -24.190948082882805 a46.400585544373286,46.400585544373286 0 0,0 0.7585770512092151,0.250090927140873 l -8.160437524628767 24.054043431482697" fill="#e1ff1b" stroke="none" /><path d="M 106.74666289553966 80.11325718540242 l 7.84341226725007 -23.11956666024964 a45.41379688929552,45.41379688929552 0 0,0 0.738121244863423,0.2575160089422842 l -8.240215516176766 22.981129798135147" fill="#eeff19" stroke="none" /><path d="M 107.76421540070413 80.48803036053334 l 10.096179382170881 -25.372344198701896 a48.30730100640439,48.30730100640439 0 0,0 0.7699634696901272,0.3140874319179782 l -10.531426721449396 25.194795880600335" fill="#c9ff1d" stroke="none" /><path d="M 109.08828744355905 81.06846463323043 l 10.899958137248577 -22.705371529360374 a46.18616651418115,46.18616651418115 0 0,0 0.7137494333567824,0.35023374716841726 l -11.28917883761579 22.514382622057123" fill="#e4ff1a" stroke="none" /><path d="M 109.73455568895987 81.39251694778311 l 12.39325611372501 -23.689556099561628 a47.73551692589204,47.73551692589204 0 0,0 0.7247955251596344,0.38716066828166684 l -12.799196685412955 23.472716704778207" fill="#d0ff1d" stroke="none" /><path d="M 110.36928655335952 81.73862282372117 l 22.08117277097471 -38.8872100689227 a65.71904849039342,65.71904849039342 0 0,0 0.9789111003364093,0.5670484936543347 l -22.747280603776446 38.50135741787832" fill="#35ff61" stroke="none" /><line stroke="#e1ed5e" stroke-width="0.3" x1="143.23703022742887" x2="145.7803849466894" y1="26.81831364943548" y2="22.513508569990506" /><path d="M 143.74570117128098 25.957352633546492 a86.0,86.0 0 0,1 28.547481713284135,27.462654790039103" fill="none" id="id110" stroke="none" /><text fill="#e1ed5e" style="font-size:6.75px; font-family:Arial;" text-anchor="middle"><textPath startOffset="19.985693538727396" xlink:href="#id110">February</textPath></text><path d="M 111.2981086023043 82.29822771554956 l 13.408880584546322 -21.008910345278238 a45.92333028362306,45.92333028362306 0 0,0 0.6626801600827206,0.43102560976568727 l -13.768527770413323 20.774985811353023" fill="#e7ff1a" stroke="none" /><path d="M 112.48926042617603 83.11751280151076 l 32.951079667129314 -44.54196338886314 a76.40541628545287,76.40541628545287 0 0,0 1.0505884679103048,0.7912814530469411 l -33.712914288798 43.96816534631034" fill="#43ffde" stroke="none" /><path d="M 113.34407831869373 83.78471172551755 l 17.105814285350554 -20.786426996471043 a47.91996340347667,47.91996340347667 0 0,0 0.6324122231651658,0.529627049698927 l -17.461084045474838 20.488898789378297" fill="#ceff1d" stroke="none" /><path d="M 113.89432698308785 84.25364557470407 l 16.662514214411917 -18.883523811986194 a46.18386093321135,46.18386093321135 0 0,0 0.5915691019727932,0.5311165806776886 l -16.985094303980702 18.59390822253921" fill="#e4ff1a" stroke="none" /><path d="M 114.16331599549186 84.49514656593476 l 13.475494574594594 -14.75188214378145 a40.98016468435499,40.98016468435499 0 0,0 0.51672497758124,0.48023955193932094 l -13.72742743597068 14.517738005767487" fill="#ffd614" stroke="none" /><path d="M 114.42810811169701 84.74124197986012 l 37.965065007836294 -40.15077622712086 a76.25785910338519,76.25785910338519 0 0,0 0.9460214334607207,0.9100718694574138 l -38.650569684909435 39.491321270901146" fill="#43ffdc" stroke="none" /><path d="M 116.15771136456269 86.58626213691792 l 35.940190182547866 -29.836669252264528 a67.71107044830741,67.71107044830741 0 0,0 0.7367657952647025,0.9031877488262863 l -36.44845446988898 29.21359733383014" fill="#37ff7a" stroke="none" /><path d="M 117.04232023915458 87.72973835380427 l 21.89712063225904 -15.765658413038834 a47.98221408966148,47.98221408966148 0 0,0 0.47682297878003205,0.6744322883178344 l -22.165256230842953 15.386399624389206" fill="#cdff1d" stroke="none" /><path d="M 117.65298651832404 88.62581576622439 l 21.036287173272367 -13.55411480403299 a46.0247758462946,46.0247758462946 0 0,0 0.4233674563080861,0.669665643964843 l -21.266482225826408 13.190001512353941" fill="#e6ff1a" stroke="none" /><line stroke="#e1ed5e" stroke-width="0.3" x1="172.23445277983987" x2="176.4835382374775" y1="55.19839476539836" y2="52.563006222186495" /><path d="M 173.08426987136738 54.67131705675599 a86.0,86.0 0 0,1 12.851231095245387,41.99856678651699" fill="none" id="id111" stroke="none" /><text fill="#e1ed5e" style="font-size:6.75px; font-family:Arial;" text-anchor="middle"><textPath startOffset="22.20632615414155" xlink:href="#id111">March</textPath></text><path d="M 118.21658344932153 89.55222093294921 l 28.689868938391662 -16.454535119873043 a54.07355901189387,54.07355901189387 0 0,0 0.4561294184323665,0.8114033391029424 l -28.968855998116464 15.958248270835307" fill="#84ff25" stroke="none" /><path d="M 118.3937258080291 89.86733742301442 l 16.575557339319616 -9.131077156292518 a39.92420860018298,39.92420860018298 0 0,0 0.3264125362744728,0.6047928562438097 l -16.73027797481255 8.84440331671625" fill="#ffc712" stroke="none" /><path d="M 118.56541770881063 90.18545643968196 l 22.64131673297001 -11.969253416433249 a46.6103934126258,46.6103934126258 0 0,0 0.3688670334225838,0.7125337005537912 l -22.84399319955271 11.577746993619114" fill="#dfff1b" stroke="none" /><path d="M 118.73160827565052 90.50648371742162 l 31.113321310409884 -15.76879134555848 a55.88113449222324,55.88113449222324 0 0,0 0.4274640343323619,0.8617414090051 l -31.380145357695657 15.23089034805443" fill="#6fff27" stroke="none" /><path d="M 119.34039704204932 91.81776055985345 l 28.595475970570355 -12.09773671075428 a52.049258920402565,52.049258920402565 0 0,0 0.34198423546003276,0.8281419521127025 l -28.799481892916585 11.603720188188273" fill="#9cff22" stroke="none" /><path d="M 119.47837535516314 92.15188598940014 l 27.72380509837162 -11.17031473376942 a50.88955169258921,50.88955169258921 0 0,0 0.3203774751137582,0.8153257289228123 l -27.91197612336708 10.691439999950823" fill="#aaff21" stroke="none" /><path d="M 119.61058180528143 92.48833698450437 l 23.627431809459292 -9.05028251769981 a46.301445562671546,46.301445562671546 0 0,0 0.27868048880302226,0.7467251587701285 l -23.779716886763943 8.642234221900347" fill="#e2ff1b" stroke="none" /><path d="M 119.7369772167798 92.82701384747503 l 28.23922639587276 -10.262948458156126 a51.04633119853614,51.04633119853614 0 0,0 0.2930227600926492,0.8284148016511559 l -28.41170223677522 9.775336030078355" fill="#a8ff21" stroke="none" /><path d="M 120.18372546131832 94.20196356495316 l 24.293597317375962 -6.978650331647053 a46.276084172003664,46.276084172003664 0 0,0 0.21333986448735637,0.767497001863906 l -24.410123952429682 6.559442026364195" fill="#e3ff1b" stroke="none" /><path d="M 120.28053869075195 94.5502522615342 l 18.084377154212703 -4.859599392331478 a39.72592863677951,39.72592863677951 0 0,0 0.17177428762276978,0.6619164013524016 l -18.165347773705776 4.547586565430225" fill="#ffc512" stroke="none" /><path d="M 120.37134235888165 94.90015583598534 l 24.474686122588317 -6.127091822888816 a46.22997255260751,46.22997255260751 0 0,0 0.18660882463351028,0.7736140521412658 l -24.576527747482647 5.704892539088144" fill="#e3ff1b" stroke="none" /><path d="M 120.45610955862082 95.25157060432595 l 27.136816665707098 -6.299206483578729 a48.85833485818847,48.85833485818847 0 0,0 0.18311548547968756,0.8208708160669934 l -27.241226538188823 5.8311574979617715" fill="#c2ff1e" stroke="none" /><path d="M 120.6074358757038 95.95851677861258 l 53.22035287511587 -10.437453959747101 a75.23418115279048,75.23418115279048 0 0,0 0.23829271888630318,1.2729692327494924 l -53.39213131791203 9.519806649535045" fill="#41ffd1" stroke="none" /><path d="M 120.78858239683441 97.02765380044208 l 23.795984637079115 -3.40234380346834 a45.037987191216835,45.037987191216835 0 0,0 0.10312412469217294,0.7683945105209323 l -23.851024760829123 2.9922309508827434" fill="#f3ff19" stroke="none" /><path d="M 120.83666639777658 97.38593545837742 l 29.48779101928711 -3.699391612975116 a50.71893870082342,50.71893870082342 0 0,0 0.10121965795162488,0.8671882155261242 l -29.547101030242324 3.191259659124139" fill="#acff21" stroke="none" /><path d="M 120.98425023603335 99.18683210126433 l 25.39535850156952 -0.9841042723985295 a46.414419030192136,46.414419030192136 0 0,0 0.02406544647925973,0.7986150088349353 l -25.40853564250442 0.5468191161385951" fill="#e1ff1b" stroke="none" /><line stroke="#e1ed5e" stroke-width="0.3" x1="184.98032266829074" x2="189.97916517819016" y1="98.17113171792111" y2="98.06355123074" /><path d="M 185.9800911702706 98.14961562048488 a86.0,86.0 0 0,1 -9.607161424134198,41.387399972396054" fill="none" id="id112" stroke="none" /><text fill="#e1ed5e" style="font-size:6.75px; font-family:Arial;" text-anchor="middle"><textPath startOffset="21.466115282336823" xlink:href="#id112">April</textPath></text><path d="M 120.99513854157772 99.54816195383933 l 20.482649706912298 -0.44080873319491565 a41.48739249771272,41.48739249771272 0 0,0 0.009220065023398404,0.7141041969303583 l -20.487202779053412 0.08816827820409462" fill="#ffdd14" stroke="none" /><path d="M 120.99980553446 99.90962569577887 l 21.457843378871264 -0.09234550587953054 a42.458042086001825,42.458042086001825 0 0,0 -0.0031453376740756276,0.7308657041961293 l -21.456253743907688 -0.27702967652028343" fill="#ffea15" stroke="none" /><path d="M 120.99824983174949 100.27111621757518 l 25.00194174843439 0.32280937378988656 a46.00402561756633,46.00402561756633 0 0,0 -0.017038877499559145,0.7917296844209963 l -24.992680808249826 -0.7531288740009977" fill="#e6ff1a" stroke="none" /><path d="M 120.9764740272857 100.99374915477107 l 62.92942208185712 2.9812474643131925 a84.0,84.0 0 0,0 -0.0808545964498828,1.4437131346583068 l -62.86878113451971 -4.064032315306923" fill="#4dd2ff" stroke="none" /><path d="M 120.89721153311464 102.0752229133903 l 21.417251929913114 2.126866155150791 a42.522598353156454,42.522598353156454 0 0,0 -0.07860140010784261,0.7277513452923876 l -21.37746822830422 -2.49521382232797" fill="#ffea16" stroke="none" /><path d="M 120.8583938346157 102.4346265915055 l 21.18739539885063 2.4730282039826865 a42.3312351326624,42.3312351326624 0 0,0 -0.0907067472707908,0.7230220229129369 l -21.14168714233299 -2.8373679811830184" fill="#ffe815" stroke="none" /><path d="M 120.5718875245553 104.21870165774334 l 26.549592444773737 5.444556778053751 a48.10210430009149,48.10210430009149 0 0,0 -0.17331866482112013,0.809687101289734 l -26.451939741228173 -5.900757698759654" fill="#ccff1d" stroke="none" /><path d="M 120.41448212921028 104.9243191809786 l 17.997616632851816 4.3413302495800385 a39.513815187557185,39.513815187557185 0 0,0 -0.16518409059540518,0.6598283307367937 l -17.92022122796135 -4.650486419714228" fill="#ffc212" stroke="none" /><line stroke="#e1ed5e" stroke-width="0.3" x1="174.80103733775053" x2="179.2010983576182" y1="140.37084112569926" y2="142.7455964860345" /><path d="M 175.68104954172406 140.8457921977663 a86.0,86.0 0 0,1 -30.038265399797805,32.042727171017184" fill="none" id="id113" stroke="none" /><text fill="#e1ed5e" style="font-size:6.75px; font-family:Arial;" text-anchor="middle"><textPath startOffset="22.206326154141568" xlink:href="#id113">May</textPath></text><line stroke="#e1ed5e" stroke-width="0.3" x1="143.8653032363475" x2="146.44561519142675" y1="172.8068346515853" y2="177.08958963109032" /><path d="M 144.38136562736335 173.6633856474863 a86.0,86.0 0 0,1 -40.68145358897372,12.25698825130547" fill="none" id="id114" stroke="none" /><text fill="#e1ed5e" style="font-size:6.75px; font-family:Arial;" text-anchor="middle"><textPath startOffset="21.466115282336833" xlink:href="#id114">June</textPath></text><line stroke="#e1ed5e" stroke-width="0.3" x1="102.19456741930631" x2="102.32365962044197" y1="184.97166512339345" y2="189.96999836594603" /><path d="M 102.22038585953345 185.97133177190398 a86.0,86.0 0 0,1 -42.740103519485714,-10.115201625700543" fill="none" id="id115" stroke="none" /><text fill="#e1ed5e" style="font-size:6.75px; font-family:Arial;" text-anchor="middle"><textPath startOffset="22.20632615414155" xlink:href="#id115">July</textPath></text><line stroke="#e1ed5e" stroke-width="0.3" x1="58.666819895761336" x2="56.23545636021788" y1="174.27360380694188" y2="178.64263932499728" /><path d="M 58.180547188652646 175.14741091055294 a86.0,86.0 0 0,1 -31.652253787137756,-30.449443065178592" fill="none" id="id116" stroke="none" /><text fill="#e1ed5e" style="font-size:6.75px; font-family:Arial;" text-anchor="middle"><textPath startOffset="22.20632615414155" xlink:href="#id116">August</textPath></text><line stroke="#e1ed5e" stroke-width="0.3" x1="26.63291911575756" x2="22.317208475507996" y1="142.92168965132927" y2="145.44649492493687" /><path d="M 25.769776987707644 143.4266507060508 a86.0,86.0 0 0,1 -11.730757126820373,-40.83630448921669" fill="none" id="id117" stroke="none" /><text fill="#e1ed5e" style="font-size:6.75px; font-family:Arial;" text-anchor="middle"><textPath startOffset="21.46611528233685" xlink:href="#id117">September</textPath></text><line stroke="#e1ed5e" stroke-width="0.3" x1="15.007084014347285" x2="10.007500721073583" y1="101.09737516637583" y2="101.16192664675087" /><path d="M 14.007167355692545 101.11028546245083 a86.0,86.0 0 0,1 10.666146001902534,-42.60595125391555" fill="none" id="id118" stroke="none" /><text fill="#e1ed5e" style="font-size:6.75px; font-family:Arial;" text-anchor="middle"><textPath startOffset="22.20632615414155" xlink:href="#id118">October</textPath></text><line stroke="#e1ed5e" stroke-width="0.3" x1="26.266209847984243" x2="21.928928074336255" y1="57.711370442889674" y2="55.22380399835377" /><path d="M 25.398753493254645 57.213857153982495 a86.0,86.0 0 0,1 29.58750427330803,-30.492523968695096" fill="none" id="id119" stroke="none" /><text fill="#e1ed5e" style="font-size:6.75px; font-family:Arial;" text-anchor="middle"><textPath startOffset="21.46611528233685" xlink:href="#id119">November</textPath></text><line stroke="#e1ed5e" stroke-width="0.3" x1="56.762969772571076" x2="54.21961505331055" y1="26.818313649435495" y2="22.513508569990535" /><path d="M 56.25429882871897 25.957352633546506 a86.0,86.0 0 0,1 42.265352541879196,-11.944610805530505" fill="none" id="id120" stroke="none" /><text fill="#e1ed5e" style="font-size:6.75px; font-family:Arial;" text-anchor="middle"><textPath startOffset="22.20632615414155" xlink:href="#id120">December</textPath></text></svg>