<?xml version="1.0" encoding="utf-8" ?>
<svg baseProfile="full" height="200mm" version="1.1" viewBox="0,0,200,200" width="200mm" xmlns="http://www.w3.org/2000/svg" xmlns:ev="http://www.w3.org/2001/xml-events" xmlns:xlink="http://www.w3.org/1999/xlink"><defs /><rect fill="#1a1a1a" height="200" width="200" x="0" y="0" /><text alignment-baseline="middle" fill="#e1ed5e" style="dominant-baseline: central; font-size:9.0px; font-family:Arial;" text-anchor="middle" x="100.0" y="100.0">2020</text><line stroke="#e1ed5e" stroke-width="0.3" x1="100.0" x2="100.0" y1="15.0" y2="10.0" /><path d="M 100.0 14.0 a86.0,86.0 0 0,1 42.35913384403234,11.155469271406648" fill="none" id="id37" stroke="none" /><text fill="#e1ed5e" style="font-size:6.75px; font-family:Arial;" text-anchor="middle"><textPath startOffset="22.145653131862478" xlink:href="#id37">January</textPath></text><path d="M 100.0 79.0 l 0.0 -15.028994153442312 a36.02899415344231,36.02899415344231 0 0,0 0.6184855943684147,0.0053089549740818025 l -0.25799266951955985 15.026779596662665" fill="#ffbb11" stroke="none" /><path d="M 100.72087961077811 79.0123766808444 l 0.1850888843327718 -5.388660917661394 a26.391838682734758,26.391838682734758 0 0,0 0.4526504963761628,0.019438759949605162 l -0.27756514130977084 5.384689589285958" fill="#ff3805" stroke="none" /><path d="M 101.08105385017728 79.02784411241856 l 0.2938361377763796 -5.700342573906518 a26.7079107505071,26.7079107505071 0 0,0 0.45766631077676695,0.02753206877062531 l -0.3916468006856089 5.694458527311201" fill="#ff3c05" stroke="none" /><path d="M 101.44090949804482 79.04949213459386 l 0.36679125306903815 -5.333064320009122 a26.34566280873404,26.34566280873404 0 0,0 0.4509260984121915,0.03490453187306418 l -0.45828634625646314 5.325982021141004" fill="#ff3705" stroke="none" /><path d="M 101.80034050326958 79.07731436759882 l 0.5609972342248832 -6.519638230111071 a27.543729865171223,27.543729865171223 0 0,0 0.47073603212453385,0.04457919166460062 l -0.67283282973443 6.509047282941287" fill="#ff4806" stroke="none" /><path d="M 102.15924093988457 79.11130261209362 l 0.4167434019519144 -4.031614374746685 a25.05309628922563,25.05309628922563 0 0,0 0.4274107121032308,0.04789226178459968 l -0.4858900156559418 4.023866352455115" fill="#ff2403" stroke="none" /><path d="M 102.51750503828377 79.15144685158666 l 0.6514865510631909 -5.395243218490997 a26.434435031619138,26.434435031619138 0 0,0 0.45004270426623016,0.0582670382360932 l -0.7440070772202128 5.383264584054507" fill="#ff3805" stroke="none" /><path d="M 102.87502721639298 79.19773525538626 l 1.1250767012792549 -8.140494554124846 a29.2178737620809,29.2178737620809 0 0,0 0.49625152564087066,0.07293188490938216 l -1.2646533325278075 8.119981595916581" fill="#ff5f08" stroke="none" /><path d="M 103.23170211078529 79.25015418208739 l 0.7239338834428278 -4.648174846830546 a25.704211907886886,25.704211907886886 0 0,0 0.43540792580602483,0.07164620849923381 l -0.8036193123019232 4.635062639835644" fill="#ff2e04" stroke="none" /><path d="M 103.58742460773223 79.30868818359171 l 1.404285307184117 -8.09954447753961 a29.22037942966233,29.22037942966233 0 0,0 0.4934977931505,0.08993173718844895 l -1.5431178338856706 8.074244566419795" fill="#ff5f08" stroke="none" /><path d="M 103.94208987418118 79.37332000966035 l 0.7898021780749916 -4.132578734321721 a25.20737382173965,25.20737382173965 0 0,0 0.4243283445961867,0.08487755292762195 l -0.8606270082021353 4.11841178473124" fill="#ff2703" stroke="none" /><path d="M 104.29559338865022 79.4440306129975 l 0.9298930580370184 -4.449874907783455 a25.5459968977449,25.5459968977449 0 0,0 0.42848858153889335,0.09338709201716286 l -1.0061440561950459 4.433256357632573" fill="#ff2b04" stroke="none" /><path d="M 106.38641147887787 79.99465700312896 l 1.5960857910461999 -4.999716007638417 a26.24829972556974,26.24829972556974 0 0,0 0.42806884911498283,0.1407147332318196 l -1.6816773778089251 4.971580353004576" fill="#ff3605" stroke="none" /><path d="M 106.72888874123014 80.10723608172694 l 2.580552402354591 -7.62894464344905 a29.05357355924114,29.05357355924114 0 0,0 0.4710749570660515,0.16386432342096557 l -2.7111331314656604 7.5835218874594945" fill="#ff5d08" stroke="none" /><path d="M 107.06938296918511 80.22567764915836 l 3.173251250456319 -8.87614851257204 a30.426321441355448,30.426321441355448 0 0,0 0.49031415481016155,0.18005014920499823 l -3.325154556920605 8.82036751435832" fill="#ff700a" stroke="none" /><path d="M 107.40779381753099 80.34994680014964 l 3.223255881161702 -8.550069170616876 a30.137453764467246,30.137453764467246 0 0,0 0.4825260901634663,0.18665145751625287 l -3.369554233818694 8.493477824962584" fill="#ff6c09" stroke="none" /><path d="M 107.74402155503746 80.48000691201159 l 2.6971481826935166 -6.798575327984508 a28.31404367020642,28.31404367020642 0 0,0 0.4502546937773573,0.1831146641992581 l -2.8134573376613137 6.751273407205956" fill="#ff5307" stroke="none" /><path d="M 108.07796709384702 80.6158196554323 l 3.0467073122121997 -7.310988434456329 a28.920415224913494,28.920415224913494 0 0,0 0.4566188238137331,0.19490342365245042 l -3.1717612111963627 7.257610361144477" fill="#ff5b08" stroke="none" /><path d="M 108.4095320186766 80.7573450057729 l 3.3606879195778343 -7.689911642655232 a29.392196635246393,29.392196635246393 0 0,0 0.4605989511091138,0.20602005224896763 l -3.4922002735425797 7.631087839496411" fill="#ff6209" stroke="none" /><path d="M 108.73861861582097 80.90454125486305 l 3.163908125839963 -6.91371024946655 a28.603269299606254,28.603269299606254 0 0,0 0.4447281069759111,0.2081552097032711 l -3.282124946687379 6.858378808192746" fill="#ff5708" stroke="none" /><path d="M 109.06512990194946 81.05736502329252 l 4.037565315048313 -8.436958629917443 a30.353299128982222,30.353299128982222 0 0,0 0.46807642019064377,0.22895963272377892 l -4.181801984501023 8.366405247096443" fill="#ff6f0a" stroke="none" /><path d="M 109.3889696526874 81.21577127319529 l 3.231654323499011 -6.4654734464071355 a28.22813506741439,28.22813506741439 0 0,0 0.43158503580662333,0.22037039444799147 l -3.342166581019213 6.40904510028631" fill="#ff5207" stroke="none" /><path d="M 109.71004243097381 81.37971332152246 l 2.9611599218053164 -5.678414593632566 a27.404128385634174,27.404128385634174 0 0,0 0.4152523879014195,0.2210985073737407 l -3.0582011254932957 5.626745618536252" fill="#ff4606" stroke="none" /><path d="M 110.02825361518725 81.54914285379988 l 5.009426090420127 -9.216779782953628 a31.49015630593008,31.49015630593008 0 0,0 0.4727359424436802,0.2622186583701202 l -5.166906221019907 9.129428209150362" fill="#ff7e0b" stroke="none" /><path d="M 110.34350942703115 81.72400993836675 l 3.879499231806527 -6.854703416165448 a28.87638706598258,28.87638706598258 0 0,0 0.42930597823706484,0.24785992209988503 l -3.996597677903989 6.78709659678939" fill="#ff5b08" stroke="none" /><line stroke="#e1ed5e" stroke-width="0.3" x1="143.13028292997686" x2="145.6673583964461" y1="26.7553504044142" y2="22.446841604673864" /><path d="M 143.63769802327073 25.89364864446614 a86.0,86.0 0 0,1 29.32050498858742,28.57503671076993" fill="none" id="id38" stroke="none" /><text fill="#e1ed5e" style="font-size:6.75px; font-family:Arial;" text-anchor="middle"><textPath startOffset="20.669276256404974" xlink:href="#id38">February</textPath></text><path d="M 110.65571695917076 81.90426304109057 l 3.249551402262328 -5.518448700834348 a27.404128385634174,27.404128385634174 0 0,0 0.40331992471876776,0.24218202647094544 l -3.3438040835385303 5.461852673827481" fill="#ff4606" stroke="none" /><path d="M 110.96478420261332 82.08984904055464 l 3.188304391095176 -5.207855612476832 a27.106311895955137,27.106311895955137 0 0,0 0.39476583399986753,0.24636307717076272 l -3.2772343538847557 5.152356738464524" fill="#ff4206" stroke="none" /><path d="M 111.27062007382361 82.28071324371311 l 4.834684316188743 -7.600926764769225 a30.00823290776757,30.00823290776757 0 0,0 0.43228198119894157,0.2801999575304242 l -4.964451929644691 7.516812965534907" fill="#ff6a09" stroke="none" /><path d="M 111.5731344415666 82.4767994020092 l 6.707119351820689 -10.15543355432674 a33.17038539553752,33.17038539553752 0 0,0 0.4724469236694429,0.31788337488109103 l -6.880462563587132 10.03880050538853" fill="#ff950d" stroke="none" /><path d="M 111.8722381534696 82.67804972795209 l 4.457123175382548 -6.503075915623011 a28.88390406872688,28.88390406872688 0 0,0 0.40658208708485,0.28382587354138983 l -4.568100353641158 6.425605226276495" fill="#ff5b08" stroke="none" /><path d="M 112.16784306229584 82.88440491214696 l 3.778716020112976 -5.315237303860681 a27.521536809449948,27.521536809449948 0 0,0 0.3827053034310107,0.2770491262926309 l -3.8694023339179546 5.249587406194975" fill="#ff4806" stroke="none" /><path d="M 112.45986205192187 83.09580414077388 l 4.8765215977325935 -6.615938110414556 a29.218947619615797,29.218947619615797 0 0,0 0.40119981968043306,0.30106782420258393 l -4.989374406323793 6.531251258947957" fill="#ff5f08" stroke="none" /><path d="M 112.7482090630111 83.31218511350987 l 6.261435630774796 -8.196420235468201 a31.31440162271805,31.31440162271805 0 0,0 0.4243698710249571,0.3299925784872241 l -6.401215446434979 8.087726605360187" fill="#ff7c0b" stroke="none" /><path d="M 113.03279911837588 83.53348406188908 l 4.687782347758838 -5.922859858626086 a28.5535139004892,28.5535139004892 0 0,0 0.38173223958155866,0.30749647079948894 l -4.788765357695656 5.841515094033188" fill="#ff5608" stroke="none" /><path d="M 113.31354834802062 83.75963576809568 l 5.202012524616509 -6.345609444627184 a29.20534542417373,29.20534542417373 0 0,0 0.38498996157518156,0.32117231858848266 l -5.3101768203535835 6.255374942126831" fill="#ff5f08" stroke="none" /><path d="M 113.59037401385872 83.9905735841838 l 6.451993404025999 -7.600432006635976 a30.969693354015035,30.969693354015035 0 0,0 0.402341326306051,0.3475328549829528 l -6.581514210094911 7.488555019188303" fill="#ff770b" stroke="none" /><path d="M 113.86319453409587 84.22622945171908 l 5.6332298310517235 -6.40958146999964 a29.533229924829975,29.533229924829975 0 0,0 0.377933892936584,0.33795081751992223 l -5.742428750811683 6.311935122596331" fill="#ff6409" stroke="none" /><path d="M 114.13192950727249 84.46653392183569 l 6.143259383025729 -6.752518202591309 a30.128862904188047,30.128862904188047 0 0,0 0.37958095945767767,0.3513344692593452 l -6.258270113797371 6.64606598719959" fill="#ff6c09" stroke="none" /><path d="M 114.39649973595853 84.71141617570332 l 5.177802587974924 -5.498646917221945 a28.552797995465934,28.552797995465934 0 0,0 0.35395613922616886,0.33908197456687383 l -5.271431213066405 5.408952812349492" fill="#ff5608" stroke="none" /><path d="M 114.65682725009322 84.96080404539774 l 7.083704294563262 -7.268504646509832 a31.149385514855027,31.149385514855027 0 0,0 0.3797378273709331,0.3764922244173356 l -7.207434042064158 7.145832411863838" fill="#ff7a0b" stroke="none" /><path d="M 114.91283532996326 85.21462403516908 l 6.837835075528176 -6.7793923918719505 a30.628922562939984,30.628922562939984 0 0,0 0.36698291349359075,0.37655679867454483 l -6.953204790172578 6.661012901129664" fill="#ff730a" stroke="none" /><path d="M 115.16444852881244 85.47280134310134 l 5.444436895739963 -5.215647387973759 a28.539553752535497,28.539553752535497 0 0,0 0.3358754389385514,0.356688076748861 l -5.533168168414774 5.121417851280403" fill="#ff5607" stroke="none" /><path d="M 115.41159269507618 85.73525988315684 l 5.4273016360180995 -5.023429369389598 a28.395298890347213,28.395298890347213 0 0,0 0.3280364188609675,0.3605694878506924 l -5.512735755720945 4.9295223059812345" fill="#ff5407" stroke="none" /><path d="M 115.6541949942343 86.00192230759917 l 5.505531309186362 -4.923080045465189 a28.38563417253311,28.38563417253311 0 0,0 0.3216888988372304,0.3660229152600965 l -5.589231271982182 4.8278448523937945" fill="#ff5407" stroke="none" /><path d="M 115.8921839302757 86.27271002978787 l 5.963327544293888 -5.150980302457083 a28.879966591098913,28.879966591098913 0 0,0 0.3208501529255405,0.3779606733800551 l -6.05087226072654 5.047852846627476" fill="#ff5b08" stroke="none" /><path d="M 116.1254893667686 86.54754324733833 l 3.0438520675609033 -2.539289653109507 a24.9639661138289,24.9639661138289 0 0,0 0.271694945701653,0.33142365677578955 l -3.0869938325011836 2.486663714635222" fill="#ff2303" stroke="none" /><path d="M 116.35404254752997 86.82634096563983 l 7.958333657583191 -6.410670253668135 a31.21918625462355,31.21918625462355 0 0,0 0.33260857015299505,0.4202400629235758 l -8.067208658377746 6.273110246829881" fill="#ff7b0b" stroke="none" /><path d="M 116.57777611688842 87.10902102172516 l 2.979178986489075 -2.3166275992969094 a24.773893330151534,24.773893330151534 0 0,0 0.2581770270732853,0.33796201603283893 l -3.018507990916667 2.2651446700231883" fill="#ff2003" stroke="none" /><path d="M 116.7966241395341 87.39550010848427 l 7.728216465789015 -5.799397712030344 a30.662212146521895,30.662212146521895 0 0,0 0.312313583487301,0.4237133575609485 l -7.826632068860142 5.665878045200521" fill="#ff730a" stroke="none" /><path d="M 117.01052211995028 87.68569379921539 l 7.666289478778282 -5.549802375249204 a30.464264407588594,30.464264407588594 0 0,0 0.3030249937683986,0.4262426025948871 l -7.760429571076641 5.417382545944813" fill="#ff700a" stroke="none" /><path d="M 117.21940702142032 87.97951657250589 l 6.670916917225035 -4.656818097739551 a29.135544684405204,29.135544684405204 0 0,0 0.28276776334083253,0.4125666173312661 l -6.749874417381192 4.541616745338236" fill="#ff5e08" stroke="none" /><path d="M 117.42321728460499 88.27688183743584 l 6.563367855690087 -4.416126807109071 a28.91075050709939,28.91075050709939 0 0,0 0.27351712277242496,0.41413978499308374 l -6.638209417383236 4.3028071437769295" fill="#ff5b08" stroke="none" /><path d="M 117.62189284568427 88.57770195909679 l 8.635379300468356 -5.597348532870722 a31.290776756950244,31.290776756950244 0 0,0 0.2882957960835087,0.45324887610222464 l -8.730192788177755 5.448285982089825" fill="#ff7c0b" stroke="none" /><path d="M 117.81537515405839 88.88188828441811 l 7.803393651181043 -4.869894774836073 a30.198305691444936,30.198305691444936 0 0,0 0.2706804071570804,0.44213610266875875 l -7.885842022793526 4.7352215560427595" fill="#ff6d0a" stroke="none" /><line stroke="#e1ed5e" stroke-width="0.3" x1="172.87174338648825" x2="177.1583165268699" y1="56.24261187166439" y2="53.66864786411523" /><path d="M 173.72905801456457 55.72781907015455 a86.0,86.0 0 0,1 12.242430191666344,42.057860355516425" fill="none" id="id39" stroke="none" /><text fill="#e1ed5e" style="font-size:6.75px; font-family:Arial;" text-anchor="middle"><textPath startOffset="22.145653131862474" xlink:href="#id39">March</textPath></text><path d="M 118.00360718960297 89.18935116829356 l 7.621927007826701 -4.576748172449468 a29.89046653144016,29.89046653144016 0 0,0 0.2603691497660333,0.44216373843583034 l -7.699369867722503 4.4452332657200815" fill="#ff6909" stroke="none" /><path d="M 118.18653347947321 89.5 l 7.03442851545513 -4.0613291969932 a29.1226583939864,29.1226583939864 0 0,0 0.24624821203105446,0.4350969956109202 l -7.103110092507561 3.939975431283162" fill="#ff5e08" stroke="none" /><path d="M 118.36410011445183 89.81374322990088 l 8.949004690406248 -4.963862048517288 a31.23350435508889,31.23350435508889 0 0,0 0.25604728678752586,0.4710981684821111 l -9.032897326809117 4.809509046560573" fill="#ff7b0b" stroke="none" /><path d="M 118.53625476483649 90.13048839642627 l 8.128628127140445 -4.328036630902231 a30.20904426679394,30.20904426679394 0 0,0 0.23979066301206003,0.45983021390967627 l -8.201726859127449 4.1878601738880565" fill="#ff6d0a" stroke="none" /><path d="M 118.70294669586156 90.45014215332178 l 7.83000790558671 -3.9980578276077487 a29.791671638229328,29.791671638229328 0 0,0 0.2286582962008208,0.45746976452185006 l -7.897486114999268 3.8630562069221486" fill="#ff6709" stroke="none" /><path d="M 118.8641267826498 90.77261029715802 l 8.537362234410065 -4.176051681527217 a30.50399713637991,30.50399713637991 0 0,0 0.22605022235962674,0.4723580240853633 l -8.607791714729602 4.02888115537675" fill="#ff710a" stroke="none" /><path d="M 119.0197475246899 91.09779779509293 l 10.964389883324737 -5.1318880898964885 a33.1059539434435,33.1059539434435 0 0,0 0.23649559034808085,0.5167855455692383 l -11.05086993852787 4.942913562112566" fill="#ff940d" stroke="none" /><path d="M 119.16976305983485 91.42560881287824 l 6.612223656890893 -2.9575635376377853 a28.24352702541463,28.24352702541463 0 0,0 0.19416230260989978,0.44428134570501576 l -6.662019841517763 2.84362012215692" fill="#ff5207" stroke="none" /><path d="M 119.31412917781788 91.75594674310238 l 7.639792075620737 -3.260972946964494 a29.306645984965996,29.306645984965996 0 0,0 0.19352735149682976,0.46439519243380883 l -7.69464527165405 3.1293452450894073" fill="#ff6108" stroke="none" /><path d="M 119.4528033332814 92.08871423366111 l 8.677116785051917 -3.5289078565347185 a30.367259276935926,30.367259276935926 0 0,0 0.19224112790110057,0.48457322351015003 l -8.736416587919141 3.3794336158110028" fill="#ff6f0a" stroke="none" /><path d="M 119.58574465831526 92.42381321644754 l 8.204933718571164 -3.1738446243947815 a29.797398878415464,29.797398878415464 0 0,0 0.18044356378459278,0.4786479909236459 l -8.258207966170197 3.0325283532769776" fill="#ff6709" stroke="none" /><path d="M 119.71291397450082 92.76114493625339 l 7.749147256207715 -2.8455942093532016 a29.255100823290775,29.255100823290775 0 0,0 0.1690663838696126,0.4729087655742419 l -7.796853810121271 2.712150487398043" fill="#ff6008" stroke="none" /><path d="M 119.83427380445688 93.10060997987247 l 8.341166299683985 -2.901490626358709 a29.831404367020642,29.831404367020642 0 0,0 0.16409343330289047,0.4851130780677015 l -8.38974515455924 2.7578758738168454" fill="#ff6809" stroke="none" /><path d="M 119.94978838288452 93.4421083053983 l 7.2216690113235495 -2.3739060445950213 a28.60183748955972,28.60183748955972 0 0,0 0.14932240868859908,0.46775031844006704 l -7.2613561357894065 2.2495866924635672" fill="#ff5708" stroke="none" /><path d="M 120.05942366710727 93.78553927170692 l 9.27458139959917 -2.873289025430816 a30.70946187805751,30.70946187805751 0 0,0 0.15168087603335442,0.5048963047836885 l -9.322538595636152 2.713655117056404" fill="#ff740a" stroke="none" /><path d="M 120.16314734710363 94.1308016681162 l 9.279921276341815 -2.701249836521289 a30.66507576661496,30.66507576661496 0 0,0 0.1427846356717525,0.5066923001871012 l -9.324924404088149 2.5415496124311745" fill="#ff730a" stroke="none" /><path d="M 120.26092885502905 94.47779374421319 l 9.563564556794528 -2.6065920472369206 a30.91242095215368,30.91242095215368 0 0,0 0.1351469246285697,0.5131748857597881 l -9.606900962227828 2.442036657104334" fill="#ff770a" stroke="none" /><path d="M 120.35273937422433 94.82641323984039 l 8.85651360193248 -2.251291124484203 a30.138169669490516,30.138169669490516 0 0,0 0.12315385169574626,0.5025097412735753 l -8.89385498014452 2.0989255586025326" fill="#ff6c09" stroke="none" /><path d="M 120.43855184770803 95.1765574152323 l 7.673819720617464 -1.8110005593379284 a28.884619973750148,28.884619973750148 0 0,0 0.10974661628284499,0.4835638409518846 l -7.703777198457976 1.6790023844470174" fill="#ff5b08" stroke="none" /><path d="M 120.51834098615036 95.52812308129327 l 8.266512818938246 -1.8016479937708134 a29.46056556496838,29.46056556496838 0 0,0 0.10345188310331427,0.49505471065262174 l -8.296222412865927 1.6594768318327873" fill="#ff6309" stroke="none" /><path d="M 120.592083275326 95.88100663000786 l 4.221470086289495 -0.8444122464229536 a25.305094857415583,25.305094857415583 0 0,0 0.08154712348347792,0.4266890085999772 l -4.235343502055129 0.7718206727896619" fill="#ff2803" stroke="none" /><path d="M 120.65975698304385 96.23510406497455 l 15.03939593766263 -2.7406789284799284 a36.287077914330034,36.287077914330034 0 0,0 0.10641649123940611,0.6137820423868247 l -15.08422724639427 2.4821038531725113" fill="#ffbe11" stroke="none" /><path d="M 120.7213421655516 96.59031103205396 l 10.962351863777341 -1.803850827520435 a32.10977210356759,32.10977210356759 0 0,0 0.08482867828982323,0.5446609666085191 l -10.99170203420543 1.6154016789804746" fill="#ff870c" stroke="none" /><path d="M 120.77682067341334 96.94652285012252 l 7.323079378267869 -1.076240484517133 a28.401742035556616,28.401742035556616 0 0,0 0.06675150994471613,0.48298067373249365 l -7.3404754047677985 0.9503715025845536" fill="#ff5407" stroke="none" /><path d="M 120.82617615685814 97.30363454192243 l 8.735939609049753 -1.1310422819955164 a29.808853358787736,29.808853358787736 0 0,0 0.06134649776944875,0.5080370047987091 l -8.754068193078865 0.9809116002733943" fill="#ff6709" stroke="none" /><path d="M 120.86939407059847 97.66154086499901 l 7.2561047991556995 -0.8130616775316626 a28.301515332299246,28.301515332299246 0 0,0 0.04995568869103708,0.4832759719382281 l -7.268992880328402 0.6883811833105031" fill="#ff5307" stroke="none" /><path d="M 120.9064616781168 98.02013634271609 l 8.905032997672642 -0.8433158834074993 a29.94487531320845,29.94487531320845 0 0,0 0.04407083879519655,0.5121699500697431 l -8.918197459165578 0.6903248859620942" fill="#ff6909" stroke="none" /><path d="M 120.93736805541906 98.37931529534042 l 7.605574694956886 -0.588719582405786 a28.628325975420594,28.628325975420594 0 0,0 0.033721494433673865,0.49030312821491917 l -7.614560150555626 0.45807303003653266" fill="#ff5708" stroke="none" /><path d="M 120.96210409425399 98.7389718711861 l 12.908414178552068 -0.7765381425615794 a33.93175038778189,33.93175038778189 0 0,0 0.029986635912074084,0.5817327257000733 l -12.919842403920715 0.5548336234847755" fill="#ff9f0e" stroke="none" /><path d="M 120.98066250479742 99.09900007780936 l 7.8115569415905055 -0.3354618661327526 a28.818756711609595,28.818756711609595 0 0,0 0.016982911174659634,0.4944389288687457 l -7.816164539762013 0.2013166726998869" fill="#ff5a08" stroke="none" /><path d="M 120.99303781780057 99.45929381324524 l 9.721987564931286 -0.2504039134085623 a30.725211788569382,30.725211788569382 0 0,0 0.009054527371382596,0.5273808260330206 l -9.724853523901334 0.0834761714064753" fill="#ff740a" stroke="none" /><line stroke="#e1ed5e" stroke-width="0.3" x1="184.99686870605535" x2="189.99668451229388" y1="99.2704041080226" y2="99.22748670261217" /><path d="M 185.99683186730306 99.26182062694052 a86.0,86.0 0 0,1 -10.086455211305974,41.156179273409016" fill="none" id="id40" stroke="none" /><text fill="#e1ed5e" style="font-size:6.75px; font-family:Arial;" text-anchor="middle"><textPath startOffset="21.40746469413373" xlink:href="#id40">April</textPath></text><path d="M 120.99922638620191 99.81974689727618 l 8.551170476867123 -0.07340151403808366 a29.551485502923278,29.551485502923278 0 0,0 0.0,0.5073092335238201 l -8.551170476867123 -0.07340151403808262" fill="#ff6409" stroke="none" /><path d="M 120.99922638620191 100.18025310272382 l 8.195020848383123 0.07034439781925081 a29.19532275384799,29.19532275384799 0 0,0 -0.008603678660054395,0.5011211488525172 l -8.1926057381244 -0.2110124626408391" fill="#ff5f08" stroke="none" /><path d="M 120.99303781780057 100.54070618675476 l 8.163621197185849 0.21026592368150696 a29.166328600405677,29.166328600405677 0 0,0 -0.017187735503946124,0.500402165732894 l -8.158808774685058 -0.3503743539785117" fill="#ff5f08" stroke="none" /><path d="M 120.98066250479742 100.90099992219065 l 9.657963959373399 0.4147545280767813 a30.66686552917313,30.66686552917313 0 0,0 -0.02710134669383213,0.5257588856773886 l -9.649421023222994 -0.5804852071309006" fill="#ff730a" stroke="none" /><path d="M 120.96210409425399 101.26102812881392 l 11.792188477724524 0.7093887762327302 a32.81350674143897,32.81350674143897 0 0,0 -0.038651246526980966,0.561980641719729 l -11.778273270032479 -0.9117128421068026" fill="#ff900d" stroke="none" /><path d="M 120.93736805541906 101.62068470465957 l 8.308994887522228 0.6431687540505583 a29.333850375850137,29.333850375850137 0 0,0 -0.043171573687811535,0.5017191264017634 l -8.296729691136676 -0.7857089278279791" fill="#ff6108" stroke="none" /><path d="M 120.9064616781168 101.97986365728391 l 5.652552459445493 0.5353025948461217 a26.67784273952989,26.67784273952989 0 0,0 -0.04708970495736802,0.45555017912583573 l -5.642530362006459 -0.6322572962548889" fill="#ff3c05" stroke="none" /><path d="M 120.86939407059847 102.33845913500097 l 10.321042486650823 1.1564943382637336 a31.38563417253311,31.38563417253311 0 0,0 -0.06459150620734708,0.534910329719921 l -10.299668894183812 -1.3334983449070632" fill="#ff7d0b" stroke="none" /><path d="M 120.82617615685814 102.69636545807757 l 8.48212202928338 1.098180514689783 a29.55291731296981,29.55291731296981 0 0,0 -0.06945707243740587,0.502556776155126 l -8.462020440290765 -1.243625599044994" fill="#ff6409" stroke="none" /><path d="M 120.77682067341334 103.0534771498775 l 10.632241468921462 1.562573354588132 a31.746450304259636,31.746450304259636 0 0,0 -0.08386884251366512,0.5384981323858656 l -10.60385113426953 -1.744859668905448" fill="#ff820c" stroke="none" /><path d="M 120.7213421655516 103.40968896794604 l 8.514304025138271 1.4010254872638304 a29.628803245436103,29.628803245436103 0 0,0 -0.08689025025508869,0.5011598732859046 l -8.488998957390947 -1.546978393470323" fill="#ff6509" stroke="none" /><path d="M 120.65975698304385 103.76489593502545 l 8.967222660375143 1.6341266826237584 a30.11490275623434,30.11490275623434 0 0,0 -0.09704700605126666,0.5077909438216069 l -8.937849362041716 -1.7878201914786798" fill="#ff6c09" stroke="none" /><path d="M 120.592083275326 104.11899336999214 l 8.397310247309377 1.6796972298513955 a29.563655888318817,29.563655888318817 0 0,0 -0.10381388864787552,0.4967870382308074 l -8.367238647837139 -1.823600719367612" fill="#ff6409" stroke="none" /><path d="M 120.51834098615036 104.47187691870673 l 7.951394861167752 1.732969501539151 a29.138050351986635,29.138050351986635 0 0,0 -0.11070952064163889,0.4878065752245068 l -7.920474478968449 -1.869210410702675" fill="#ff5e08" stroke="none" /><path d="M 120.43855184770803 104.8234425847677 l 9.209489459051285 2.1734144361964027 a30.462474645030426,30.462474645030426 0 0,0 -0.12447906179641346,0.5079170507133739 l -9.170822870738577 -2.3311873115178763" fill="#ff700a" stroke="none" /><path d="M 120.35273937422433 105.17358676015961 l 8.223385107924615 2.090352337137119 a29.484906335759455,29.484906335759455 0 0,0 -0.1289059313861892,0.4894768178756 l -8.186289695733695 -2.231209659385522" fill="#ff6309" stroke="none" /><path d="M 120.26092885502905 105.52220625578681 l 7.941433156994447 2.1644729209234765 a29.231118005011336,29.231118005011336 0 0,0 -0.13610775223218627,0.4829983963426206 l -7.90310691268768 -2.3004792411691057" fill="#ff5f08" stroke="none" /><path d="M 120.16314734710363 105.8691983318838 l 14.551752410663033 4.235803047232005 a36.155709342560556,36.155709342560556 0 0,0 -0.17858110599473945,0.5944384214995108 l -14.476894984664662 -4.484979072322239" fill="#ffbc11" stroke="none" /><path d="M 120.05942366710727 106.21446072829308 l 5.016992917099304 1.5542772302358099 a26.25223720319771,26.25223720319771 0 0,0 -0.13705578510740501,0.4293252947836762 l -4.989572416214645 -1.6401715587108696" fill="#ff3605" stroke="none" /><path d="M 119.94978838288452 106.5578916946017 l 7.29852060036904 2.399168688380794 a28.68273475718888,28.68273475718888 0 0,0 -0.1577749530299213,0.4664336138610381 l -7.256260225766753 -2.5241039767159927" fill="#ff5808" stroke="none" /><path d="M 119.83427380445688 106.89939002012753 l 7.686977065333771 2.6739296518935634 a29.138766257009905,29.138766257009905 0 0,0 -0.16839408181333365,0.4710282170686667 l -7.639942813476494 -2.8054928253431513" fill="#ff5e08" stroke="none" /><path d="M 119.71291397450082 107.23885506374661 l 7.446062925919825 2.7342974451160758 a28.932227657797398,28.932227657797398 0 0,0 -0.1752043622365249,0.46475038636280563 l -7.398027879868859 -2.86171611167304" fill="#ff5b08" stroke="none" /><path d="M 119.58574465831526 107.57618678355244 l 8.611558175145184 3.3311356994858348 a30.233385037585016,30.233385037585016 0 0,0 -0.19139363176932858,0.48243697963263754 l -8.553105868409732 -3.4784736963320366" fill="#ff6d0a" stroke="none" /><path d="M 119.4528033332814 107.91128576633889 l 8.628042946380676 3.508949953566811 a30.314282305214174,30.314282305214174 0 0,0 -0.20018130938848266,0.4803622690854665 l -8.566535792455708 -3.6565447320935553" fill="#ff6e0a" stroke="none" /><path d="M 119.31412917781788 108.2440532568976 l 12.839104160869306 5.480250105949679 a34.95979000119318,34.95979000119318 0 0,0 -0.24033376990354088,0.5499306985745369 l -12.743136508948801 -5.699842874300061" fill="#ffad10" stroke="none" /><path d="M 119.16976305983485 108.57439118712176 l 7.134378895263676 3.1911169342154295 a28.815535139004893,28.815535139004893 0 0,0 -0.20584656782694072,0.4498119000926472 l -7.078547862581679 -3.3131178165227655" fill="#ff5a08" stroke="none" /><path d="M 119.0197475246899 108.90220220490707 l 9.514898837542809 4.453453091377055 a31.50554826393032,31.50554826393032 0 0,0 -0.2334722285339354,0.4878671624292677 l -9.43704735104896 -4.616132755871426" fill="#ff7f0b" stroke="none" /><path d="M 118.8641267826498 109.22738970284198 l 8.093950591863589 3.95915682751697 a30.01038062283737,30.01038062283737 0 0,0 -0.23033694063513685,0.46082817786980274 l -8.024793738016719 -4.097516861550519" fill="#ff6a09" stroke="none" /><path d="M 118.70294669586154 109.54985784667822 l 9.062801381866333 4.627530960597416 a31.175874000715908,31.175874000715908 0 0,0 -0.24746507802728615,0.4745469166109282 l -8.982028234864098 -4.7824241203128475" fill="#ff7a0b" stroke="none" /><path d="M 118.5362547648365 109.86951160357373 l 11.131800294453772 5.927056655651548 a33.611382889869944,33.611382889869944 0 0,0 -0.275540755730978,0.5069639557428917 l -11.028414189107455 -6.117275444869042" fill="#ff9b0e" stroke="none" /><line stroke="#e1ed5e" stroke-width="0.3" x1="174.33088141563837" x2="178.70328620479359" y1="141.23008692659167" y2="143.65538615756765" /><path d="M 175.20536237346943 141.71514677278685 a86.0,86.0 0 0,1 -30.301960400862466,31.631185727798858" fill="none" id="id41" stroke="none" /><text fill="#e1ed5e" style="font-size:6.75px; font-family:Arial;" text-anchor="middle"><textPath startOffset="22.145653131862474" xlink:href="#id41">May</textPath></text><path d="M 118.36410011445183 110.18625677009912 l 7.185435050833379 3.9856396979157833 a29.216799904545997,29.216799904545997 0 0,0 -0.24704423066161657,0.43650348425809066 l -7.115957455150385 -4.108399952272997" fill="#ff5f08" stroke="none" /><path d="M 118.18653347947321 110.5 l 10.266136486265097 5.927156663882589 a32.85431332776518,32.85431332776518 0 0,0 -0.28618655444201363,0.4860073357994248 l -10.162876221693317 -6.102515167975564" fill="#ff910d" stroke="none" /><path d="M 118.00360718960297 110.81064883170644 l 7.681461325156426 4.612496819446093 a29.95990931869705,29.95990931869705 0 0,0 -0.2685435578947541,0.43864571998920726 l -7.601149802806267 -4.743679655559858" fill="#ff6a09" stroke="none" /><path d="M 117.81537515405839 111.11811171558189 l 4.861747766486691 3.0340901795978326 a26.73081971125164,26.73081971125164 0 0,0 -0.2462828905935776,0.3871976105139314 l -4.808947184267224 -3.1171014647904363" fill="#ff3c05" stroke="none" /><path d="M 117.62189284568427 111.42229804090321 l 6.759859861457455 4.381659491886867 a29.05572127431094,29.05572127431094 0 0,0 -0.2748886536541288,0.4162164575564071 l -6.6836467688826 -4.497055827782336" fill="#ff5d08" stroke="none" /><path d="M 117.423217284605 111.72311816256416 l 7.961276113460825 5.356701869600582 a30.595632979358072,30.595632979358072 0 0,0 -0.2969382861821349,0.4332418336479291 l -7.86814809046337 -5.492578438318555" fill="#ff720a" stroke="none" /><path d="M 117.21940702142032 112.02048342749411 l 6.871091386494108 4.796555423622092 a29.379668297339222,29.379668297339222 0 0,0 -0.29223662464343536,0.4110674103561464 l -6.787739663320711 -4.913800060687742" fill="#ff6209" stroke="none" /><path d="M 117.01052211995028 112.31430620078461 l 6.350784359065078 4.597478117438853 a28.8402338623076,28.8402338623076 0 0,0 -0.29375560847036614,0.3985359002881782 l -6.270926731010884 -4.705820326995909" fill="#ff5a08" stroke="none" /><path d="M 116.79662413953412 112.60449989151573 l 7.277000626494254 5.460796934267226 a30.098078988187567,30.098078988187567 0 0,0 -0.3136621462856575,0.41059381817809115 l -7.182186502854292 -5.584911665686193" fill="#ff6b09" stroke="none" /><path d="M 116.57777611688842 112.89097897827486 l 7.146017015016808 5.556786053174575 a30.052261066698485,30.052261066698485 0 0,0 -0.3201761731306706,0.40453213542023425 l -7.049574411244576 -5.678638132509492" fill="#ff6b09" stroke="none" /><path d="M 116.35404254752997 113.17365903436017 l 7.516219496634408 6.054534381227152 a30.651473571172893,30.651473571172893 0 0,0 -0.3335948466530813,0.4069314711534262 l -7.411177830742699 -6.182668134079072" fill="#ff730a" stroke="none" /><path d="M 116.1254893667686 113.45245675266167 l 7.3248703041746905 6.110667325782487 a30.539076482519988,30.539076482519988 0 0,0 -0.33928250327828285,0.3996739357480973 l -7.218893237389294 -6.235508043980141" fill="#ff720a" stroke="none" /><path d="M 115.89218393027572 113.72728997021213 l 6.781950958432898 5.85808771019876 a29.96169908125522,29.96169908125522 0 0,0 -0.3395501374448074,0.38634572605317 l -6.680389757029505 -5.973645714063222" fill="#ff6a09" stroke="none" /><path d="M 115.6541949942343 113.99807769240083 l 6.45705191445746 5.773935638065821 a29.662092829018015,29.662092829018015 0 0,0 -0.3426710437219695,0.37665550418187344 l -6.35698316989361 -5.883928717805366" fill="#ff6509" stroke="none" /><path d="M 115.41159269507618 114.26474011684316 l 6.136318437354637 5.679684735700466 a29.361412719245912,29.361412719245912 0 0,0 -0.3455477079439811,0.36695969125049305 l -6.037914895674396 -5.784185886895456" fill="#ff6109" stroke="none" /><path d="M 115.16444852881244 114.52719865689866 l 6.153715481027457 5.895120228148472 a29.521775444457703,29.521775444457703 0 0,0 -0.3537175407279788,0.36294535760146984 l -6.0516111391486715 -5.9998882778176785" fill="#ff6409" stroke="none" /><path d="M 114.91283532996324 114.78537596483092 l 3.747845366304364 3.715812692407437 a26.277651831523684,26.277651831523684 0 0,0 -0.32034719947055673,0.3176092056710538 l -3.6835062467038426 -3.779601908307152" fill="#ff3605" stroke="none" /><path d="M 114.65682725009322 115.03919595460226 l 5.336886899219174 5.476116112673453 a28.6465815535139,28.6465815535139 0 0,0 -0.3551187316325181,0.3401957117932522 l -5.242095681721343 -5.566923954772285" fill="#ff5708" stroke="none" /><path d="M 114.39649973595853 115.28858382429668 l 5.666871808725351 6.018021481488454 a29.266197351151412,29.266197351151412 0 0,0 -0.36871259647450927,0.34127487473735907 l -5.562729440936875 -6.114414102358193" fill="#ff6008" stroke="none" /><path d="M 114.13192950727249 115.5334660781643 l 4.669532335017594 5.132634017850152 a27.938909438014555,27.938909438014555 0 0,0 -0.35753152754328166,0.31970689657800605 l -4.580735780650935 -5.212036444311545" fill="#ff4d07" stroke="none" /><path d="M 113.86319453409587 115.77377054828091 l 5.3158747547858365 6.048489649276891 a29.05249970170624,29.05249970170624 0 0,0 -0.37743419441947523,0.32601866767971976 l -5.211261080603506 -6.138852449421329" fill="#ff5d08" stroke="none" /><path d="M 113.59037401385872 116.0094264158162 l 4.92053683379708 5.796380017699079 a28.603269299606254,28.603269299606254 0 0,0 -0.3770532890004823,0.3145512640491294 l -4.8203092106347025 -5.879993465660078" fill="#ff5708" stroke="none" /><path d="M 113.31354834802062 116.24036423190432 l 5.4284928500349645 6.621878616451895 a29.562582030783915,29.562582030783915 0 0,0 -0.3952224824501066,0.3183632555302024 l -5.314019597229605 -6.7140901657755006" fill="#ff6409" stroke="none" /><path d="M 113.03279911837588 116.46651593811092 l 3.3371181133557593 4.21633972117719 a26.377162629757784,26.377162629757784 0 0,0 -0.3574608653889663,0.2779637310091767 l -3.264247303331562 -4.27300450380716" fill="#ff3705" stroke="none" /><path d="M 112.7482090630111 116.68781488649013 l 5.788812951721 7.577741977194967 a30.535854909915287,30.535854909915287 0 0,0 -0.4192820235394559,0.3146370470824941 l -5.657877939270778 -7.675998051541476" fill="#ff710a" stroke="none" /><path d="M 112.45986205192187 116.90419585922612 l 5.7825466461158195 7.845135095695184 a30.745973034244123,30.745973034244123 0 0,0 -0.42754323716805703,0.3095083325153991 l -5.647022398573794 -7.943244199583661" fill="#ff740a" stroke="none" /><path d="M 112.16784306229584 117.11559508785304 l 5.335707137242789 7.505340297443317 a30.208686314282303,30.208686314282303 0 0,0 -0.4252302839854263,0.29684376326995304 l -5.206081762083604 -7.595828876518393" fill="#ff6d0a" stroke="none" /><path d="M 111.8722381534696 117.32195027204791 l 5.094982528336271 7.433731774240207 a30.012170385395535,30.012170385395535 0 0,0 -0.4274643602160474,0.2876170986816222 l -4.96662188002322 -7.52009854697895" fill="#ff6a09" stroke="none" /><path d="M 111.5731344415666 117.5232005979908 l 4.356668555439998 6.59655147197959 a28.90538121942489,28.90538121942489 0 0,0 -0.41639491066497275,0.2699021503524485 l -4.242788012518016 -6.670367464035934" fill="#ff5b08" stroke="none" /><path d="M 111.27062007382361 117.71928675628689 l 4.091788176528016 6.432970641453538 a28.624030545280995,28.624030545280995 0 0,0 -0.41686930092218216,0.26015727529563126 l -3.9807547468161197 -6.502263713590717" fill="#ff5708" stroke="none" /><path d="M 110.96478420261333 117.91015095944535 l 2.8460929285185146 4.648878906547697 a26.450900847154276,26.450900847154276 0 0,0 -0.3892908100667875,0.23375794621163415 l -2.7658693618942904 -4.697050853295255" fill="#ff3805" stroke="none" /><line stroke="#e1ed5e" stroke-width="0.3" x1="143.1302829299769" x2="145.66735839644613" y1="173.24464959558577" y2="177.55315839532614" /><path d="M 143.63769802327073 174.10635135553383 a86.0,86.0 0 0,1 -40.68552437913181,11.842963189579606" fill="none" id="id42" stroke="none" /><text fill="#e1ed5e" style="font-size:6.75px; font-family:Arial;" text-anchor="middle"><textPath startOffset="21.407464694133747" xlink:href="#id42">June</textPath></text><path d="M 110.65571695917076 118.09573695890943 l 4.773249726200549 8.106021567152569 a30.40699200572724,30.40699200572724 0 0,0 -0.4520615206617472,0.26099784064433235 l -4.633395737678404 -8.186766305073073" fill="#ff700a" stroke="none" /><path d="M 110.34350942703117 118.27599006163325 l 3.7472676182883107 6.621062825267241 a28.607922682257488,28.607922682257488 0 0,0 -0.4294673281125126,0.23821828737906697 l -3.6330561020197036 -6.684414028079452" fill="#ff5708" stroke="none" /><path d="M 110.02825361518725 118.45085714620011 l 3.9188597061684254 7.210260468982286 a29.206419281708627,29.206419281708627 0 0,0 -0.4425623460127111,0.23563952182849762 l -3.7945085443691604 -7.2764704585333515" fill="#ff5f08" stroke="none" /><path d="M 109.71004243097381 118.62028667847754 l 3.513967151073089 6.738495346118886 a28.599689774489917,28.599689774489917 0 0,0 -0.43726580257262515,0.223271034435777 l -3.397774126786882 -6.797824332227499" fill="#ff5708" stroke="none" /><path d="M 109.3889696526874 118.78422872680471 l 3.596701791032376 7.195812917077896 a29.044624746450303,29.044624746450303 0 0,0 -0.4478954303889141,0.2190880993294559 l -3.4726461113813922 -7.256494766504575" fill="#ff5d08" stroke="none" /><path d="M 109.06512990194946 118.94263497670748 l 4.179722226255525 8.734011899704049 a30.682615439685,30.682615439685 0 0,0 -0.4770581061427396,0.2232872817507044 l -4.029175406241279 -8.804475413025287" fill="#ff730a" stroke="none" /><path d="M 108.73861861582097 119.09545874513695 l 2.2563382274951174 4.930506231294162 a26.422264646223603,26.422264646223603 0 0,0 -0.41405776958446655,0.18520277373292315 l -2.1713670550550237 -4.968512755936936" fill="#ff3805" stroke="none" /><path d="M 108.4095320186766 119.2426549942271 l 3.2316787863886645 7.3947134989832435 a29.07003937477628,29.07003937477628 0 0,0 -0.4589812104804906,0.19591178604429219 l -3.1042625007377427 -7.449099934686939" fill="#ff5d08" stroke="none" /><path d="M 108.07796709384702 119.3841803445677 l 3.102885582351965 7.44579583181061 a29.066459849659946,29.066459849659946 0 0,0 -0.4622197426562432,0.1879807454147713 l -2.974611378505281 -7.497963833804673" fill="#ff5d08" stroke="none" /><path d="M 107.74402155503746 119.51999308798841 l 2.961807415615774 7.4656894831555 a29.031738456031498,29.031738456031498 0 0,0 -0.464822654140527,0.17980338814945743 l -2.833212498981718 -7.515432759442998" fill="#ff5d08" stroke="none" /><path d="M 107.407793817531 119.65005319985036 l 2.7128786228996438 7.196232856610786 a28.690609712444815,28.690609712444815 0 0,0 -0.4623435034451806,0.16977893858988738 l -2.588945967800336 -7.2417426442093955" fill="#ff5808" stroke="none" /><path d="M 107.06938296918513 119.77432235084164 l 2.623409013962352 7.338141917946603 a28.792984130771984,28.792984130771984 0 0,0 -0.4668497572441498,0.1623945795941112 l -2.49705348467318 -7.382094930109305" fill="#ff5908" stroke="none" /><path d="M 106.72888874123015 119.89276391827305 l 2.542014440347788 7.515014006523014 a28.9333015153323,28.9333015153323 0 0,0 -0.4718570425611271,0.1551087821616034 l -2.412634660138927 -7.5575437100866365" fill="#ff5b08" stroke="none" /><path d="M 106.38641147887787 120.00534299687104 l 1.6301585541479238 5.106448452761242 a26.360338861711014,26.360338861711014 0 0,0 -0.4322585527480158,0.13391480458764035 l -1.5422593685282837 -5.133679845155527" fill="#ff3705" stroke="none" /><path d="M 106.0420521117495 120.11202640906438 l 2.113024071058083 7.033569908718259 a28.34411168118363,28.34411168118363 0 0,0 -0.46719192697044076,0.13599276101299526 l -1.9919721317060355 -7.068806364033772" fill="#ff5307" stroke="none" /><path d="M 105.69591212413111 120.21278271476187 l 2.0500312697262233 7.274837762663793 a28.558167283140435,28.558167283140435 0 0,0 -0.4730029398235491,0.1289190545995544 l -1.9248469289679793 -7.30895731140749" fill="#ff5608" stroke="none" /><path d="M 105.3480935250658 120.30758222061773 l 1.9250292493022416 7.30964961141331 a28.558883188163705,28.558883188163705 0 0,0 -0.47515821987326606,0.12078336140001736 l -1.7992657362035782 -7.341618204648597" fill="#ff5608" stroke="none" /><path d="M 104.9986988182912 120.39639698878246 l 1.7137203083895711 6.992563666718627 a28.199498866483715,28.199498866483715 0 0,0 -0.47115702061418385,0.11119177397089307 l -1.5934311340355083 -7.020951584335745" fill="#ff5107" stroke="none" /><path d="M 104.64783097203109 120.47920084513623 l 1.7086227448786253 7.5285070759891095 a28.719961818398758,28.719961818398758 0 0,0 -0.4817261878906413,0.10498998053589255 l -1.5791341403688481 -7.556728514658721" fill="#ff5808" stroke="none" /><path d="M 104.29559338865022 120.5559693870025 l 1.6579187805615911 7.933741538341793 a29.10511872091636,29.10511872091636 0 0,0 -0.4899410360420296,0.09800192880738291 l -1.5214812589886029 -7.9610328638120365" fill="#ff5e08" stroke="none" /><path d="M 103.94208987418118 120.62667999033965 l 0.8727199837364297 4.56643973127195 a25.649087221095336,25.649087221095336 0 0,0 -0.4331828739734263,0.0789403497187199 l -0.7942023762119462 -4.580748254922033" fill="#ff2d04" stroke="none" /><path d="M 103.58742460773223 120.69131181640829 l 1.2282375214500425 7.084147632303969 a28.18983414866961,28.18983414866961 0 0,0 -0.47751229485164404,0.07857446640309622 l -1.106447723545326 -7.104188097202736" fill="#ff5107" stroke="none" /><path d="M 103.2317021107853 120.74984581791261 l 0.9813485111500538 6.300961413505263 a27.37692399475003,27.37692399475003 0 0,0 -0.46498387974351846,0.06833661772299376 l -0.8730395257988498 -6.316879104527139" fill="#ff4606" stroke="none" /><path d="M 102.875027216393 120.80226474461374 l 0.9470383854090809 6.852297990176088 a27.91743228731655,27.91743228731655 0 0,0 -0.47529053326562887,0.061535875179211774 l -0.8292700302526768 -6.867545461555694" fill="#ff4d07" stroke="none" /><path d="M 102.51750503828377 120.84855314841334 l 0.470742159475905 3.898420373260852 a24.92673905261902,24.92673905261902 0 0,0 -0.4252550329866048,0.04765071344326573 l -0.4037512248885009 -3.9059268472110884" fill="#ff2303" stroke="none" /><path d="M 102.15924093988457 120.88869738790638 l 0.867715485685624 8.39436019597526 a29.439088414270373,29.439088414270373 0 0,0 -0.5031286516870845,0.04764680641565406 l -0.7234872706135241 -8.408018757896096" fill="#ff6209" stroke="none" /><path d="M 101.80034050326958 120.92268563240118 l 0.757949274553929 8.80851948173039 a29.841069084834743,29.841069084834743 0 0,0 -0.5107526408639897,0.03953548462833206 l -0.6066276389147034 -8.820232733353775" fill="#ff6809" stroke="none" /><path d="M 101.44090949804482 120.95050786540614 l 0.5461097838482705 7.940316402531326 a28.959074096169907,28.959074096169907 0 0,0 -0.49624220812005565,0.029852698962394335 l -0.4097232235957497 -7.948521079318412" fill="#ff5c08" stroke="none" /><path d="M 101.08105385017728 120.97215588758144 l 0.3882005465028855 7.530986893546255 a28.54098556258203,28.54098556258203 0 0,0 -0.4895108460336042,0.021021701964218337 l -0.2588639398684518 -7.536541163936305" fill="#ff5607" stroke="none" /><path d="M 100.72087961077811 120.9876233191556 l 0.24304973326045365 7.07612779335739 a28.080300680109772,28.080300680109772 0 0,0 -0.4818936429524666,0.012411870848023794 l -0.12154277623724322 -7.0792573815554585" fill="#ff4f07" stroke="none" /><line stroke="#e1ed5e" stroke-width="0.3" x1="101.45913802915013" x2="101.54496967792366" y1="184.9874750549273" y2="189.98673829345242" /><path d="M 101.47630435890484 185.9873277026323 a86.0,86.0 0 0,1 -42.54439059252881,-10.42667462771756" fill="none" id="id43" stroke="none" /><text fill="#e1ed5e" style="font-size:6.75px; font-family:Arial;" text-anchor="middle"><textPath startOffset="22.145653131862474" xlink:href="#id43">July</textPath></text><path d="M 100.36049292484886 120.99690560180557 l 0.13702135325148065 7.980806893392579 a28.98198305691445,28.98198305691445 0 0,0 -0.4975142781003319,0.0042705617163075835 l -9.775110001498688e-16 -7.981983056914451" fill="#ff5c08" stroke="none" /><path d="M 100.0 121.0 l 8.470096212787911e-16 6.916358429781649 a27.91635842978165,27.91635842978165 0 0,0 -0.47922141435623317,-0.0041135394819197205 l 0.11872848950738017 -6.915339288494164" fill="#ff4d07" stroke="none" /><path d="M 99.63950707515114 120.99690560180557 l -0.13052637274173323 7.602506840192166 a28.603627252117885,28.603627252117885 0 0,0 -0.49087459194983424,-0.012643188236573536 l 0.26101427876231137 -7.599145934605545" fill="#ff5708" stroke="none" /><path d="M 99.27912038922189 120.98762331915562 l -0.315878639682833 9.196461940537837 a30.20188521656127,30.20188521656127 0 0,0 -0.5179971922045584,-0.022245028238006687 l 0.4737015924882302 -9.189684343874003" fill="#ff6d0a" stroke="none" /><path d="M 98.91894614982273 120.97215588758144 l -0.46176092916958655 8.958038665466162 a29.96993198902279,29.96993198902279 0 0,0 -0.5135642520217294,-0.030894750109087887 l 0.6154695333237623 -8.948791937532382" fill="#ff6a09" stroke="none" /><path d="M 98.55909050195518 120.95050786540614 l -0.43708431362104133 6.355109993229032 a27.370122897028995,27.370122897028995 0 0,0 -0.46846051361925994,-0.03626180650548371 l 0.5461138220155374 -6.346670419728494" fill="#ff4506" stroke="none" /><path d="M 98.19965949673042 120.92268563240118 l -0.8598929763259928 9.99325982418589 a31.030187328481087,31.030187328481087 0 0,0 -0.5303213228779348,-0.05022198064954123 l 1.0313138625889429 -9.977026088031165" fill="#ff780b" stroke="none" /><path d="M 97.84075906011543 120.88869738790638 l -0.620937731549126 6.007009283436488 a27.039016823768048,27.039016823768048 0 0,0 -0.46129090399848,-0.05168860795378041 l 0.7239645371484053 -5.995464914975736" fill="#ff4106" stroke="none" /><path d="M 97.48249496171623 120.84855314841334 l -1.0318565147454537 8.545252169136775 a29.6073260947381,29.6073260947381 0 0,0 -0.5040607482562046,-0.06526075550951234 l 1.1783950848924525 -8.526279817426866" fill="#ff6509" stroke="none" /><path d="M 97.12497278360702 120.80226474461374 l -0.7731165623913887 5.593886317879326 a26.647058823529413,26.647058823529413 0 0,0 -0.45258747103562674,-0.06651477253671223 l 0.8690291390347002 -5.579790472043731" fill="#ff3b05" stroke="none" /><path d="M 96.76829788921471 120.74984581791261 l -1.5306613011129064 9.827943575474082 a30.94642644075886,30.94642644075886 0 0,0 -0.5242066707186399,-0.08625800818271749 l 1.6991454748846098 -9.800219568795697" fill="#ff770b" stroke="none" /><path d="M 96.41257539226777 120.69131181640829 l -0.8811561627051221 5.082274588345125 a26.15809569263811,26.15809569263811 0 0,0 -0.44177942755363997,-0.08050692814729865 l 0.9682703238098191 -5.0663994862664605" fill="#ff3405" stroke="none" /><path d="M 96.05791012581884 120.62667999033965 l -1.4694056517052827 7.6885512814486425 a28.82770552440043,28.82770552440043 0 0,0 -0.48527120080734126,-0.0970678309740817 l 1.6011733380435822 -7.6621940538116995" fill="#ff5a08" stroke="none" /><path d="M 95.70440661134978 120.55596938700252 l -0.31879955706245455 1.5255712872826108 a22.55852523565207,22.55852523565207 0 0,0 -0.3783790673163005,-0.08246595661879608 l 0.34494104099789147 -1.519873872530096" fill="#ff0000" stroke="none" /><path d="M 95.35216902796893 120.47920084513623 l -1.8391045764182488 8.103434101266343 a29.309509605059063,29.309509605059063 0 0,0 -0.48970307190795914,-0.11556859157794412 l 1.9779398020660959 -8.070669366042171" fill="#ff6108" stroke="none" /><path d="M 95.00130118170881 120.39639698878247 l -1.3585874965083093 5.543500604873887 a26.707552797995465,26.707552797995465 0 0,0 -0.4443560751677782,-0.11295357666673524 l 1.453548864901466 -5.519361796371888" fill="#ff3c05" stroke="none" /><path d="M 94.6519064749342 120.30758222061772 l -2.078907611419124 7.893950816322414 a29.163107027800976,29.163107027800976 0 0,0 -0.4830224300381563,-0.13164991121223632 l 2.2141114423919754 -7.857100410966034" fill="#ff5f08" stroke="none" /><path d="M 94.30408787586889 120.21278271476187 l -2.1536250828826486 7.642455659550476 a28.940102613053334,28.940102613053334 0 0,0 -0.47701556000749096,-0.13885227741892187 l 2.2845006552717466 -7.604359687829038" fill="#ff5b08" stroke="none" /><path d="M 93.95794788825049 120.11202640906438 l -2.417047420366631 8.045564760330883 a29.40078749552559,29.40078749552559 0 0,0 -0.48211602738260856,-0.1493607776759179 l 2.5548040806208734 -8.002887394848317" fill="#ff6209" stroke="none" /><path d="M 93.61358852112213 120.00534299687104 l -2.438543023136402 7.638701288167252 a29.018494213101064,29.018494213101064 0 0,0 -0.4732464026517928,-0.15556549241960416 l 2.569312163435938 -7.595714874345626" fill="#ff5d08" stroke="none" /><path d="M 93.27111125876986 119.89276391827306 l -1.9810347612546548 5.856577264840751 a27.182555780933065,27.182555780933065 0 0,0 -0.4407382544986635,-0.15331164349930643 l 2.08127878779834 -5.821707188772854" fill="#ff4306" stroke="none" /><path d="M 92.93061703081489 119.77432235084164 l -2.4362722632993763 6.814687120345619 a28.237083880205226,28.237083880205226 0 0,0 -0.45503502431971693,-0.1670951638220321 l 2.552896439273212 -6.771861107514868" fill="#ff5207" stroke="none" /><path d="M 92.59220618246901 119.65005319985036 l -2.5195615564970657 6.683436370528818 a28.142584417133993,28.142584417133993 0 0,0 -0.4505865469598977,-0.1742965560655754 l 2.6339203659504915 -6.639199926325202" fill="#ff5007" stroke="none" /><path d="M 92.25597844496254 119.51999308798841 l -2.853567729333353 7.192854766327464 a28.738217396492065,28.738217396492065 0 0,0 -0.45699997585227564,-0.18585791169706306 l 2.9766221663760697 -7.14280959805111" fill="#ff5908" stroke="none" /><path d="M 91.92203290615298 119.3841803445677 l -1.5007033486600418 3.6011417249125293 a24.901324424293044,24.901324424293044 0 0,0 -0.3931621790903538,-0.16781755538537693 l 1.5623006029208268 -3.5748495198677483" fill="#ff2203" stroke="none" /><path d="M 91.59046798132341 119.24265499422711 l -3.082028191889228 7.052283652323741 a28.69633695263095,28.69633695263095 0 0,0 -0.44969427991663874,-0.20114253152639044 l 3.202635874661502 -6.998337369887495" fill="#ff5808" stroke="none" /><path d="M 91.26138138417905 119.09545874513695 l -2.6166552444155435 5.717863940133651 a27.288151771864932,27.288151771864932 0 0,0 -0.424280453861981,-0.19858467558341958 l 2.714424412149014 -5.672103032979705" fill="#ff4406" stroke="none" /><path d="M 90.93487009805054 118.94263497670748 l -3.2657459982222026 6.824153105369505 a28.565326333373108,28.565326333373108 0 0,0 -0.4405041980736758,-0.21547267722470143 l 3.382410445557948 -6.7670866780475825" fill="#ff5608" stroke="none" /><path d="M 90.6110303473126 118.78422872680471 l -3.0375278096375613 6.077090378487964 a27.79393867080301,27.79393867080301 0 0,0 -0.42494652897890595,-0.2169807255605244 l 3.1414015603300496 -6.024051701254604" fill="#ff4b07" stroke="none" /><path d="M 90.28995756902619 118.62028667847754 l -3.227632867649962 6.189411603064594 a27.980431929364038,27.980431929364038 0 0,0 -0.42398506566887745,-0.22574816641488235 l 3.3334067491054014 -6.133092968927138" fill="#ff4e07" stroke="none" /><path d="M 89.97174638481275 118.45085714620012 l -2.2233537554799216 4.090720488530603 a25.65588831881637,25.65588831881637 0 0,0 -0.3851508524059437,-0.2136366853468649 l 2.2932487960419676 -4.051950887750589" fill="#ff2d04" stroke="none" /><line stroke="#e1ed5e" stroke-width="0.3" x1="58.13341422392154" x2="55.67067388415222" y1="173.97424548756322" y2="178.32567169271397" /><path d="M 57.64086615596768 174.84453072859336 a86.0,86.0 0 0,1 -31.369924170532247,-30.572349798747897" fill="none" id="id44" stroke="none" /><text fill="#e1ed5e" style="font-size:6.75px; font-family:Arial;" text-anchor="middle"><textPath startOffset="22.145653131862474" xlink:href="#id44">August</textPath></text><path d="M 89.65649057296885 118.27599006163327 l -3.0007760827734535 5.3020838094499165 a27.092351748001434,27.092351748001434 0 0,0 -0.40278267995721495,-0.23254668869821868 l 3.0913512305910684 -5.249790223475526" fill="#ff4206" stroke="none" /><path d="M 89.34428304082925 118.09573695890944 l -3.2542737954465424 5.52646835687491 a27.413435150936643,27.413435150936643 0 0,0 -0.4034568969234151,-0.2422642743443026 l 3.3486634489273848 -5.469790081994689" fill="#ff4606" stroke="none" /><path d="M 87.54013794807813 116.9041958592261 l -4.623786059154058 6.27305381306717 a28.792984130771984,28.792984130771984 0 0,0 -0.3953509959260875,-0.2966787578184869 l 4.730790043990912 -6.192756027984668" fill="#ff5908" stroke="none" /><path d="M 86.13680546590413 115.77377054828092 l -4.643828710928664 5.283824617158142 a28.03448275862069,28.03448275862069 0 0,0 -0.35875457010279055,-0.32080054877637143 l 4.733848307854825 -5.203328538498388" fill="#ff4f07" stroke="none" /><path d="M 85.34317274990678 115.03919595460226 l -6.315974052015724 6.4807457843131555 a30.04939744660542,30.04939744660542 0 0,0 -0.36632802578843143,-0.36319703583487306 l 6.426293997934118 -6.371368738249623" fill="#ff6b09" stroke="none" /><path d="M 85.08716467003676 114.78537596483092 l -4.773266433021117 4.732469529166228 a27.72163226345305,27.72163226345305 0 0,0 -0.33214897957754036,-0.34081411377459364 l 4.853802213749467 -4.649832723323898" fill="#ff4a06" stroke="none" /><path d="M 84.83555147118756 114.52719865689866 l -5.4919978504385405 5.261209706702676 a28.605417014676053,28.605417014676053 0 0,0 -0.3366505685104246,-0.3575112374929008 l 5.581504252685218 -5.166157009265285" fill="#ff5708" stroke="none" /><path d="M 84.58840730492382 114.26474011684316 l -4.923187800610613 4.556829129318996 a27.708388020522612,27.708388020522612 0 0,0 -0.3201008876068619,-0.3518469489019647 l 5.0006863890593545 -4.471644604859358" fill="#ff4a06" stroke="none" /><path d="M 84.3458050057657 113.99807769240083 l -5.779033446147349 5.16764734283357 a28.752535496957403,28.752535496957403 0 0,0 -0.3258469205435092,-0.37075398068432536 l 5.866891430649451 -5.067681084337945" fill="#ff5908" stroke="none" /><path d="M 84.1078160697243 113.72728997021213 l -7.290678546703267 6.297514484433996 a30.633933898102853,30.633933898102853 0 0,0 -0.34033634855195993,-0.40091536283063206 l 7.397709458762339 -6.171432339153809" fill="#ff730a" stroke="none" /><path d="M 83.8745106332314 113.45245675266167 l -6.290829173764348 5.248033437846965 a29.192459133754923,29.192459133754923 0 0,0 -0.3177156852031428,-0.3875614761000379 l 6.379991678206121 -5.139269680048432" fill="#ff5f08" stroke="none" /><path d="M 83.64595745247003 113.17365903436017 l -3.572037111221794 2.877380245560387 a25.586803484071112,25.586803484071112 0 0,0 -0.27260127961734076,-0.3444228116152985 l 3.6209048214806963 -2.815637490030408" fill="#ff2c04" stroke="none" /><path d="M 83.4222238831116 112.89097897827486 l -6.504008605901452 5.05755643109333 a29.23899296026727,29.23899296026727 0 0,0 -0.3047093235002942,-0.39887428576257095 l 6.589869906756042 -4.945161232089888" fill="#ff6008" stroke="none" /><path d="M 83.20337586046588 112.60449989151573 l -6.07108621335369 4.555856276946 a28.59038300918745,28.59038300918745 0 0,0 -0.2912107230947602,-0.3950832745167819 l 6.14839895603228 -4.450966693160338" fill="#ff5708" stroke="none" /><path d="M 82.98947788004972 112.3143062007846 l -6.380359303347809 4.618888096344882 a28.876745018494212,28.876745018494212 0 0,0 -0.2872340970458863,-0.40403072880649926 l 6.458708498923656 -4.508680140828879" fill="#ff5b08" stroke="none" /><path d="M 82.78059297857968 112.02048342749411 l -6.3386625195526145 4.424878723987297 a28.73034244123613,28.73034244123613 0 0,0 -0.278835174015913,-0.4068288519793494 l 6.4136874303838525 -4.315415136937897" fill="#ff5908" stroke="none" /><path d="M 82.576782715395 111.72311816256416 l -5.771902908386284 3.883593868604743 a27.95680706359623,27.95680706359623 0 0,0 -0.2644921109211892,-0.4004747667677341 l 5.8377194582282 -3.7839392234979483" fill="#ff4e07" stroke="none" /><path d="M 82.37810715431573 111.42229804090323 l -7.581676194758837 4.9143509102295715 a30.03507934614008,30.03507934614008 0 0,0 -0.27672649924241616,-0.4350600198588985 l 7.664920385627144 -4.783477215692001" fill="#ff6b09" stroke="none" /><path d="M 82.18462484594161 111.11811171558189 l -5.502490289115479 3.4339609028302776 a27.486099510798233,27.486099510798233 0 0,0 -0.24636973619518368,-0.40242644867035365 l 5.5606279897660675 -3.338997338035367" fill="#ff4706" stroke="none" /><line stroke="#e1ed5e" stroke-width="0.3" x1="26.387840678322732" x2="22.057713659400548" y1="142.50000000000003" y2="145.00000000000006" /><path d="M 25.521815274538298 143.00000000000003 a86.0,86.0 0 0,1 -11.493303480769221,-40.785679425670985" fill="none" id="id45" stroke="none" /><text fill="#e1ed5e" style="font-size:6.75px; font-family:Arial;" text-anchor="middle"><textPath startOffset="21.40746469413373" xlink:href="#id45">September</textPath></text><path d="M 81.81346652052679 110.50000000000001 l -6.554554756336297 3.784273952988908 a28.56854790597781,28.56854790597781 0 0,0 -0.24156290085190613,-0.42681849969521213 l 6.618551022209582 -3.671198683194574" fill="#ff5608" stroke="none" /><path d="M 81.63589988554817 110.18625677009913 l -6.609786387863105 3.666337088267906 a28.55852523565207,28.55852523565207 0 0,0 -0.23411823464026038,-0.43075118245175353 l 6.671749972118695 -3.5523310723415653" fill="#ff5608" stroke="none" /><path d="M 81.4637452351635 109.86951160357371 l -7.017722988763418 3.73654221669722 a28.950483235890704,28.950483235890704 0 0,0 -0.22980056927138007,-0.4406728919186939 l 7.080831627009747 -3.6155230816740236" fill="#ff5c08" stroke="none" /><path d="M 81.29705330413844 109.54985784667822 l -7.0008132244894 3.5746651151934437 a28.86063715547071,28.86063715547071 0 0,0 -0.22151238102301604,-0.4431731473074319 l 7.061145518724154 -3.453960111722259" fill="#ff5a08" stroke="none" /><path d="M 81.1358732173502 109.22738970284198 l -7.299410948112796 3.570507672869171 a29.1258799665911,29.1258799665911 0 0,0 -0.21583766918911623,-0.45101771578513583 l 7.3596278752618245 -3.4446774550189305" fill="#ff5e08" stroke="none" /><path d="M 80.9802524753101 108.90220220490708 l -7.721433289507551 3.6140206575122633 a29.52535496957404,29.52535496957404 0 0,0 -0.21091723457643233,-0.4608922220499362 l 7.782334988939039 -3.4809394532476383" fill="#ff6409" stroke="none" /><path d="M 80.83023694016515 108.57439118712176 l -3.3371535979356923 1.4926663574765133 a24.655769001312493,24.655769001312493 0 0,0 -0.16949798364789823,-0.38784455714182586 l 3.3622854636005584 -1.4351597305588382" fill="#ff1f03" stroke="none" /><path d="M 80.41425534168474 107.57618678355246 l -7.301212533065519 2.824265855698985 a28.828421429423695,28.828421429423695 0 0,0 -0.17457574475662246,-0.46308290381311723 l 7.348618961636578 -2.6985146716917225" fill="#ff5a08" stroke="none" /><path d="M 80.28708602549918 107.23885506374661 l -6.728001713253279 2.4706154216407574 a28.1672831404367,28.1672831404367 0 0,0 -0.1627798424879763,-0.4553241904713943 l 6.7694217257851985 -2.354756274788442" fill="#ff5107" stroke="none" /><path d="M 80.16572619554312 106.89939002012753 l -7.514217014298646 2.613834738223438 a28.955852523565206,28.955852523565206 0 0,0 -0.15927729034630184,-0.47087500718907804 l 7.557979726217315 -2.4844580565601984" fill="#ff5c08" stroke="none" /><path d="M 80.05021161711548 106.5578916946017 l -7.715763519655847 2.5363247234478044 a29.12194248896313,29.12194248896313 0 0,0 -0.15203773532837672,-0.47625604046515835 l 7.758165970761479 -2.403499649291254" fill="#ff5e08" stroke="none" /><path d="M 79.83685265289637 105.86919833188381 l -7.536735441979915 2.193833845601105 a28.84954062761007,28.84954062761007 0 0,0 -0.13433102788207255,-0.4766934284199663 l 7.5732849619365625 -2.0641324932781426" fill="#ff5a08" stroke="none" /><path d="M 79.73907114497094 105.5222062557868 l -7.416148537216731 2.02130426196611 a28.686672234816847,28.686672234816847 0 0,0 -0.1254161081839522,-0.4762253907487893 l 7.449754126205416 -1.893698366844518" fill="#ff5808" stroke="none" /><path d="M 79.64726062577567 105.17358676015961 l -6.8891318542510565 1.7511903776100608 a28.108220976017183,28.108220976017183 0 0,0 -0.11485885557993507,-0.46866332644670733 l 6.918178236347285 -1.6326712265552539" fill="#ff5007" stroke="none" /><path d="M 79.56144815229197 104.8234425847677 l -14.739363723606653 3.4784497055644916 a36.14425486218828,36.14425486218828 0 0,0 -0.13732947405210144,-0.6050990016620387 l 14.796904059216422 -3.224916369963427" fill="#ffbc11" stroke="none" /><path d="M 79.48165901384964 104.47187691870673 l -4.691445377950483 1.0224786845676799 a25.801574991051186,25.801574991051186 0 0,0 -0.09060320019889914,-0.4335691116794182 l 4.708306288973749 -0.9417931216028526" fill="#ff2f04" stroke="none" /><path d="M 79.407916724674 104.11899336999214 l -3.7788598111742497 0.7558777953761974 a24.853716740245794,24.853716740245794 0 0,0 -0.08009253154197418,-0.4190779689099813 l 3.7912786349983807 -0.6908972614329015" fill="#ff2203" stroke="none" /><path d="M 79.34024301695615 103.76489593502545 l -8.648172089753876 1.5759850405228677 a29.790597780694426,29.790597780694426 0 0,0 -0.08736473339711931,-0.5038965659601424 l 8.67395164064323 -1.4272954416421328" fill="#ff6709" stroke="none" /><path d="M 79.2786578344484 103.40968896794605 l -7.584321344552981 1.2479971910734393 a28.686314282305215,28.686314282305215 0 0,0 -0.07578447202071421,-0.48659067448503585 l 7.604627308711963 -1.1176183346569535" fill="#ff5808" stroke="none" /><path d="M 79.22317932658666 103.0534771498775 l -8.884519410126998 1.3057183980598426 a29.97995465934853,29.97995465934853 0 0,0 -0.070460721707855,-0.5098186823087942 l 8.905624648390067 -1.1530114075509628" fill="#ff6a09" stroke="none" /><path d="M 79.17382384314188 102.69636545807758 l -8.391954665282464 1.0865065442063522 a29.461997375014917,29.461997375014917 0 0,0 -0.06063266957959425,-0.5021254833801929 l 8.409369421121719 -0.94228738390276" fill="#ff6309" stroke="none" /><path d="M 79.13060592940153 102.33845913500099 l -7.494441411344854 0.8397677920500568 a28.541343515093665,28.541343515093665 0 0,0 -0.05037901521254464,-0.487371272022951 l 7.507752819039065 -0.7109919977441744" fill="#ff5607" stroke="none" /><path d="M 79.0935383218832 101.97986365728391 l -16.32832894286928 1.5463097273893147 a37.40138408304499,37.40138408304499 0 0,0 -0.05504482324272858,-0.6397042838880326 l 16.35246738880975 -1.26578439612562" fill="#ffcc13" stroke="none" /><path d="M 79.06263194458094 101.62068470465958 l -6.071326390624867 0.469959060386055 a27.089488127908364,27.089488127908364 0 0,0 -0.03190888715954393,-0.463948216261671 l 6.078499238949477 -0.3656674199700407" fill="#ff4106" stroke="none" /><path d="M 79.03789590574601 101.26102812881392 l -8.079773294754558 0.48605909756539695 a29.094380145567357,29.094380145567357 0 0,0 -0.02571168815466571,-0.49879988126782215 l 8.086926572365797 -0.34728742292084397" fill="#ff5e08" stroke="none" /><path d="M 79.01933749520258 100.90099992219065 l -5.315706742654455 0.22827931960798764 a26.3206061329197,26.3206061329197 0 0,0 -0.015510749491788567,-0.4515785477412464 l 5.3188421791430915 -0.13699450730262136" fill="#ff3705" stroke="none" /><path d="M 79.00696218219943 100.54070618675478 l -7.928524365128733 0.20421066323359674 a28.9311538002625,28.9311538002625 0 0,0 -0.008525829724877988,-0.4965868386608709 l 7.930861626452278 -0.06807690860367348" fill="#ff5b08" stroke="none" /><line stroke="#e1ed5e" stroke-width="0.3" x1="15.003131293944662" x2="10.003315487706104" y1="100.72959589197737" y2="100.7725132973878" /><path d="M 14.003168132696942 100.73817937305945 a86.0,86.0 0 0,1 10.791469493833604,-42.45332614584628" fill="none" id="id46" stroke="none" /><text fill="#e1ed5e" style="font-size:6.75px; font-family:Arial;" text-anchor="middle"><textPath startOffset="22.145653131862435" xlink:href="#id46">October</textPath></text><path d="M 79.00077361379809 100.18025310272382 l -10.527711430122052 0.09036774093294415 a31.528099272163224,31.528099272163224 0 0,0 0.0,-0.5412416873135195 l 10.527711430122052 0.09036774093294028" fill="#ff7f0b" stroke="none" /><path d="M 79.00077361379809 99.81974689727619 l -7.413281362343867 -0.06363410453087605 a28.41355446844052,28.41355446844052 0 0,0 0.00837329644537965,-0.48770253983003325 l 7.411096634299822 0.19088356032996165" fill="#ff5407" stroke="none" /><path d="M 79.00696218219943 99.45929381324524 l -4.6328747102641 -0.11932641859842659 a25.634411168118362,25.634411168118362 0 0,0 0.015106374374137943,-0.4398056074028633 l 4.630143648893112 0.19883829056542845" fill="#ff2d04" stroke="none" /><path d="M 79.01933749520258 99.09900007780938 l -3.3934836706840765 -0.14573079008074075 a24.39661138288987,24.39661138288987 0 0,0 0.02156011094819902,-0.4182603925651016 l 3.390481970279307 0.20396297602255437" fill="#ff1b02" stroke="none" /><path d="M 79.06263194458094 98.37931529534042 l -3.749433050782087 -0.29022983120244117 a24.760649087221097,24.760649087221097 0 0,0 0.036441045854211304,-0.423500190735542 l 3.743898382230133 0.3545510693136638" fill="#ff2003" stroke="none" /><path d="M 79.0935383218832 98.0201363427161 l -3.295599870442057 -0.3120967341531279 a24.310344827586206,24.310344827586206 0 0,0 0.04291077717639912,-0.41512284366263796 l 3.289756700783994 0.3686241000986786" fill="#ff1a02" stroke="none" /><path d="M 79.13060592940154 97.66154086499901 l -5.285381170009577 -0.5922379843497151 a26.318458417849897,26.318458417849897 0 0,0 0.05416327931814967,-0.4485496514940997 l 5.27443580443176 0.682881312767251" fill="#ff3705" stroke="none" /><path d="M 79.17382384314186 97.30363454192245 l -4.247095838216555 -0.5498715860780313 a25.282543849182673,25.282543849182673 0 0,0 0.059420579732884116,-0.42993771461845787 l 4.2370307419284625 0.6226976088965562" fill="#ff2803" stroke="none" /><path d="M 79.22317932658666 96.9465228501225 l -4.77427377398342 -0.7016538336287595 a25.82555780933063,25.82555780933063 0 0,0 0.06822682914088456,-0.4380651857093382 l 4.761525452704268 0.7835072012695478" fill="#ff2f04" stroke="none" /><path d="M 79.2786578344484 96.59031103205396 l -5.294508310662189 -0.8712093277227595 a26.365708149385515,26.365708149385515 0 0,0 0.07732080706316152,-0.4459658679354306 l 5.278772686106793 0.9619682285787827" fill="#ff3705" stroke="none" /><path d="M 79.34024301695615 96.23510406497455 l -4.480794106605925 -0.8165499493286478 a25.554587758024102,25.554587758024102 0 0,0 0.08235112870411594,-0.4308959036546379 l 4.46611668561965 0.8933484180166003" fill="#ff2c04" stroke="none" /><path d="M 79.407916724674 95.88100663000787 l -4.31974992533174 -0.864070966718823 a25.405321560672952,25.405321560672952 0 0,0 0.08921174138700445,-0.4269104775507419 l 4.304280473120369 0.938097895554974" fill="#ff2904" stroke="none" /><path d="M 79.48165901384962 95.52812308129327 l -5.483262310683442 -1.1950514996758654 a26.611979477389333,26.611979477389333 0 0,0 0.10111175784505153,-0.44551706143665837 l 5.461939691280729 1.289002895051532" fill="#ff3b05" stroke="none" /><path d="M 79.73907114497095 94.47779374421319 l -5.835805065748732 -1.5905746213422456 a27.048681541582148,27.048681541582148 0 0,0 0.125945755644301,-0.44693705541903983 l 5.807640818029849 1.6905196006642986" fill="#ff4106" stroke="none" /><path d="M 80.41425534168474 92.42381321644754 l -6.920961912344824 -2.6771767468905168 a28.42071351867319,28.42071351867319 0 0,0 0.17991844350382832,-0.45351200905578865 l 6.873984793874865 2.795589773159888" fill="#ff5407" stroke="none" /><path d="M 80.5471966667186 92.08871423366112 l -5.444211872588462 -2.214113573176027 a26.877222288509724,26.877222288509724 0 0,0 0.17748457628878198,-0.42589837210174825 l 5.405401451763201 2.3072444547190387" fill="#ff3e05" stroke="none" /><path d="M 80.68587082218212 91.75594674310238 l -7.209506449367339 -3.0773095994818336 a28.838802052261066,28.838802052261066 0 0,0 0.19825456664598845,-0.4536452466708288 l 7.155618000704373 3.200616915928529" fill="#ff5a08" stroke="none" /><path d="M 80.83023694016515 91.42560881287825 l -4.442894102725117 -1.987250020817398 a25.867080300680108,25.867080300680108 0 0,0 0.1847839949497145,-0.40378637716670335 l 4.408125642920355 2.063225380198773" fill="#ff3004" stroke="none" /><path d="M 80.9802524753101 91.09779779509293 l -5.5129937896492365 -2.5803594609310982 a27.08698246032693,27.08698246032693 0 0,0 0.20072839571919596,-0.41944514537526584 l 5.467886135970136 2.674617108371451" fill="#ff4106" stroke="none" /><path d="M 81.1358732173502 90.77261029715801 l -6.871433503421452 -3.3611624584473923 a28.649445173606967,28.649445173606967 0 0,0 0.21989143140558826,-0.43993016224146997 l 6.81272215880412 3.4786244768526324" fill="#ff5708" stroke="none" /><path d="M 81.29705330413844 90.45014215332179 l -4.934361889282647 -2.519520339388163 a26.54038897506264,26.54038897506264 0 0,0 0.21066993754330507,-0.40398738311176374 l 4.890383882764402 2.6038539656044133" fill="#ff3a05" stroke="none" /><path d="M 81.46374523516351 90.13048839642627 l -5.948524186639451 -3.1672540774282405 a27.73917193652309,27.73917193652309 0 0,0 0.2274013069853243,-0.4183927921100078 l 5.893277530038776 3.268901703012868" fill="#ff4b06" stroke="none" /><path d="M 81.63589988554816 89.8137432299009 l -13.215816503863447 -7.330590635852939 a36.11275504116454,36.11275504116454 0 0,0 0.3053533520222467,-0.5395301146302277 l 13.088029786819831 7.556377520582272" fill="#ffbc11" stroke="none" /><line stroke="#e1ed5e" stroke-width="0.3" x1="26.387840678322718" x2="22.05771365940052" y1="57.49999999999999" y2="54.99999999999999" /><path d="M 25.521815274538284 56.99999999999999 a86.0,86.0 0 0,1 29.574782752854787,-30.34633250058573" fill="none" id="id47" stroke="none" /><text fill="#e1ed5e" style="font-size:6.75px; font-family:Arial;" text-anchor="middle"><textPath startOffset="21.40746469413373" xlink:href="#id47">November</textPath></text><path d="M 81.81346652052679 89.5 l -4.187115545489707 -2.4174322873165495 a25.834864574633098,25.834864574633098 0 0,0 0.22504171075891563,-0.38217002368588265 l 4.145000124601012 2.488953479296005" fill="#ff3004" stroke="none" /><path d="M 81.99639281039701 89.18935116829357 l -5.584564467867715 -3.3533705053845195 a27.514019806705644,27.514019806705644 0 0,0 0.24661999782051608,-0.40283523222743617 l 5.526176505591805 3.4487428537364986" fill="#ff4706" stroke="none" /><path d="M 82.18462484594161 88.88188828441811 l -4.645838793221729 -2.899347011721875 a26.476315475480252,26.476315475480252 0 0,0 0.24393803025890917,-0.38351110059688326 l 4.595383071336929 2.9786717869974306" fill="#ff3905" stroke="none" /><path d="M 82.37810715431573 88.57770195909679 l -5.735292788032377 -3.717547493360935 a27.83474525712922,27.83474525712922 0 0,0 0.2633373157837488,-0.39872625974527887 l 5.6706310333279 3.815453631445275" fill="#ff4c07" stroke="none" /><path d="M 82.576782715395 88.27688183743585 l -4.908864583108665 -3.302903167181258 a26.916597064789404,26.916597064789404 0 0,0 0.26123232056242346,-0.38114576272305845 l 4.851442525730928 3.3866836649743512" fill="#ff3f05" stroke="none" /><path d="M 82.78059297857968 87.97951657250589 l -4.670639779294348 -3.260469306112703 a26.696098317623196,26.696098317623196 0 0,0 0.26554342222432825,-0.3735200782723503 l 4.613981258540048 3.3401666110945736" fill="#ff3c05" stroke="none" /><path d="M 82.98947788004972 87.6856937992154 l -8.816812801463314 -6.38269253504454 a31.884619973750148,31.884619973750148 0 0,0 0.3247645627963138,-0.4406055022734416 l 8.705946219083183 6.533104346586845" fill="#ff840c" stroke="none" /><path d="M 83.2033758604659 87.39550010848427 l -4.082987997577783 -3.063950311979577 a26.104760768404724,26.104760768404724 0 0,0 0.2720464417049639,-0.35611752499989413 l 4.029789578518513 3.1335887502203557" fill="#ff3304" stroke="none" /><path d="M 83.42222388311158 87.10902102172516 l -2.987938784324716 -2.323439271077067 a24.78498985801217,24.78498985801217 0 0,0 0.2640587736878932,-0.3336296344350903 l 2.947613579995261 2.37438884942684" fill="#ff2103" stroke="none" /><path d="M 83.64595745247003 86.82634096563983 l -4.27785870991179 -3.4459401629756274 a26.493139243527025,26.493139243527025 0 0,0 0.28833767821247525,-0.35172508436854527 l 4.218074212460685 3.518867529042666" fill="#ff3905" stroke="none" /><path d="M 83.8745106332314 86.54754324733833 l -4.852736883943267 -4.048325702153542 a27.319651592888675,27.319651592888675 0 0,0 0.3035153923672594,-0.3575403690300328 l 4.782526928068894 4.131032853633131" fill="#ff4506" stroke="none" /><path d="M 84.34580500576568 86.00192230759919 l -46.962584982702936 -41.99423307720245 a84.0,84.0 0 0,0 0.9704091966325366,-1.066649697769369 l 46.234778085228534 42.79422035052948" fill="#4dd2ff" stroke="none" /><path d="M 85.34317274990677 84.96080404539775 l -2.088835847035462 -2.143329595452799 a23.99284094976733,23.99284094976733 0 0,0 0.29742841149915017,-0.2849296901133236 l 2.0517349496710118 2.1788714158716913" fill="#ff1502" stroke="none" /><path d="M 85.60350026404147 84.71141617570332 l -3.9248234403825095 -4.168026483130227 a26.725092471065505,26.725092471065505 0 0,0 0.33669827746312125,-0.31164289900645087 l 3.852695391605435 4.234787128269043" fill="#ff3c05" stroke="none" /><path d="M 85.86807049272753 84.46653392183569 l -3.8363152936543807 -4.2167825312500185 a26.70075170027443,26.70075170027443 0 0,0 0.34168694247469156,-0.3055385709071109 l 3.7633633243562974 4.282016632040531" fill="#ff3c05" stroke="none" /><path d="M 86.13680546590413 84.22622945171909 l -3.286976255292986 -3.739975596614578 a25.97911943682138,25.97911943682138 0 0,0 0.3375065180979382,-0.29153009184224 l 3.222290257432199 3.795849820921529" fill="#ff3204" stroke="none" /><path d="M 86.40962598614128 83.9905735841838 l -5.616653456628406 -6.616403649034034 a29.67891659706479,29.67891659706479 0 0,0 0.3912326594445538,-0.3263801991803593 l 5.502246463021942 6.711846032126275" fill="#ff6609" stroke="none" /><path d="M 86.68645165197937 83.75963576809568 l -2.942428756889487 -3.5892846511816088 a25.6412122658394,25.6412122658394 0 0,0 0.3427976471805734,-0.27613351919643847 l 2.8803803393536684 3.6392664641714463" fill="#ff2d04" stroke="none" /><path d="M 86.96720088162412 83.53348406188908 l -3.9544694139159824 -4.996342922159177 a27.37191265958716,27.37191265958716 0 0,0 0.3709416256776742,-0.28844645174732464 l 3.8681178436030637 5.063490425527306" fill="#ff4506" stroke="none" /><path d="M 87.25179093698888 83.31218511350988 l -3.0449938398072987 -3.9859946819231578 a26.015988545519626,26.015988545519626 0 0,0 0.357220597030128,-0.2680649956270546 l 2.9761202538664184 4.037678704814213" fill="#ff3204" stroke="none" /><path d="M 87.54013794807813 83.09580414077388 l -2.412031522383567 -3.27238400418005 a25.065266674621167,25.065266674621167 0 0,0 0.348549230906187,-0.25232276382585594 l 2.3555012811034124 3.313307539378985" fill="#ff2503" stroke="none" /><path d="M 87.83215693770416 82.88440491214696 l -3.295254411743507 -4.635188006133073 a26.68714950483236,26.68714950483236 0 0,0 0.37565963791466955,-0.26223960246218114 l 3.215199682655072 4.691072424400381" fill="#ff3c05" stroke="none" /><path d="M 88.12776184653039 82.6780497279521 l -4.0321534288080505 -5.883032354996071 a28.132203794296622,28.132203794296622 0 0,0 0.40068793232790856,-0.26960072300447696 l 3.9305692083831523 5.951382752057657" fill="#ff5007" stroke="none" /><path d="M 88.4268655584334 82.4767994020092 l -6.469608419479742 -9.7958117308147 a32.73941057153084,32.73941057153084 0 0,0 0.47162581377734725,-0.3057021544690475 l 6.300496973445368 9.905427726987654" fill="#ff8f0d" stroke="none" /><path d="M 88.72937992617638 82.28071324371311 l -3.02941019558056 -4.762735999111733 a26.64455315594798,26.64455315594798 0 0,0 0.3880409584504065,-0.24216625745825462 l 2.947205108340455 4.814038053411523" fill="#ff3b05" stroke="none" /><path d="M 89.03521579738668 82.08984904055464 l -2.2508206683837972 -3.676546406064746 a25.31082209760172,25.31082209760172 0 0,0 0.37251171499861635,-0.2236825817257548 l 2.187376196827747 3.714642988326424" fill="#ff2803" stroke="none" /><line stroke="#e1ed5e" stroke-width="0.3" x1="56.869717070023135" x2="54.33264160355391" y1="26.7553504044142" y2="22.446841604673864" /><path d="M 56.362301976729285 25.89364864446614 a86.0,86.0 0 0,1 42.16139366436587,-11.88097634709845" fill="none" id="id48" stroke="none" /><text fill="#e1ed5e" style="font-size:6.75px; font-family:Arial;" text-anchor="middle"><textPath startOffset="22.145653131862474" xlink:href="#id48">December</textPath></text><path d="M 89.34428304082924 81.90426304109057 l -3.147111796266244 -5.344483854416006 a27.202243169072904,27.202243169072904 0 0,0 0.404416438498931,-0.2334899396320663 l 3.054902889906913 5.3977206913242455" fill="#ff4306" stroke="none" /><path d="M 89.65649057296885 81.72400993836675 l -2.555067390808044 -4.514559257729033 a26.187447798592054,26.187447798592054 0 0,0 0.3931307198030867,-0.21806298327554618 l 2.4771924828488543 4.557755156437725" fill="#ff3505" stroke="none" /><path d="M 89.97174638481275 81.54914285379989 l -2.5785570386264816 -4.744254522140705 a26.399713637990693,26.399713637990693 0 0,0 0.4000325780781272,-0.21299481590203373 l 2.496735644761792 4.787819805765314" fill="#ff3805" stroke="none" /><path d="M 90.28995756902619 81.37971332152246 l -2.7610569457021024 -5.294690752388263 a26.971363799069323,26.971363799069323 0 0,0 0.41237003376861414,-0.2105590774950762 l 2.669759690219906 5.341307781556173" fill="#ff4006" stroke="none" /><path d="M 90.61103034731259 81.2157712731953 l -5.015441729516944 -10.034243170254703 a32.2178737620809,32.2178737620809 0 0,0 0.49682991468661514,-0.24302440773774256 l 4.842451565568275 10.11886132808966" fill="#ff880c" stroke="none" /><path d="M 90.93487009805054 81.0573650232925 l -2.574739795049752 -5.380215907015476 a26.96456270134829,26.96456270134829 0 0,0 0.41924924035758104,-0.19622981362249653 l 2.482001840820648 5.423621952208515" fill="#ff4006" stroke="none" /><path d="M 91.26138138417902 80.90454125486306 l -2.2080774943482737 -4.825047819692673 a26.30628803245436,26.30628803245436 0 0,0 0.41224032438573166,-0.1843898536125 l 2.124923767106923 4.86224142421502" fill="#ff3605" stroke="none" /><path d="M 91.5904679813234 80.7573450057729 l -1.8742160182759722 -4.2885730316791255 a25.680229089607444,25.680229089607444 0 0,0 0.4054601537000857,-0.17306682946349813 l 1.8003207894054554 4.320114510802028" fill="#ff2d04" stroke="none" /><path d="M 91.92203290615298 80.6158196554323 l -1.738221770206843 -4.1710994710795255 a25.518792506860756,25.518792506860756 0 0,0 0.4058041387368074,-0.1650370104352659 l 1.6663631702795947 4.200323738094083" fill="#ff2b04" stroke="none" /><path d="M 92.25597844496254 80.48000691201159 l -1.7084710482358045 -4.306463097445479 a25.63297935807183,25.63297935807183 0 0,0 0.4104056502435502,-0.15875372203171995 l 1.634293135498725 4.33515670761524" fill="#ff2d04" stroke="none" /><path d="M 92.592206182469 80.34994680014964 l -1.4221620632868848 -3.7724538358858433 a25.031619138527624,25.031619138527624 0 0,0 0.4033795937209487,-0.1481265742038979 l 1.357193317911809 3.796311259098463" fill="#ff2403" stroke="none" /><path d="M 92.93061703081487 80.22567764915836 l -3.617896846043162 -10.119901380020616 a31.747166209282902,31.747166209282902 0 0,0 0.5147488975327956,-0.17905638701586168 l 3.443642176465362 10.180516199605064" fill="#ff820c" stroke="none" /><path d="M 93.27111125876988 80.10723608172694 l -2.853988418498122 -8.437309638781402 a29.906932346975303,29.906932346975303 0 0,0 0.4877354435974154,-0.1603283279673499 l 2.708730237252946 8.485058888150782" fill="#ff6909" stroke="none" /><path d="M 93.61358852112211 79.99465700312896 l -2.0553605115770948 -6.438387528319529 a27.758501372151294,27.758501372151294 0 0,0 0.45518571261649493,-0.14101769732167188 l 1.9445341660889837 6.472721813447843" fill="#ff4b07" stroke="none" /><path d="M 93.95794788825049 79.88797359093562 l -1.6668759852841593 -5.548488032977775 a26.793461400787496,26.793461400787496 0 0,0 0.4416327808343815,-0.12855286607577904 l 1.5713831920681534 5.576284593356075" fill="#ff3d05" stroke="none" /><path d="M 94.30408787586887 79.78721728523814 l -1.1610856715442106 -4.120283438489051 a25.28075408662451,25.28075408662451 0 0,0 0.41871983189165046,-0.11412395214645352 l 1.0901844387178825 4.139607884779645" fill="#ff2803" stroke="none" /><path d="M 94.6519064749342 79.69241777938228 l -1.944081724232591 -7.381994962021129 a28.633695263095095,28.633695263095095 0 0,0 0.47640293144395196,-0.12109976221388184 l 1.817073499563261 7.414279956070274" fill="#ff5708" stroke="none" /><path d="M 95.00130118170881 79.60360301121753 l -1.0631831157999796 -4.338149924591806 a25.46653144016227,25.46653144016227 0 0,0 0.42549462086308126,-0.10041557196190046 l 0.9885563411969924 4.3557616401999395" fill="#ff2a04" stroke="none" /><path d="M 95.35216902796891 79.52079915486377 l -2.536829828615877 -11.177740301397845 a32.46199737501492,32.46199737501492 0 0,0 0.5444921670043703,-0.11866953354986169 l 2.344575244992388 11.219641293081422" fill="#ff8c0c" stroke="none" /><path d="M 95.70440661134978 79.44403061299748 l -1.952921861729395 -9.34543807404727 a30.547309390287555,30.547309390287555 0 0,0 0.5142181536685355,-0.10285803225301561 l 1.7922072225298826 9.37758550296315" fill="#ff720a" stroke="none" /><path d="M 96.05791012581881 79.37332000966035 l -1.6698463439970799 -8.737341681693808 a29.89547786660303,29.89547786660303 0 0,0 0.504899410627514,-0.09200949170062502 l 1.5196121998185272 8.764719347325794" fill="#ff6909" stroke="none" /><path d="M 96.41257539226777 79.30868818359171 l -1.075915522747857 -6.205594821785739 a27.29817444219067,27.29817444219067 0 0,0 0.46240832260327885,-0.07608911351736648 l 0.9692296970915053 6.223149933798774" fill="#ff4406" stroke="none" /><path d="M 96.76829788921471 79.25015418208739 l -0.6896706909682092 -4.428180572387645 a25.481565445650876,25.481565445650876 0 0,0 0.4327921268703996,-0.06360553863453546 l 0.6135534584901247 4.439367184321065" fill="#ff2b04" stroke="none" /><path d="M 97.12497278360702 79.19773525538626 l -0.8029121297046491 -5.809472200312808 a26.864693950602554,26.864693950602554 0 0,0 0.45736780454555404,-0.05921541912087166 l 0.703066503268301 5.822399215634074" fill="#ff3e05" stroke="none" /><path d="M 97.48249496171623 79.15144685158666 l -0.43559741666726826 -3.6073714866883226 a24.633575945591218,24.633575945591218 0 0,0 0.42025361316645127,-0.04709029392045408 l 0.3736079019000177 3.6143175411157475" fill="#ff1e03" stroke="none" /><path d="M 97.84075906011542 79.11130261209362 l -2.1014202311972623 -20.329334482075136 a41.43765660422384,41.43765660422384 0 0,0 0.7081901451217967,-0.06706634304555234 l 1.7521305226904502 20.362412580625875" fill="#ffff18" stroke="none" /><path d="M 98.1996594967304 79.07731436759882 l -0.7664190101617275 -8.906950648051199 a29.93986397804558,29.93986397804558 0 0,0 0.5124435907581995,-0.039666374844456384 l 0.613406424628311 8.918794789890708" fill="#ff6909" stroke="none" /><path d="M 98.5590905019552 79.04949213459386 l -0.39166097592322613 -5.694664632155139 a26.708117342239888,26.708117342239888 0 0,0 0.4576698509292086,-0.027532281737403897 l 0.29384677286153377 5.700548891717236" fill="#ff3c05" stroke="none" /><path d="M 98.9189461498227 79.02784411241856 l -0.32459071660171845 -6.296973186966215 a27.305333492423337,27.305333492423337 0 0,0 0.46831798677021563,-0.020111589400189943 l 0.21644696923068274 6.301617344792234" fill="#ff4506" stroke="none" /><path d="M 99.27912038922189 79.0123766808444 l -0.26701065236348204 -7.773723809386048 a28.77830807779501,28.77830807779501 0 0,0 0.493872336895604,-0.012720399512646358 l 0.13352500139713414 7.7771619262487395" fill="#ff5908" stroke="none" /><path d="M 99.63950707515114 79.00309439819443 l -0.1422382297441722 -8.284663795159037 a29.285884739291255,29.285884739291255 0 0,0 0.5027311545930223,-0.004315342326651989 l 2.0294564448153875e-15 8.285884739291255" fill="#ff6008" stroke="none" /></svg>