<?xml version="1.0" encoding="utf-8" ?>
<svg baseProfile="full" height="200mm" version="1.1" viewBox="0,0,200,200" width="200mm" xmlns="http://www.w3.org/2000/svg" xmlns:ev="http://www.w3.org/2001/xml-events" xmlns:xlink="http://www.w3.org/1999/xlink"><defs /><rect fill="#1a1a1a" height="200" width="200" x="0" y="0" /><text alignment-baseline="middle" fill="#e1ed5e" style="dominant-baseline: central; font-size:9.0px; font-family:Arial;" text-anchor="middle" x="100.0" y="100.0">2025</text><line stroke="#e1ed5e" stroke-width="0.3" x1="100.0" x2="100.0" y1="15.0" y2="10.0" /><path d="M 100.0 14.0 a86.0,86.0 0 0,1 42.46469731375804,11.215312516191453" fill="none" id="id97" stroke="none" /><text fill="#e1ed5e" style="font-size:6.75px; font-family:Arial;" text-anchor="middle"><textPath startOffset="22.20632615414155" xlink:href="#id97">January</textPath></text><path d="M 100.0 79.0 l 0.0 -30.749113728046943 a51.74911372804694,51.74911372804694 0 0,0 0.890775925349666,0.0076671896174808525 l -0.5292954460771376 30.744557915038023" fill="#ff0000" stroke="none" /><path d="M 100.36148047927253 79.00311137660856 l 0.8120164565965506 -47.16663852452319 a68.17362780652786,68.17362780652786 0 0,0 1.1731492034008428,0.03029898279655881 l -1.6237922951922612 47.14567274958427" fill="#71ff27" stroke="none" /><path d="M 101.08401301168833 79.027996857942 l 1.713545363368459 -33.151335230424834 a54.195591051709386,54.195591051709386 0 0,0 0.9312298112869084,0.056174325295131465 l -2.2839372234949793 33.1169276357494" fill="#ff4306" stroke="none" /><path d="M 101.80526077348638 79.07773832637324 l 3.154001912065598 -36.55364050032277 a57.68945845727558,57.68945845727558 0 0,0 0.9886184062164136,0.0938812299996019 l -3.782745445372256 36.49393372580799" fill="#ff9e0e" stroke="none" /><path d="M 102.16513564639614 79.11191278185805 l 6.280490251416055 -60.590858758725005 a81.91548836640723,81.91548836640723 0 0,0 1.401274805689296,0.15744955161429136 l -7.322531760615077 60.47377325364011" fill="#48f7ff" stroke="none" /><path d="M 102.88285421437855 79.19881850522331 l 6.4484495026321955 -46.5286686351115 a67.97339146734038,67.97339146734038 0 0,0 1.1575901568660498,0.17059869812450315 l -7.248408639926902 46.41077545282602" fill="#75ff27" stroke="none" /><path d="M 103.2404852339499 79.25152402106235 l 7.040835892778484 -45.081709634852416 a66.62821400920907,66.62821400920907 0 0,0 1.1316351421054056,0.18672949467144795 l -7.815800241022766 44.953833877241344" fill="#91ff24" stroke="none" /><path d="M 103.59715602781102 79.31037775812273 l 6.855864833902665 -39.4326107786694 a61.024163644513266,61.024163644513266 0 0,0 1.0333566820287572,0.18883932859106933 l -7.5336166370343225 39.308755968727596" fill="#fff016" stroke="none" /><path d="M 103.95276090670814 79.375362276772 l 6.093188749471028 -31.79291981050958 a53.37154150197628,53.37154150197628 0 0,0 0.9007936708009423,0.18069073613579067 l -6.639548829739096 31.683325118296583" fill="#ff2d04" stroke="none" /><path d="M 104.307194497241 79.44645832069477 l 7.394066948138471 -35.2838171797176 a57.05024245140785,57.05024245140785 0 0,0 0.9594146766914262,0.20969088798126853 l -8.000324348983424 35.15131279364046" fill="#ff8e0d" stroke="none" /><path d="M 104.66035177308747 79.52364482259891 l 8.958563012729785 -39.36156046998478 a61.36815940670714,61.36815940670714 0 0,0 1.0279935644755984,0.24329286357138927 l -9.634780264167906 39.20152169427252" fill="#fff817" stroke="none" /><path d="M 105.01212808612495 79.60689891045804 l 12.135227848146874 -49.375220265612825 a71.84462735829837,71.84462735829837 0 0,0 1.1984063980642186,0.30550047449810624 l -12.983343134896117 49.159016794945856" fill="#30ff36" stroke="none" /><path d="M 105.36241919743992 79.69619591428918 l 11.804707824558681 -44.69633315376072 a67.22892302677153,67.22892302677153 0 0,0 1.1163270173643762,0.3051343433430684 l -12.57233273114677 44.48651226959135" fill="#85ff25" stroke="none" /><path d="M 105.71112130821622 79.79150937346287 l 9.077380618079202 -32.11981522263587 a54.377857463021066,54.377857463021066 0 0,0 0.8985546894718787,0.2623127538487897 l -9.628925525274509 31.958804139868377" fill="#ff4806" stroke="none" /><path d="M 106.0581310904928 79.89281104454417 l 11.195977241278266 -37.1599139352815 a59.80990994661994,59.80990994661994 0 0,0 0.9832026557346623,0.3054858511220498 l -11.833965269723647 36.961687949276936" fill="#ffd313" stroke="none" /><path d="M 106.40334571778207 80.00007090966166 l 17.239797003597936 -53.8460256247437 a77.53852736237317,77.53852736237317 0 0,0 1.267633732453764,0.4179189113604918 l -18.16411355829412 53.541292989123974" fill="#3effb2" stroke="none" /><path d="M 106.74666289553966 80.11325718540242 l 14.761228862438621 -43.510809204474256 a66.94653844586611,66.94653844586611 0 0,0 1.0880980160592393,0.3796160324384642 l -15.508008882561134 43.25027231886359" fill="#8aff24" stroke="none" /><path d="M 107.08798089147638 80.2323363322302 l 17.26173611344188 -48.14124064903341 a72.14241473452589,72.14241473452589 0 0,0 1.1653324828283849,0.4292017880710721 l -18.087850922042843 47.83697559315602" fill="#31ff3c" stroke="none" /><path d="M 107.4271985657038 80.35727306442388 l 16.21387620549348 -42.88087090365326 a66.84385314371868,66.84385314371868 0 0,0 1.0727382774153869,0.4162057856480965 l -16.949597647908536 42.59542241411462" fill="#8dff24" stroke="none" /><path d="M 108.09893153111575 80.62456947434976 l 14.385413204080333 -34.414857447255365 a58.30043600505277,58.30043600505277 0 0,0 0.9225800863040639,0.3950006454654292 l -14.975677048174711 34.16213727382714" fill="#ffae10" stroke="none" /><path d="M 108.43124777332544 80.76684994638697 l 18.459351406249766 -42.10900747241873 a66.97734403651033,66.97734403651033 0 0,0 1.0519202724211176,0.4719659634953988 l -19.181453797137664 41.7850211784068" fill="#8aff24" stroke="none" /><path d="M 108.76106565485865 80.91482961587045 l 24.256881465738193 -52.841370444988044 a79.14298520842672,79.14298520842672 0 0,0 1.2332051991900406,0.5790063764961253 l -25.16286487622783 52.415999085851915" fill="#41ffd2" stroke="none" /><path d="M 109.08828744355905 81.06846463323043 l 18.311375287650097 -38.14386935109767 a63.3114787498472,63.3114787498472 0 0,0 0.9783997134468515,0.4800964902450669 l -18.965246268107382 37.82301770071777" fill="#d9ff1c" stroke="none" /><path d="M 109.41281617654863 81.2277094730956 l 21.14230281095771 -42.16479354647423 a68.16849354142047,68.16849354142047 0 0,0 1.0444046606583661,0.5349846320863155 l -21.86496795920483 41.794616389075415" fill="#71ff27" stroke="none" /><path d="M 109.73455568895987 81.39251694778311 l 27.16401565281206 -51.92368065273891 a79.59993480298277,79.59993480298277 0 0,0 1.2086111194264066,0.6455982031438747 l -28.05377181876678 51.44840372309328" fill="#42ffdb" stroke="none" /><path d="M 110.05341064243156 81.56283822128135 l 19.346496516012905 -35.47994793047419 a61.4118006601198,61.4118006601198 0 0,0 0.9237384988210448,0.514059474483459 l -19.954359103905986 35.14167305843055" fill="#fff917" stroke="none" /><line stroke="#e1ed5e" stroke-width="0.3" x1="143.23703022742887" x2="145.7803849466894" y1="26.81831364943548" y2="22.513508569990506" /><path d="M 143.74570117128098 25.957352633546492 a86.0,86.0 0 0,1 28.547481713284135,27.462654790039103" fill="none" id="id98" stroke="none" /><text fill="#e1ed5e" style="font-size:6.75px; font-family:Arial;" text-anchor="middle"><textPath startOffset="19.985693538727396" xlink:href="#id98">February</textPath></text><path d="M 110.68208982089419 81.91981866633111 l 27.606461949821625 -46.72586042644071 a75.27174931746873,75.27174931746873 0 0,0 1.1098566157545224,0.6686761927216669 l -28.406680631793783 46.24373762426043" fill="#38ff82" stroke="none" /><path d="M 110.99172775467656 82.1063720568725 l 26.52418881186364 -43.1791959085616 a71.6751966097551,71.6751966097551 0 0,0 1.04570988053245,0.6548234312558114 l -27.263517844768355 42.716228135982846" fill="#30ff32" stroke="none" /><path d="M 111.2981086023043 82.29822771554956 l 33.894325806912875 -53.10531685335132 a84.0,84.0 0 0,0 1.2121318968628794,0.7884043033618879 l -34.803424729560035 52.514013625829904" fill="#4dd2ff" stroke="none" /><path d="M 111.60114157652 82.49532879139004 l 18.09874521815106 -27.30874218217844 a53.761745650136504,53.761745650136504 0 0,0 0.7669888865376389,0.5178743199548288 l -18.566138799095242 26.993155949924944" fill="#ff3805" stroke="none" /><line stroke="#e1ed5e" stroke-width="0.3" x1="172.23445277983987" x2="176.4835382374775" y1="55.19839476539836" y2="52.563006222186495" /><path d="M 173.08426987136738 54.67131705675599 a86.0,86.0 0 0,1 12.851231095245387,41.99856678651699" fill="none" id="id99" stroke="none" /><text fill="#e1ed5e" style="font-size:6.75px; font-family:Arial;" text-anchor="middle"><textPath startOffset="22.20632615414155" xlink:href="#id99">March</textPath></text><line stroke="#e1ed5e" stroke-width="0.3" x1="184.98032266829074" x2="189.97916517819016" y1="98.17113171792111" y2="98.06355123074" /><path d="M 185.9800911702706 98.14961562048488 a86.0,86.0 0 0,1 -9.607161424134198,41.387399972396054" fill="none" id="id100" stroke="none" /><text fill="#e1ed5e" style="font-size:6.75px; font-family:Arial;" text-anchor="middle"><textPath startOffset="21.466115282336823" xlink:href="#id100">April</textPath></text><line stroke="#e1ed5e" stroke-width="0.3" x1="174.80103733775053" x2="179.2010983576182" y1="140.37084112569926" y2="142.7455964860345" /><path d="M 175.68104954172406 140.8457921977663 a86.0,86.0 0 0,1 -30.038265399797805,32.042727171017184" fill="none" id="id101" stroke="none" /><text fill="#e1ed5e" style="font-size:6.75px; font-family:Arial;" text-anchor="middle"><textPath startOffset="22.206326154141568" xlink:href="#id101">May</textPath></text><line stroke="#e1ed5e" stroke-width="0.3" x1="143.8653032363475" x2="146.44561519142675" y1="172.8068346515853" y2="177.08958963109032" /><path d="M 144.38136562736335 173.6633856474863 a86.0,86.0 0 0,1 -40.68145358897372,12.25698825130547" fill="none" id="id102" stroke="none" /><text fill="#e1ed5e" style="font-size:6.75px; font-family:Arial;" text-anchor="middle"><textPath startOffset="21.466115282336833" xlink:href="#id102">June</textPath></text><line stroke="#e1ed5e" stroke-width="0.3" x1="102.19456741930631" x2="102.32365962044197" y1="184.97166512339345" y2="189.96999836594603" /><path d="M 102.22038585953345 185.97133177190398 a86.0,86.0 0 0,1 -42.740103519485714,-10.115201625700543" fill="none" id="id103" stroke="none" /><text fill="#e1ed5e" style="font-size:6.75px; font-family:Arial;" text-anchor="middle"><textPath startOffset="22.20632615414155" xlink:href="#id103">July</textPath></text><line stroke="#e1ed5e" stroke-width="0.3" x1="58.666819895761336" x2="56.23545636021788" y1="174.27360380694188" y2="178.64263932499728" /><path d="M 58.180547188652646 175.14741091055294 a86.0,86.0 0 0,1 -31.652253787137756,-30.449443065178592" fill="none" id="id104" stroke="none" /><text fill="#e1ed5e" style="font-size:6.75px; font-family:Arial;" text-anchor="middle"><textPath startOffset="22.20632615414155" xlink:href="#id104">August</textPath></text><line stroke="#e1ed5e" stroke-width="0.3" x1="26.63291911575756" x2="22.317208475507996" y1="142.92168965132927" y2="145.44649492493687" /><path d="M 25.769776987707644 143.4266507060508 a86.0,86.0 0 0,1 -11.730757126820373,-40.83630448921669" fill="none" id="id105" stroke="none" /><text fill="#e1ed5e" style="font-size:6.75px; font-family:Arial;" text-anchor="middle"><textPath startOffset="21.46611528233685" xlink:href="#id105">September</textPath></text><line stroke="#e1ed5e" stroke-width="0.3" x1="15.007084014347285" x2="10.007500721073583" y1="101.09737516637583" y2="101.16192664675087" /><path d="M 14.007167355692545 101.11028546245083 a86.0,86.0 0 0,1 10.666146001902534,-42.60595125391555" fill="none" id="id106" stroke="none" /><text fill="#e1ed5e" style="font-size:6.75px; font-family:Arial;" text-anchor="middle"><textPath startOffset="22.20632615414155" xlink:href="#id106">October</textPath></text><line stroke="#e1ed5e" stroke-width="0.3" x1="26.266209847984243" x2="21.928928074336255" y1="57.711370442889674" y2="55.22380399835377" /><path d="M 25.398753493254645 57.213857153982495 a86.0,86.0 0 0,1 29.58750427330803,-30.492523968695096" fill="none" id="id107" stroke="none" /><text fill="#e1ed5e" style="font-size:6.75px; font-family:Arial;" text-anchor="middle"><textPath startOffset="21.46611528233685" xlink:href="#id107">November</textPath></text><line stroke="#e1ed5e" stroke-width="0.3" x1="56.762969772571076" x2="54.21961505331055" y1="26.818313649435495" y2="22.513508569990535" /><path d="M 56.25429882871897 25.957352633546506 a86.0,86.0 0 0,1 42.265352541879196,-11.944610805530505" fill="none" id="id108" stroke="none" /><text fill="#e1ed5e" style="font-size:6.75px; font-family:Arial;" text-anchor="middle"><textPath startOffset="22.20632615414155" xlink:href="#id108">December</textPath></text></svg>