<?xml version="1.0" encoding="utf-8" ?>
<svg baseProfile="full" height="200mm" version="1.1" viewBox="0,0,200,200" width="200mm" xmlns="http://www.w3.org/2000/svg" xmlns:ev="http://www.w3.org/2001/xml-events" xmlns:xlink="http://www.w3.org/1999/xlink"><defs /><rect fill="#1a1a1a" height="200" width="200" x="0" y="0" /><text alignment-baseline="middle" fill="#e1ed5e" style="dominant-baseline: central; font-size:9.0px; font-family:Arial;" text-anchor="middle" x="100.0" y="100.0">2019</text><line stroke="#e1ed5e" stroke-width="0.3" x1="100.0" x2="100.0" y1="15.0" y2="10.0" /><path d="M 100.0 14.0 a86.0,86.0 0 0,1 42.46469731375804,11.215312516191453" fill="none" id="id25" stroke="none" /><text fill="#e1ed5e" style="font-size:6.75px; font-family:Arial;" text-anchor="middle"><textPath startOffset="22.20632615414155" xlink:href="#id25">January</textPath></text><path d="M 100.0 79.0 l 0.0 -9.419117647058826 a30.419117647058826,30.419117647058826 0 0,0 0.5236151060050596,0.0045069205285742445 l -0.16213462673253115 9.41772210313881" fill="#ff6309" stroke="none" /><path d="M 100.36148047927253 79.00311137660856 l 0.10433436705144752 -6.06034685186878 a27.061244890705527,27.061244890705527 0 0,0 0.4656768153319023,0.012027058259593467 l -0.20863781757821762 6.057653001466827" fill="#ff3304" stroke="none" /><path d="M 100.72285384407766 79.0124445844662 l 0.2528446914174259 -7.341168641660636 a28.34552159232273,28.34552159232273 0 0,0 0.487487856370167,0.020992252553245015 l -0.37917338017692437 7.335728662583197" fill="#ff4506" stroke="none" /><path d="M 101.08401301168833 79.027996857942 l 0.3745017406650277 -7.245348162104271 a28.25502043717789,28.25502043717789 0 0,0 0.4854992230736268,0.029286638976669235 l -0.49916301257826645 7.237828253747297" fill="#ff4406" stroke="none" /><path d="M 101.44485096284872 79.0497635885617 l 0.6799298648699845 -9.858934781853318 a30.88235294117647,30.88235294117647 0 0,0 0.5300144274083218,0.041139320311081584 l -0.8495344816406476 9.845770199353773" fill="#ff6909" stroke="none" /><path d="M 101.80526077348638 79.07773832637324 l 0.7017562261248909 -8.133078394943901 a29.163297494224274,29.163297494224274 0 0,0 0.49976847520777906,0.04745903866699915 l -0.8416498284229141 8.119793811761724" fill="#ff5107" stroke="none" /><path d="M 102.16513564639614 79.11191278185805 l 0.6522437466851329 -6.292503793433954 a27.32621734494402,27.32621734494402 0 0,0 0.46745176844923636,0.05252365278018073 l -0.7604622186440945 6.2803441871831724" fill="#ff3605" stroke="none" /><path d="M 102.52436894288641 79.15227682838746 l 0.9163566930803886 -7.567812429965358 a28.623089568153546,28.623089568153546 0 0,0 0.48861695403732197,0.06343650403452249 l -1.0464883756255565 7.5509176027667" fill="#ff4906" stroke="none" /><path d="M 102.88285421437855 79.19881850522331 l 1.015876941591592 -7.330041364218111 a28.400102185889462,28.400102185889462 0 0,0 0.4836551190795243,0.07127819217088083 l -1.141901041099772 7.311468687886262" fill="#ff4606" stroke="none" /><path d="M 103.2404852339499 79.25152402106235 l 1.0226215841810098 -6.547735244286214 a27.627110360760618,27.627110360760618 0 0,0 0.46922778021244743,0.07742660423381793 l -1.1351785705323325 6.529162377112772" fill="#ff3b05" stroke="none" /><path d="M 103.59715602781102 79.31037775812273 l 1.1979865640870568 -6.8904126677231226 a27.993779989337124,27.993779989337124 0 0,0 0.4740345115704888,0.08662677703716194 l -1.3164161967604464 6.868770409335221" fill="#ff4006" stroke="none" /><path d="M 103.95276090670814 79.375362276772 l 2.693858891436349 -14.055963673158704 a35.31177803447663,35.31177803447663 0 0,0 0.5959847750885451,0.11954893914909623 l -2.9354100759920194 14.0075107779324" fill="#ffa60f" stroke="none" /><path d="M 104.307194497241 79.44645832069477 l 1.977447766893545 -9.436201481388863 a30.641172027723478,30.641172027723478 0 0,0 0.5152929924787593,0.11262308966964936 l -2.1395834835258323 9.400764893623343" fill="#ff6609" stroke="none" /><path d="M 104.66035177308747 79.52364482259891 l 1.6629471861361318 -7.306550853354223 a28.493402345832592,28.493402345832592 0 0,0 0.4773001915766844,0.11296153439550125 l -1.7884710646753397 7.276843406817854" fill="#ff4706" stroke="none" /><path d="M 105.01212808612495 79.60689891045804 l 2.2102309098468633 -8.99287919247595 a30.2605073751555,30.2605073751555 0 0,0 0.5047612741618198,0.1286748877624411 l -2.364701072693708 8.953501308544642" fill="#ff6008" stroke="none" /><path d="M 105.36241919743992 79.69619591428918 l 1.9754086891582172 -7.479518019223002 a28.735982761684735,28.735982761684735 0 0,0 0.4771570402014536,0.13042504379867467 l -2.103863618583382 7.444406434598034" fill="#ff4b06" stroke="none" /><path d="M 105.71112130821622 79.79150937346287 l 2.1506781681375795 -7.6100571597000455 a28.90812155677981,28.90812155677981 0 0,0 0.4776857603544221,0.13944957245347836 l -2.281354146215429 7.571909258327864" fill="#ff4d07" stroke="none" /><path d="M 106.0581310904928 79.89281104454417 l 2.8251809574976705 -9.376893054511378 a30.79325128843078,30.79325128843078 0 0,0 0.5062038460267061,0.1572799990345588 l -2.9861701762350945 9.326872920594298" fill="#ff6809" stroke="none" /><path d="M 106.40334571778207 80.00007090966166 l 3.8340985533387673 -11.97525521372356 a33.57406255553581,33.57406255553581 0 0,0 0.5488834477344325,0.18095824295945376 l -4.039664823315618 11.90748324650487" fill="#ff8e0d" stroke="none" /><path d="M 106.74666289553966 80.11325718540242 l 2.714191954821022 -8.000464554210996 a29.448329482850543,29.448329482850543 0 0,0 0.47863070489385523,0.1669848547772177 l -2.851504663778151 7.952558846261572" fill="#ff5507" stroke="none" /><path d="M 107.08798089147638 80.2323363322302 l 2.8677224981441998 -7.997788750246383 a29.496379065221255,29.496379065221255 0 0,0 0.47646157641118186,0.17548481961688944 l -3.0049664003279584 7.947240662823169" fill="#ff5607" stroke="none" /><path d="M 107.76421540070413 80.48803036053334 l 3.7296382136312927 -9.372819252795166 a31.087613293051362,31.087613293051362 0 0,0 0.49550122024679805,0.20212738903337205 l -3.8904233034664784 9.307230977578214" fill="#ff6c09" stroke="none" /><path d="M 108.09893153111575 80.62456947434976 l 3.8351902312243293 -9.175094466751514 a30.944397547538653,30.944397547538653 0 0,0 0.4896821862114586,0.20965635666527893 l -3.992556175226103 9.107718582123445" fill="#ff6a09" stroke="none" /><path d="M 108.43124777332544 80.76684994638697 l 2.534843330464421 -5.782420757632813 a27.313621823351696,27.313621823351696 0 0,0 0.42897718508463695,0.1924695585626687 l -2.6340026340158382 5.737930868553613" fill="#ff3605" stroke="none" /><path d="M 108.76106565485865 80.91482961587045 l 4.4581866659820335 -9.711746889755997 a31.68613381908655,31.68613381908655 0 0,0 0.4937330183467525,0.23181427235078822 l -4.624697895628383 9.633567634765207" fill="#ff740a" stroke="none" /><path d="M 109.08828744355905 81.06846463323043 l 4.610161804106785 -9.603287944290543 a31.65254576150702,31.65254576150702 0 0,0 0.4891505034226762,0.2400240276721947 l -4.774783574539893 9.522508756483516" fill="#ff740a" stroke="none" /><path d="M 109.41281617654863 81.2277094730956 l 2.940355008766366 -5.864047214086761 a27.559934245601564,27.559934245601564 0 0,0 0.42224380029837166,0.21628967455100614 l -3.0408592966534935 5.812565014223255" fill="#ff3a05" stroke="none" /><path d="M 109.73455568895987 81.39251694778311 l 2.329624321067279 -4.453048136696565 a26.025613115336768,26.025613115336768 0 0,0 0.39516169804585144,0.21108169377984803 l -2.4059310656414414 4.412287716414963" fill="#ff2303" stroke="none" /><path d="M 110.05341064243156 81.56283822128135 l 3.384115236021978 -6.2062002939604515 a28.068886618091344,28.068886618091344 0 0,0 0.42220405377254133,0.23495609881378918 l -3.490443378866554 6.147028797586483" fill="#ff4106" stroke="none" /><line stroke="#e1ed5e" stroke-width="0.3" x1="143.23703022742887" x2="145.7803849466894" y1="26.81831364943548" y2="22.513508569990506" /><path d="M 143.74570117128098 25.957352633546492 a86.0,86.0 0 0,1 28.547481713284135,27.462654790039103" fill="none" id="id26" stroke="none" /><text fill="#e1ed5e" style="font-size:6.75px; font-family:Arial;" text-anchor="middle"><textPath startOffset="19.985693538727396" xlink:href="#id26">February</textPath></text><path d="M 110.68208982089419 81.91981866633111 l 3.9376799024328735 -6.664797606426635 a28.741114270481606,28.741114270481606 0 0,0 0.42377805891974746,0.2553215388140829 l -4.051820027570258 6.596029458153938" fill="#ff4b07" stroke="none" /><path d="M 110.99172775467656 82.1063720568725 l 3.624515878585809 -5.900413479380322 a27.924737870979207,27.924737870979207 0 0,0 0.40740975517585576,0.2551199513152781 l -3.7255447861339284 5.837149186742099" fill="#ff3f05" stroke="none" /><path d="M 111.2981086023043 82.29822771554956 l 3.6904076081456 -5.7820965805615625 a27.859427759019017,27.859427759019017 0 0,0 0.4020154882744533,0.26148205636202654 l -3.789390122204334 5.717715600040008" fill="#ff3e05" stroke="none" /><path d="M 111.60114157652 82.49532879139004 l 3.507969147405154 -5.293086557926046 a27.35000888572952,27.35000888572952 0 0,0 0.3901873461954253,0.26345623790993355 l -3.598561188007121 5.231918407717442" fill="#ff3705" stroke="none" /><path d="M 112.19680574252982 82.90503203632743 l 4.430201943666808 -6.2093438149549085 a28.6277545761507,28.6277545761507 0 0,0 0.39868194800331097,0.28965939037242566 l -4.5364292080239075 6.132165189765808" fill="#ff4906" stroke="none" /><path d="M 112.48926042617603 83.11751280151076 l 4.475947184456592 -6.050407987676095 a28.52605740181269,28.52605740181269 0 0,0 0.3922385139467887,0.2954259167475329 l -4.579431852161763 5.972465481422714" fill="#ff4806" stroke="none" /><path d="M 112.77801427241765 83.33499621200491 l 4.599869408310999 -5.999120010317675 a28.559645459392215,28.559645459392215 0 0,0 0.3875509139102656,0.30248963553769764 l -4.702452877380695 5.919051985556753" fill="#ff4806" stroke="none" /><path d="M 113.06298171725822 83.55741782278167 l 7.28568246790479 -9.170604023534306 a32.71243557846099,32.71243557846099 0 0,0 0.4378740221801623,0.35406367383924464 l -7.442459888649443 9.043834252430932" fill="#ff830c" stroke="none" /><path d="M 113.34407831869373 83.78471172551755 l 5.690264070678087 -6.914623105495049 a29.954949351341746,29.954949351341746 0 0,0 0.3953232592140829,0.33107186070348477 l -5.808444866851288 6.815650087397745" fill="#ff5c08" stroke="none" /><path d="M 113.6212207817346 84.01681056812373 l 6.780049183764159 -7.955734085659578 a31.45288341922872,31.45288341922872 0 0,0 0.409046548201511,0.35472113578873077 l -6.915989530612435 7.837847956451176" fill="#ff710a" stroke="none" /><path d="M 113.89432698308785 84.25364557470407 l 4.602943360111716 -5.216487105572203 a27.956926426159587,27.956926426159587 0 0,0 0.35810028710591596,0.32150597350863636 l -4.692054634813622 5.13648212329427" fill="#ff4006" stroke="none" /><path d="M 114.16331599549186 84.49514656593476 l 7.0310028112505885 -7.696973513663051 a31.42489337124578,31.42489337124578 0 0,0 0.396241143680641,0.3682629591312865 l -7.162451838726076 7.574805968457123" fill="#ff710a" stroke="none" /><path d="M 114.42810811169701 84.74124197986012 l 7.0784780444026225 -7.485997664714529 a31.30267016172028,31.30267016172028 0 0,0 0.3883271474667479,0.3735704081918158 l -7.206288435481789 7.363044169760411" fill="#ff6f0a" stroke="none" /><path d="M 114.68862486808459 84.99185889309783 l 6.5308518467814345 -6.6729150580826175 a30.337013506308868,30.337013506308868 0 0,0 0.370059847150321,0.3684706925620253 l -6.644747494099078 6.5595085148704735" fill="#ff6109" stroke="none" /><path d="M 114.94478906791727 85.2469230424477 l 7.345242983109772 -7.251018031052172 a31.321330193708903,31.321330193708903 0 0,0 0.37546181514815963,0.38694640453549345 l -7.468969061961041 7.123507430966565" fill="#ff6f0a" stroke="none" /><path d="M 115.19652480421416 85.50635884689758 l 8.045894175040877 -7.673748072752861 a32.11858006042296,32.11858006042296 0 0,0 0.3781315506116409,0.40336437373258227 l -8.176793047622981 7.534114282142224" fill="#ff7a0b" stroke="none" /><path d="M 115.4437574822437 85.77008943001954 l 6.860766441485458 -6.321524604106748 a30.3290829927137,30.3290829927137 0 0,0 0.35045451726028654,0.3869806310746743 l -6.96856459936178 6.202491185762525" fill="#ff6109" stroke="none" /><path d="M 115.68641384162765 86.03803664274999 l 5.011595962997355 -4.460657477429574 a27.709214501510573,27.709214501510573 0 0,0 0.31404850024886644,0.35901172455698654 l -5.08763632682407 4.37373019666964" fill="#ff3c05" stroke="none" /><path d="M 115.9244219780498 86.31012108654704 l 6.571972443313699 -5.64978164328526 a29.666651857117472,29.666651857117472 0 0,0 0.32956738150658144,0.3901038288005731 l -6.668250438307398 5.53581886485558" fill="#ff5808" stroke="none" /><path d="M 116.15771136456269 86.58626213691792 l 6.705579432041058 -5.566808484940894 a29.7151679402879,29.7151679402879 0 0,0 0.323331461074216,0.3963661401346897 l -6.800409385191683 5.450558175198103" fill="#ff5908" stroke="none" /><path d="M 116.38621287248628 86.86637796730983 l 8.936776084778987 -7.162865526136852 a32.45306113381909,32.45306113381909 0 0,0 0.3456187949911077,0.43890077150055495 l -9.05874896036406 7.007972360683259" fill="#ff7f0b" stroke="none" /><path d="M 116.60985879189232 87.15038557335679 l 10.948279057957812 -8.469738743276997 a34.84201172916296,34.84201172916296 0 0,0 0.3628945836267418,0.4775267340278426 l -11.092449581808667 8.28002723336812" fill="#ffa00e" stroke="none" /><path d="M 116.82858285166822 87.43820079747576 l 7.106240701691866 -5.304497090829559 a29.86771370179492,29.86771370179492 0 0,0 0.3039927188958386,0.41464572694003504 l -7.19649603310133 5.18138892021803" fill="#ff5b08" stroke="none" /><path d="M 117.04232023915458 87.72973835380427 l 8.51093836183655 -6.127771282835577 a31.487404478407676,31.487404478407676 0 0,0 0.3129059023702087,0.4425832083504744 l -8.615156884010641 5.980361574153309" fill="#ff720a" stroke="none" /><path d="M 117.2510076193507 88.02491185347247 l 7.8594480910179385 -5.455773120604522 a30.567464901368403,30.567464901368403 0 0,0 0.29632323811658623,0.4348177875690114 l -7.9521957948032576 5.319677309765104" fill="#ff6509" stroke="none" /><path d="M 117.45458315368197 88.32363383020206 l 8.029356405421321 -5.371294442957519 a30.66029856051182,30.66029856051182 0 0,0 0.2896717331112436,0.44118992276371416 l -8.120624773890489 5.232286456216132" fill="#ff6609" stroke="none" /><path d="M 117.65298651832404 88.62581576622439 l 9.292758608599716 -5.987516522742594 a32.054669450861915,32.054669450861915 0 0,0 0.2948608356840156,0.4663990310692587 l -9.394447040529686 5.82666984395913" fill="#ff790b" stroke="none" /><line stroke="#e1ed5e" stroke-width="0.3" x1="172.23445277983987" x2="176.4835382374775" y1="55.19839476539836" y2="52.563006222186495" /><path d="M 173.08426987136738 54.67131705675599 a86.0,86.0 0 0,1 12.851231095245387,41.99856678651699" fill="none" id="id27" stroke="none" /><text fill="#e1ed5e" style="font-size:6.75px; font-family:Arial;" text-anchor="middle"><textPath startOffset="22.20632615414155" xlink:href="#id27">March</textPath></text><path d="M 117.84615892207809 88.93136811851018 l 6.475060282439607 -4.01599352497719 a28.61935756175582,28.61935756175582 0 0,0 0.25605357852626726,0.4208847583418953 l -6.5432296592520975 3.903940993428213" fill="#ff4906" stroke="none" /><path d="M 118.03404312379186 89.2402003453031 l 9.234955617772568 -5.509927617737536 a31.753776435045317,31.753776435045317 0 0,0 0.27601641367855345,0.47180152301170813 l -9.32843170592145 5.350146682371932" fill="#ff750a" stroke="none" /><path d="M 118.21658344932153 89.55222093294921 l 12.38327861499663 -7.102196712964755 a35.27539097209881,35.27539097209881 0 0,0 0.29756028386329514,0.5293265423240779 l -12.50369654015236 6.887986660705883" fill="#ffa50f" stroke="none" /><path d="M 118.3937258080291 89.86733742301442 l 8.261567933902175 -4.551099712192811 a30.43217966945086,30.43217966945086 0 0,0 0.24880756058920045,0.46100262245217377 l -8.33868359370984 4.408216106408179" fill="#ff6309" stroke="none" /><path d="M 118.56541770881063 90.18545643968196 l 7.3175361295412085 -3.8683900477768587 a29.277123689354895,29.277123689354895 0 0,0 0.2316943705416798,0.44755977704956057 l -7.383039933243005 3.741857548466953" fill="#ff5207" stroke="none" /><path d="M 118.73160827565052 90.50648371742162 l 4.460699322795753 -2.260762718794215 a26.00088857295184,26.00088857295184 0 0,0 0.19889440016946963,0.40095897404084174 l -4.49895373591863 2.1836441562544233" fill="#ff2303" stroke="none" /><path d="M 118.89224826269711 90.83032412892265 l 7.221408296077598 -3.5050340481968143 a29.027079260707303,29.027079260707303 0 0,0 0.214305276003741,0.45138156592319745 l -7.2806717659230955 3.3802100666330768" fill="#ff4f07" stroke="none" /><path d="M 119.04729006885535 91.15688171328212 l 7.047954297959031 -3.2721659254900435 a28.770503820863695,28.770503820863695 0 0,0 0.20467841003020043,0.4509817453501747 l -7.103235024952578 3.150362171297806" fill="#ff4b07" stroke="none" /><path d="M 119.196687751892 91.48605970444005 l 10.54973472307749 -4.678922360313165 a32.54076328416563,32.54076328416563 0 0,0 0.22268619013070473,0.5139904293886957 l -10.628711623050876 4.496632786337867" fill="#ff800b" stroke="none" /><path d="M 119.34039704204932 91.81776055985345 l 12.284090817182209 -5.196965302840547 a34.338190865470054,34.338190865470054 0 0,0 0.22561550719034967,0.5463458463229355 l -12.371728011258755 4.984744886064308" fill="#ff990e" stroke="none" /><path d="M 119.47837535516314 92.15188598940014 l 4.98252826138936 -2.00753138510879 a26.371756708725787,26.371756708725787 0 0,0 0.16602458751638513,0.422514466061765 l -5.016346398787446 1.9214679141512405" fill="#ff2803" stroke="none" /><path d="M 119.61058180528143 92.48833698450437 l 6.98367773503791 -2.675037093509208 a28.47847432024169,28.47847432024169 0 0,0 0.1714070705025165,0.45928573071286416 l -7.028689394042052 2.5544282257670106" fill="#ff4706" stroke="none" /><path d="M 119.7369772167798 92.82701384747503 l 7.22160457920695 -2.6245391620365806 a28.68373467211658,28.68373467211658 0 0,0 0.1646540878853572,0.4654992790098354 l -7.265711747902117 2.4998422566001306" fill="#ff4a06" stroke="none" /><path d="M 119.85752413597 93.16781622104841 l 4.680739928176152 -1.6104563283822475 a25.950039985782833,25.950039985782833 0 0,0 0.1416905624524113,0.42363674701751464 l -4.707767784400333 1.5296464784424189" fill="#ff2203" stroke="none" /><path d="M 119.97218684219823 93.5106431181261 l 6.7464251182349875 -2.1920464000749615 a28.093611160476275,28.093611160476275 0 0,0 0.14547743594524362,0.46120322724071855 l -6.7831580379484375 2.075593006407824" fill="#ff4106" stroke="none" /><path d="M 120.08093135843002 93.85539295169968 l 9.325392528167306 -2.8534967643664046 a30.7521992180558,30.7521992180558 0 0,0 0.15053070145058364,0.5075146924711659 l -9.37312912672959 2.692552685148709" fill="#ff6709" stroke="none" /><path d="M 120.18372546131832 94.20196356495316 l 7.50791902545262 -2.156746936752697 a28.81155589123867,28.81155589123867 0 0,0 0.1328257033732639,0.4778447260872159 l -7.543931499392246 2.027190907246529" fill="#ff4c07" stroke="none" /><path d="M 120.28053869075195 94.5502522615342 l 7.117290524180279 -1.912544756803863 a28.369779633907946,28.369779633907946 0 0,0 0.1226704787995249,0.47269939525218174 l -7.1491573348501065 1.7897489360028307" fill="#ff4506" stroke="none" /><path d="M 120.37134235888165 94.90015583598534 l 7.178572148545842 -1.7971127593247815 a28.400102185889462,28.400102185889462 0 0,0 0.11463795879068718,0.4752483490715971 l -7.208442907597349 1.6732791785937784" fill="#ff4606" stroke="none" /><path d="M 120.45610955862082 95.25157060432595 l 5.880177218956671 -1.364951936645243 a27.036520348320597,27.036520348320597 0 0,0 0.10132980511173605,0.4542416475378153 l -5.902801411070445 1.2635321195574638" fill="#ff3204" stroke="none" /><path d="M 120.53481517161879 95.60439243477599 l 5.822059846174043 -1.246248874954553 a26.953949706770928,26.953949706770928 0 0,0 0.09321022883702226,0.45452617874831686 l -5.842649370926062 1.1458470400428242" fill="#ff3104" stroke="none" /><path d="M 120.6074358757038 95.95851677861258 l 5.125307714243374 -1.0051636339668932 a26.222942953616492,26.222942953616492 0 0,0 0.08305714607204083,0.4436945954699312 l -5.141850584225274 0.9167909610343993" fill="#ff2603" stroke="none" /><path d="M 120.73433829027371 96.67025291283417 l 19.59159141586975 -3.1462322808023506 a40.84261151590546,40.84261151590546 0 0,0 0.10549861768028826,0.6951040765719038 l -19.642845926989338 2.808529091838365" fill="#ffee16" stroke="none" /><path d="M 120.83666639777658 97.38593545837742 l 7.2319192242505155 -0.9072806201864034 a28.28860849475742,28.28860849475742 0 0,0 0.056455504573093306,0.48367628638663873 l -7.246465081827198 0.782660595474912" fill="#ff4406" stroke="none" /><path d="M 120.87857604477298 97.74499172005257 l 6.792865309040014 -0.7336691680315901 a27.83237071263551,27.83237071263551 0 0,0 0.0473453467110999,0.47676118018286834 l -6.804487781433342 0.6166324571442867" fill="#ff3e05" stroke="none" /><path d="M 120.91429891909075 98.10471618934814 l 6.362191429670092 -0.5765509264054254 a27.388261951306202,27.388261951306202 0 0,0 0.03850726530472417,0.46988617204398203 l -6.371173178794311 0.4669508371536746" fill="#ff3705" stroke="none" /><path d="M 120.94382443527127 98.46500227214037 l 7.929305132626805 -0.5811481756689117 a28.950573129553938,28.950573129553938 0 0,0 0.03214810740307841,0.49731699243648675 l -7.938133831034299 0.4445721189793898" fill="#ff4e07" stroke="none" /><path d="M 120.96714384426684 98.82574320788733 l 12.538553231910068 -0.7022168305418749 a33.55820152834548,33.55820152834548 0 0,0 0.02733617820586453,0.5770235168377441 l -12.548783018349429 0.48628220708113096" fill="#ff8e0d" stroke="none" /><path d="M 120.98425023603335 99.18683210126433 l 10.541537116528753 -0.4084987307181537 a31.54944908476986,31.54944908476986 0 0,0 0.016358097209097307,0.5428456088867806 l -10.547006908193495 0.22698297440637402" fill="#ff720a" stroke="none" /><line stroke="#e1ed5e" stroke-width="0.3" x1="184.98032266829074" x2="189.97916517819016" y1="98.17113171792111" y2="98.06355123074" /><path d="M 185.9800911702706 98.14961562048488 a86.0,86.0 0 0,1 -9.607161424134198,41.387399972396054" fill="none" id="id28" stroke="none" /><text fill="#e1ed5e" style="font-size:6.75px; font-family:Arial;" text-anchor="middle"><textPath startOffset="21.466115282336823" xlink:href="#id28">April</textPath></text><path d="M 120.99513854157772 99.54816195383933 l 8.40533114440007 -0.18089179998017477 a29.407277412475565,29.407277412475565 0 0,0 0.006535407351018462,0.5061745016079738 l -8.407199558868802 0.03618104031173819" fill="#ff5407" stroke="none" /><path d="M 120.99980553446 99.90962569577887 l 7.116870295755322 -0.03062800749061578 a28.116936200462057,28.116936200462057 0 0,0 -0.002082933040853794,0.48400028278184454 l -7.1163430654249655 -0.09188175349491348" fill="#ff4206" stroke="none" /><path d="M 120.99824983174949 100.27111621757518 l 6.850926232426357 0.08845485799552928 a27.85149724542385,27.85149724542385 0 0,0 -0.010315580938266393,0.47932451190427344 l -6.8483885888030835 -0.20636918568991758" fill="#ff3e05" stroke="none" /><path d="M 120.9904718944345 100.63252640178507 l 7.947432090117773 0.23948773751609959 a28.95103963035365,28.95103963035365 0 0,0 -0.019297752693582942,0.49798924938490263 l -7.942132204572987 -0.3762542339150084" fill="#ff4e07" stroke="none" /><path d="M 120.9764740272857 100.99374915477107 l 10.212377927447877 0.483805901811859 a31.223831526568333,31.223831526568333 0 0,0 -0.03005464640118822,0.5366459010626765 l -10.202536930159159 -0.6595235192099589" fill="#ff6e0a" stroke="none" /><path d="M 120.95626037817324 101.35467743843564 l 8.041085070023687 0.5198005907699224 a29.057868313488537,29.057868313488537 0 0,0 -0.03656232755813645,0.49886391062628127 l -8.030946183801213 -0.6581376378929739" fill="#ff4f07" stroke="none" /><path d="M 120.92983693683757 101.71520430193887 l 5.446332634576937 0.44632804320490344 a26.464590367869203,26.464590367869203 0 0,0 -0.04111514024350267,0.45370214651767354 l -5.437842898056359 -0.5400115782711475" fill="#ff2a04" stroke="none" /><path d="M 120.89721153311464 102.0752229133903 l 7.3703800317945 0.7319245200794782 a28.40663319708548,28.40663319708548 0 0,0 -0.052508577276889276,0.4861642120905766 l -7.35668915301656 -0.8586850540548462" fill="#ff4606" stroke="none" /><path d="M 120.8583938346157 102.4346265915055 l 7.226949720954794 0.8435416506955618 a28.276012973165095,28.276012973165095 0 0,0 -0.060589424205189146,0.4829573253816006 l -7.211358787502756 -0.9678167303645572" fill="#ff4406" stroke="none" /><path d="M 120.81339534386255 102.79330883721812 l 7.272852069463256 0.976069575471853 a28.33805757952728,28.33805757952728 0 0,0 -0.06904493373346221,0.4829001057197009 l -7.254973084713193 -1.1011151531719632" fill="#ff4506" stroke="none" /><path d="M 120.76222939487914 103.15116336523771 l 6.729183554098252 1.021314054976411 a27.806246667851433,27.806246667851433 0 0,0 -0.07589548937135779,0.472601284763347 l -6.7106063103656055 -1.136994569432963" fill="#ff3d05" stroke="none" /><path d="M 120.70491114924044 103.5080841355445 l 5.46461367878367 0.9258829663764929 a26.542496001421718,26.542496001421718 0 0,0 -0.08020075240419362,0.4498084112211675 l -5.447866484040288 -1.0198101283308787" fill="#ff2b04" stroke="none" /><path d="M 120.64145759157962 103.86396538481128 l 11.367566535295245 2.1279448608240736 a32.56502132575085,32.56502132575085 0 0,0 -0.10788336744197209,0.5500949663357022 l -11.329253234877608 -2.3233035542277207" fill="#ff810b" stroke="none" /><path d="M 120.5718875245553 104.21870165774334 l 10.503014283296034 2.153865741067956 a31.721587879864938,31.721587879864938 0 0,0 -0.11429735429128743,0.5339591877003714 l -10.464382890280303 -2.3343387481844964" fill="#ff750a" stroke="none" /><path d="M 120.49622156327973 104.57218783832717 l 5.845265959422989 1.3039307683588988 a26.988937266749602,26.988937266749602 0 0,0 -0.10505049801523451,0.4525547960226614 l -5.8219548954772025 -1.4043542217301253" fill="#ff3104" stroke="none" /><path d="M 120.41448212921028 104.9243191809786 l 6.831885846733449 1.6479666887649422 a28.027834547716367,28.027834547716367 0 0,0 -0.1171679408618813,0.4680276808504766 l -6.802506591576507 -1.7653222090128147" fill="#ff4106" stroke="none" /><path d="M 120.32669344350535 105.2749913415812 l 6.620082916634796 1.7179813412769256 a27.839368224631244,27.839368224631244 0 0,0 -0.12436498507534567,0.4628083743753956 l -6.589529855217673 -1.8316806488278694" fill="#ff3e05" stroke="none" /><path d="M 120.23288151984713 105.62410040840565 l 6.707288317946478 1.8644137727616323 a27.961591434156745,27.961591434156745 0 0,0 -0.13289393854816262,0.46262123413299405 l -6.674201742512216 -1.9795924823992084" fill="#ff4006" stroke="none" /><path d="M 120.13307415673323 105.97154293290107 l 6.435821421614339 1.9088880132496553 a27.7129465079083,27.7129465079083 0 0,0 -0.13958513311935047,0.45617229137578846 l -6.402009515988856 -2.019387277177501" fill="#ff3c05" stroke="none" /><path d="M 120.02730092923936 106.31721596034902 l 7.165890707021023 2.2603384901666446 a28.513928381020083,28.513928381020083 0 0,0 -0.15167746448227154,0.4668152353975747 l -7.125920991522505 -2.3833526255420145" fill="#ff4806" stroke="none" /><path d="M 119.9155931802556 106.66101706037122 l 15.345925463024843 5.132635035833852 a37.18151323973699,37.18151323973699 0 0,0 -0.20823270839993951,0.6052217221804135 l -15.255301923681673 -5.396029461103566" fill="#ffbf11" stroke="none" /><path d="M 119.79798401119884 107.00284435728193 l 7.631829050700492 2.6994925833462147 a29.09518837746579,29.09518837746579 0 0,0 -0.17107380409998696,0.47072163560788627 l -7.584230985595278 -2.830462015960232" fill="#ff5007" stroke="none" /><path d="M 119.67450827220406 107.3425965602758 l 6.332065839872323 2.3631495238420936 a27.758663586280434,27.758663586280434 0 0,0 -0.17092161869264202,0.4462224115683448 l -6.290449941586174 -2.4717955022435825" fill="#ff3d05" stroke="none" /><path d="M 119.54520255179757 107.68017299344265 l 7.324674938884508 2.878188164194453 a28.86986849120313,28.86986849120313 0 0,0 -0.18572589332830572,0.4609564359712023 l -7.274046431298809 -3.0038439680084688" fill="#ff4d07" stroke="none" /><path d="M 119.41010516605496 108.01547362559984 l 7.568112801550485 3.125279746679587 a29.188022036609205,29.188022036609205 0 0,0 -0.1957668697520796,0.4627350514954568 l -7.513194950606096 -3.255089323841207" fill="#ff5107" stroke="none" /><path d="M 119.26925614724726 108.34839909993367 l 6.929329982931374 3.0021300122117967 a28.55171494579705,28.55171494579705 0 0,0 -0.19926230340561518,0.4492838904678679 l -6.8766265947944865 -3.120962239172352" fill="#ff4806" stroke="none" /><path d="M 119.12269723197855 108.67885076344098 l 12.669169234195133 5.749912146100585 a34.912919850719746,34.912919850719746 0 0,0 -0.2530777429293367,0.5451069434168366 l -12.568316874425966 -5.967139156796252" fill="#ffa10e" stroke="none" /><path d="M 118.97047184881838 109.00673069616215 l 5.970203365074861 2.834511146537436 a27.608916829571708,27.608916829571708 0 0,0 -0.20752274333062387,0.4275583174672806 l -5.920527365129522 -2.936858419969992" fill="#ff3a05" stroke="none" /><path d="M 118.81262510543309 109.33194174019688 l 6.491392077543367 3.220034011251069 a28.246156921983296,28.246156921983296 0 0,0 -0.2198106922674426,0.43370734928944293 l -6.435002715489655 -3.331295572243206" fill="#ff4406" stroke="none" /><path d="M 118.64920377521936 109.65438752849418 l 6.5998859370672545 3.4166529171059357 a28.431824240270124,28.431824240270124 0 0,0 -0.22873739961830108,0.43268495813811464 l -6.54009602922406 -3.5297528903301845" fill="#ff4606" stroke="none" /><line stroke="#e1ed5e" stroke-width="0.3" x1="174.80103733775053" x2="179.2010983576182" y1="140.37084112569926" y2="142.7455964860345" /><path d="M 175.68104954172406 140.8457921977663 a86.0,86.0 0 0,1 -30.038265399797805,32.042727171017184" fill="none" id="id29" stroke="none" /><text fill="#e1ed5e" style="font-size:6.75px; font-family:Arial;" text-anchor="middle"><textPath startOffset="22.206326154141568" xlink:href="#id29">May</textPath></text><path d="M 118.48025628344425 109.97397251340804 l 10.26439150202054 5.5397910687920175 a32.663919495290564,32.663919495290564 0 0,0 -0.27130276760740074,0.4924933284233181 l -10.16751232496163 -5.715654915613141" fill="#ff820c" stroke="none" /><path d="M 118.30583269289576 110.29060199501025 l 10.029657400426093 5.638159934355176 a32.505775724186954,32.505775724186954 0 0,0 -0.2783856608339744,0.4853888648612183 l -9.931119743439737 -5.80996864507471" fill="#ff800b" stroke="none" /><path d="M 117.75023020441432 111.22182372390056 l 6.719031515088417 4.247820247362391 a28.94917362715479,28.94917362715479 0 0,0 -0.2699098764500125,0.41890612216266027 l -6.644916775261353 -4.362847969446504" fill="#ff4e07" stroke="none" /><path d="M 117.55443506779139 111.5257021239791 l 5.937529508223554 3.898399247816459 a28.102941176470587,28.102941176470587 0 0,0 -0.2689811383474174,0.40209030598928786 l -5.869545264465415 -4.000026468011554" fill="#ff4206" stroke="none" /><path d="M 117.35343817320211 111.8261652097733 l 6.105853634826465 4.161067859374427 a28.388906166696287,28.388906166696287 0 0,0 -0.27866968399342906,0.40144446395967937 l -6.0333230436709 -4.2655535855211255" fill="#ff4606" stroke="none" /><path d="M 117.14729908036423 112.12312394758627 l 6.161691619068152 4.3563100447875325 a28.546116936200463,28.546116936200463 0 0,0 -0.28711984505402777,0.39878435256873956 l -6.085791981638521 -4.461728002807403" fill="#ff4806" stroke="none" /><path d="M 116.93607887273984 112.41649034213515 l 5.311900160036736 3.8943581646660297 a27.586524791185354,27.586524791185354 0 0,0 -0.2840607227204934,0.3805457586239705 l -5.244078170621151 -3.9852168027993153" fill="#ff3a05" stroke="none" /><path d="M 116.71984013943494 112.70617746262583 l 5.664525545728678 4.304734149691365 a28.11460369646348,28.11460369646348 0 0,0 -0.2961313654415912,0.382789708743038 l -5.589587363069018 -4.401601852547655" fill="#ff4206" stroke="none" /><path d="M 116.27256486870786 113.27417163493432 l 15.304872133824016 12.484786583692118 a40.75117735916119,40.75117735916119 0 0,0 -0.44807666006085656,0.539737201990994 l -15.087699473869618 -12.746385042796883" fill="#ffed16" stroke="none" /><path d="M 116.0416608686014 113.55231037782055 l 4.87243711250193 4.116330633462333 a27.378465434512172,27.378465434512172 0 0,0 -0.3072352598143008,0.3573840174006816 l -4.8008593431168505 -4.199591750024543" fill="#ff3705" stroke="none" /><path d="M 115.80600337817218 113.82643327865902 l 5.920931112629231 5.179383871912813 a28.86660298560512,28.86660298560512 0 0,0 -0.33037297944309746,0.3711775446642288 l -5.8308992835377955 -5.2805355863179075" fill="#ff4d07" stroke="none" /><path d="M 115.56566222782051 114.09645910891815 l 5.279033348856756 4.780758868310233 a28.12206770925893,28.12206770925893 0 0,0 -0.32802864285573774,0.35601030537611367 l -5.195958298005297 -4.870920428487682" fill="#ff4206" stroke="none" /><path d="M 115.32070863581623 114.36230785411682 l 6.287426056026059 5.894110434000225 a29.61813577394704,29.61813577394704 0 0,0 -0.35188242076038617,0.36894731135988584 l -6.185037083886709 -6.001464861942617" fill="#ff5708" stroke="none" /><path d="M 115.07121518719521 114.62390073753431 l 5.06514160669709 4.914807940691236 a28.05769059889817,28.05769059889817 0 0,0 -0.3393101698514931,0.3437194106436139 l -4.979790811790061 -5.001267845315514" fill="#ff4106" stroke="none" /><path d="M 114.81725581225074 114.88116024355365 l 8.423413752694788 8.459742575812632 a32.93822196552337,32.93822196552337 0 0,0 -0.4052186292118868,0.39659171589981246 l -8.276545171107108 -8.603484394635016" fill="#ff860c" stroke="none" /><path d="M 114.55890576462653 115.13401014063108 l 7.466064056699916 7.760987739836246 a31.769170961435933,31.769170961435933 0 0,0 -0.39736298965149297,0.37573150886275997 l -7.331365232657616 -7.888353885444927" fill="#ff760a" stroke="none" /><path d="M 114.29624159901734 115.38237550388516 l 5.417937659481868 5.829556737521786 a28.9585036431491,28.9585036431491 0 0,0 -0.36804941281533127,0.3362044122394543 l -5.316788697199672 -5.921953916347824" fill="#ff4e07" stroke="none" /><path d="M 114.0293411484842 115.62618273729858 l 5.477289645561798 6.100723334103929 a29.198751555002666,29.198751555002666 0 0,0 -0.3768830902173398,0.33255550767128733 l -5.37146420243787 -6.194101983547505" fill="#ff5107" stroke="none" /><path d="M 113.75828350139079 115.86535959552629 l 4.774872559583889 5.506142548447379 a28.288141993957705,28.288141993957705 0 0,0 -0.37062116504896997,0.31585139730919515 l -4.679385917957872 -5.587518335979521" fill="#ff4406" stroke="none" /><path d="M 113.48314897796784 116.09983520530334 l 5.215225475483739 6.2273487336667355 a29.122711924649014,29.122711924649014 0 0,0 -0.3870961350455843,0.318553765771816 l -5.107259211893464 -6.316197618295729" fill="#ff5007" stroke="none" /><path d="M 113.20401910651253 116.32954008644616 l 3.6368542940654187 4.4977334177147235 a26.78414341567443,26.78414341567443 0 0,0 -0.3610024337043115,0.2868021665051469 l -3.5588943676437563 -4.559669498224997" fill="#ff2f04" stroke="none" /><path d="M 112.92097659922987 116.55440617244103 l 3.4607298484297733 4.4339007290990216 a26.624600142171673,26.624600142171673 0 0,0 -0.36370632838748074,0.27887450337405434 l -3.3838947915487987 -4.492814574300447" fill="#ff2c04" stroke="none" /><path d="M 112.63410532772338 116.77436683061366 l 11.886712789787365 15.782049901745612 a40.75770837035721,40.75770837035721 0 0,0 -0.5640382201772804,0.4172619910377448 l -11.613289599191521 -15.984321841523126" fill="#ffed16" stroke="none" /><path d="M 112.34349029814194 116.9893568818739 l 3.03679036457975 4.17978335406863 a26.1664963568509,26.1664963568509 0 0,0 -0.3666707049410924,0.261609812264437 l -2.9643923317897727 -4.231437428177286" fill="#ff2503" stroke="none" /><path d="M 112.04921762599082 117.19931262002967 l 4.519794935855718 6.451652588009176 a28.877332503998577,28.877332503998577 0 0,0 -0.40956736556056245,0.28170416866718373 l -4.408070685672272 -6.528497546041454" fill="#ff4d07" stroke="none" /><path d="M 111.7513745106137 117.40417183066458 l 4.373090141323104 6.476690210309514 a28.81482139683668,28.81482139683668 0 0,0 -0.4134587970550448,0.27401794546897645 l -4.260956645528094 -6.551006176869809" fill="#ff4c07" stroke="none" /><path d="M 111.45004920935366 117.60387380957326 l 4.289444416797145 6.594804689991192 a28.867069486404834,28.867069486404834 0 0,0 -0.418872447337301,0.267344214154583 l -4.175290167412914 -6.667663332969584" fill="#ff4d07" stroke="none" /><path d="M 111.1453310114006 117.79835938074945 l 3.8598656137314586 6.163951100628308 a28.272747467567086,28.272747467567086 0 0,0 -0.4146949664319908,0.25473951882440277 l -3.753191447367159 -6.229479086281089" fill="#ff4406" stroke="none" /><line stroke="#e1ed5e" stroke-width="0.3" x1="143.8653032363475" x2="146.44561519142675" y1="172.8068346515853" y2="177.08958963109032" /><path d="M 144.38136562736335 173.6633856474863 a86.0,86.0 0 0,1 -40.68145358897372,12.25698825130547" fill="none" id="id30" stroke="none" /><text fill="#e1ed5e" style="font-size:6.75px; font-family:Arial;" text-anchor="middle"><textPath startOffset="21.466115282336833" xlink:href="#id30">June</textPath></text><path d="M 110.8373102113329 117.98757091392108 l 4.406328612005204 7.3135443050803595 a29.538364137195664,29.538364137195664 0 0,0 -0.43777561698849016,0.25864555093593555 l -4.279785123988331 -7.388308428310045" fill="#ff5608" stroke="none" /><path d="M 110.5260780823613 118.17145234162733 l 5.305829877529324 9.159597145100976 a31.585369646347964,31.585369646347964 0 0,0 -0.4728047569323435,0.2684708804323594 l -5.147376353675781 -9.249571191327965" fill="#ff730a" stroke="none" /><path d="M 110.21172684928248 118.3499491758327 l 3.630453094364604 6.523737928959182 a28.46587879864937,28.46587879864937 0 0,0 -0.4302105033715803,0.23458506818950606 l -3.517619779124375 -6.585263648908459" fill="#ff4706" stroke="none" /><path d="M 109.89434966115114 118.52300852407294 l 2.673162443995916 5.004372438017037 a26.673582726141817,26.673582726141817 0 0,0 -0.40684720044739725,0.21284322648789283 l -2.5866243410220235 -5.049645083449647" fill="#ff2d04" stroke="none" /><path d="M 109.57404056367764 118.69057910512821 l 3.914390807146057 7.641729794514945 a29.585947218766663,29.585947218766663 0 0,0 -0.4552658681546927,0.22827975745715195 l -3.782271031308604 -7.707977392881399" fill="#ff5708" stroke="none" /><path d="M 109.2508944713604 118.85261126421891 l 3.1219919319554625 6.362379383463959 a28.087080149280254,28.087080149280254 0 0,0 -0.4358677911196461,0.20924302737947592 l -3.0120114728355833 -6.415176687342995" fill="#ff4106" stroke="none" /><path d="M 108.92500713936063 119.00905698771935 l 4.809265554013479 10.243084577730325 a32.315909898702685,32.315909898702685 0 0,0 -0.505562411791442,0.23207890698302086 l -4.632235146454618 -10.32435055504742" fill="#ff7d0b" stroke="none" /><path d="M 108.59647513512805 119.15986991738527 l 5.628498936661722 12.54482863748475 a34.749644570819264,34.749644570819264 0 0,0 -0.5478518514471281,0.24016215179260886 l -5.41172641055684 -12.639855342571813" fill="#ff9e0e" stroke="none" /><path d="M 108.2653958097858 119.30500536409082 l 2.8608301962029627 6.681875079480608 a28.268548960369646,28.268548960369646 0 0,0 -0.44896989889888816,0.18766945415227218 l -2.7453888378066136 -6.730129576652853" fill="#ff4406" stroke="none" /><path d="M 107.93186726928326 119.44442032107085 l 2.9878415071360473 7.324485413728417 a28.91045406077839,28.91045406077839 0 0,0 -0.4624005810035859,0.1839987340417339 l -2.861319850090595 -7.37483099217622" fill="#ff4d07" stroke="none" /><path d="M 107.59598834532513 119.57807347666477 l 3.2350783844982525 8.338164756855718 a29.943753332148567,29.943753332148567 0 0,0 -0.48213689065753246,0.18230291723288555 l -3.0910712730804453 -8.392615924195235" fill="#ff5c08" stroke="none" /><path d="M 107.2578585660854 119.70592522655815 l 2.577075069315556 6.997056798056366 a28.456548782655055,28.456548782655055 0 0,0 -0.46110509155824986,0.16533588049943201 l -2.4562504171275714 -7.040380219595758" fill="#ff4706" stroke="none" /><path d="M 106.91757812671514 119.82793768551818 l 3.1586728806342115 9.053742205567493 a30.58892393815532,30.58892393815532 0 0,0 -0.49864354766245533,0.1691669647703744 l -3.002359600034529 -9.10677215723599" fill="#ff6509" stroke="none" /><path d="M 105.88484417918355 120.15858648285463 l 2.387220978231536 8.177446858081757 a29.518771103607605,29.518771103607605 0 0,0 -0.48898382965711884,0.13819171458855808 l -2.2461059804698116 -8.217327366008835" fill="#ff5607" stroke="none" /><path d="M 105.53697534728816 120.25689768951611 l 2.244752978674446 8.212377439880687 a29.513639594810734,29.513639594810734 0 0,0 -0.4912047193239693,0.12973163086368084 l -2.1030578165389793 -8.249800420047952" fill="#ff5607" stroke="none" /><path d="M 105.18746579009965 120.34920634021253 l 1.9449539631531452 7.629596246003801 a28.873600497600854,28.873600497600854 0 0,0 -0.48266583868188406,0.11862751994649526 l -1.8133348397280502 -7.661945024264326" fill="#ff4d07" stroke="none" /><path d="M 104.83641907484287 120.43548508189849 l 2.401449243844138 10.146924705673431 a31.427225875244357,31.427225875244357 0 0,0 -0.5274982800715672,0.1200568911573342 l -2.226430814379709 -10.18675833040845" fill="#ff710a" stroke="none" /><path d="M 104.48393922423573 120.51570834832081 l 1.9672516367215127 9.000916116032878 a30.213390794384217,30.213390794384217 0 0,0 -0.5090359829630554,0.10667343949406508 l -1.8120241923290792 -9.033445536253483" fill="#ff6008" stroke="none" /><path d="M 104.13013068566511 120.58985236759428 l 1.107399088679088 5.520693044181244 a26.630664652567976,26.630664652567976 0 0,0 -0.45022611414962865,0.08628690632395922 l -1.012205359957755 -5.538937148853671" fill="#ff2c04" stroke="none" /><path d="M 103.41894727170886 120.7198165907248 l 3.207503580478243 19.43840621688932 a40.70126177359161,40.70126177359161 0 0,0 -0.6922395719718344,0.10811358451616572 l -2.8724281448978912 -19.49073810875259" fill="#ffec16" stroke="none" /><path d="M 103.06178313531738 120.77559828337769 l 1.0835540058810451 7.352409282310511 a28.431824240270124,28.431824240270124 0 0,0 -0.4847915886115213,0.06718769675054094 l -0.9568338260826934 -7.369971544553654" fill="#ff4606" stroke="none" /><path d="M 102.70371172650421 120.8252237178851 l 0.9929906249843184 7.648467738754982 a28.712657721698953,28.712657721698953 0 0,0 -0.4906754984585613,0.05941396953268563 l -0.8611877034743768 -7.664427237013018" fill="#ff4a06" stroke="none" /><path d="M 102.34483914955558 120.86867818915974 l 0.8663966050861492 7.710785594461833 a28.759307801670516,28.759307801670516 0 0,0 -0.4924242680793762,0.05104178878778545 l -0.7335397404011703 -7.724556751705378" fill="#ff4b07" stroke="none" /><path d="M 101.98527174616119 120.90594882070398 l 0.8468364152698413 8.917629937248039 a29.957748356140037,29.957748356140037 0 0,0 -0.5137834903872773,0.04433140143879494 l -0.6932086071410224 -8.930885590965497" fill="#ff5c08" stroke="none" /><path d="M 101.62511606390274 120.93702456842531 l 0.7085875711365479 9.129018976120761 a30.15647769681891,30.15647769681891 0 0,0 -0.5178832791053587,0.035716263041790965 l -0.5513415312522588 -9.139863583678837" fill="#ff5f08" stroke="none" /><path d="M 101.26447882468166 120.96189622390904 l 0.6739523822771266 11.172444821846662 a32.19275368757775,32.19275368757775 0 0,0 -0.5534270567543581,0.028605857365097066 l -0.4815372571092889 -11.182390485973961" fill="#ff7b0b" stroke="none" /><path d="M 100.90346689309514 120.98055641714683 l 0.4228729215726552 9.820071168235375 a30.829171850008883,30.829171850008883 0 0,0 -0.5303786840063295,0.018267314270774083 l -0.25377388589167343 -9.825895280932242" fill="#ff6809" stroke="none" /><line stroke="#e1ed5e" stroke-width="0.3" x1="102.19456741930631" x2="102.32365962044197" y1="184.97166512339345" y2="189.96999836594603" /><path d="M 102.22038585953345 185.97133177190398 a86.0,86.0 0 0,1 -42.740103519485714,-10.115201625700543" fill="none" id="id31" stroke="none" /><text fill="#e1ed5e" style="font-size:6.75px; font-family:Arial;" text-anchor="middle"><textPath startOffset="22.20632615414155" xlink:href="#id31">July</textPath></text><path d="M 100.54218724476979 120.99299961872073 l 0.23529789438916623 9.110521604570113 a30.113559623245067,30.113559623245067 0 0,0 -0.5182978251743491,0.008922967093382033 l -0.07844037932214923 -9.113222048942655" fill="#ff5e08" stroke="none" /><path d="M 100.18074693466247 120.99922214144158 l 0.07796257398127415 9.057710510049118 a30.058046028078905,30.058046028078905 0 0,0 -0.517419017287453,0.0 l 0.07796257398126792 -9.057710510049118" fill="#ff5e08" stroke="none" /><path d="M 99.81925306533755 120.99922214144158 l -0.07159049771262331 8.317401163628562 a29.317709258930158,29.317709258930158 0 0,0 -0.5046000917230626,-0.0086871481898421 l 0.21475027932835394 -8.314936538159559" fill="#ff5307" stroke="none" /><path d="M 99.45781275523022 120.99299961872073 l -0.21202826232733268 8.209542502398254 a29.212280078194418,29.212280078194418 0 0,0 -0.5025620130205671,-0.01730925187839895 l 0.3533106270225429 -8.20467645209376" fill="#ff5207" stroke="none" /><path d="M 99.09653310690486 120.98055641714683 l -0.39162407777157926 9.09440193193056 a30.10283010485161,30.10283010485161 0 0,0 -0.5174990877320502,-0.026748791750530344 l 0.5481112339171185 -9.086313333417829" fill="#ff5e08" stroke="none" /><path d="M 98.73552117531835 120.96189622390904 l -0.6174362236832973 10.235548269454071 a31.25415407854985,31.25415407854985 0 0,0 -0.5367338971941982,-0.03701631203222061 l 0.7935328816564254 -10.223403612905564" fill="#ff6e0a" stroke="none" /><path d="M 98.37488393609728 120.93702456842531 l -0.7654825177490944 9.862019480826604 a30.891682957170783,30.891682957170783 0 0,0 -0.5298007215024683,-0.04571343553640725 l 0.9351275569931043 -9.847381793011532" fill="#ff6909" stroke="none" /><path d="M 98.01472825383883 120.90594882070398 l -0.8694604690680556 9.155873045143482 a30.19706326639417,30.19706326639417 0 0,0 -0.517041887087332,-0.053593505653326635 l 1.026934952760981 -9.139550171034394" fill="#ff5f08" stroke="none" /><path d="M 97.65516085044442 120.86867818915974 l -0.9411443432150852 8.376028023852367 a29.428736449262484,29.428736449262484 0 0,0 -0.5029126898042063,-0.060895722984941114 l 1.085184456070681 -8.358586772142077" fill="#ff5507" stroke="none" /><path d="M 97.2962882734958 120.8252237178851 l -0.9743116142560655 7.504593459026391 a28.567575972987385,28.567575972987385 0 0,0 -0.48710629404880135,-0.06750849383250092 l 1.103346499491698 -7.486710399701286" fill="#ff4806" stroke="none" /><path d="M 96.93821686468263 120.77559828337769 l -1.2328479009854831 8.365436611082815 a29.45579349564599,29.45579349564599 0 0,0 -0.5009787164570599,-0.07824257236291646 l 1.3766624810510604 -8.342975731372794" fill="#ff5507" stroke="none" /><path d="M 96.58105272829116 120.7198165907248 l -1.4554981676521308 8.82074296127266 a29.940021325750845,29.940021325750845 0 0,0 -0.5077699709197582,-0.08828231807628006 l 1.607117110043939 -8.794382064675375" fill="#ff5c08" stroke="none" /><path d="M 96.22490169976321 120.6578951692458 l -2.5058581906294575 13.71242592749764 a34.93951039630353,34.93951039630353 0 0,0 -0.5906979867474621,-0.11320867503320557 l 2.7415237919486146 -13.667260054115966" fill="#ffa10e" stroke="none" /><path d="M 95.86986931433489 120.58985236759428 l -1.937994279218587 9.661441522140878 a30.853896392393814,30.853896392393814 0 0,0 -0.5198272377048557,-0.1089348518466166 l 2.1040129783528294 -9.626650689567722" fill="#ff6909" stroke="none" /><path d="M 95.51606077576429 120.51570834832081 l -1.594320491005794 7.294615865985936 a28.4668118002488,28.4668118002488 0 0,0 -0.4778084557434853,-0.10874764891643858 l 1.7196490961421418 -7.26609148349181" fill="#ff4706" stroke="none" /><path d="M 95.16358092515715 120.4354850818985 l -1.5948063965471673 6.738589402783485 a27.924737870979207,27.924737870979207 0 0,0 -0.4668041668578154,-0.11472910692469716 l 1.7105638481481933 -6.710139037544758" fill="#ff3f05" stroke="none" /><path d="M 94.81253420990036 120.34920634021253 l -0.7718510276809888 3.0277897651222574 a24.12462235649547,24.12462235649547 0 0,0 -0.40151362272184654,-0.10604339706136882 l 0.8238550932143246 -3.014055018757307" fill="#ff0701" stroke="none" /><path d="M 94.46302465271185 120.25689768951611 l -2.230607959904715 8.160628212177333 a29.459992002843435,29.459992002843435 0 0,0 -0.48801014312745533,-0.13791654104938328 l 2.370749271136784 -8.121022877789429" fill="#ff5507" stroke="none" /><path d="M 94.11515582081647 120.15858648285463 l -2.3073462716054167 7.903835334600682 a29.23373911498134,29.23373911498134 0 0,0 -0.481834699922862,-0.14517284253644483 l 2.4430559459685246 -7.862947122958512" fill="#ff5207" stroke="none" /><path d="M 93.76903079525671 120.05430185196036 l -1.924823568534748 6.1950222488306546 a27.48716012084592,27.48716012084592 0 0,0 -0.4506305958892752,-0.14427768635855628 l 2.0311755095149633 -6.1609717158123924" fill="#ff3905" stroke="none" /><path d="M 93.42475214034765 119.94407469862007 l -4.393187530539447 13.325438393246749 a35.0309445530478,35.0309445530478 0 0,0 -0.5710548859193376,-0.19373282221563992 l 4.62191214939601 -13.247842584132986" fill="#ffa20f" stroke="none" /><path d="M 93.08242187328487 119.8279376855182 l -2.785563770725189 7.984295060098371 a29.45625999644571,29.45625999644571 0 0,0 -0.47730424256169296,-0.1711443197110793 l 2.9225875739166085 -7.935163199347334" fill="#ff5507" stroke="none" /><path d="M 92.7421414339146 119.70592522655815 l -2.580783322981362 7.007125135541059 a28.467278301048516,28.467278301048516 0 0,0 -0.4583635489280534,-0.17331387359478678 l 2.7010170926696984 -6.961663011839638" fill="#ff4706" stroke="none" /><path d="M 92.40401165467489 119.57807347666478 l -3.2079112856090224 8.268143657030258 a29.868646703394347,29.868646703394347 0 0,0 -0.4777261388010474,-0.19009708977280912 l 3.349758500451928 -8.211699722851382" fill="#ff5b08" stroke="none" /><path d="M 92.06813273071674 119.44442032107085 l -2.9171848789375687 7.151275609464388 a28.72338724009241,28.72338724009241 0 0,0 -0.45619378211796363,-0.1906890379237207 l 3.0398501205529946 -7.1000015285206945" fill="#ff4b06" stroke="none" /><path d="M 91.7346041902142 119.30500536409082 l -3.2464115717261124 7.582455123566952 a29.248200639772527,29.248200639772527 0 0,0 -0.46111783501384995,-0.20214050786604162 l 3.3764500813977056 -7.525450062406458" fill="#ff5207" stroke="none" /><path d="M 91.40352486487194 119.15986991738527 l -1.9312278532421798 4.30433100396564 a25.717722587524435,25.717722587524435 0 0,0 -0.40233785457032906,-0.18469357560762426 l 2.0050337035799286 -4.270450358023941" fill="#ff1f03" stroke="none" /><path d="M 91.07499286063937 119.00905698771935 l -2.9743415031252938 6.334944751416511 a27.998444997334282,27.998444997334282 0 0,0 -0.4344923114439638,-0.20858271354738905 l 3.0829464825694997 -6.28280776136956" fill="#ff4006" stroke="none" /><path d="M 90.7491055286396 118.85261126421891 l -3.815151409738885 7.774985074645105 a29.660587346721165,29.660587346721165 0 0,0 -0.4564144236631954,-0.22885566703273644 l 3.948419741084841 -7.708161566703066" fill="#ff5808" stroke="none" /><path d="M 90.42595943632237 118.69057910512821 l -3.1147108595845676 6.08058314809407 a27.83190421183579,27.83190421183579 0 0,0 -0.42451486281248324,-0.22208611241201467 l 3.2189166249235464 -6.026067616737339" fill="#ff3e05" stroke="none" /><path d="M 90.10565033884886 118.52300852407294 l -3.8394015434731656 7.187664672527677 a29.14883596943309,29.14883596943309 0 0,0 -0.4405321712990906,-0.24021326451578975 l 3.962556526640897 -7.120510756252122" fill="#ff5107" stroke="none" /><line stroke="#e1ed5e" stroke-width="0.3" x1="58.666819895761336" x2="56.23545636021788" y1="174.27360380694188" y2="178.64263932499728" /><path d="M 58.180547188652646 175.14741091055294 a86.0,86.0 0 0,1 -31.652253787137756,-30.449443065178592" fill="none" id="id32" stroke="none" /><text fill="#e1ed5e" style="font-size:6.75px; font-family:Arial;" text-anchor="middle"><textPath startOffset="22.20632615414155" xlink:href="#id32">August</textPath></text><path d="M 89.7882731507175 118.34994917583269 l -5.173010020238093 9.295633574855357 a31.638084236715834,31.638084236715834 0 0,0 -0.47359384724106374,-0.26891894650364273 l 5.332252634400364 -9.205211462557081" fill="#ff740a" stroke="none" /><path d="M 89.4739219176387 118.17145234162733 l -4.443232089057871 7.670471330096021 a29.864448196196907,29.864448196196907 0 0,0 -0.4426083710792837,-0.2615008272369545 l 4.574608331165537 -7.592851930565317" fill="#ff5b08" stroke="none" /><path d="M 89.1626897886671 117.98757091392108 l -3.9188229878282606 6.504391312795612 a28.593700017771457,28.593700017771457 0 0,0 -0.4194025883985487,-0.25763132473390327 l 4.030204776159118 -6.43597152123333" fill="#ff4906" stroke="none" /><path d="M 88.8546689885994 117.79835938074946 l -5.358998794690019 8.557968029063488 a31.097409809845388,31.097409809845388 0 0,0 -0.4512355561078291,-0.2879998813794293 l 5.505516152844772 -8.464453718860254" fill="#ff6c0a" stroke="none" /><path d="M 88.54995079064634 117.60387380957326 l -5.057088110457831 7.775018195351332 a30.274968899946685,30.274968899946685 0 0,0 -0.43441019640070105,-0.28790339051038777 l 5.190173005598494 -7.6868167837496255" fill="#ff6108" stroke="none" /><path d="M 88.24862548938628 117.40417183066458 l -4.550603351453221 6.73959310805369 a29.132041940643326,29.132041940643326 0 0,0 -0.41317991089989664,-0.28418891029252186 l 4.665940146976007 -6.660263408396067" fill="#ff5007" stroke="none" /><path d="M 87.95078237400918 117.19931262002967 l -4.2408877747067395 6.053534502215885 a28.391238670694865,28.391238670694865 0 0,0 -0.3978459842526378,-0.2838525462982232 l 4.344461086808264 -5.979637694073442" fill="#ff4606" stroke="none" /><path d="M 87.65650970185807 116.9893568818739 l -7.011352561833332 9.650298904156648 a32.92842544872934,32.92842544872934 0 0,0 -0.455690254088218,-0.3371087559590996 l 7.176427786340114 -9.52818019945778" fill="#ff860c" stroke="none" /><path d="M 87.36589467227662 116.77436683061367 l -5.320435727244799 7.063969966410681 a29.843455660209703,29.843455660209703 0 0,0 -0.407677622447267,-0.31258981662692964 l 5.441242078185553 -6.971340807956385" fill="#ff5a08" stroke="none" /><path d="M 87.07902340077011 116.55440617244103 l -6.370073610865221 8.161363430446594 a31.35305224808957,31.35305224808957 0 0,0 -0.4225831675839497,-0.335725625858121 l 6.509614271166529 -8.050503890583341" fill="#ff700a" stroke="none" /><path d="M 86.79598089348748 116.32954008644616 l -5.109312440384344 6.318736866132168 a29.125977430247023,29.125977430247023 0 0,0 -0.387139539815007,-0.3185894849420633 l 5.21732210874404 -6.229852262332924" fill="#ff5007" stroke="none" /><path d="M 86.24171649860922 115.8653595955263 l -3.6027778104317236 4.154541916475563 a26.49911142704816,26.49911142704816 0 0,0 -0.3420374663562776,-0.30180829604511517 l 3.673757629694589 -4.091910478658159" fill="#ff2a04" stroke="none" /><path d="M 85.70375840098266 115.38237550388516 l -4.764672843212571 5.126661180131265 a27.998911498133996,27.998911498133996 0 0,0 -0.35020527269632035,-0.3311409440453612 l 4.852213950299708 -5.043885599339973" fill="#ff4006" stroke="none" /><path d="M 85.44109423537348 115.13401014063109 l -3.608031648973108 3.7505557386013955 a26.204282921627865,26.204282921627865 0 0,0 -0.3223751305124153,-0.3155119161772129 l 3.6720567318613173 -3.687893719501613" fill="#ff2603" stroke="none" /><path d="M 85.18274418774928 114.88116024355367 l -5.681220795260519 5.7057229830223966 a29.051803803092234,29.051803803092234 0 0,0 -0.3513322826115517,-0.35589774739781693 l 5.778593702927604 -5.607084741643915" fill="#ff4f07" stroke="none" /><path d="M 84.9287848128048 114.62390073753433 l -3.5920354483609658 3.4854236496580278 a26.00508708014928,26.00508708014928 0 0,0 -0.3089570884436648,-0.32394027203902015 l 3.651499088183588 -3.4230762610365075" fill="#ff2303" stroke="none" /><path d="M 84.67929136418377 114.36230785411682 l -5.153756239385222 4.831358357803692 a28.064221610094187,28.064221610094187 0 0,0 -0.3273538995331646,-0.3552780047628829 l 5.236156546914116 -4.741929098239465" fill="#ff4106" stroke="none" /><path d="M 84.19399662182784 113.82643327865904 l -9.253407966686275 8.094495793179764 a33.29416207570642,33.29416207570642 0 0,0 -0.3736199371764155,-0.4346043947228004 l 9.391370413433469 -7.934014299295432" fill="#ff8b0c" stroke="none" /><path d="M 83.95833913139862 113.55231037782056 l -7.4656298915318775 6.307110858702256 a30.773191754043005,30.773191754043005 0 0,0 -0.3383644320024653,-0.4075817556698425 l 7.57309032342788 -6.177667845918652" fill="#ff6809" stroke="none" /><path d="M 83.72743513129214 113.27417163493432 l -6.630701470292964 5.408924166953978 a29.557024169184288,29.557024169184288 0 0,0 -0.318205416076863,-0.39701018287531203 l 6.722824798424688 -5.293986150500406" fill="#ff5608" stroke="none" /><path d="M 83.28015986056508 112.70617746262583 l -7.780876379087928 5.913046731485442 a30.77272525324329,30.77272525324329 0 0,0 -0.31686929186197604,-0.42449819848872616 l 7.881506937644989 -5.778235653487408" fill="#ff6809" stroke="none" /><path d="M 83.06392112726016 112.41649034213515 l -6.009418603036107 4.405735743622816 a28.451417273858183,28.451417273858183 0 0,0 -0.2861673458948835,-0.3974614145446182 l 6.084365741306598 -4.3016407236270595" fill="#ff4706" stroke="none" /><path d="M 82.85270091963577 112.12312394758628 l -4.519564234683703 3.195327564379581 a26.535031988626265,26.535031988626265 0 0,0 -0.2604717820266275,-0.37522902891284293 l 4.573896923872464 -3.117057273279726" fill="#ff2b04" stroke="none" /><path d="M 82.6465618267979 111.8261652097733 l -9.02829043043347 6.152674364956695 a31.92544872934068,31.92544872934068 0 0,0 -0.30556743109363904,-0.45678184955150264 l 9.13286096693784 -5.996355601199372" fill="#ff780b" stroke="none" /><path d="M 82.24976979558568 111.22182372390057 l -8.516687892863533 5.384311591712463 a31.075950773058466,31.075950773058466 0 0,0 -0.2819555942002647,-0.4546021944664769 l 8.608108126731754 -5.236913065880723" fill="#ff6c09" stroke="none" /><path d="M 82.05923443525364 110.91462005526583 l -9.729206703540699 5.918955588882827 a32.38821752265861,32.38821752265861 0 0,0 -0.2856627279639052,-0.47878716335691923 l 9.829650307202837 -5.750606331639797" fill="#ff7e0b" stroke="none" /><line stroke="#e1ed5e" stroke-width="0.3" x1="26.63291911575756" x2="22.317208475507996" y1="142.92168965132927" y2="145.44649492493687" /><path d="M 25.769776987707644 143.4266507060508 a86.0,86.0 0 0,1 -11.730757126820373,-40.83630448921669" fill="none" id="id33" stroke="none" /><text fill="#e1ed5e" style="font-size:6.75px; font-family:Arial;" text-anchor="middle"><textPath startOffset="21.46611528233685" xlink:href="#id33">September</textPath></text><path d="M 81.87401531095188 110.60418214915194 l -6.2842598863065176 3.6764588324554452 a28.280677981162253,28.280677981162253 0 0,0 -0.24220111820806903,-0.422298064788783 l 6.346613000666963 -3.567740921808355" fill="#ff4406" stroke="none" /><path d="M 81.69416730710424 110.29060199501025 l -7.285978415643622 4.095804068433416 a29.35829482850542,29.35829482850542 0 0,0 -0.2438466283985185,-0.4426524605844552 l 7.355401453493657 -3.969781089451138" fill="#ff5407" stroke="none" /><path d="M 81.51974371655577 109.97397251340807 l -4.5814745895512194 2.472666013187179 a26.206148924826728,26.206148924826728 0 0,0 -0.2108315776159321,-0.39881389089483243 l 4.623358675392038 -2.3934371072062204" fill="#ff2603" stroke="none" /><path d="M 81.35079622478065 109.6543875284942 l -5.643728963697646 2.9216661031783464 a27.35514039452639,27.35514039452639 0 0,0 -0.2128768300693777,-0.4200261813569899 l 5.69318446355329 -2.8240857101186716" fill="#ff3705" stroke="none" /><path d="M 81.18737489456691 109.33194174019688 l -5.2351553824364725 2.596881868212331 a26.84385551803803,26.84385551803803 0 0,0 -0.20177215111558616,-0.4157103942351523 l 5.279080790166777 -2.506382518011894" fill="#ff2f04" stroke="none" /><path d="M 81.02952815118164 109.00673069616217 l -6.480959804580098 3.0770062061550996 a28.174315798827084,28.174315798827084 0 0,0 -0.20423076275010368,-0.43989489374211915 l 6.5329651841700285 -2.9649912451341534" fill="#ff4306" stroke="none" /><path d="M 80.87730276802145 108.67885076344099 l -3.6337202799525614 1.649166728062784 a24.99044784076773,24.99044784076773 0 0,0 -0.17440823464868796,-0.39324452670353394 l 3.6615695993325295 -1.5863738648665542" fill="#ff1402" stroke="none" /><path d="M 80.73074385275274 108.34839909993369 l -18.28387700092233 7.921483898048863 a40.92611515905456,40.92611515905456 0 0,0 -0.27449538875064294,-0.648826014379507 l 18.41752337086528 -7.605583358003197" fill="#ffef16" stroke="none" /><path d="M 80.58989483394504 108.01547362559985 l -6.35562800221366 2.6245797325693485 a27.87622178780878,27.87622178780878 0 0,0 -0.1793335565673435,-0.44509118036221174 l 6.399864173038391 -2.5147891843643313" fill="#ff3e05" stroke="none" /><path d="M 80.45479744820244 107.68017299344265 l -7.750608911323494 3.045556426735934 a29.327505775724187,29.327505775724187 0 0,0 -0.18058163152645423,-0.4714416568309016 l 7.801884822443457 -2.9116912030718747" fill="#ff5307" stroke="none" /><path d="M 80.32549172779594 107.34259656027581 l -5.92997441436966 2.2130875717483156 a27.32948285054203,27.32948285054203 0 0,0 -0.1606918138721773,-0.44215485738834265 l 5.967190489247061 -2.110684917353856" fill="#ff3605" stroke="none" /><path d="M 80.20201598880116 107.00284435728193 l -8.215881893398022 2.9060808476626905 a29.71470143948818,29.71470143948818 0 0,0 -0.16641530214610753,-0.48368076531280113 l 8.264688026487358 -2.7642273792605927" fill="#ff5908" stroke="none" /><path d="M 80.0844068197444 106.66101706037122 l -10.907653942136175 3.648200098264008 a32.50157721698952,32.50157721698952 0 0,0 -0.17288942996816453,-0.5320989523646361 l 10.968835623120588 -3.4599022459215685" fill="#ff800b" stroke="none" /><path d="M 79.97269907076064 106.31721596034903 l -6.911411940992835 2.180068196730544 a28.247089923582728,28.247089923582728 0 0,0 -0.14227551754890042,-0.46496462335616123 l 6.947914231047865 -2.060776600822335" fill="#ff4406" stroke="none" /><path d="M 79.86692584326677 105.97154293290107 l -5.315925880285478 1.576722927413857 a26.544828505420295,26.544828505420295 0 0,0 -0.12616044463983708,-0.4391810584867043 l 5.342278961811419 -1.4849843934225568" fill="#ff2b04" stroke="none" /><path d="M 79.76711848015287 105.62410040840567 l -6.241647984408142 1.734980504076985 a27.478296605651323,27.478296605651323 0 0,0 -0.12275199349654418,-0.45680583266308045 l 6.270588054246462 -1.6272837382383656" fill="#ff3905" stroke="none" /><path d="M 79.67330655649465 105.27499134158121 l -8.234803366118868 2.13701832895896 a29.50757508441443,29.50757508441443 0 0,0 -0.12335386833336287,-0.4927373861426331 l 8.27036854874729 -1.994953103418935" fill="#ff5607" stroke="none" /><path d="M 79.58551787078972 104.9243191809786 l -9.145158312992148 2.205967225066965 a30.40745512706593,30.40745512706593 0 0,0 -0.1183565796942099,-0.5098770476431764 l 9.181775458616913 -2.048221520075214" fill="#ff6209" stroke="none" /><path d="M 79.50377843672027 104.57218783832718 l -8.9254360961652 1.991038701677796 a30.144815176826018,30.144815176826018 0 0,0 -0.10861601989660039,-0.5074178848219947 l 8.95838615478624 -1.8371069974396375" fill="#ff5f08" stroke="none" /><path d="M 79.4281124754447 104.21870165774334 l -6.135098409835496 1.2581319920740255 a27.26277323618269,27.26277323618269 0 0,0 -0.09031776006240173,-0.4605283127426171 l 6.155846102873564 -1.1523399522634536" fill="#ff3505" stroke="none" /><path d="M 79.35854240842038 103.8639653848113 l -11.185986270361315 2.0939540510589914 a32.380287009063444,32.380287009063444 0 0,0 -0.09784020994301076,-0.5487398567810757 l 11.220372922643515 -1.901095443544702" fill="#ff7e0b" stroke="none" /><path d="M 79.29508885075956 103.50808413554451 l -10.025894198310445 1.6987119687799717 a31.168784432201882,31.168784432201882 0 0,0 -0.08507333534975829,-0.5297517404317936 l 10.053649288021493 -1.5258809986549644" fill="#ff6d0a" stroke="none" /><path d="M 79.23777060512086 103.15116336523772 l -8.24843856624353 1.2518972281835672 a29.342900302114806,29.342900302114806 0 0,0 -0.07149320666109656,-0.5000233208733074 l 8.268765823921226 -1.109728435329859" fill="#ff5307" stroke="none" /><path d="M 79.18660465613746 102.79330883721812 l -7.568297236175716 1.0157204628670575 a28.636151590545584,28.636151590545584 0 0,0 -0.06136112393109623,-0.4891085314791946 l 7.58465986935366 -0.8852941771004544" fill="#ff4906" stroke="none" /><path d="M 79.1416061653843 102.43462659150553 l -7.0939668030914875 0.8280196622523038 a28.142127243646705,28.142127243646705 0 0,0 -0.052019648117281506,-0.4816373353025288 l 7.107168752709821 -0.7057860050649929" fill="#ff4206" stroke="none" /><path d="M 79.10278846688536 102.07522291339032 l -8.830343828481134 0.8769079940134741 a29.87377821219122,29.87377821219122 0 0,0 -0.04641162261437377,-0.5121483881314848 l 8.844130047372582 -0.7247782173334232" fill="#ff5b08" stroke="none" /><path d="M 79.07016306316243 101.71520430193888 l -9.138903386140022 0.748934951104288 a30.169539719210945,30.169539719210945 0 0,0 -0.037961098233075,-0.5179490251573106 l 9.150441043037432 -0.5915127894502168" fill="#ff5f08" stroke="none" /><path d="M 79.04373962182676 101.35467743843564 l -11.389636271823049 0.7362612895140926 a32.413408565843255,32.413408565843255 0 0,0 -0.031199679394715817,-0.557091234351811 l 11.400622302105296 -0.5400983388268441" fill="#ff7e0b" stroke="none" /><path d="M 79.0235259727143 100.99374915477108 l -8.272044760360224 0.39188366348623144 a29.28132219655234,29.28132219655234 0 0,0 -0.01951790752612014,-0.5036704673766095 l 8.277564800737546 -0.2494359490956252" fill="#ff5207" stroke="none" /><path d="M 79.0095281055655 100.63252640178507 l -9.319721027058433 0.28084026107335847 a30.32395148391683,30.32395148391683 0 0,0 -0.011231323513560964,-0.5218754710368371 l 9.323174413257002 -0.1203749742463926" fill="#ff6109" stroke="none" /><line stroke="#e1ed5e" stroke-width="0.3" x1="15.007084014347285" x2="10.007500721073583" y1="101.09737516637583" y2="101.16192664675087" /><path d="M 14.007167355692545 101.11028546245083 a86.0,86.0 0 0,1 10.666146001902534,-42.60595125391555" fill="none" id="id34" stroke="none" /><text fill="#e1ed5e" style="font-size:6.75px; font-family:Arial;" text-anchor="middle"><textPath startOffset="22.20632615414155" xlink:href="#id34">October</textPath></text><path d="M 79.00175016825051 100.2711162175752 l -13.808672244741434 0.1782889059196458 a34.809823173982586,34.809823173982586 0 0,0 -0.0025787493458897873,-0.5992105306095599 l 13.809695291376828 0.05943110289358946" fill="#ff9f0e" stroke="none" /><path d="M 79.00019446554 99.90962569577889 l -11.198247997483387 -0.04819253538359675 a32.19835169717434,32.19835169717434 0 0,0 0.007155689437714478,-0.554216032797409 l 11.195759300927957 0.24094482624147773" fill="#ff7b0b" stroke="none" /><path d="M 79.00486145842228 99.54816195383935 l -5.343928767758071 -0.11500711597895652 a26.345166163141993,26.345166163141993 0 0,0 0.01365972470481386,-0.4532997621805772 l 5.341157348597612 0.20697702558452818" fill="#ff2803" stroke="none" /><path d="M 79.03285615573316 98.82574320788736 l -62.90143153280056 -3.522770376337934 a84.0,84.0 0 0,0 0.09327763598234728,-1.442963742987953 l 62.831473305813795 4.604993183578899" fill="#4dd2ff" stroke="none" /><path d="M 79.05617556472873 98.46500227214037 l -5.586756793556455 -0.40946003012569915 a26.601741602985605,26.601741602985605 0 0,0 0.03740143581564329,-0.4563922513138361 l 5.578880873921314 0.5055661986473136" fill="#ff2c04" stroke="none" /><path d="M 79.08570108090925 98.10471618934814 l -7.369437743349423 -0.6678290342224923 a28.399635685089745,28.399635685089745 0 0,0 0.04831031505947402,-0.48647827976221103 l 7.356850302607721 0.7945828446891336" fill="#ff4606" stroke="none" /><path d="M 79.12142395522702 97.74499172005258 l -5.783629004760957 -0.6246657466444017 a26.81726497245424,26.81726497245424 0 0,0 0.0535191480192751,-0.45851937663624037 l 5.772019503738093 0.7241288616055038" fill="#ff2f04" stroke="none" /><path d="M 79.16333360222342 97.38593545837743 l -7.5739819678962625 -0.9501941108621376 a28.63335258574729,28.63335258574729 0 0,0 0.06556219774811657,-0.4885145255556529 l 7.556503771090312 1.0804269784824498" fill="#ff4906" stroke="none" /><path d="M 79.21141760316559 97.0276538004421 l -7.325601620778931 -1.0474126480270798 a28.400102185889462,28.400102185889462 0 0,0 0.07335896044314733,-0.4833438918758181 l 7.306486766896481 1.17335565229499" fill="#ff4606" stroke="none" /><path d="M 79.26566170972629 96.67025291283419 l -7.9559317862070795 -1.2776506450287688 a29.057868313488537,29.057868313488537 0 0,0 0.08355955122105092,-0.4931732013416428 l 7.932760373465806 1.4144096346862396" fill="#ff4f07" stroke="none" /><path d="M 79.32604984820605 96.31383870115002 l -8.103604283552603 -1.4448710706905974 a29.23140661098276,29.23140661098276 0 0,0 0.09258599284885731,-0.4945980759756027 l 8.077532566793883 1.5841472241287728" fill="#ff5207" stroke="none" /><path d="M 79.3925641242962 95.95851677861259 l -2.5933251340825945 -0.508596997715472 a23.642727030389196,23.642727030389196 0 0,0 0.0817595944493549,-0.39868881886401725 l 2.584186243718245 0.5531614727428917" fill="#ff0000" stroke="none" /><path d="M 79.46518482838121 95.60439243477599 l -7.573285087062717 -1.621109756483228 a28.744846276879333,28.744846276879333 0 0,0 0.10773241651209454,-0.4829432990196955 l 7.544258283548585 1.7512312250528828" fill="#ff4b07" stroke="none" /><path d="M 79.54389044137918 95.25157060432595 l -7.498362000773109 -1.740577427092977 a28.69772969610805,28.69772969610805 0 0,0 0.11583934215291135,-0.48022885871709803 l 7.467289858359383 1.869391517469472" fill="#ff4a06" stroke="none" /><path d="M 79.62865764111835 94.90015583598534 l -8.51807751069018 -2.13244994444748 a29.780944553047803,29.780944553047803 0 0,0 0.12877233360874907,-0.4962123309353581 l 8.480108845211124 2.2787587009317023" fill="#ff5a08" stroke="none" /><path d="M 79.71946130924805 94.55025226153421 l -8.447220998125093 -2.2699211412882874 a29.746889994668564,29.746889994668564 0 0,0 0.13713773742814644,-0.49335740683729584 l 8.406896490130586 2.414989851544526" fill="#ff5908" stroke="none" /><path d="M 79.81627453868168 94.20196356495316 l -9.83315450266954 -2.824700929825226 a31.230829038564067,31.230829038564067 0 0,0 0.15287357397508786,-0.5154136939194829 l 9.783075031582745 2.9935440104912483" fill="#ff6e0a" stroke="none" /><path d="M 79.91906864156998 93.8553929516997 l -6.803677916269208 -2.0818719277740416 a28.115070197263194,28.115070197263194 0 0,0 0.14558855749639885,-0.4615555129245791 l 6.766833875004605 2.198677607125035" fill="#ff4206" stroke="none" /><path d="M 80.02781315780177 93.51064311812611 l -5.324467173743135 -1.7300242566946995 a26.598476097387596,26.598476097387596 0 0,0 0.1452311071844423,-0.43422252511724624 l 5.29389877278692 1.8214198847342677" fill="#ff2c04" stroke="none" /><path d="M 80.14247586403 93.16781622104843 l -7.148373436631282 -2.4594708134421133 a28.559645459392215,28.559645459392215 0 0,0 0.16394177491875442,-0.4634854743321584 l 7.104978580902718 2.5821539142008825" fill="#ff4806" stroke="none" /><path d="M 80.2630227832202 92.82701384747504 l -5.414778492696612 -1.9678865066572608 a26.76128487648836,26.76128487648836 0 0,0 0.1610716006756627,-0.4315918100492003 l 5.380102303519322 2.060801453735803" fill="#ff2e04" stroke="none" /><path d="M 80.38941819471856 92.48833698450439 l -7.35658199186484 -2.817874829897692 a28.877799004798295,28.877799004798295 0 0,0 0.1818014901740198,-0.4626649624564057 l 7.3069869518091295 2.944088797249861" fill="#ff4d07" stroke="none" /><path d="M 80.52162464483688 92.15188598940014 l -5.648019226740366 -2.275667144578814 a27.089234938688467,27.089234938688467 0 0,0 0.17798699716112643,-0.4310096314276406 l 5.60801054269304 2.372551346459766" fill="#ff3304" stroke="none" /><path d="M 80.65960295795068 91.81776055985345 l -7.874329060482495 -3.3313507299405942 a29.550026657188553,29.550026657188553 0 0,0 0.20221968357306802,-0.4667509104608684 l 7.815818667066746 3.4664007849880623" fill="#ff5608" stroke="none" /><path d="M 80.803312248108 91.48605970444005 l -10.220521933303619 -4.5329128990511185 a32.18062466678514,32.18062466678514 0 0,0 0.2289386078042721,-0.5044358753342683 l 10.140981008535995 4.708170783227458" fill="#ff7b0b" stroke="none" /><path d="M 80.95270993114464 91.15688171328213 l -6.308758995171349 -2.928978444441165 a27.95552692376044,27.95552692376044 0 0,0 0.2063940660173982,-0.43471854008187016 l 6.257406735312199 3.0371394001635674" fill="#ff3f06" stroke="none" /><path d="M 81.10775173730289 90.83032412892265 l -7.4035487738190815 -3.593439044821294 a29.2295406077839,29.2295406077839 0 0,0 0.2235920487910524,-0.4507479265910025 l 7.340596712074616 3.720346559911258" fill="#ff5207" stroke="none" /><line stroke="#e1ed5e" stroke-width="0.3" x1="26.266209847984243" x2="21.928928074336255" y1="57.711370442889674" y2="55.22380399835377" /><path d="M 25.398753493254645 57.213857153982495 a86.0,86.0 0 0,1 29.58750427330803,-30.492523968695096" fill="none" id="id35" stroke="none" /><text fill="#e1ed5e" style="font-size:6.75px; font-family:Arial;" text-anchor="middle"><textPath startOffset="21.46611528233685" xlink:href="#id35">November</textPath></text><path d="M 81.96595687620814 89.24020034530311 l -12.591700937975437 -7.512690220072378 a35.66258663586281,35.66258663586281 0 0,0 0.31906841052989104,-0.5244645735213875 l 12.460516729159329 7.72832256680084" fill="#ffab0f" stroke="none" /><path d="M 82.15384107792192 88.93136811851018 l -6.227285061933593 -3.8623171671059655 a28.327794561933537,28.327794561933537 0 0,0 0.26057848421805946,-0.41217258397463075 l 6.1598789814695705 3.9689373987948118" fill="#ff4506" stroke="none" /><path d="M 83.6137871275137 86.86637796730984 l -7.103992589733485 -5.693881455259933 a30.104229607250755,30.104229607250755 0 0,0 0.3275648504826337,-0.40155577498780964 l 7.004929247174458 5.815321399855825" fill="#ff5e08" stroke="none" /><path d="M 83.84228863543731 86.58626213691792 l -5.37860549133579 -4.465187086331192 a27.990514483739116,27.990514483739116 0 0,0 0.3109471405757744,-0.36806333666481733 l 5.3009477372728915 4.557109372625126" fill="#ff4006" stroke="none" /><path d="M 84.07557802195018 86.31012108654704 l -6.033210788067343 -5.186619976651418 a28.956171139150523,28.956171139150523 0 0,0 0.32818115860715463,-0.3751677961375315 l 5.9430377658823454 5.289703328991893" fill="#ff4e07" stroke="none" /><path d="M 84.31358615837235 86.03803664274999 l -6.410326751168081 -5.705621954859857 a29.58174871156922,29.58174871156922 0 0,0 0.3418190212647804,-0.3774451007122559 l 6.311164089287256 5.815119842841669" fill="#ff5708" stroke="none" /><path d="M 84.5562425177563 85.77008943001954 l -5.46686234848839 -5.037178446166666 a28.433690243468988,28.433690243468988 0 0,0 0.3347493992931122,-0.3570873194389987 l 5.379345627224821 5.130535182483714" fill="#ff4606" stroke="none" /><path d="M 84.80347519578584 85.50635884689758 l -4.949268041464897 -4.7203499410350656 a27.839368224631244,27.839368224631244 0 0,0 0.33372208847940743,-0.3439299471777873 l 4.867281689282372 4.804844083762976" fill="#ff3e05" stroke="none" /><path d="M 85.05521093208273 85.24692304244772 l -7.238010735265959 -7.145161361039518 a31.170650435400745,31.170650435400745 0 0,0 0.3802287965261344,-0.3785959732375376 l 7.113946138572511 7.268693184927165" fill="#ff6d0a" stroke="none" /><path d="M 85.31137513191541 84.99185889309783 l -6.2701398495004765 -6.406531888889112 a29.964279367336058,29.964279367336058 0 0,0 0.37172366039378335,-0.3575978667825456 l 6.158932945494266 6.513512842433971" fill="#ff5c08" stroke="none" /><path d="M 85.57189188830299 84.74124197986013 l -6.156689370836769 -6.511140101494284 a29.96101386173805,29.96101386173805 0 0,0 0.377782869719108,-0.35110800513941187 l 6.043698617322805 6.616152692708344" fill="#ff5c08" stroke="none" /><path d="M 85.83668400450813 84.49514656593479 l -3.8762229665998738 -4.243375562193076 a26.74728985249689,26.74728985249689 0 0,0 0.34260605151940166,-0.3075950958149243 l 3.8026059274845005 4.30946966677728" fill="#ff2e04" stroke="none" /><path d="M 86.10567301691215 84.25364557470407 l -5.415318262801587 -6.137146534383714 a29.184756531011196,29.184756531011196 0 0,0 0.37954942826682075,-0.3291415240508122 l 5.308875035887993 6.229453051854207" fill="#ff5107" stroke="none" /><path d="M 86.37877921826538 84.01681056812374 l -6.344627629096576 -7.444808868126475 a30.78158876843789,30.78158876843789 0 0,0 0.40623263464746007,-0.340208148892098 l 6.215537457490005 7.552918174412385" fill="#ff6809" stroke="none" /><path d="M 86.65592168130627 83.78471172551755 l -4.488241732347205 -5.453964807267167 a28.06328860849476,28.06328860849476 0 0,0 0.37564262156911643,-0.3037435424489398 l 4.393695712213588 5.530414446980241" fill="#ff4106" stroke="none" /><path d="M 86.93701828274178 83.55741782278169 l -5.569816755843577 -7.01081664984735 a29.954016349742314,29.954016349742314 0 0,0 0.4064723572332788,-0.31725812217826843 l 5.448311843450872 7.10565316124884" fill="#ff5c08" stroke="none" /><path d="M 87.22198572758235 83.33499621200491 l -6.66917196842129 -8.697891060932662 a31.960436289319354,31.960436289319354 0 0,0 0.4394618526714712,-0.33099355643247763 l 6.518463961991429 8.811401206870993" fill="#ff780b" stroke="none" /><path d="M 87.51073957382395 83.11751280151077 l -4.2761900423994 -5.780384200957763 a28.190176826017417,28.190176826017417 0 0,0 0.392588059313518,-0.28523192107836276 l 4.176056666732101 5.8531353568527935" fill="#ff4306" stroke="none" /><path d="M 87.80319425747018 82.90503203632743 l -6.278580492972359 -8.800019828998234 a31.810223031810914,31.810223031810914 0 0,0 0.44847697536275527,-0.3141867815170055 l 6.126172378025943 8.906791453279181" fill="#ff760a" stroke="none" /><path d="M 88.09926311788651 82.69761687909137 l -5.757380660624389 -8.370608219458592 a31.15945441620757,31.15945441620757 0 0,0 0.4445345841880576,-0.30015173560340636 l 5.612441382029792 8.468471867360664" fill="#ff6d0a" stroke="none" /><path d="M 88.39885842347998 82.49532879139004 l -5.537705042568472 -8.35570408145128 a31.02416918429003,31.02416918429003 0 0,0 0.4476831552612797,-0.29118557729905553 l 5.393054861522905 8.449788582909871" fill="#ff6b09" stroke="none" /><path d="M 88.70189139769569 82.29822771554957 l -6.178621769404827 -9.680607563946168 a32.48431668740004,32.48431668740004 0 0,0 0.47393202291876857,-0.2967761892731268 l 6.011070594113815 9.785528094542226" fill="#ff7f0b" stroke="none" /><path d="M 89.00827224532344 82.1063720568725 l -7.106678432109944 -11.569087464117779 a34.57750577572419,34.57750577572419 0 0,0 0.5098336877972638,-0.30716909232978684 l 6.906482678095031 11.689703165906185" fill="#ff9c0e" stroke="none" /><line stroke="#e1ed5e" stroke-width="0.3" x1="56.762969772571076" x2="54.21961505331055" y1="26.818313649435495" y2="22.513508569990535" /><path d="M 56.25429882871897 25.957352633546506 a86.0,86.0 0 0,1 42.265352541879196,-11.944610805530505" fill="none" id="id36" stroke="none" /><text fill="#e1ed5e" style="font-size:6.75px; font-family:Arial;" text-anchor="middle"><textPath startOffset="22.20632615414155" xlink:href="#id36">December</textPath></text><path d="M 89.3179101791058 81.91981866633112 l -4.350099311281157 -7.362846192660783 a29.551892660387416,29.551892660387416 0 0,0 0.440187075523967,-0.2549847662532275 l 4.222715503291869 7.436635116304057" fill="#ff5608" stroke="none" /><path d="M 89.63071344664047 81.73862282372117 l -3.8875610707537027 -6.846393784522343 a28.873133996801137,28.873133996801137 0 0,0 0.4343013096468785,-0.2416882086104384 l 3.769135672034779 6.912297390692966" fill="#ff4d07" stroke="none" /><path d="M 89.94658935756843 81.56283822128135 l -3.7776222013668477 -6.927861015794959 a28.890861027190333,28.890861027190333 0 0,0 0.4386663880277129,-0.23432039250533487 l 3.6578107668108295 6.991860134802043" fill="#ff4d07" stroke="none" /><path d="M 90.26544431104013 81.39251694778311 l -3.9317951736420036 -7.515577946850176 a29.481917540430068,29.481917540430068 0 0,0 0.45169037020982117,-0.23137335137063034 l 3.8018443158434185 7.582143823533312" fill="#ff5507" stroke="none" /><path d="M 90.58718382345135 81.22770947309562 l -3.1218532414224094 -6.226015140542974 a27.964856939754753,27.964856939754753 0 0,0 0.43216188528063365,-0.21205996024874493 l 3.0142200891313498 6.278830260926548" fill="#ff4006" stroke="none" /><path d="M 90.91171255644093 81.06846463323043 l -1.922398103731328 -4.004489065274121 a25.442020614892485,25.442020614892485 0 0,0 0.3964373092265407,-0.18613263232582342 l 1.853182583205179 4.036986680239952" fill="#ff1b02" stroke="none" /><path d="M 91.23893434514133 80.91482961587045 l -2.132463932385962 -4.645375242111859 a26.11144926248445,26.11144926248445 0 0,0 0.4100963275959489,-0.18399826817127968 l 2.0521854863232387 4.681393840799668" fill="#ff2503" stroke="none" /><path d="M 91.56875222667455 80.76684994638697 l -8.690088728157859 -19.823611520071466 a42.64470410520704,42.64470410520704 0 0,0 0.6748346580184105,-0.2889289823798175 l 8.347570312349141 19.97026003041407" fill="#f9ff18" stroke="none" /><path d="M 91.90106846888425 80.62456947434976 l -2.166863589851568 -5.18388318044543 a26.61853563177537,26.61853563177537 0 0,0 0.4242692020900793,-0.17307006029778518 l 2.077310518173108 5.2204141269267925" fill="#ff2c04" stroke="none" /><path d="M 92.23578459929587 80.48803036053334 l -2.8080946983042487 -7.056921487918889 a28.595099520170606,28.595099520170606 0 0,0 0.4589061874670081,-0.17804847120181416 l 2.686205345837564 7.104212663011255" fill="#ff4906" stroke="none" /><path d="M 92.91201910852362 80.23233633223022 l -4.076187340468736 -11.36807528503697 a33.07677270303892,33.07677270303892 0 0,0 0.5376046557645463,-0.18755970825212448 l 3.8799006806409038 11.436555846461305" fill="#ff880c" stroke="none" /><path d="M 93.25333710446033 80.11325718540243 l -2.6016376666890237 -7.668694875568671 a29.097987382264083,29.097987382264083 0 0,0 0.4757066145954709,-0.15683299158810837 l 2.4692482298511433 7.712341591416013" fill="#ff5007" stroke="none" /><path d="M 93.59665428221793 80.00007090966166 l -3.9079242248228843 -12.20583907719178 a33.81617647058823,33.81617647058823 0 0,0 0.5558970836496353,-0.17271992985828655 l 3.6972417684625203 12.271299141932591" fill="#ff920d" stroke="none" /><path d="M 93.94186890950719 79.89281104454417 l -1.838325721879592 -6.101479499100907 a27.37240092411587,27.37240092411587 0 0,0 0.45230908976498424,-0.13204142643429953 l 1.7330264143911867 6.132219254453905" fill="#ff3705" stroke="none" /><path d="M 94.28887869178378 79.79150937346287 l -1.2707168789562318 -4.496362229327256 a25.672472009952017,25.672472009952017 0 0,0 0.4262878656531034,-0.11652057680041053 l 1.193131124079406 4.517569346953963" fill="#ff1e03" stroke="none" /><path d="M 94.63758080256005 79.69619591428918 l -1.9291891528021148 -7.304516331261925 a28.55498045139506,28.55498045139506 0 0,0 0.4763121826617759,-0.1214225808936315 l 1.8031680814553395 7.336641908324419" fill="#ff4806" stroke="none" /><path d="M 94.98787191387505 79.60689891045804 l -1.7162107321736708 -6.982834107743908 a28.19064332681713,28.19064332681713 0 0,0 0.4722285986505702,-0.11176125220648585 l 1.5957584465605665 7.011341272091264" fill="#ff4306" stroke="none" /><path d="M 95.33964822691252 79.52364482259891 l -1.621743613946495 -7.125513236493425 a28.30773502754576,28.30773502754576 0 0,0 0.47605155179581027,-0.10404643064787233 l 1.4988493379971637 7.152373165237165" fill="#ff4506" stroke="none" /><path d="M 95.692805502759 79.44645832069477 l -1.245580637219731 -5.943797884778644 a27.07290741069842,27.07290741069842 0 0,0 0.456930846654172,-0.09165602925660114 l 1.1430833810984227 5.9643578701124556" fill="#ff3304" stroke="none" /><path d="M 96.04723909329186 79.375362276772 l -3.8452840240484023 -20.063846969424226 a41.429003021148034,41.429003021148034 0 0,0 0.7015407429601531,-0.1282020866403905 l 3.499348159985356 20.12706453741535" fill="#fff517" stroke="none" /><path d="M 96.40284397218896 79.31037775812273 l -1.4561705681268984 -8.375399549354217 a29.50104407321841,29.50104407321841 0 0,0 0.5010552766345968,-0.08267841385198436 l 1.311786085353416 8.39922422614583" fill="#ff5607" stroke="none" /><path d="M 96.75951476605007 79.25152402106235 l -0.7287060605845708 -4.665825980424422 a25.722387595521592,25.722387595521592 0 0,0 0.43805350959980305,-0.06455770032540281 l 0.648283570556119 4.677678164910795" fill="#ff1f03" stroke="none" /><path d="M 97.11714578562143 79.19881850522333 l -1.0457839283988366 -7.545834676774995 a28.617958059356674,28.617958059356674 0 0,0 0.4885293554504389,-0.06342513122385085 l 0.9157398444405399 7.562718131162983" fill="#ff4906" stroke="none" /><path d="M 97.47563105711357 79.15227682838746 l -1.2850078711178794 -10.612350641494166 a31.689865825484272,31.689865825484272 0 0,0 0.5420978555154022,-0.060911010413825614 l 1.102143312092759 10.63289760537859" fill="#ff740a" stroke="none" /><path d="M 97.83486435360386 79.11191278185805 l -0.7135193556576951 -6.883658563202767 a27.920539363781767,27.920539363781767 0 0,0 0.47847145500538174,-0.04543662998093854 l 0.594922773562077 6.894920737698886" fill="#ff3f05" stroke="none" /><path d="M 98.19473922651362 79.07773832637324 l -0.6797398727251233 -7.877917526390029 a28.90718855518038,28.90718855518038 0 0,0 0.49611592158285056,-0.03850814384285036 l 0.5440337617799386 7.8884509324213425" fill="#ff4d07" stroke="none" /><path d="M 98.55514903715128 79.0497635885617 l -0.4600054202849605 -6.670045944747061 a27.68588946152479,27.68588946152479 0 0,0 0.47571998234996565,-0.02869672847026779 l 0.3451233890953718 6.676975942597635" fill="#ff3c05" stroke="none" /><path d="M 98.91598698831166 79.02799685794201 l -0.2762046659868766 -5.3436306210992806 a26.350764172738582,26.350764172738582 0 0,0 0.4531819073586422,-0.019514966224330597 l 0.18418192623891022 5.347593313847804" fill="#ff2803" stroke="none" /><path d="M 99.27714615592234 79.0124445844662 l -0.16189382566178664 -4.7004739137065 a25.70326106273325,25.70326106273325 0 0,0 0.44230828270020783,-0.011423518005603973 l 0.0809589077666998 4.702564223854464" fill="#ff1f03" stroke="none" /></svg>