<?xml version="1.0" encoding="utf-8" ?>
<svg baseProfile="full" height="200mm" version="1.1" viewBox="0,0,200,200" width="200mm" xmlns="http://www.w3.org/2000/svg" xmlns:ev="http://www.w3.org/2001/xml-events" xmlns:xlink="http://www.w3.org/1999/xlink"><defs /><rect fill="#1a1a1a" height="200" width="200" x="0" y="0" /><text alignment-baseline="middle" fill="#e1ed5e" style="dominant-baseline: central; font-size:9.0px; font-family:Arial;" text-anchor="middle" x="100.0" y="100.0">2018</text><line stroke="#e1ed5e" stroke-width="0.3" x1="100.0" x2="100.0" y1="15.0" y2="10.0" /><path d="M 100.0 14.0 a86.0,86.0 0 0,1 42.46469731375804,11.215312516191453" fill="none" id="id13" stroke="none" /><text fill="#e1ed5e" style="font-size:6.75px; font-family:Arial;" text-anchor="middle"><textPath startOffset="22.20632615414155" xlink:href="#id13">January</textPath></text><path d="M 100.0 79.0 l 0.0 -7.383112076197996 a28.383112076197996,28.383112076197996 0 0,0 0.48856861697856857,0.004205264332951771 l -0.12708813770604016 7.382018188473603" fill="#ff5908" stroke="none" /><path d="M 100.36148047927253 79.00311137660856 l 0.10979280509711178 -6.377404680089949 a27.378349701426245,27.378349701426245 0 0,0 0.4711336359245709,0.012167991836313188 l -0.21955307621655046 6.374569896111276" fill="#ff4b06" stroke="none" /><path d="M 100.72285384407766 79.0124445844662 l 0.22998759970234806 -6.677528982082931 a27.68148842718255,27.68148842718255 0 0,0 0.47606777707550485,0.02050047991604194 l -0.34489620916718444 6.672580775642695" fill="#ff4f07" stroke="none" /><path d="M 101.08401301168833 79.027996857942 l 0.23041228057748772 -4.457702094104713 a25.463652963529587,25.463652963529587 0 0,0 0.43753582687710285,0.026393355935741436 l -0.3071101562942025 4.453075468788668" fill="#ff3004" stroke="none" /><path d="M 101.44485096284872 79.0497635885617 l 0.4599521855527636 -6.669274044908589 a27.685115728174505,27.685115728174505 0 0,0 0.4751422531939545,0.03688018351322376 l -0.5746846281090593 6.660368599206901" fill="#ff4f07" stroke="none" /><path d="M 101.80526077348638 79.07773832637324 l 1.068964190429664 -12.388874139614604 a33.43490598628041,33.43490598628041 0 0,0 0.5729705972648713,0.054410462203206736 l -1.2820599147847795 12.36863813289622" fill="#ff9d0e" stroke="none" /><path d="M 102.16513564639614 79.11191278185805 l 1.2488290414674423 -12.048044187042093 a33.11259438385234,33.11259438385234 0 0,0 0.5664355445646015,0.06364563335328274 l -1.4560312895417693 12.024762600218208" fill="#ff990e" stroke="none" /><path d="M 102.52436894288641 79.15227682838746 l 0.8537482290677859 -7.050754917586773 a28.10225534224942,28.10225534224942 0 0,0 0.4797259350432436,0.062282194595137404 l -0.9749888926188757 7.0350143998274985" fill="#ff5507" stroke="none" /><path d="M 102.88285421437855 79.19881850522331 l 1.0430659661805468 -7.526223270441458 a28.598159206435376,28.598159206435376 0 0,0 0.48702803975529085,0.07177527300104339 l -1.1724629863644933 7.507153513279445" fill="#ff5c08" stroke="none" /><path d="M 103.2404852339499 79.25152402106235 l 1.222038588324937 -7.824580723143269 a28.91943443715146,28.91943443715146 0 0,0 0.49117703041493155,0.08104841858566074 l -1.3565448248787437 7.802386041617983" fill="#ff6008" stroke="none" /><path d="M 103.59715602781102 79.31037775812273 l 1.593360999240877 -9.164472409414671 a30.301954300942604,30.301954300942604 0 0,0 0.5131201328348632,0.09376942449422254 l -1.7508762531786413 9.13568750356971" fill="#ff730a" stroke="none" /><path d="M 103.95276090670814 79.375362276772 l 1.1270333187833104 -5.8806121722326345 a26.98763756600701,26.98763756600701 0 0,0 0.4554916801199883,0.09136734598881985 l -1.2280914083704242 5.860340870166606" fill="#ff4506" stroke="none" /><path d="M 104.307194497241 79.44645832069477 l 2.0925912366426025 -9.985655680892279 a31.202561318659626,31.202561318659626 0 0,0 0.5247338835585874,0.1146865027922113 l -2.264167844354718 9.948155680004197" fill="#ff7f0b" stroke="none" /><path d="M 104.66035177308747 79.52364482259891 l 1.843740314314551 -8.10090812217519 a29.30807382914672,29.30807382914672 0 0,0 0.4909469597070185,0.11619128350255664 l -1.9829109609840931 8.067970926531764" fill="#ff6509" stroke="none" /><path d="M 105.01212808612495 79.60689891045804 l 1.7675895624265363 -7.191881773965693 a28.405912253861718,28.405912253861718 0 0,0 0.47382564625337553,0.12078870739809017 l -1.8911240973649368 7.160390070398735" fill="#ff5908" stroke="none" /><path d="M 105.36241919743992 79.69619591428918 l 1.983086821103296 -7.508589839425261 a28.766051423777327,28.766051423777327 0 0,0 0.477656326198592,0.1305615175223304 l -2.1120410365255986 7.473341781076637" fill="#ff5e08" stroke="none" /><path d="M 105.71112130821622 79.79150937346287 l 3.5739956447137993 -12.64638826382095 a34.141711493855794,34.141711493855794 0 0,0 0.5641670415253555,0.1646958299001476 l -3.791152903962582 12.5829941050021" fill="#ffa60f" stroke="none" /><path d="M 106.0581310904928 79.89281104454417 l 2.2052398422481767 -7.319282719017034 a28.644277747618812,28.644277747618812 0 0,0 0.47087731745785216,0.14630387464748623 l -2.330902532416747 7.280238709487026" fill="#ff5c08" stroke="none" /><path d="M 106.40334571778207 80.00007090966166 l 2.031797428440005 -6.346026949925005 a27.66335192222277,27.66335192222277 0 0,0 0.4522525671072532,0.1491005608848807 l -2.1407328177896754 6.310112664780888" fill="#ff4f07" stroke="none" /><path d="M 106.74666289553966 80.11325718540242 l 2.8249549097964857 -8.326954025092691 a29.79309579035681,29.79309579035681 0 0,0 0.4842342737102621,0.16893982990830408 l -2.9678711875700214 8.27709334201218" fill="#ff6c09" stroke="none" /><path d="M 107.08798089147638 80.2323363322302 l 2.9575521116040453 -8.248314480135889 a29.76252282485318,29.76252282485318 0 0,0 0.48076065579939536,0.1770682068369919 l -3.0990950931760173 8.196183005492573" fill="#ff6c09" stroke="none" /><path d="M 107.4271985657038 80.35727306442388 l 1.9824312018264334 -5.242939773531235 a26.60521640428367,26.60521640428367 0 0,0 0.426971706050982,0.1656583885443334 l -2.0723860728770824 5.208038681096355" fill="#ff4006" stroke="none" /><path d="M 107.76421540070413 80.48803036053334 l 2.8569308605660577 -7.179649885597562 a28.7271874845778,28.7271874845778 0 0,0 0.45787871583079937,0.1867802248372583 l -2.9800934459852444 7.129408774576724" fill="#ff5d08" stroke="none" /><path d="M 108.09893153111575 80.62456947434976 l 3.082614096319904 -7.374673440708556 a28.99301682870256,28.99301682870256 0 0,0 0.45880240013507556,0.19643524381764524 l -3.2091002542452944 7.320518668928121" fill="#ff6109" stroke="none" /><path d="M 108.76106565485865 80.91482961587045 l 3.679448685922476 -8.015338299804696 a29.819523269012485,29.819523269012485 0 0,0 0.46464751153712025,0.21815823690959857 l -3.8168744087591944 7.9508150802550945" fill="#ff6c0a" stroke="none" /><path d="M 109.08828744355905 81.06846463323043 l 3.7372627509971794 -7.78497845549067 a29.63556729013473,29.63556729013473 0 0,0 0.45798062400450074,0.224729103210996 l -3.870714642012112 7.7194941921448414" fill="#ff6a09" stroke="none" /><path d="M 109.41281617654863 81.2277094730956 l 2.416496557785418 -4.819298984402933 a26.391205645758276,26.391205645758276 0 0,0 0.4043377922100547,0.20711752173504286 l -2.499094837584228 4.77698893735539" fill="#ff3d05" stroke="none" /><path d="M 109.73455568895987 81.39251694778311 l 4.261720550597788 -8.146226232848843 a30.193653457039925,30.193653457039925 0 0,0 0.4584474270564173,0.2448867384937026 l -4.4013130241825165 8.071660767853386" fill="#ff710a" stroke="none" /><path d="M 110.05341064243156 81.56283822128135 l 5.191922008968317 -9.52157525703999 a31.84511178009179,31.84511178009179 0 0,0 0.47900493772092195,0.2665657292340508 l -5.355051035761274 9.430794130245758" fill="#ff880c" stroke="none" /><path d="M 110.36928655335952 81.73862282372117 l 4.299853440487756 -7.572482935581252 a29.708113309973847,29.708113309973847 0 0,0 0.4425140436023852,0.25633269635964745 l -4.42956421655547 7.497346081831556" fill="#ff6b09" stroke="none" /><line stroke="#e1ed5e" stroke-width="0.3" x1="143.23703022742887" x2="145.7803849466894" y1="26.81831364943548" y2="22.513508569990506" /><path d="M 143.74570117128098 25.957352633546492 a86.0,86.0 0 0,1 28.547481713284135,27.462654790039103" fill="none" id="id14" stroke="none" /><text fill="#e1ed5e" style="font-size:6.75px; font-family:Arial;" text-anchor="middle"><textPath startOffset="19.985693538727396" xlink:href="#id14">February</textPath></text><path d="M 110.68208982089419 81.91981866633111 l 2.2404817519024984 -3.792171478462851 a25.404579775946306,25.404579775946306 0 0,0 0.3745819804968194,0.2256814520229473 l -2.3054257986169553 3.753043416981289" fill="#ff2f04" stroke="none" /><path d="M 110.99172775467656 82.1063720568725 l 4.413398658246481 -7.18464970366112 a29.43192024872921,29.43192024872921 0 0,0 0.4293988891960764,0.26888954502145324 l -4.53641669981482 7.107615817316723" fill="#ff6709" stroke="none" /><path d="M 111.2981086023043 82.29822771554956 l 6.346578550349336 -9.94376069820644 a32.79650101169619,32.79650101169619 0 0,0 0.4732581545449125,0.30782026824802133 l -6.516803730678529 9.83304150579889" fill="#ff940d" stroke="none" /><path d="M 111.60114157652 82.49532879139004 l 7.390768228361884 -11.151744590235705 a34.37852243004491,34.37852243004491 0 0,0 0.4904592349181362,0.33116026477957433 l -7.5816321576865615 11.02287241315746" fill="#ffa90f" stroke="none" /><path d="M 111.90073688211348 82.69761687909136 l 4.498529050414456 -6.540374254286124 a28.93808912796723,28.93808912796723 0 0,0 0.4079841462259047,0.28581896698040804 l -4.610444336224012 6.461970444541779" fill="#ff6008" stroke="none" /><path d="M 112.19680574252982 82.90503203632743 l 5.2367472713818 -7.3397927890219306 a30.016433894290085,30.016433894290085 0 0,0 0.4180212704162867,0.3037102305682597 l -5.362313858151876 7.248563323636996" fill="#ff6f0a" stroke="none" /><path d="M 112.48926042617603 83.11751280151076 l 3.745298868857456 -5.062746555871287 a27.29751270789123,27.29751270789123 0 0,0 0.37534579939204815,0.2827026743676027 l -3.8318908220078876 4.997527291997837" fill="#ff4a06" stroke="none" /><path d="M 112.77801427241765 83.33499621200491 l 5.118962190018767 -6.676117467751577 a29.412747372057446,29.412747372057446 0 0,0 0.39912740306459005,0.3115252689458762 l -5.233122148242787 6.587013809582476" fill="#ff6709" stroke="none" /><path d="M 113.06298171725822 83.55741782278167 l 4.286421824904995 -5.395387104393458 a27.890835513004,27.890835513004 0 0,0 0.3733342416143915,0.3018769930626138 l -4.378659465083878 5.320804014066715" fill="#ff5207" stroke="none" /><path d="M 113.34407831869373 83.78471172551755 l 7.9413828379375015 -9.650109130039175 a33.497606474855644,33.497606474855644 0 0,0 0.4420766268769386,0.3702264615662523 l -8.106317001773558 9.511981511079103" fill="#ff9e0e" stroke="none" /><path d="M 113.6212207817346 84.01681056812373 l 6.503069133025742 -7.630724698414402 a31.02585994176578,31.02585994176578 0 0,0 0.4034930834482466,0.34990522587945033 l -6.633456015120753 7.51765447911528" fill="#ff7d0b" stroke="none" /><path d="M 113.89432698308785 84.25364557470407 l 6.593342600102708 -7.472194195155362 a30.96523219661452,30.96523219661452 0 0,0 0.3966336774965806,0.35610163186529864 l -6.720987265195278 7.357593554520766" fill="#ff7c0b" stroke="none" /><path d="M 114.16331599549186 84.49514656593476 l 6.515488824555955 -7.13263047355471 a30.66053891329023,30.66053891329023 0 0,0 0.38660328489716994,0.35930561976384534 l -6.637299993247971 7.019420267716224" fill="#ff780b" stroke="none" /><path d="M 114.42810811169701 84.74124197986012 l 1.458618144737272 -1.5425931897673868 a23.12300745200612,23.12300745200612 0 0,0 0.28685385234869126,0.2759531786854316 l -1.4849552406983813 1.5172569243196532" fill="#ff0e01" stroke="none" /><path d="M 114.68862486808459 84.99185889309783 l 9.804256592846277 -10.017524970184672 a35.01692740462913,35.01692740462913 0 0,0 0.42714681853360836,0.42531251434801315 l -9.975239211547208 9.84727660518654" fill="#ffb210" stroke="none" /><path d="M 114.94478906791727 85.2469230424477 l 5.756505881414119 -5.6826612867638415 a29.088881212061395,29.088881212061395 0 0,0 0.348700520474813,0.35936653799039586 l -5.853470665592042 5.582730553223331" fill="#ff6209" stroke="none" /><path d="M 115.19652480421416 85.50635884689758 l 6.576811146945471 -6.272614424918898 a30.08846172827321,30.08846172827321 0 0,0 0.35423099861286755,0.37786893127808685 l -6.683809467528802 6.158476076762756" fill="#ff700a" stroke="none" /><path d="M 115.4437574822437 85.77008943001954 l 6.227272393459613 -5.737821858166384 a29.467675072792776,29.467675072792776 0 0,0 0.34050089298445196,0.3759895905429244 l -6.3251169270601 5.62977948035391" fill="#ff6809" stroke="none" /><path d="M 115.68641384162765 86.03803664274999 l 8.744693814095942 -7.783365645930821 a32.70685485860929,32.70685485860929 0 0,0 0.3706903606251142,0.4237631625026487 l -8.877376038298905 7.631686927225224" fill="#ff930d" stroke="none" /><path d="M 116.15771136456269 86.58626213691792 l 9.072415784943594 -7.531698294290887 a32.79131915313626,32.79131915313626 0 0,0 0.35680313682358905,0.43739845686793094 l -9.200717413843591 7.374415667814856" fill="#ff940d" stroke="none" /><path d="M 116.38621287248628 86.86637796730983 l 4.9410137023585445 -3.960244318202484 a27.332231160242806,27.332231160242806 0 0,0 0.291082950821467,0.36964578760679656 l -5.008450733773976 3.874606136642649" fill="#ff4a06" stroke="none" /><path d="M 116.60985879189232 87.15038557335679 l 6.6421401466072885 -5.13845065879139 a29.397719982233628,29.397719982233628 0 0,0 0.30618993631756386,0.402910065013009 l -6.729606023148966 5.023355817897348" fill="#ff6709" stroke="none" /><path d="M 116.82858285166822 87.43820079747576 l 6.537343429744179 -4.879840222211399 a29.157799930908553,29.157799930908553 0 0,0 0.29676723724203613,0.4047901780844081 l -6.620373279499842 4.766587600455497" fill="#ff6309" stroke="none" /><path d="M 117.04232023915458 87.72973835380427 l 10.127997844341877 -7.292034286309483 a33.47998815575186,33.47998815575186 0 0,0 0.33270719129623266,0.4705907272753996 l -10.252017655441993 7.11661705870229" fill="#ff9d0e" stroke="none" /><path d="M 117.2510076193507 88.02491185347247 l 6.888313805861249 -4.781643300279042 a29.38528352168978,29.38528352168978 0 0,0 0.28486308544779815,0.4180014276361297 l -6.969601356977781 4.662363849372507" fill="#ff6609" stroke="none" /><path d="M 117.45458315368197 88.32363383020206 l 6.461374339227577 -4.322381811165884 a28.77382421161723,28.77382421161723 0 0,0 0.27184873986687913,0.4140442812872654 l -6.5348197144523805 4.210519465900944" fill="#ff5e08" stroke="none" /><path d="M 117.65298651832404 88.62581576622439 l 6.859339157677753 -4.419614053429021 a29.159872674332526,29.159872674332526 0 0,0 0.26823250941250887,0.42427941371412115 l -6.934399263336218 4.300886992000694" fill="#ff6309" stroke="none" /><line stroke="#e1ed5e" stroke-width="0.3" x1="172.23445277983987" x2="176.4835382374775" y1="55.19839476539836" y2="52.563006222186495" /><path d="M 173.08426987136738 54.67131705675599 a86.0,86.0 0 0,1 12.851231095245387,41.99856678651699" fill="none" id="id15" stroke="none" /><text fill="#e1ed5e" style="font-size:6.75px; font-family:Arial;" text-anchor="middle"><textPath startOffset="22.20632615414155" xlink:href="#id15">March</textPath></text><path d="M 117.84615892207809 88.93136811851018 l 6.755171442152639 -4.189725437054084 a28.9489710309431,28.9489710309431 0 0,0 0.2590025863135225,0.4257321517547547 l -6.826289826752385 4.072825512092248" fill="#ff6008" stroke="none" /><path d="M 118.03404312379186 89.2402003453031 l 5.712456486702762 -3.408269954284758 a27.65195183339091,27.65195183339091 0 0,0 0.24036172805704792,0.41085610764840064 l -5.770277889230138 3.309434434282462" fill="#ff4e07" stroke="none" /><path d="M 118.21658344932153 89.55222093294921 l 8.467299571506436 -4.856260531166062 a30.76106696935301,30.76106696935301 0 0,0 0.25948037901488674,0.461586640668727 l -8.549637591813754 4.709790380562541" fill="#ff790b" stroke="none" /><path d="M 118.3937258080291 89.86733742301442 l 13.370240706038622 -7.36534506718752 a36.264718945861915,36.264718945861915 0 0,0 0.29649326319634206,0.5493569871801117 l -13.49504206845343 7.134107096674949" fill="#ffc212" stroke="none" /><path d="M 118.56541770881063 90.18545643968196 l 7.56570777922834 -3.9995851280326846 a29.557839411735678,29.557839411735678 0 0,0 0.23391590887612407,0.4518510820102569 l -7.633433121264581 3.868761323762083" fill="#ff6909" stroke="none" /><path d="M 118.73160827565052 90.50648371742162 l 6.65816555324349 -3.37447816341464 a28.464467255589003,28.464467255589003 0 0,0 0.21773960243933124,0.4389497518670529 l -6.715265168636229 3.2593688230486375" fill="#ff5a08" stroke="none" /><path d="M 118.89224826269711 90.83032412892265 l 7.210344072426001 -3.4996638379794005 a29.014780634654294,29.014780634654294 0 0,0 0.21421447594676368,0.4511903178463017 l -7.269516742214521 3.3750311044925585" fill="#ff6109" stroke="none" /><path d="M 119.04729006885535 91.15688171328212 l 7.808608725360579 -3.6253162714191105 a29.60913981147905,29.60913981147905 0 0,0 0.21064461354968053,0.4641274839551037 l -7.869855655873607 3.490366778621944" fill="#ff6a09" stroke="none" /><path d="M 119.196687751892 91.48605970444005 l 6.9442689247085045 -3.079858972830005 a28.596604648867395,28.596604648867395 0 0,0 0.19569513119039186,0.45169134399752603 l -6.996254765741577 2.9598684842458765" fill="#ff5c08" stroke="none" /><path d="M 119.34039704204932 91.81776055985345 l 11.225027854366141 -4.748913139014137 a33.18824951882742,33.18824951882742 0 0,0 0.21805993732417991,0.5280494345895794 l -11.305109478576517 4.5549891339712545" fill="#ff9a0e" stroke="none" /><path d="M 119.47837535516314 92.15188598940014 l 12.85036380337663 -5.177594043019236 a34.85421704584711,34.85421704584711 0 0,0 0.21942630034686533,0.558416000412075 l -12.937583653605197 4.955629037711376" fill="#ffaf10" stroke="none" /><path d="M 119.61058180528143 92.48833698450437 l 6.6962254113774975 -2.564930977851962 a28.170655875240588,28.170655875240588 0 0,0 0.16955436388238773,0.4543213980786983 l -6.73938436376151 2.4492864427439303" fill="#ff5607" stroke="none" /><path d="M 119.85752413597 93.16781622104841 l 7.4851586315224194 -2.575345195856101 a28.9158071361595,28.9158071361595 0 0,0 0.1578840332859815,0.4720531636660177 l -7.528379958580171 2.446118929267769" fill="#ff6008" stroke="none" /><path d="M 119.97218684219823 93.5106431181261 l 7.792040817302378 -2.5317875353922963 a29.193036569116124,29.193036569116124 0 0,0 0.15117060185931425,0.47925211898620207 l -7.834466902929899 2.397285249979675" fill="#ff6409" stroke="none" /><path d="M 120.08093135843002 93.85539295169968 l 13.759248432139485 -4.2102217963086215 a35.38898484923259,35.38898484923259 0 0,0 0.173227569033544,0.5840372467436334 l -13.829681898284731 3.9727551628184576" fill="#ffb610" stroke="none" /><path d="M 120.18372546131832 94.20196356495316 l 8.713775370656498 -2.5031447827957263 a30.06617973646548,30.06617973646548 0 0,0 0.1386097122390189,0.4986528834088134 l -8.75557185346188 2.352780595967961" fill="#ff700a" stroke="none" /><path d="M 120.28053869075195 94.5502522615342 l 15.76663504887803 -4.236780147266037 a37.32596357893698,37.32596357893698 0 0,0 0.16139687664014107,0.6219280036239749 l -15.837228257388473 3.9647557180932114" fill="#ffcf13" stroke="none" /><path d="M 120.37134235888165 94.90015583598534 l 6.819770068177156 -1.707288796653673 a28.0302275082663,28.0302275082663 0 0,0 0.11314494732989919,0.46905885268340686 l -6.848147815767875 1.58964471231086" fill="#ff5407" stroke="none" /><path d="M 120.45610955862082 95.25157060432595 l 6.028914093869792 -1.3994778833818018 a27.18921186398855,27.18921186398855 0 0,0 0.1019020755565091,0.4568070237307752 l -6.052110556428339 1.2954926901010626" fill="#ff4806" stroke="none" /><path d="M 120.53481517161879 95.60439243477599 l 6.522334819352443 -1.3961471790841324 a27.670088338350688,27.670088338350688 0 0,0 0.09568672843929811,0.4666024703199461 l -6.545400843706737 1.2836690526007746" fill="#ff4f07" stroke="none" /><path d="M 120.6074358757038 95.95851677861258 l 6.326746216392108 -1.2407870068721902 a27.447268420273403,27.447268420273403 0 0,0 0.08693500902982217,0.46441029445203014 l -6.347166949331789 1.1316986349575975" fill="#ff4c07" stroke="none" /><path d="M 120.67395015179393 96.31383870115 l 5.907936058528492 -1.0533838523906078 a27.001110398262846,27.001110398262846 0 0,0 0.07764508542085918,0.45826568939018497 l -5.925193005469574 0.9515323746845851" fill="#ff4506" stroke="none" /><path d="M 120.78858239683441 97.02765380044208 l 21.810416679381277 -3.11844780419492 a43.03222622513942,43.03222622513942 0 0,0 0.09853150506442904,0.7341741598376847 l -21.860864183503544 2.742555302292571" fill="#e9ff1a" stroke="none" /><path d="M 120.87857604477298 97.74499172005257 l 7.212655199793264 -0.7790089305449345 a28.254601983911563,28.254601983911563 0 0,0 0.04806359978904405,0.4839938906580955 l -7.224995925264538 0.654739509182404" fill="#ff5708" stroke="none" /><path d="M 120.91429891909075 98.10471618934814 l 6.386896397933851 -0.5787897261172451 a27.41306815377782,27.41306815377782 0 0,0 0.038542142253888585,0.47031175916386064 l -6.395913024007235 0.4687640497456157" fill="#ff4b07" stroke="none" /><path d="M 120.94382443527127 98.46500227214037 l 8.994381889933898 -0.659208914170386 a30.01850663771406,30.01850663771406 0 0,0 0.03333399208197724,0.5156621035340687 l -9.004396473020291 0.504287746383282" fill="#ff6f0a" stroke="none" /><path d="M 120.96714384426684 98.82574320788733 l 6.84383799960425 -0.3832865036289388 a27.854562503084438,27.854562503084438 0 0,0 0.0226900504124915,0.4789511023685355 l -6.849421658250237 0.2654242946374036" fill="#ff5107" stroke="none" /><path d="M 120.98425023603335 99.18683210126433 l 4.425612860074449 -0.17149844619488125 a25.42893451117801,25.42893451117801 0 0,0 0.013184667077385625,0.43753491228872876 l -4.42790922160748 0.09529338648115344" fill="#ff2f04" stroke="none" /><line stroke="#e1ed5e" stroke-width="0.3" x1="184.98032266829074" x2="189.97916517819016" y1="98.17113171792111" y2="98.06355123074" /><path d="M 185.9800911702706 98.14961562048488 a86.0,86.0 0 0,1 -9.607161424134198,41.387399972396054" fill="none" id="id16" stroke="none" /><text fill="#e1ed5e" style="font-size:6.75px; font-family:Arial;" text-anchor="middle"><textPath startOffset="21.466115282336823" xlink:href="#id16">April</textPath></text><path d="M 120.99513854157772 99.54816195383933 l 10.22869307024898 -0.22013251698653244 a31.231061540739276,31.231061540739276 0 0,0 0.00694072104365799,0.5375664937742661 l -10.230966798410353 0.04402976515180357" fill="#ff800b" stroke="none" /><path d="M 120.99824983174949 100.27111621757518 l 6.0861037981476 0.07857995093614288 a27.086611064501803,27.086611064501803 0 0,0 -0.010032283949298976,0.4661608140211005 l -6.083849451513293 -0.1833305807473582" fill="#ff4706" stroke="none" /><path d="M 120.9904718944345 100.63252640178507 l 6.752005912644925 0.2034647923227108 a27.755070818733653,27.755070818733653 0 0,0 -0.018500561620289555,0.47741729002210437 l -6.747503218173432 -0.31965932935882135" fill="#ff5007" stroke="none" /><path d="M 120.9764740272857 100.99374915477107 l 8.280132631261154 0.3922668220123554 a29.28941913833095,29.28941913833095 0 0,0 -0.028192668627157413,0.5033990371014377 l -8.272153611746466 -0.5347375754492165" fill="#ff6509" stroke="none" /><path d="M 120.95626037817324 101.35467743843564 l 6.242510370757227 0.40353516351959384 a27.255539653555743,27.255539653555743 0 0,0 -0.034294531100359446,0.46792162973258844 l -6.234639280992529 -0.5109299297489526" fill="#ff4906" stroke="none" /><path d="M 120.92983693683757 101.71520430193887 l 10.54083728670125 0.863823713235265 a31.57617332083107,31.57617332083107 0 0,0 -0.04905644774367411,0.5413338130435845 l -10.5244062426805 -1.04513891482742" fill="#ff840c" stroke="none" /><path d="M 120.89721153311464 102.0752229133903 l 8.968176059416916 0.8905955907240807 a30.012288407442135,30.012288407442135 0 0,0 -0.05547656965064593,0.5136441353471018 l -8.951517188265218 -1.044836047955974" fill="#ff6f0a" stroke="none" /><path d="M 120.8583938346157 102.4346265915055 l 7.396119019973045 0.8632873740298613 a28.446330750629226,28.446330750629226 0 0,0 -0.06095437863063281,0.48586637123424886 l -7.380163132095564 -0.9904714995515052" fill="#ff5a08" stroke="none" /><path d="M 120.81339534386255 102.79330883721812 l 7.816707228287716 1.0490588881819003 a28.886788728223856,28.886788728223856 0 0,0 -0.07038190277916749,0.49225086411143715 l -7.7974912744919465 -1.1834552242737466" fill="#ff6008" stroke="none" /><path d="M 120.76222939487914 103.15116336523771 l 8.190952069420318 1.2431722815826978 a29.284755465627004,29.284755465627004 0 0,0 -0.07993099082135285,0.4977303561446532 l -8.168339324237676 -1.383981867420556" fill="#ff6509" stroke="none" /><path d="M 120.70491114924044 103.5080841355445 l 7.980837414555714 1.3522129566535217 a29.094581256477323,29.094581256477323 0 0,0 -0.08791212806547824,0.49305790116424 l -7.956378844151047 -1.4893896085509801" fill="#ff6209" stroke="none" /><path d="M 120.64145759157962 103.86396538481128 l 6.370807668052064 1.192579554686362 a27.481468686768988,27.481468686768988 0 0,0 -0.09104226754598602,0.46422256079254326 l -6.349335467530414 -1.30206584254685" fill="#ff4c07" stroke="none" /><path d="M 120.5718875245553 104.21870165774334 l 7.670167805755083 1.5729305149410704 a28.829788284064552,28.829788284064552 0 0,0 -0.10387779256593013,0.4852824641702122 l -7.641955974464709 -1.7047267985274517" fill="#ff5f08" stroke="none" /><path d="M 120.49622156327973 104.57218783832717 l 18.718998975968752 4.175734498153411 a40.1790949020382,40.1790949020382 0 0,0 -0.1563912608912006,0.6737294587797211 l -18.644347149147 -4.497332614281698" fill="#fff316" stroke="none" /><path d="M 120.41448212921028 104.9243191809786 l 6.9188400544021915 1.6689415178093343 a28.117282732073235,28.117282732073235 0 0,0 -0.11754187126870903,0.4695213469490672 l -6.889086868838422 -1.7877907041557974" fill="#ff5507" stroke="none" /><path d="M 120.32669344350535 105.2749913415812 l 8.452485760004741 2.1935092061473247 a29.732468045205547,29.732468045205547 0 0,0 -0.1328219058298748,0.49427972255473995 l -8.413475777833089 -2.3386798618776132" fill="#ff6b09" stroke="none" /><path d="M 120.13307415673323 105.97154293290107 l 7.075837122201829 2.098718995047871 a28.380521146918028,28.380521146918028 0 0,0 -0.14294758665083201,0.46716098406692946 l -7.038662763044864 -2.220206951666858" fill="#ff5908" stroke="none" /><path d="M 120.02730092923936 106.31721596034902 l 8.273134403997338 2.6095966143266773 a29.674949415190248,29.674949415190248 0 0,0 -0.15785341906560194,0.4858228691450328 l -8.226988733915489 -2.7516183834495056" fill="#ff6a09" stroke="none" /><path d="M 119.9155931802556 106.66101706037122 l 9.836413983516662 3.289910612455965 a31.372008093569562,31.372008093569562 0 0,0 -0.1756969430250931,0.5106575583469274 l -9.778326209548338 -3.4587408738921925" fill="#ff810b" stroke="none" /><path d="M 119.79798401119884 107.00284435728193 l 16.087632914000608 5.690437435958421 a38.06437842372797,38.06437842372797 0 0,0 -0.22381082167840544,0.6158312583358986 l -15.987297831316978 -5.9665164913004505" fill="#ffd914" stroke="none" /><path d="M 119.67450827220406 107.3425965602758 l 6.884572911417998 2.5693471307622517 a28.34839362384642,28.34839362384642 0 0,0 -0.1745528314237286,0.4557023621689582 l -6.839325800400763 -2.6874730597643537" fill="#ff5808" stroke="none" /><path d="M 119.54520255179757 107.68017299344265 l 6.160264328927362 2.4206398274007532 a27.618787938607312,27.618787938607312 0 0,0 -0.17767743085168136,0.44098081215382423 l -6.1176842838182885 -2.526320007397391" fill="#ff4e07" stroke="none" /><path d="M 119.41010516605496 108.01547362559984 l 5.845159242129366 2.4137797988160776 a27.323940186546906,27.323940186546906 0 0,0 -0.1832642935826272,0.43318265463216693 l -5.80274396735443 -2.5140369791144077" fill="#ff4a06" stroke="none" /><path d="M 119.12269723197855 108.67885076344098 l 1.5519555642298133 0.704356219734427 a22.704313280363223,22.704313280363223 0 0,0 -0.1645796565948475,0.35448993861170697 l -1.5396012907951344 -0.7309662256249646" fill="#ff0801" stroke="none" /><path d="M 118.81262510543309 109.33194174019688 l 2.4134342872019614 1.197176259864867 a23.69404826531116,23.69404826531116 0 0,0 -0.18438632788883305,0.36381171766012693 l -2.3924692895268596 -1.2385421892276882" fill="#ff1602" stroke="none" /><path d="M 118.64920377521936 109.65438752849418 l 3.7233062168805167 1.9274946822545138 a25.19264176084489,25.19264176084489 0 0,0 -0.20267779222302654,0.383390001765716 l -3.689575916432597 -1.9912996991063643" fill="#ff2c04" stroke="none" /><line stroke="#e1ed5e" stroke-width="0.3" x1="174.80103733775053" x2="179.2010983576182" y1="140.37084112569926" y2="142.7455964860345" /><path d="M 175.68104954172406 140.8457921977663 a86.0,86.0 0 0,1 -30.038265399797805,32.042727171017184" fill="none" id="id17" stroke="none" /><text fill="#e1ed5e" style="font-size:6.75px; font-family:Arial;" text-anchor="middle"><textPath startOffset="22.206326154141568" xlink:href="#id17">May</textPath></text><path d="M 118.48025628344425 109.97397251340804 l 10.073258187368197 5.4366345758570755 a32.44672555890046,32.44672555890046 0 0,0 -0.2694987796916616,0.48921856635254013 l -9.978182998225027 -5.60922366060742" fill="#ff900d" stroke="none" /><path d="M 118.30583269289576 110.29060199501025 l 5.761056856467269 3.2385712343769595 a27.608942407343434,27.608942407343434 0 0,0 -0.23644824668117304,0.4122674483706502 l -5.704456613633717 -3.337258528605925" fill="#ff4e07" stroke="none" /><path d="M 118.12598468904814 110.60418214915192 l 6.6106216676733816 3.8673891369606053 a28.658786951586634,28.658786951586634 0 0,0 -0.25276930584399754,0.4236558958578474 l -6.543071486131157 -3.9806071267045566" fill="#ff5c08" stroke="none" /><path d="M 117.94076556474637 110.91462005526583 l 6.652860507008053 4.047399451969964 a28.787297043873068,28.787297043873068 0 0,0 -0.26119038167808295,0.42112206009311537 l -6.582205485662007 -4.161317843428353" fill="#ff5e08" stroke="none" /><path d="M 117.75023020441432 111.22182372390056 l 6.440732743323118 4.0718777540334 a28.61992301238711,28.61992301238711 0 0,0 -0.26684008268326836,0.41414173406549454 l -6.3696877972628 -4.182141088020348" fill="#ff5c08" stroke="none" /><path d="M 117.55443506779139 111.5257021239791 l 9.058774627960348 5.947712789783715 a31.83682080639589,31.83682080639589 0 0,0 -0.304719148365758,0.45551378196983244 l -8.955052374183868 -6.102763485959354" fill="#ff880c" stroke="none" /><path d="M 117.35343817320211 111.8261652097733 l 5.876686213517882 4.004892941295185 a28.111582687657307,28.111582687657307 0 0,0 -0.2759474358795369,0.39752286251675933 l -5.8068778704762085 -4.105457065998964" fill="#ff5507" stroke="none" /><path d="M 117.14729908036423 112.12312394758627 l 5.150198006371058 3.6411850340527097 a27.30735823915511,27.30735823915511 0 0,0 -0.2746602798546731,0.3814791062512039 l -5.086757934140782 -3.7292977457550447" fill="#ff4a06" stroke="none" /><path d="M 116.93607887273984 112.41649034213515 l 5.4097996596658255 3.966132050509288 a27.707915905838227,27.707915905838227 0 0,0 -0.2853106970474938,0.38222030350287267 l -5.340727695923239 -4.0586652335214755" fill="#ff4f07" stroke="none" /><path d="M 116.71984013943494 112.70617746262583 l 4.395940795678805 3.340678104532355 a26.521270295612695,26.521270295612695 0 0,0 -0.2793487708622129,0.3610959429326757 l -4.3377852075985235 -3.415852041578283" fill="#ff3f05" stroke="none" /><path d="M 116.498646956653 112.99209946851258 l 5.216334290470189 4.107678292702255 a27.63951537284706,27.63951537284706 0 0,0 -0.29756187358501074,0.3712541895269631 l -5.144854504830325 -4.196860315807468" fill="#ff4e07" stroke="none" /><path d="M 116.0416608686014 113.55231037782055 l 16.7759371581749 14.172641418408254 a42.96123476286829,42.96123476286829 0 0,0 -0.4821017509503886,0.5607932522285743 l -16.529492897653732 -14.459311769798358" fill="#e9ff1a" stroke="none" /><path d="M 115.56566222782051 114.09645910891815 l 4.786154987436989 4.3344020371176315 a27.457113951537284,27.457113951537284 0 0,0 -0.3202723184999921,0.3475923471806167 l -4.710836260941275 -4.416145639099583" fill="#ff4c07" stroke="none" /><path d="M 115.32070863581623 114.36230785411682 l 5.473733907565102 5.131319533626746 a28.502813008932538,28.502813008932538 0 0,0 -0.3386316720475758,0.35505395431029946 l -5.384595684138562 -5.224780604519553" fill="#ff5a08" stroke="none" /><path d="M 115.07121518719521 114.62390073753431 l 5.2663346559214155 5.110029569763201 a28.338029906726547,28.338029906726547 0 0,0 -0.34270039820332443,0.34715369406502966 l -5.177593632662555 -5.199923757808895" fill="#ff5808" stroke="none" /><path d="M 114.81725581225074 114.88116024355365 l 6.3739135511762095 6.40140321092313 a30.033534027537875,30.033534027537875 0 0,0 -0.3694840450636959,0.3616179041778278 l -6.262779553736719 -6.51017121802353" fill="#ff6f0a" stroke="none" /><path d="M 114.55890576462653 115.13401014063108 l 5.5712261411890704 5.791300134750698 a29.036026254750038,29.036026254750038 0 0,0 -0.36317731470526293,0.343406819438855 l -5.4707129920929995 -5.886341590935475" fill="#ff6209" stroke="none" /><path d="M 114.29624159901734 115.38237550388516 l 7.8938705586835844 8.493594646657408 a32.595444899570644,32.595444899570644 0 0,0 -0.4142732823344484,0.3784288210877997 l -7.746497726882272 -8.628216234331791" fill="#ff920d" stroke="none" /><path d="M 114.0293411484842 115.62618273729858 l 4.302686698280368 4.792425239152249 a27.44053200414549,27.44053200414549 0 0,0 -0.35418885904929304,0.3125304872784989 l -4.219555486324488 -4.865778868203036" fill="#ff4c07" stroke="none" /><path d="M 113.75828350139079 115.86535959552629 l 3.9112960622692428 4.510309625920604 a26.970019246903224,26.970019246903224 0 0,0 -0.3533515901049801,0.3011338908864997 l -3.8330789955872153 -4.57696790703005" fill="#ff4506" stroke="none" /><path d="M 113.48314897796784 116.09983520530334 l 4.183083257661492 4.994897794903985 a27.515150767408578,27.515150767408578 0 0,0 -0.3657285950847714,0.30096973507878116 l -4.0964845340320295 -5.066162648839945" fill="#ff4d07" stroke="none" /><path d="M 113.20401910651253 116.32954008644616 l 3.749816312906595 4.637434655650911 a26.963801016631297,26.963801016631297 0 0,0 -0.3634238974103695,0.28872592372164213 l -3.6694349227788745 -4.701294493377679" fill="#ff4506" stroke="none" /><path d="M 112.92097659922987 116.55440617244103 l 5.245739228819258 6.720861786388304 a29.52571188866407,29.52571188866407 0 0,0 -0.40333707198265856,0.30926166762123586 l -5.129273428343106 -6.810162795836911" fill="#ff6809" stroke="none" /><path d="M 112.63410532772338 116.77436683061366 l 5.877792573875944 7.803975527424123 a30.7698761289049,30.7698761289049 0 0,0 -0.4258184981628005,0.3150103450582963 l -5.742589105294579 -7.903995821222188" fill="#ff790b" stroke="none" /><path d="M 112.34349029814194 116.9893568818739 l 5.813861294253893 8.002093573538193 a30.89113161920742,30.89113161920742 0 0,0 -0.43287694511218955,0.30884620674181296 l -5.675257021292819 -8.100984042124226" fill="#ff7b0b" stroke="none" /><path d="M 112.04921762599082 117.19931262002967 l 3.342479014740877 4.771126498405309 a26.825445393080983,26.825445393080983 0 0,0 -0.3804654393930459,0.2616875984836353 l -3.259856690724948 -4.827954886254038" fill="#ff4306" stroke="none" /><path d="M 111.7513745106137 117.40417183066458 l 4.418581769548725 6.54406480668378 a28.89611607363174,28.89611607363174 0 0,0 -0.41462528005390714,0.2747910267942486 l -4.3052817907548535 -6.619153854569347" fill="#ff6008" stroke="none" /><path d="M 111.45004920935366 117.60387380957326 l 3.363589691490782 5.171349694096868 a27.169002615604796,27.169002615604796 0 0,0 -0.39423283415282506,0.2516180472373014 l -3.2740750552910263 -5.228482170157978" fill="#ff4806" stroke="none" /><line stroke="#e1ed5e" stroke-width="0.3" x1="143.8653032363475" x2="146.44561519142675" y1="172.8068346515853" y2="177.08958963109032" /><path d="M 144.38136562736335 173.6633856474863 a86.0,86.0 0 0,1 -40.68145358897372,12.25698825130547" fill="none" id="id18" stroke="none" /><text fill="#e1ed5e" style="font-size:6.75px; font-family:Arial;" text-anchor="middle"><textPath startOffset="21.466115282336833" xlink:href="#id18">June</textPath></text><path d="M 110.8373102113329 117.98757091392108 l 2.311278491747282 3.836218116987117 a25.478680353353404,25.478680353353404 0 0,0 -0.3776087585600721,0.22309791044980087 l -2.2449018621588284 -3.875434599730667" fill="#ff3004" stroke="none" /><path d="M 110.21172684928248 118.3499491758327 l 10.719717801465126 19.262782851460162 a43.044662685683264,43.044662685683264 0 0,0 -0.650542571773555,0.35472767950499395 l -10.386552417822923 -19.444451182724926" fill="#e8ff1a" stroke="none" /><path d="M 109.2508944713604 118.85261126421891 l 0.8541885977355428 1.740770649723811 a22.939051473128362,22.939051473128362 0 0,0 -0.35597839443729207,0.17089126210130473 l -0.824097535298018 -1.7552161883246757" fill="#ff0b01" stroke="none" /><path d="M 108.92500713936063 119.00905698771935 l 2.7544061662138715 5.866512257449682 a27.480950500912993,27.480950500912993 0 0,0 -0.42992246410863255,0.1973563169069988 l -2.6530157063378192 -5.913055644690756" fill="#ff4c07" stroke="none" /><path d="M 108.59647513512805 119.15986991738527 l 2.267377059650192 5.053542159278763 a26.538888614716477,26.538888614716477 0 0,0 -0.4184036827568262,0.18341587876979001 l -2.1800527022356118 -5.091822591343007" fill="#ff3f05" stroke="none" /><path d="M 108.2653958097858 119.30500536409082 l 1.8537280391635775 4.329645011948414 a25.709791245126585,25.709791245126585 0 0,0 -0.4083309119339058,0.17068235430499012 l -1.7789256677322105 -4.360912409273378" fill="#ff3304" stroke="none" /><path d="M 107.93186726928326 119.44442032107085 l 2.3020930469651524 5.643420811736548 a27.094902038197702,27.094902038197702 0 0,0 -0.433362216254328,0.17244376942445516 l -2.204609754668958 -5.682211425567073" fill="#ff4706" stroke="none" /><path d="M 107.59598834532513 119.57807347666477 l 1.9054635917330918 4.911185287562902 a26.267877412031783,26.267877412031783 0 0,0 -0.42295007573459387,0.15992352824346512 l -1.820643295238223 -4.943257065912998" fill="#ff3b05" stroke="none" /><path d="M 107.2578585660854 119.70592522655815 l 1.7484694561686762 4.747296747443299 a26.059048512066326,26.059048512066326 0 0,0 -0.42225640367890405,0.1514061231960086 l -1.6664934918600374 -4.776690411679267" fill="#ff3805" stroke="none" /><path d="M 106.91757812671514 119.82793768551818 l 1.9324360157070049 5.538964677929018 a26.866382075704486,26.866382075704486 0 0,0 -0.43796075004697216,0.14858006510124402 l -1.836805532722806 -5.571407729928385" fill="#ff4306" stroke="none" /><path d="M 106.57524785965236 119.94407469862006 l 2.2010514845788873 6.676240373130331 a28.029709322410305,28.029709322410305 0 0,0 -0.4595252677624452,0.14712547940786538 l -2.085804871725502 -6.713138699197903" fill="#ff5407" stroke="none" /><path d="M 106.2309692047433 120.05430185196036 l 1.5621242441936531 5.02767869555143 a26.26476829689582,26.26476829689582 0 0,0 -0.4328996951468613,0.130429127017401 l -1.475349574606546 -5.053823191674556" fill="#ff3b05" stroke="none" /><path d="M 105.88484417918355 120.15858648285463 l 1.7908943212226904 6.134724549500227 a27.390786161970095,27.390786161970095 0 0,0 -0.4537333708029079,0.12822958280904168 l -1.6850297823151767 -6.164642925647788" fill="#ff4b07" stroke="none" /><path d="M 105.53697534728816 120.25689768951611 l 1.2124344675476262 4.4356637737937605 a25.598381286087942,25.598381286087942 0 0,0 -0.4260418527639547,0.11252152554910308 l -1.135902171972174 -4.455876648646448" fill="#ff3204" stroke="none" /><path d="M 105.18746579009965 120.34920634021253 l 1.0937890533583765 4.290676804449394 a25.427898139466024,25.427898139466024 0 0,0 -0.42506571989256003,0.10447081215200703 l -1.0197700487226053 -4.30886887491543" fill="#ff2f04" stroke="none" /><path d="M 104.83641907484287 120.43548508189849 l 1.292703237889205 5.462102709547563 a26.612989192123575,26.612989192123575 0 0,0 -0.446692497840433,0.10166575820256832 l -1.1984905906559098 -5.483545201327815" fill="#ff4006" stroke="none" /><path d="M 104.48393922423573 120.51570834832081 l 0.24861598570936383 1.1375116384216764 a22.164363618417806,22.164363618417806 0 0,0 -0.3734257666752508,0.07825500015751996 l -0.228998757604735 -1.1416226193057375" fill="#ff0000" stroke="none" /><path d="M 103.7750983002368 120.6578951692458 l 1.7463299569298592 9.556175313079283 a30.714430242313576,30.714430242313576 0 0,0 -0.5209036153071407,0.09056577050102159 l -1.5815773701506686 -9.584819662101312" fill="#ff790b" stroke="none" /><path d="M 103.06178313531738 120.77559828337769 l 0.9411398242276212 6.386063954400532 a27.45504120811331,27.45504120811331 0 0,0 -0.4681364421148932,0.0648794452081488 l -0.8310747909258975 -6.401317965101283" fill="#ff4c07" stroke="none" /><path d="M 102.70371172650421 120.8252237178851 l 0.9288796912628459 7.154656018953613 a28.21470167300005,28.21470167300005 0 0,0 -0.4821658427250504,0.058383568732008284 l -0.8055864254864151 -7.169585116410973" fill="#ff5608" stroke="none" /><path d="M 102.34483914955558 120.86867818915974 l 0.7255658820368915 6.457415597198417 a27.498050634160784,27.498050634160784 0 0,0 -0.4708286983301359,0.04880331968431931 l -0.614304587101153 -6.468948285338494" fill="#ff4c07" stroke="none" /><path d="M 101.98527174616119 120.90594882070398 l 0.38298510860899654 4.033033308993332 a25.051177022158615,25.051177022158615 0 0,0 -0.4296344643710929,0.0370706693934831 l -0.313506326496362 -4.039028230665478" fill="#ff2a04" stroke="none" /><path d="M 101.62511606390274 120.93702456842531 l 0.44960769156781905 5.792476915096102 a26.809899817401174,26.809899817401174 0 0,0 -0.460411821616239,0.03175269484815768 l -0.3498331091726497 -5.799357954460545" fill="#ff4306" stroke="none" /><path d="M 101.26447882468166 120.96189622390904 l 0.2945749539510334 4.883315951486087 a25.89219266643636,25.89219266643636 0 0,0 -0.4451138327390728,0.023007300881238167 l -0.21047305279848097 -4.887663059129527" fill="#ff3605" stroke="none" /><path d="M 100.90346689309514 120.98055641714683 l 0.2220656793693114 5.156870218407925 a26.161649311553077,26.161649311553077 0 0,0 -0.45007959347090337,0.015501651232833319 l -0.13326573422375573 -5.159928668066852" fill="#ff3a05" stroke="none" /><line stroke="#e1ed5e" stroke-width="0.3" x1="102.19456741930631" x2="102.32365962044197" y1="184.97166512339345" y2="189.96999836594603" /><path d="M 102.22038585953345 185.97133177190398 a86.0,86.0 0 0,1 -42.740103519485714,-10.115201625700543" fill="none" id="id19" stroke="none" /><text fill="#e1ed5e" style="font-size:6.75px; font-family:Arial;" text-anchor="middle"><textPath startOffset="22.20632615414155" xlink:href="#id19">July</textPath></text><path d="M 100.54218724476979 120.99299961872073 l 0.18916215401964484 7.324187474931956 a28.326629817894684,28.326629817894684 0 0,0 -0.4875421840797835,0.008393480840318244 l -0.06306028004719338 -7.326358433051434" fill="#ff5808" stroke="none" /><path d="M 100.18074693466247 120.99922214144158 l 0.031081907606541535 3.611103467001588 a24.611237230419977,24.611237230419977 0 0,0 -0.42365768453799146,0.0 l 0.031081907606539047 -3.611103467001588" fill="#ff2303" stroke="none" /><path d="M 99.81925306533755 120.99922214144158 l -0.05592424156670873 6.497291773960813 a27.497532448304792,27.497532448304792 0 0,0 -0.4732722216810338,-0.008147810496505765 l 0.16775615314041045 -6.495366486185148" fill="#ff4c07" stroke="none" /><path d="M 99.45781275523022 120.99299961872073 l -0.13232922168528588 5.123667749809179 a26.12537630163352,26.12537630163352 0 0,0 -0.44945556012484633,-0.015480158262637064 l 0.22050513348477524 -5.120630793120449" fill="#ff3905" stroke="none" /><path d="M 99.09653310690486 120.98055641714683 l -0.2569550266449823 5.967080226620796 a26.972610176183192,26.972610176183192 0 0,0 -0.46368733807780377,-0.02396733895311324 l 0.35963043313627496 -5.961773080905481" fill="#ff4506" stroke="none" /><path d="M 98.73552117531835 120.96189622390904 l -0.26546379707820816 4.40072578278187 a25.408725262794256,25.408725262794256 0 0,0 -0.4363491681381322,-0.03009319338174193 l 0.3411757259952704 -4.395504244883843" fill="#ff2f04" stroke="none" /><path d="M 98.37488393609728 120.93702456842531 l -0.40922640853099845 5.272228587099157 a26.288086660415537,26.288086660415537 0 0,0 -0.4508477993548302,-0.038901045196938426 l 0.4999185256273704 -5.264403289623555" fill="#ff3b05" stroke="none" /><path d="M 97.65516085044442 120.86867818915974 l -0.6122757706311303 5.449152460092001 a26.483442728125155,26.483442728125155 0 0,0 -0.45258006372920084,-0.054801142918247156 l 0.7059832574117204 -5.437805788448404" fill="#ff3e05" stroke="none" /><path d="M 97.2962882734958 120.8252237178851 l -0.9168709040454807 7.062158849994939 a28.12142821892119,28.12142821892119 0 0,0 -0.47949902000892924,-0.0664541949682136 l 1.038298515241241 -7.0453300895341195" fill="#ff5507" stroke="none" /><path d="M 96.93821686468263 120.77559828337769 l -1.0156331907435059 6.891535501244792 a27.965972462123084,27.965972462123084 0 0,0 -0.4756401144181992,-0.07428520383911684 l 1.1341091687702223 -6.8730319900585695" fill="#ff5307" stroke="none" /><path d="M 96.58105272829116 120.7198165907248 l -1.1212014321919397 6.794807345672717 a27.886690026156046,27.886690026156046 0 0,0 -0.472946349288362,-0.08222778508398389 l 1.2379967529523517 -6.774500982067726" fill="#ff5207" stroke="none" /><path d="M 96.22490169976321 120.6578951692458 l -1.0011099401037566 5.47822137353513 a26.568943394364112,26.568943394364112 0 0,0 -0.44918263579098555,-0.08608692121302358 l 1.0952601904664372 -5.460177253973638" fill="#ff3f05" stroke="none" /><path d="M 95.51606077576429 120.51570834832081 l -1.753589122166309 8.023329754047689 a29.212727631643883,29.212727631643883 0 0,0 -0.4903284700680395,-0.11159716341503997 l 1.891437741627211 -7.991955857054961" fill="#ff6409" stroke="none" /><path d="M 95.16358092515715 120.4354850818985 l -1.6133728834032597 6.817039007604645 a28.0053545871786,28.0053545871786 0 0,0 -0.46815179702050996,-0.11506032163100852 l 1.7304779651669804 -6.788257427659607" fill="#ff5307" stroke="none" /><path d="M 94.81253420990036 120.34920634021253 l -1.405861342660622 5.5148628839400455 a26.691235256378622,26.691235256378622 0 0,0 -0.44423056263196464,-0.11732532913985623 l 1.5005823481040759 -5.489846205496607" fill="#ff4106" stroke="none" /><path d="M 94.46302465271185 120.25689768951611 l -1.8698870997134103 6.840939194065973 a28.09189162512955,28.09189162512955 0 0,0 -0.465347310731695,-0.13151179824142722 l 1.987365578549719 -6.807738602486024" fill="#ff5507" stroke="none" /><path d="M 94.11515582081647 120.15858648285463 l -2.32309473371609 7.957781832717479 a29.289937324186944,29.289937324186944 0 0,0 -0.4827609669037049,-0.1454519191794889 l 2.4597306750600407 -7.916614544432265" fill="#ff6509" stroke="none" /><path d="M 93.76903079525671 120.05430185196036 l -1.8285771295467594 5.885254205333974 a27.162784385332873,27.162784385332873 0 0,0 -0.44531270817939095,-0.14257506664721023 l 1.9296111828170908 -5.852906292027057" fill="#ff4806" stroke="none" /><path d="M 93.42475214034765 119.94407469862007 l -1.669365968217022 5.063529205302815 a26.331614272319005,26.331614272319005 0 0,0 -0.42924326409699626,-0.14562262055894679 l 1.7562789652512443 -5.034043597845745" fill="#ff3c05" stroke="none" /><path d="M 93.08242187328487 119.8279376855182 l -1.4200101770750415 4.070192311252673 a25.31078813601145,25.31078813601145 0 0,0 -0.4101317194157085,-0.14705864279482952 l 1.4898614571204767 -4.045146127417886" fill="#ff2d04" stroke="none" /><path d="M 92.7421414339146 119.70592522655815 l -2.2941609887863086 6.228912356319643 a27.63796081527908,27.63796081527908 0 0,0 -0.44501036138601263,-0.16826484065322536 l 2.4010415709326045 -6.188499265559784" fill="#ff4e07" stroke="none" /><path d="M 92.40401165467489 119.57807347666478 l -3.472419683301908 8.949893629489507 a30.599911168138973,30.599911168138973 0 0,0 -0.4894221541128213,-0.19475117564361044 l 3.625962913456587 -8.88879560943983" fill="#ff770b" stroke="none" /><path d="M 92.06813273071674 119.44442032107085 l -2.3835137838753266 5.843018079011022 a27.31046735429107,27.31046735429107 0 0,0 -0.4337533484342335,-0.1813089348239484 l 2.4837385918070223 -5.801124101167101" fill="#ff4a06" stroke="none" /><path d="M 91.7346041902142 119.30500536409082 l -2.225738155065696 5.198527452458253 a26.654962246459064,26.654962246459064 0 0,0 -0.4202336627419519,-0.1842180882171118 l 2.314892492465391 -5.159444810946689" fill="#ff4106" stroke="none" /><path d="M 91.40352486487194 119.15986991738527 l -3.3190802556222825 7.397583886821482 a29.10805408873316,29.10805408873316 0 0,0 -0.45537749281342216,-0.20904147209505108 l 3.4459257442031244 -7.339355344392356" fill="#ff6309" stroke="none" /><path d="M 91.07499286063937 119.00905698771935 l -2.9444639355784354 6.271309577204948 a27.928144894635544,27.928144894635544 0 0,0 -0.43340136321025896,-0.20805899209839576 l 3.051977966788937 -6.21969630860699" fill="#ff5207" stroke="none" /><path d="M 90.7491055286396 118.85261126421891 l -2.4084831359454055 4.908303347203616 a26.46737896658935,26.46737896658935 0 0,0 -0.40727762318727834,-0.20421745521086654 l 2.4926146668154443 -4.866118051083448" fill="#ff3e05" stroke="none" /><path d="M 90.42595943632237 118.69057910512821 l -2.7142119142301806 5.29872337113996 a26.953437299511425,26.953437299511425 0 0,0 -0.41111577024834256,-0.21507634046267968 l 2.8050185870050184 -5.251217611732564" fill="#ff4506" stroke="none" /><line stroke="#e1ed5e" stroke-width="0.3" x1="58.666819895761336" x2="56.23545636021788" y1="174.27360380694188" y2="178.64263932499728" /><path d="M 58.180547188652646 175.14741091055294 a86.0,86.0 0 0,1 -31.652253787137756,-30.449443065178592" fill="none" id="id20" stroke="none" /><text fill="#e1ed5e" style="font-size:6.75px; font-family:Arial;" text-anchor="middle"><textPath startOffset="22.20632615414155" xlink:href="#id20">August</textPath></text><path d="M 89.7882731507175 118.34994917583269 l -1.4367879014610074 2.5818341361249084 a23.95469575087598,23.95469575087598 0 0,0 -0.3585803879673896,-0.2036113026611484 l 1.4810170563496041 -2.556719667669127" fill="#ff1a02" stroke="none" /><path d="M 89.4739219176387 118.17145234162733 l -3.1293043659943938 5.402202482651287 a27.243103193011894,27.243103193011894 0 0,0 -0.4037585241216463,-0.23854765287046373 l 3.221830761144422 -5.347536257487074" fill="#ff4906" stroke="none" /><path d="M 89.1626897886671 117.98757091392108 l -2.144143346850597 3.5588102351038664 a25.154814193357353,25.154814193357353 0 0,0 -0.3689621901615261,-0.22664671238916284 l 2.2050847369444315 -3.5213750558863253" fill="#ff2b04" stroke="none" /><path d="M 88.8546689885994 117.79835938074946 l -3.10548975425 4.959262550644595 a26.85135468588067,26.85135468588067 0 0,0 -0.38962363868954547,-0.2486762406161011 l 3.1903951949864693 -4.905071881204689" fill="#ff4306" stroke="none" /><path d="M 88.24862548938628 117.40417183066458 l -3.1444481368280868 4.657031025310335 a26.619207422395498,26.619207422395498 0 0,0 -0.37754036512170275,-0.25967570572755155 l 3.2241453865726797 -4.602214530217682" fill="#ff4006" stroke="none" /><path d="M 87.95078237400918 117.19931262002967 l -2.1451686613908056 3.0620599258134074 a24.738710950994424,24.738710950994424 0 0,0 -0.3466631703391968,-0.24733496755897763 l 2.1975591595788893 -3.024680696410211" fill="#ff2503" stroke="none" /><path d="M 87.65650970185807 116.9893568818739 l -2.8749495366964846 3.957028564576019 a25.891156294724375,25.891156294724375 0 0,0 -0.35830281678518566,-0.2650638580471193 l 2.9426373239002346 -3.906954757789133" fill="#ff3605" stroke="none" /><path d="M 86.79598089348748 116.32954008644616 l -3.8928495357205666 4.814325246825712 a27.191284607412527,27.191284607412527 0 0,0 -0.3614237989129448,-0.2974271808983936 l 3.9751434631782003 -4.746602947070138" fill="#ff4806" stroke="none" /><path d="M 86.51685102203217 116.09983520530335 l -4.331469095004768 5.17208099831822 a27.74626165918176,27.74626165918176 0 0,0 -0.3635216418270124,-0.3098010295985802 l 4.419856213408837 -5.096755578496689" fill="#ff5007" stroke="none" /><path d="M 86.24171649860922 115.8653595955263 l -4.735584478135024 5.4608375116714285 a28.228174505255886,28.228174505255886 0 0,0 -0.3643553601493766,-0.3215012424605085 l 4.8288821911909885 -5.378513127438631" fill="#ff5608" stroke="none" /><path d="M 85.70375840098266 115.38237550388516 l -5.615347524383308 6.041964498614321 a29.248482455707446,29.248482455707446 0 0,0 -0.3658346780744393,-0.3459195223686691 l 5.718518036848565 -5.94441033949972" fill="#ff6509" stroke="none" /><path d="M 85.44109423537348 115.13401014063109 l -7.474884080456596 7.7701561712508305 a31.781893105660565,31.781893105660565 0 0,0 -0.39099302844927736,-0.3826689714615317 l 7.607527061281668 -7.640337096866729" fill="#ff870c" stroke="none" /><path d="M 85.18274418774928 114.88116024355367 l -4.805388963638438 4.826113830159054 a27.81051670532498,27.81051670532498 0 0,0 -0.33632102092223726,-0.34069141855973223 l 4.887750609616209 -4.742681917618657" fill="#ff5107" stroke="none" /><path d="M 84.9287848128048 114.62390073753433 l -5.53149224434539 5.367317267188609 a28.707496422050042,28.707496422050042 0 0,0 -0.3410634420768335,-0.35760365546388717 l 5.623062237801181 -5.2713064951422215" fill="#ff5d08" stroke="none" /><path d="M 84.67929136418377 114.36230785411682 l -5.711525096725849 5.3542354799387315 a28.828751912352566,28.828751912352566 0 0,0 -0.336271730187179,-0.3649565486448705 l 5.802843234908756 -5.255127676492517" fill="#ff5f08" stroke="none" /><path d="M 84.43433777217949 114.09645910891817 l -6.297168045825328 5.702794430506672 a29.495657109016435,29.495657109016435 0 0,0 -0.3375723885694847,-0.37926615713814027 l 6.39439928404315 -5.593554103627668" fill="#ff6809" stroke="none" /><path d="M 84.19399662182784 113.82643327865904 l -6.3916691349130295 5.5911658829063855 a29.492029808024476,29.492029808024476 0 0,0 -0.33095322534394456,-0.38497336964715645 l 6.4869648698277524 -5.480315414097699" fill="#ff6809" stroke="none" /><path d="M 83.95833913139862 113.55231037782056 l -6.2664840648183535 5.294048896789157 a29.203400286235997,29.203400286235997 0 0,0 -0.32110390203819694,-0.386790335410348 l 6.3566839667500865 -5.185397304265047" fill="#ff6409" stroke="none" /><path d="M 83.72743513129214 113.27417163493432 l -6.399648099429149 5.2204448383157285 a29.25884617282732,29.25884617282732 0 0,0 -0.31499528731516385,-0.3930050536652309 l 6.488561298799174 -5.109511951072238" fill="#ff6509" stroke="none" /><path d="M 83.50135304334701 112.99209946851258 l -6.244293713200008 4.917159888665202 a28.94793465923111,28.94793465923111 0 0,0 -0.30490884772565324,-0.3941357878117073 l 6.328009378143729 -4.808946106740242" fill="#ff6008" stroke="none" /><path d="M 83.28015986056508 112.70617746262583 l -8.043890914439192 6.1129236043235435 a31.103069634308838,31.103069634308838 0 0,0 -0.3202708752198813,-0.429055175275448 l 8.147923056354157 -5.973555549538788" fill="#ff7e0b" stroke="none" /><path d="M 83.06392112726016 112.41649034213515 l -5.450336590294451 3.9958512323477895 a27.758179933869613,27.758179933869613 0 0,0 -0.27919469185272316,-0.3877770079256139 l 5.5183110745227815 -3.9014406189710376" fill="#ff5007" stroke="none" /><path d="M 82.85270091963577 112.12312394758628 l -4.232877165275718 2.9926400822102637 a26.183931303360804,26.183931303360804 0 0,0 -0.25702532599065725,-0.37026415194419027 l 4.283763398428508 -2.919334668079061" fill="#ff3a05" stroke="none" /><path d="M 82.6465618267979 111.8261652097733 l -4.283763398428508 2.919334668079061 a26.183931303360804,26.183931303360804 0 0,0 -0.2506137561959185,-0.37463356179193286 l 4.333380260035158 -2.8451641920813073" fill="#ff3a05" stroke="none" /><path d="M 82.24976979558568 111.22182372390057 l -7.380234391363108 4.6658374808203265 a29.73143167349356,29.73143167349356 0 0,0 -0.2697566212903164,-0.43493356589810495 l 7.45945565232138 -4.538107583556957" fill="#ff6b09" stroke="none" /><path d="M 82.05923443525364 110.91462005526583 l -5.037899425722094 3.0649058932271904 a26.896955041208113,26.896955041208113 0 0,0 -0.23723002186269496,-0.3976111620872407 l 5.089910323283021 -2.9777326372538386" fill="#ff4406" stroke="none" /><line stroke="#e1ed5e" stroke-width="0.3" x1="26.63291911575756" x2="22.317208475507996" y1="142.92168965132927" y2="145.44649492493687" /><path d="M 25.769776987707644 143.4266507060508 a86.0,86.0 0 0,1 -11.730757126820373,-40.83630448921669" fill="none" id="id21" stroke="none" /><text fill="#e1ed5e" style="font-size:6.75px; font-family:Arial;" text-anchor="middle"><textPath startOffset="21.46611528233685" xlink:href="#id21">September</textPath></text><path d="M 81.87401531095188 110.60418214915194 l -8.193950538009226 4.79367855136119 a30.493164881804276,30.493164881804276 0 0,0 -0.2611492778566158,-0.45533577828115457 l 8.275251812018219 -4.651922927221729" fill="#ff760a" stroke="none" /><path d="M 81.69416730710424 110.29060199501025 l -6.327044330291438 3.556740417117616 a28.258229284903518,28.258229284903518 0 0,0 -0.23470961021024644,-0.42606611854640336 l 6.387330349953201 -3.44730378017339" fill="#ff5708" stroke="none" /><path d="M 81.51974371655577 109.97397251340807 l -4.809536174838039 2.5957530498671195 a26.465306223165374,26.465306223165374 0 0,0 -0.21291652883162396,-0.40275783286054084 l 4.853505211894548 -2.5125802019204526" fill="#ff3e05" stroke="none" /><path d="M 81.35079622478065 109.6543875284942 l -4.700265690176441 2.433250609881057 a26.29275033311948,26.29275033311948 0 0,0 -0.2046093444959983,-0.4037136479841525 l 4.741453704458706 -2.3519827501942197" fill="#ff3b05" stroke="none" /><path d="M 81.18737489456691 109.33194174019688 l -7.496083260191817 3.7184078177145357 a29.367665202585997,29.367665202585997 0 0,0 -0.22074239585987807,-0.4547947172092842 l 7.558978912666413 -3.588824144539967" fill="#ff6609" stroke="none" /><path d="M 81.02952815118164 109.00673069616217 l -4.060353176149893 1.9277595138555657 a25.494744114889208,25.494744114889208 0 0,0 -0.18480700911712303,-0.3980578564349234 l 4.092934802106843 -1.857581590141815" fill="#ff3004" stroke="none" /><path d="M 80.87730276802145 108.67885076344099 l -4.174567004177915 1.894630427482665 a25.584390267976115,25.584390267976115 0 0,0 -0.1785533564517228,-0.4025906820891805 l 4.206561445360918 -1.8224914089007886" fill="#ff3104" stroke="none" /><path d="M 80.58989483394504 108.01547362559985 l -20.331134437000117 8.395816017694514 a42.99647140107585,42.99647140107585 0 0,0 -0.2766052801163018,-0.6865116210147368 l 20.472642331373805 -8.044605028836973" fill="#e9ff1a" stroke="none" /><path d="M 80.45479744820244 107.68017299344265 l -2.616894562652461 1.0282934082421125 a23.811676454621725,23.811676454621725 0 0,0 -0.14661837990719712,-0.38277432406067047 l 2.6342072221531674 -0.9830955173482842" fill="#ff1802" stroke="none" /><path d="M 80.32549172779594 107.34259656027581 l -4.894595874262481 1.8266806129571316 a26.224349800128312,26.224349800128312 0 0,0 -0.15419385577277805,-0.4242752674607517 l 4.925313991040483 -1.7421575484902627" fill="#ff3a05" stroke="none" /><path d="M 80.20201598880116 107.00284435728193 l -3.157828767911692 1.1169714732633462 a24.349553373143166,24.349553373143166 0 0,0 -0.1363681304342322,-0.396349619548782 l 3.1765877292891522 -1.0624491506252673" fill="#ff2003" stroke="none" /><path d="M 79.76711848015287 105.62410040840567 l -21.192453110459223 5.890830926713812 a42.995953215219856,42.995953215219856 0 0,0 -0.19207300383994397,-0.7147751001996948 l 21.29071419064094 -5.525164893338578" fill="#e9ff1a" stroke="none" /><path d="M 79.58551787078972 104.9243191809786 l -7.36565557156672 1.7767209955156973 a28.576913586339636,28.576913586339636 0 0,0 -0.11123146399994434,-0.4791822357138832 l 7.39514760149722 -1.6496701024532399" fill="#ff5b08" stroke="none" /><path d="M 79.50377843672027 104.57218783832718 l -8.118882809932623 1.811117094424966 a29.318437546266594,29.318437546266594 0 0,0 -0.10563846476360525,-0.4935077385197865 l 8.14885531342067 -1.6710955364890157" fill="#ff6609" stroke="none" /><path d="M 79.4281124754447 104.21870165774334 l -5.6406952122799785 1.1567441351439571 a26.758081231801807,26.758081231801807 0 0,0 -0.08864578593995301,-0.45200295271344193 l 5.659770931195598 -1.0594774553625603" fill="#ff4206" stroke="none" /><path d="M 79.35854240842038 103.8639653848113 l -7.802049237225896 1.4604999695143714 a28.937570942111236,28.937570942111236 0 0,0 -0.08743770601614631,-0.4903970903630858 l 7.826033385581231 -1.325984128418072" fill="#ff6008" stroke="none" /><path d="M 79.29508885075956 103.50808413554451 l -9.445089384987613 1.600304777520884 a30.57970191975522,30.57970191975522 0 0,0 -0.08346546981881134,-0.5197395602357593 l 9.471236609167715 -1.437485987591911" fill="#ff770a" stroke="none" /><path d="M 79.18660465613746 102.79330883721812 l -11.256674706281876 1.51072751058942 a32.357597591669546,32.357597591669546 0 0,0 -0.06933538362014055,-0.5526712271449701 l 11.281011599148865 -1.3167385291570413" fill="#ff8f0d" stroke="none" /><path d="M 79.1416061653843 102.43462659150553 l -7.152155177560571 0.8348115065775273 a28.20071065488822,28.20071065488822 0 0,0 -0.05212793731702498,-0.482639958801421 l 7.165465416378648 -0.7115752258913243" fill="#ff5608" stroke="none" /><path d="M 79.10278846688536 102.07522291339032 l -6.837512336008986 0.679007447849666 a27.871144450476237,27.871144450476237 0 0,0 -0.04330034951984469,-0.47781574879156147 l 6.848187281805907 -0.5612103105095384" fill="#ff5207" stroke="none" /><path d="M 79.07016306316243 101.71520430193888 l -5.878285644156472 0.4817266782971015 a26.8979914129201,26.8979914129201 0 0,0 -0.03384464276888123,-0.4617832608874833 l 5.885706845589688 -0.3804702809128575" fill="#ff4406" stroke="none" /><path d="M 79.04373962182676 101.35467743843564 l -7.275689274068436 0.47032304098083877 a28.29087499383112,28.29087499383112 0 0,0 -0.027231515248095618,-0.4862369978520073 l 7.282707140204063 -0.34501432679339383" fill="#ff5708" stroke="none" /><path d="M 79.0235259727143 100.99374915477108 l -6.841707390136268 0.3241222012476957 a27.8493806445245,27.8493806445245 0 0,0 -0.01856342525897105,-0.4790395212081073 l 6.8462729482464395 -0.20630543302559165" fill="#ff5107" stroke="none" /><line stroke="#e1ed5e" stroke-width="0.3" x1="15.007084014347285" x2="10.007500721073583" y1="101.09737516637583" y2="101.16192664675087" /><path d="M 14.007167355692545 101.11028546245083 a86.0,86.0 0 0,1 10.666146001902534,-42.60595125391555" fill="none" id="id22" stroke="none" /><text fill="#e1ed5e" style="font-size:6.75px; font-family:Arial;" text-anchor="middle"><textPath startOffset="22.20632615414155" xlink:href="#id22">October</textPath></text><path d="M 79.00175016825051 100.2711162175752 l -9.39237217342257 0.12126841227818509 a30.393155011597493,30.393155011597493 0 0,0 -0.0022515577920046333,-0.5231827363894741 l 9.393068028504079 0.04042380231496438" fill="#ff740a" stroke="none" /><path d="M 79.00019446554 99.90962569577889 l -9.755794768723248 -0.04198482518805289 a30.755885110793074,30.755885110793074 0 0,0 0.006835118900020453,-0.52938749137188 l 9.753626642705512 0.20990857462040485" fill="#ff790b" stroke="none" /><path d="M 79.01574976396665 99.18683210126434 l -62.95275070810006 -2.4395036962069616 a84.0,84.0 0 0,0 0.06842556706600478,-1.4443555735079636 l 62.90143153280056 3.522770376337934" fill="#4dd2ff" stroke="none" /><path d="M 79.08570108090925 98.10471618934814 l -4.794816938688059 -0.4345131985581202 a25.81446478803731,25.81446478803731 0 0,0 0.043912708628742386,-0.4421949831440901 l 4.786627104377088 0.5169837124066406" fill="#ff3505" stroke="none" /><path d="M 79.12142395522702 97.74499172005258 l -6.393503644959602 -0.690535773433044 a27.430686472881607,27.430686472881607 0 0,0 0.05474335175941414,-0.46900760667312635 l 6.380669940196599 0.800487118431032" fill="#ff4b07" stroke="none" /><path d="M 79.16333360222342 97.38593545837743 l -8.08920871628631 -1.0148318963960858 a29.152618072348616,29.152618072348616 0 0,0 0.06675116737416288,-0.4973737302912779 l 8.070541549854312 1.1539239687520233" fill="#ff6309" stroke="none" /><path d="M 79.21141760316559 97.0276538004421 l -5.852463518864034 -0.836783738606231 a26.91198243103193,26.91198243103193 0 0,0 0.0695150687023106,-0.4580174480066303 l 5.837192556722421 0.9374002990049534" fill="#ff4406" stroke="none" /><path d="M 79.26566170972629 96.67025291283419 l -7.337293229551777 -1.1783028914041576 a28.43130336080541,28.43130336080541 0 0,0 0.08175778497680312,-0.4825390749759529 l 7.315923583054752 1.3044277546959384" fill="#ff5908" stroke="none" /><path d="M 79.32604984820605 96.31383870115002 l -5.9824165580143 -1.0666637109908146 a27.07676553323792,27.07676553323792 0 0,0 0.08576149801455857,-0.45814135168405934 l 5.96316933608988 1.1694831401374466" fill="#ff4606" stroke="none" /><path d="M 79.3925641242962 95.95851677861259 l -10.729840211548781 -2.104311737020573 a31.934239747322707,31.934239747322707 0 0,0 0.1104327130890448,-0.5385091284019641 l 10.692028202544742 2.2886965215859396" fill="#ff890c" stroke="none" /><path d="M 79.46518482838121 95.60439243477599 l -7.087313324913193 -1.5170844153083995 a28.247865567783645,28.247865567783645 0 0,0 0.10586978930459273,-0.47459350647295745 l 7.0601491486065635 1.6388560913313162" fill="#ff5708" stroke="none" /><path d="M 79.54389044137918 95.25157060432595 l -4.163807129967508 -0.9665349179518143 a25.27451512609189,25.27451512609189 0 0,0 0.10202142247640428,-0.42294466085507876 l 4.14655290723029 1.03806481046629" fill="#ff2d04" stroke="none" /><path d="M 79.62865764111835 94.90015583598534 l -9.145639907158186 -2.289556450675679 a30.42787346394907,30.42787346394907 0 0,0 0.13156964399584348,-0.506991508951555 l 9.104873931292037 2.4466443851760977" fill="#ff750a" stroke="none" /><path d="M 79.71946130924805 94.55025226153421 l -7.907338297699543 -2.124844890082859 a29.187854710556188,29.187854710556188 0 0,0 0.13456049879851448,-0.4840857082446139 l 7.869591028334669 2.2606419017464154" fill="#ff6409" stroke="none" /><path d="M 79.81627453868168 94.20196356495316 l -8.735689300486682 -2.5094398428347646 a30.0889799141292,30.0889799141292 0 0,0 0.14728427129032287,-0.4965693438576581 l 8.691199132084652 2.659438573438962" fill="#ff700a" stroke="none" /><path d="M 79.91906864156998 93.8553929516997 l -9.458740036052674 -2.894300052929096 a30.891649805063416,30.891649805063416 0 0,0 0.1599665482692229,-0.507137672814719 l 9.407518004015248 3.0566878921702294" fill="#ff7b0b" stroke="none" /><path d="M 80.02781315780177 93.51064311812611 l -10.398587138389738 -3.378705774256998 a31.93372156146671,31.93372156146671 0 0,0 0.17436223496078454,-0.5213208892885796 l 10.338887609657181 3.5571997664678996" fill="#ff890c" stroke="none" /><path d="M 80.14247586403 93.16781622104843 l -5.629548803192008 -1.9369037022251043 a26.953437299511425,26.953437299511425 0 0,0 0.15472161085914612,-0.4374188289350004 l 5.595374111523053 2.033520157586716" fill="#ff4506" stroke="none" /><path d="M 80.2630227832202 92.82701384747504 l -6.240675765084551 -2.2680413699465736 a27.640033558703056,27.640033558703056 0 0,0 0.16636063883243313,-0.4457638027650133 l 6.20071053775049 2.375128309740928" fill="#ff4e07" stroke="none" /><path d="M 80.38941819471856 92.48833698450439 l -6.3686242693408905 -2.439446206063707 a27.81984405073286,27.81984405073286 0 0,0 0.17514108689487365,-0.4457149625958927 l 6.325689632564326 2.5487101735553632" fill="#ff5107" stroke="none" /><path d="M 80.52162464483688 92.15188598940014 l -8.257377698309789 -3.327014723932919 a29.902433005971474,29.902433005971474 0 0,0 0.1964708221029699,-0.4757696796481572 l 8.198885189320618 3.4686589740343874" fill="#ff6e0a" stroke="none" /><path d="M 80.65960295795068 91.81776055985345 l -6.866924271777323 -2.905153316494809 a28.456176281893107,28.456176281893107 0 0,0 0.19473413781249538,-0.4494732387856413 l 6.815899424122148 3.0229256998670495" fill="#ff5a08" stroke="none" /><path d="M 80.803312248108 91.48605970444005 l -6.698898440192883 -2.971034487978303 a28.328184375462666,28.328184375462666 0 0,0 0.2015316719204336,-0.4440483250412492 l 6.646764451309098 3.0859048218616234" fill="#ff5808" stroke="none" /><path d="M 80.95270993114464 91.15688171328213 l -9.524585037885648 -4.421995560389322 a31.501036371711987,31.501036371711987 0 0,0 0.23257036071080497,-0.48985249249361906 l 9.447056483333093 4.585290468523473" fill="#ff830c" stroke="none" /><path d="M 81.10775173730289 90.83032412892265 l -3.8930357114391625 -1.8895514780478417 a25.327370083403245,25.327370083403245 0 0,0 0.19374230486295324,-0.39057266428801896 l 3.8599333936227964 1.9562837308348222" fill="#ff2e04" stroke="none" /><path d="M 81.26839172434947 90.50648371742162 l -6.980789611290281 -3.537989843946634 a28.826160983072597,28.826160983072597 0 0,0 0.22812552540926856,-0.4406659041943394 l 6.918854652720898 3.657628470401309" fill="#ff5f08" stroke="none" /><path d="M 81.43458229118936 90.18545643968196 l -8.394889194935473 -4.437929002191881 a30.495755811084244,30.495755811084244 0 0,0 0.24932734671306608,-0.46196570719786434 l 8.317253749003935 4.581775692722219" fill="#ff760a" stroke="none" /><path d="M 81.6062741919709 89.86733742301443 l -6.904795704425476 -3.803686418192802 a28.8831614272319,28.8831614272319 0 0,0 0.24363958772149255,-0.43340764052077785 l 6.838298475411553 3.9219775686483644" fill="#ff6008" stroke="none" /><line stroke="#e1ed5e" stroke-width="0.3" x1="26.266209847984243" x2="21.928928074336255" y1="57.711370442889674" y2="55.22380399835377" /><path d="M 25.398753493254645 57.213857153982495 a86.0,86.0 0 0,1 29.58750427330803,-30.492523968695096" fill="none" id="id23" stroke="none" /><text fill="#e1ed5e" style="font-size:6.75px; font-family:Arial;" text-anchor="middle"><textPath startOffset="21.46611528233685" xlink:href="#id23">November</textPath></text><path d="M 81.78341655067845 89.55222093294921 l -7.167784624262976 -4.110948156817645 a29.262991659675272,29.262991659675272 0 0,0 0.25436552492996617,-0.4347931359016686 l 7.095959424862684 4.233720705073205" fill="#ff6509" stroke="none" /><path d="M 81.96595687620814 89.24020034530311 l -6.728834971989753 -4.014680219579325 a28.83548832848048,28.83548832848048 0 0,0 0.25798727169636493,-0.42406324148314484 l 6.658731902007172 4.129911234269543" fill="#ff5f08" stroke="none" /><path d="M 82.15384107792192 88.93136811851018 l -13.649938017757838 -8.466031249828255 a37.06220697823619,37.06220697823619 0 0,0 0.34092360049597814,-0.5392592630048897 l 13.502186821015899 8.69973816054736" fill="#ffcc13" stroke="none" /><path d="M 82.34701348167596 88.62581576622439 l -7.944845805352419 -5.119028432113536 a30.451191827468783,30.451191827468783 0 0,0 0.287696138853867,-0.4381809571719982 l 7.855553031140633 5.255027453263202" fill="#ff750a" stroke="none" /><path d="M 82.54541684631803 88.32363383020206 l -5.450088714077173 -3.645875179208978 a27.557123821744064,27.557123821744064 0 0,0 0.2671407717449634,-0.3919961190958715 l 5.386523476663469 3.7391493215752654" fill="#ff4d07" stroke="none" /><path d="M 82.7489923806493 88.02491185347247 l -7.0645443036752775 -4.903976777371829 a29.599812466071164,29.599812466071164 0 0,0 0.29414796751623323,-0.4160514397682404 l 6.9790837163551664 5.024854717471856" fill="#ff6909" stroke="none" /><path d="M 82.95767976084542 87.72973835380427 l -6.218768980324186 -4.477437428414906 a28.662932438434584,28.662932438434584 0 0,0 0.29173049033758286,-0.39792006096714727 l 6.1407758774729695 4.5838199330535545" fill="#ff5c08" stroke="none" /><path d="M 83.17141714833178 87.43820079747576 l -6.734173816944761 -5.026765475678218 a29.403420026649556,29.403420026649556 0 0,0 0.3062493047392635,-0.4029881868968787 l 6.646648571981389 5.141938438456123" fill="#ff6709" stroke="none" /><path d="M 83.39014120810768 87.1503855733568 l -5.983500185136357 -4.628917756861377 a28.564995311651778,28.564995311651778 0 0,0 0.30421164949063184,-0.38631790167641133 l 5.902934455051755 4.7312280524908354" fill="#ff5b08" stroke="none" /><path d="M 83.6137871275137 86.86637796730984 l -12.26398417399649 -9.829637513535143 a36.7170951981444,36.7170951981444 0 0,0 0.39951960092145916,-0.48976379100034834 l 12.09296608099864 10.039285474143574" fill="#ffc712" stroke="none" /><path d="M 83.84228863543731 86.58626213691792 l -4.745724679770757 -3.939784873519863 a27.16796624389281,27.16796624389281 0 0,0 0.30180943704001295,-0.3572471778585373 l 4.67720462924362 4.0208910010075165" fill="#ff4806" stroke="none" /><path d="M 84.07557802195018 86.31012108654704 l -6.934664143232078 -5.9615798022163045 a30.14494398657652,30.14494398657652 0 0,0 0.34165437813311283,-0.3905700151371956 l 6.831017901521122 6.080065373556443" fill="#ff710a" stroke="none" /><path d="M 84.31358615837235 86.03803664274999 l -5.092297796487524 -4.532487537086839 a27.817253121452893,27.817253121452893 0 0,0 0.3214301605006532,-0.35493121141478784 l 5.013523995370826 4.619471535771182" fill="#ff5107" stroke="none" /><path d="M 84.80347519578584 85.50635884689758 l -4.812895323054056 -4.590284859104511 a27.65091546167892,27.65091546167892 0 0,0 0.33146302681088435,-0.34160178555124737 l 4.733168032540053 4.672450840205882" fill="#ff4e07" stroke="none" /><path d="M 85.05521093208273 85.24692304244772 l -4.295068802103157 -4.239971557138912 a27.035310664758427,27.035310664758427 0 0,0 0.3297847011269498,-0.32836850081507785 l 4.221448300808894 4.313275908604099" fill="#ff4606" stroke="none" /><path d="M 85.31137513191541 84.99185889309783 l -8.85137708886872 -9.0439178298292 a33.654616789221734,33.654616789221734 0 0,0 0.4175043620664183,-0.4016388655196175 l 8.694389483189875 9.19493978211113" fill="#ffa00e" stroke="none" /><path d="M 85.57189188830299 84.74124197986013 l -4.378346581395891 -4.630415193497509 a27.372649657010314,27.372649657010314 0 0,0 0.3451458013724651,-0.3207754070274101 l 4.29799289622857 4.705095186599567" fill="#ff4b06" stroke="none" /><path d="M 85.83668400450813 84.49514656593479 l -5.778769925121111 -6.326130176485921 a29.56820312885555,29.56820312885555 0 0,0 0.37873913134250303,-0.3400357316442823 l 5.669019806182637 6.424664916899482" fill="#ff6909" stroke="none" /><path d="M 86.10567301691215 84.25364557470407 l -5.303884874608128 -6.010859768033565 a29.01633519222228,29.01633519222228 0 0,0 0.3773590991209414,-0.3272420921993675 l 5.199631976840413 6.1012668536526125" fill="#ff6109" stroke="none" /><path d="M 86.37877921826538 84.01681056812374 l -5.976047611391243 -7.01231575035187 a30.213344519567684,30.213344519567684 0 0,0 0.3987333674693311,-0.3339277282977934 l 5.854456706962801 7.114144636043475" fill="#ff720a" stroke="none" /><path d="M 86.65592168130627 83.78471172551755 l -5.235096017097953 -6.361517748507044 a29.23863692444357,29.23863692444357 0 0,0 0.39137530809845683,-0.3164649474873223 l 5.124817310434995 6.4506887932585" fill="#ff6409" stroke="none" /><path d="M 87.22198572758235 83.33499621200491 l -9.783255856600082 -12.759259180129092 a37.078270739771995,37.078270739771995 0 0,0 0.5098330137189006,-0.3839956559862335 l 9.562176689122792 12.925771425621178" fill="#ffcc13" stroke="none" /><path d="M 87.51073957382395 83.11751280151077 l -4.704043605220133 -6.3587396880456915 a28.909588905887578,28.909588905887578 0 0,0 0.40260688941969397,-0.29251102723136013 l 4.593891399446658 6.438769950093719" fill="#ff6008" stroke="none" /><path d="M 87.80319425747018 82.90503203632743 l -4.704344632124656 -6.593580522138035 a29.099763115037263,29.099763115037263 0 0,0 0.41026350970735803,-0.28741580676368944 l 4.590149982833637 6.673581171665667" fill="#ff6309" stroke="none" /><path d="M 88.09926311788651 82.69761687909137 l -3.9690657774921254 -5.770591972121625 a28.00380002961062,28.00380002961062 0 0,0 0.39951462036425484,-0.2697540550647861 l 3.869146462721331 5.8380579394850765" fill="#ff5307" stroke="none" /><path d="M 88.39885842347998 82.49532879139004 l -4.616295935028425 -6.965413016583039 a29.356265113754134,29.356265113754134 0 0,0 0.42361506329932797,-0.27553102078946906 l 4.49571384594481 7.043842961532043" fill="#ff6609" stroke="none" /><path d="M 88.70189139769569 82.29822771554957 l -3.462809232325466 -5.4254975459003765 a27.436386517297535,27.436386517297535 0 0,0 0.4002849217624954,-0.2506583812854664 l 3.3689051581907283 5.484300268508774" fill="#ff4b07" stroke="none" /><path d="M 89.00827224532344 82.1063720568725 l -4.879637122696192 -7.94364754293063 a30.32268173518235,30.32268173518235 0 0,0 0.4470977390105567,-0.2693713851431174 l 4.742177317467986 8.026465537532367" fill="#ff730a" stroke="none" /><line stroke="#e1ed5e" stroke-width="0.3" x1="56.762969772571076" x2="54.21961505331055" y1="26.818313649435495" y2="22.513508569990535" /><path d="M 56.25429882871897 25.957352633546506 a86.0,86.0 0 0,1 42.265352541879196,-11.944610805530505" fill="none" id="id24" stroke="none" /><text fill="#e1ed5e" style="font-size:6.75px; font-family:Arial;" text-anchor="middle"><textPath startOffset="22.20632615414155" xlink:href="#id24">December</textPath></text><path d="M 89.3179101791058 81.91981866633112 l -8.519365965087141 -14.419620512399733 a37.74828505157183,37.74828505157183 0 0,0 0.562275567045818,-0.3257063008095354 l 8.269893665576005 14.564130970599317" fill="#ffd513" stroke="none" /><path d="M 89.63071344664047 81.73862282372117 l -4.629410788381135 -8.152867227222346 a30.375536692493707,30.375536692493707 0 0,0 0.456900015365093,-0.2542643638755253 l 4.488386683943996 8.231346988658057" fill="#ff740a" stroke="none" /><path d="M 89.94658935756843 81.56283822128135 l -3.028228389482361 -5.553531901318128 a27.325494744114888,27.325494744114888 0 0,0 0.4148985407250376,-0.22162443160892378 l 2.932184802229018 5.604835059428801" fill="#ff4a06" stroke="none" /><path d="M 90.26544431104013 81.39251694778311 l -4.1375344653391375 -7.908846063624242 a29.92575136949119,29.92575136949119 0 0,0 0.45849031686476105,-0.23485654815865153 l 4.000783660885612 7.978895137095399" fill="#ff6e0a" stroke="none" /><path d="M 90.58718382345135 81.22770947309562 l -3.466571619083759 -6.913498398905591 a28.73392390070572,28.73392390070572 0 0,0 0.44404685320546977,-0.21789186239361302 l 3.3470534988678633 6.972145421434034" fill="#ff5d08" stroke="none" /><path d="M 90.91171255644093 81.06846463323043 l -3.5354303792061565 -7.364547575806203 a29.169200019740416,29.169200019740416 0 0,0 0.4545141812104264,-0.21340050244809095 l 3.4081379866961217 7.424313060894302" fill="#ff6309" stroke="none" /><path d="M 91.23893434514133 80.91482961587045 l -3.441646479429258 -7.497308209923075 a29.249518827419436,29.249518827419436 0 0,0 0.45938163502503215,-0.2061111489824806 l 3.3120827259374517 7.5554396894220845" fill="#ff6509" stroke="none" /><path d="M 91.56875222667455 80.76684994638697 l -6.482694581671543 -14.788159593115083 a37.146671272763164,37.146671272763164 0 0,0 0.5878305813315887,-0.2516783772999978 l 6.227180242549647 14.897557498377866" fill="#ffcd13" stroke="none" /><path d="M 91.90106846888425 80.62456947434976 l -3.5300677729267314 -8.44513657417672 a30.153234960272417,30.153234960272417 0 0,0 0.48060829168070224,-0.19605218953209436 l 3.384175611657649 8.504649649892391" fill="#ff710a" stroke="none" /><path d="M 92.23578459929587 80.48803036053334 l -2.8814538722447374 -7.241277781611276 a28.793515274144994,28.793515274144994 0 0,0 0.4620904469631344,-0.17928391441587171 l 2.7563802602819267 7.2898043999177" fill="#ff5e08" stroke="none" /><path d="M 92.57280143429618 80.3572730644239 l -3.2539582128527664 -8.60574980854646 a30.200389873167843,30.200389873167843 0 0,0 0.4878336196922687,-0.1796732391299345 l 3.1053422673879285 8.660486315482716" fill="#ff720a" stroke="none" /><path d="M 92.91201910852362 80.23233633223022 l -2.646405736291001 -7.380558627967837 a28.840670187040416,28.840670187040416 0 0,0 0.46875427379582807,-0.16353916189592652 l 2.518969458431888 7.4250186430359735" fill="#ff5f08" stroke="none" /><path d="M 93.25333710446033 80.11325718540243 l -2.1500555518900173 -6.337592741709711 a27.69237033015842,27.69237033015842 0 0,0 0.45272697272228707,-0.14925696495736768 l 2.0406457569253207 6.373663430926313" fill="#ff4f07" stroke="none" /><path d="M 93.59665428221793 80.00007090966166 l -2.8053941474416617 -8.762245003182088 a30.200389873167843,30.200389873167843 0 0,0 0.4964579206693485,-0.15425189258529207 l 2.6541508540615846 8.809237030649905" fill="#ff720a" stroke="none" /><path d="M 93.94186890950719 79.89281104454417 l -4.572225177264299 -15.175405453081272 a36.84923259142279,36.84923259142279 0 0,0 0.60890686564803,-0.17775661140831783 l 4.310328093892847 15.25186039340829" fill="#ffc912" stroke="none" /><path d="M 94.28887869178378 79.79150937346287 l -2.5070534489751437 -8.871071614422723 a30.21852637812762,30.21852637812762 0 0,0 0.5017744729810344,-0.13715391810624597 l 2.353981086770387 8.912912073355265" fill="#ff720a" stroke="none" /><path d="M 94.63758080256005 79.69619591428918 l -2.0046550570304307 -7.590253957916373 a28.850515718304298,28.850515718304298 0 0,0 0.48124186728455737,-0.12267926726798532 l 1.8737043010608738 7.623636221353221" fill="#ff5f08" stroke="none" /><path d="M 95.33964822691252 79.52364482259891 l -1.1918246502560992 -5.236562825311772 a26.37047821151853,26.37047821151853 0 0,0 0.4434726784737531,-0.0969259507945829 l 1.101509247628825 5.256302274202223" fill="#ff3c05" stroke="none" /><path d="M 95.692805502759 79.44645832069477 l -1.5605422889747242 -7.446766334630572 a28.60852292355525,28.60852292355525 0 0,0 0.4828486428398773,-0.09685489534948617 l 1.4321272366677105 7.472525186057269" fill="#ff5c08" stroke="none" /><path d="M 96.04723909329186 79.375362276772 l -1.3997451456390595 -7.3035625515976195 a28.436485219365345,28.436485219365345 0 0,0 0.48153108965198943,-0.08799672876463627 l 1.2738189348841766 7.326574761712992" fill="#ff5908" stroke="none" /><path d="M 96.40284397218896 79.31037775812273 l -2.662673012936767 -15.314792676598593 a36.54453930809851,36.54453930809851 0 0,0 0.6206842783956282,-0.10241822416339501 l 2.398659528402253 15.358357163701614" fill="#ffc512" stroke="none" /><path d="M 96.75951476605007 79.25152402106235 l -1.6263995868958536 -10.413660401016427 a31.539900310911513,31.539900310911513 0 0,0 0.5371260335890505,-0.07915841501896224 l 1.4469045728781542 10.440113300196357" fill="#ff840c" stroke="none" /><path d="M 97.11714578562143 79.19881850522333 l -1.0684614889198567 -7.709464197096821 a28.78315155702512,28.78315155702512 0 0,0 0.4913493285866489,-0.06379124467070184 l 0.9355974318253499 7.7267137649316595" fill="#ff5e08" stroke="none" /><path d="M 97.47563105711357 79.15227682838746 l -1.3923085083994817 -11.498502401714541 a32.5824902531708,32.5824902531708 0 0,0 0.5573673991194776,-0.06262672155346465 l 1.194174405770286 11.520765076738604" fill="#ff920d" stroke="none" /><path d="M 97.83486435360386 79.11191278185805 l -0.8879909090152077 -8.566868125468519 a29.612767112471005,29.612767112471005 0 0,0 0.5074709905289015,-0.04819048530797457 l 0.7403947913960699 8.580884155291674" fill="#ff6a09" stroke="none" /><path d="M 98.19473922651362 79.07773832637324 l -0.6531742269562948 -7.5700321502341525 a28.598159206435376,28.598159206435376 0 0,0 0.4908122449608187,-0.03809647646155456 l 0.5227717926331419 7.580153888884169" fill="#ff5c08" stroke="none" /><path d="M 98.55514903715128 79.0497635885617 l -0.48772543976139815 -7.071984259696885 a28.088782509993585,28.088782509993585 0 0,0 0.4826427967378818,-0.029114331539532908 l 0.3659205941838934 7.079331860616724" fill="#ff5507" stroke="none" /><path d="M 98.91598698831166 79.02799685794201 l -0.39654771993978205 -7.6718636574300385 a28.68210531510635,28.68210531510635 0 0,0 0.49327644194883585,-0.021241521224878462 l 0.2644304456016221 7.67755290517911" fill="#ff5d08" stroke="none" /><path d="M 99.27714615592234 79.0124445844662 l -0.49315163305184806 -14.31831249392189 a35.32680254651335,35.32680254651335 0 0,0 0.6079126430495069,-0.01570059005297275 l 0.24661235480746213 14.324679876117223" fill="#ffb610" stroke="none" /><path d="M 99.63851952072746 79.00311137660856 l -0.16049248047058257 -9.322336697445646 a30.32371810689434,30.32371810689434 0 0,0 0.521972959743116,-0.004492786057253528 l 2.2836523071520748e-15 9.32371810689434" fill="#ff730a" stroke="none" /></svg>