<?xml version="1.0" encoding="utf-8" ?>
<svg baseProfile="full" height="200mm" version="1.1" viewBox="0,0,200,200" width="200mm" xmlns="http://www.w3.org/2000/svg" xmlns:ev="http://www.w3.org/2001/xml-events" xmlns:xlink="http://www.w3.org/1999/xlink"><defs /><rect fill="#1a1a1a" height="200" width="200" x="0" y="0" /><text alignment-baseline="middle" fill="#e1ed5e" style="dominant-baseline: central; font-size:9.0px; font-family:Arial;" text-anchor="middle" x="100.0" y="100.0">2022</text><line stroke="#e1ed5e" stroke-width="0.3" x1="100.0" x2="100.0" y1="15.0" y2="10.0" /><path d="M 100.0 14.0 a86.0,86.0 0 0,1 42.46469731375804,11.215312516191453" fill="none" id="id61" stroke="none" /><text fill="#e1ed5e" style="font-size:6.75px; font-family:Arial;" text-anchor="middle"><textPath startOffset="22.20632615414155" xlink:href="#id61">January</textPath></text><path d="M 100.0 79.0 l 0.0 -4.928007370360621 a25.92800737036062,25.92800737036062 0 0,0 0.4463080252771241,0.0038415140780324757 l -0.0848275460045957 4.927277232891147" fill="#ff3805" stroke="none" /><path d="M 100.36148047927253 79.00311137660856 l 0.287896666697968 -16.72271282219217 a37.72519083969466,37.72519083969466 0 0,0 0.6491847215074386,0.016766526075048582 l -0.5757080234002744 16.715279503974763" fill="#ffd513" stroke="none" /><path d="M 100.72285384407766 79.0124445844662 l 0.36596180401229284 -10.625444831765378 a31.631745196104237,31.631745196104237 0 0,0 0.5440045126237032,0.02342597865746674 l -0.5488071490253276 10.617571126583718" fill="#ff860c" stroke="none" /><path d="M 101.08401301168833 79.027996857942 l 0.46180171755723076 -8.934308875623152 a29.94623585153988,29.94623585153988 0 0,0 0.5145589709350195,0.031039602326397558 l -0.6155227373318621 8.925036003916452" fill="#ff6f0a" stroke="none" /><path d="M 101.44485096284872 79.0497635885617 l 0.604620115343182 -8.76694875890604 a29.787773098183735,29.787773098183735 0 0,0 0.511228841030188,0.03968119725767618 l -0.7554391457357111 8.7552422994599" fill="#ff6d0a" stroke="none" /><path d="M 101.80526077348638 79.07773832637324 l 0.9021551930676192 -10.455623529186738 a31.49447222953409,31.49447222953409 0 0,0 0.5397175805220673,0.05125268758219851 l -1.0819979006799307 10.43854529708936" fill="#ff840c" stroke="none" /><path d="M 102.16513564639614 79.11191278185805 l 0.7844508526701085 -7.567968250023043 a28.608515398789155,28.608515398789155 0 0,0 0.48938720449522927,0.05498835460446468 l -0.9146047606750631 7.553343941947977" fill="#ff5d08" stroke="none" /><path d="M 102.52436894288641 79.15227682838746 l 2.120086727127574 -17.50892289794528 a38.63681231903132,38.63681231903132 0 0,0 0.6595584835133018,0.08562962061525037 l -2.4211599391487217 17.46983495416589" fill="#ffe115" stroke="none" /><path d="M 102.88285421437855 79.19881850522331 l 1.4244795567493955 -10.278306009286203 a31.37654645959463,31.37654645959463 0 0,0 0.534344109570118,0.07874843173334563 l -1.6011926467481692 10.252263093391889" fill="#ff830c" stroke="none" /><path d="M 103.2404852339499 79.25152402106235 l 2.5244764649410123 -16.163949381240034 a37.359897341405635,37.359897341405635 0 0,0 0.6345325830156797,0.10470331308255727 l -2.8023382540955675 16.118099805217852" fill="#ffd113" stroke="none" /><path d="M 103.59715602781102 79.31037775812273 l 1.3420292559667018 -7.71889740918331 a28.834693340352725,28.834693340352725 0 0,0 0.4882741730157677,0.08922898414866129 l -1.4746985500853702 7.694652943683909" fill="#ff6008" stroke="none" /><path d="M 103.95276090670814 79.375362276772 l 1.5948733025793915 -8.321698391705185 a29.47315082916557,29.47315082916557 0 0,0 0.4974416510808631,0.09978211551873424 l -1.73788136312738 8.293012320109243" fill="#ff6909" stroke="none" /><path d="M 104.307194497241 79.44645832069477 l 2.8572908657006764 -13.634732988188746 a34.9309028691761,34.9309028691761 0 0,0 0.5874334523874261,0.12839020003926774 l -3.0915670422416306 13.583529290053608" fill="#ffb210" stroke="none" /><path d="M 104.66035177308747 79.52364482259891 l 1.6848130554587764 -7.402623709720704 a28.59193208739142,28.59193208739142 0 0,0 0.4789506882057368,0.11335215362219059 l -1.8119874306270367 7.372525643957644" fill="#ff5d08" stroke="none" /><path d="M 105.01212808612495 79.60689891045804 l 1.978992400417854 -8.052027279366396 a29.291655698868123,29.291655698868123 0 0,0 0.4886003155720064,0.12455509957914432 l -2.1173016046748856 8.016769183618385" fill="#ff6609" stroke="none" /><path d="M 105.36241919743992 79.69619591428918 l 3.959471628608962 -14.991803749432133 a36.505856804422216,36.505856804422216 0 0,0 0.6061747296856659,0.16569045200616514 l -4.216944247518339 14.921426756599676" fill="#ffc612" stroke="none" /><path d="M 105.71112130821622 79.79150937346287 l 2.7134966994815133 -9.601559773861412 a30.97762569097131,30.97762569097131 0 0,0 0.5118828164985297,0.14943263088696648 l -2.87836973370347 9.553428814055742" fill="#ff7d0b" stroke="none" /><path d="M 106.0581310904928 79.89281104454417 l 2.9030870361258545 -9.63546656841467 a31.063306133192945,31.063306133192945 0 0,0 0.5106432213877649,0.15865933456901174 l -3.0685156302243377 9.584067098963137" fill="#ff7f0b" stroke="none" /><path d="M 106.40334571778207 80.00007090966166 l 2.454559673998458 -7.666464000475183 a29.04981574098447,29.04981574098447 0 0,0 0.4749190835510754,0.15657335498464042 l -2.5861615797919506 7.6230769212313065" fill="#ff6309" stroke="none" /><path d="M 106.74666289553966 80.11325718540242 l 3.2263753133644815 -9.510197422590197 a31.042576993945776,31.042576993945776 0 0,0 0.5045423889659572,0.17602493256072016 l -3.3895997063937124 9.453251636857269" fill="#ff7e0b" stroke="none" /><path d="M 107.08798089147638 80.2323363322302 l 2.5352420903837376 -7.070534433768846 a28.511318768096867,28.511318768096867 0 0,0 0.4605496781747862,0.16962433321039175 l -2.6565740943311003 7.02584683275213" fill="#ff5c08" stroke="none" /><path d="M 107.4271985657038 80.35727306442388 l 6.642738596109529 -17.56806408143031 a39.78198210055278,39.78198210055278 0 0,0 0.6384379855984855,0.24770401968299746 l -6.944159746707682 17.451117357856766" fill="#ffef16" stroke="none" /><path d="M 107.76421540070413 80.48803036053334 l 3.992640643123346 -10.033761170878675 a31.79896025269808,31.79896025269808 0 0,0 0.5068392822331321,0.20675246919938006 l -4.164763794944865 9.963547815495716" fill="#ff880c" stroke="none" /><path d="M 108.09893153111575 80.62456947434976 l 1.9359054333282506 -4.6313518127141045 a26.019676230586995,26.019676230586995 0 0,0 0.411750525164825,0.17629008649253664 l -2.015339716283391 4.597342198258778" fill="#ff3905" stroke="none" /><path d="M 108.43124777332544 80.76684994638697 l 4.707576134557901 -10.738804103375145 a32.72532245327718,32.72532245327718 0 0,0 0.5139712630491138,0.2306039238274236 l -4.891729516073795 10.65617984903119" fill="#ff950d" stroke="none" /><path d="M 108.76106565485865 80.91482961587045 l 3.0696784615481545 -6.687010321700919 a28.357923137667807,28.357923137667807 0 0,0 0.4418728729969608,0.20746523874043124 l -3.1843295458447134 6.633180100320485" fill="#ff5a08" stroke="none" /><path d="M 109.08828744355905 81.06846463323043 l 5.226144058368443 -10.886421857503379 a33.07587523032377,33.07587523032377 0 0,0 0.5111462800484768,0.250817259735866 l -5.4127616054273515 10.794849437632681" fill="#ff990e" stroke="none" /><path d="M 109.41281617654863 81.2277094730956 l 4.37811165674162 -8.73141283523034 a30.767570413266647,30.767570413266647 0 0,0 0.4713877668020496,0.24146312295620476 l -4.527759911132425 8.654757186961634" fill="#ff7b0b" stroke="none" /><path d="M 109.73455568895987 81.39251694778311 l 3.4850768491601736 -6.661681383154162 a28.518228481179257,28.518228481179257 0 0,0 0.43300849597435254,0.231298142515638 l -3.599230391662837 6.60070451413677" fill="#ff5c08" stroke="none" /><path d="M 110.05341064243156 81.56283822128135 l 4.8383747805332185 -8.87319753937631 a31.10660700184259,31.10660700184259 0 0,0 0.4678965629802495,0.26038393071764876 l -4.990395432585503 8.788598211098481" fill="#ff7f0b" stroke="none" /><path d="M 110.36928655335952 81.73862282372117 l 4.106272048517143 -7.231566249086642 a29.316070018425904,29.316070018425904 0 0,0 0.4366744044304212,0.2529500004286185 l -4.230143185412892 7.159812091267974" fill="#ff6709" stroke="none" /><line stroke="#e1ed5e" stroke-width="0.3" x1="143.23703022742887" x2="145.7803849466894" y1="26.81831364943548" y2="22.513508569990506" /><path d="M 143.74570117128098 25.957352633546492 a86.0,86.0 0 0,1 28.547481713284135,27.462654790039103" fill="none" id="id62" stroke="none" /><text fill="#e1ed5e" style="font-size:6.75px; font-family:Arial;" text-anchor="middle"><textPath startOffset="19.985693538727396" xlink:href="#id62">February</textPath></text><path d="M 110.99172775467656 82.1063720568725 l 5.12431319580023 -8.34196004815497 a30.790142142669126,30.790142142669126 0 0,0 0.449214754678546,0.2812982381686647 l -5.267147102851039 8.25251746866336" fill="#ff7b0b" stroke="none" /><path d="M 111.2981086023043 82.29822771554956 l 4.462936292671222 -6.992487393576895 a29.29534087917873,29.29534087917873 0 0,0 0.42273591796575677,0.2749592002094993 l -4.58263923642126 6.914629269207868" fill="#ff6709" stroke="none" /><path d="M 111.90073688211348 82.69761687909136 l 4.91504505607687 -7.145943436879612 a29.673071861016055,29.673071861016055 0 0,0 0.4183463129020694,0.29307832693950875 l -5.037322508562591 7.060280267176168" fill="#ff6c09" stroke="none" /><path d="M 112.19680574252982 82.90503203632743 l 6.802311704918413 -9.53407827665998 a32.71196367465122,32.71196367465122 0 0,0 0.45556033275792757,0.3309839558209061 l -6.965417354030129 9.415575086022399" fill="#ff950d" stroke="none" /><path d="M 112.48926042617603 83.11751280151076 l 5.706300022304566 -7.713550185516639 a30.594827586206897,30.594827586206897 0 0,0 0.4206844828864938,0.3168508308061362 l -5.838230658949443 7.614182765204656" fill="#ff780b" stroke="none" /><path d="M 113.06298171725822 83.55741782278167 l 5.628016669050378 -7.084073803254037 a30.0475783100816,30.0475783100816 0 0,0 0.40220343544434517,0.32522054008857787 l -5.749123503059215 6.986147165901329" fill="#ff710a" stroke="none" /><path d="M 113.34407831869373 83.78471172551755 l 4.808352516916333 -5.842952980716924 a28.567057120294812,28.567057120294812 0 0,0 0.3770068843880042,0.3157324235373846 l -4.908216938263455 5.75931939978572" fill="#ff5d08" stroke="none" /><path d="M 113.6212207817346 84.01681056812373 l 5.747516955283121 -6.7441570569354194 a29.861016056857068,29.861016056857068 0 0,0 0.3883442220874388,0.3367682825867165 l -5.8627549760173245 6.644223780929032" fill="#ff6e0a" stroke="none" /><path d="M 113.89432698308785 84.25364557470407 l 16.54408741984677 -18.749311461654695 a46.00486970255331,46.00486970255331 0 0,0 0.5892764031935702,0.5290581730764734 l -16.864374810636328 18.461754279808925" fill="#c5ff1e" stroke="none" /><path d="M 114.16331599549186 84.49514656593476 l 5.052601738060105 -5.5311799464377245 a28.49151092392735,28.49151092392735 0 0,0 0.3592536891156649,0.33388715115156203 l -5.1470633109706165 5.443388209211522" fill="#ff5b08" stroke="none" /><path d="M 114.42810811169701 84.74124197986012 l 7.238740210817188 -7.655486387572153 a31.53593050802843,31.53593050802843 0 0,0 0.391220872648369,0.3763541695238398 l -7.369444327077975 7.52974913128601" fill="#ff850c" stroke="none" /><path d="M 114.68862486808459 84.99185889309783 l 6.443108526083345 -6.583263089293737 a30.21156883390366,30.21156883390366 0 0,0 0.3685296360012756,0.36694705262595345 l -6.555473962251943 6.471380186017665" fill="#ff730a" stroke="none" /><path d="M 114.94478906791727 85.2469230424477 l 5.040276649978678 -4.975619860980227 a28.082455909449855,28.082455909449855 0 0,0 0.33663608168525405,0.34693307332364615 l -5.125176995367041 4.888122592106466" fill="#ff5607" stroke="none" /><path d="M 115.19652480421416 85.50635884689758 l 4.797832357354004 -4.5759185995569664 a27.630100026322715,27.630100026322715 0 0,0 0.32528874398722607,0.3469953519837982 l -4.875888423311693 4.492653830695113" fill="#ff5007" stroke="none" /><path d="M 115.4437574822437 85.77008943001954 l 5.377265124937575 -4.954623376267877 a28.311858383785207,28.311858383785207 0 0,0 0.3271453563239851,0.3612420733883094 l -5.461754121877596 4.861328515610019" fill="#ff5908" stroke="none" /><path d="M 115.68641384162765 86.03803664274999 l 11.141317754191055 -9.91652214495916 a35.91530665964727,35.91530665964727 0 0,0 0.4070540574806069,0.4653331541090806 l -11.31036367524951 9.723273434647131" fill="#ffbe11" stroke="none" /><path d="M 115.9244219780498 86.31012108654704 l 0.8009717380816933 -0.6885779667576482 a22.056264806528034,22.056264806528034 0 0,0 0.24502345168955297,0.29003048242539153 l -0.8127058032583635 0.67468853470315" fill="#ff0000" stroke="none" /><path d="M 116.15771136456269 86.58626213691792 l 8.744119002262137 -7.259154312979245 a32.36463543037642,32.36463543037642 0 0,0 0.3521603809161093,0.4317069870909986 l -8.867777875254655 7.107563156280146" fill="#ff900d" stroke="none" /><path d="M 116.38621287248628 86.86637796730983 l 7.16726078523683 -5.744591193556245 a30.18531192419058,30.18531192419058 0 0,0 0.3214677065639801,0.40823134177953196 l -7.265082572394774 5.620367457823675" fill="#ff730a" stroke="none" /><path d="M 116.60985879189232 87.15038557335679 l 6.642777605812511 -5.13894380596997 a29.398525927875756,29.398525927875756 0 0,0 0.306198330589126,0.4029211108904193 l -6.730251876625751 5.023837919198517" fill="#ff6809" stroke="none" /><path d="M 116.82858285166822 87.43820079747576 l 6.760521767689995 -5.046433065610006 a29.436299026059487,29.436299026059487 0 0,0 0.29960179290941136,0.40865650882917015 l -6.846386173113032 4.929314113109342" fill="#ff6809" stroke="none" /><path d="M 117.04232023915458 87.72973835380427 l 6.557786734124104 -4.7215260550488205 a29.080679126085812,29.080679126085812 0 0,0 0.2889890829117503,0.40875456335118665 l -6.6380884368397375 4.607944991365841" fill="#ff6409" stroke="none" /><path d="M 117.2510076193507 88.02491185347247 l 5.902457156414674 -4.097293693725024 a28.185180310608054,28.185180310608054 0 0,0 0.27322919723595857,0.40093013223165985 l -5.972110819319366 3.9950855382229578" fill="#ff5708" stroke="none" /><path d="M 117.65298651832404 88.62581576622439 l 6.895383235320615 -4.442837997956531 a29.202750723874704,29.202750723874704 0 0,0 0.268626931121954,0.4249032941378849 l -6.970837762688524 4.323487056104439" fill="#ff6509" stroke="none" /><line stroke="#e1ed5e" stroke-width="0.3" x1="172.23445277983987" x2="176.4835382374775" y1="55.19839476539836" y2="52.563006222186495" /><path d="M 173.08426987136738 54.67131705675599 a86.0,86.0 0 0,1 12.851231095245387,41.99856678651699" fill="none" id="id63" stroke="none" /><text fill="#e1ed5e" style="font-size:6.75px; font-family:Arial;" text-anchor="middle"><textPath startOffset="22.20632615414155" xlink:href="#id63">March</textPath></text><path d="M 117.84615892207809 88.93136811851018 l 6.059113095462065 -3.758012728386843 a28.129902605948935,28.129902605948935 0 0,0 0.2516744902573802,0.4136866886315777 l -6.122903384005669 3.6531582665481843" fill="#ff5608" stroke="none" /><path d="M 118.03404312379186 89.2402003453031 l 6.97697680473627 -4.162731124635632 a29.124440642274283,29.124440642274283 0 0,0 0.25316118455763703,0.4327345278126913 l -7.047597663764234 4.042017184469046" fill="#ff6409" stroke="none" /><path d="M 118.21658344932153 89.55222093294921 l 7.213827783859826 -4.13735534564947 a29.316070018425904,29.316070018425904 0 0,0 0.24729132338572152,0.4399036707958187 l -7.28397674853798 4.012568164918857" fill="#ff6709" stroke="none" /><path d="M 118.3937258080291 89.86733742301442 l 8.049776774501812 -4.434429039954362 a30.190379047117663,30.190379047117663 0 0,0 0.2468306459006983,0.45733969977568634 l -8.124915519620975 4.295208356846217" fill="#ff730a" stroke="none" /><path d="M 118.56541770881063 90.18545643968196 l 9.965248998302101 -5.268094255527388 a32.27204527507239,32.27204527507239 0 0,0 0.2553956903498414,0.4933431829403519 l -10.054454121812059 5.095778350326691" fill="#ff8f0d" stroke="none" /><path d="M 118.89224826269711 90.83032412892265 l 7.875499824170745 -3.822508560453492 a29.754145827849435,29.754145827849435 0 0,0 0.21967316713550242,0.46268771362960026 l -7.940131185148004 3.6863784311833516" fill="#ff6d0a" stroke="none" /><path d="M 119.04729006885535 91.15688171328212 l 7.711587101887852 -3.5802718745712028 a29.50217162411161,29.50217162411161 0 0,0 0.2098836231043793,0.46245074238198847 l -7.772073041955578 3.4469991233471515" fill="#ff6909" stroke="none" /><path d="M 119.196687751892 91.48605970444005 l 8.738476446153877 -3.875609568602702 a30.559357725717295,30.559357725717295 0 0,0 0.20912683840125823,0.48269357611925884 l -8.803893994397816 3.7246168478968404" fill="#ff780b" stroke="none" /><path d="M 119.34039704204932 91.81776055985345 l 7.2142548850585415 -3.0520966412146184 a28.833311397736246,28.833311397736246 0 0,0 0.1894462699116488,0.458759169334395 l -7.2657228418563875 2.9274629014269204" fill="#ff6008" stroke="none" /><path d="M 119.47837535516314 92.15188598940014 l 9.672960859558176 -3.8973732799414322 a31.42859963148197,31.42859963148197 0 0,0 0.1978601709270252,0.5035325533687663 l -9.738614580366901 3.7302917216768816" fill="#ff830c" stroke="none" /><path d="M 119.61058180528143 92.48833698450437 l 9.217678926988912 -3.5307518446968604 a30.870755461963675,30.870755461963675 0 0,0 0.1858058018990761,0.49786717225678256 l -9.277089317389613 3.3715615354107444" fill="#ff7c0b" stroke="none" /><path d="M 119.7369772167798 92.82701384747503 l 9.290943473547745 -3.3765965349036113 a30.885496183206108,30.885496183206108 0 0,0 0.17729292440694677,0.501230971820399 l -9.347689478764503 3.2161679366565976" fill="#ff7c0b" stroke="none" /><path d="M 119.85752413597 93.16781622104841 l 5.313285939513952 -1.8280902372477714 a26.618978678599632,26.618978678599632 0 0,0 0.1453430539199898,0.4345572316076854 l -5.343966287205711 1.736359902717772" fill="#ff4106" stroke="none" /><path d="M 119.97218684219823 93.5106431181261 l 10.484215217176573 -3.4065280236054267 a32.02375625164517,32.02375625164517 0 0,0 0.16582894673857318,0.5257230780074091 l -10.541299647683353 3.225554779171598" fill="#ff8b0c" stroke="none" /><path d="M 120.08093135843002 93.85539295169968 l 8.456914125438667 -2.5877492041835084 a29.843972097920506,29.843972097920506 0 0,0 0.14608496849662508,0.49252589104265526 l -8.500204991046994 2.441793926394323" fill="#ff6e0a" stroke="none" /><path d="M 120.18372546131832 94.20196356495316 l 10.58596288014655 -3.0409548820297023 a32.01408265332982,32.01408265332982 0 0,0 0.1475898442392493,0.5309591961698183 l -10.636739494952161 2.8582843824409316" fill="#ff8b0c" stroke="none" /><path d="M 120.28053869075195 94.5502522615342 l 10.578906950646692 -2.842743731260785 a31.954198473282442,31.954198473282442 0 0,0 0.13816944921516283,0.5324232506915711 l -10.626272731732158 2.6602240550203633" fill="#ff8a0c" stroke="none" /><path d="M 120.37134235888165 94.90015583598534 l 8.757067566179776 -2.1922796806658558 a30.027309818373254,30.027309818373254 0 0,0 0.12120623661925255,0.5024781011292798 l -8.793506603059848 2.0412163478771697" fill="#ff700a" stroke="none" /><path d="M 120.45610955862082 95.25157060432595 l 13.599714146325356 -3.1568701878584116 a34.96130560673862,34.96130560673862 0 0,0 0.1310309994755935,0.58738627805203 l -13.652039532802986 2.9223057402564176" fill="#ffb210" stroke="none" /><path d="M 120.53481517161879 95.60439243477599 l 8.675990941049172 -1.857150945726503 a29.87253224532772,29.87253224532772 0 0,0 0.10330306306941225,0.5037424228625714 l -8.70667330003358 1.7075328667005196" fill="#ff6e0a" stroke="none" /><path d="M 120.6074358757038 95.95851677861258 l 9.264938266833926 -1.8170185159593921 a30.441431955777837,30.441431955777837 0 0,0 0.09641856236599235,0.5150718155866456 l -9.294842553109778 1.6572686229101836" fill="#ff760a" stroke="none" /><path d="M 120.67395015179393 96.31383870115 l 10.048551975595553 -1.791654866629774 a31.20702816530666,31.20702816530666 0 0,0 0.08973973039946852,0.5296489686925342 l -10.077903567515245 1.618420109621402" fill="#ff800b" stroke="none" /><path d="M 120.73433829027371 96.67025291283417 l 5.587919633111844 -0.8973693233508682 a26.659515662016318,26.659515662016318 0 0,0 0.06886293373462223,0.4537206933715152 l -5.602538460285766 0.8010495175872707" fill="#ff4206" stroke="none" /><path d="M 120.78858239683441 97.02765380044208 l 10.967039717554348 -1.5680645367063215 a32.07857330876546,32.07857330876546 0 0,0 0.07345076900961664,0.5472935442506998 l -10.9924064856218 1.3790526503909575" fill="#ff8c0c" stroke="none" /><path d="M 120.83666639777658 97.38593545837742 l 7.999546707332755 -1.0035833466587334 a29.06225322453277,29.06225322453277 0 0,0 0.05799946540764182,0.49690399993605866 l -8.015636525743986 0.8657356083978219" fill="#ff6309" stroke="none" /><path d="M 120.87857604477298 97.74499172005257 l 8.698032733226478 -0.9394383884522592 a29.748618057383524,29.748618057383524 0 0,0 0.050605054475775915,0.5095859925223215 l -8.712914913384482 0.7895768652255027" fill="#ff6d0a" stroke="none" /><path d="M 120.91429891909075 98.10471618934814 l 1.2212394428932953 -0.1106704725795222 a22.22624374835483,22.22624374835483 0 0,0 0.031249586639233533,0.3813241092990514 l -1.2229635133520236 0.08963244607270202" fill="#ff0200" stroke="none" /><path d="M 120.94382443527127 98.46500227214037 l 5.14407304996342 -0.377015213627365 a26.1578704922348,26.1578704922348 0 0,0 0.029046956212474013,0.44934355611984284 l -5.14980059718031 0.288412593254487" fill="#ff3b05" stroke="none" /><path d="M 120.98425023603335 99.18683210126433 l 2.776081713905352 -0.10757689736936951 a23.77816530665965,23.77816530665965 0 0,0 0.012328758530623355,0.40913147451234916 l -2.777522166891621 0.05977527543202127" fill="#ff1902" stroke="none" /><line stroke="#e1ed5e" stroke-width="0.3" x1="184.98032266829074" x2="189.97916517819016" y1="98.17113171792111" y2="98.06355123074" /><path d="M 185.9800911702706 98.14961562048488 a86.0,86.0 0 0,1 -9.607161424134198,41.387399972396054" fill="none" id="id64" stroke="none" /><text fill="#e1ed5e" style="font-size:6.75px; font-family:Arial;" text-anchor="middle"><textPath startOffset="21.466115282336823" xlink:href="#id64">April</textPath></text><path d="M 120.99513854157772 99.54816195383933 l 2.531132785481073 -0.05447270996093334 a23.531718873387735,23.531718873387735 0 0,0 0.005229636404286628,0.40504110277352207 l -2.5316954290030753 0.010895349126948563" fill="#ff1502" stroke="none" /><path d="M 120.99824983174949 100.27111621757518 l 5.225150173101832 0.06746385829983552 a26.225585680442222,26.225585680442222 0 0,0 -0.00971337911768789,0.45134255960860714 l -5.223214731299136 -0.15739623369855751" fill="#ff3c05" stroke="none" /><path d="M 120.92983693683757 101.71520430193887 l 2.5191281756696458 0.206443055293906 a23.5275730455383,23.5275730455383 0 0,0 -0.036552217582442245,0.40335067517508466 l -2.5152013618101283 -0.24977511901756122" fill="#ff1502" stroke="none" /><path d="M 120.81339534386255 102.79330883721812 l 5.012052603424653 0.672653865380812 a26.056988681231903,26.056988681231903 0 0,0 -0.0634871692154718,0.4440291136254314 l -4.99973138319258 -0.7588284509866526" fill="#ff3a05" stroke="none" /><path d="M 120.76222939487914 103.15116336523771 l 3.4949843901092956 0.5304472156013454 a24.535009212950776,24.535009212950776 0 0,0 -0.06696684213409353,0.4170025898938431 l -3.4853357936139133 -0.5905290351883935" fill="#ff2403" stroke="none" /><path d="M 120.5718875245553 104.21870165774334 l 8.725498314793391 1.7893484086629188 a29.907080810739668,29.907080810739668 0 0,0 -0.10775942945192281,0.5034161794381118 l -8.693404846617025 -1.9392784075171998" fill="#ff6f0a" stroke="none" /><path d="M 120.49622156327973 104.57218783832717 l 9.089949275388035 2.0277374246577757 a30.313371939984208,30.313371939984208 0 0,0 -0.11799037462433186,0.5082994457866179 l -9.05369833483315 -2.1839055277929584" fill="#ff740a" stroke="none" /><path d="M 120.41448212921028 104.9243191809786 l 11.350932109573188 2.738037259793052 a32.676493814161624,32.676493814161624 0 0,0 -0.1366012593043249,0.5456541279395087 l -11.302119535973802 -2.9330192271299564" fill="#ff940d" stroke="none" /><path d="M 120.32669344350535 105.2749913415812 l 10.59540265635732 2.7496187428708034 a31.9463674651224,31.9463674651224 0 0,0 -0.142711913609314,0.5310841206752337 l -10.54650266640623 -2.9315937967215855" fill="#ff8a0c" stroke="none" /><path d="M 120.23288151984713 105.62410040840565 l 9.560777698090435 2.657593467532567 a30.92326928138984,30.92326928138984 0 0,0 -0.1469699983731716,0.5116218449894141 l -9.513615062831164 -2.8217727880265633" fill="#ff7d0b" stroke="none" /><path d="M 120.13307415673323 105.97154293290107 l 9.355952794823054 2.7750095865909734 a30.758818110028955,30.758818110028955 0 0,0 -0.15492664120926564,0.5063092274673486 l -9.306799381107655 -2.935645786610379" fill="#ff7a0b" stroke="none" /><path d="M 120.02730092923936 106.31721596034902 l 9.357759434362716 2.951720127476407 a30.81225322453277,30.81225322453277 0 0,0 -0.16390321184904483,0.5044422167979568 l -9.305563971497424 -3.112361244252159" fill="#ff7b0b" stroke="none" /><path d="M 119.9155931802556 106.66101706037122 l 11.373661236464743 3.8040620155910507 a32.99295867333509,32.99295867333509 0 0,0 -0.18477497401406032,0.5370425657329788 l -11.306495431507452 -3.99927728441333" fill="#ff980e" stroke="none" /><path d="M 119.79798401119884 107.00284435728193 l 7.6637497553221445 2.710783416095335 a29.129047117662545,29.129047117662545 0 0,0 -0.17127288662223586,0.4712694252065741 l -7.615952607694682 -2.84230063830804" fill="#ff6409" stroke="none" /><path d="M 119.67450827220406 107.3425965602758 l 5.227632681872595 1.9509711357072186 a26.57982363779942,26.57982363779942 0 0,0 -0.16366301160777105,0.4272724789453533 l -5.1932753906713165 -2.040667181485716" fill="#ff4106" stroke="none" /><path d="M 119.54520255179757 107.68017299344265 l 8.985442552438656 3.5307770816129467 a30.65425111871545,30.65425111871545 0 0,0 -0.19720519943027906,0.4894471323052586 l -8.923334738750983 -3.684923581761019" fill="#ff790b" stroke="none" /><path d="M 119.41010516605496 108.01547362559984 l 9.499404588046245 3.9228137242422987 a31.277507238747038,31.277507238747038 0 0,0 -0.20978124787276073,0.4958609015923744 l -9.430472358981175 -4.085749151500837" fill="#ff810b" stroke="none" /><path d="M 119.26925614724726 108.34839909993367 l 8.982428761629196 3.89163440538498 a30.789220847591473,30.789220847591473 0 0,0 -0.21487784806629928,0.48449282129431537 l -8.914109828831624 -4.045675563171983" fill="#ff7b0b" stroke="none" /><path d="M 119.12269723197855 108.67885076344098 l 8.32895227336505 3.7801013591051187 a30.14661753092919,30.14661753092919 0 0,0 -0.21852763831565492,0.4706890918005661 l -8.262650018209564 -3.9229105181845156" fill="#ff720a" stroke="none" /><path d="M 118.97047184881838 109.00673069616215 l 11.034898931450503 5.239108638256294 a33.21545143458805,33.21545143458805 0 0,0 -0.24966432566770663,0.5143824590060508 l -10.943081349168082 -5.4282800532276205" fill="#ff9b0e" stroke="none" /><path d="M 118.81262510543309 109.33194174019688 l 7.021102122133864 3.4827949628786015 a28.83745722558568,28.83745722558568 0 0,0 -0.224412172370799,0.44278650607589565 l -6.960111279976795 -3.6031356806571915" fill="#ff6008" stroke="none" /><path d="M 118.64920377521936 109.65438752849418 l 13.725499804030886 7.1054665779599215 a36.455646222690184,36.455646222690184 0 0,0 -0.29328999954115037,0.5547941499096984 l -13.601157296264843 -7.340675742955754" fill="#ffc512" stroke="none" /><line stroke="#e1ed5e" stroke-width="0.3" x1="174.80103733775053" x2="179.2010983576182" y1="140.37084112569926" y2="142.7455964860345" /><path d="M 175.68104954172406 140.8457921977663 a86.0,86.0 0 0,1 -30.038265399797805,32.042727171017184" fill="none" id="id65" stroke="none" /><text fill="#e1ed5e" style="font-size:6.75px; font-family:Arial;" text-anchor="middle"><textPath startOffset="22.206326154141568" xlink:href="#id65">May</textPath></text><path d="M 118.30583269289576 110.29060199501025 l 7.463196596256924 4.195427057104072 a29.561595156620164,29.561595156620164 0 0,0 -0.25317113711760103,0.44142521742319224 l -7.389873462986944 -4.323272120385579" fill="#ff6a09" stroke="none" /><path d="M 118.12598468904814 110.60418214915192 l 10.38741225764198 6.076911876954333 a33.03441695182943,33.03441695182943 0 0,0 -0.2913621799827374,0.4883397727723483 l -10.281269201961017 -6.254813743612785" fill="#ff990e" stroke="none" /><path d="M 117.94076556474637 110.91462005526583 l 8.54339035810035 5.19754072957282 a31.00019742037378,31.00019742037378 0 0,0 -0.2812682755169145,0.45349401790188615 l -8.452657442915473 -5.34383107883998" fill="#ff7e0b" stroke="none" /><path d="M 117.75023020441432 111.22182372390056 l 9.526517557502094 6.022733198488085 a32.27066333245591,32.27066333245591 0 0,0 -0.30087804457578177,0.46696940680667315 l -9.421434649549262 -6.185824205216211" fill="#ff8f0d" stroke="none" /><path d="M 117.55443506779139 111.5257021239791 l 6.267350731845497 4.11494971856374 a28.497499341932087,28.497499341932087 0 0,0 -0.27275756529944617,0.40773555189023347 l -6.19559006113533 -4.222222184659781" fill="#ff5c08" stroke="none" /><path d="M 117.35343817320211 111.8261652097733 l 7.16626803212913 4.8837278722293584 a29.672150565938406,29.672150565938406 0 0,0 -0.29126620001005,0.4195906847741801 l -7.081140924956944 -5.006359819190559" fill="#ff6c09" stroke="none" /><path d="M 117.14729908036423 112.12312394758627 l 4.8942848037575555 3.460254646090913 a26.993945775204,26.993945775204 0 0,0 -0.2715079443447766,0.37710078793901275 l -4.833997067037176 -3.5439890394810574" fill="#ff4706" stroke="none" /><path d="M 116.93607887273984 112.41649034213515 l 6.5224782128782435 4.781879462509139 a29.087588839168202,29.087588839168202 0 0,0 -0.29951730311789093,0.4012523739445535 l -6.43919964306526 -4.893444715963008" fill="#ff6409" stroke="none" /><path d="M 116.71984013943494 112.70617746262583 l 7.235434901087397 5.4985406024103325 a30.08765464595946,30.08765464595946 0 0,0 -0.3169135282658735,0.4096534556571639 l -7.139714555603455 -5.622272052180748" fill="#ff710a" stroke="none" /><path d="M 116.498646956653 112.99209946851258 l 6.5910625246679935 5.190228031950316 a29.389312977099237,29.389312977099237 0 0,0 -0.3163998686255225,0.3947574848141535 l -6.5007447439876165 -5.3029133503427195" fill="#ff6809" stroke="none" /><path d="M 116.27256486870786 113.27417163493432 l 8.708827710510096 7.104133534024911 a32.23887865227692,32.23887865227692 0 0,0 -0.35448028760749484,0.4269943419240954 l -8.585251423009058 -7.252989133062777" fill="#ff8e0d" stroke="none" /><path d="M 116.0416608686014 113.55231037782055 l 6.226928813081739 5.260631842719849 a29.151618847065016,29.151618847065016 0 0,0 -0.3271332066404062,0.3805298248807112 l -6.135453096870554 -5.3670387667620885" fill="#ff6509" stroke="none" /><path d="M 115.56566222782051 114.09645910891815 l 3.660600700720886 3.3150859460101687 a25.93860226375362,25.93860226375362 0 0,0 -0.30255970457508313,0.32836880304886457 l -3.6029945881500804 -3.377606003860368" fill="#ff3805" stroke="none" /><path d="M 115.32070863581623 114.36230785411682 l 7.204644900733273 6.753951824527428 a30.875361937351933,30.875361937351933 0 0,0 -0.3668190727225043,0.38460833122621907 l -7.087319276631804 -6.876967272336154" fill="#ff7c0b" stroke="none" /><path d="M 115.07121518719521 114.62390073753431 l 5.840971964713628 5.667611613379756 a29.13872071597789,29.13872071597789 0 0,0 -0.35238339522433626,0.3569625189251355 l -5.742547944433755 -5.767314626285556" fill="#ff6409" stroke="none" /><path d="M 114.81725581225074 114.88116024355365 l 7.155433155801966 7.186293383386718 a31.141155567254543,31.141155567254543 0 0,0 -0.38311042970823866,0.3749541895263088 l -7.030672773717934 -7.308397675835599" fill="#ff800b" stroke="none" /><path d="M 114.55890576462653 115.13401014063108 l 5.743339503181616 5.97021230080524 a29.284285338246907,29.284285338246907 0 0,0 -0.3662824939920062,0.3463429602699895 l -5.639721174798803 -6.068189897821152" fill="#ff6609" stroke="none" /><path d="M 114.29624159901734 115.38237550388516 l 6.043319993302252 6.5024514858158025 a29.877138720715976,29.877138720715976 0 0,0 -0.37972484691429037,0.3468696444669829 l -5.930495596921098 -6.605513896869368" fill="#ff6e0a" stroke="none" /><path d="M 114.0293411484842 115.62618273729858 l 3.3919320465603415 3.778007066124964 a26.077257172940246,26.077257172940246 0 0,0 -0.3365923796165234,0.2970036400866616 l -3.3263973140372305 -3.8358338479839142" fill="#ff3a05" stroke="none" /><path d="M 113.75828350139079 115.86535959552629 l 7.67980697244651 8.855966605847097 a32.7220979205054,32.7220979205054 0 0,0 -0.4287132769884498,0.36535875538547363 l -7.5262282188810135 -8.986849751455518" fill="#ff950d" stroke="none" /><path d="M 113.48314897796784 116.09983520530334 l 5.217518450476674 6.230086708273146 a29.126283232429586,29.126283232429586 0 0,0 -0.3871436045066185,0.3185928299065427 l -5.109504717425364 -6.318974657036867" fill="#ff6409" stroke="none" /><path d="M 113.20401910651253 116.32954008644616 l 6.781874777989621 8.387211132844978 a31.78606212161095,31.78606212161095 0 0,0 -0.42841936759727606,0.34036225611793214 l -6.636497917674994 -8.502707302968036" fill="#ff880c" stroke="none" /><path d="M 112.92097659922987 116.55440617244103 l 6.077008407126609 7.7858871357223 a30.876743879968412,30.876743879968412 0 0,0 -0.4217928941346321,0.32341280505073966 l -5.942086784498483 -7.889339282600411" fill="#ff7c0b" stroke="none" /><path d="M 112.63410532772338 116.77436683061366 l 4.134878728824094 5.489899822601473 a27.872861279284024,27.872861279284024 0 0,0 -0.38572725739039904,0.2853518035810752 l -4.03976650101513 -5.5602615749223165" fill="#ff5307" stroke="none" /><path d="M 112.34349029814194 116.9893568818739 l 3.947707478874033 5.433553201231055 a27.71624111608318,27.71624111608318 0 0,0 -0.3883872540578291,0.2771039934490878 l -3.85359289696732 -5.500701456524362" fill="#ff5107" stroke="none" /><path d="M 112.04921762599082 117.19931262002967 l 2.864292607985929 4.088552927596332 a25.992037378257436,25.992037378257436 0 0,0 -0.3686452089399362,0.2535575361953708 l -2.7934905144231097 -4.137251253156797" fill="#ff3905" stroke="none" /><path d="M 111.7513745106137 117.40417183066458 l 5.369420265334814 7.952287865945934 a30.595288233745723,30.595288233745723 0 0,0 -0.4390064021033839,0.29094950502669154 l -5.231739164491466 -8.043535392063944" fill="#ff780b" stroke="none" /><path d="M 111.45004920935366 117.60387380957326 l 4.441075943664815 6.827930523402528 a29.145169781521453,29.145169781521453 0 0,0 -0.4229077911838797,0.2699197615231555 l -4.322886350434005 -6.903364713749492" fill="#ff6409" stroke="none" /><path d="M 111.1453310114006 117.79835938074945 l 5.119156050884381 8.174954967831729 a30.645498815477758,30.645498815477758 0 0,0 -0.449497669696045,0.27611818169931757 l -4.977679181256028 -8.261861616359424" fill="#ff790b" stroke="none" /><line stroke="#e1ed5e" stroke-width="0.3" x1="143.8653032363475" x2="146.44561519142675" y1="172.8068346515853" y2="177.08958963109032" /><path d="M 144.38136562736335 173.6633856474863 a86.0,86.0 0 0,1 -40.68145358897372,12.25698825130547" fill="none" id="id66" stroke="none" /><text fill="#e1ed5e" style="font-size:6.75px; font-family:Arial;" text-anchor="middle"><textPath startOffset="21.466115282336833" xlink:href="#id66">June</textPath></text><path d="M 110.8373102113329 117.98757091392108 l 4.83433229046385 8.023937047150543 a30.367728349565674,30.367728349565674 0 0,0 -0.45006727363176574,0.2659076783387483 l -4.695497145803703 -8.10596329778304" fill="#ff750a" stroke="none" /><path d="M 110.5260780823613 118.17145234162733 l 3.6158283489027334 6.242101949413966 a28.213740458015266,28.213740458015266 0 0,0 -0.42233448108296917,0.23981254061179688 l -3.507845100898565 -6.303417655820391" fill="#ff5808" stroke="none" /><path d="M 110.21172684928248 118.3499491758327 l 2.50880364815223 4.508191426895809 a26.159252434851275,26.159252434851275 0 0,0 -0.39534999911387153,0.2155763417536666 l -2.43083083716971 -4.550708420409246" fill="#ff3b05" stroke="none" /><path d="M 109.89434966115114 118.52300852407294 l 2.5180803011466937 4.7140463476417915 a26.34443274545933,26.34443274545933 0 0,0 -0.4018267369595006,0.21021675727278333 l -2.4365626616606972 -4.756692523859292" fill="#ff3e05" stroke="none" /><path d="M 109.57404056367764 118.69057910512821 l 4.0053545150140355 7.819310447771458 a29.785469860489602,29.785469860489602 0 0,0 -0.4583361044404823,0.2298192376679066 l -3.8701645028907925 -7.887097526348667" fill="#ff6d0a" stroke="none" /><path d="M 109.2508944713604 118.85261126421891 l 4.870579299411954 9.925865920061906 a32.056462226901814,32.056462226901814 0 0,0 -0.49746642611792147,0.2388141155215323 l -4.6990002052938005 -10.008234312082998" fill="#ff8c0c" stroke="none" /><path d="M 108.92500713936063 119.00905698771935 l 3.843266104079768 8.185636521144128 a30.04297183469334,30.04297183469334 0 0,0 -0.4700037023787986,0.2157556475362377 l -3.7017944059335504 -8.25057923901444" fill="#ff710a" stroke="none" /><path d="M 108.59647513512805 119.15986991738527 l 4.552239761277666 10.146056411239755 a32.12049223479863,32.12049223479863 0 0,0 -0.506401471369428,0.22199152328092875 l -4.376917615250484 -10.222912487815139" fill="#ff8d0d" stroke="none" /><path d="M 108.2653958097858 119.30500536409082 l 3.5131739625826857 8.205516560059397 a29.925967359831535,29.925967359831535 0 0,0 -0.475293534126249,0.19867273581221906 l -3.371408968958976 -8.26477433889159" fill="#ff6f0a" stroke="none" /><path d="M 107.93186726928326 119.44442032107085 l 2.5934985855035597 6.357781199128762 a27.866412213740457,27.866412213740457 0 0,0 -0.44570193090118765,0.17735399654512737 l -2.483675578560506 -6.401482040079958" fill="#ff5307" stroke="none" /><path d="M 107.59598834532513 119.57807347666477 l 4.173061509797927 10.75574384099038 a32.536917609897344,32.536917609897344 0 0,0 -0.5238905127893199,0.1980905644077025 l -3.987300776248332 -10.825982655504713" fill="#ff920d" stroke="none" /><path d="M 107.2578585660854 119.70592522655815 l 1.7092298316551042 4.640756629646579 a25.94551197683601,25.94551197683601 0 0,0 -0.4204166769125826,0.15074646263194888 l -1.6290935941127866 -4.669490633318488" fill="#ff3805" stroke="none" /><path d="M 106.91757812671514 119.82793768551818 l 2.996888830451522 8.590018629660968 a30.097788891813636,30.097788891813636 0 0,0 -0.4906373385396917,0.16645082394600416 l -2.8485817589746034 -8.640332440505095" fill="#ff710a" stroke="none" /><path d="M 106.57524785965236 119.94407469862006 l 3.3357974137501074 10.11815740172161 a31.653856277967886,31.653856277967886 0 0,0 -0.5189403362887369,0.16614830808396075 l -3.1611357323704303 -10.174078556465279" fill="#ff860c" stroke="none" /><path d="M 106.2309692047433 120.05430185196036 l 3.1391302475506597 10.103254159734433 a31.579692024216897,31.579692024216897 0 0,0 -0.5205010337643446,0.15682269173811053 l -2.964754239346069 -10.15579222057827" fill="#ff850c" stroke="none" /><path d="M 105.88484417918355 120.15858648285463 l 2.112259921557876 7.235565293913976 a28.53757567780995,28.53757567780995 0 0,0 -0.47273014838886485,0.13359826190851556 l -1.9873986050644057 -7.270852349161011" fill="#ff5c08" stroke="none" /><path d="M 105.53697534728816 120.25689768951611 l 2.8493779426028816 10.424384043959988 a31.80679126085812,31.80679126085812 0 0,0 -0.5293703585318883,0.13981152306058905 l -2.6695171412594956 -10.471886916324161" fill="#ff880c" stroke="none" /><path d="M 105.18746579009965 120.34920634021253 l 1.6031895568288597 6.288934985681635 a27.490063174519612,27.490063174519612 0 0,0 -0.4595379228388916,0.11294324093168455 l -1.494698349246757 -6.31559948492735" fill="#ff4e07" stroke="none" /><path d="M 104.48393922423573 120.51570834832081 l 1.6189707736886916 7.407400180164967 a28.58225848907607,28.58225848907607 0 0,0 -0.48155462405084565,0.10091445353776372 l -1.4912246882084679 -7.434170614429273" fill="#ff5d08" stroke="none" /><path d="M 104.13013068566511 120.58985236759428 l 1.5247455347842358 7.601281375506968 a28.752698078441696,28.752698078441696 0 0,0 -0.4861018564899394,0.09316257772846619 l -1.393676063722592 -7.626401151583902" fill="#ff5f08" stroke="none" /><path d="M 103.7750983002368 120.6578951692458 l 1.35243716415433 7.400735805565555 a28.523295604106345,28.523295604106345 0 0,0 -0.4837429079242491,0.08410490519389527 l -1.224845284758031 -7.422919289280456" fill="#ff5c08" stroke="none" /><path d="M 103.41894727170886 120.7198165907248 l 1.0408785027649219 6.308026990933346 a27.393327191366147,27.393327191366147 0 0,0 -0.4659006690092198,0.07276410276804557 l -0.9321419701471849 -6.325009401048497" fill="#ff4c07" stroke="none" /><path d="M 103.06178313531738 120.77559828337769 l 0.9151499737175262 6.209710937292805 a27.27678336404317,27.27678336404317 0 0,0 -0.4650969641454554,0.06445820125737105 l -0.8081244183852403 -6.224543704042779" fill="#ff4b06" stroke="none" /><path d="M 102.70371172650421 120.8252237178851 l 1.8172420595730336 13.997229094053637 a35.11470123716768,35.11470123716768 0 0,0 -0.6000811105601547,0.07266146553468511 l -1.5760335259614986 -14.026436088313673" fill="#ffb410" stroke="none" /><path d="M 102.34483914955558 120.86867818915974 l 0.7926202354709925 7.054188183183108 a28.098578573308764,28.098578573308764 0 0,0 -0.4811110922227658,0.049869131853462506 l -0.671076546642624 -7.066786683492328" fill="#ff5608" stroke="none" /><path d="M 101.98527174616119 120.90594882070398 l 0.8372997250030976 8.817203605678587 a29.856870229007633,29.856870229007633 0 0,0 -0.512053403210976,0.04418212223739648 l -0.6854020040505798 -8.830309980194647" fill="#ff6e0a" stroke="none" /><path d="M 101.62511606390274 120.93702456842531 l 0.6868992154808665 8.849599157870214 a29.876217425638323,29.876217425638323 0 0,0 -0.5130703128928865,0.03538433271271592 l -0.5344661418090496 -8.860111835099215" fill="#ff6e0a" stroke="none" /><path d="M 101.26447882468166 120.96189622390904 l 0.3861836157770201 6.401958434796119 a27.413595683074494,27.413595683074494 0 0,0 -0.4712683394894581,0.024359190132811334 l -0.2759272078740824 -6.407657431691132" fill="#ff4d07" stroke="none" /><path d="M 100.90346689309514 120.98055641714683 l 0.2801286420527297 6.505224290523175 a27.51125296130561,27.51125296130561 0 0,0 -0.4732978949928653,0.01630133648325 l -0.1681103953852121 -6.509082425432519" fill="#ff4e07" stroke="none" /><line stroke="#e1ed5e" stroke-width="0.3" x1="102.19456741930631" x2="102.32365962044197" y1="184.97166512339345" y2="189.96999836594603" /><path d="M 102.22038585953345 185.97133177190398 a86.0,86.0 0 0,1 -42.740103519485714,-10.115201625700543" fill="none" id="id67" stroke="none" /><text fill="#e1ed5e" style="font-size:6.75px; font-family:Arial;" text-anchor="middle"><textPath startOffset="22.20632615414155" xlink:href="#id67">July</textPath></text><path d="M 100.54218724476979 120.99299961872073 l 0.11177230249948515 4.327722436095846 a25.32916556988681,25.32916556988681 0 0,0 -0.4359514980161832,0.007505300393264169 l -0.03726111459063402 -4.32900521376827" fill="#ff2f04" stroke="none" /><path d="M 99.45781275523022 120.99299961872073 l -0.12863686144226427 4.9807029015548725 a25.98236377994209,25.98236377994209 0 0,0 -0.44699520233709383,-0.015395418565732346 l 0.21435241545400116 -4.977750684563046" fill="#ff3805" stroke="none" /><path d="M 98.73552117531835 120.96189622390904 l -0.2689389024329486 4.458334337698999 a25.466438536456963,25.466438536456963 0 0,0 -0.4373402898371859,-0.03016154693695032 l 0.3456419530490646 -4.453044446245764" fill="#ff3104" stroke="none" /><path d="M 98.37488393609728 120.93702456842531 l -0.7715273091832615 9.939896962675027 a30.969794682811266,30.969794682811266 0 0,0 -0.5311403587329651,-0.045829025073554006 l 0.9425119856577683 -9.925143685322809" fill="#ff7d0b" stroke="none" /><path d="M 98.01472825383883 120.90594882070398 l -0.53215804023185 5.60390222402831 a26.629112924453803,26.629112924453803 0 0,0 -0.45595052328296615,-0.04726113600748845 l 0.6285411601204094 -5.593911719565061" fill="#ff4206" stroke="none" /><path d="M 93.08242187328487 119.8279376855182 l -18.82729020953275 53.964889188616944 a78.15484337983679,78.15484337983679 0 0,0 -1.266407830676465,-0.4540887914481363 l 19.753417600838944 -53.63281285612885" fill="#46fff5" stroke="none" /><path d="M 90.7491055286396 118.85261126421891 l -2.1960423788949317 4.475365427335637 a25.985127665175046,25.985127665175046 0 0,0 -0.39985678396980523,-0.20049649237313039 l 2.2727530705474974 -4.436901094053205" fill="#ff3805" stroke="none" /><path d="M 90.42595943632237 118.69057910512821 l -2.9321916809262762 5.724266593529002 a27.431560937088708,27.431560937088708 0 0,0 -0.4184085012403963,-0.21889155264196972 l 3.030291084693168 -5.672945621942315" fill="#ff4d07" stroke="none" /><line stroke="#e1ed5e" stroke-width="0.3" x1="58.666819895761336" x2="56.23545636021788" y1="174.27360380694188" y2="178.64263932499728" /><path d="M 58.180547188652646 175.14741091055294 a86.0,86.0 0 0,1 -31.652253787137756,-30.449443065178592" fill="none" id="id68" stroke="none" /><text fill="#e1ed5e" style="font-size:6.75px; font-family:Arial;" text-anchor="middle"><textPath startOffset="22.20632615414155" xlink:href="#id68">August</textPath></text><path d="M 89.7882731507175 118.34994917583269 l -3.0932204979762656 5.558358519107522 a27.36108186364833,27.36108186364833 0 0,0 -0.40957094391464977,-0.23256507109976698 l 3.1884402088121226 -5.504290282213122" fill="#ff4c07" stroke="none" /><path d="M 89.1626897886671 117.98757091392108 l -4.118548727984175 6.835892473538709 a28.98071861016057,28.98071861016057 0 0,0 -0.42507924442087086,-0.2611183905068493 l 4.235607172337355 -6.763985616203482" fill="#ff6209" stroke="none" /><path d="M 88.8546689885994 117.79835938074946 l -3.0295898458646175 4.8380553971713445 a26.708344301131877,26.708344301131877 0 0,0 -0.38754850217862985,-0.2473517903131489 l 3.112420150090171 -4.785189178034392" fill="#ff4306" stroke="none" /><path d="M 88.54995079064634 117.60387380957326 l -4.278321888043576 6.577704362382009 a28.846670176362203,28.846670176362203 0 0,0 -0.413915789582919,-0.2743208151974085 l 4.390912376366456 -6.503085526093281" fill="#ff6008" stroke="none" /><path d="M 88.24862548938628 117.40417183066458 l -3.0443040486607864 4.50871433974179 a26.44024743353514,26.44024743353514 0 0,0 -0.3750021746164636,-0.2579299151535914 l 3.1214631079001407 -4.455643635223097" fill="#ff3f05" stroke="none" /><path d="M 87.95078237400918 117.19931262002967 l -2.627209423584029 3.7501352865467874 a25.578836535930506,25.578836535930506 0 0,0 -0.35843583704499005,-0.25573445266987344 l 2.691372588477906 -3.7043565720326947" fill="#ff3304" stroke="none" /><path d="M 86.24171649860922 115.8653595955263 l -5.436254293027815 6.268814652851959 a29.29764411687286,29.29764411687286 0 0,0 -0.3781595466523672,-0.33368183206415414 l 5.543356192586771 -6.174309679015516" fill="#ff6709" stroke="none" /><path d="M 85.97065885151581 115.62618273729859 l -5.778163319380959 6.435842920845797 a29.649118188997104,29.649118188997104 0 0,0 -0.37682680964541915,-0.34422235613366725 l 5.888089678493233 -6.335427798125553" fill="#ff6b09" stroke="none" /><path d="M 85.70375840098266 115.38237550388516 l -5.310131152850764 5.713559805371753 a28.800144774940776,28.800144774940776 0 0,0 -0.36022695222540435,-0.3406170675618071 l 5.407693939466985 -5.621308101064015" fill="#ff6008" stroke="none" /><path d="M 85.44109423537348 115.13401014063109 l -6.3453298814899615 6.595982440207932 a30.15260594893393,30.15260594893393 0 0,0 -0.3709489134714758,-0.3630515862287742 l 6.457928747337232 -6.485780751056588" fill="#ff720a" stroke="none" /><path d="M 85.18274418774928 114.88116024355367 l -5.898235088727602 5.923673224088977 a29.359370887075546,29.359370887075546 0 0,0 -0.3550517847259276,-0.3596655834022624 l 5.9993274985090626 -5.82126714670605" fill="#ff6709" stroke="none" /><path d="M 84.9287848128048 114.62390073753433 l -7.430478032539246 7.209941058542193 a31.35351408265333,31.35351408265333 0 0,0 -0.37249982642236196,-0.3905645787691654 l 7.553484410340565 -7.080969363190528" fill="#ff820c" stroke="none" /><path d="M 84.67929136418377 114.36230785411682 l -9.20223839312802 8.626584049781236 a33.61345090813372,33.61345090813372 0 0,0 -0.3920826447431705,-0.4255282736059033 l 9.34936744586692 -8.466904521373989" fill="#ffa00e" stroke="none" /><path d="M 84.43433777217949 114.09645910891817 l -7.723078747281567 6.994117061170048 a31.41938668070545,31.41938668070545 0 0,0 -0.35958912086592504,-0.4040021892709678 l 7.842326717795831 -6.8601407021582155" fill="#ff830c" stroke="none" /><path d="M 83.95833913139862 113.55231037782056 l -8.592992858016272 7.259529249503775 a32.249012898131085,32.249012898131085 0 0,0 -0.3545917179839717,-0.4271285669908706 l 8.71668057589378 -7.110539425399144" fill="#ff8e0d" stroke="none" /><path d="M 83.72743513129214 113.27417163493432 l -7.267113015750265 5.928070113091776 a30.378323242958672,30.378323242958672 0 0,0 -0.32704736890668784,-0.40804187854291724 l 7.368078296711815 -5.802100400970599" fill="#ff750a" stroke="none" /><path d="M 83.50135304334701 112.99209946851258 l -6.838245464726645 5.38487583262142 a29.7039352461174,29.7039352461174 0 0,0 -0.3128718084874812,-0.4044289880142829 l 6.929924090432195 -5.266368850493884" fill="#ff6c0a" stroke="none" /><path d="M 83.28015986056508 112.70617746262583 l -6.977602848397591 5.302602137107496 a29.76381942616478,29.76381942616478 0 0,0 -0.30648050528714726,-0.4105807211605046 l 7.067844620379824 -5.181708536437684" fill="#ff6d0a" stroke="none" /><path d="M 83.06392112726016 112.41649034213515 l -8.62184167935742 6.321003506630525 a31.690708081073964,31.690708081073964 0 0,0 -0.31874847336421225,-0.4427137509735785 l 8.72936994509724 -6.171656150205808" fill="#ff870c" stroke="none" /><path d="M 82.85270091963577 112.12312394758628 l -8.291923493608614 5.862381929993412 a31.154974993419323,31.154974993419323 0 0,0 -0.30582182297761257,-0.4405591452686185 l 8.391606223748362 -5.718781522537781" fill="#ff800b" stroke="none" /><path d="M 82.6465618267979 111.8261652097733 l -2.123310479295457 1.4470112648090603 a23.569491971571466,23.569491971571466 0 0,0 -0.22559022349202792,-0.3372267756371187 l 2.1479038081982154 -1.4102475749661207" fill="#ff1602" stroke="none" /><path d="M 82.44556493220864 111.52570212397912 l -7.137602185149179 4.686330055498748 a29.538562779678863,29.538562779678863 0 0,0 -0.2754050921472827,-0.4274348189575557 l 7.217212140673507 -4.5627736366197436" fill="#ff6a09" stroke="none" /><path d="M 82.24976979558568 111.22182372390057 l -7.567248486943766 4.784069142625418 a29.952684917083445,29.952684917083445 0 0,0 -0.27176407683755605,-0.43817022342801676 l 7.648477203449278 -4.653102587832136" fill="#ff6f0a" stroke="none" /><path d="M 82.05923443525364 110.91462005526583 l -7.223452486200743 4.3945303833114915 a29.455185575151354,29.455185575151354 0 0,0 -0.25979350849407645,-0.4354288635307624 l 7.298026870393051 -4.269539425894618" fill="#ff6909" stroke="none" /><line stroke="#e1ed5e" stroke-width="0.3" x1="26.63291911575756" x2="22.317208475507996" y1="142.92168965132927" y2="145.44649492493687" /><path d="M 25.769776987707644 143.4266507060508 a86.0,86.0 0 0,1 -11.730757126820373,-40.83630448921669" fill="none" id="id69" stroke="none" /><text fill="#e1ed5e" style="font-size:6.75px; font-family:Arial;" text-anchor="middle"><textPath startOffset="21.46611528233685" xlink:href="#id69">September</textPath></text><path d="M 81.87401531095188 110.60418214915194 l -6.263858094043702 3.6645232424703793 a28.25704132666491,28.25704132666491 0 0,0 -0.24199868939240318,-0.421945113085894 l 6.326008779588482 -3.5561582835261785" fill="#ff5808" stroke="none" /><path d="M 81.69416730710424 110.29060199501025 l -6.351306389916911 3.570379304972297 a28.28606212161095,28.28606212161095 0 0,0 -0.23494078655851597,-0.4264857707682221 l 6.4118235859269435 -3.4605230158062525" fill="#ff5908" stroke="none" /><path d="M 81.51974371655577 109.97397251340807 l -9.006226503669403 4.860747287233201 a31.234206370097397,31.234206370097397 0 0,0 -0.2512828963721067,-0.475332541504019 l 9.088561908266396 -4.704999730643055" fill="#ff810b" stroke="none" /><path d="M 81.35079622478065 109.6543875284942 l -8.92656566594414 4.621136927684299 a31.051789944722294,31.051789944722294 0 0,0 -0.24164403896590214,-0.47678661365564856 l 9.004788374696309 -4.466796102325966" fill="#ff7e0b" stroke="none" /><path d="M 81.02952815118164 109.00673069616217 l -8.374172490252278 3.9758587463711383 a30.270071071334563,30.270071071334563 0 0,0 -0.21942253176759913,-0.47261661268258565 l 8.441369638859705 -3.8311220664097254" fill="#ff740a" stroke="none" /><path d="M 80.87730276802145 108.67885076344099 l -5.286552452720575 2.3993058737309565 a26.805540931824165,26.805540931824165 0 0,0 -0.18707576200759174,-0.421806456768306 l 5.327069299459446 -2.307951080469955" fill="#ff4406" stroke="none" /><path d="M 80.73074385275274 108.34839909993369 l -8.021248440517487 3.4752033368307798 a29.74170834430113,29.74170834430113 0 0,0 -0.1994804970456858,-0.47151296942977217 l 8.07987991875548 -3.336615841734849" fill="#ff6d0a" stroke="none" /><path d="M 80.58989483394504 108.01547362559985 l -5.264673825968886 2.174066231915025 a26.695906817583577,26.695906817583577 0 0,0 -0.17174034386113904,-0.4262454491402541 l 5.301316784087414 -2.0831214149319655" fill="#ff4206" stroke="none" /><path d="M 80.45479744820244 107.68017299344265 l -6.61024684003718 2.597457822516865 a28.102263753619376,28.102263753619376 0 0,0 -0.17303730760547478,-0.45174580770765055 l 6.653978427236164 -2.483288447976057" fill="#ff5608" stroke="none" /><path d="M 80.32549172779594 107.34259656027581 l -6.436034523632956 2.4019510069183383 a27.869636746512242,27.869636746512242 0 0,0 -0.16386780918055013,-0.4508938324412764 l 6.47642659381873 -2.2908093774709446" fill="#ff5307" stroke="none" /><path d="M 80.20201598880116 107.00284435728193 l -6.245823595004423 2.2092416325881525 a27.62503290339563,27.62503290339563 0 0,0 -0.15471224594925398,-0.4496662059255696 l 6.282926671896906 -2.101402723573286" fill="#ff4f07" stroke="none" /><path d="M 80.0844068197444 106.66101706037122 l -6.770026048837876 2.264319149437853 a28.138654909186627,28.138654909186627 0 0,0 -0.14968122853980018,-0.46067145290111167 l 6.807999528393925 -2.147448796558938" fill="#ff5708" stroke="none" /><path d="M 79.86692584326677 105.97154293290107 l -5.147650968914682 1.5268119774040307 a26.369307712555937,26.369307712555937 0 0,0 -0.12532624142519652,-0.43627708765936013 l 5.173169847225982 -1.4379774142400747" fill="#ff3e05" stroke="none" /><path d="M 79.76711848015287 105.62410040840567 l -6.698136524908591 1.861869864079548 a27.952092655962097,27.952092655962097 0 0,0 -0.12486855153946433,-0.46468233251970475 l 6.72919315278983 -1.7462965983843042" fill="#ff5407" stroke="none" /><path d="M 79.67330655649465 105.27499134158121 l -13.534185592352404 3.5122639111686436 a34.982495393524616,34.982495393524616 0 0,0 -0.14624129967984265,-0.5841612972818125 l 13.592638206327306 -3.278774774489439" fill="#ffb210" stroke="none" /><path d="M 79.58551787078972 104.9243191809786 l -4.789710030140238 1.1553592603261194 a25.92708607528297,25.92708607528297 0 0,0 -0.10091739727921017,-0.43474950622516556 l 4.8088879933500035 -1.0727410967523796" fill="#ff3805" stroke="none" /><path d="M 79.50377843672027 104.57218783832718 l -14.473871650141804 3.228754125631018 a35.82962621742564,35.82962621742564 0 0,0 -0.1290991957088329,-0.603108463016394 l 14.527304884575077 -2.97913184319846" fill="#ffbd11" stroke="none" /><path d="M 79.4281124754447 104.21870165774334 l -4.145694715453395 0.8501625894903935 a25.231968939194523,25.231968939194523 0 0,0 -0.08358998905979358,-0.4262235533441426 l 4.159714637488856 -0.7786753090782961" fill="#ff2e04" stroke="none" /><path d="M 79.35854240842038 103.8639653848113 l -5.8807416688478575 1.1008419412549157 a26.982890234272176,26.982890234272176 0 0,0 -0.08153144673027292,-0.4572716516857786 l 5.898819557917319 -0.9994515388359235" fill="#ff4706" stroke="none" /><path d="M 79.23777060512086 103.15116336523772 l -5.91241690805302 0.8973502414564386 a26.98012634903922,26.98012634903922 0 0,0 -0.0657363699209835,-0.45976001812117084 l 5.926987328990602 -0.7954447513548671" fill="#ff4606" stroke="none" /><path d="M 79.18660465613746 102.79330883721812 l -5.614704219066895 0.7535340896751006 a26.665043432482232,26.665043432482232 0 0,0 -0.05713746239661642,-0.45544179335173873 l 5.6268431907103595 -0.6567745420359532" fill="#ff4206" stroke="none" /><path d="M 79.1416061653843 102.43462659150553 l -12.564084730599 1.4665009696135372 a33.64938141616215,33.64938141616215 0 0,0 -0.062199597261366195,-0.575891021298597 l 12.587466629361417 -1.250013626430158" fill="#ffa10e" stroke="none" /><path d="M 79.0235259727143 100.99374915477108 l -7.66901141995198 0.3633152839029914 a28.677612529613057,28.677612529613057 0 0,0 -0.01911549573020291,-0.4932860070006061 l 7.674129048533384 -0.23125202988838853" fill="#ff5e08" stroke="none" /><path d="M 79.0095281055655 100.63252640178507 l -6.74220145543135 0.2031693450324397 a27.745261911029218,27.745261911029218 0 0,0 -0.01027623371104931,-0.4774962008674377 l 6.744699751827407 -0.08708332837487315" fill="#ff5107" stroke="none" /><line stroke="#e1ed5e" stroke-width="0.3" x1="15.007084014347285" x2="10.007500721073583" y1="101.09737516637583" y2="101.16192664675087" /><path d="M 14.007167355692545 101.11028546245083 a86.0,86.0 0 0,1 10.666146001902534,-42.60595125391555" fill="none" id="id70" stroke="none" /><text fill="#e1ed5e" style="font-size:6.75px; font-family:Arial;" text-anchor="middle"><textPath startOffset="22.20632615414155" xlink:href="#id70">October</textPath></text><path d="M 79.03285615573316 98.82574320788736 l -62.90143153280056 -3.522770376337934 a84.0,84.0 0 0,0 0.09327763598234728,-1.442963742987953 l 62.831473305813795 4.604993183578899" fill="#4dd2ff" stroke="none" /><path d="M 79.08570108090925 98.10471618934814 l -5.605681725286698 -0.5079949302964598 a26.628652276914977,26.628652276914977 0 0,0 0.04529771421618423,-0.4561418003985478 l 5.596106885388285 0.6044122613994378" fill="#ff4206" stroke="none" /><path d="M 79.12142395522702 97.74499172005258 l -8.148451894985547 -0.8800804447842541 a29.195841010792314,29.195841010792314 0 0,0 0.058266066215507034,-0.4991880728474656 l 8.13209547576645 1.0202122559565814" fill="#ff6509" stroke="none" /><path d="M 79.26566170972629 96.67025291283419 l -7.181609230574319 -1.1533014500822183 a28.27362463806265,28.27362463806265 0 0,0 0.08130435999850293,-0.4798629350871087 l 7.160693009055593 1.276750173485155" fill="#ff5808" stroke="none" /><path d="M 79.32604984820605 96.31383870115002 l -6.880432826687234 -1.226779837372816 a27.988944459068176,27.988944459068176 0 0,0 0.0886506847248576,-0.4735755026185418 l 6.8582964180525146 1.3450334174539307" fill="#ff5507" stroke="none" /><path d="M 79.3925641242962 95.95851677861259 l -3.341905181825878 -0.6554068056444046 a24.405567254540667,24.405567254540667 0 0,0 0.08439759417231886,-0.4115526423797221 l 3.3301282917385646 0.7128351041875292" fill="#ff2203" stroke="none" /><path d="M 79.46518482838121 95.60439243477599 l -4.656233755133443 -0.9966963982126997 a25.76171360884443,25.76171360884443 0 0,0 0.09655197435533579,-0.43282356909534375 l 4.63838739377607 1.0766981368580026" fill="#ff3505" stroke="none" /><path d="M 79.54389044137918 95.25157060432595 l -4.0662732477893755 -0.9438946034833343 a25.174387996841276,25.174387996841276 0 0,0 0.10161725598285674,-0.4212691298107828 l 4.049423191545704 1.0137489649535139" fill="#ff2d04" stroke="none" /><path d="M 79.62865764111835 94.90015583598534 l -8.104208673788664 -2.0288403474284844 a29.35430376414846,29.35430376414846 0 0,0 0.12692754557990119,-0.489103610123809 l 8.068084796338455 2.168040383101157" fill="#ff6709" stroke="none" /><path d="M 79.71946130924805 94.55025226153421 l -4.742268633048519 -1.274333396772074 a25.910502763885233,25.910502763885233 0 0,0 0.11945140232480785,-0.42973024930445114 l 4.71963046015735 1.3557749494954676" fill="#ff3705" stroke="none" /><path d="M 79.81627453868168 94.20196356495316 l -13.02325797237603 -3.741099450226003 a34.549947354566996,34.549947354566996 0 0,0 0.1691205163404985,-0.5701903067879557 l 12.956931558923824 3.964719143760498" fill="#ffad10" stroke="none" /><path d="M 80.02781315780177 93.51064311812611 l -10.861859006287196 -3.5292319288474907 a32.42083443011319,32.42083443011319 0 0,0 0.17702193399686075,-0.5292730508735641 l 10.799499778518562 3.715678082643377" fill="#ff910d" stroke="none" /><path d="M 80.2630227832202 92.82701384747504 l -7.0682172949273285 -2.5687938037668343 a28.520531718873386,28.520531718873386 0 0,0 0.17166020679806593,-0.45996401013348587 l 7.022952499627635 2.6900809509296617" fill="#ff5c08" stroke="none" /><path d="M 80.38941819471856 92.48833698450439 l -7.884582651333761 -3.0201208960914974 a29.44320873914188,29.44320873914188 0 0,0 0.18536105273782463,-0.47172366092124 l 7.831428048714245 3.1553935619085007" fill="#ff6909" stroke="none" /><path d="M 80.65960295795068 91.81776055985345 l -4.887705411982326 -2.067815666182511 a26.307120294814425,26.307120294814425 0 0,0 0.18002750398338038,-0.4155283002501514 l 4.8513871981562655 2.1516431110192618" fill="#ff3d05" stroke="none" /><path d="M 80.803312248108 91.48605970444005 l -4.005415765025814 -1.7764455578522025 a25.38167938931298,25.38167938931298 0 0,0 0.18056971868297195,-0.397861439694698 l 3.974243729379491 1.8451290063889714" fill="#ff3004" stroke="none" /><path d="M 80.95270993114464 91.15688171328213 l -6.477365489546914 -3.007257673049645 a28.141418794419586,28.141418794419586 0 0,0 0.20776649513059486,-0.43760922580732314 l 6.424640800574568 3.1183093144975" fill="#ff5708" stroke="none" /><path d="M 81.26839172434947 90.50648371742162 l -8.980390244639329 -4.551423441959134 a31.067912608581203,31.067912608581203 0 0,0 0.24586638128343574,-0.4749355909422201 l 8.90071443019578 4.705331755161689" fill="#ff7f0b" stroke="none" /><path d="M 81.43458229118936 90.18545643968196 l -4.50696406474088 -2.3825908919461205 a26.097986312187416,26.097986312187416 0 0,0 0.21337204173856011,-0.39534598774455465 l 4.465283923783849 2.4598178630231478" fill="#ff3a05" stroke="none" /><path d="M 81.6062741919709 89.86733742301443 l -6.5569105489664175 -3.6120448262391966 a28.485983153461437,28.485983153461437 0 0,0 0.24028924980515443,-0.4274477632083631 l 6.493763657868832 3.724376099382344" fill="#ff5b08" stroke="none" /><line stroke="#e1ed5e" stroke-width="0.3" x1="26.266209847984243" x2="21.928928074336255" y1="57.711370442889674" y2="55.22380399835377" /><path d="M 25.398753493254645 57.213857153982495 a86.0,86.0 0 0,1 29.58750427330803,-30.492523968695096" fill="none" id="id71" stroke="none" /><text fill="#e1ed5e" style="font-size:6.75px; font-family:Arial;" text-anchor="middle"><textPath startOffset="21.46611528233685" xlink:href="#id71">November</textPath></text><path d="M 82.15384107792192 88.93136811851018 l -7.206891852142174 -4.469893676805904 a29.480521189786785,29.480521189786785 0 0,0 0.2711820543882355,-0.42894488553096505 l 7.1288822015079765 4.593286210051085" fill="#ff6909" stroke="none" /><path d="M 82.34701348167596 88.62581576622439 l -11.749296238900326 -7.570314513056491 a34.9769676230587,34.9769676230587 0 0,0 0.330454669590092,-0.5033051329774446 l 11.617244933952314 7.771437710011603" fill="#ffb210" stroke="none" /><path d="M 82.54541684631803 88.32363383020206 l -7.036125178012054 -4.706865427357566 a29.46531982100553,29.46531982100553 0 0,0 0.28563896318107884,-0.4191399324714367 l 6.954061749162235 4.827283383099418" fill="#ff6909" stroke="none" /><path d="M 82.7489923806493 88.02491185347247 l -7.547788847406534 -5.239429414991618 a30.18807580942353,30.18807580942353 0 0,0 0.2999938311347864,-0.4243199992817567 l 7.4564823964678695 5.368575914605161" fill="#ff730a" stroke="none" /><path d="M 82.95767976084542 87.72973835380427 l -6.743581968809983 -4.855296346313171 a29.309620952882337,29.309620952882337 0 0,0 0.2983124671754639,-0.40689786997704275 l 6.659006889120886 4.970656659961715" fill="#ff6709" stroke="none" /><path d="M 83.17141714833178 87.43820079747576 l -6.480340702839248 -4.837290186020729 a29.086667544090552,29.086667544090552 0 0,0 0.30295019098072073,-0.3986469399084044 l 6.396114571634418 4.94812190181016" fill="#ff6409" stroke="none" /><path d="M 83.39014120810768 87.1503855733568 l -3.5465553540466765 -2.7436638332224486 a25.48394314293235,25.48394314293235 0 0,0 0.2713990425853368,-0.3446492230790887 l 3.4988022308673687 2.804305450254585" fill="#ff3104" stroke="none" /><path d="M 83.6137871275137 86.86637796730984 l -5.504844479734309 -4.412157177999689 a28.054817057120296,28.054817057120296 0 0,0 0.3052651429558539,-0.37421897030707574 l 5.4280808447020625 4.5062603179148475" fill="#ff5507" stroke="none" /><path d="M 84.07557802195018 86.31012108654704 l -6.561820366273268 -5.641054123655652 a29.65326401684654,29.65326401684654 0 0,0 0.33608181464208736,-0.384199611751951 l 6.463746688053337 5.753169291610547" fill="#ff6b09" stroke="none" /><path d="M 84.5562425177563 85.77008943001954 l -5.477540465262754 -5.047017285382428 a28.448210055277706,28.448210055277706 0 0,0 0.33492034081491956,-0.35726966793590986 l 5.389852802477379 5.140556370196388" fill="#ff5b08" stroke="none" /><path d="M 84.80347519578584 85.50635884689758 l -3.585457155262954 -3.419619291102255 a25.95472492761253,25.95472492761253 0 0,0 0.31113008523978897,-0.32064690194621026 l 3.5260628063200463 3.480830388598589" fill="#ff3805" stroke="none" /><path d="M 85.05521093208273 85.24692304244772 l -5.105185578544259 -5.03969613626309 a28.173664122137403,28.173664122137403 0 0,0 0.3436706726762954,-0.3421948415896433 l 5.01767910570065 5.126826828502843" fill="#ff5708" stroke="none" /><path d="M 85.31137513191541 84.99185889309783 l -3.7175869467394933 -3.79845424435021 a26.314951302974467,26.314951302974467 0 0,0 0.32645170275942054,-0.3140462794072141 l 3.651652000367645 3.8618836105197376" fill="#ff3d05" stroke="none" /><path d="M 85.83668400450813 84.49514656593479 l -4.17648190153982 -4.572074772179933 a27.19248486443801,27.19248486443801 0 0,0 0.3483085546903179,-0.31271485946610306 l 4.09716235925353 4.643288640415315" fill="#ff4906" stroke="none" /><path d="M 86.10567301691215 84.25364557470407 l -4.439125921485356 -5.03083382040088 a27.70933140300079,27.70933140300079 0 0,0 0.36036144007196264,-0.3125018897698068 l 4.35187068276662 5.106500703590368" fill="#ff5107" stroke="none" /><path d="M 86.37877921826538 84.01681056812374 l -4.947358377291433 -5.805248105049731 a28.627401947881022,28.627401947881022 0 0,0 0.3778032707760623,-0.3163993742345384 l 4.84669756955626 5.889548636678081" fill="#ff5d08" stroke="none" /><path d="M 86.65592168130627 83.78471172551755 l -6.203117217902902 -7.53782550480021 a30.762042642800736,30.762042642800736 0 0,0 0.4117669352431047,-0.3329535584956811 l 6.072446884095296 7.643485160560026" fill="#ff7a0b" stroke="none" /><path d="M 87.22198572758235 83.33499621200491 l -3.5622484730226365 -4.645861479811126 a26.85436957093972,26.85436957093972 0 0,0 0.36925250009535715,-0.2781133276646751 l 3.48174981916889 4.706491396981655" fill="#ff4506" stroke="none" /><path d="M 87.51073957382395 83.11751280151077 l -4.194044219187703 -5.669342733212066 a28.052053171887337,28.052053171887337 0 0,0 0.3906644921910098,-0.28383436775838766 l 4.095834410642912 5.7406963357871215" fill="#ff5507" stroke="none" /><path d="M 87.80319425747018 82.90503203632743 l -4.090215982096077 -5.732821580868347 a28.042379573571992,28.042379573571992 0 0,0 0.39535596970047154,-0.27697212231074475 l 3.9909288728119456 5.802378545943035" fill="#ff5507" stroke="none" /><path d="M 88.09926311788651 82.69761687909137 l -8.129611915038568 -11.81957565919401 a35.34548565411951,35.34548565411951 0 0,0 0.5042543607569147,-0.3404747953260376 l 7.924952859875114 11.957762366818713" fill="#ffb711" stroke="none" /><path d="M 88.70189139769569 82.29822771554957 l -3.339767296759081 -5.232716576845968 a27.20768623321927,27.20768623321927 0 0,0 0.3969482842916093,-0.24856897920730125 l 3.249199860095229 5.2894298973762" fill="#ff4a06" stroke="none" /><path d="M 89.00827224532344 82.1063720568725 l -3.7509500017439485 -6.10623782379649 a28.166293761516187,28.166293761516187 0 0,0 0.41530252393440903,-0.2502151238188279 l 3.6452854115918902 6.169899557073937" fill="#ff5708" stroke="none" /><line stroke="#e1ed5e" stroke-width="0.3" x1="56.762969772571076" x2="54.21961505331055" y1="26.818313649435495" y2="22.513508569990535" /><path d="M 56.25429882871897 25.957352633546506 a86.0,86.0 0 0,1 42.265352541879196,-11.944610805530505" fill="none" id="id72" stroke="none" /><text fill="#e1ed5e" style="font-size:6.75px; font-family:Arial;" text-anchor="middle"><textPath startOffset="22.20632615414155" xlink:href="#id72">December</textPath></text><path d="M 89.3179101791058 81.91981866633112 l -3.0815162594230863 -5.215680984449403 a27.057975783100815,27.057975783100815 0 0,0 0.40303920180134156,-0.23346632006374524 l 2.9912803251564246 5.267951461903195" fill="#ff4806" stroke="none" /><path d="M 89.63071344664047 81.73862282372117 l -4.070788835778615 -7.169076672015931 a29.244209002369047,29.244209002369047 0 0,0 0.43988291228527654,-0.244794364435634 l 3.946781834421292 7.23808643401175" fill="#ff6609" stroke="none" /><path d="M 89.94658935756843 81.56283822128135 l -5.073457165038621 -9.304320081626766 a31.59765727823111,31.59765727823111 0 0,0 0.4797652162507112,-0.2562739631995042 l 4.912546902259605 9.39027277132802" fill="#ff860c" stroke="none" /><path d="M 90.26544431104013 81.39251694778311 l -4.494021651089092 -8.59026691929799 a30.69478810213214,30.69478810213214 0 0,0 0.4702726741688672,-0.2408919291990552 l 4.345488489331461 8.666351373809551" fill="#ff7a0b" stroke="none" /><path d="M 90.58718382345135 81.22770947309562 l -2.5231335807103705 -5.031968725076152 a26.629112924453803,26.629112924453803 0 0,0 0.41151963228615634,-0.20193089635267544 l 2.4361426814137883 5.074654781563657" fill="#ff4206" stroke="none" /><path d="M 90.91171255644093 81.06846463323043 l -2.7632875374039707 -5.756120288645979 a27.38503553566728,27.38503553566728 0 0,0 0.4267133481716587,-0.20034763856791676 l 2.6637959779327036 5.802832909853904" fill="#ff4c07" stroke="none" /><path d="M 91.23893434514133 80.91482961587045 l -2.3051895790565453 -5.021642071545889 a26.525467228217952,26.525467228217952 0 0,0 0.4165987337090403,-0.18691570825363504 l 2.218408726880731 5.060578110316053" fill="#ff4006" stroke="none" /><path d="M 91.56875222667455 80.76684994638697 l -3.4874975708870317 -7.955591615358884 a29.686430639642012,29.686430639642012 0 0,0 0.4697753845135471,-0.20113330307182253 l 3.350038428583176 8.014444446393494" fill="#ff6c09" stroke="none" /><path d="M 91.90106846888425 80.62456947434976 l -2.830575504195563 -6.7717104186449335 a28.339497236114767,28.339497236114767 0 0,0 0.4516993739372915,-0.18425951612486094 l 2.7135922606698912 6.819430820953371" fill="#ff5908" stroke="none" /><path d="M 92.23578459929587 80.48803036053334 l -6.410740368033351 -16.110600359725467 a38.339234008949724,38.339234008949724 0 0,0 0.6152841572396669,-0.23872069399607992 l 6.132473045794008 16.2185637576121" fill="#ffdd14" stroke="none" /><path d="M 92.91201910852362 80.23233633223022 l -3.2081556048680286 -8.947222341861055 a30.505001316135825,30.505001316135825 0 0,0 0.4958050435843011,-0.1729766443193367 l 3.053668557220442 9.0011198393526" fill="#ff770b" stroke="none" /><path d="M 93.59665428221793 80.00007090966166 l -2.1310775035138563 -6.6561139808417416 a27.988944459068176,27.988944459068176 0 0,0 0.4601044299836826,-0.14295668606953071 l 2.0161877008194447 6.691810801793798" fill="#ff5507" stroke="none" /><path d="M 95.692805502759 79.44645832069477 l -1.876673780352243 -8.955317153111336 a30.149842063700973,30.149842063700973 0 0,0 0.5088627036493475,-0.1020730712202879 l 1.7222446672357592 8.986294180408834" fill="#ff720a" stroke="none" /><path d="M 96.04723909329186 79.375362276772 l -1.1415734425225799 -5.956479342458979 a27.064885496183205,27.064885496183205 0 0,0 0.4583050156778233,-0.08375231220318605 l 1.0388733057418633 5.975247136012901" fill="#ff4806" stroke="none" /><path d="M 96.40284397218896 79.31037775812273 l -1.0667270408874567 -6.135452379747716 a27.227494077388787,27.227494077388787 0 0,0 0.462440567972907,-0.07630665605921443 l 0.960957266775664 6.152905298746558" fill="#ff4a06" stroke="none" /><path d="M 97.11714578562143 79.19881850522333 l -2.180036768151416 -15.730015154227672 a36.88036325348776,36.88036325348776 0 0,0 0.6295746206502564,-0.08173685467300358 l 1.908947418993302 15.765210332064813" fill="#ffcb12" stroke="none" /><path d="M 98.19473922651362 79.07773832637324 l -0.5812014646937705 -6.735896169689831 a27.760923927349303,27.760923927349303 0 0,0 0.47644330170393373,-0.03698116991779254 l 0.4651679736275026 6.744902601796086" fill="#ff5107" stroke="none" /><path d="M 98.91598698831166 79.02799685794201 l -0.6200474531189151 -11.995831226031067 a33.011845222426956,33.011845222426956 0 0,0 0.5677395496106756,-0.024448059278105498 l 0.4134670711189154 12.004727011833365" fill="#ff980e" stroke="none" /><path d="M 99.27714615592234 79.0124445844662 l -0.24417009618653848 -7.089307840743288 a28.09351145038168,28.09351145038168 0 0,0 0.48344032200074394,-0.012485837229400555 l 0.12210313899091554 7.092460470115048" fill="#ff5608" stroke="none" /><path d="M 99.63851952072746 79.00311137660856 l -0.1603461053753032 -9.313834380587473 a30.31521453013951,30.31521453013951 0 0,0 0.5218265846478366,-0.004491526160596191 l 2.2815695315412534e-15 9.31521453013951" fill="#ff740a" stroke="none" /></svg>