<?xml version="1.0" encoding="utf-8" ?>
<svg baseProfile="full" height="200mm" version="1.1" viewBox="0,0,200,200" width="200mm" xmlns="http://www.w3.org/2000/svg" xmlns:ev="http://www.w3.org/2001/xml-events" xmlns:xlink="http://www.w3.org/1999/xlink"><defs /><rect fill="#1a1a1a" height="200" width="200" x="0" y="0" /><text alignment-baseline="middle" fill="#e1ed5e" style="dominant-baseline: central; font-size:9.0px; font-family:Arial;" text-anchor="middle" x="100.0" y="100.0">2025</text><line stroke="#e1ed5e" stroke-width="0.3" x1="100.0" x2="100.0" y1="15.0" y2="10.0" /><path d="M 100.0 14.0 a86.0,86.0 0 0,1 42.46469731375804,11.215312516191453" fill="none" id="id97" stroke="none" /><text fill="#e1ed5e" style="font-size:6.75px; font-family:Arial;" text-anchor="middle"><textPath startOffset="22.20632615414155" xlink:href="#id97">January</textPath></text><path d="M 100.0 79.0 l 0.0 -24.130660015349193 a45.13066001534919,45.13066001534919 0 0,0 0.7768501243920933,0.006686594280980025 l -0.4153696451195649 24.127084797676773" fill="#ff0901" stroke="none" /><path d="M 100.36148047927253 79.00311137660856 l 0.6372376522555623 -37.01446904676143 a58.019953952417495,58.019953952417495 0 0,0 0.9984221897916161,0.025786299529934987 l -1.2742864772420461 36.99801595508913" fill="#e8ff1a" stroke="none" /><path d="M 101.08401301168833 79.027996857942 l 1.3447210527764566 -26.015826230808894 a47.050556408288564,47.050556408288564 0 0,0 0.8084583988249102,0.04876841842123927 l -1.7923415004409786 25.988824543007354" fill="#ff3505" stroke="none" /><path d="M 101.80526077348638 79.07773832637324 l 2.475133055896708 -28.685817712919583 a49.792402148887184,49.792402148887184 0 0,0 0.853287352152487,0.08102991574854713 l -2.968545535139439 28.63896225265586" fill="#ff710a" stroke="none" /><path d="M 102.16513564639614 79.11191278185805 l 4.928674573420357 -47.54925379885746 a68.8040099769762,68.8040099769762 0 0,0 1.1769853007513769,0.1322480123866625 l -5.74642657768146 47.45736983300019" fill="#30ff2f" stroke="none" /><path d="M 102.88285421437855 79.19881850522331 l 5.060482196344867 -36.51381609664463 a57.8628165771297,57.8628165771297 0 0,0 0.9854065756070749,0.14522331407604083 l -5.688257752380598 36.42129829840763" fill="#ebff1a" stroke="none" /><path d="M 103.2404852339499 79.25152402106235 l 5.52536306103469 -35.37830123269741 a56.80717574827322,56.80717574827322 0 0,0 0.9648314510069069,0.15920545641101916 l -6.133523718180472 35.27794951334676" fill="#ffff18" stroke="none" /><path d="M 103.59715602781102 79.31037775812273 l 5.380205259938772 -30.94511707339875 a52.40934382194935,52.40934382194935 0 0,0 0.8874770648990823,0.1621807609996678 l -5.9120774459407555 30.847920831048345" fill="#ffa80f" stroke="none" /><path d="M 103.95276090670814 79.375362276772 l 4.78168793491841 -24.949796785294055 a46.403875671527246,46.403875671527246 0 0,0 0.7831948699476434,0.15710152299669833 l -5.210449214333178 24.86379130622015" fill="#ff2603" stroke="none" /><path d="M 104.307194497241 79.44645832069477 l 5.8025644977700885 -27.68931176155825 a49.290771297006906,49.290771297006906 0 0,0 0.8289235483629731,0.18117058155106824 l -6.27833077028659 27.58532768191131" fill="#ff6609" stroke="none" /><path d="M 104.66035177308747 79.52364482259891 l 7.030317692996983 -30.8893596665994 a52.679297774366844,52.679297774366844 0 0,0 0.882444244974767,0.20884604215545144 l -7.560985624934273 30.76376771230308" fill="#ffad10" stroke="none" /><path d="M 105.01212808612495 79.60689891045804 l 9.523235693955371 -38.747674614300465 a60.900805832693784,60.900805832693784 0 0,0 1.015857664529134,0.2589647377029091 l -10.18880224716953 38.57800688042869" fill="#b3ff20" stroke="none" /><path d="M 105.36241919743992 79.69619591428918 l 9.263856955822927 -35.07587336679591 a57.278587874136605,57.278587874136605 0 0,0 0.951103071142695,0.2599723974699558 l -9.866257916189333 34.91121442849966" fill="#f6ff19" stroke="none" /><path d="M 105.71112130821622 79.79150937346287 l 7.12356094104252 -25.20633107504179 a47.19359171143515,47.19359171143515 0 0,0 0.7798399040302183,0.22765665260460974 l -7.556391062796165 25.07997609351848" fill="#ff3805" stroke="none" /><path d="M 106.0581310904928 79.89281104454417 l 8.786149829822525 -29.16159656835967 a51.456446661550274,51.456446661550274 0 0,0 0.8458818121856135,0.26281959658774556 l -9.286817014718856 29.006036836889404" fill="#ff940d" stroke="none" /><path d="M 106.40334571778207 80.00007090966166 l 13.52909498162244 -42.2561817234854 a65.36914811972372,65.36914811972372 0 0,0 1.0686834021371872,0.35232811542942283 l -14.254461206002047 42.017039883796734" fill="#67ff28" stroke="none" /><path d="M 106.74666289553966 80.11325718540242 l 11.584015013849648 -34.14552215039021 a57.05698388334613,57.05698388334613 0 0,0 0.927360733012276,0.323537950542665 l -12.170057750925196 33.941063346675335" fill="#faff18" stroke="none" /><path d="M 107.08798089147638 80.2323363322302 l 13.546311907136648 -37.77929735123846 a61.13449731389102,61.13449731389102 0 0,0 0.9875191425657516,0.36371163422383634 l -14.194613375474976 37.5405224492083" fill="#afff20" stroke="none" /><path d="M 107.4271985657038 80.35727306442388 l 12.723993859011754 -33.65117206595532 a56.97640061396777,56.97640061396777 0 0,0 0.914381247839545,0.354765718396734 l -13.301358271850965 33.42716364366804" fill="#fcff18" stroke="none" /><path d="M 108.09893153111575 80.62456947434976 l 11.28909009469607 -27.00738733093803 a50.271872601688415,50.271872601688415 0 0,0 0.7955314186589096,0.3406050363791748 l -11.752305271145294 26.809062766596064" fill="#ff7b0b" stroke="none" /><path d="M 108.43124777332544 80.76684994638697 l 14.48615192059272 -33.04544488298248 a57.08115886415963,57.08115886415963 0 0,0 0.8964946139065857,0.4022310010691293 l -15.052828652966086 32.79119355139682" fill="#faff18" stroke="none" /><path d="M 108.76106565485865 80.91482961587045 l 19.035818881129476 -41.467768997520196 a66.62826170376056,66.62826170376056 0 0,0 1.0382009034620487,0.4874492449296991 l -19.74679799589112 41.13395476995049" fill="#52ff2b" stroke="none" /><path d="M 109.08828744355905 81.06846463323043 l 14.370026251414078 -29.933764957319262 a54.204336147352265,54.204336147352265 0 0,0 0.8376602158305182,0.4110362299896595 l -14.883157734255027 29.68197356719477" fill="#ffcc13" stroke="none" /><path d="M 109.41281617654863 81.2277094730956 l 16.59162360206297 -33.08922353619929 a58.01592478894858,58.01592478894858 0 0,0 0.8888578739849403,0.455307526482215 l -17.158741963636665 32.798723484404576" fill="#e8ff1a" stroke="none" /><path d="M 109.73455568895987 81.39251694778311 l 21.317220137364437 -40.74760318811926 a66.98685725249425,66.98685725249425 0 0,0 1.017099583450415,0.5432993730900013 l -22.015464767343165 40.3746250885275" fill="#4dff2c" stroke="none" /><path d="M 110.05341064243156 81.56283822128135 l 15.182347499343589 -27.843227237201557 a52.71354566385265,52.71354566385265 0 0,0 0.7929018692767776,0.4412490317958876 l -15.659373457692402 27.577762807845488" fill="#ffae10" stroke="none" /><line stroke="#e1ed5e" stroke-width="0.3" x1="143.23703022742887" x2="145.7803849466894" y1="26.81831364943548" y2="22.513508569990506" /><path d="M 143.74570117128098 25.957352633546492 a86.0,86.0 0 0,1 28.547481713284135,27.462654790039103" fill="none" id="id98" stroke="none" /><text fill="#e1ed5e" style="font-size:6.75px; font-family:Arial;" text-anchor="middle"><textPath startOffset="19.985693538727396" xlink:href="#id98">February</textPath></text><path d="M 110.68208982089419 81.91981866633111 l 21.66443408514238 -36.66856423398828 a63.59027244819647,63.59027244819647 0 0,0 0.9376171699770023,0.5649038538410237 l -22.29241332133702 36.290213770688645" fill="#84ff25" stroke="none" /><path d="M 110.99172775467656 82.1063720568725 l 20.81510992683377 -33.88528545638304 a60.767843438219494,60.767843438219494 0 0,0 0.8865763514814899,0.5551740299630382 l -21.39530543068752 33.52196708509705" fill="#b6ff1f" stroke="none" /><path d="M 111.2981086023043 82.29822771554956 l 26.59889516588158 -41.6749034567055 a70.43985034535686,70.43985034535686 0 0,0 1.0164570168316043,0.6611319183386514 l -27.312319208497463 41.210872614207325" fill="#32ff4d" stroke="none" /><path d="M 111.60114157652 82.49532879139004 l 14.20316277816082 -21.43079566042598 a46.710092095165,46.710092095165 0 0,0 0.6663868721690254,0.44994739077542545 l -14.569954344736388 21.18313635735188" fill="#ff2d04" stroke="none" /><path d="M 111.90073688211348 82.69761687909136 l 24.999082454685215 -36.34595963147894 a65.11329623944744,65.11329623944744 0 0,0 0.9180009245507309,0.6431183132220681 l -25.6210145188196 35.910256475492936" fill="#6bff28" stroke="none" /><path d="M 112.19680574252982 82.90503203632743 l 14.6340607657157 -20.51100962410331 a46.196373752877975,46.196373752877975 0 0,0 0.6433498034047651,0.4674209925574471 l -14.984955885474253 20.256069396729185" fill="#ff2103" stroke="none" /><path d="M 112.48926042617603 83.11751280151076 l 19.095724546469068 -25.812843531228093 a53.1084036838066,53.1084036838066 0 0,0 0.7302502776881723,0.5500093694787848 l -19.537220977915624 25.48031757224346" fill="#ffb610" stroke="none" /><path d="M 113.06298171725822 83.55741782278167 l 39.188945151774654 -49.32774653165496 a84.0,84.0 0 0,0 1.1243864057420354,0.9091756109434814 l -40.032234956081176 48.64586482344735" fill="#4dd2ff" stroke="none" /><path d="M 113.34407831869373 83.78471172551755 l 20.320788491072925 -24.693158678926935 a52.97947045280122,52.97947045280122 0 0,0 0.6991838538995713,0.5855463701896909 l -20.742829881931616 24.339711151343423" fill="#ffb310" stroke="none" /><path d="M 113.6212207817346 84.01681056812373 l 26.353873822527206 -30.92373028224104 a61.63008442056792,61.63008442056792 0 0,0 0.8015027735800259,0.6950553071091152 l -26.882270394753995 30.465509981712252" fill="#a6ff21" stroke="none" /><path d="M 113.89432698308785 84.25364557470407 l 17.187964931592266 -19.479013844415885 a46.97803146584805,46.97803146584805 0 0,0 0.6017416327944272,0.5402495792890208 l -17.520717551982685 19.180265256357565" fill="#ff3304" stroke="none" /><path d="M 114.16331599549186 84.49514656593476 l 23.67300984165911 -25.91529752318866 a56.100057559478124,56.100057559478124 0 0,0 0.7073739504954817,0.657426994587441 l -24.11559167594944 25.50396594252658" fill="#fff116" stroke="none" /><path d="M 114.42810811169701 84.74124197986012 l 16.30498019529842 -17.243684715775878 a44.73177283192632,44.73177283192632 0 0,0 0.5549226840780761,0.5338351824184429 l -16.599386122988914 16.96046644659513" fill="#ff0000" stroke="none" /><path d="M 114.68862486808459 84.99185889309783 l 28.92492350989758 -29.55411670197439 a62.35331926323868,62.35331926323868 0 0,0 0.7606041969513815,0.7573379208104544 l -29.429363507016284 29.051842930513818" fill="#9aff23" stroke="none" /><path d="M 114.94478906791727 85.2469230424477 l 43.717522356868876 -43.156712938089235 a82.43064082885648,82.43064082885648 0 0,0 0.9881303839274642,1.0183552197501893 l -44.45391700449945 42.39779352278894" fill="#4ae9ff" stroke="none" /><path d="M 115.4437574822437 85.77008943001954 l 25.436864180030888 -23.43758006293118 a55.58835379892555,55.58835379892555 0 0,0 0.6423270265235733,0.7092735457474417 l -25.836534847170498 22.99625372991419" fill="#ffe715" stroke="none" /><line stroke="#e1ed5e" stroke-width="0.3" x1="172.23445277983987" x2="176.4835382374775" y1="55.19839476539836" y2="52.563006222186495" /><path d="M 173.08426987136738 54.67131705675599 a86.0,86.0 0 0,1 12.851231095245387,41.99856678651699" fill="none" id="id99" stroke="none" /><text fill="#e1ed5e" style="font-size:6.75px; font-family:Arial;" text-anchor="middle"><textPath startOffset="22.20632615414155" xlink:href="#id99">March</textPath></text><line stroke="#e1ed5e" stroke-width="0.3" x1="184.98032266829074" x2="189.97916517819016" y1="98.17113171792111" y2="98.06355123074" /><path d="M 185.9800911702706 98.14961562048488 a86.0,86.0 0 0,1 -9.607161424134198,41.387399972396054" fill="none" id="id100" stroke="none" /><text fill="#e1ed5e" style="font-size:6.75px; font-family:Arial;" text-anchor="middle"><textPath startOffset="21.466115282336823" xlink:href="#id100">April</textPath></text><line stroke="#e1ed5e" stroke-width="0.3" x1="174.80103733775053" x2="179.2010983576182" y1="140.37084112569926" y2="142.7455964860345" /><path d="M 175.68104954172406 140.8457921977663 a86.0,86.0 0 0,1 -30.038265399797805,32.042727171017184" fill="none" id="id101" stroke="none" /><text fill="#e1ed5e" style="font-size:6.75px; font-family:Arial;" text-anchor="middle"><textPath startOffset="22.206326154141568" xlink:href="#id101">May</textPath></text><line stroke="#e1ed5e" stroke-width="0.3" x1="143.8653032363475" x2="146.44561519142675" y1="172.8068346515853" y2="177.08958963109032" /><path d="M 144.38136562736335 173.6633856474863 a86.0,86.0 0 0,1 -40.68145358897372,12.25698825130547" fill="none" id="id102" stroke="none" /><text fill="#e1ed5e" style="font-size:6.75px; font-family:Arial;" text-anchor="middle"><textPath startOffset="21.466115282336833" xlink:href="#id102">June</textPath></text><line stroke="#e1ed5e" stroke-width="0.3" x1="102.19456741930631" x2="102.32365962044197" y1="184.97166512339345" y2="189.96999836594603" /><path d="M 102.22038585953345 185.97133177190398 a86.0,86.0 0 0,1 -42.740103519485714,-10.115201625700543" fill="none" id="id103" stroke="none" /><text fill="#e1ed5e" style="font-size:6.75px; font-family:Arial;" text-anchor="middle"><textPath startOffset="22.20632615414155" xlink:href="#id103">July</textPath></text><line stroke="#e1ed5e" stroke-width="0.3" x1="58.666819895761336" x2="56.23545636021788" y1="174.27360380694188" y2="178.64263932499728" /><path d="M 58.180547188652646 175.14741091055294 a86.0,86.0 0 0,1 -31.652253787137756,-30.449443065178592" fill="none" id="id104" stroke="none" /><text fill="#e1ed5e" style="font-size:6.75px; font-family:Arial;" text-anchor="middle"><textPath startOffset="22.20632615414155" xlink:href="#id104">August</textPath></text><line stroke="#e1ed5e" stroke-width="0.3" x1="26.63291911575756" x2="22.317208475507996" y1="142.92168965132927" y2="145.44649492493687" /><path d="M 25.769776987707644 143.4266507060508 a86.0,86.0 0 0,1 -11.730757126820373,-40.83630448921669" fill="none" id="id105" stroke="none" /><text fill="#e1ed5e" style="font-size:6.75px; font-family:Arial;" text-anchor="middle"><textPath startOffset="21.46611528233685" xlink:href="#id105">September</textPath></text><line stroke="#e1ed5e" stroke-width="0.3" x1="15.007084014347285" x2="10.007500721073583" y1="101.09737516637583" y2="101.16192664675087" /><path d="M 14.007167355692545 101.11028546245083 a86.0,86.0 0 0,1 10.666146001902534,-42.60595125391555" fill="none" id="id106" stroke="none" /><text fill="#e1ed5e" style="font-size:6.75px; font-family:Arial;" text-anchor="middle"><textPath startOffset="22.20632615414155" xlink:href="#id106">October</textPath></text><line stroke="#e1ed5e" stroke-width="0.3" x1="26.266209847984243" x2="21.928928074336255" y1="57.711370442889674" y2="55.22380399835377" /><path d="M 25.398753493254645 57.213857153982495 a86.0,86.0 0 0,1 29.58750427330803,-30.492523968695096" fill="none" id="id107" stroke="none" /><text fill="#e1ed5e" style="font-size:6.75px; font-family:Arial;" text-anchor="middle"><textPath startOffset="21.46611528233685" xlink:href="#id107">November</textPath></text><line stroke="#e1ed5e" stroke-width="0.3" x1="56.762969772571076" x2="54.21961505331055" y1="26.818313649435495" y2="22.513508569990535" /><path d="M 56.25429882871897 25.957352633546506 a86.0,86.0 0 0,1 42.265352541879196,-11.944610805530505" fill="none" id="id108" stroke="none" /><text fill="#e1ed5e" style="font-size:6.75px; font-family:Arial;" text-anchor="middle"><textPath startOffset="22.20632615414155" xlink:href="#id108">December</textPath></text></svg>